<svg width="329" height="556" viewBox="0 0 329 556" fill="none" xmlns="http://www.w3.org/2000/svg">
<g opacity="0.2" clip-path="url(#clip0_2545_147907)">
<path d="M28.6301 454.899C24.7413 443.431 10.4705 445.535 7.75641 456.271C5.71833 464.333 20.2339 481.419 21.4095 483.461C23.425 482.226 43.4364 473.868 45.4745 465.807C48.168 455.152 37.5138 446.66 28.6301 454.899Z" fill="white"/>
</g>
<g opacity="0.2" clip-path="url(#clip1_2545_147907)">
<path d="M281.63 15.8995C277.741 4.43114 263.471 6.53537 260.756 17.2711C258.718 25.3329 273.234 42.4193 274.409 44.461C276.425 43.226 296.436 34.8684 298.475 26.8066C301.168 16.1522 290.514 7.66016 281.63 15.8995Z" fill="white"/>
</g>
<g opacity="0.2" clip-path="url(#clip2_2545_147907)">
<path d="M227.627 116.9C224.961 109.038 215.178 110.48 213.317 117.84C211.92 123.367 221.871 135.08 222.677 136.48C224.058 135.633 237.777 129.904 239.174 124.377C241.021 117.073 233.717 111.251 227.627 116.9Z" fill="white"/>
</g>
<g opacity="0.2" clip-path="url(#clip3_2545_147907)">
<path d="M52.4731 42.9286C43.6022 34.6852 32.045 43.3174 34.7579 54.0534C36.795 62.1154 57.6859 70.253 59.6904 71.4909C60.8771 69.4466 74.5142 52.5843 72.4771 44.5224C69.7848 33.8677 56.3751 31.4577 52.4731 42.9286Z" fill="white"/>
</g>
<g opacity="0.2" clip-path="url(#clip4_2545_147907)">
<path d="M224.473 518.929C215.602 510.685 204.045 519.317 206.758 530.053C208.795 538.115 229.686 546.253 231.69 547.491C232.877 545.447 246.514 528.584 244.477 520.522C241.785 509.868 228.375 507.458 224.473 518.929Z" fill="white"/>
</g>
<g opacity="0.2" clip-path="url(#clip5_2545_147907)">
<path d="M311.071 448.549C305.754 443.607 298.826 448.782 300.452 455.217C301.673 460.05 314.196 464.928 315.398 465.67C316.109 464.445 324.284 454.337 323.063 449.504C321.449 443.117 313.411 441.672 311.071 448.549Z" fill="white"/>
</g>
<defs>
<clipPath id="clip0_2545_147907">
<rect width="43" height="43" fill="white" transform="translate(10.5391 439) rotate(14.1876)"/>
</clipPath>
<clipPath id="clip1_2545_147907">
<rect width="43" height="43" fill="white" transform="translate(263.539) rotate(14.1876)"/>
</clipPath>
<clipPath id="clip2_2545_147907">
<rect width="29.4785" height="29.4785" fill="white" transform="translate(215.225 106) rotate(14.1876)"/>
</clipPath>
<clipPath id="clip3_2545_147907">
<rect width="43" height="43" fill="white" transform="translate(29 37.5344) rotate(-14.181)"/>
</clipPath>
<clipPath id="clip4_2545_147907">
<rect width="43" height="43" fill="white" transform="translate(201 513.534) rotate(-14.181)"/>
</clipPath>
<clipPath id="clip5_2545_147907">
<rect width="25.7765" height="25.7765" fill="white" transform="translate(297 445.315) rotate(-14.181)"/>
</clipPath>
</defs>
</svg>
