<svg width="25" height="24" viewBox="0 0 25 24" fill="none" xmlns="http://www.w3.org/2000/svg">
<g clip-path="url(#clip0_372_164593)">
<path d="M24.1988 1.71875L5.6889 20.2236C6.08907 20.4186 6.52798 20.5211 6.97312 20.5234H10.1432C10.4084 20.5227 10.6628 20.6282 10.8498 20.8163L12.5678 22.5333C13.4994 23.4713 14.7666 23.9993 16.0886 24.0004C16.6345 23.9998 17.1766 23.9104 17.6936 23.7355C19.4762 23.1511 20.7727 21.6059 21.0386 19.7489L24.4156 3.70857C24.5768 3.04021 24.5002 2.33661 24.1988 1.71875Z" fill="white"/>
<path d="M20.8208 0.0774024L4.81942 3.44841C2.08535 3.82402 0.173438 6.34494 0.549056 9.07902C0.69742 10.1587 1.1947 11.1604 1.96514 11.9313L3.68212 13.6483C3.86979 13.8359 3.97515 14.0905 3.97496 14.3558V17.5259C3.97726 17.9711 4.07976 18.41 4.27478 18.8101L22.7816 0.3003C22.1735 0.00141685 21.4805 -0.0773327 20.8208 0.0774024Z" fill="white"/>
</g>
<defs>
<clipPath id="clip0_372_164593">
<rect width="24" height="24" fill="white" transform="translate(0.5)"/>
</clipPath>
</defs>
</svg>
