<svg width="26" height="25" viewBox="0 0 26 25" fill="none" xmlns="http://www.w3.org/2000/svg">
<path d="M12.9996 15.3304V6.02344C12.7356 6.04744 12.4746 6.08944 12.2096 6.10144H4.60958C4.18819 6.10144 3.84658 6.44304 3.84658 6.86444V7.62744H1.56158C1.14019 7.62744 0.798584 7.96904 0.798584 8.39044V12.9664C0.798584 13.3878 1.14019 13.7294 1.56158 13.7294H3.84858V14.4924C3.84858 14.6948 3.92897 14.8889 4.07206 15.032C4.21515 15.175 4.40922 15.2554 4.61158 15.2554H5.07358L8.13958 23.4274C8.32537 23.9162 8.74972 24.2748 9.26258 24.3764C9.76305 24.4818 10.2826 24.3237 10.6396 23.9574L12.4716 22.1414C12.9372 21.6758 13.0506 20.9636 12.7526 20.3764L10.1926 15.2554H12.2176C12.4826 15.2644 12.7396 15.3054 12.9996 15.3304Z" fill="#FD7377"/>
<path d="M25.0766 0.369C25.0621 0.344749 25.0458 0.321678 25.0276 0.3C24.946 0.190327 24.8361 0.10494 24.7096 0.053C24.7096 0.053 24.7016 0.045 24.6976 0.044C24.6936 0.043 24.6686 0.044 24.6536 0.044C24.5848 0.0190898 24.5127 0.00426962 24.4396 0C24.3893 0.00502039 24.3397 0.015413 24.2916 0.031C24.263 0.0352122 24.2347 0.0408863 24.2066 0.048C24.0779 0.0892218 23.9626 0.164149 23.8726 0.265C23.8666 0.271 23.8576 0.273 23.8516 0.279C21.4772 3.1451 18.1805 5.09679 14.5256 5.8V15.547C18.1806 16.2511 21.4771 18.2039 23.8506 21.071C23.8566 21.079 23.8676 21.082 23.8746 21.091C23.9293 21.1496 23.9931 21.1989 24.0636 21.237C24.0866 21.251 24.1046 21.271 24.1276 21.281C24.2256 21.3244 24.3315 21.3472 24.4386 21.348C24.5265 21.3476 24.6136 21.3327 24.6966 21.304C24.6966 21.304 24.7046 21.296 24.7086 21.295C24.8354 21.2446 24.9458 21.1601 25.0276 21.051C25.0456 21.027 25.0596 21.005 25.0766 20.979C25.1548 20.8625 25.1982 20.7262 25.2016 20.586V0.763C25.1983 0.622441 25.155 0.485745 25.0766 0.369Z" fill="#FD7377"/>
</svg>
