<svg width="28" height="28" viewBox="0 0 28 28" fill="none" xmlns="http://www.w3.org/2000/svg">
<g clip-path="url(#clip0_2043_121207)">
<path d="M17.4998 7C17.4998 3.1395 14.3603 0 10.4998 0C6.63934 0 3.49984 3.1395 3.49984 7C3.49984 10.8605 6.63934 14 10.4998 14C14.3603 14 17.4998 10.8605 17.4998 7ZM10.4998 11.6667C7.92617 11.6667 5.83317 9.57367 5.83317 7C5.83317 4.42633 7.92617 2.33333 10.4998 2.33333C13.0735 2.33333 15.1665 4.42633 15.1665 7C15.1665 9.57367 13.0735 11.6667 10.4998 11.6667ZM10.4905 17.4277C10.5698 18.067 10.1172 18.6492 9.47667 18.7297C5.40384 19.2383 2.33201 22.7208 2.33201 26.8333C2.33201 27.4773 1.80934 28 1.16534 28C0.521339 28 -0.00132751 27.4773 -0.00132751 26.8333C-0.00132751 21.5472 3.94901 17.0683 9.18734 16.415C9.81967 16.3345 10.4088 16.7883 10.4893 17.4288L10.4905 17.4277ZM26.4785 22.3218L25.3422 21.6662C25.5358 21.0863 25.6665 20.4773 25.6665 19.8322C25.6665 19.187 25.537 18.578 25.3422 17.9982L26.4785 17.3425C27.0362 17.0205 27.2275 16.3065 26.9055 15.7488C26.5823 15.19 25.8707 14.9975 25.3118 15.3218L24.1767 15.9775C23.3542 15.0512 22.2587 14.3733 20.9998 14.1178V12.8333C20.9998 12.1893 20.4772 11.6667 19.8332 11.6667C19.1892 11.6667 18.6665 12.1893 18.6665 12.8333V14.1178C17.4077 14.3745 16.3122 15.0523 15.4897 15.9775L14.3545 15.3218C13.7945 14.9987 13.0828 15.19 12.7608 15.7488C12.4388 16.3077 12.6302 17.0205 13.1878 17.3425L14.3242 17.9982C14.1305 18.578 13.9998 19.187 13.9998 19.8322C13.9998 20.4773 14.1293 21.0863 14.3242 21.6662L13.1878 22.3218C12.6302 22.6438 12.4388 23.3578 12.7608 23.9155C12.9778 24.29 13.3687 24.4988 13.7723 24.4988C13.9695 24.4988 14.1702 24.4487 14.3545 24.3425L15.4897 23.6868C16.3122 24.6132 17.4077 25.291 18.6665 25.5465V26.831C18.6665 27.475 19.1892 27.9977 19.8332 27.9977C20.4772 27.9977 20.9998 27.475 20.9998 26.831V25.5465C22.2587 25.2898 23.3542 24.612 24.1767 23.6868L25.3118 24.3425C25.4962 24.4487 25.6968 24.4988 25.894 24.4988C26.2977 24.4988 26.6897 24.29 26.9055 23.9155C27.2275 23.3567 27.0362 22.6438 26.4785 22.3218ZM19.8332 23.3322C17.9035 23.3322 16.3332 21.7618 16.3332 19.8322C16.3332 17.9025 17.9035 16.3322 19.8332 16.3322C21.7628 16.3322 23.3332 17.9025 23.3332 19.8322C23.3332 21.7618 21.7628 23.3322 19.8332 23.3322Z" fill="white"/>
</g>
<defs>
<clipPath id="clip0_2043_121207">
<rect width="28" height="28" fill="white"/>
</clipPath>
</defs>
</svg>
