<svg width="13" height="14" viewBox="0 0 13 14" fill="none" xmlns="http://www.w3.org/2000/svg">
<rect x="0.516602" y="0.812988" width="12" height="12.8569" rx="2" fill="#BF5C97"/>
<path d="M6.17735 3.87203C6.27558 3.55568 6.70331 3.55568 6.80155 3.87203L7.39813 5.79321C7.44207 5.93469 7.56807 6.03047 7.71024 6.03047H9.64082C9.95872 6.03047 10.0909 6.45612 9.83371 6.65164L8.27183 7.83899C8.15682 7.92643 8.10869 8.08141 8.15262 8.22289L8.74921 10.1441C8.84744 10.4604 8.5014 10.7235 8.24422 10.528L6.68234 9.34061C6.56732 9.25318 6.41157 9.25318 6.29656 9.34061L4.73468 10.528C4.47749 10.7235 4.13145 10.4604 4.22969 10.1441L4.82627 8.22289C4.8702 8.08141 4.82208 7.92643 4.70706 7.83899L3.14518 6.65163C2.88799 6.45612 3.02017 6.03047 3.33807 6.03047H5.26866C5.41083 6.03047 5.53683 5.93469 5.58076 5.79321L6.17735 3.87203Z" fill="white"/>
<path d="M9.00002 3.80148C8.95376 3.7679 8.89604 3.75408 8.83959 3.76308C8.78313 3.77208 8.73257 3.80315 8.69904 3.84945L8.46953 4.16455C8.39941 4.26091 8.42067 4.39588 8.51703 4.46601C8.6134 4.53614 8.74836 4.51487 8.81849 4.41851L9.04799 4.10341C9.08188 4.05708 9.09587 3.99915 9.08686 3.94246C9.07786 3.88578 9.0466 3.83503 9.00002 3.80148Z" fill="white"/>
<path d="M4.48707 4.1664L4.25757 3.8513C4.18744 3.75494 4.05247 3.73367 3.95611 3.8038C3.85975 3.87393 3.83848 4.0089 3.90861 4.10526L4.13811 4.42035C4.18348 4.48269 4.25865 4.51609 4.33532 4.50797C4.41198 4.49985 4.4785 4.45144 4.5098 4.38099C4.5411 4.31053 4.53243 4.22873 4.48707 4.1664Z" fill="white"/>
<path d="M3.17945 8.34237C3.1618 8.28795 3.12322 8.24278 3.07222 8.21684C3.02123 8.1909 2.962 8.18632 2.90762 8.2041L2.53703 8.3245C2.46378 8.34836 2.40881 8.40948 2.39285 8.48486C2.37688 8.56023 2.40234 8.63839 2.45963 8.6899C2.51692 8.74142 2.59734 8.75845 2.6706 8.73459L3.04119 8.6142C3.09561 8.59654 3.14077 8.55796 3.16671 8.50697C3.19265 8.45597 3.19724 8.39675 3.17945 8.34237Z" fill="white"/>
<path d="M6.47812 10.7392C6.35916 10.7392 6.26273 10.8356 6.26273 10.9546V11.344C6.26273 11.4632 6.35938 11.5598 6.47859 11.5598C6.59781 11.5598 6.69446 11.4632 6.69446 11.344V10.9546C6.69446 10.8973 6.67164 10.8423 6.63104 10.8019C6.59044 10.7615 6.53541 10.7389 6.47812 10.7392Z" fill="white"/>
<path d="M10.4201 8.32444L10.0495 8.20404C9.97625 8.18019 9.89583 8.19722 9.83854 8.24873C9.78125 8.30025 9.75579 8.37841 9.77176 8.45378C9.78772 8.52915 9.84269 8.59028 9.91594 8.61414L10.2865 8.73453C10.3998 8.77142 10.5215 8.70951 10.5584 8.59627C10.5952 8.48302 10.5333 8.36132 10.4201 8.32444Z" fill="white"/>
</svg>
