<svg width="53" height="31" viewBox="0 0 53 31" fill="none" xmlns="http://www.w3.org/2000/svg">
<path d="M11.6914 3.08057C11.6914 3.08057 10.6233 4.61276 11.283 6.0811C12.0369 7.7729 19.3876 14.3486 19.3876 14.3486L20.9897 12.4333L11.6914 3.08057Z" fill="#9B1247"/>
<path d="M21.2725 13.7739L32.1729 9.305C32.1729 9.305 24.5709 3.71889 20.3615 1.38868C16.1521 -0.909603 11.3459 1.54829 11.2516 4.61267C11.126 7.74089 21.2725 13.7739 21.2725 13.7739Z" fill="#E54452"/>
<path d="M34.9684 20.5091L34.4344 21.8497C34.4344 21.8497 25.9842 25.6483 14.8325 23.9884C3.71225 22.3285 3.27246 16.8701 3.27246 16.8701L16.4032 16.9659L34.9684 20.5091Z" fill="#9BA4B3"/>
<path d="M15.4926 9.08135C21.7438 5.98505 38.4243 2.63338 41.9426 3.81444C45.4923 4.96359 46.0263 6.49577 48.3823 7.19803C49.3875 7.51724 50.3299 7.86836 51.021 8.18757C52.8115 9.01751 53.3142 11.3796 51.9948 12.848C49.3875 15.7208 42.4138 18.6256 34.4348 21.8496C22.8119 26.51 19.6077 19.9982 19.6077 19.9982C16.4978 19.2959 4.08958 19.4875 3.27283 16.8381C2.36185 13.8375 10.4665 11.5712 15.4926 9.08135Z" fill="#CEDAED"/>
<path d="M36.8535 16.8701C31.2305 17.2532 24.1625 18.945 19.6704 20.158C20.2358 21.1156 23.8798 26.0952 34.4346 21.8498C42.4136 18.6258 49.3874 15.721 51.9947 12.8481C52.0889 12.7524 52.1517 12.6566 52.2146 12.5928C48.6649 14.1888 42.6335 16.4871 36.8535 16.8701Z" fill="#BECADB"/>
<path d="M3.27246 16.87C3.58659 19.0086 5.7227 20.7962 7.6389 21.7857C14.4242 25.4247 26.4554 24.914 33.9946 22.0092C41.1883 19.1044 48.5075 16.2635 52.0258 12.8799C48.2877 16.5508 40.4029 19.4875 34.026 22.1049C24.7905 25.712 7.95304 25.5205 3.86931 18.466C3.58659 17.9553 3.3667 17.4126 3.27246 16.87Z" fill="#788696"/>
<path d="M38.7696 13.2953L39.6177 13.0719C40.1518 12.9123 40.4973 12.3377 40.3403 11.795L39.4293 8.34761C39.2722 7.80496 38.7068 7.45383 38.1727 7.61343L37.3246 7.83687C36.7906 7.99648 36.445 8.57105 36.6021 9.1137L37.5131 12.5611C37.6387 13.1038 38.2042 13.423 38.7696 13.2953Z" fill="#D9E2FF"/>
<path d="M38.8013 13.1037L39.4924 12.9122C39.995 12.7845 40.3091 12.2419 40.1521 11.7311L39.2725 8.41138C39.1468 7.90065 38.6128 7.58145 38.1102 7.74105L37.4191 7.93257C36.9165 8.06026 36.6024 8.60291 36.7594 9.11364L37.639 12.4334C37.7647 12.9441 38.2987 13.2633 38.8013 13.1037Z" fill="#CEDAED"/>
<path d="M5.97422 15.9762L3.90094 14.8909L0.0371094 5.37859L0.759614 5.09131L5.97422 15.9762Z" fill="#9BA4B3"/>
<path d="M16.1523 13.1035C16.1523 13.1035 11.9429 6.84708 9.367 5.85755C6.7597 4.86801 0.759766 5.09145 0.759766 5.09145L6.00578 15.9764C5.97437 15.9764 13.6392 15.2422 16.1523 13.1035Z" fill="#CEDAED"/>
<path d="M2.23601 8.12418L7.82757 7.51768C8.01605 7.48576 8.1417 7.32616 8.1417 7.13464C8.11029 6.94311 7.95322 6.81543 7.76474 6.81543L1.92188 7.45384L2.23601 8.12418Z" fill="#CE2409"/>
<path d="M2.9585 9.68826L9.71235 8.89024C9.90083 8.85832 10.0265 8.69872 10.0265 8.50719C9.99507 8.31567 9.838 8.18799 9.64952 8.18799L2.67578 9.01792L2.9585 9.68826Z" fill="#CE2409"/>
<path d="M3.74366 11.3158L11.7226 10.3263C11.9111 10.2944 12.0368 10.1348 12.0368 9.94323C12.0053 9.75171 11.8483 9.62402 11.6598 9.62402L3.46094 10.6455L3.74366 11.3158Z" fill="#CE2409"/>
<path opacity="0.36" d="M4.12061 6.17681C5.94257 6.14489 8.07868 6.30449 9.71217 7.19827C11.6912 8.25165 13.3247 10.5819 14.2985 11.2522C14.8954 11.6672 16.7801 10.8691 17.377 10.7095C19.4817 10.135 21.5864 9.49655 23.6597 8.85814C27.4607 7.709 31.1988 6.20873 35.1569 5.63416C37.7642 5.25111 41.2511 5.12343 43.5128 6.71946C43.1045 6.43217 41.8793 6.52793 41.3767 6.49601C38.5495 6.33641 35.7538 6.68754 33.0208 7.48556C30.3507 8.28357 27.7748 9.46463 25.1047 10.2307C22.9371 10.8691 20.7382 11.4118 18.5079 11.8587C16.7173 12.2098 14.3927 13.0397 12.7907 11.7948C12.0682 11.2522 11.5655 10.4861 10.9687 9.81576C9.24097 7.80476 6.75932 6.49601 4.12061 6.17681Z" fill="#DEEBFF"/>
<path d="M46.4974 11.348C47.9739 11.0288 48.6335 9.14552 48.7592 7.29412C48.6335 7.2622 48.5079 7.23029 48.3822 7.16644C46.5603 6.62379 45.8378 5.57041 43.9216 4.61279C43.9216 5.37889 43.953 6.36842 43.6074 7.1026C43.2305 7.96446 43.0106 8.89016 43.4189 9.7201C43.953 10.7416 44.864 11.7311 46.4974 11.348Z" fill="#777F91"/>
<path d="M28.9688 20.3816L25.1992 19.7432L25.3563 20.9561C25.3563 20.9561 35.1258 28.4256 36.4138 29.1598C39.2724 30.8515 42.5707 29.9258 44.4555 28.0106C44.644 27.8191 45.2409 27.0849 45.2409 27.0849L28.9688 20.3816Z" fill="#9B1247"/>
<path d="M36.3195 15.4658L25.1992 19.7432C25.1992 19.7432 32.5499 25.7443 36.6651 28.266C40.7802 30.7877 45.7121 28.3618 45.9634 25.1697C46.2147 21.9776 36.3195 15.4658 36.3195 15.4658Z" fill="#E54452"/>
<path d="M20.2045 15.1784C20.1731 16.168 20.9584 16.9979 21.9323 16.9979C22.9061 17.0298 23.7228 16.2318 23.7228 15.2423C23.7542 14.2527 22.9689 13.4228 21.9951 13.4228C21.0213 13.3909 20.2359 14.1889 20.2045 15.1784Z" fill="#D9E2FF"/>
<path d="M20.5812 15.1785C20.5498 15.9446 21.1781 16.6149 21.932 16.6149C22.6859 16.6468 23.3456 16.0084 23.3456 15.2423C23.377 14.4762 22.7487 13.8059 21.9948 13.8059C21.2095 13.774 20.5812 14.3805 20.5812 15.1785Z" fill="#8F95A8"/>
<path d="M22.152 13.6144C22.152 13.6464 22.1206 13.6783 22.0892 13.6783C22.0578 13.6783 22.0264 13.6464 22.0264 13.6144C22.0264 13.5825 22.0578 13.5506 22.0892 13.5506C22.1206 13.5187 22.152 13.5506 22.152 13.6144Z" fill="#8F95A8"/>
<path d="M20.9271 14.0613C20.9618 14.0613 20.9899 14.0327 20.9899 13.9974C20.9899 13.9622 20.9618 13.9336 20.9271 13.9336C20.8924 13.9336 20.8643 13.9622 20.8643 13.9974C20.8643 14.0327 20.8924 14.0613 20.9271 14.0613Z" fill="#8F95A8"/>
<path d="M20.4557 14.9232C20.4557 14.9551 20.4243 14.9871 20.3929 14.9871C20.3615 14.9871 20.3301 14.9551 20.3301 14.9232C20.3301 14.8913 20.3615 14.8594 20.3929 14.8594C20.4243 14.8594 20.4557 14.8913 20.4557 14.9232Z" fill="#8F95A8"/>
<path d="M20.6442 16.0085C20.6442 16.0404 20.6128 16.0723 20.5814 16.0723C20.55 16.0723 20.5186 16.0404 20.5186 16.0085C20.5186 15.9766 20.55 15.9447 20.5814 15.9447C20.6128 15.9127 20.6442 15.9447 20.6442 16.0085Z" fill="#8F95A8"/>
<path d="M21.3356 16.6789C21.3356 16.7108 21.3042 16.7427 21.2728 16.7427C21.2414 16.7427 21.21 16.7108 21.21 16.6789C21.21 16.647 21.2414 16.6151 21.2728 16.6151C21.3042 16.5831 21.3356 16.6151 21.3356 16.6789Z" fill="#8F95A8"/>
<path d="M22.278 16.8065C22.278 16.8384 22.2466 16.8704 22.2152 16.8704C22.1838 16.8704 22.1523 16.8384 22.1523 16.8065C22.1523 16.7746 22.1838 16.7427 22.2152 16.7427C22.2466 16.7427 22.278 16.7746 22.278 16.8065Z" fill="#8F95A8"/>
<path d="M23.0632 16.3915C23.0632 16.4234 23.0317 16.4553 23.0003 16.4553C22.9689 16.4553 22.9375 16.4234 22.9375 16.3915C22.9375 16.3596 22.9689 16.3276 23.0003 16.3276C23.0317 16.3276 23.0632 16.3596 23.0632 16.3915Z" fill="#8F95A8"/>
<path d="M23.5343 15.6893C23.5343 15.7212 23.5029 15.7532 23.4715 15.7532C23.4401 15.7532 23.4087 15.7212 23.4087 15.6893C23.4087 15.6574 23.4401 15.6255 23.4715 15.6255C23.5029 15.6255 23.5343 15.6255 23.5343 15.6893Z" fill="#8F95A8"/>
<path d="M23.5031 14.6356C23.5031 14.6675 23.4717 14.6995 23.4403 14.6995C23.4089 14.6995 23.3774 14.6675 23.3774 14.6356C23.3774 14.6037 23.4089 14.5718 23.4403 14.5718C23.4717 14.5718 23.5031 14.6037 23.5031 14.6356Z" fill="#8F95A8"/>
<path d="M22.8434 13.8378C22.8434 13.8697 22.812 13.9016 22.7806 13.9016C22.7492 13.9016 22.7178 13.8697 22.7178 13.8378C22.7178 13.8058 22.7492 13.7739 22.7806 13.7739C22.812 13.8058 22.8434 13.8058 22.8434 13.8378Z" fill="#8F95A8"/>
<path d="M25.5761 13.4226C25.5447 14.4122 26.33 15.2421 27.3038 15.2421C28.2776 15.274 29.0944 14.476 29.0944 13.4865C29.1258 12.4969 28.3405 11.667 27.3667 11.667C26.4243 11.667 25.6075 12.465 25.5761 13.4226Z" fill="#D9E2FF"/>
<path d="M25.9528 13.4544C25.9214 14.2205 26.5496 14.8908 27.3036 14.8908C28.0575 14.9227 28.7172 14.2843 28.7172 13.5182C28.7486 12.7521 28.1203 12.0818 27.3664 12.0818C26.6125 12.0498 25.9842 12.6563 25.9528 13.4544Z" fill="#8F95A8"/>
<path d="M27.5236 11.8903C27.5236 11.9222 27.4922 11.9542 27.4608 11.9542C27.4294 11.9542 27.3979 11.9222 27.3979 11.8903C27.3979 11.8584 27.4294 11.8265 27.4608 11.8265C27.4922 11.7946 27.5236 11.8265 27.5236 11.8903Z" fill="#8F95A8"/>
<path d="M26.3927 12.2736C26.3927 12.3056 26.3613 12.3375 26.3299 12.3375C26.2985 12.3375 26.2671 12.3056 26.2671 12.2736C26.2671 12.2417 26.2985 12.2098 26.3299 12.2098C26.3613 12.1779 26.3927 12.2098 26.3927 12.2736Z" fill="#8F95A8"/>
<path d="M25.8586 13.1991C25.8586 13.231 25.8271 13.2629 25.7957 13.2629C25.7643 13.2629 25.7329 13.231 25.7329 13.1991C25.7329 13.1672 25.7643 13.1353 25.7957 13.1353C25.8271 13.1353 25.8586 13.1672 25.8586 13.1991Z" fill="#8F95A8"/>
<path d="M26.047 14.2523C26.047 14.2842 26.0156 14.3162 25.9842 14.3162C25.9528 14.3162 25.9214 14.2842 25.9214 14.2523C25.9214 14.2204 25.9528 14.1885 25.9842 14.1885C25.9842 14.1885 26.047 14.2204 26.047 14.2523Z" fill="#8F95A8"/>
<path d="M26.7384 14.9548C26.7384 14.9867 26.707 15.0186 26.6756 15.0186C26.6442 15.0186 26.6128 14.9867 26.6128 14.9548C26.6128 14.9229 26.6442 14.8909 26.6756 14.8909C26.707 14.859 26.7384 14.8909 26.7384 14.9548Z" fill="#8F95A8"/>
<path d="M27.6491 15.0824C27.6491 15.1143 27.6177 15.1462 27.5863 15.1462C27.5548 15.1462 27.5234 15.1143 27.5234 15.0824C27.5234 15.0505 27.5548 15.0186 27.5863 15.0186C27.6177 15.0186 27.6491 15.0505 27.6491 15.0824Z" fill="#8F95A8"/>
<path d="M28.3719 14.7312C28.4066 14.7312 28.4347 14.7026 28.4347 14.6674C28.4347 14.6321 28.4066 14.6035 28.3719 14.6035C28.3372 14.6035 28.3091 14.6321 28.3091 14.6674C28.3091 14.7026 28.3372 14.7312 28.3719 14.7312Z" fill="#8F95A8"/>
<path d="M28.9059 13.965C28.9059 13.997 28.8745 14.0289 28.8431 14.0289C28.8117 14.0289 28.7803 13.997 28.7803 13.965C28.7803 13.9331 28.8117 13.9012 28.8431 13.9012C28.8745 13.8693 28.9059 13.9012 28.9059 13.965Z" fill="#8F95A8"/>
<path d="M28.8742 12.912C28.8742 12.9439 28.8428 12.9758 28.8114 12.9758C28.7799 12.9758 28.7485 12.9439 28.7485 12.912C28.7485 12.8801 28.7799 12.8481 28.8114 12.8481C28.8428 12.8481 28.8742 12.8801 28.8742 12.912Z" fill="#8F95A8"/>
<path d="M28.2145 12.1136C28.2145 12.1456 28.1831 12.1775 28.1517 12.1775C28.1203 12.1775 28.0889 12.1456 28.0889 12.1136C28.0889 12.0817 28.1203 12.0498 28.1517 12.0498C28.1831 12.0817 28.2145 12.0817 28.2145 12.1136Z" fill="#8F95A8"/>
<path d="M30.6025 11.284C30.5711 12.2735 31.3564 13.1034 32.3302 13.1034C33.304 13.1354 34.1208 12.3373 34.1208 11.3478C34.1522 10.3583 33.3668 9.52832 32.393 9.52832C31.4506 9.52832 30.6339 10.3263 30.6025 11.284Z" fill="#D9E2FF"/>
<path d="M30.9792 11.3157C30.9477 12.0818 31.576 12.7521 32.3299 12.7521C33.0838 12.784 33.7435 12.1456 33.7435 11.3795C33.7749 10.6134 33.1467 9.9431 32.3928 9.9431C31.6388 9.91118 31.0106 10.5177 30.9792 11.3157Z" fill="#8F95A8"/>
<path d="M32.55 9.75166C32.55 9.78358 32.5186 9.8155 32.4871 9.8155C32.4557 9.8155 32.4243 9.78358 32.4243 9.75166C32.4243 9.71974 32.4557 9.68782 32.4871 9.68782C32.5186 9.6559 32.55 9.68781 32.55 9.75166Z" fill="#8F95A8"/>
<path d="M31.3563 10.1985C31.391 10.1985 31.4191 10.1699 31.4191 10.1346C31.4191 10.0994 31.391 10.0708 31.3563 10.0708C31.3216 10.0708 31.2935 10.0994 31.2935 10.1346C31.2935 10.1699 31.3216 10.1985 31.3563 10.1985Z" fill="#8F95A8"/>
<path d="M30.8849 11.0604C30.8849 11.0923 30.8535 11.1243 30.8221 11.1243C30.7907 11.1243 30.7593 11.0923 30.7593 11.0604C30.7593 11.0285 30.7907 10.9966 30.8221 10.9966C30.8535 10.9966 30.8849 11.0285 30.8849 11.0604Z" fill="#8F95A8"/>
<path d="M31.0734 12.1141C31.0734 12.1461 31.042 12.178 31.0106 12.178C30.9792 12.178 30.9478 12.1461 30.9478 12.1141C30.9478 12.0822 30.9792 12.0503 31.0106 12.0503C31.042 12.0503 31.0734 12.0822 31.0734 12.1141Z" fill="#8F95A8"/>
<path d="M31.7648 12.8161C31.7648 12.848 31.7334 12.8799 31.702 12.8799C31.6706 12.8799 31.6392 12.848 31.6392 12.8161C31.6392 12.7842 31.6706 12.7523 31.702 12.7523C31.7334 12.7203 31.7648 12.7523 31.7648 12.8161Z" fill="#8F95A8"/>
<path d="M32.7072 12.9437C32.7072 12.9756 32.6758 13.0076 32.6444 13.0076C32.613 13.0076 32.5815 12.9756 32.5815 12.9437C32.5815 12.9118 32.613 12.8799 32.6444 12.8799C32.6758 12.8799 32.7072 12.9118 32.7072 12.9437Z" fill="#8F95A8"/>
<path d="M33.4924 12.5291C33.4924 12.561 33.4609 12.6248 33.4295 12.6248C33.3981 12.6248 33.3667 12.5929 33.3667 12.5291C33.3667 12.4972 33.3981 12.4652 33.4295 12.4652C33.4609 12.4333 33.4924 12.4972 33.4924 12.5291Z" fill="#8F95A8"/>
<path d="M33.9635 11.8269C33.9635 11.8588 33.9321 11.8907 33.9007 11.8907C33.8693 11.8907 33.8379 11.8588 33.8379 11.8269C33.8379 11.7949 33.8693 11.763 33.9007 11.763C33.9007 11.7311 33.9635 11.763 33.9635 11.8269Z" fill="#8F95A8"/>
<path d="M33.9006 10.7733C33.9006 10.8052 33.8691 10.8372 33.8377 10.8372C33.8063 10.8372 33.7749 10.8052 33.7749 10.7733C33.7749 10.7414 33.8063 10.7095 33.8377 10.7095C33.8691 10.7095 33.9006 10.7414 33.9006 10.7733Z" fill="#8F95A8"/>
<path d="M33.2414 9.97497C33.2414 10.0069 33.21 10.0388 33.1785 10.0388C33.1471 10.0388 33.1157 10.0069 33.1157 9.97497C33.1157 9.94305 33.1471 9.91113 33.1785 9.91113C33.21 9.94305 33.2414 9.94305 33.2414 9.97497Z" fill="#8F95A8"/>
<path d="M39.5287 9.14294L36.8696 9.91064L36.9469 10.187L39.6059 9.41928L39.5287 9.14294Z" fill="#D9E2FF"/>
<path d="M40.062 11.2159L37.4082 12.0024L37.4874 12.2782L40.1412 11.4917L40.062 11.2159Z" fill="#D9E2FF"/>
<path d="M39.335 26.8295C43.1674 27.3084 43.7328 23.7971 42.3506 22.3926C40.9684 20.9881 36.3821 17.0938 36.3821 17.0938L29.1885 20.3177C29.1885 20.2858 35.4711 26.3188 39.335 26.8295Z" fill="#FC4B5A"/>
<path d="M16.0895 1.45264C16.0895 1.45264 13.4194 1.45264 13.0739 3.14443C12.7597 4.83623 16.8435 7.42179 16.8435 7.42179L22.3408 5.09159C22.3408 5.09159 17.9429 1.45264 16.0895 1.45264Z" fill="#FC4B5A"/>
</svg>
