<svg width="54" height="31" viewBox="0 0 54 31" fill="none" xmlns="http://www.w3.org/2000/svg">
<path d="M11.8779 23.0972L15.4716 29.1031L18.703 30.0452L19.0654 26.2179L13.7503 23.0972H11.8779Z" fill="#9CC9B5"/>
<path d="M40.3863 6.72832L37.3663 4.87356C37.3663 4.87356 35.3128 2.54775 40.3561 2.10614C45.4296 1.66453 49.7481 3.69594 48.8421 4.37307C47.9361 5.02077 46.0034 6.69888 40.3863 6.72832Z" fill="#672A40"/>
<path d="M0.583282 13.1757C0.64368 20.0942 10.6699 25.5996 22.9912 25.5113C35.3125 25.423 45.2481 19.7409 45.1877 12.8224C45.1575 9.90776 43.3455 7.22866 40.3558 5.10894C36.2487 2.22375 29.9068 0.427875 22.81 0.486757C10.4585 0.575079 0.522883 6.25713 0.583282 13.1757Z" fill="#99D4D3"/>
<path d="M1.24763 13.0579C1.30803 19.9765 10.6698 25.5996 22.961 25.5113C35.2823 25.423 45.2179 19.7409 45.1575 12.8224C45.1273 9.90776 43.3153 7.22866 40.3256 5.10894C36.2185 2.22375 29.8766 0.427875 22.7798 0.486757C10.4584 0.575079 1.21743 6.13936 1.24763 13.0579Z" fill="#99D4D3"/>
<path d="M0.583565 13.1757C0.643963 18.6517 10.6399 23.0089 22.9613 22.8912C35.2826 22.8028 45.2182 18.269 45.1578 12.8225C45.1276 10.4966 43.3458 8.40635 40.3259 6.72824C36.2188 4.46131 29.8769 3.04816 22.7801 3.0776C10.4889 3.19536 0.553365 7.69978 0.583565 13.1757Z" fill="#CE2409"/>
<path d="M0.583565 13.1756C0.613764 16.5612 10.6097 19.2109 22.9311 19.1226C35.2524 19.0343 45.188 16.208 45.1578 12.8223C45.1578 11.4091 43.3458 10.0843 40.3561 9.08332C36.249 7.69961 29.9373 6.84584 22.8405 6.90472C10.5191 6.9636 0.553365 9.7899 0.583565 13.1756Z" fill="#99D4D3"/>
<path d="M0.583496 13.1757C0.583496 14.4122 10.5795 15.3543 22.9008 15.2365C35.2221 15.1482 45.1879 14.0589 45.1577 12.8224C45.1577 12.2924 43.376 11.8214 40.356 11.4681C36.2791 10.9676 29.9373 10.7026 22.8404 10.7615C10.5493 10.8498 0.583496 11.9097 0.583496 13.1757Z" fill="#BF2723"/>
<path d="M0.583205 13.1756C0.553006 9.08339 3.99573 5.43274 9.37121 3.10693C10.7 5.63883 12.8139 10.9381 11.4248 17.474C10.9416 19.7703 10.1866 21.5662 9.34101 22.9794C4.05613 20.7419 0.613404 17.209 0.583205 13.1756Z" fill="#9B1648"/>
<path d="M9.12987 17.5034C10.368 11.6447 8.82787 6.78702 7.5293 4.0196C8.13328 3.69575 8.73727 3.40134 9.37146 3.10693C10.7002 5.63883 12.8142 10.9381 11.425 17.474C10.9418 19.7703 10.1868 21.5662 9.34126 22.9794C8.70707 22.7144 8.10308 22.42 7.5293 22.1256C8.19368 20.8891 8.73728 19.3582 9.12987 17.5034Z" fill="#5E2D48"/>
<path d="M2.06327 17.5621C1.12709 16.2078 0.613695 14.7064 0.583496 13.146C0.583496 11.7329 0.976093 10.408 1.73108 9.14209C2.15387 10.4375 2.42566 12.0567 2.42566 13.8232C2.45586 15.1774 2.30487 16.4728 2.06327 17.5621Z" fill="#5E2D48"/>
<path opacity="0.4" d="M22.2665 20.3295C33.5309 20.2412 42.8323 15.4718 44.2517 9.34814C44.8254 10.4374 45.1576 11.6151 45.1576 12.8221C45.218 19.7407 35.2824 25.4227 22.9611 25.5111C10.6398 25.5994 0.613621 20.094 0.553223 13.1754C0.553223 12.5866 0.613614 12.0272 0.734411 11.4679C3.51275 16.6494 12.1196 20.4178 22.2665 20.3295Z" fill="black" fill-opacity="0.37"/>
<path d="M40.1749 20.8009C28.3368 29.1915 7.04626 26.1591 1.82178 17.1797C4.53972 21.2719 10.1568 23.5389 15.0491 24.5398C23.1727 26.1591 33.1385 25.2759 40.1749 20.8009Z" fill="#1C3D3B"/>
<path d="M51.4994 12.0861C51.5296 14.2059 48.3587 16.5906 42.5302 18.2981C37.1245 14.0292 39.2384 9.11264 41.896 6.34521C47.8755 7.96445 51.4692 9.96641 51.4994 12.0861Z" fill="#691E67"/>
<path d="M50.8957 13.7349C49.7179 15.3836 46.8791 17.0323 42.5002 18.2982C37.5173 14.3532 38.9367 9.8782 41.2621 7.02246C40.6581 9.96653 41.3225 14.2649 50.8957 13.7349Z" fill="#552068"/>
<path d="M41.896 6.34521C42.2584 6.43354 42.6208 6.5513 42.953 6.63962C40.5068 9.40704 38.7553 13.9703 43.5268 18.0037C43.1946 18.092 42.8926 18.2098 42.5302 18.2981C37.1245 14.0292 39.2384 9.14208 41.896 6.34521Z" fill="#412B56"/>
<path d="M51.8619 10.7024L51.4995 12.0861C51.4995 12.0861 52.0733 12.0567 52.6773 11.7034C53.1001 11.4385 53.5229 10.7024 53.0397 10.3197C52.6169 10.0253 51.9827 10.2314 51.8619 10.7024Z" fill="#648687"/>
<path d="M51.8619 13.7939L51.4995 12.4102C51.4995 12.4102 52.0733 12.4396 52.6471 12.7929C53.0699 13.0579 53.4927 13.7939 53.0095 14.1766C52.6169 14.471 51.9827 14.2355 51.8619 13.7939Z" fill="#648687"/>
<path d="M50.8652 12.2628C50.8652 12.6161 51.137 12.881 51.4692 12.881C51.8014 12.881 52.043 12.5866 52.043 12.2628C52.043 11.9095 51.7712 11.6445 51.439 11.6445C51.137 11.6445 50.8652 11.9389 50.8652 12.2628Z" fill="#6E9495"/>
<path d="M49.8081 11.2914L51.1671 11.9097C51.1671 11.9097 51.2577 11.3798 51.0161 10.7321C50.8349 10.261 50.1705 9.73109 49.6873 10.1433C49.2645 10.4377 49.3551 11.0854 49.8081 11.2914Z" fill="#6E9495"/>
<path d="M50.3519 13.8234L51.0465 12.5574C51.0465 12.5574 50.5029 12.4397 49.8386 12.6457C49.3554 12.7929 48.7816 13.4112 49.144 13.9117C49.446 14.2944 50.1405 14.2355 50.3519 13.8234Z" fill="#6E9495"/>
<path d="M39.1175 18.4161L37.7586 19.3582C37.4264 19.5937 37.2452 19.9175 37.1848 20.3003C37.064 20.9774 37.4566 21.9195 40.4463 22.0078C45.2178 22.1256 49.1437 19.9764 48.2679 19.417C47.4828 18.9165 45.8218 17.6506 41.6543 17.6212C40.7483 17.5917 39.8725 17.8861 39.1175 18.4161Z" fill="#9B1648"/>
<path d="M37.759 19.3581L37.8194 19.3286C41.5037 20.9478 45.792 20.3296 48.3892 19.6525C48.2382 20.4179 44.6746 22.1255 40.4467 22.0077C37.3362 21.9194 37.004 20.9184 37.155 20.2413C37.2456 19.888 37.457 19.5641 37.759 19.3581Z" fill="#672A40"/>
<path d="M38.0609 10.4966C38.0609 10.4966 46.1543 9.87837 47.0905 11.792C47.9663 13.5585 40.356 14.4122 39.1481 14.3828C39.1481 14.3828 37.8797 14.5006 36.8227 14.1178C35.7959 13.7351 34.6786 10.8794 38.0609 10.4966Z" fill="#CC1D60"/>
<path d="M15.6529 23.2441C15.6529 23.2441 14.2637 24.5395 13.2974 24.5395L16.1361 25.776H17.2233L15.6529 23.2441Z" fill="#9CC9B5"/>
<path d="M32.0511 23.0972L28.7593 29.9568L18.703 30.0452L15.6528 23.2444H16.7702C16.7702 23.2444 16.9212 24.5398 21.3303 25.2169C25.7394 25.894 30.4807 23.1266 30.4807 23.1266L32.0511 23.0972Z" fill="#84AB99"/>
<path d="M30.4504 23.1265C30.4504 23.1265 25.7091 25.8939 21.3 25.2168C16.8909 24.5396 16.7399 23.2442 16.7399 23.2442H15.6226L15.9548 23.9802C17.9177 24.834 23.6858 27.4248 27.2493 29.9861H28.7291L32.0208 23.1265H30.4504Z" fill="#709182"/>
<path d="M20.1524 26.8064C20.1524 27.3953 19.6692 27.8663 19.0652 27.8663C18.4612 27.8663 17.978 27.3953 17.978 26.8064C17.978 26.2176 18.4612 25.7466 19.0652 25.7466C19.6692 25.7466 20.1524 26.2176 20.1524 26.8064Z" fill="#1C3D3B"/>
<path d="M19.7899 26.8066C19.7899 27.1893 19.4577 27.5132 19.0651 27.5132C18.6725 27.5132 18.3403 27.1893 18.3403 26.8066C18.3403 26.4238 18.6725 26.1 19.0651 26.1C19.4577 26.0706 19.7899 26.3944 19.7899 26.8066Z" fill="#6D7B9E"/>
<path opacity="0.56" d="M18.3403 26.8066C18.3403 26.9243 18.3705 27.0421 18.4309 27.1304C18.5215 27.1599 18.6121 27.1893 18.7329 27.1893C19.1255 27.1893 19.4577 26.8655 19.4577 26.4827C19.4577 26.365 19.4275 26.2472 19.3671 26.1589C19.2765 26.1294 19.1859 26.1 19.0651 26.1C18.6423 26.0706 18.3403 26.3944 18.3403 26.8066Z" fill="#6D7B9E"/>
<path d="M22.7498 27.8663C23.3502 27.8663 23.8369 27.3918 23.8369 26.8064C23.8369 26.2211 23.3502 25.7466 22.7498 25.7466C22.1493 25.7466 21.6626 26.2211 21.6626 26.8064C21.6626 27.3918 22.1493 27.8663 22.7498 27.8663Z" fill="#1C3D3B"/>
<path d="M23.4745 26.8066C23.4745 27.1893 23.1423 27.5132 22.7497 27.5132C22.3571 27.5132 22.0249 27.1893 22.0249 26.8066C22.0249 26.4238 22.3571 26.1 22.7497 26.1C23.1725 26.0706 23.4745 26.3944 23.4745 26.8066Z" fill="#6D7B9E"/>
<path opacity="0.56" d="M22.0249 26.8066C22.0249 26.9243 22.0551 27.0421 22.1155 27.1304C22.2061 27.1599 22.2967 27.1893 22.4175 27.1893C22.8101 27.1893 23.1423 26.8655 23.1423 26.4827C23.1423 26.365 23.1121 26.2472 23.0517 26.1589C22.9611 26.1294 22.8705 26.1 22.7497 26.1C22.3571 26.0706 22.0249 26.3944 22.0249 26.8066Z" fill="#6D7B9E"/>
<path d="M26.4646 27.8663C27.065 27.8663 27.5518 27.3918 27.5518 26.8064C27.5518 26.2211 27.065 25.7466 26.4646 25.7466C25.8642 25.7466 25.3774 26.2211 25.3774 26.8064C25.3774 27.3918 25.8642 27.8663 26.4646 27.8663Z" fill="#1C3D3B"/>
<path d="M27.1893 26.8066C27.1893 27.1893 26.8571 27.5132 26.4645 27.5132C26.0719 27.5132 25.7397 27.1893 25.7397 26.8066C25.7397 26.4238 26.0719 26.1 26.4645 26.1C26.8571 26.0706 27.1893 26.3944 27.1893 26.8066Z" fill="#6D7B9E"/>
<path opacity="0.56" d="M25.7397 26.8066C25.7397 26.9243 25.77 27.0421 25.8304 27.1304C25.921 27.1599 26.0116 27.1893 26.1324 27.1893C26.5249 27.1893 26.8571 26.8655 26.8571 26.4827C26.8571 26.365 26.8269 26.2472 26.7665 26.1589C26.6759 26.1294 26.5853 26.1 26.4645 26.1C26.0417 26.0706 25.7397 26.3944 25.7397 26.8066Z" fill="#6D7B9E"/>
<path d="M13.4785 25.0992L15.6529 24.481L17.495 28.6615L15.4717 28.4849L13.4785 25.0992Z" fill="#1C3D3B"/>
<path d="M13.9014 25.305L15.5623 28.2785H16.9817L15.4717 24.834L13.9014 25.305Z" fill="#6D7B9E"/>
<path opacity="0.56" d="M15.5925 25.1284L15.4717 24.834L13.9014 25.305L15.5623 28.2785H15.6831C15.7737 27.2776 15.6831 25.9527 15.5925 25.1284Z" fill="#6D7B9E"/>
<path d="M37.2456 12.6455C37.2758 12.9988 39.2086 13.1166 41.5943 12.9694C43.98 12.8222 45.8826 12.41 45.8524 12.0567C45.8222 11.7034 43.8894 11.5857 41.5037 11.7329C39.1482 11.8801 37.2456 12.2923 37.2456 12.6455Z" fill="#D93B76"/>
<path opacity="0.39" d="M13.0861 6.37498C13.1163 9.34848 17.767 11.7332 23.4746 11.6743C29.1823 11.6154 33.8028 9.17184 33.8028 6.19833C33.7726 3.22483 29.1219 0.840135 23.4143 0.899017C17.6764 0.957898 13.0559 3.40147 13.0861 6.37498Z" fill="black" fill-opacity="0.11"/>
<path d="M32.0512 23.0972L28.7595 29.9568L18.7031 30.0452L28.3971 29.6624L32.0512 23.0972Z" fill="#1C3D3B"/>
</svg>
