<svg width="54" height="31" viewBox="0 0 54 31" fill="none" xmlns="http://www.w3.org/2000/svg">
<path d="M16.6543 3.23819C13.8657 3.32161 11.0443 4.65636 9.07591 7.20073C6.05766 11.0381 3.62994 8.11837 1.26783 11.1216C-1.09428 14.1247 5.49994 21.3825 12.6519 23.2177C18.8852 24.8028 36.8963 22.4669 43.9826 20.8819C45.5574 20.5482 46.7712 18.8798 46.8697 16.836C46.9353 15.6681 46.8368 13.5408 46.3447 12.9151C45.8526 12.2895 44.9012 12.9986 44.2779 12.7066C42.8016 12.0392 41.2924 11.4135 39.7833 10.8296C35.7481 9.24457 31.68 7.74297 27.6119 6.3248C24.5937 5.28203 21.5098 3.94727 18.4259 3.40503C17.8354 3.23819 17.2449 3.19648 16.6543 3.23819Z" fill="#EFF0A9"/>
<path d="M44.2779 12.6652C42.8016 11.9978 41.2924 11.3721 39.7833 10.7882C39.1928 10.5379 38.6023 10.3294 38.0117 10.0791C39.2912 12.0395 42.5391 17.5871 39.0288 19.5475C34.731 21.925 14.5219 22.8844 6.02485 19.5475C5.49993 19.3389 4.97502 19.047 4.48291 18.7133C6.68098 20.7154 9.60081 22.4673 12.6191 23.2181C18.8524 24.8031 36.8635 22.4673 43.9498 20.8822C45.5246 20.5486 46.7384 18.8801 46.8368 16.8363C46.9025 15.6684 46.804 13.5411 46.3119 12.9154C45.8526 12.2481 44.9012 12.9154 44.2779 12.6652Z" fill="#CFC292"/>
<path d="M20.9192 21.6328C29.8099 21.6328 42.1782 20.0477 45.9182 19.5055C46.4103 18.8798 46.7383 18.0456 46.8696 17.1697L46.7711 17.2114C45.1964 17.4617 20.7551 20.882 13.7016 18.7964C6.6153 16.7109 3.07214 11.4553 3.03933 11.4136L1.72705 12.79C1.89109 13.0403 5.63109 18.6713 13.3408 20.9237C15.0795 21.4659 17.7697 21.6328 20.9192 21.6328Z" fill="#996983"/>
<path d="M46.8369 17.1699L46.7385 17.2116C45.8527 17.3368 37.4541 18.5047 29.1211 19.1303C28.1697 20.048 27.1855 20.7988 26.1685 21.5079C34.1078 21.0908 42.8673 19.9646 45.9183 19.5474C46.4104 18.9218 46.7385 18.0876 46.8369 17.1699Z" fill="#804062"/>
<path d="M35.4201 9.8284C35.0921 9.53642 35.1905 8.86905 35.5842 8.74392C36.2403 8.53536 37.2573 8.07654 38.504 7.07548C40.9317 5.07335 43.3923 0.526855 45.9512 0.526855C48.5102 0.526855 51.6596 1.48621 53.0375 3.23807C54.1202 4.61453 53.0375 7.45088 51.7581 7.36745C49.2975 7.20061 47.0667 10.5375 46.3449 12.915C46.2137 13.3321 45.8856 13.6241 45.5247 13.5407C43.5235 13.1236 37.9135 11.9974 35.4201 9.8284Z" fill="#09919D"/>
<path opacity="0.25" d="M53.0373 3.19656C51.6594 1.4447 48.4772 0.485352 45.951 0.485352C45.7542 0.485352 45.5901 0.527062 45.3933 0.568773C46.115 1.48641 41.6861 9.0361 37.3228 11.0382C40.0785 12.4147 43.9498 13.2072 45.5245 13.4992C45.8854 13.5826 46.2135 13.2906 46.3447 12.8735C47.0665 10.5377 49.2973 7.15911 51.7579 7.32595C53.0045 7.40937 54.12 4.57303 53.0373 3.19656Z" fill="#09919D"/>
<path d="M52.1189 5.24032C49.2975 5.03177 47.329 9.36971 45.3934 11.8307C44.9341 12.4146 44.4748 12.8734 44.0483 13.2071C44.6389 13.3322 45.131 13.4157 45.4918 13.4991C45.8527 13.5825 46.1808 13.2905 46.312 12.8734C47.0338 10.5376 49.2647 7.15902 51.7252 7.32587C52.7094 7.40929 53.5952 5.65743 53.3984 4.23926C53.1031 4.86492 52.611 5.28203 52.1189 5.24032Z" fill="#077882"/>
<path d="M19.3775 14.7503C20.0665 13.8743 22.199 8.49363 21.2476 8.24336C19.8369 7.86796 15.736 5.90755 12.9802 4.07227C11.2742 4.32253 9.8635 5.57386 8.68245 7.03374C8.48561 7.28401 8.32157 7.49256 8.15754 7.70112C7.5014 8.57705 7.5014 9.99522 8.22315 10.8294C8.9121 11.6219 9.96193 12.4562 11.5039 13.4155C16.1625 16.2519 18.6886 15.5845 19.3775 14.7503Z" fill="#0988A3"/>
<path d="M19.3775 14.7503C20.0665 13.8743 22.199 8.49363 21.2476 8.24336C19.8369 7.86796 15.736 5.90755 12.9802 4.07227C11.2742 4.32253 9.8635 5.57386 8.68245 7.03374C8.48561 7.28401 8.32157 7.49256 8.15754 7.70112C7.5014 8.57705 7.5014 9.99522 8.22315 10.8294C8.9121 11.6219 9.96193 12.4562 11.5039 13.4155C16.1625 16.2519 18.6886 15.5845 19.3775 14.7503Z" fill="#0988A3"/>
<path d="M26.1028 13.7076L24.9217 13.499C24.0687 13.3739 23.4782 12.3728 23.5766 11.2883L23.7407 9.78675C23.8391 8.70227 24.6264 7.95147 25.4794 8.0766L26.6605 8.28515C27.5135 8.41029 28.104 9.41135 28.0056 10.4958L27.8415 11.9974C27.7431 13.0819 26.9557 13.8327 26.1028 13.7076Z" fill="#076C82"/>
<path d="M31.3521 14.5419L30.3679 14.375C29.6789 14.2499 29.1868 13.4574 29.2524 12.5398L29.3837 11.2884C29.4821 10.4125 30.1054 9.78683 30.8272 9.87025L31.8114 10.0371C32.5004 10.1622 32.9925 10.9547 32.9268 11.8724L32.7956 13.1237C32.6972 13.9996 32.0739 14.6253 31.3521 14.5419Z" fill="#076C82"/>
<path d="M36.0435 15.4181L35.2233 15.293C34.6328 15.2096 34.2063 14.5005 34.3047 13.7497L34.4031 12.7069C34.4687 11.9561 35.0264 11.4139 35.617 11.539L36.4371 11.6641C37.0277 11.7475 37.4542 12.4566 37.3557 13.2074L37.2573 14.2502C37.1917 15.001 36.634 15.5015 36.0435 15.4181Z" fill="#076C82"/>
<path d="M40.2097 15.9182L39.652 15.8348C39.2583 15.7514 38.9631 15.2926 39.0287 14.792L39.0943 14.083C39.1599 13.5824 39.5208 13.207 39.9145 13.2904L40.4722 13.3739C40.8659 13.4573 41.1611 13.9161 41.0955 14.4166L41.0299 15.1257C40.9643 15.6263 40.6034 15.9599 40.2097 15.9182Z" fill="#076C82"/>
<path d="M26.6605 8.24371L25.4794 8.03516C25.4138 8.03516 25.3482 8.03516 25.2826 8.03516C24.528 8.03516 23.8391 8.78595 23.7407 9.74531L23.5766 11.2469C23.4782 12.3314 24.0687 13.3324 24.9217 13.4576L26.1028 13.6661C26.1684 13.6661 26.234 13.6661 26.2996 13.6661C27.0542 13.6661 27.7431 12.9153 27.8415 11.956L28.0056 10.4544C28.1368 9.36991 27.5135 8.36884 26.6605 8.24371ZM27.7431 10.4127L27.5791 11.9143C27.4807 12.7068 26.9557 13.3324 26.2996 13.3324C26.234 13.3324 26.2012 13.3324 26.1356 13.3324L24.9545 13.1239C24.6264 13.0822 24.3312 12.8319 24.1015 12.4982C23.9047 12.1645 23.8063 11.7474 23.8391 11.2886L24.0031 9.78702C24.1015 8.99451 24.6264 8.36884 25.2826 8.36884C25.3482 8.36884 25.381 8.36884 25.4466 8.36884L26.6277 8.5774C26.9557 8.61911 27.251 8.86938 27.4807 9.20306C27.6775 9.57846 27.7759 9.99557 27.7431 10.4127Z" fill="#28A0B7"/>
<path d="M31.8112 10.037L30.827 9.87012C30.7614 9.87012 30.7286 9.87012 30.663 9.87012C30.0396 9.87012 29.4819 10.4541 29.3835 11.2883L29.2523 12.5396C29.1538 13.4155 29.6459 14.2498 30.3677 14.3749L31.3519 14.5417C31.4175 14.5417 31.4503 14.5417 31.516 14.5417C32.1393 14.5417 32.697 13.9578 32.7954 13.1236L32.9267 11.8722C33.0251 10.9963 32.533 10.1621 31.8112 10.037ZM32.6314 11.8305L32.5002 13.0819C32.4345 13.7075 32.0081 14.1663 31.516 14.1663C31.4831 14.1663 31.4175 14.1663 31.3847 14.1663L30.4005 13.9995C30.1381 13.9578 29.9084 13.7909 29.7444 13.499C29.5803 13.2487 29.5147 12.915 29.5475 12.5813L29.6788 11.33C29.7444 10.7043 30.1709 10.2455 30.663 10.2455C30.6958 10.2455 30.7614 10.2455 30.7942 10.2455L31.7784 10.4124C32.0409 10.4541 32.2705 10.6209 32.4346 10.9129C32.5986 11.1632 32.6642 11.4968 32.6314 11.8305Z" fill="#28A0B7"/>
<path d="M36.4369 11.6637L35.6168 11.5386C35.584 11.5386 35.5184 11.5386 35.4855 11.5386C34.9606 11.5386 34.5013 12.0391 34.4029 12.7482L34.3045 13.791C34.2389 14.5418 34.6326 15.2509 35.2231 15.3343L36.0433 15.4594C36.0761 15.4594 36.1417 15.4594 36.1745 15.4594C36.6994 15.4594 37.1587 14.9589 37.2571 14.2498L37.3556 13.207C37.454 12.4562 37.0275 11.7471 36.4369 11.6637ZM37.0931 13.1236L36.9947 14.1664C36.9291 14.6669 36.601 15.0423 36.2073 15.0423C36.1745 15.0423 36.1417 15.0423 36.1089 15.0423L35.2887 14.9172C34.8622 14.8337 34.5341 14.3332 34.5998 13.791L34.6982 12.7482C34.7638 12.2477 35.0919 11.8723 35.4855 11.8723C35.5184 11.8723 35.5512 11.8723 35.584 11.8723L36.4042 11.9974C36.8306 12.0808 37.1259 12.5813 37.0931 13.1236Z" fill="#28A0B7"/>
<path d="M40.4722 13.3324L39.9145 13.249C39.8817 13.249 39.8489 13.249 39.8161 13.249C39.4552 13.249 39.1271 13.5827 39.0943 14.0832L39.0287 14.7923C38.9631 15.2929 39.2583 15.7934 39.652 15.8351L40.2097 15.9185C40.2425 15.9185 40.2754 15.9185 40.3082 15.9185C40.669 15.9185 40.9971 15.5848 41.0299 15.0843L41.0955 14.3752C41.1611 13.8747 40.8659 13.3742 40.4722 13.3324ZM40.8331 14.3335L40.7675 15.0426C40.7347 15.3346 40.5378 15.5431 40.3082 15.5431C40.2754 15.5431 40.2753 15.5431 40.2425 15.5431L39.6848 15.4597C39.5536 15.4597 39.4552 15.3763 39.3896 15.2511C39.3239 15.126 39.2911 14.9592 39.2911 14.834L39.3568 14.125C39.3896 13.833 39.5864 13.6244 39.8161 13.6244C39.8489 13.6244 39.8489 13.6244 39.8817 13.6244L40.4394 13.7078C40.5706 13.7078 40.669 13.7913 40.7346 13.9164C40.8003 14.0415 40.8331 14.1667 40.8331 14.3335Z" fill="#28A0B7"/>
<path d="M26.7588 21.3826C27.6446 21.2992 28.4648 22.9259 28.596 25.0532C28.7272 27.1387 28.0711 28.8906 27.1853 29.0157C27.3493 29.0157 27.5134 29.0157 27.6774 28.974C31.2206 28.6403 33.9763 26.6799 33.8451 24.5943C33.7139 22.5088 30.7613 21.0489 27.2509 21.3409C27.0869 21.3409 26.9228 21.3409 26.7588 21.3826Z" fill="#A0D2D3"/>
<path d="M27.2509 21.341C27.0869 21.341 26.9228 21.3827 26.7588 21.3827C27.6446 21.2993 28.4648 22.926 28.596 25.0532C29.8098 25.7206 31.0893 26.7217 31.483 27.8479C32.9921 27.0137 33.9107 25.804 33.8451 24.5944C33.7467 22.4672 30.7941 21.0073 27.2509 21.341Z" fill="#80A8A8"/>
<path d="M28.5961 25.0532C28.4649 22.9676 27.6775 21.3409 26.7589 21.3826C26.7589 21.3826 26.7589 21.3826 26.7261 21.3826C25.8403 21.466 25.217 23.2596 25.3154 25.3034C25.4466 27.389 26.234 29.0157 27.1198 28.974C27.1198 28.974 27.1198 28.974 27.1526 28.974C28.0712 28.8906 28.7273 27.1387 28.5961 25.0532Z" fill="#A0D2D3"/>
<path d="M26.7588 27.2642C26.6276 25.1786 27.2837 23.4268 28.1695 23.3433C28.1695 23.3433 28.1695 23.3433 28.2023 23.3433C28.2351 23.3433 28.3007 23.3433 28.3336 23.3433C28.0055 22.1337 27.4149 21.3412 26.7916 21.3829C26.7916 21.3829 26.7916 21.3829 26.7588 21.3829C25.873 21.4663 25.2497 23.2599 25.3481 25.3037C25.4465 27.2642 26.2011 28.8492 27.0213 28.9326C26.89 28.4738 26.7916 27.8898 26.7588 27.2642Z" fill="#83ADAD"/>
<path d="M28.5962 25.0535C28.5305 23.5519 28.0713 22.3005 27.5135 21.7583C26.9558 22.384 26.6277 23.7604 26.6934 25.3454C26.7918 26.847 27.2183 28.0984 27.776 28.6406C28.3337 28.0149 28.6946 26.6385 28.5962 25.0535Z" fill="#5F7C7D"/>
<path d="M28.0712 28.0981C27.9072 27.8061 27.776 27.4724 27.6776 27.097L28.5634 26.5131C28.5962 26.2211 28.629 25.9708 28.629 25.6371L27.5135 26.3879C27.4479 26.096 27.4151 25.7623 27.3823 25.4286L28.5962 25.22C28.5962 25.1366 28.5962 25.0949 28.5962 25.0115C28.5962 24.8446 28.5634 24.6778 28.5634 24.5109L27.3823 24.7195C27.3823 24.2607 27.4151 23.8436 27.5135 23.4265L28.5306 24.219C28.4649 23.8436 28.3993 23.5099 28.3009 23.1762L27.6776 22.7174C27.7432 22.5505 27.8088 22.342 27.8744 22.2168C27.7432 22.0083 27.6448 21.8414 27.5135 21.7163C26.9558 22.342 26.6277 23.7184 26.6934 25.3034C26.7918 26.805 27.1855 28.0147 27.7432 28.5986C27.8744 28.4735 28.0056 28.3066 28.0712 28.0981Z" fill="#3E5152"/>
<path d="M28.596 25.0534C28.4976 23.0095 27.7102 21.3828 26.8244 21.3828C25.9058 21.3828 25.2169 23.1764 25.3481 25.3454C25.4465 27.3892 26.2339 29.0159 27.1197 29.0159C28.0711 28.9742 28.7272 27.1806 28.596 25.0534ZM27.0869 28.0149C26.4635 28.0149 25.9058 26.8052 25.8074 25.3036C25.709 23.7186 26.2011 22.3839 26.8572 22.3839C27.4806 22.3839 28.0383 23.5935 28.1367 25.0951C28.2023 26.6384 27.7758 28.0149 27.0869 28.0149Z" fill="#994D76"/>
<path d="M40.1771 18.0873C40.1771 18.0873 46.0495 22.175 48.7069 21.6327C51.3643 21.0905 46.64 15.8766 46.64 15.8766C46.64 15.8766 39.0288 14.8756 40.1771 18.0873Z" fill="#09919D"/>
<path d="M48.7069 21.633C49.8551 21.3828 49.6254 20.2983 48.9693 19.0887C49.199 19.6309 49.3302 20.4234 48.51 20.7988C47.3618 21.341 41.7518 17.2117 40.6363 16.3774C40.1114 16.7528 39.8818 17.2534 40.1442 18.0459C40.177 18.0876 46.0495 22.1753 48.7069 21.633Z" fill="#077882"/>
<path d="M21.0506 16.9611L20.7554 14.959L26.1357 17.9205C26.1357 17.9205 39.9147 27.1803 41.1614 27.1803C42.408 27.1803 43.3922 26.7215 43.3922 26.7215C43.3922 26.7215 43.6875 27.4306 43.6875 28.5985C43.6875 29.7664 42.4408 30.9343 37.815 29.0573C33.7142 27.3889 23.7736 19.5889 21.6084 17.8788C21.3459 17.7119 21.1162 17.3782 21.0506 16.9611Z" fill="#077882"/>
<path d="M20.7554 14.9592C20.7554 14.9592 31.0568 25.1366 38.3072 27.5142C45.5575 29.8917 44.114 26.8051 41.1286 23.7185C38.4712 21.0073 33.5501 16.9196 32.4019 15.9602C32.2378 15.8351 32.0738 15.71 31.877 15.6682C30.2366 15.126 22.0348 12.4982 20.7554 14.9592Z" fill="#09919D"/>
<path d="M38.9631 26.3878L42.2439 25.0113C42.1782 24.9279 42.0798 24.8027 42.0142 24.7193L38.996 26.0124L35.7481 22.8423L38.996 21.7161C38.8975 21.6327 38.7991 21.5493 38.7007 21.4242L37.3556 21.883L35.5512 20.1311L36.9291 19.7974C36.8307 19.714 36.6995 19.5889 36.601 19.5055L33.6812 20.2145L31.7128 18.2958L34.1405 17.3782C34.0421 17.2948 33.9437 17.2114 33.8124 17.1279L31.0566 18.1707L33.55 20.5899L35.1247 20.2145L36.9619 21.9664L35.0919 22.5921L38.9631 26.3878Z" fill="#077882"/>
<path opacity="0.29" d="M24.4954 15.7518C24.4954 15.7518 29.9741 21.3828 32.6643 21.3828C34.8296 21.3828 32.894 18.2127 32.0738 17.0031C31.8769 16.7111 31.6145 16.5026 31.3192 16.3774C29.6461 15.8769 24.0689 14.1668 24.4954 15.7518Z" fill="#0AA3B0"/>
<path d="M5.5656 9.36963C4.05647 9.61989 2.64577 9.36963 1.26788 11.0798C0.0868213 12.5814 1.16945 15.2092 3.46595 17.6284C3.56437 17.5867 3.66279 17.5033 3.79402 17.4198C6.61543 15.6263 6.25455 11.914 5.5656 9.36963Z" fill="#994D76"/>
<path d="M4.97518 9.41162C3.6629 9.53675 2.44904 9.53675 1.26798 11.0801C0.710265 11.7891 0.64465 12.7902 1.00553 13.8747C1.7929 14.2918 2.61307 14.4169 3.40044 13.9998C5.27045 12.9988 5.23764 10.8298 4.97518 9.41162Z" fill="#996983"/>
<path opacity="0.49" d="M17.048 4.78169C17.048 4.78169 18.59 6.24157 20.7552 6.65868C22.9205 7.07579 25.0202 6.78381 24.0688 5.69933C23.1173 4.65655 14.0954 2.65443 17.048 4.78169Z" fill="#A0D2D3"/>
<path opacity="0.53" d="M20.8538 11.4553C19.1806 10.1623 15.4735 7.65962 12.324 8.03501C10.0275 8.28528 8.68239 9.41148 7.89502 10.3708C7.99344 10.5377 8.09186 10.7045 8.22309 10.8714C8.91204 11.6639 9.96186 12.4981 11.5038 13.4574C16.1624 16.2938 18.6885 15.6681 19.3775 14.7922C19.7056 14.3334 20.3617 12.8735 20.8538 11.4553Z" fill="#4DBCD4"/>
</svg>
