<svg width="53" height="31" viewBox="0 0 53 31" fill="none" xmlns="http://www.w3.org/2000/svg">
<path d="M25.2714 27.0593L24.4692 26.934L25.6724 21.8574L26.511 22.0141L25.2714 27.0593Z" fill="#4E511A"/>
<path d="M14.6611 9.3853C14.6611 9.3853 21.5885 1.17511 29.5004 0.517044C37.3758 -0.141024 30.4119 9.66733 30.4119 9.66733L14.6611 9.3853Z" fill="#F3B417"/>
<path d="M6.34814 8.10062C8.60867 8.03795 10.5775 11.0149 10.7234 14.7753C10.8692 18.5357 9.15557 21.638 6.89505 21.732C14.1871 24.1136 19.0727 24.8657 32.2713 22.5468C36.6465 21.7634 41.0582 20.6979 45.1053 19.0058C47.3658 18.0657 52.142 16.1228 52.0691 13.4278C52.0327 12.049 50.1367 11.6103 48.8971 11.3596C45.9803 10.7642 42.3707 12.143 39.7091 10.9836C35.8079 9.26008 33.5474 8.35131 31.1046 7.72458C26.4741 6.53379 21.6249 6.43978 16.958 7.72458C10.7234 9.38542 8.53575 7.9126 6.34814 8.10062Z" fill="#F3B417"/>
<path d="M40.2199 11.1717C40.0376 11.109 39.8189 11.0463 39.6366 10.9523C35.7353 9.22882 33.4748 8.32006 31.032 7.69333C26.4015 6.50254 21.5523 6.40853 16.8854 7.69333C10.6872 9.3855 8.53608 7.91268 6.31201 8.1007C7.84334 8.03803 9.22882 9.3855 9.99449 11.4224C13.6405 12.4252 18.8543 13.0519 24.6515 13.0519C30.9591 13.0519 36.5739 12.2998 40.2199 11.1717Z" fill="#FEDE00"/>
<path d="M39.7091 11.297C40.256 10.8896 45.4698 8.16329 47.5115 5.31166C49.7356 2.20934 52.4336 3.93285 52.9076 4.84162C53.3816 5.78171 51.8138 12.9578 51.8138 12.9578C51.8138 12.9578 36.4276 13.7412 39.7091 11.297Z" fill="#F3B417"/>
<path d="M51.9965 13.4278C51.9965 13.2398 51.9236 13.0205 51.8507 12.8638C44.2305 19.4758 20.3127 19.0371 10.5414 17.1255C10.0674 19.7578 8.64543 21.6693 6.85889 21.732C14.1509 24.1136 19.0366 24.8657 32.2351 22.5468C36.6103 21.7634 41.022 20.6979 45.0691 19.0057C47.3296 18.0343 52.1059 16.0914 51.9965 13.4278Z" fill="#80A50E"/>
<path d="M45.069 17.5955C41.0219 19.2563 36.6102 20.3531 32.235 21.1365C20.2031 23.2674 15.0623 22.7974 8.71821 20.9172C8.17131 21.4186 7.18688 21.6693 6.49414 21.7006C13.7862 24.0822 19.0364 24.8969 32.235 22.578C36.6102 21.7946 41.0219 20.7292 45.069 19.037C47.3295 18.0969 52.1058 16.154 52.0328 13.4591C52.0328 13.2711 51.9964 13.0517 51.887 12.895C51.2672 14.8066 47.0378 16.7808 45.069 17.5955Z" fill="#747647"/>
<path d="M10.6869 14.7753C10.5411 11.0149 8.6816 8.03791 6.49399 8.10058C6.42107 8.10058 6.34816 8.10058 6.27524 8.13192C4.23348 8.41395 2.70215 11.4223 2.84799 15.0573C2.99383 18.6923 4.74392 21.5753 6.82214 21.732C6.89506 21.732 6.96798 21.732 7.0409 21.732C9.19204 21.638 10.8327 18.5357 10.6869 14.7753Z" fill="#FEDE00"/>
<path d="M9.99416 14.7753C9.88478 11.6416 8.31699 9.16603 6.49399 9.2287C6.42107 9.2287 6.34815 9.22871 6.31169 9.26004C4.59806 9.4794 3.32196 11.9863 3.43134 14.9946C3.54072 18.0029 4.99913 20.4159 6.71275 20.5412C6.78567 20.5412 6.85859 20.5412 6.89505 20.5412C8.75452 20.4785 10.14 17.9089 9.99416 14.7753Z" fill="#752912"/>
<path d="M6.2387 20.4471C7.77002 19.9143 8.82736 17.5641 8.71798 14.8065C8.6086 12.1115 7.44187 9.88664 5.94701 9.38525C4.41568 9.91798 3.35834 12.2682 3.46772 15.0258C3.54064 17.6894 4.74383 19.9143 6.2387 20.4471Z" fill="#C05211"/>
<path d="M24.7969 3.86991C19.4008 3.74456 14.9526 6.15748 14.8433 9.2598C14.9162 7.78698 19.2914 6.6902 24.6875 6.81554C30.0836 6.94089 34.3859 8.22569 34.313 9.72985C34.4223 6.59619 30.1565 3.99525 24.7969 3.86991Z" fill="#328593"/>
<path d="M24.6874 6.81591C19.2913 6.69057 14.9161 7.78735 14.8432 9.26017C14.7703 10.733 19.109 12.0491 24.4687 12.1745C29.8648 12.2998 34.24 11.203 34.3129 9.73022C34.3858 8.22606 30.0471 6.94126 24.6874 6.81591Z" fill="#463A46"/>
<path opacity="0.36" d="M24.7968 3.86991C19.4007 3.74456 14.9526 6.15748 14.8432 9.2598C14.7703 10.7326 19.109 12.0488 24.4687 12.1741C29.8648 12.2994 34.24 11.2027 34.3129 9.72985C34.4223 6.59619 30.1564 3.99525 24.7968 3.86991Z" fill="#A2E4FF"/>
<path d="M18.0156 18.0339C18.0156 18.0339 32.2715 28.1557 41.0948 28.9704C43.8293 29.2211 45.9076 26.8709 44.8867 24.6773C43.9387 22.6091 41.824 19.8201 37.2665 16.6865C37.303 16.6865 16.0103 14.1482 18.0156 18.0339Z" fill="#F3B417"/>
<path d="M37.3029 16.6865C37.3029 16.6865 25.5263 15.2764 20.3125 16.1538C23.3751 18.222 35.0424 25.8681 42.6261 26.5576C43.574 26.6516 44.4491 26.4322 45.1418 25.9935C45.1783 25.5548 45.1054 25.1161 44.8866 24.6774C43.9387 22.6091 41.8604 19.8202 37.3029 16.6865Z" fill="#FEDE00"/>
<path d="M27.6407 26.9024C27.7865 28.5005 26.5469 29.9107 24.7968 30.036C23.0832 30.1614 21.5154 28.9706 21.3696 27.3724C21.2237 25.7743 22.4634 24.3641 24.2134 24.2388C25.9635 24.1134 27.4948 25.2729 27.6407 26.9024Z" fill="#273141"/>
<path d="M26.8754 26.8397C26.9848 27.8424 26.1827 28.7512 25.0889 28.8139C23.9951 28.9079 23.0106 28.1558 22.9377 27.153C22.8283 26.1503 23.6305 25.2415 24.7243 25.1788C25.7816 25.0848 26.766 25.8369 26.8754 26.8397Z" fill="#3D3A84"/>
<path d="M9.59316 4.9041C11.2339 5.40549 12.0725 6.84697 11.4891 8.10044C10.8693 9.3539 7.84308 14.1171 6.20237 13.6157C4.56167 13.1143 4.92628 7.50504 5.5461 6.25158C6.12946 4.99812 7.95246 4.40271 9.59316 4.9041Z" fill="#6E9495"/>
<path d="M7.04075 5.49955C7.04075 5.49955 9.62943 5.4682 10.0669 7.28573C10.5045 9.10325 7.44181 11.4848 7.44181 11.4848C7.44181 11.4848 9.37421 8.72721 8.60854 7.44241C7.84288 6.15761 6.12925 5.65623 7.04075 5.49955Z" fill="#85AFAF"/>
<path d="M2.81162 25.1162C4.45233 25.3983 5.98366 24.5208 6.27534 23.2047C6.56702 21.8886 7.04099 16.53 5.40029 16.248C3.75958 15.9659 0.624014 20.8858 0.332333 22.2019C0.0771124 23.5494 1.17092 24.8342 2.81162 25.1162Z" fill="#85AFAF"/>
<path d="M1.09799 23.4867C1.09799 23.4867 3.13976 24.6462 4.63462 23.2674C6.12948 21.8886 5.07214 18.5669 5.07214 18.5669C5.07214 18.5669 4.9263 21.7319 3.54082 22.484C2.15533 23.2674 0.478168 22.9854 1.09799 23.4867Z" fill="#85AFAF"/>
<path d="M7.77009 14.869C8.02531 13.0515 7.33257 11.516 6.23877 11.3906C6.20231 11.3906 6.16584 11.3906 6.12938 11.3906C5.07204 11.3906 4.05116 12.7381 3.8324 14.4929C3.61364 16.2478 4.23346 17.7519 5.25434 17.94C5.2908 17.94 5.32727 17.94 5.36373 17.9713C6.42107 18.0653 7.51487 16.6865 7.77009 14.869Z" fill="#E04613"/>
<path d="M5.21826 17.9404C5.61932 17.9717 5.98393 17.815 6.23915 17.5957C6.49437 17.3763 6.71312 17.0943 6.89542 16.8122C7.22356 16.2169 7.44233 15.4961 7.51525 14.9321C7.62463 14.274 7.58817 13.6159 7.44233 12.9579C7.29648 12.2998 6.96835 11.6104 6.20268 11.4224C7.04127 11.4537 7.55171 12.2058 7.80693 12.8638C7.91631 13.2086 7.98923 13.5532 8.02569 13.898C8.06215 14.2427 8.02569 14.5874 7.98923 14.9634C7.87985 15.6528 7.66108 16.3422 7.22356 16.9689C7.0048 17.2823 6.74959 17.5643 6.42145 17.7523C5.98393 17.9404 5.65578 18.0657 5.21826 17.9404Z" fill="#6D2616"/>
<path d="M6.89522 14.775C7.04106 13.7409 6.64001 12.8635 6.02018 12.8008C5.98372 12.8008 5.98372 12.8008 5.94726 12.8008C5.3639 12.8008 4.78054 13.5842 4.6347 14.587C4.48886 15.5897 4.85346 16.4358 5.43682 16.5612C5.47328 16.5612 5.47328 16.5612 5.50974 16.5612C6.16603 16.6238 6.78584 15.8404 6.89522 14.775Z" fill="#8C050C"/>
<path opacity="0.17" d="M21.2605 4.40272C21.0053 4.46539 20.7501 4.52806 20.6043 4.59073C19 5.09212 17.6145 6.0949 16.776 7.3797C16.0103 8.53915 15.7551 10.3253 17.3958 10.67C19.7292 11.1401 19.6563 8.31979 21.7345 7.41103C23.8128 6.5336 26.2191 5.59351 25.5628 4.71609C24.9066 3.77599 22.6096 4.08936 21.2605 4.40272Z" fill="#A2E4FF"/>
<path opacity="0.4" d="M38.8707 18.8491C38.8707 19.7265 36.1727 20.4159 32.8548 20.4159C29.5369 20.4159 26.8389 19.7265 26.8389 18.8491C26.8389 17.9716 29.5369 17.2822 32.8548 17.2822C36.2091 17.2822 38.8707 18.003 38.8707 18.8491Z" fill="#FEDE00"/>
<path opacity="0.4" d="M41.7877 22.2646C41.7877 22.8286 40.5116 23.2987 38.9803 23.2987C37.4125 23.2987 36.1729 22.8286 36.1729 22.2646C36.1729 21.7005 37.4489 21.2305 38.9803 21.2305C40.5481 21.2618 41.7877 21.7005 41.7877 22.2646Z" fill="#FEDE00"/>
</svg>
