<svg width="13" height="14" viewBox="0 0 13 14" fill="none" xmlns="http://www.w3.org/2000/svg">
<rect x="0.258789" y="0.812988" width="12" height="12.8569" rx="2" fill="#56478E"/>
<ellipse cx="6.54793" cy="7.15535" rx="2.0533" ry="2.0533" fill="white"/>
<path d="M5.61084 4.51144L6.46677 2.69141L7.26815 4.51144H5.61084Z" fill="white"/>
<path d="M5.61084 9.79932L6.46677 11.6194L7.26815 9.79932H5.61084Z" fill="white"/>
<path d="M9.29321 6.19775L11.1123 7.05275L9.29321 7.85413V6.19775Z" fill="white"/>
<path d="M3.6665 6.19775L1.84647 7.05275L3.6665 7.85413V6.19775Z" fill="white"/>
<path d="M7.95113 4.7316L9.44812 4.16274L8.89793 5.64679L7.95113 4.7316Z" fill="white"/>
<path d="M7.95117 9.58105L9.44816 10.1499L8.89797 8.66586L7.95117 9.58105Z" fill="white"/>
<path d="M5.00781 4.73145L3.51082 4.16258L4.06102 5.64664L5.00781 4.73145Z" fill="white"/>
<path d="M5.00883 9.58139L3.51184 10.1503L4.06203 8.6662L5.00883 9.58139Z" fill="white"/>
</svg>
