<svg width="18" height="14" viewBox="0 0 18 14" fill="none" xmlns="http://www.w3.org/2000/svg">
<path d="M9.01608 13.377C7.78078 11.7045 6.17555 10.3385 4.32505 9.38497C3.53997 8.95504 2.81705 8.42083 2.17608 7.79697C0.566498 6.17446 0.408778 3.61479 1.80705 1.80797C2.59717 0.776046 3.83783 0.187436 5.13919 0.227104C6.44054 0.266772 7.64284 0.929848 8.36828 2.00797C8.58989 2.31297 8.76939 2.64697 8.94989 2.93197C9.4527 2.34426 9.9912 1.78788 10.5624 1.26597C11.6673 0.253119 13.2625 -0.0253543 14.6467 0.552972C16.0561 1.25425 17.0029 2.63112 17.151 4.19489C17.2991 5.75867 16.6276 7.28796 15.3747 8.23997C14.8452 8.65161 14.2902 9.02968 13.7131 9.37197C11.8302 10.2852 10.2132 11.664 9.01608 13.377Z" fill="white"/>
</svg>
