<svg width="60" height="52" viewBox="0 0 60 52" fill="none" xmlns="http://www.w3.org/2000/svg">
<path fill-rule="evenodd" clip-rule="evenodd" d="M47.24 23.396C48.958 25.478 52.206 26.433 53.619 23.372C54.1897 22.0775 55.6184 21.3917 56.9854 21.756C58.3524 22.1203 59.2502 23.4262 59.101 24.833C58.3793 30.9752 53.242 35.6467 47.059 35.783C45.6042 35.7736 44.1648 35.4847 42.819 34.932C43.1479 35.4118 43.5158 35.8637 43.919 36.283C46.3695 38.8839 50.0851 39.8665 53.501 38.817C57.05 37.571 58.884 42.33 55.715 44.101C50.077 47.251 43.212 50.24 36.942 46.901C34.4739 45.5371 32.5597 43.3541 31.53 40.729C28.9387 45.4659 24.7388 49.1199 19.689 51.031C16.517 52.222 14.52 48.308 16.807 46.131C17.182 45.777 17.536 45.41 17.882 45.037C14.0303 46.9193 9.53536 46.9652 5.64601 45.162C4.47849 44.6439 3.79122 43.4192 3.95735 42.1528C4.12349 40.8864 5.10338 39.8804 6.36501 39.681C9.6711 39.1918 12.6794 37.4971 14.811 34.923C9.72348 36.2817 4.314 34.502 1.02701 30.388C-0.886992 28.033 1.79101 25.172 4.34801 25.988C6.90501 26.804 11.922 27.771 14.076 25.45C13.2034 25.1582 12.352 24.8063 11.528 24.397C10.693 23.9546 10.17 23.0879 10.168 22.143C10.1023 21.9586 10.0577 21.7674 10.035 21.573C9.3064 14.0262 13.1391 6.76977 19.783 3.11698C25.9306 -0.34643 33.2978 -0.904625 39.897 1.59298C47.038 4.41298 50.829 10.773 51.065 18.257C51.163 21.354 49.549 22.612 47.24 23.396ZM42.951 10.634C42.792 10.435 42.629 10.241 42.461 10.055C42.4357 10.2596 42.3881 10.4608 42.319 10.655L42.951 10.634Z" fill="white"/>
<path fill-rule="evenodd" clip-rule="evenodd" d="M54.6932 25.3799C54.5386 25.3389 54.3743 25.3921 54.273 25.5159C52.643 27.4579 50.175 28.8709 47.566 28.3769C44.257 27.7459 43.694 24.2279 44.328 21.4539C45.681 21.0489 47.021 20.6029 48.334 20.1129C48.521 20.0539 48.6329 19.8629 48.593 19.6709C48.704 19.7027 48.8235 19.681 48.9162 19.6122C49.0089 19.5434 49.0643 19.4353 49.066 19.3199C49.405 14.3729 47.99 9.15292 44.057 5.88492C40.329 2.78492 34.552 1.26992 29.764 1.48492C19.45 1.94592 11.042 11.6709 12.869 21.9959C12.8856 22.11 12.9619 22.2065 13.069 22.2489C13.0645 22.3832 13.1553 22.502 13.286 22.5329C14.186 22.7549 15.086 22.9479 15.986 23.1189C16 23.1689 16.015 23.2188 16.03 23.2688L16.03 23.2689C16.045 23.3189 16.06 23.3689 16.074 23.4189C15.9318 23.4795 15.8464 23.6264 15.864 23.7799C15.9692 26.2509 14.2758 28.437 11.857 28.9529C9.43365 29.3811 6.94105 28.7891 4.96903 27.3169C4.83356 27.222 4.65205 27.2265 4.52142 27.3279C4.39079 27.4294 4.34157 27.6042 4.40003 27.7589C5.9122 32.1344 10.5313 34.615 15.014 33.4589C19.131 32.3269 21.874 27.8589 20.406 23.7709C20.963 23.8289 21.524 23.8859 22.083 23.9289C22.061 23.9751 22.0568 24.0278 22.071 24.0769C22.164 24.3989 22.236 24.7249 22.304 25.0529C22.2547 25.0766 22.2072 25.104 22.162 25.1349C21.913 25.2899 22.148 25.6639 22.406 25.5839C23.0282 29.4765 21.9361 33.4479 19.411 36.4749C16.223 40.2779 11.441 41.9749 6.64103 42.4509C6.49408 42.4728 6.37414 42.5798 6.33571 42.7234C6.29728 42.8669 6.34769 43.0195 6.46403 43.1119C11.039 47.0039 18.547 44.1769 22.339 40.5469C24.6495 38.2949 26.2853 35.4425 27.062 32.3109C27.528 38.6439 25.318 44.6699 20.133 48.6109C19.9927 48.7276 19.9451 48.9222 20.0157 49.0905C20.0862 49.2588 20.2585 49.3612 20.44 49.3429C29.597 48.4129 32.213 38.7339 32.413 30.8429C32.643 31.8059 32.914 32.7569 33.191 33.7059C34.082 36.7259 35.261 39.8599 37.6 42.0739C41.755 46.0029 48.026 45.1069 52.276 41.8399C52.4013 41.7367 52.4441 41.5636 52.3814 41.4139C52.3188 41.2642 52.1655 41.1732 52.004 41.1899C47.77 41.6449 42.857 41.8939 40.316 37.7839C37.768 33.6579 37.105 28.1319 37.255 23.3759C37.2567 23.2892 37.2281 23.2047 37.174 23.1369C37.665 23.0509 38.15 22.9619 38.637 22.8619C38.169 27.6999 39.955 32.7139 45.328 33.7719C49.919 34.6769 55.938 30.8489 54.991 25.7059C54.9642 25.5483 54.8478 25.4208 54.6932 25.3799ZM54.2851 26.6739L54.286 26.6729L54.285 26.6719L54.2851 26.6739ZM54.2851 26.6739C53.688 27.2653 53.0195 27.7799 52.295 28.2059C52.4622 28.5611 52.4762 28.9693 52.3339 29.335C52.1915 29.7008 51.9053 29.9922 51.542 30.1409C51.1802 30.2525 50.7885 30.2105 50.4585 30.0249C50.1286 29.8392 49.8894 29.5261 49.797 29.1589C49.1141 29.2914 48.4134 29.3046 47.726 29.1979C47.568 30.2129 46.781 31.3719 45.626 30.8979C45.1995 30.7361 44.8594 30.4043 44.687 29.9819C44.4455 29.2191 44.4553 28.3988 44.715 27.6419C44.3064 27.1908 43.9816 26.6703 43.756 26.1049C42.799 26.4829 41.373 26.4369 41.08 25.2639C40.743 23.8959 42.256 23.2529 43.332 23.0639C43.3707 22.5907 43.4527 22.1221 43.577 21.6639C42.143 22.0749 40.686 22.4309 39.215 22.7419C39.236 26.9129 39.88 31.0119 44.393 32.6709C48.4025 34.1407 54.3933 31.2977 54.2851 26.6739ZM48.208 19.2039C48.419 14.1949 46.969 9.00392 42.687 5.99392C38.6957 3.34146 33.937 2.08865 29.157 2.43192C19.089 3.31392 12.833 12.2429 13.543 21.9019C13.5476 21.9449 13.5421 21.9884 13.527 22.0289C25.0625 24.0136 36.9117 23.069 47.987 19.2819C48.0624 19.2567 48.1431 19.2515 48.221 19.2669C48.215 19.2459 48.2103 19.2245 48.207 19.2029L48.208 19.2039ZM51.8855 29.1994C51.787 29.443 51.5893 29.633 51.342 29.7219L51.341 29.7209C50.8482 29.8273 50.3525 29.5536 50.18 29.0799C50.7618 28.9334 51.3248 28.7207 51.858 28.4459C51.974 28.6817 51.984 28.9558 51.8855 29.1994ZM47.196 29.0939L47.1948 29.0936L47.195 29.0929L47.196 29.0939ZM47.1948 29.0936L47.1558 29.1964C46.897 29.8813 46.5428 30.8186 45.663 30.2689C44.885 29.7799 44.956 28.7919 45.042 27.9689C45.4796 28.3686 45.9885 28.6823 46.542 28.8939C46.7559 28.9721 46.9738 29.0388 47.1948 29.0936ZM43.31 23.4693L43.311 23.4689L43.31 23.4669L43.31 23.4693ZM43.31 23.4693C42.5469 23.7243 41.3771 24.1544 41.622 25.1259C41.8432 26.0185 42.8394 25.779 43.562 25.6052L43.58 25.6009C43.3784 24.909 43.2873 24.1896 43.31 23.4693ZM37.088 40.3409C40.501 44.7659 46.28 44.7469 50.677 42.0529C49.0219 42.2263 47.3522 42.2052 45.702 41.9899C45.7145 42.3521 45.5737 42.7029 45.3143 42.956C45.0549 43.2091 44.7008 43.3412 44.339 43.3199C43.9496 43.2603 43.611 43.0206 43.4252 42.6731C43.2395 42.3256 43.2283 41.9109 43.395 41.5539C43.4328 41.4714 43.5288 41.4331 43.613 41.4669C43.6547 41.4821 43.6884 41.5136 43.7063 41.5542C43.7242 41.5948 43.7249 41.6409 43.708 41.6819C43.6245 41.9294 43.6526 42.2009 43.785 42.4261C43.9174 42.6512 44.1411 42.8077 44.398 42.8549C44.958 42.8979 45.245 42.3889 45.276 41.9129C44.7115 41.8076 44.1578 41.6506 43.622 41.4439C42.9245 41.186 42.2673 40.8301 41.67 40.3869C41.1193 40.9755 40.2767 41.1904 39.5113 40.9376C38.7459 40.6847 38.1972 40.0102 38.1054 39.2093C38.0137 38.4085 38.3956 37.6273 39.084 37.2079C38.502 36.1245 38.0345 34.9833 37.689 33.8029C37.3659 32.699 37.1147 31.5753 36.937 30.4389C36.3452 30.771 35.9849 31.4025 36 32.0809C36.0759 32.9013 36.6976 33.5662 37.511 33.6969C37.5989 33.7291 37.6527 33.818 37.6405 33.9108C37.6283 34.0037 37.5533 34.0756 37.46 34.0839C36.5039 33.9692 35.7389 33.2359 35.5838 32.2855C35.4287 31.3351 35.9209 30.3966 36.791 29.9839C36.8158 29.9752 36.8418 29.9704 36.868 29.9699C36.741 29.0929 36.653 28.2089 36.595 27.3399C35.817 27.8929 34.773 27.0669 34.685 26.2289C34.575 25.2149 35.585 24.4729 36.511 24.3669C36.511 24.0019 36.511 23.6379 36.528 23.2809C36.5284 23.2695 36.5319 23.2585 36.538 23.2489C35.17 23.4749 33.792 23.6549 32.414 23.7919C32.412 23.8052 32.412 23.8187 32.414 23.8319C32.306 26.9752 32.7807 30.1114 33.814 33.0819C34.4419 35.6845 35.5521 38.1464 37.087 40.3399L37.088 40.3409ZM35.196 25.9319C35.3796 25.3372 35.8929 24.9039 36.51 24.8229V24.8219C36.517 25.5239 36.534 26.2509 36.576 26.9929C36.5401 26.9845 36.5024 26.9873 36.468 27.0009C36.146 27.1161 35.787 27.0516 35.5252 26.8316C35.2633 26.6115 35.138 26.269 35.196 25.9319ZM39.047 40.0799C39.6923 40.6685 40.6719 40.694 41.347 40.1399C40.9716 39.828 40.6295 39.4782 40.326 39.0959C39.9483 38.6209 39.6047 38.1196 39.298 37.5959C38.9248 37.8846 38.6865 38.314 38.639 38.7835C38.5916 39.253 38.7391 39.7214 39.047 40.0789V40.0799ZM32.0518 29.096L32.052 29.0969V29.0959L32.0518 29.096ZM31.898 23.8339C31.6687 25.5849 31.7207 27.3613 32.0518 29.096C31.95 29.1215 31.8765 29.2101 31.87 29.3149C31.8236 29.8717 31.782 30.4287 31.7405 30.9853L31.7405 30.9854L31.7405 30.9856L31.7405 30.9857L31.7404 30.9858L31.7404 30.986L31.7404 30.9861L31.7404 30.9862L31.7404 30.9864L31.7404 30.9865L31.7404 30.9866C31.488 34.3702 31.2368 37.7365 29.893 40.9229C28.418 44.4289 25.522 47.5379 21.762 48.3379C22.999 47.2273 24.0783 45.9529 24.97 44.5499C25.7146 44.8328 26.5543 44.5321 26.95 43.8409C27.2986 43.1165 27.0896 42.2469 26.45 41.7599C26.7627 41.0179 27.0246 40.2554 27.234 39.4779C27.7604 39.5224 28.2827 39.3549 28.6851 39.0126C29.0875 38.6703 29.3365 38.1816 29.377 37.6549C29.3583 36.7675 28.676 36.0356 27.792 35.9549C27.8451 34.9065 27.7878 33.8554 27.621 32.8189C27.6496 32.8224 27.6786 32.8197 27.706 32.8109C28.672 32.5436 29.3395 31.6629 29.336 30.6607C29.3325 29.6585 28.6588 28.7825 27.691 28.5219C27.733 27.9909 27.759 27.4569 27.766 26.9219C27.7774 26.0519 27.7407 25.1819 27.656 24.3159C27.6491 24.2227 27.606 24.1359 27.536 24.0739C27.7286 24.0702 27.9224 24.0624 28.1154 24.0545H28.1154H28.1155H28.1155H28.1155H28.1155H28.1156H28.1156H28.1156H28.1157H28.1157C28.2363 24.0496 28.3565 24.0448 28.476 24.0409C28.9741 24.3772 29.2521 24.956 29.203 25.5549C29.0634 26.174 28.5787 26.6568 27.959 26.7939C27.9026 26.809 27.8646 26.8616 27.868 26.9199C27.8747 27.0076 27.9471 27.0756 28.035 27.0769C28.8454 27.0139 29.5129 26.4156 29.664 25.6169C29.7494 25.0414 29.5837 24.457 29.209 24.0119C30.104 23.9699 30.998 23.9179 31.898 23.8339ZM26.839 24.4219C26.8222 24.2957 26.8699 24.1695 26.966 24.0859C25.45 24.1009 23.932 24.0569 22.423 23.9479C22.544 24.2589 22.646 24.5679 22.737 24.8859C23.1782 24.7211 23.6671 24.7411 24.0934 24.9414C24.5196 25.1416 24.8472 25.5052 25.002 25.9499C25.272 26.9159 24.219 27.9579 23.302 27.3329C23.2625 27.3077 23.2353 27.2671 23.227 27.2209C23.2172 27.1532 23.2437 27.0854 23.2968 27.0423C23.35 26.9992 23.4218 26.9873 23.486 27.0109C24.251 27.3569 24.775 26.4519 24.344 25.8319C24.0033 25.3834 23.4052 25.2173 22.882 25.4259C23.0304 26.0168 23.1308 26.6188 23.182 27.2259C23.27 28.2466 23.2327 29.2743 23.071 30.2859C23.5914 30.4549 24.0084 30.8487 24.2069 31.3586C24.4054 31.8685 24.3643 32.4406 24.095 32.9169C23.747 33.5109 22.682 34.0739 22.056 33.6969C21.6182 34.6781 21.0735 35.608 20.432 36.4699C20.3315 36.6043 20.2235 36.7348 20.1164 36.8643L20.067 36.9239C20.0752 36.9319 20.0843 36.9389 20.094 36.9449C20.8283 37.8441 20.7206 39.1629 19.85 39.9309C19.0097 40.5715 17.823 40.4821 17.088 39.7229C16.3433 40.2561 15.5567 40.7283 14.736 41.1349C14.7886 41.1426 14.8369 41.168 14.873 41.2069C15.549 41.9369 14.785 43.1279 13.906 43.1859C13.2337 43.1753 12.6457 42.7302 12.453 42.0859C10.8955 42.6216 9.27983 42.9707 7.64003 43.1259C12.212 46.3939 19.552 42.6799 22.74 39.0439C26.225 35.0739 27.345 29.5599 26.839 24.4209V24.4219ZM27.641 29.0949C28.165 29.2797 28.5748 29.6954 28.752 30.2219V30.2239C28.9951 31.1662 28.4737 32.1371 27.554 32.4549C27.505 32.1839 27.452 31.9149 27.386 31.6459C27.3711 31.5772 27.3196 31.5223 27.252 31.5029C27.427 30.7082 27.5569 29.9043 27.641 29.0949ZM28.833 37.8059C28.8689 37.1564 28.4036 36.5866 27.76 36.4919C27.6861 37.3737 27.5417 38.2482 27.328 39.1069C28.0705 39.0765 28.6944 38.5388 28.834 37.8089L28.833 37.8059ZM22.97 30.8549C23.5705 31.1113 23.8945 31.7672 23.733 32.3999L23.731 32.4019C23.558 32.9839 22.798 33.5989 22.238 33.2719C22.5558 32.4905 22.8008 31.6814 22.97 30.8549ZM26.542 43.5999C26.7667 43.1294 26.6379 42.5661 26.231 42.2399C25.928 42.905 25.585 43.5512 25.204 44.1749C25.728 44.3116 26.2779 44.0757 26.54 43.6019L26.542 43.5999ZM16.315 23.1779C17.498 23.3949 18.691 23.5809 19.891 23.7159L19.889 23.7179C20.654 27.6649 18.855 31.5669 14.752 32.6669C11.104 33.6191 7.28656 31.8929 5.59203 28.5249C6.73246 29.1524 7.97268 29.5784 9.25803 29.7839C8.97903 30.6419 9.99803 31.4269 10.779 31.3919C11.2048 31.3479 11.5955 31.1357 11.8642 30.8024C12.1328 30.4691 12.2573 30.0424 12.21 29.6169C12.451 29.5506 12.6878 29.4698 12.919 29.3749C13.2815 29.2218 13.6299 29.0371 13.96 28.8229C14.4075 29.221 15.0016 29.4129 15.5974 29.3516C16.1932 29.2904 16.7359 28.9817 17.093 28.5009C17.3949 28.0714 17.4785 27.5253 17.3189 27.0252C17.1593 26.525 16.7749 26.1282 16.28 25.9529C16.5429 25.2249 16.6502 24.4499 16.595 23.6779C16.5898 23.5274 16.4787 23.4017 16.33 23.3779L16.315 23.1779ZM16.457 28.5009C16.7885 28.2119 16.9467 27.772 16.8752 27.3381C16.8037 26.9042 16.5127 26.5383 16.106 26.3709C15.7041 27.2384 15.0928 27.9924 14.327 28.5649C14.9645 29.0414 15.8463 29.0157 16.455 28.5029L16.457 28.5009ZM19.714 37.3469C20.2101 37.9961 20.1512 38.9117 19.576 39.4919L19.575 39.4939C18.9525 40.0223 18.035 40.0082 17.429 39.4609C18.2602 38.8353 19.0258 38.127 19.714 37.3469ZM10.651 30.9609C11.416 30.9969 11.731 30.3559 11.785 29.7219C11.0174 29.8787 10.2293 29.9088 9.45203 29.8109C9.68203 30.3559 9.96903 30.9319 10.65 30.9639L10.651 30.9609ZM14.4785 42.3594C14.2939 42.622 13.9779 42.7593 13.66 42.7149L13.659 42.7179C13.2636 42.6308 12.9454 42.3379 12.826 41.9509C13.407 41.7349 13.978 41.4959 14.536 41.2249C14.4876 41.299 14.4876 41.3948 14.536 41.4689C14.6854 41.7531 14.6632 42.0969 14.4785 42.3594Z" fill="#222221"/>
<path d="M52.294 28.205C53.0189 27.7788 53.6877 27.2639 54.285 26.672C54.394 31.296 48.403 34.14 44.393 32.672C39.879 31.013 39.236 26.914 39.215 22.743C40.686 22.432 42.143 22.076 43.577 21.665C43.4527 22.1232 43.3707 22.5919 43.332 23.065C42.255 23.257 40.742 23.9 41.08 25.265C41.373 26.438 42.799 26.484 43.756 26.106C43.9816 26.6714 44.3064 27.1919 44.715 27.643C44.4553 28.3999 44.4455 29.2202 44.687 29.983C44.8594 30.4054 45.1995 30.7372 45.626 30.899C46.781 31.369 47.568 30.21 47.726 29.199C48.4134 29.3057 49.1141 29.2925 49.797 29.16C49.8894 29.5272 50.1286 29.8403 50.4585 30.026C50.7885 30.2117 51.1802 30.2536 51.542 30.142C51.9056 29.9931 52.192 29.7014 52.3342 29.3351C52.4764 28.9689 52.4619 28.5603 52.294 28.205Z" fill="#D16A70"/>
<path fill-rule="evenodd" clip-rule="evenodd" d="M48.207 19.2029C48.418 14.1929 46.968 8.99792 42.686 5.99292C38.6944 3.34244 33.9361 2.09141 29.157 2.43592C19.089 3.31792 12.833 12.2469 13.543 21.9059C13.5476 21.9489 13.5421 21.9924 13.527 22.0329C25.0625 24.0176 36.9117 23.073 47.987 19.2859C48.0624 19.2607 48.1431 19.2555 48.221 19.2709C48.2148 19.2486 48.2102 19.2259 48.207 19.2029ZM42.974 10.4269C44.2769 10.3879 45.3862 11.3673 45.509 12.6649V12.6639C45.5333 12.8459 45.4055 13.0131 45.2235 13.0374C45.0416 13.0617 44.8743 12.9339 44.85 12.7519C44.7649 11.7823 43.9326 11.0509 42.96 11.0909C41.9784 11.2765 41.286 12.1604 41.341 13.1579C41.334 13.4519 40.919 13.3989 40.864 13.1579C40.7505 12.5111 40.9146 11.8463 41.3161 11.3266C41.7176 10.8069 42.3195 10.4803 42.974 10.4269ZM35.756 16.5749C35.7038 16.3823 35.5175 16.2577 35.3195 16.2829C35.1216 16.3081 34.9724 16.4754 34.97 16.6749C35.451 20.9589 27.391 21.7389 26.623 17.4319C26.584 17.2079 26.208 17.1799 26.202 17.4319C26.088 23.0049 36.364 21.8469 35.757 16.5739L35.756 16.5749ZM20.9912 13.4309C21.4059 13.8862 21.6181 14.4903 21.579 15.1049H21.58C21.5541 15.2515 21.4265 15.3581 21.2777 15.3576C21.1289 15.3572 21.002 15.2497 20.977 15.1029C20.798 14.3079 20.483 13.4809 19.534 13.3699C19.097 13.3546 18.6756 13.5336 18.3833 13.8588C18.0909 14.184 17.9575 14.622 18.019 15.0549C18.0313 15.1715 17.9576 15.2798 17.8448 15.3113C17.7319 15.3427 17.6128 15.288 17.563 15.1819C17.3917 14.6024 17.5 13.9761 17.8559 13.4876C18.2118 12.9992 18.7749 12.7043 19.379 12.6899C19.9946 12.7082 20.5764 12.9756 20.9912 13.4309Z" fill="#DD999E"/>
<path d="M42.974 10.4259C44.2769 10.3869 45.3862 11.3663 45.509 12.6639C45.526 12.842 45.3989 13.0015 45.2216 13.0247C45.0442 13.0478 44.8804 12.9264 44.851 12.7499C44.7659 11.7803 43.9336 11.0489 42.961 11.0889C41.9792 11.2741 41.2866 12.1583 41.342 13.1559C41.336 13.4499 40.92 13.3979 40.865 13.1559C40.7518 12.5094 40.9159 11.845 41.3172 11.3256C41.7185 10.8062 42.3199 10.4796 42.974 10.4259Z" fill="#222221"/>
<path d="M51.857 28.4438C51.973 28.6796 51.983 28.9537 51.8845 29.1973C51.786 29.4409 51.5883 29.631 51.341 29.7198C50.8476 29.8267 50.3512 29.5524 50.179 29.0778C50.7607 28.9314 51.3238 28.7186 51.857 28.4438Z" fill="#DD999E"/>
<path d="M46.541 28.8899C46.7553 28.9683 46.9736 29.035 47.195 29.0899C46.932 29.7779 46.588 30.8439 45.658 30.2609C44.88 29.7729 44.951 28.7849 45.037 27.9609C45.4755 28.3624 45.9858 28.6776 46.541 28.8899Z" fill="#DD999E"/>
<path d="M41.621 25.1238C41.376 24.1518 42.547 23.7238 43.31 23.4668C43.287 24.1872 43.3778 24.9067 43.579 25.5988C42.854 25.7758 41.844 26.0208 41.621 25.1238Z" fill="#DD999E"/>
<path d="M50.676 42.0519C46.276 44.7459 40.5 44.7649 37.087 40.3399C35.5527 38.1449 34.4435 35.6817 33.817 33.0779C32.7837 30.1073 32.309 26.9712 32.417 23.8279C32.415 23.8146 32.415 23.8011 32.417 23.7879C33.795 23.6509 35.173 23.4709 36.541 23.2449C36.5349 23.2544 36.5314 23.2655 36.531 23.2769C36.519 23.6339 36.514 23.9969 36.514 24.3629C35.586 24.4689 34.578 25.2109 34.688 26.2249C34.775 27.0629 35.82 27.8889 36.598 27.3359C36.656 28.2049 36.745 29.0889 36.871 29.9659C36.8448 29.9664 36.8188 29.9711 36.794 29.9799C35.9239 30.3926 35.4317 31.331 35.5868 32.2814C35.7419 33.2319 36.5069 33.9652 37.463 34.0799C37.5334 34.0918 37.6045 34.063 37.6468 34.0055C37.6891 33.948 37.6954 33.8715 37.663 33.8079L37.696 33.7989C38.0415 34.9793 38.509 36.1204 39.091 37.2039C38.4026 37.6233 38.0207 38.4044 38.1124 39.2053C38.2042 40.0061 38.7529 40.6807 39.5183 40.9335C40.2837 41.1864 41.1263 40.9715 41.677 40.3829C42.2743 40.826 42.9315 41.1819 43.629 41.4399L43.62 41.4619C43.5358 41.428 43.4398 41.4663 43.402 41.5489C43.2353 41.9059 43.2464 42.3206 43.4322 42.668C43.6179 43.0155 43.9565 43.2552 44.346 43.3149C44.7078 43.3362 45.0619 43.2041 45.3213 42.9509C45.5807 42.6978 45.7215 42.3471 45.709 41.9849C47.3564 42.2009 49.0234 42.2233 50.676 42.0519Z" fill="#D16A70"/>
<path d="M34.971 16.676C34.9734 16.4764 35.1225 16.3092 35.3205 16.284C35.5185 16.2588 35.7047 16.3834 35.757 16.576C36.365 21.848 26.089 23.007 26.203 17.437C26.209 17.185 26.585 17.212 26.624 17.437C27.392 21.74 35.451 20.96 34.971 16.676Z" fill="#222221"/>
<path d="M45.277 41.9128C45.245 42.3888 44.958 42.8978 44.399 42.8548C44.1421 42.8076 43.9184 42.6511 43.786 42.426C43.6536 42.2008 43.6255 41.9293 43.709 41.6818C43.7258 41.6408 43.7252 41.5947 43.7073 41.5541C43.6894 41.5135 43.6557 41.482 43.614 41.4668L43.623 41.4448C44.1589 41.6511 44.7125 41.8078 45.277 41.9128Z" fill="#DD999E"/>
<path d="M35.195 25.928C35.3796 25.3344 35.8927 24.9025 36.509 24.822C36.509 25.522 36.534 26.251 36.574 26.989C36.5381 26.9806 36.5004 26.9834 36.466 26.997C36.1441 27.1117 35.7855 27.047 35.524 26.827C35.2624 26.6071 35.1372 26.2648 35.195 25.928Z" fill="#DD999E"/>
<path d="M41.344 40.1388C40.6689 40.6929 39.6893 40.6674 39.044 40.0788C38.7342 39.7213 38.5853 39.2519 38.6325 38.7812C38.6796 38.3104 38.9185 37.8799 39.293 37.5908C39.5997 38.1145 39.9433 38.6158 40.321 39.0908C40.6249 39.4746 40.9677 39.8258 41.344 40.1388Z" fill="#DD999E"/>
<path d="M36.937 30.438C37.1147 31.5744 37.3659 32.6981 37.689 33.802L37.656 33.811C37.6309 33.7501 37.576 33.7066 37.511 33.696C36.6976 33.5653 36.0759 32.9004 36 32.08C35.9849 31.4016 36.3452 30.7701 36.937 30.438Z" fill="#DD999E"/>
<path d="M31.897 23.835C31.6677 25.5863 31.7197 27.363 32.051 29.098C31.952 29.124 31.8802 29.2098 31.872 29.312C31.543 33.255 31.46 37.212 29.895 40.92C28.421 44.426 25.524 47.532 21.764 48.335C23.001 47.2244 24.0803 45.9499 24.972 44.547C25.7166 44.8298 26.5563 44.5292 26.952 43.838C27.3006 43.1136 27.0916 42.2439 26.452 41.757C26.7647 41.0149 27.0266 40.2525 27.236 39.475C27.7624 39.5194 28.2847 39.3519 28.6871 39.0097C29.0895 38.6674 29.3385 38.1787 29.379 37.652C29.3603 36.7645 28.678 36.0327 27.794 35.952C27.8471 34.9035 27.7898 33.8524 27.623 32.816C27.6516 32.8194 27.6806 32.8167 27.708 32.808C28.674 32.5406 29.3415 31.66 29.338 30.6577C29.3345 29.6555 28.6608 28.7795 27.693 28.519C27.735 27.988 27.761 27.454 27.768 26.919H27.868C27.8752 27.0062 27.9475 27.0737 28.035 27.075C28.8454 27.0119 29.513 26.4136 29.664 25.615C29.7494 25.0395 29.5837 24.455 29.209 24.01C30.103 23.97 31.002 23.918 31.897 23.835Z" fill="#D16A70"/>
<path d="M28.476 24.041C28.9741 24.3773 29.2521 24.9561 29.203 25.555C29.0634 26.1741 28.5787 26.6569 27.959 26.794C27.9027 26.8091 27.8646 26.8617 27.868 26.92H27.768C27.7791 26.05 27.742 25.18 27.657 24.314C27.6501 24.2208 27.607 24.134 27.537 24.072C27.845 24.068 28.165 24.051 28.476 24.041Z" fill="#DD999E"/>
<path d="M26.967 24.0849C26.8709 24.1684 26.8232 24.2946 26.84 24.4209C27.345 29.5599 26.226 35.0739 22.74 39.0379C19.552 42.6739 12.212 46.3879 7.64001 43.1199C9.27982 42.9647 10.8954 42.6156 12.453 42.0799C12.6457 42.7241 13.2336 43.1693 13.906 43.1799C14.784 43.1219 15.549 41.9309 14.873 41.2009C14.8369 41.162 14.7886 41.1366 14.736 41.1289C15.5567 40.7226 16.3432 40.2507 17.088 39.7179C17.823 40.4771 19.0097 40.5664 19.85 39.9259C20.7206 39.1578 20.8283 37.839 20.094 36.9399C20.0842 36.9339 20.0752 36.9269 20.067 36.9189C20.19 36.7709 20.316 36.6189 20.432 36.4649C21.0735 35.603 21.6181 34.673 22.056 33.6919C22.682 34.0689 23.747 33.5069 24.095 32.9119C24.3643 32.4355 24.4053 31.8635 24.2069 31.3536C24.0084 30.8436 23.5914 30.4498 23.071 30.2809C23.2327 29.2692 23.27 28.2416 23.182 27.2209L23.23 27.2149C23.238 27.2614 23.2652 27.3024 23.305 27.3279C24.22 27.9539 25.273 26.9109 25.005 25.9449C24.8502 25.5001 24.5226 25.1366 24.0964 24.9363C23.6701 24.7361 23.1812 24.7161 22.74 24.8809C22.648 24.5629 22.547 24.2539 22.426 23.9429C23.932 24.0559 25.45 24.0999 26.967 24.0849Z" fill="#D16A70"/>
<path d="M27.641 29.0969C28.165 29.2817 28.5748 29.6974 28.752 30.2239C28.9955 31.165 28.4762 32.1355 27.558 32.4549C27.509 32.1839 27.458 31.9149 27.39 31.6459C27.3751 31.5772 27.3236 31.5223 27.256 31.5029C27.4296 30.7088 27.5581 29.9055 27.641 29.0969Z" fill="#DD999E"/>
<path d="M19.377 12.6899C19.9926 12.7082 20.5744 12.9756 20.9892 13.4309C21.4039 13.8862 21.6161 14.4903 21.577 15.1049C21.5483 15.2478 21.4228 15.3506 21.277 15.3506C21.1313 15.3506 21.0057 15.2478 20.977 15.1049C20.797 14.3099 20.483 13.4839 19.534 13.3719C19.0969 13.3563 18.6753 13.5352 18.3828 13.8605C18.0904 14.1857 17.9571 14.6239 18.019 15.0569C18.0313 15.1735 17.9576 15.2819 17.8447 15.3133C17.7318 15.3447 17.6127 15.2901 17.563 15.1839C17.391 14.6044 17.4987 13.9779 17.8542 13.4891C18.2098 13.0002 18.7727 12.7048 19.377 12.6899Z" fill="#222221"/>
<path d="M24.3481 25.8308C24.7791 26.4508 24.2551 27.3548 23.4901 27.0098C23.4259 26.9862 23.354 26.9981 23.3009 27.0412C23.2477 27.0842 23.2212 27.1521 23.2311 27.2198L23.1831 27.2268C23.1318 26.6197 23.0315 26.0177 22.8831 25.4268C23.4066 25.2162 24.0064 25.3816 24.3481 25.8308Z" fill="#DD999E"/>
<path d="M27.761 36.4949C28.4047 36.5896 28.8699 37.1593 28.834 37.8089C28.6957 38.5375 28.0749 39.0755 27.334 39.1089C27.546 38.2503 27.6887 37.3762 27.761 36.4949Z" fill="#DD999E"/>
<path d="M22.967 30.8569C23.5676 31.1133 23.8915 31.7692 23.73 32.4019C23.557 32.9839 22.796 33.6019 22.23 33.2739C22.5495 32.4926 22.7962 31.6835 22.967 30.8569Z" fill="#DD999E"/>
<path d="M26.229 42.2419C26.6359 42.5681 26.7647 43.1314 26.54 43.6019C26.278 44.077 25.7268 44.3135 25.202 44.1759C25.583 43.5525 25.9259 42.9067 26.229 42.2419Z" fill="#DD999E"/>
<path d="M16.316 23.1799C17.499 23.3969 18.692 23.5799 19.892 23.7179C20.657 27.6649 18.858 31.5669 14.752 32.6709C11.104 33.6231 7.28657 31.8969 5.59204 28.5289C6.73242 29.1568 7.97263 29.583 9.25804 29.7889C8.97904 30.6469 9.99804 31.4319 10.779 31.3969C11.2049 31.3529 11.5955 31.1407 11.8642 30.8074C12.1329 30.4742 12.2574 30.0474 12.21 29.6219C12.451 29.5556 12.6878 29.4748 12.919 29.3799C13.2816 29.2268 13.6299 29.0421 13.96 28.8279C14.4075 29.226 15.0016 29.4179 15.5974 29.3566C16.1932 29.2954 16.7359 28.9867 17.093 28.5059C17.3949 28.0764 17.4785 27.5303 17.3189 27.0302C17.1593 26.53 16.7749 26.1333 16.28 25.9579C16.5429 25.23 16.6502 24.4549 16.595 23.6829C16.5898 23.5324 16.4787 23.4067 16.33 23.3829L16.316 23.1799Z" fill="#D16A70"/>
<path d="M16.104 26.377C16.5107 26.5443 16.8017 26.9102 16.8732 27.3441C16.9447 27.778 16.7865 28.218 16.455 28.507C15.8464 29.0214 14.9634 29.0479 14.325 28.571C15.0908 27.9985 15.7021 27.2445 16.104 26.377Z" fill="#DD999E"/>
<path d="M19.713 37.3489C20.2513 37.9853 20.1933 38.9326 19.5815 39.4986C18.9697 40.0646 18.0207 40.0489 17.428 39.4629C18.2592 38.8373 19.0248 38.129 19.713 37.3489V37.3489Z" fill="#DD999E"/>
<path d="M11.784 29.7249C11.73 30.3589 11.415 30.9999 10.65 30.9639C9.96901 30.9299 9.68201 30.3559 9.45001 29.8139C10.2277 29.9118 11.0161 29.8817 11.784 29.7249V29.7249Z" fill="#DD999E"/>
<path d="M14.534 41.473C14.6833 41.7571 14.6611 42.1009 14.4765 42.3635C14.2919 42.6261 13.9759 42.7634 13.658 42.719C13.2615 42.6338 12.9414 42.342 12.82 41.955C13.401 41.74 13.972 41.5 14.53 41.229C14.4828 41.3039 14.4843 41.3997 14.534 41.473Z" fill="#DD999E"/>
</svg>
