<svg width="28" height="28" viewBox="0 0 28 28" fill="none" xmlns="http://www.w3.org/2000/svg">
<path d="M15.7498 12.25C15.7498 13.216 14.9658 14 13.9998 14C13.0338 14 12.2498 13.216 12.2498 12.25C12.2498 11.284 13.0338 10.5 13.9998 10.5C14.9658 10.5 15.7498 11.284 15.7498 12.25ZM19.8332 10.5C18.8672 10.5 18.0832 11.284 18.0832 12.25C18.0832 13.216 18.8672 14 19.8332 14C20.7992 14 21.5832 13.216 21.5832 12.25C21.5832 11.284 20.7992 10.5 19.8332 10.5ZM8.1665 10.5C7.2005 10.5 6.4165 11.284 6.4165 12.25C6.4165 13.216 7.2005 14 8.1665 14C9.1325 14 9.9165 13.216 9.9165 12.25C9.9165 11.284 9.1325 10.5 8.1665 10.5ZM27.9998 4.66667V18.6667C27.9998 21.2403 25.9068 23.3333 23.3332 23.3333H20.0058L15.5165 27.0433C15.0953 27.419 14.5552 27.608 14.0092 27.608C13.4538 27.608 12.895 27.412 12.4493 27.0165L8.0755 23.3333H4.66533C2.09166 23.3333 -0.00133514 21.2403 -0.00133514 18.6667V4.66667C-0.000168477 2.093 2.09283 0 4.6665 0H23.3332C25.9068 0 27.9998 2.093 27.9998 4.66667ZM25.6665 4.66667C25.6665 3.37983 24.62 2.33333 23.3332 2.33333H4.6665C3.37966 2.33333 2.33316 3.37983 2.33316 4.66667V18.6667C2.33316 19.9535 3.37966 21 4.6665 21H8.5025C8.77666 21 9.04383 21.0968 9.255 21.2742L13.9777 25.2525L18.8438 21.2672C19.0527 21.0945 19.3152 21 19.587 21H23.3343C24.6212 21 25.6677 19.9535 25.6677 18.6667L25.6665 4.66667Z" fill="white"/>
</svg>
