<svg width="25" height="21" viewBox="0 0 25 21" fill="none" xmlns="http://www.w3.org/2000/svg">
<path d="M1.08094 4.74842C0.508647 5.29961 0.189782 6.06293 0.199943 6.85742V17.9574C0.189782 18.7519 0.508647 19.5152 1.08094 20.0664C1.63213 20.6387 2.39545 20.9576 3.18994 20.9474H4.04394V3.86742H3.18994C2.39545 3.85726 1.63213 4.17613 1.08094 4.74842Z" fill="#FFB80D"/>
<path fill-rule="evenodd" clip-rule="evenodd" d="M16.9092 0.824904C17.1497 1.06543 17.2843 1.39203 17.2829 1.73218L17.2799 3.86718H18.9889V20.9502H5.32593V3.86718H7.03393V1.73218C7.03259 1.39203 7.16713 1.06543 7.40765 0.824904C7.64817 0.584379 7.97478 0.449846 8.31493 0.451182H16.0019C16.3421 0.449846 16.6687 0.584379 16.9092 0.824904ZM8.74193 3.86718H15.5749V2.15918H8.74193V3.86718Z" fill="#FFB80D"/>
<path d="M23.235 4.74842C22.6838 4.17613 21.9205 3.85726 21.126 3.86742H20.272V20.9504H21.126C22.7734 20.9411 24.1067 19.6079 24.116 17.9604V6.86042C24.1268 6.06491 23.8079 5.30039 23.235 4.74842Z" fill="#FFB80D"/>
</svg>
