<svg width="25" height="25" viewBox="0 0 25 25" fill="none" xmlns="http://www.w3.org/2000/svg">
<path fill-rule="evenodd" clip-rule="evenodd" d="M15.4271 3.45857L12.0724 0.988917C10.7375 0.00616068 8.85512 0.980736 8.88708 2.6381L8.96739 6.80302L5.58196 9.23034C4.23479 10.1963 4.57998 12.2876 6.1661 12.7694L8.966 13.6198L0.292893 22.2929C-0.0976311 22.6835 -0.0976311 23.3166 0.292893 23.7071C0.683417 24.0977 1.31658 24.0977 1.70711 23.7071L10.4614 14.9529L11.4144 17.9499C11.9167 19.5296 14.0124 19.8476 14.9607 18.488L17.3438 15.0712L21.5094 15.0974C23.1671 15.1078 24.1171 13.2129 23.1171 11.8909L20.604 8.56862L21.9161 4.61496C22.4383 3.04168 20.9297 1.5526 19.3633 2.09515L15.4271 3.45857ZM20.0179 3.985L15.0881 5.69255L10.8867 2.59954L10.9873 7.81573L6.74735 10.8557L11.7393 12.372L13.3203 17.3438L16.3049 13.0647L21.522 13.0974L18.3746 8.93659L20.0179 3.985Z" fill="white"/>
<path fill-rule="evenodd" clip-rule="evenodd" d="M16.9554 18.9849C16.2221 18.9849 15.5964 19.5154 15.4765 20.2388L15.0171 23.0111C14.8658 23.9243 15.5702 24.7552 16.496 24.7552H16.7675C17.5082 24.7552 18.1378 24.2142 18.2495 23.4821L18.6721 20.7098C18.8104 19.8024 18.1081 18.9849 17.1902 18.9849H16.9554ZM17.1902 20.3486H16.9554C16.8892 20.3486 16.8327 20.3965 16.8219 20.4618L16.3625 23.234C16.3488 23.3165 16.4124 23.3915 16.496 23.3915H16.7675C16.8344 23.3915 16.8912 23.3426 16.9013 23.2765L17.324 20.5043C17.3364 20.4224 17.273 20.3486 17.1902 20.3486Z" fill="white"/>
<path d="M21.8949 18.9849H19.6203C19.5662 18.9849 19.5203 19.0244 19.5124 19.0778L18.683 24.6299C18.6731 24.6959 18.7242 24.7552 18.7909 24.7552H19.8281C19.8813 24.7552 19.9268 24.7167 19.9356 24.6642L20.3056 22.4746C20.3145 22.4221 20.3599 22.3837 20.4132 22.3837H21.2941C21.347 22.3837 21.3923 22.3457 21.4015 22.2937L21.5721 21.3324C21.584 21.2656 21.5326 21.2043 21.4647 21.2043H20.6461C20.5791 21.2043 20.5279 21.1445 20.5383 21.0783L20.6734 20.2185C20.6817 20.1654 20.7274 20.1263 20.7811 20.1263H21.7256C21.7783 20.1263 21.8234 20.0887 21.8329 20.0369L22.0022 19.1136C22.0145 19.0466 21.9631 18.9849 21.8949 18.9849Z" fill="white"/>
<path d="M24.8605 18.9849H22.5858C22.5318 18.9849 22.4859 19.0244 22.4779 19.0778L21.6485 24.6299C21.6387 24.6959 21.6897 24.7552 21.7564 24.7552H22.7936C22.8468 24.7552 22.8923 24.7167 22.9012 24.6642L23.2711 22.4746C23.28 22.4221 23.3255 22.3837 23.3787 22.3837H24.2596C24.3125 22.3837 24.3578 22.3457 24.3671 22.2937L24.5377 21.3324C24.5495 21.2656 24.4981 21.2043 24.4302 21.2043H23.6116C23.5446 21.2043 23.4934 21.1445 23.5038 21.0783L23.6389 20.2185C23.6472 20.1654 23.6929 20.1263 23.7467 20.1263H24.6911C24.7438 20.1263 24.7889 20.0887 24.7984 20.0369L24.9678 19.1136C24.98 19.0466 24.9286 18.9849 24.8605 18.9849Z" fill="white"/>
</svg>
