<svg width="54" height="59" viewBox="0 0 54 59" fill="none" xmlns="http://www.w3.org/2000/svg">
<path fill-rule="evenodd" clip-rule="evenodd" d="M51.888 43.2959C54.158 45.9269 54.62 49.9329 52.288 52.4219C52.2028 53.4212 51.7651 54.3577 51.053 55.0639C50.5745 56.7792 49.2304 58.1172 47.513 58.5879C44.563 59.4049 41.592 57.6239 39.492 55.6799C35.943 53.0409 32.557 48.9839 31.53 44.8069C29.4326 45.3311 27.2406 45.349 25.135 44.8589C23.0411 44.5617 21.2041 43.3088 20.163 41.4679C19.6991 40.5408 19.5365 39.492 19.698 38.4679C13.5524 32.6691 11.9794 23.5064 15.839 15.9899C11.8351 16.83 8.46649 19.5183 6.75899 23.2359C5.92599 25.0689 2.72899 25.0859 1.90099 23.2359C-0.0567818 18.6895 0.129993 13.5044 2.4098 9.11064C4.68961 4.7169 8.82157 1.57881 13.666 0.561925C18.8491 -0.554843 24.2635 0.446816 28.704 3.34393C32.747 6.10793 34.34 10.2409 34.776 14.7899C37.9446 15.5211 40.7054 17.4543 42.476 20.1819C45.056 23.9459 45.401 28.7389 45.556 33.1619C45.5681 33.5058 45.5713 33.852 45.5746 34.1977C45.5924 36.1091 45.6101 38.0028 47.126 39.3959C47.7604 39.981 48.4581 40.4823 49.1549 40.9829C50.1253 41.6802 51.0941 42.3763 51.888 43.2959ZM6.55099 14.4179C6.45579 14.3641 6.36365 14.305 6.27499 14.2409C6.22999 14.4119 6.18899 14.5829 6.15099 14.7539C6.16866 14.7389 6.18632 14.7239 6.20396 14.7089C6.31912 14.611 6.43393 14.5133 6.55099 14.4179Z" fill="white"/>
<path fill-rule="evenodd" clip-rule="evenodd" d="M49.678 50.999C52.581 50.735 51.688 47.405 50.188 46.024C48.4863 44.5979 46.614 43.389 44.614 42.425C44.1324 42.1687 43.6341 41.924 43.1324 41.6776L43.1323 41.6775C41.4547 40.8535 39.7384 40.0105 38.476 38.655C39.9858 39.5776 41.5715 40.3698 43.216 41.023C43.2554 41.0355 43.2976 41.0355 43.337 41.023C43.4732 41.0899 43.6356 41.0739 43.7562 40.9817C43.8768 40.8895 43.9348 40.737 43.906 40.588C43.4556 38.4597 43.2983 36.2483 43.1408 34.035C42.852 29.9774 42.5628 25.9135 40.467 22.345C38.881 19.645 35.927 17.312 32.806 17.345C32.8244 17.3039 32.8356 17.2599 32.839 17.215C33.195 13.206 30.927 9.01397 27.827 6.58697C24.364 3.87997 19.691 3.20597 15.427 3.74997C11.385 4.26897 7.28099 5.99697 4.80399 9.36097C2.62799 12.321 1.78299 16.556 3.64899 19.861C3.62799 20.1 3.94999 20.171 4.07999 20.016C4.12822 19.9765 4.15214 19.9146 4.14299 19.853C5.51099 14.821 13.276 12.134 17.921 13.021C16.13 19.151 15.431 25.703 17.398 31.603C18.3485 34.4449 20.5089 36.7199 23.298 37.816C23.1613 37.9534 23.0469 38.1113 22.959 38.284C22.737 38.706 22.453 39.34 22.871 39.74C23.2499 40.011 23.7702 39.9628 24.093 39.627C24.198 39.547 24.307 39.459 24.407 39.359C24.2495 39.8577 24.5146 40.3917 25.007 40.568C25.2866 40.6812 25.6063 40.6262 25.832 40.426C25.9073 40.7141 26.1024 40.9562 26.368 41.091C26.8112 41.2675 27.3174 41.1063 27.577 40.706C27.7675 40.9835 28.0589 41.1758 28.389 41.242C28.8767 41.332 29.3777 41.179 29.732 40.832C29.7219 41.2445 30.0154 41.6022 30.422 41.673C31.4828 41.9485 31.8419 40.787 32.1099 39.9199C32.1716 39.7202 32.2285 39.5362 32.288 39.389C32.3053 39.3494 32.3112 39.3057 32.305 39.263C32.681 39.255 33.054 39.238 33.422 39.217C33.4631 44.3004 35.5882 49.1444 39.301 52.617C40.745 53.98 42.879 55.888 44.971 55.964C45.6941 56.0593 46.4198 55.8079 46.9289 55.2856C47.438 54.7633 47.6708 54.0314 47.557 53.311C47.5539 53.296 47.5482 53.2818 47.54 53.269L47.285 53.248C47.2592 53.2747 47.2455 53.3108 47.247 53.348C47.364 57.176 43.155 54.687 42.189 54.017C41.5263 53.5557 40.8959 53.0499 40.302 52.503C39.0115 51.319 37.883 49.9696 36.946 48.49C35.2204 45.6597 34.1508 42.4788 33.816 39.181C34.18 39.156 34.54 39.127 34.891 39.093C35.398 39.042 35.896 38.984 36.381 38.917L36.741 38.862L36.7535 38.8601C37.0833 38.8107 37.414 38.7612 37.728 38.703C39.0313 40.3196 40.9044 41.2601 42.7432 42.1834L42.7434 42.1835L42.7437 42.1836L42.7439 42.1838L42.7442 42.1839L42.7445 42.1841L42.7447 42.1842L42.745 42.1843L42.746 42.1848L42.746 42.1848L42.746 42.1849C43.1481 42.3867 43.5486 42.5878 43.941 42.795C45.2994 43.4922 46.6206 44.2599 47.899 45.095C48.5462 45.5034 49.1584 45.965 49.729 46.475C50.674 47.379 52.386 50.011 49.62 50.597C49.5699 50.6088 49.5267 50.6402 49.5 50.6842C49.4733 50.7282 49.4654 50.7811 49.478 50.831C49.4804 50.8805 49.5033 50.9268 49.5413 50.9587C49.5793 50.9905 49.6288 51.0052 49.678 50.999ZM42.3751 34.1179C42.5196 36.2317 42.6642 38.3475 43.088 40.417H43.083C38.89 38.174 34.786 35.547 31.698 31.876C28.953 28.613 24.92 19.998 31.439 18.253C36.318 16.952 39.912 21.839 41.163 25.873C41.9941 28.5437 42.1845 31.3291 42.3751 34.1179ZM37.431 38.007C34.2689 35.9768 31.5598 33.316 29.473 30.191C27.335 26.869 25.473 20.471 29.925 18.091C30.619 17.718 31.3767 17.4782 32.159 17.384C32.1306 17.3322 32.1122 17.2756 32.105 17.217C31.724 13.096 30.348 9.33797 26.816 6.86597C25.2415 5.79156 23.458 5.06165 21.582 4.72397C21.1559 6.16692 20.7009 7.60124 20.2464 9.03444L20.218 9.12397C21.3926 7.99189 22.9826 7.39518 24.612 7.47497C26.947 7.62997 28.256 9.82297 28.512 11.975C29.303 18.556 22.294 21.745 17.119 23.281C17.0474 25.1377 17.1894 26.9966 17.542 28.821C17.8136 31.0896 18.7645 33.2232 20.27 34.942C21.6994 36.2234 23.409 37.1522 25.262 37.654C25.726 37.796 26.195 37.917 26.662 38.022C26.7376 38.0034 26.8175 38.0203 26.879 38.068C30.3718 38.6565 33.9402 38.6358 37.426 38.007H37.431ZM30.444 39.245C30.863 39.266 31.277 39.266 31.695 39.266H31.69C31.656 39.3549 31.6165 39.4791 31.5713 39.6215L31.5712 39.6217L31.5712 39.6218C31.3438 40.3379 30.9699 41.5152 30.402 40.999C30.14 40.7579 30.251 40.2952 30.3237 39.9922L30.335 39.945C30.3927 39.7155 30.4292 39.4811 30.444 39.245ZM29.57 40.149C29.692 39.8526 29.7394 39.5309 29.708 39.212C29.208 39.183 28.717 39.141 28.227 39.082C28.2845 39.1483 28.2792 39.2481 28.215 39.308C28.1486 39.3663 28.0907 39.4336 28.043 39.508C28.0177 39.5904 27.9955 39.6728 27.9733 39.7553L27.9732 39.7554L27.9732 39.7554L27.9732 39.7555L27.9732 39.7555L27.9732 39.7556L27.9732 39.7556L27.9732 39.7557C27.9514 39.8363 27.9297 39.917 27.905 39.998C27.9062 40.197 27.9905 40.3864 28.1374 40.5207C28.2844 40.6549 28.4807 40.7217 28.679 40.705C29.0544 40.6994 29.3955 40.4855 29.564 40.15L29.57 40.149ZM27.4858 39.4634C27.376 39.9186 27.2624 40.389 26.888 40.555H26.882C26.493 40.731 26.275 40.284 26.31 39.953C26.415 39.5407 26.6427 39.17 26.963 38.89C27.061 38.9052 27.161 38.9203 27.2616 38.9356C27.3795 38.9536 27.4983 38.9716 27.616 38.99C27.5649 39.1357 27.5256 39.2985 27.4858 39.4634ZM27.259 15.174C28.096 12.944 27.916 8.93997 25.024 8.21597C23.1012 7.8951 21.152 8.61467 19.899 10.108C18.5069 14.0592 17.5897 18.162 17.167 22.33C21.137 21.137 25.677 19.379 27.259 15.174ZM26.0389 39.0309C26.0161 39.0757 25.9932 39.1207 25.97 39.166C25.8656 39.4651 25.7043 39.7411 25.495 39.979C25.135 40.243 24.842 39.761 24.863 39.443C24.9233 39.1027 25.06 38.7806 25.263 38.501C25.568 38.589 25.878 38.664 26.192 38.735C26.1396 38.8329 26.0895 38.9314 26.0389 39.0309ZM24.599 38.304C24.348 38.22 24.093 38.132 23.846 38.04C23.6737 38.1807 23.5388 38.3617 23.453 38.567C23.353 38.776 23.098 39.516 23.612 39.232C23.9923 38.9822 24.3263 38.6682 24.599 38.304ZM21.068 4.62997C20.616 5.62997 20.181 6.66297 19.762 7.71797H19.761C19.7222 7.66783 19.6663 7.63367 19.604 7.62197C15.47 7.03997 10.955 7.36497 7.51999 9.96497C7.23402 9.5489 6.89819 9.16941 6.51999 8.83497C9.13075 6.34157 12.5134 4.8125 16.11 4.49997C17.7615 4.33209 19.4276 4.37578 21.068 4.62997ZM19.54 8.27497H19.5386L19.539 8.27397L19.54 8.27497ZM19.5386 8.27497H19.511C15.842 7.78997 11.867 7.98197 8.64899 10.016C8.38232 10.1873 8.12699 10.3673 7.88299 10.556C8.46172 11.6617 8.69216 12.9168 8.54399 14.156C8.63199 14.106 8.72399 14.056 8.81199 14.009C11.5996 12.3022 14.9234 11.696 18.134 12.309C18.5559 10.9363 19.0288 9.58965 19.5386 8.27497ZM5.92699 13.736C5.98199 13.782 6.03999 13.828 6.09899 13.874C6.02831 13.9394 5.9572 13.9997 5.88818 14.0582C5.85174 14.0891 5.81589 14.1196 5.78099 14.15L5.92699 13.736Z" fill="#222221"/>
<path d="M49.732 46.4761C50.677 47.3761 52.389 50.0121 49.623 50.5981C49.5729 50.6099 49.5297 50.6413 49.503 50.6853C49.4763 50.7293 49.4684 50.7822 49.481 50.8321H49.468C49.104 48.7111 47.288 47.3221 45.581 46.1131C42.803 44.1461 38.188 42.3641 36.881 39.0331C36.8538 38.9627 36.8038 38.9036 36.739 38.8651C37.074 38.8151 37.409 38.7651 37.726 38.7061C39.316 40.6771 41.751 41.6431 43.94 42.7981C45.2985 43.4953 46.6196 44.263 47.898 45.0981C48.5466 45.5056 49.16 45.9666 49.732 46.4761Z" fill="#3E3E3D"/>
<path d="M49.698 51.2581C49.74 52.8521 48.798 53.3381 47.535 53.2661L47.28 53.2451C45.2687 52.8629 43.3618 52.057 41.686 50.8811C38.0201 48.0568 35.5042 43.9977 34.606 39.4581C34.5962 39.3752 34.6213 39.292 34.6754 39.2284C34.7295 39.1648 34.8076 39.1267 34.891 39.1231C34.9767 39.124 35.0524 39.1795 35.079 39.2611C36.334 42.2231 37.368 45.1061 39.443 47.6291C40.4159 48.8326 41.5573 49.8895 42.832 50.7671C43.4229 51.1647 44.0472 51.5104 44.698 51.8001C45.74 52.2691 48.656 53.5001 49.154 51.3611C48.02 47.8801 43.954 45.8761 41.025 44.0511C39.096 42.8511 36.744 41.6281 36.301 39.1891C36.2802 39.0916 36.3082 38.9901 36.376 38.9171L36.736 38.8621C36.8008 38.9006 36.8508 38.9598 36.878 39.0301C38.188 42.3601 42.803 44.1431 45.578 46.1101C47.285 47.3191 49.101 48.7101 49.465 50.8291L49.49 51.0181C49.6069 51.0395 49.6934 51.1392 49.698 51.2581Z" fill="#222221"/>
<path d="M49.154 51.3639C48.654 53.5059 45.74 52.2719 44.698 51.8029C44.0473 51.5132 43.4229 51.1676 42.832 50.7699C41.5573 49.8923 40.4159 48.8354 39.443 47.6319C37.368 45.1089 36.334 42.2259 35.079 39.2639C35.0524 39.1823 34.9768 39.1268 34.891 39.1259V39.0969C35.397 39.0469 35.891 38.9879 36.381 38.9209C36.3127 38.9937 36.2843 39.0953 36.305 39.1929C36.748 41.6319 39.105 42.8539 41.029 44.0549C43.957 45.8779 48.023 47.8819 49.154 51.3639Z" fill="#3E3E3D"/>
<path d="M47.28 53.2461C47.2542 53.2728 47.2404 53.3089 47.242 53.3461C47.359 57.1741 43.15 54.6851 42.184 54.0151C41.5213 53.5538 40.8909 53.048 40.297 52.5011C39.0064 51.3171 37.878 49.9677 36.941 48.4881C35.2153 45.6578 34.1458 42.4769 33.811 39.1791C34.175 39.1541 34.535 39.1241 34.886 39.0911V39.1201C34.8026 39.1237 34.7245 39.1618 34.6704 39.2254C34.6163 39.289 34.5912 39.3722 34.601 39.4551C35.4992 43.9947 38.0151 48.0538 41.681 50.8781C43.3579 52.0561 45.2666 52.8634 47.28 53.2461Z" fill="#3E3E3D"/>
<path d="M41.158 25.8741C42.619 30.5681 42.1 35.6191 43.083 40.4181C38.891 38.1711 34.783 35.5481 31.694 31.8781C28.949 28.6151 24.916 19.9991 31.435 18.2551C36.313 16.9501 39.907 21.8401 41.158 25.8741Z" fill="#3E3E3D"/>
<path d="M29.468 30.1919C31.5548 33.3169 34.2639 35.9777 37.426 38.0079C33.9397 38.6363 30.371 38.6562 26.878 38.0669C26.8164 38.0193 26.7365 38.0023 26.661 38.0209C26.193 37.9209 25.724 37.7949 25.261 37.6529C23.408 37.1511 21.6983 36.2223 20.269 34.9409C18.7634 33.2222 17.8125 31.0886 17.541 28.8199C17.1884 26.9955 17.0464 25.1367 17.118 23.2799C22.293 21.7439 29.302 18.5559 28.511 11.9739C28.251 9.8189 26.942 7.6269 24.611 7.4739C22.9799 7.39272 21.3878 7.98953 20.212 9.1229C20.676 7.6629 21.141 6.1979 21.576 4.7229C23.4519 5.06058 25.2355 5.7905 26.81 6.8649C30.341 9.3379 31.718 13.0949 32.099 17.2159C32.1062 17.2745 32.1245 17.3312 32.153 17.3829C31.3707 17.4771 30.613 17.7169 29.919 18.0899C25.472 20.4719 27.332 26.8699 29.468 30.1919Z" fill="#3E3E3D"/>
<path d="M30.439 39.2458C30.858 39.2628 31.272 39.2668 31.69 39.2668C31.49 39.8028 31.083 41.6188 30.397 40.9988C30.121 40.7478 30.259 40.2458 30.33 39.9448C30.3876 39.7157 30.4241 39.4817 30.439 39.2458Z" fill="#DA9A36"/>
<path d="M29.702 39.213C29.7334 39.5319 29.686 39.8537 29.564 40.15C29.3951 40.4882 29.051 40.7033 28.673 40.707C28.4747 40.7237 28.2784 40.6569 28.1314 40.5227C27.9845 40.3885 27.9002 40.199 27.899 40C27.949 39.837 27.987 39.674 28.037 39.51C28.0847 39.4356 28.1426 39.3683 28.209 39.31C28.2732 39.2502 28.2785 39.1503 28.221 39.084C28.713 39.142 29.205 39.183 29.702 39.213Z" fill="#DA9A36"/>
<path d="M27.611 38.9911C27.418 39.5391 27.393 40.3301 26.883 40.5561C26.494 40.7321 26.276 40.2841 26.302 39.9561C26.407 39.5438 26.6347 39.1731 26.955 38.8931C27.171 38.9241 27.393 38.9591 27.611 38.9911Z" fill="#DA9A36"/>
<path fill-rule="evenodd" clip-rule="evenodd" d="M27.258 15.1748C28.095 12.9448 27.915 8.94085 25.024 8.21685C23.1011 7.89537 21.1515 8.61459 19.898 10.1078C18.5059 14.0591 17.5888 18.1619 17.166 22.3298C21.137 21.1368 25.676 19.3798 27.258 15.1748ZM23.296 10.1578C25.016 10.3088 25.108 12.3418 24.957 13.6268H24.958C24.903 14.0628 24.209 14.0698 24.256 13.6268C24.2578 13.6112 24.2596 13.5955 24.2613 13.5797C24.3615 12.6942 24.505 11.4253 23.556 10.9488C22.217 10.2708 22.117 12.3588 22.096 13.1118C22.096 13.3918 21.642 13.4788 21.596 13.1788C21.409 12.0028 21.656 10.0158 23.296 10.1578Z" fill="white"/>
<path d="M26.192 38.735C26.116 38.877 26.045 39.02 25.97 39.166C25.8661 39.4646 25.7055 39.7403 25.497 39.978C25.137 40.246 24.844 39.76 24.865 39.442C24.9253 39.1018 25.0621 38.7796 25.265 38.5C25.568 38.589 25.878 38.664 26.192 38.735Z" fill="#DA9A36"/>
<path d="M23.296 10.1581C25.016 10.3091 25.108 12.3421 24.957 13.6271C24.902 14.0671 24.208 14.0711 24.257 13.6271C24.357 12.7401 24.521 11.4341 23.557 10.9491C22.218 10.2711 22.118 12.3591 22.097 13.1121C22.097 13.3921 21.641 13.4761 21.597 13.1791C21.409 12.0031 21.656 10.0191 23.296 10.1581Z" fill="#222221"/>
<path d="M23.844 38.041C24.091 38.133 24.344 38.221 24.597 38.305C24.3244 38.6696 23.9904 38.984 23.61 39.234C23.095 39.518 23.35 38.778 23.451 38.569C23.5367 38.3634 23.6716 38.1821 23.844 38.041Z" fill="#DA9A36"/>
<path d="M21.066 4.63089C20.614 5.63089 20.179 6.66389 19.76 7.71889C19.7213 7.66684 19.6646 7.63116 19.601 7.61889C15.467 7.03789 10.953 7.35989 7.51697 9.96189C7.231 9.54583 6.89516 9.16634 6.51697 8.83189C9.12773 6.33849 12.5104 4.80942 16.107 4.49689C17.7589 4.33026 19.4254 4.37529 21.066 4.63089Z" fill="#E7BC3D"/>
<path d="M19.51 8.27908C19.523 8.27908 19.527 8.27908 19.539 8.27908C19.029 9.59308 18.556 10.9401 18.133 12.3161C14.9224 11.7031 11.5986 12.3093 8.81102 14.0161C8.72302 14.0621 8.63102 14.1161 8.54302 14.1631C8.69119 12.9239 8.46075 11.6688 7.88202 10.5631C8.12935 10.3751 8.38469 10.1951 8.64802 10.0231C11.865 7.98608 15.84 7.79408 19.51 8.27908Z" fill="#E7BC3D"/>
</svg>
