<svg width="20" height="20" viewBox="0 0 20 20" fill="none" xmlns="http://www.w3.org/2000/svg">
<path d="M11.8228 9.45852C12.2459 9.45852 12.604 9.82708 12.604 10.2627V12.0385L16.5103 8.38632L12.604 4.76765V6.50997C12.604 6.97906 12.2459 7.31412 11.8228 7.31412H7.39567C5.08447 7.31412 3.229 9.25748 3.229 11.6029C3.229 12.139 3.26156 12.6081 3.39176 13.0102C3.94515 10.9663 5.73551 9.45852 7.9165 9.45852H11.8228ZM11.0415 11.0668V11.1003H7.9165C6.19124 11.1003 4.7915 12.5411 4.7915 14.3169C4.7915 14.8865 4.92171 15.3221 5.08447 15.6572C5.14958 15.7577 5.18213 15.8247 5.24723 15.9252C5.34489 16.0257 5.40999 16.1262 5.50765 16.1933C5.50765 16.2268 5.5402 16.2268 5.5402 16.2603C5.70296 16.4278 5.80062 16.6288 5.80062 16.8634C5.80062 17.232 5.5402 17.5 5.18213 17.5C5.08447 17.5 4.98682 17.5 4.92171 17.4665C4.82406 17.3995 4.69385 17.3325 4.56364 17.232C4.46598 17.1649 4.36833 17.0979 4.27067 17.0309C4.14046 16.9304 4.01025 16.8299 3.88005 16.7294C2.90348 15.8582 1.6665 14.2164 1.6665 11.6029C1.6665 8.35281 4.20557 5.70582 7.39567 5.70582H11.0415V3.56143C11.0415 3.15935 11.2694 2.75728 11.66 2.58975C12.0181 2.42222 12.4738 2.48923 12.7668 2.79079L17.9751 7.61568C18.203 7.81671 18.3332 8.08476 18.3332 8.38632C18.3332 8.72138 18.203 8.98943 17.9751 9.19047L12.7668 14.0154C12.4738 14.3169 12.0181 14.3839 11.66 14.2164C11.2694 14.0489 11.0415 13.6468 11.0415 13.2112V11.0668Z" fill="#1F1F1F"/>
</svg>
