<svg width="16" height="12" viewBox="0 0 16 12" fill="none" xmlns="http://www.w3.org/2000/svg">
<path d="M15.3867 3.00319L15.3424 2.97734C15.3424 2.97734 15.3424 2.96441 15.3202 2.96441L10.9997 0.443848C10.9997 0.443848 10.9997 0.443848 10.9776 0.443848H4.79588H4.77372L0.453189 2.96441H0.431035C0.408878 2.96441 0.408877 2.97734 0.408877 2.97734L0.386719 2.99026C0.386719 2.99026 0.386719 2.99026 0.386719 3.00319V8.87158V8.88451L0.408877 8.89743C0.408877 8.89743 0.408878 8.91036 0.431035 8.91036L4.77372 11.4438C4.77372 11.4438 4.77372 11.4438 4.79588 11.4438H10.9776H10.9997L15.3646 8.89743C15.3646 8.89743 15.3646 8.89743 15.3646 8.88451L15.3867 3.00319Z" fill="url(#paint0_linear_17_104862)"/>
<path d="M3.79883 2.77051L6.19174 3.02903L3.93177 4.34748L3.79883 2.77051Z" fill="url(#paint1_linear_17_104862)"/>
<path opacity="0.5" d="M3.86536 7.50149L0.497559 8.84579L2.18146 5.88574L3.86536 7.50149Z" fill="url(#paint2_linear_17_104862)"/>
<path opacity="0.5" d="M2.20361 5.85979L3.88751 4.38623V7.46261L2.20361 5.85979Z" fill="url(#paint3_linear_17_104862)"/>
<path d="M3.93177 7.52734L6.19174 8.84579L3.79883 9.10431L3.93177 7.52734Z" fill="url(#paint4_linear_17_104862)"/>
<path d="M3.9541 7.50145C3.9541 7.48853 3.9541 7.48853 3.9541 7.50145V4.38629L6.25838 3.04199H9.53756L11.8418 4.38629V7.50145L9.53756 8.84575H9.5154C9.49325 8.84575 9.49324 8.84575 9.49324 8.85868H6.25838L6.23623 8.84575L3.9541 7.50145Z" fill="url(#paint5_linear_17_104862)"/>
<path opacity="0.6" d="M9.95853 3.28759L9.53756 3.04199H8.23032C6.8123 3.86925 5.37212 4.69652 3.9541 5.52378V6.79052L9.95853 3.28759Z" fill="url(#paint6_linear_17_104862)"/>
<path opacity="0.6" d="M3.9538 7.50148L4.68497 7.92803L11.2876 4.07609L10.357 3.5332L3.93164 7.28174L3.9538 7.50148C3.9538 7.48855 3.9538 7.48855 3.9538 7.50148Z" fill="url(#paint7_linear_17_104862)"/>
<path opacity="0.6" d="M6.2584 8.84587H7.85368L11.8419 6.51919V4.38641L11.7311 4.32178C9.51542 5.60145 7.32192 6.89404 5.12842 8.17372L6.2584 8.83294V8.84587Z" fill="url(#paint8_linear_17_104862)"/>
<path d="M9.58154 3.02903L11.9523 2.77051L11.8415 4.34748L9.58154 3.02903Z" fill="url(#paint9_linear_17_104862)"/>
<path d="M11.8418 7.54004L11.9526 9.10408L9.604 8.84556L11.8418 7.54004Z" fill="url(#paint10_linear_17_104862)"/>
<path opacity="0.5" d="M11.8862 4.38623L13.5701 5.85979L11.8862 7.46261V4.38623Z" fill="url(#paint11_linear_17_104862)"/>
<path d="M12.0192 2.77051L15.2983 2.99025L11.8862 4.34748L12.0192 2.77051Z" fill="url(#paint12_linear_17_104862)"/>
<path d="M15.2317 2.95154L11.9969 2.74472L11.022 0.495605L15.2317 2.95154Z" fill="url(#paint13_linear_17_104862)"/>
<path opacity="0.6" d="M11.9523 2.74472L9.58154 3.00324L10.9774 0.495605L11.9523 2.74472Z" fill="url(#paint14_linear_17_104862)"/>
<path d="M9.53729 2.97762L7.98633 1.74966L10.9332 0.48291L9.53729 2.97762Z" fill="url(#paint15_linear_17_104862)"/>
<path d="M10.8667 0.469727L7.94208 1.73647V0.495578C7.94208 0.495578 7.94208 0.482653 7.91992 0.482653H10.8667V0.469727Z" fill="url(#paint16_linear_17_104862)"/>
<path d="M7.94202 1.77513L9.51513 3.0031C9.51513 3.0031 9.51513 3.0031 9.53729 3.0031H6.28027V2.99017L7.91986 1.76221C7.91986 1.77513 7.91986 1.77513 7.94202 1.77513Z" fill="url(#paint17_linear_17_104862)"/>
<path d="M7.92003 0.469727C7.89787 0.469727 7.89787 0.469727 7.92003 0.469727L7.89788 1.72355V1.73647L4.90674 0.469727H7.92003Z" fill="url(#paint18_linear_17_104862)"/>
<path d="M7.8756 1.74966L6.23601 2.9647L4.8623 0.48291L7.8756 1.74966Z" fill="url(#paint19_linear_17_104862)"/>
<path d="M4.79587 0.48291L6.19174 3.00347C6.19174 3.00347 6.19174 3.00347 6.19174 3.0164L3.79883 2.75788L4.79587 0.48291Z" fill="url(#paint20_linear_17_104862)"/>
<path d="M4.72958 0.508301L3.75469 2.74449L0.541992 2.95131L4.72958 0.508301Z" fill="url(#paint21_linear_17_104862)"/>
<path d="M0.497559 2.99025L3.75458 2.77051L3.86536 4.33455L0.497559 2.99025Z" fill="url(#paint22_linear_17_104862)"/>
<path d="M3.86505 4.3736L2.18115 5.83423L0.475098 3.0293L3.86505 4.3736Z" fill="url(#paint23_linear_17_104862)"/>
<path d="M2.13703 5.87256H0.453125V8.84553L2.13703 5.87256Z" fill="url(#paint24_linear_17_104862)"/>
<path opacity="0.6" d="M0.453125 3.05469V5.8467H2.13703L0.453125 3.05469Z" fill="url(#paint25_linear_17_104862)"/>
<path d="M3.86536 7.54004L3.75458 9.10408L0.497559 8.88434L3.86536 7.54004Z" fill="url(#paint26_linear_17_104862)"/>
<path opacity="0.7" d="M0.519531 8.92334L3.75439 9.14308L4.75144 11.3793L0.519531 8.92334Z" fill="url(#paint27_linear_17_104862)"/>
<path opacity="0.4" d="M3.8208 9.1301L6.21371 8.87158C6.21371 8.87158 6.21371 8.87158 6.21371 8.88451L4.81785 11.4051L3.8208 9.1301Z" fill="url(#paint28_linear_17_104862)"/>
<path d="M4.81989 11.4184C4.79572 11.4043 4.79572 11.4184 4.81989 11.4184V11.4184Z" fill="url(#paint29_linear_17_104862)"/>
<path d="M6.23601 8.91016L7.8756 10.1252L4.8623 11.3919L6.23601 8.91016Z" fill="url(#paint30_linear_17_104862)"/>
<path opacity="0.5" d="M7.89806 11.4181H4.88477L7.89806 10.1514V11.4181Z" fill="url(#paint31_linear_17_104862)"/>
<path opacity="0.4" d="M7.94202 10.0995H7.91986L6.28027 8.87158H9.49298L7.94202 10.0995Z" fill="url(#paint32_linear_17_104862)"/>
<path d="M7.94238 11.4181V10.1514H7.96454L10.8892 11.4181H7.94238Z" fill="url(#paint33_linear_17_104862)"/>
<path opacity="0.6" d="M7.98633 10.1254L9.53729 8.89746L10.9332 11.3922L7.98633 10.1254Z" fill="url(#paint34_linear_17_104862)"/>
<path d="M10.9774 11.3792L9.58154 8.87158L11.9523 9.1301L10.9774 11.3792Z" fill="url(#paint35_linear_17_104862)"/>
<path d="M11.022 11.3922L11.9969 9.14308L15.2539 8.92334L11.022 11.3922Z" fill="url(#paint36_linear_17_104862)"/>
<path d="M12.0192 9.10431L11.8862 7.52734L15.2762 8.88457L12.0192 9.10431Z" fill="url(#paint37_linear_17_104862)"/>
<path d="M11.9082 7.50149L13.5921 5.88574L15.276 8.84579L11.9082 7.50149Z" fill="url(#paint38_linear_17_104862)"/>
<path d="M15.3428 8.84553V5.87256H13.6367L15.3428 8.84553Z" fill="url(#paint39_linear_17_104862)"/>
<path opacity="0.6" d="M13.6587 5.8467H15.3426V3.05469L13.6587 5.8467Z" fill="url(#paint40_linear_17_104862)"/>
<path opacity="0.7" d="M15.3423 3.01611C15.3201 3.01611 15.3201 3.01611 15.298 3.02904L13.5919 5.8469L11.9302 4.37334L15.3423 3.01611Z" fill="url(#paint41_linear_17_104862)"/>
<defs>
<linearGradient id="paint0_linear_17_104862" x1="0.397841" y1="5.9434" x2="15.3838" y2="5.9434" gradientUnits="userSpaceOnUse">
<stop stop-color="#FF805F"/>
<stop offset="1" stop-color="#FF3B2E"/>
</linearGradient>
<linearGradient id="paint1_linear_17_104862" x1="2.81997" y1="2.82873" x2="8.0423" y2="8.77267" gradientUnits="userSpaceOnUse">
<stop stop-color="#FFD8CF"/>
<stop offset="1" stop-color="#FF7C5C"/>
</linearGradient>
<linearGradient id="paint2_linear_17_104862" x1="1.38823" y1="7.38597" x2="4.32323" y2="10.6123" gradientUnits="userSpaceOnUse">
<stop stop-color="#FFD8CF"/>
<stop offset="1" stop-color="#FF7C5C"/>
</linearGradient>
<linearGradient id="paint3_linear_17_104862" x1="0.167803" y1="5.9276" x2="1.84836" y2="5.9276" gradientUnits="userSpaceOnUse">
<stop stop-color="#FF805F"/>
<stop offset="1" stop-color="#FF3B2E"/>
</linearGradient>
<linearGradient id="paint4_linear_17_104862" x1="3.7129" y1="9.14044" x2="4.60271" y2="7.27848" gradientUnits="userSpaceOnUse">
<stop stop-color="#FF805F"/>
<stop offset="1" stop-color="#FF3B2E"/>
</linearGradient>
<linearGradient id="paint5_linear_17_104862" x1="5.14688" y1="2.75201" x2="7.40004" y2="10.4428" gradientUnits="userSpaceOnUse">
<stop stop-color="#FFD8CF"/>
<stop offset="1" stop-color="#FF7C5C"/>
</linearGradient>
<linearGradient id="paint6_linear_17_104862" x1="6.51771" y1="1.92542" x2="6.94997" y2="11.0897" gradientUnits="userSpaceOnUse">
<stop stop-color="#FFD8CF"/>
<stop offset="1" stop-color="#FF7C5C"/>
</linearGradient>
<linearGradient id="paint7_linear_17_104862" x1="7.08457" y1="1.89869" x2="7.51683" y2="11.063" gradientUnits="userSpaceOnUse">
<stop stop-color="#FFD8CF"/>
<stop offset="1" stop-color="#FF7C5C"/>
</linearGradient>
<linearGradient id="paint8_linear_17_104862" x1="7.86269" y1="1.86206" x2="8.29497" y2="11.0264" gradientUnits="userSpaceOnUse">
<stop stop-color="#FFD8CF"/>
<stop offset="1" stop-color="#FF7C5C"/>
</linearGradient>
<linearGradient id="paint9_linear_17_104862" x1="8.6464" y1="1.56095" x2="10.0142" y2="4.09386" gradientUnits="userSpaceOnUse">
<stop stop-color="#FFD8CF"/>
<stop offset="1" stop-color="#FF7C5C"/>
</linearGradient>
<linearGradient id="paint10_linear_17_104862" x1="6.87103" y1="6.04295" x2="8.05055" y2="7.9759" gradientUnits="userSpaceOnUse">
<stop stop-color="#FFD8CF"/>
<stop offset="1" stop-color="#FF7C5C"/>
</linearGradient>
<linearGradient id="paint11_linear_17_104862" x1="6.26206" y1="5.67406" x2="12.0113" y2="6.43536" gradientUnits="userSpaceOnUse">
<stop stop-color="#FF3B2E"/>
<stop offset="1" stop-color="#990000"/>
</linearGradient>
<linearGradient id="paint12_linear_17_104862" x1="11.8951" y1="3.55836" x2="15.2923" y2="3.55836" gradientUnits="userSpaceOnUse">
<stop stop-color="#FF805F"/>
<stop offset="1" stop-color="#FF3B2E"/>
</linearGradient>
<linearGradient id="paint13_linear_17_104862" x1="11.334" y1="2.32503" x2="14.9901" y2="-1.24363" gradientUnits="userSpaceOnUse">
<stop stop-color="#FF3B2E"/>
<stop offset="1" stop-color="#990000"/>
</linearGradient>
<linearGradient id="paint14_linear_17_104862" x1="6.53645" y1="0.725649" x2="10.3282" y2="3.78545" gradientUnits="userSpaceOnUse">
<stop stop-color="#FF3B2E"/>
<stop offset="1" stop-color="#990000"/>
</linearGradient>
<linearGradient id="paint15_linear_17_104862" x1="8.15108" y1="1.22782" x2="11.183" y2="3.38217" gradientUnits="userSpaceOnUse">
<stop stop-color="#FFD8CF"/>
<stop offset="1" stop-color="#FF7C5C"/>
</linearGradient>
<linearGradient id="paint16_linear_17_104862" x1="7.08023" y1="-1.19014" x2="7.75764" y2="0.762707" gradientUnits="userSpaceOnUse">
<stop stop-color="#FF805F"/>
<stop offset="1" stop-color="#FF3B2E"/>
</linearGradient>
<linearGradient id="paint17_linear_17_104862" x1="7.89075" y1="1.62548" x2="7.89075" y2="4.74323" gradientUnits="userSpaceOnUse">
<stop stop-color="#FF805F"/>
<stop offset="1" stop-color="#FF3B2E"/>
</linearGradient>
<linearGradient id="paint18_linear_17_104862" x1="6.5601" y1="0.649023" x2="7.61559" y2="4.43343" gradientUnits="userSpaceOnUse">
<stop stop-color="#FF805F"/>
<stop offset="1" stop-color="#FF3B2E"/>
</linearGradient>
<linearGradient id="paint19_linear_17_104862" x1="6.40783" y1="0.865157" x2="6.09969" y2="5.77542" gradientUnits="userSpaceOnUse">
<stop stop-color="#FFD8CF"/>
<stop offset="1" stop-color="#FF7C5C"/>
</linearGradient>
<linearGradient id="paint20_linear_17_104862" x1="-1.78144" y1="2.4893" x2="1.30921" y2="1.55918" gradientUnits="userSpaceOnUse">
<stop stop-color="#FF805F"/>
<stop offset="1" stop-color="#FF3B2E"/>
</linearGradient>
<linearGradient id="paint21_linear_17_104862" x1="2.59296" y1="1.72043" x2="6.17396" y2="4.25581" gradientUnits="userSpaceOnUse">
<stop stop-color="#FF805F"/>
<stop offset="1" stop-color="#FF3B2E"/>
</linearGradient>
<linearGradient id="paint22_linear_17_104862" x1="0.486613" y1="3.55356" x2="3.87285" y2="3.55356" gradientUnits="userSpaceOnUse">
<stop stop-color="#FF805F"/>
<stop offset="1" stop-color="#FF3B2E"/>
</linearGradient>
<linearGradient id="paint23_linear_17_104862" x1="2.08415" y1="2.94563" x2="2.36534" y2="10.0149" gradientUnits="userSpaceOnUse">
<stop stop-color="#FFD8CF"/>
<stop offset="1" stop-color="#FF7C5C"/>
</linearGradient>
<linearGradient id="paint24_linear_17_104862" x1="-1.78737" y1="5.74402" x2="-0.701247" y2="7.42262" gradientUnits="userSpaceOnUse">
<stop stop-color="#FF805F"/>
<stop offset="1" stop-color="#FF3B2E"/>
</linearGradient>
<linearGradient id="paint25_linear_17_104862" x1="-0.0586258" y1="4.0419" x2="1.51416" y2="7.75588" gradientUnits="userSpaceOnUse">
<stop stop-color="#FF805F"/>
<stop offset="1" stop-color="#FF3B2E"/>
</linearGradient>
<linearGradient id="paint26_linear_17_104862" x1="1.26167" y1="7.75974" x2="3.73965" y2="11.3701" gradientUnits="userSpaceOnUse">
<stop stop-color="#FF805F"/>
<stop offset="1" stop-color="#FF3B2E"/>
</linearGradient>
<linearGradient id="paint27_linear_17_104862" x1="4.44641" y1="6.80291" x2="4.02179" y2="9.11032" gradientUnits="userSpaceOnUse">
<stop stop-color="#FF3B2E"/>
<stop offset="1" stop-color="#990000"/>
</linearGradient>
<linearGradient id="paint28_linear_17_104862" x1="-0.30256" y1="10.1353" x2="3.14175" y2="10.1353" gradientUnits="userSpaceOnUse">
<stop stop-color="#FF3B2E"/>
<stop offset="1" stop-color="#990000"/>
</linearGradient>
<linearGradient id="paint29_linear_17_104862" x1="4.80229" y1="11.4127" x2="4.8174" y2="11.4127" gradientUnits="userSpaceOnUse">
<stop stop-color="#FF805F"/>
<stop offset="1" stop-color="#FF3B2E"/>
</linearGradient>
<linearGradient id="paint30_linear_17_104862" x1="4.85898" y1="10.1506" x2="7.86527" y2="10.1506" gradientUnits="userSpaceOnUse">
<stop stop-color="#FF805F"/>
<stop offset="1" stop-color="#FF3B2E"/>
</linearGradient>
<linearGradient id="paint31_linear_17_104862" x1="6.23104" y1="8.01058" x2="6.28773" y2="10.8474" gradientUnits="userSpaceOnUse">
<stop stop-color="#FF3B2E"/>
<stop offset="1" stop-color="#990000"/>
</linearGradient>
<linearGradient id="paint32_linear_17_104862" x1="7.8823" y1="10.2701" x2="7.8823" y2="7.34932" gradientUnits="userSpaceOnUse">
<stop stop-color="#FFD8CF"/>
<stop offset="1" stop-color="#FF7C5C"/>
</linearGradient>
<linearGradient id="paint33_linear_17_104862" x1="8.00061" y1="7.68916" x2="8.40982" y2="10.8355" gradientUnits="userSpaceOnUse">
<stop stop-color="#FF3B2E"/>
<stop offset="1" stop-color="#990000"/>
</linearGradient>
<linearGradient id="paint34_linear_17_104862" x1="6.31905" y1="11.319" x2="10.6067" y2="7.54274" gradientUnits="userSpaceOnUse">
<stop stop-color="#FF3B2E"/>
<stop offset="1" stop-color="#990000"/>
</linearGradient>
<linearGradient id="paint35_linear_17_104862" x1="9.57472" y1="10.1254" x2="11.955" y2="10.1254" gradientUnits="userSpaceOnUse">
<stop stop-color="#FF805F"/>
<stop offset="1" stop-color="#FF3B2E"/>
</linearGradient>
<linearGradient id="paint36_linear_17_104862" x1="9.02409" y1="6.39421" x2="10.4799" y2="10.3052" gradientUnits="userSpaceOnUse">
<stop stop-color="#FF3B2E"/>
<stop offset="1" stop-color="#990000"/>
</linearGradient>
<linearGradient id="paint37_linear_17_104862" x1="9.95347" y1="5.43327" x2="11.0573" y2="8.56317" gradientUnits="userSpaceOnUse">
<stop stop-color="#FFD8CF"/>
<stop offset="1" stop-color="#FF7C5C"/>
</linearGradient>
<linearGradient id="paint38_linear_17_104862" x1="11.9081" y1="7.37156" x2="15.2859" y2="7.37156" gradientUnits="userSpaceOnUse">
<stop stop-color="#FF805F"/>
<stop offset="1" stop-color="#FF3B2E"/>
</linearGradient>
<linearGradient id="paint39_linear_17_104862" x1="10.2958" y1="7.14047" x2="14.0162" y2="7.62019" gradientUnits="userSpaceOnUse">
<stop stop-color="#FF3B2E"/>
<stop offset="1" stop-color="#990000"/>
</linearGradient>
<linearGradient id="paint40_linear_17_104862" x1="11.7738" y1="4.38314" x2="17.5444" y2="4.80948" gradientUnits="userSpaceOnUse">
<stop stop-color="#FF3B2E"/>
<stop offset="1" stop-color="#990000"/>
</linearGradient>
<linearGradient id="paint41_linear_17_104862" x1="11.9278" y1="4.42374" x2="15.334" y2="4.42374" gradientUnits="userSpaceOnUse">
<stop stop-color="#FFD8CF"/>
<stop offset="1" stop-color="#FF7C5C"/>
</linearGradient>
</defs>
</svg>
