<svg width="16" height="12" viewBox="0 0 16 12" fill="none" xmlns="http://www.w3.org/2000/svg">
<path d="M11.902 2.01887C10.0443 1.1125 8.21434 0.649017 8.15888 0.628418H8.13116C8.10343 0.628418 6.24576 1.1022 4.38809 2.00857C2.66905 2.84284 0.64502 4.24359 0.64502 6.12842C0.64502 8.01325 2.66905 9.414 4.38809 10.2483C6.24576 11.1546 8.10343 11.6284 8.13116 11.6284C8.13116 11.6284 8.13116 11.6284 8.15888 11.6284C8.15888 11.6284 8.15889 11.6284 8.18661 11.6284C8.26979 11.6078 10.0997 11.1546 11.9297 10.238C13.621 9.4037 15.645 8.01325 15.645 6.11812C15.6173 4.24359 13.5933 2.85314 11.902 2.01887Z" fill="url(#paint0_linear_17_104834)"/>
<path opacity="0.8" d="M15.5617 6.10802L12.5396 4.41888L14.8408 4.21289C15.2567 4.77937 15.534 5.40765 15.5617 6.10802Z" fill="#C61DDD"/>
<path d="M10.7096 9.06399L8.131 9.59957L5.52472 9.06399L3.8334 7.85893L3.16797 6.1389L3.8334 4.41886L5.52472 3.2138L8.131 2.67822L10.7096 3.2138L12.4286 4.41886L13.0663 6.1389L12.4286 7.85893L10.7096 9.06399Z" fill="url(#paint1_linear_17_104834)"/>
<path opacity="0.6" d="M12.4009 4.39811L11.5692 3.81104L3.44531 6.82883L3.7503 7.6116C6.60613 6.55074 9.5174 5.47957 12.4009 4.39811Z" fill="url(#paint2_linear_17_104834)"/>
<path opacity="0.6" d="M3.91699 7.92047L4.05562 8.01317L12.5954 4.84088L12.5399 4.71729C9.65637 5.78845 6.77281 6.84931 3.91699 7.92047Z" fill="url(#paint3_linear_17_104834)"/>
<path opacity="0.6" d="M12.9834 5.87083L12.7061 5.16016C9.93347 6.19012 7.16083 7.22008 4.38818 8.25004L5.1368 8.78562L12.9834 5.87083Z" fill="url(#paint4_linear_17_104834)"/>
<path opacity="0.6" d="M12.429 7.85849L12.6785 7.17871L6.85596 9.34163L7.85411 9.54762L12.429 7.85849Z" fill="url(#paint5_linear_17_104834)"/>
<path opacity="0.6" d="M11.2365 3.57412L10.7097 3.21364L9.37879 2.93555C7.43794 3.65652 5.49709 4.37749 3.58397 5.08817L3.1958 6.13873L3.33443 6.51982L11.2365 3.57412Z" fill="url(#paint6_linear_17_104834)"/>
<path opacity="0.3" d="M10.765 9.07422L13.0108 9.5583L9.68365 10.0836L8.15869 9.6098L10.765 9.07422Z" fill="url(#paint7_linear_17_104834)"/>
<path d="M3.1125 6.14893L3.75022 7.83806L0.728027 6.14893H3.1125Z" fill="url(#paint8_linear_17_104834)"/>
<path d="M0.728027 6.12859L3.75022 4.43945L3.1125 6.12859H0.728027Z" fill="url(#paint9_linear_17_104834)"/>
<path opacity="0.5" d="M5.49692 9.07422L8.07548 9.6201L6.57825 10.0939L3.27881 9.5583L5.49692 9.07422Z" fill="url(#paint10_linear_17_104834)"/>
<path opacity="0.3" d="M3.25146 9.53763L3.77827 7.87939L5.46958 9.06385L3.25146 9.53763Z" fill="url(#paint11_linear_17_104834)"/>
<path d="M5.4972 3.20326L3.22363 2.70887L6.5508 2.18359L8.07576 2.65738L5.4972 3.20326Z" fill="url(#paint12_linear_17_104834)"/>
<path opacity="0.4" d="M8.15869 2.65738L9.68365 2.18359L13.0108 2.70887L10.7372 3.19296L8.15869 2.65738Z" fill="url(#paint13_linear_17_104834)"/>
<path d="M12.4839 4.43945L15.5061 6.12859H13.1216L12.4839 4.43945Z" fill="url(#paint14_linear_17_104834)"/>
<path d="M13.1216 6.14897L15.5338 6.13867L12.4839 7.83811L13.1216 6.14897Z" fill="url(#paint15_linear_17_104834)"/>
<path opacity="0.2" d="M14.813 4.19199L12.5117 4.39799L13.094 2.73975C13.7594 3.15173 14.3417 3.63581 14.813 4.19199Z" fill="url(#paint16_linear_17_104834)"/>
<path d="M12.4565 4.39803L10.7651 3.21357L13.0387 2.72949L12.4565 4.39803Z" fill="url(#paint17_linear_17_104834)"/>
<path opacity="0.3" d="M11.8464 2.02903C12.2346 2.22472 12.6505 2.44101 13.0386 2.68821L9.71148 2.16293L8.18652 0.65918C8.49151 0.751876 10.1551 1.19476 11.8464 2.02903Z" fill="url(#paint18_linear_17_104834)"/>
<path d="M8.13091 0.679688L9.62814 2.17313L8.13091 2.64692L6.60596 2.17313L8.13091 0.679688Z" fill="url(#paint19_linear_17_104834)"/>
<path opacity="0.3" d="M4.41587 2.02903C6.10719 1.19476 7.82622 0.731277 8.10349 0.65918L6.5508 2.16293L3.22363 2.68821C3.6118 2.44101 4.0277 2.21442 4.41587 2.02903Z" fill="url(#paint20_linear_17_104834)"/>
<path d="M5.46936 3.21357L3.77805 4.39803L3.1958 2.72949L5.46936 3.21357Z" fill="url(#paint21_linear_17_104834)"/>
<path opacity="0.5" d="M3.14053 2.72949L3.72279 4.40833L1.44922 4.20234C1.89284 3.63586 2.50282 3.14148 3.14053 2.72949Z" fill="#C61DDD"/>
<path opacity="0.3" d="M1.42146 4.21289L3.69503 4.41888L0.672852 6.09772C0.700578 5.40765 0.977837 4.77937 1.42146 4.21289Z" fill="url(#paint22_linear_17_104834)"/>
<path opacity="0.5" d="M0.700195 6.16943L3.72237 7.84827L1.4488 8.05426C0.977455 7.49808 0.700195 6.86981 0.700195 6.16943Z" fill="url(#paint23_linear_17_104834)"/>
<path opacity="0.8" d="M1.44922 8.07513L3.72279 7.86914L3.16826 9.54798C2.53055 9.13599 1.89284 8.64161 1.44922 8.07513Z" fill="url(#paint24_linear_17_104834)"/>
<path d="M8.07554 11.6077C7.77055 11.5253 6.07924 11.0721 4.38793 10.2481C3.99976 10.0524 3.58387 9.82585 3.16797 9.56836L6.52287 10.1142L8.07554 11.6077Z" fill="url(#paint25_linear_17_104834)"/>
<path opacity="0.4" d="M8.13091 11.577L6.60596 10.1145L8.13091 9.63037L9.62814 10.1042L8.13091 11.577Z" fill="url(#paint26_linear_17_104834)"/>
<path d="M11.8463 10.2382C10.155 11.0725 8.46368 11.5256 8.15869 11.608L9.71137 10.1249L13.0385 9.59961C12.6226 9.8365 12.2345 10.0528 11.8463 10.2382Z" fill="url(#paint27_linear_17_104834)"/>
<path d="M10.793 9.05355L12.4566 7.87939L13.0388 9.54793L10.793 9.05355Z" fill="url(#paint28_linear_17_104834)"/>
<path opacity="0.7" d="M13.094 9.53763L12.5117 7.87939L14.7853 8.08539C14.3417 8.64157 13.7317 9.12565 13.094 9.53763Z" fill="url(#paint29_linear_17_104834)"/>
<path opacity="0.3" d="M14.8131 8.05431L12.5396 7.84832L15.5617 6.15918C15.534 6.86985 15.2567 7.49813 14.8131 8.05431Z" fill="url(#paint30_linear_17_104834)"/>
<defs>
<linearGradient id="paint0_linear_17_104834" x1="0.626886" y1="6.13299" x2="15.6138" y2="6.13299" gradientUnits="userSpaceOnUse">
<stop stop-color="#FF5FDF"/>
<stop offset="1" stop-color="#E02EFF"/>
</linearGradient>
<linearGradient id="paint1_linear_17_104834" x1="3.18219" y1="3.71954" x2="6.29231" y2="14.7644" gradientUnits="userSpaceOnUse">
<stop stop-color="#FFCFF7"/>
<stop offset="1" stop-color="#FF5CE2"/>
</linearGradient>
<linearGradient id="paint2_linear_17_104834" x1="3.4259" y1="3.65076" x2="6.53604" y2="14.6957" gradientUnits="userSpaceOnUse">
<stop stop-color="#FFCFF7"/>
<stop offset="1" stop-color="#FF5CE2"/>
</linearGradient>
<linearGradient id="paint3_linear_17_104834" x1="2.99503" y1="3.77206" x2="6.10515" y2="14.8169" gradientUnits="userSpaceOnUse">
<stop stop-color="#FFCFF7"/>
<stop offset="1" stop-color="#FF5CE2"/>
</linearGradient>
<linearGradient id="paint4_linear_17_104834" x1="2.61278" y1="3.87986" x2="5.72277" y2="14.9243" gradientUnits="userSpaceOnUse">
<stop stop-color="#FFCFF7"/>
<stop offset="1" stop-color="#FF5CE2"/>
</linearGradient>
<linearGradient id="paint5_linear_17_104834" x1="1.48099" y1="4.19775" x2="4.59132" y2="15.2433" gradientUnits="userSpaceOnUse">
<stop stop-color="#FFCFF7"/>
<stop offset="1" stop-color="#FF5CE2"/>
</linearGradient>
<linearGradient id="paint6_linear_17_104834" x1="4.1255" y1="3.45375" x2="7.23561" y2="14.4986" gradientUnits="userSpaceOnUse">
<stop stop-color="#FFCFF7"/>
<stop offset="1" stop-color="#FF5CE2"/>
</linearGradient>
<linearGradient id="paint7_linear_17_104834" x1="8.50034" y1="8.18028" x2="9.00346" y2="10.6477" gradientUnits="userSpaceOnUse">
<stop stop-color="#E02EFF"/>
<stop offset="1" stop-color="#6B0099"/>
</linearGradient>
<linearGradient id="paint8_linear_17_104834" x1="-3.07799" y1="8.33261" x2="-1.17523" y2="4.84811" gradientUnits="userSpaceOnUse">
<stop stop-color="#FFCFF7"/>
<stop offset="1" stop-color="#FF5CE2"/>
</linearGradient>
<linearGradient id="paint9_linear_17_104834" x1="1.45626" y1="4.8597" x2="2.51911" y2="9.04289" gradientUnits="userSpaceOnUse">
<stop stop-color="#FFCFF7"/>
<stop offset="1" stop-color="#FF5CE2"/>
</linearGradient>
<linearGradient id="paint10_linear_17_104834" x1="7.30105" y1="7.61301" x2="7.05996" y2="9.73388" gradientUnits="userSpaceOnUse">
<stop stop-color="#E02EFF"/>
<stop offset="1" stop-color="#6B0099"/>
</linearGradient>
<linearGradient id="paint11_linear_17_104834" x1="1.64716" y1="9.0648" x2="5.56705" y2="3.63697" gradientUnits="userSpaceOnUse">
<stop stop-color="#FFCFF7"/>
<stop offset="1" stop-color="#FF5CE2"/>
</linearGradient>
<linearGradient id="paint12_linear_17_104834" x1="4.71895" y1="2.89178" x2="6.22476" y2="0.896149" gradientUnits="userSpaceOnUse">
<stop stop-color="#FFCFF7"/>
<stop offset="1" stop-color="#FF5CE2"/>
</linearGradient>
<linearGradient id="paint13_linear_17_104834" x1="10.1264" y1="2.22281" x2="10.554" y2="5.31635" gradientUnits="userSpaceOnUse">
<stop stop-color="#FF71E3"/>
<stop offset="1" stop-color="#E340FF"/>
</linearGradient>
<linearGradient id="paint14_linear_17_104834" x1="12.4869" y1="5.28095" x2="15.5133" y2="5.28095" gradientUnits="userSpaceOnUse">
<stop stop-color="#FF80E6"/>
<stop offset="1" stop-color="#E54FFF"/>
</linearGradient>
<linearGradient id="paint15_linear_17_104834" x1="8.97622" y1="8.01347" x2="11.5536" y2="3.04684" gradientUnits="userSpaceOnUse">
<stop stop-color="#FF5FDF"/>
<stop offset="1" stop-color="#E02EFF"/>
</linearGradient>
<linearGradient id="paint16_linear_17_104834" x1="17.2731" y1="2.28073" x2="16.55" y2="4.14941" gradientUnits="userSpaceOnUse">
<stop stop-color="#E02EFF"/>
<stop offset="1" stop-color="#6B0099"/>
</linearGradient>
<linearGradient id="paint17_linear_17_104834" x1="7.32464" y1="2.15491" x2="9.335" y2="5.93299" gradientUnits="userSpaceOnUse">
<stop stop-color="#FFCFF7"/>
<stop offset="1" stop-color="#FF5CE2"/>
</linearGradient>
<linearGradient id="paint18_linear_17_104834" x1="14.2236" y1="-0.362666" x2="13.8672" y2="1.09086" gradientUnits="userSpaceOnUse">
<stop stop-color="#E02EFF"/>
<stop offset="1" stop-color="#6B0099"/>
</linearGradient>
<linearGradient id="paint19_linear_17_104834" x1="8.12035" y1="0.641198" x2="8.12035" y2="3.60387" gradientUnits="userSpaceOnUse">
<stop stop-color="#FFCFF7"/>
<stop offset="1" stop-color="#FF5CE2"/>
</linearGradient>
<linearGradient id="paint20_linear_17_104834" x1="4.94256" y1="1.46951" x2="7.49648" y2="6.83396" gradientUnits="userSpaceOnUse">
<stop stop-color="#FFCFF7"/>
<stop offset="1" stop-color="#FF5CE2"/>
</linearGradient>
<linearGradient id="paint21_linear_17_104834" x1="-1.41609" y1="4.60932" x2="0.250412" y2="2.03995" gradientUnits="userSpaceOnUse">
<stop stop-color="#FFCFF7"/>
<stop offset="1" stop-color="#FF5CE2"/>
</linearGradient>
<linearGradient id="paint22_linear_17_104834" x1="1.23925" y1="5.04361" x2="3.83182" y2="9.44757" gradientUnits="userSpaceOnUse">
<stop stop-color="#FFCFF7"/>
<stop offset="1" stop-color="#FF5CE2"/>
</linearGradient>
<linearGradient id="paint23_linear_17_104834" x1="5.76265" y1="5.15378" x2="5.0357" y2="7.89755" gradientUnits="userSpaceOnUse">
<stop stop-color="#FF5FDF"/>
<stop offset="1" stop-color="#E02EFF"/>
</linearGradient>
<linearGradient id="paint24_linear_17_104834" x1="4.26298" y1="8.07183" x2="2.46613" y2="13.0324" gradientUnits="userSpaceOnUse">
<stop stop-color="#E02EFF"/>
<stop offset="1" stop-color="#6B0099"/>
</linearGradient>
<linearGradient id="paint25_linear_17_104834" x1="6.46533" y1="9.3153" x2="6.09718" y2="13.4447" gradientUnits="userSpaceOnUse">
<stop stop-color="#E02EFF"/>
<stop offset="1" stop-color="#6B0099"/>
</linearGradient>
<linearGradient id="paint26_linear_17_104834" x1="6.78016" y1="8.89817" x2="7.37202" y2="12.8651" gradientUnits="userSpaceOnUse">
<stop stop-color="#FFCFF7"/>
<stop offset="1" stop-color="#FF5CE2"/>
</linearGradient>
<linearGradient id="paint27_linear_17_104834" x1="5.80172" y1="7.79714" x2="6.40207" y2="10.3449" gradientUnits="userSpaceOnUse">
<stop stop-color="#E02EFF"/>
<stop offset="1" stop-color="#6B0099"/>
</linearGradient>
<linearGradient id="paint28_linear_17_104834" x1="10.4858" y1="8.57125" x2="15.8788" y2="11.0241" gradientUnits="userSpaceOnUse">
<stop stop-color="#FF5FDF"/>
<stop offset="1" stop-color="#E02EFF"/>
</linearGradient>
<linearGradient id="paint29_linear_17_104834" x1="4.80803" y1="6.98674" x2="7.65279" y2="11.097" gradientUnits="userSpaceOnUse">
<stop stop-color="#E02EFF"/>
<stop offset="1" stop-color="#6B0099"/>
</linearGradient>
<linearGradient id="paint30_linear_17_104834" x1="7.51417" y1="6.10167" x2="11.2736" y2="9.90408" gradientUnits="userSpaceOnUse">
<stop stop-color="#E02EFF"/>
<stop offset="1" stop-color="#6B0099"/>
</linearGradient>
</defs>
</svg>
