<svg width="16" height="12" viewBox="0 0 16 12" fill="none" xmlns="http://www.w3.org/2000/svg">
<g opacity="0.3">
<path d="M2.39768 3.29152L0.933105 3.34907V3.80345L2.39768 3.9438V3.29152Z" fill="url(#paint0_linear_48_89426)"/>
<path d="M5.99609 3.19323L3.62158 3.20535V4.03232H5.94942L5.99609 3.19323Z" fill="url(#paint1_linear_48_89426)"/>
<path d="M8.14563 3.15384L5.99701 3.29015L5.95459 3.99696L8.14456 4.07269L8.14563 3.15384Z" fill="url(#paint2_linear_48_89426)"/>
<path d="M2.39893 3.29104L3.68428 3.35567L3.62383 3.88073L2.39999 3.94232L2.39893 3.29104Z" fill="url(#paint3_linear_48_89426)"/>
<path d="M13.8916 3.29152L15.4039 3.34907V3.80345L13.8916 3.9438V3.29152Z" fill="url(#paint4_linear_48_89426)"/>
<path d="M10.2935 3.19323L12.668 3.20535V3.87985L10.3401 4.03232L10.2935 3.19323Z" fill="url(#paint5_linear_48_89426)"/>
<path d="M8.14453 3.15384L10.2931 3.29015L10.3356 3.99696L8.14559 4.07269L8.14453 3.15384Z" fill="url(#paint6_linear_48_89426)"/>
<path d="M13.8928 3.29104L12.6074 3.35567L12.6679 3.88073L13.8917 3.94232L13.8928 3.29104Z" fill="url(#paint7_linear_48_89426)"/>
<path d="M8.14042 3.93652L7.11914 8.76303L8.14042 11.4439L9.1617 8.76303L8.14042 3.93652Z" fill="url(#paint8_linear_48_89426)"/>
<path d="M8.14453 3.93661C8.82381 3.56345 9.66053 3.56345 10.3398 3.93661L9.16581 8.76312L8.14453 3.93661Z" fill="url(#paint9_linear_48_89426)"/>
<path d="M12.6677 3.87988L10.3101 8.82756L8.14453 11.4438L9.16581 8.76294L12.6677 3.87988Z" fill="url(#paint10_linear_48_89426)"/>
<path d="M12.6676 3.87707L10.3101 8.82475L13.902 3.87707C13.7187 3.79311 13.5189 3.74635 13.3156 3.73975C13.093 3.75055 12.874 3.79698 12.6676 3.87707Z" fill="url(#paint11_linear_48_89426)"/>
<path d="M15.404 3.80223L10.3135 8.82968L13.9055 3.882C13.9959 3.80564 14.1088 3.75769 14.2289 3.74468C14.388 3.74266 15.404 3.80223 15.404 3.80223Z" fill="url(#paint12_linear_48_89426)"/>
<path d="M12.6898 1.22336L12.1914 0.674066H11.2603L12.6898 1.22336Z" fill="url(#paint13_linear_48_89426)"/>
<path d="M12.6912 1.22314L12.6074 3.41123C13.0282 3.56208 13.495 3.54497 13.9023 3.36377L12.6912 1.22314Z" fill="url(#paint14_linear_48_89426)"/>
<path d="M12.6909 1.22314L15.4048 3.34358C15.4048 3.34358 14.3782 3.44455 14.1767 3.44455C14.0761 3.45525 13.9758 3.42267 13.9031 3.35569L12.6909 1.22314Z" fill="url(#paint15_linear_48_89426)"/>
<path d="M11.2613 0.673828L10.1011 1.63509L12.6071 3.41121L12.6909 1.22312L11.2613 0.673828Z" fill="url(#paint16_linear_48_89426)"/>
<path d="M12.6071 3.4115C12.3245 3.49473 12.0285 3.52893 11.7332 3.51247C11.2478 3.49332 10.7655 3.4294 10.293 3.32164L10.1011 1.63135L12.6071 3.4115Z" fill="url(#paint17_linear_48_89426)"/>
<path d="M10.1012 1.6354L11.2614 0.674136H8.14453L10.1012 1.6354Z" fill="url(#paint18_linear_48_89426)"/>
<path d="M8.14562 0.673828L6.18896 1.63509L8.14562 3.35163L10.1023 1.63509L8.14562 0.673828Z" fill="url(#paint19_linear_48_89426)"/>
<path d="M10.1011 1.63525L10.2931 3.32554C10.2931 3.32554 10.2019 3.51638 9.53479 3.51638C9.06723 3.50638 8.60186 3.45226 8.14551 3.35482L10.1011 1.63525Z" fill="url(#paint20_linear_48_89426)"/>
<path d="M8.14889 3.93661C7.46961 3.56345 6.63289 3.56345 5.95361 3.93661L7.12761 8.76312L8.14889 3.93661Z" fill="url(#paint21_linear_48_89426)"/>
<path d="M3.62256 3.88074C4.38303 3.64974 5.20304 3.6693 5.9504 3.93627L7.1244 8.76278L3.62256 3.88074Z" fill="url(#paint22_linear_48_89426)"/>
<path d="M3.62158 3.87988L5.97912 8.82756L8.1447 11.4418L7.12342 8.76092L3.62158 3.87988Z" fill="url(#paint23_linear_48_89426)"/>
<path d="M3.62068 3.87707L5.97821 8.82475L2.38623 3.87707C2.56963 3.79314 2.76933 3.74638 2.9727 3.73975C3.19526 3.75055 3.41432 3.79698 3.62068 3.87707Z" fill="url(#paint24_linear_48_89426)"/>
<path d="M0.933105 3.80218L5.98012 8.82963L2.38814 3.88195C2.38814 3.88195 1.28732 3.74463 1.12612 3.74463C0.964921 3.74463 0.933105 3.80218 0.933105 3.80218Z" fill="url(#paint25_linear_48_89426)"/>
<path d="M3.6001 1.22336L4.09854 0.674066H5.02968L3.6001 1.22336Z" fill="url(#paint26_linear_48_89426)"/>
<path d="M3.60027 1.22314L3.68406 3.41123C3.26332 3.56208 2.79647 3.54497 2.38916 3.36377L3.60027 1.22314Z" fill="url(#paint27_linear_48_89426)"/>
<path d="M3.59925 1.22314L0.933105 3.34358C0.933105 3.34358 1.91197 3.44455 2.11453 3.44455C2.21508 3.45525 2.31541 3.42267 2.38814 3.35569L3.59925 1.22314Z" fill="url(#paint28_linear_48_89426)"/>
<path d="M5.02773 0.673828L6.18793 1.63509L3.68193 3.41121L3.59814 1.22312L5.02773 0.673828Z" fill="url(#paint29_linear_48_89426)"/>
<path d="M3.68311 3.4115C3.96569 3.49473 4.26168 3.52893 4.55697 3.51247C5.04239 3.49332 5.5247 3.4294 5.99716 3.32164L6.18912 1.63135L3.68311 3.4115Z" fill="url(#paint30_linear_48_89426)"/>
<path d="M6.19245 1.6354L5.02588 0.674136H8.14275L6.19245 1.6354Z" fill="url(#paint31_linear_48_89426)"/>
<path d="M6.18902 1.63525L5.99707 3.32554C5.99707 3.32554 6.08828 3.51638 6.75534 3.51638C7.22291 3.50637 7.68827 3.45225 8.14462 3.35482L6.18902 1.63525Z" fill="url(#paint32_linear_48_89426)"/>
<path d="M12.6679 3.88074C11.9074 3.64974 11.0874 3.6693 10.34 3.93627L9.16602 8.76278L12.6679 3.88074Z" fill="url(#paint33_linear_48_89426)"/>
</g>
<defs>
<linearGradient id="paint0_linear_48_89426" x1="-0.587692" y1="2.84377" x2="0.119878" y2="5.26164" gradientUnits="userSpaceOnUse">
<stop offset="0.023" stop-color="#434860"/>
<stop offset="0.068" stop-color="#3C4057"/>
<stop offset="1" stop-color="#7B95BF"/>
</linearGradient>
<linearGradient id="paint1_linear_48_89426" x1="-4.53392" y1="0.500548" x2="-4.14489" y2="7.62618" gradientUnits="userSpaceOnUse">
<stop offset="0.023" stop-color="#434860"/>
<stop offset="0.068" stop-color="#3C4057"/>
<stop offset="0.474" stop-color="#7B95BF"/>
<stop offset="1" stop-color="#C2CEE2"/>
</linearGradient>
<linearGradient id="paint2_linear_48_89426" x1="0.640179" y1="1.5243" x2="1.06904" y2="6.71151" gradientUnits="userSpaceOnUse">
<stop offset="0.023" stop-color="#434860"/>
<stop offset="0.068" stop-color="#3C4057"/>
<stop offset="0.474" stop-color="#7B95BF"/>
<stop offset="1" stop-color="#C2CEE2"/>
</linearGradient>
<linearGradient id="paint3_linear_48_89426" x1="44.9336" y1="3.26626" x2="45.7847" y2="4.99404" gradientUnits="userSpaceOnUse">
<stop offset="0.402" stop-color="#7B95BF"/>
<stop offset="0.977" stop-color="#434860"/>
</linearGradient>
<linearGradient id="paint4_linear_48_89426" x1="45.7349" y1="2.72742" x2="46.4097" y2="5.34659" gradientUnits="userSpaceOnUse">
<stop offset="0.023" stop-color="#434860"/>
<stop offset="0.068" stop-color="#3C4057"/>
<stop offset="1" stop-color="#7B95BF"/>
</linearGradient>
<linearGradient id="paint5_linear_48_89426" x1="42.0581" y1="0.156338" x2="42.4472" y2="7.28197" gradientUnits="userSpaceOnUse">
<stop offset="0.023" stop-color="#434860"/>
<stop offset="0.068" stop-color="#3C4057"/>
<stop offset="0.474" stop-color="#7B95BF"/>
<stop offset="1" stop-color="#C2CEE2"/>
</linearGradient>
<linearGradient id="paint6_linear_48_89426" x1="52.3547" y1="3.95004" x2="54.3466" y2="4.66954" gradientUnits="userSpaceOnUse">
<stop offset="0.094" stop-color="#C7D3E6"/>
<stop offset="0.708" stop-color="#7B95BF"/>
<stop offset="1" stop-color="#3C4057"/>
</linearGradient>
<linearGradient id="paint7_linear_48_89426" x1="-1.64341" y1="3.26676" x2="-0.791303" y2="4.99485" gradientUnits="userSpaceOnUse">
<stop offset="0.251" stop-color="#7B95BF"/>
<stop offset="0.977" stop-color="#434860"/>
</linearGradient>
<linearGradient id="paint8_linear_48_89426" x1="7.11914" y1="11.4439" x2="9.1617" y2="11.4439" gradientUnits="userSpaceOnUse">
<stop offset="0.015" stop-color="#3C4057"/>
<stop offset="0.166" stop-color="#7B95BF"/>
<stop offset="0.407" stop-color="white"/>
<stop offset="0.612" stop-color="white"/>
<stop offset="0.849" stop-color="#7B95BF"/>
<stop offset="1" stop-color="#3C4057"/>
</linearGradient>
<linearGradient id="paint9_linear_48_89426" x1="2.43413" y1="21.4337" x2="15.537" y2="21.4403" gradientUnits="userSpaceOnUse">
<stop offset="0.43" stop-color="#E5EAF2"/>
<stop offset="0.708" stop-color="#7B95BF"/>
<stop offset="1" stop-color="#3C4057"/>
</linearGradient>
<linearGradient id="paint10_linear_48_89426" x1="8.93578" y1="9.71407" x2="11.6902" y2="9.88841" gradientUnits="userSpaceOnUse">
<stop offset="0.023" stop-color="#434860"/>
<stop offset="0.068" stop-color="#3C4057"/>
<stop offset="0.474" stop-color="#7B95BF"/>
<stop offset="1" stop-color="#C2CEE2"/>
</linearGradient>
<linearGradient id="paint11_linear_48_89426" x1="10.37" y1="7.41207" x2="12.4499" y2="7.66965" gradientUnits="userSpaceOnUse">
<stop offset="0.023" stop-color="#434860"/>
<stop offset="0.068" stop-color="#3C4057"/>
<stop offset="0.474" stop-color="#7B95BF"/>
<stop offset="1" stop-color="#C2CEE2"/>
</linearGradient>
<linearGradient id="paint12_linear_48_89426" x1="10.3135" y1="8.82968" x2="15.404" y2="8.82968" gradientUnits="userSpaceOnUse">
<stop offset="0.14" stop-color="#E6EBF3"/>
<stop offset="0.626" stop-color="#7B95BF"/>
<stop offset="1" stop-color="#3C4057"/>
</linearGradient>
<linearGradient id="paint13_linear_48_89426" x1="11.2603" y1="1.45358" x2="12.6898" y2="1.45358" gradientUnits="userSpaceOnUse">
<stop offset="0.3" stop-color="white"/>
<stop offset="0.626" stop-color="#7B95BF"/>
<stop offset="1" stop-color="#3C4057"/>
</linearGradient>
<linearGradient id="paint14_linear_48_89426" x1="12.6074" y1="3.5132" x2="13.9023" y2="3.5132" gradientUnits="userSpaceOnUse">
<stop stop-color="#C2CEE2"/>
<stop offset="0.626" stop-color="#7B95BF"/>
<stop offset="1" stop-color="#3C4057"/>
</linearGradient>
<linearGradient id="paint15_linear_48_89426" x1="12.6909" y1="3.44655" x2="15.4048" y2="3.44655" gradientUnits="userSpaceOnUse">
<stop offset="0.14" stop-color="#E6EBF3"/>
<stop offset="0.626" stop-color="#7B95BF"/>
<stop offset="1" stop-color="#3C4057"/>
</linearGradient>
<linearGradient id="paint16_linear_48_89426" x1="10.1011" y1="3.41121" x2="12.6909" y2="3.41121" gradientUnits="userSpaceOnUse">
<stop offset="0.005" stop-color="#A1B4D2"/>
<stop offset="0.3" stop-color="white"/>
<stop offset="1" stop-color="#7B95BF"/>
</linearGradient>
<linearGradient id="paint17_linear_48_89426" x1="11.4557" y1="4.32413" x2="12.261" y2="2.43372" gradientUnits="userSpaceOnUse">
<stop stop-color="#3C4057"/>
<stop offset="0.374" stop-color="#7B95BF"/>
<stop offset="0.7" stop-color="white"/>
</linearGradient>
<linearGradient id="paint18_linear_48_89426" x1="8.14453" y1="1.65963" x2="11.2614" y2="1.65963" gradientUnits="userSpaceOnUse">
<stop offset="0.005" stop-color="#A1B4D2"/>
<stop offset="0.3" stop-color="white"/>
<stop offset="1" stop-color="#7B95BF"/>
</linearGradient>
<linearGradient id="paint19_linear_48_89426" x1="6.18896" y1="3.35163" x2="10.1023" y2="3.35163" gradientUnits="userSpaceOnUse">
<stop offset="0.015" stop-color="#3C4057"/>
<stop offset="0.166" stop-color="#7B95BF"/>
<stop offset="0.407" stop-color="white"/>
<stop offset="0.612" stop-color="white"/>
<stop offset="0.849" stop-color="#7B95BF"/>
<stop offset="1" stop-color="#3C4057"/>
</linearGradient>
<linearGradient id="paint20_linear_48_89426" x1="8.14551" y1="3.51638" x2="10.2931" y2="3.51638" gradientUnits="userSpaceOnUse">
<stop offset="0.297" stop-color="#E5EAF2"/>
<stop offset="0.626" stop-color="#7B95BF"/>
<stop offset="1" stop-color="#3C4057"/>
</linearGradient>
<linearGradient id="paint21_linear_48_89426" x1="291.23" y1="21.4337" x2="304.333" y2="21.4403" gradientUnits="userSpaceOnUse">
<stop offset="0.43" stop-color="#E5EAF2"/>
<stop offset="0.708" stop-color="#7B95BF"/>
<stop offset="1" stop-color="#3C4057"/>
</linearGradient>
<linearGradient id="paint22_linear_48_89426" x1="120.745" y1="8.32636" x2="124.733" y2="8.7876" gradientUnits="userSpaceOnUse">
<stop offset="0.023" stop-color="#434860"/>
<stop offset="0.068" stop-color="#3C4057"/>
<stop offset="0.474" stop-color="#7B95BF"/>
<stop offset="1" stop-color="#C2CEE2"/>
</linearGradient>
<linearGradient id="paint23_linear_48_89426" x1="161.933" y1="9.71129" x2="164.686" y2="9.88568" gradientUnits="userSpaceOnUse">
<stop offset="0.023" stop-color="#434860"/>
<stop offset="0.068" stop-color="#3C4057"/>
<stop offset="0.474" stop-color="#7B95BF"/>
<stop offset="1" stop-color="#C2CEE2"/>
</linearGradient>
<linearGradient id="paint24_linear_48_89426" x1="122.895" y1="7.41207" x2="124.975" y2="7.66965" gradientUnits="userSpaceOnUse">
<stop offset="0.023" stop-color="#434860"/>
<stop offset="0.068" stop-color="#3C4057"/>
<stop offset="0.474" stop-color="#7B95BF"/>
<stop offset="1" stop-color="#C2CEE2"/>
</linearGradient>
<linearGradient id="paint25_linear_48_89426" x1="56.8742" y1="8.82963" x2="61.9212" y2="8.82963" gradientUnits="userSpaceOnUse">
<stop offset="0.14" stop-color="#E6EBF3"/>
<stop offset="0.626" stop-color="#7B95BF"/>
<stop offset="1" stop-color="#3C4057"/>
</linearGradient>
<linearGradient id="paint26_linear_48_89426" x1="57.8384" y1="1.45358" x2="59.268" y2="1.45358" gradientUnits="userSpaceOnUse">
<stop offset="0.3" stop-color="white"/>
<stop offset="0.626" stop-color="#7B95BF"/>
<stop offset="1" stop-color="#3C4057"/>
</linearGradient>
<linearGradient id="paint27_linear_48_89426" x1="59.1574" y1="3.5132" x2="60.4523" y2="3.5132" gradientUnits="userSpaceOnUse">
<stop stop-color="#C2CEE2"/>
<stop offset="0.626" stop-color="#7B95BF"/>
<stop offset="1" stop-color="#3C4057"/>
</linearGradient>
<linearGradient id="paint28_linear_48_89426" x1="59.2444" y1="3.44655" x2="61.9106" y2="3.44655" gradientUnits="userSpaceOnUse">
<stop offset="0.14" stop-color="#E6EBF3"/>
<stop offset="0.626" stop-color="#7B95BF"/>
<stop offset="1" stop-color="#3C4057"/>
</linearGradient>
<linearGradient id="paint29_linear_48_89426" x1="56.6681" y1="2.04252" x2="59.2579" y2="2.04252" gradientUnits="userSpaceOnUse">
<stop offset="0.005" stop-color="#A1B4D2"/>
<stop offset="0.3" stop-color="white"/>
<stop offset="1" stop-color="#7B95BF"/>
</linearGradient>
<linearGradient id="paint30_linear_48_89426" x1="58.0198" y1="4.32413" x2="58.825" y2="2.43371" gradientUnits="userSpaceOnUse">
<stop stop-color="#3C4057"/>
<stop offset="0.374" stop-color="#7B95BF"/>
<stop offset="0.7" stop-color="white"/>
</linearGradient>
<linearGradient id="paint31_linear_48_89426" x1="54.7088" y1="1.15477" x2="57.8256" y2="1.15477" gradientUnits="userSpaceOnUse">
<stop offset="0.005" stop-color="#A1B4D2"/>
<stop offset="0.3" stop-color="white"/>
<stop offset="1" stop-color="#7B95BF"/>
</linearGradient>
<linearGradient id="paint32_linear_48_89426" x1="54.6929" y1="3.51638" x2="56.8404" y2="3.51638" gradientUnits="userSpaceOnUse">
<stop offset="0.297" stop-color="#E5EAF2"/>
<stop offset="0.626" stop-color="#7B95BF"/>
<stop offset="1" stop-color="#3C4057"/>
</linearGradient>
<linearGradient id="paint33_linear_48_89426" x1="7.12184" y1="8.32636" x2="11.1097" y2="8.7876" gradientUnits="userSpaceOnUse">
<stop offset="0.023" stop-color="#434860"/>
<stop offset="0.068" stop-color="#3C4057"/>
<stop offset="0.474" stop-color="#7B95BF"/>
<stop offset="1" stop-color="#C2CEE2"/>
</linearGradient>
</defs>
</svg>
