<svg width="24" height="24" viewBox="0 0 24 24" fill="none" xmlns="http://www.w3.org/2000/svg">
<g clip-path="url(#clip0_349_217712)">
<path d="M19.8397 7.1061H18.1364C18.6905 6.61766 19.1304 6.01328 19.4247 5.33582C19.7191 4.65836 19.8608 3.92444 19.8397 3.18609C19.8397 2.92618 19.7364 2.67692 19.5527 2.49313C19.3689 2.30934 19.1196 2.20609 18.8597 2.20609C18.5998 2.20609 18.3505 2.30934 18.1667 2.49313C17.9829 2.67692 17.8797 2.92618 17.8797 3.18609C17.8797 5.75566 15.5561 6.6455 13.7892 6.95028C14.4413 5.79393 14.8339 4.50946 14.9397 3.18609C14.9397 2.40636 14.6299 1.65856 14.0786 1.1072C13.5272 0.555843 12.7794 0.246094 11.9997 0.246094C11.22 0.246094 10.4722 0.555843 9.92079 1.1072C9.36944 1.65856 9.05969 2.40636 9.05969 3.18609C9.16544 4.50946 9.55803 5.79393 10.2102 6.95028C8.44327 6.6455 6.11969 5.75566 6.11969 3.18609C6.11969 2.92618 6.01644 2.67692 5.83265 2.49313C5.64887 2.30934 5.3996 2.20609 5.13969 2.20609C4.87977 2.20609 4.63051 2.30934 4.44672 2.49313C4.26294 2.67692 4.15969 2.92618 4.15969 3.18609C4.13863 3.92444 4.2803 4.65836 4.57465 5.33582C4.86901 6.01328 5.30883 6.61766 5.86293 7.1061H4.15969C3.12004 7.1061 2.12297 7.51909 1.38783 8.25424C0.652684 8.98938 0.239685 9.98645 0.239685 11.0261L0.239685 12.0061C0.239685 12.5259 0.446185 13.0245 0.813756 13.392C1.18133 13.7596 1.67986 13.9661 2.19969 13.9661V18.8661C2.20124 20.1652 2.71799 21.4106 3.63658 22.3292C4.55517 23.2478 5.8006 23.7645 7.09969 23.7661H16.8997C18.1988 23.7645 19.4442 23.2478 20.3628 22.3292C21.2814 21.4106 21.7981 20.1652 21.7997 18.8661V13.9661C22.3195 13.9661 22.818 13.7596 23.1856 13.392C23.5532 13.0245 23.7597 12.5259 23.7597 12.0061V11.0261C23.7597 9.98645 23.3467 8.98938 22.6115 8.25424C21.8764 7.51909 20.8793 7.1061 19.8397 7.1061ZM11.9997 2.20609C12.2596 2.20609 12.5089 2.30934 12.6927 2.49313C12.8764 2.67692 12.9797 2.92618 12.9797 3.18609C12.8614 4.22767 12.5276 5.23323 11.9997 6.13884C11.4717 5.23323 11.138 4.22767 11.0197 3.18609C11.0197 2.92618 11.1229 2.67692 11.3067 2.49313C11.4905 2.30934 11.7398 2.20609 11.9997 2.20609ZM2.19969 11.0261C2.19969 10.5063 2.40618 10.0077 2.77376 9.64017C3.14133 9.2726 3.63986 9.0661 4.15969 9.0661H11.0197V12.0061H2.19969V11.0261ZM4.15969 18.8661V13.9661H11.0197V21.8061H7.09969C6.31995 21.8061 5.57215 21.4964 5.02079 20.945C4.46944 20.3936 4.15969 19.6458 4.15969 18.8661ZM19.8397 18.8661C19.8397 19.6458 19.5299 20.3936 18.9786 20.945C18.4272 21.4964 17.6794 21.8061 16.8997 21.8061H12.9797V13.9661H19.8397V18.8661ZM12.9797 12.0061V9.0661H19.8397C20.3595 9.0661 20.858 9.2726 21.2256 9.64017C21.5932 10.0077 21.7997 10.5063 21.7997 11.0261V12.0061H12.9797Z" fill="white"/>
</g>
<defs>
<clipPath id="clip0_349_217712">
<rect width="23.52" height="23.52" fill="white" transform="translate(0.255615 0.241211)"/>
</clipPath>
</defs>
</svg>
