<svg width="16" height="12" viewBox="0 0 16 12" fill="none" xmlns="http://www.w3.org/2000/svg">
<path d="M15.8787 0.628418H0.926948C0.902832 0.628418 0.902832 0.628416 0.902832 0.64613V11.6107C0.902832 11.6284 0.902832 11.6284 0.926948 11.6284H15.8787C15.9028 11.6284 15.9028 11.6284 15.9028 11.6107V0.663844C15.9028 0.646131 15.8787 0.628418 15.8787 0.628418Z" fill="url(#paint0_linear_17_104843)"/>
<path opacity="0.3" d="M15.7821 0.681641L10.9107 2.39984L8.42676 0.681641H15.7821Z" fill="url(#paint1_linear_17_104843)"/>
<path opacity="0.6" d="M6.83515 2.71876L5.94287 2.41763L8.37856 0.734863V1.58511L6.83515 2.71876Z" fill="url(#paint2_linear_17_104843)"/>
<path d="M8.37897 1.67334V3.30297L6.88379 2.77157L8.37897 1.67334Z" fill="url(#paint3_linear_17_104843)"/>
<path opacity="0.4" d="M6.78693 2.7539L6.01522 3.32073H4.64062L5.89464 2.43506L6.78693 2.7539Z" fill="url(#paint4_linear_17_104843)"/>
<path opacity="0.6" d="M5.96718 3.35645L4.6167 4.34839V3.35645H5.96718Z" fill="url(#paint5_linear_17_104843)"/>
<path d="M4.56837 3.30317L1.0957 0.752441L5.84651 2.4175L4.56837 3.30317Z" fill="url(#paint6_linear_17_104843)"/>
<path d="M4.6167 7.92627L5.96718 8.93593H4.6167V7.92627Z" fill="#982CE5"/>
<path opacity="0.3" d="M4.52011 6.15479L3.79664 7.28844L2.27734 6.15479H4.52011Z" fill="url(#paint7_linear_17_104843)"/>
<path opacity="0.6" d="M2.27734 6.11985L3.79664 5.00391L4.52011 6.11985H2.27734Z" fill="url(#paint8_linear_17_104843)"/>
<path opacity="0.5" d="M3.79669 7.3418L4.54428 7.89091V8.90057L3.38672 7.99719L3.79669 7.3418Z" fill="url(#paint9_linear_17_104843)"/>
<path opacity="0.6" d="M3.8208 7.30624L4.54427 6.20801V7.83764L3.8208 7.30624Z" fill="url(#paint10_linear_17_104843)"/>
<path d="M3.8208 4.96841L4.54427 4.43701V6.06664L3.8208 4.96841Z" fill="url(#paint11_linear_17_104843)"/>
<path opacity="0.5" d="M3.79669 4.9328L3.38672 4.29512L4.54428 3.37402V4.38368L3.79669 4.9328Z" fill="url(#paint12_linear_17_104843)"/>
<path opacity="0.9" d="M4.54415 3.32074L3.36248 4.25955L1.04736 0.77002L4.54415 3.32074Z" fill="url(#paint13_linear_17_104843)"/>
<path opacity="0.8" d="M3.77263 4.96838L2.18099 6.11975H1.02344L3.33855 4.31299L3.77263 4.96838Z" fill="url(#paint14_linear_17_104843)"/>
<path d="M2.18099 6.15479L3.77263 7.32387L3.33855 7.96155L1.02344 6.15479H2.18099Z" fill="url(#paint15_linear_17_104843)"/>
<path opacity="0.5" d="M3.36277 8.03271L4.54445 8.95381L1.07178 11.5045L3.36277 8.03271Z" fill="url(#paint16_linear_17_104843)"/>
<path opacity="0.8" d="M4.56837 8.97168L5.84651 9.85735L1.0957 11.5401L4.56837 8.97168Z" fill="url(#paint17_linear_17_104843)"/>
<path opacity="0.7" d="M4.64062 8.97168H6.01522L6.78693 9.53851L5.89464 9.83964L4.64062 8.97168Z" fill="url(#paint18_linear_17_104843)"/>
<path d="M6.08789 8.97168H8.37889L6.83548 9.52079L6.08789 8.97168Z" fill="url(#paint19_linear_17_104843)"/>
<path d="M6.03953 8.93616L4.6167 7.87335V4.40154L6.03953 3.35645H10.7662L12.2132 4.40154V7.87335L10.7662 8.93616H6.03953Z" fill="url(#paint20_linear_17_104843)"/>
<path d="M10.308 3.35645H7.92056L4.6167 5.78318V7.57223C6.52184 6.15516 8.42699 4.7558 10.308 3.35645Z" fill="url(#paint21_linear_17_104843)"/>
<path d="M11.8029 4.1003L10.983 3.49805C8.93317 5.0214 6.88334 6.52703 4.8335 8.03267L5.62932 8.61721L11.8029 4.1003Z" fill="url(#paint22_linear_17_104843)"/>
<path d="M12.2129 6.22579V4.47217L6.13574 8.93594H8.5232C9.75311 8.03255 10.983 7.12917 12.2129 6.22579Z" fill="url(#paint23_linear_17_104843)"/>
<path d="M8.42676 1.58511V0.734863L10.8624 2.41763L9.99428 2.71876L8.42676 1.58511Z" fill="url(#paint24_linear_17_104843)"/>
<path d="M9.94605 2.73641L8.42676 3.26781V1.63818L9.94605 2.73641Z" fill="url(#paint25_linear_17_104843)"/>
<path opacity="0.6" d="M10.9108 2.43506L12.1649 3.32073H10.7903L10.0186 2.7539L10.9108 2.43506Z" fill="url(#paint26_linear_17_104843)"/>
<path d="M12.213 3.35645V4.34839L10.8384 3.35645H12.213Z" fill="url(#paint27_linear_17_104843)"/>
<path d="M12.213 7.92627V8.93593H10.8384L12.213 7.92627Z" fill="#982CE5"/>
<path d="M8.42676 9.00684L9.94605 9.53824L8.42676 10.6542V9.00684Z" fill="url(#paint28_linear_17_104843)"/>
<path d="M8.42676 8.97168H10.7178L9.97017 9.52079L8.42676 8.97168Z" fill="#982CE5"/>
<path d="M10.7903 8.97168H12.1649L10.9108 9.83964L10.0186 9.53851L10.7903 8.97168Z" fill="url(#paint29_linear_17_104843)"/>
<path opacity="0.6" d="M12.2371 8.97168L15.7339 11.5401L10.959 9.85735L12.2371 8.97168Z" fill="url(#paint30_linear_17_104843)"/>
<path opacity="0.6" d="M12.3096 6.11971L13.033 5.02148L14.5523 6.11971H12.3096Z" fill="url(#paint31_linear_17_104843)"/>
<path opacity="0.4" d="M14.5523 6.15479L13.033 7.27073L12.3096 6.15479H14.5523Z" fill="url(#paint32_linear_17_104843)"/>
<path opacity="0.4" d="M13.0329 4.95051L12.2612 4.38368V3.37402L13.4429 4.31283L13.0329 4.95051Z" fill="url(#paint33_linear_17_104843)"/>
<path d="M13.0088 4.98612L12.2612 6.11978V4.43701L13.0088 4.98612Z" fill="url(#paint34_linear_17_104843)"/>
<path d="M12.9847 7.28879L12.2612 7.83791V6.17285L12.9847 7.28879Z" fill="url(#paint35_linear_17_104843)"/>
<path opacity="0.6" d="M13.0088 7.3418L13.4429 7.97948L12.2612 8.90057V7.89091L13.0088 7.3418Z" fill="url(#paint36_linear_17_104843)"/>
<path d="M12.2612 8.95395L13.467 8.01514L15.7821 11.5224L12.2612 8.95395Z" fill="url(#paint37_linear_17_104843)"/>
<path opacity="0.4" d="M13.0571 7.30615L14.6247 6.15479H15.7822L13.4912 7.94384L13.0571 7.30615Z" fill="#7C19CE"/>
<path d="M14.6247 6.11962L13.0571 4.98596L13.4912 4.33057L15.7822 6.11962H14.6247Z" fill="url(#paint38_linear_17_104843)"/>
<path d="M13.467 4.25991L12.2612 3.33881L15.7339 0.788086L13.467 4.25991Z" fill="url(#paint39_linear_17_104843)"/>
<path d="M12.2371 3.3033L10.959 2.41763L15.758 0.734863L12.2371 3.3033Z" fill="url(#paint40_linear_17_104843)"/>
<path d="M9.97017 2.77197L10.7178 3.32109H8.42676L9.97017 2.77197Z" fill="url(#paint41_linear_17_104843)"/>
<path d="M6.08789 3.32109L6.83548 2.77197L8.37889 3.32109H6.08789Z" fill="url(#paint42_linear_17_104843)"/>
<path d="M8.37874 0.681641L5.89482 2.39984L1.02344 0.681641H8.37874Z" fill="url(#paint43_linear_17_104843)"/>
<path opacity="0.4" d="M0.951172 0.716797L3.31452 4.27718L0.951172 6.11937V0.716797Z" fill="url(#paint44_linear_17_104843)"/>
<path opacity="0.3" d="M0.951172 6.17285L3.31452 7.99733L0.951172 11.5754V6.17285Z" fill="url(#paint45_linear_17_104843)"/>
<path opacity="0.5" d="M1.02344 11.6108L5.89482 9.89258L8.37874 11.6108H1.02344Z" fill="url(#paint46_linear_17_104843)"/>
<path opacity="0.7" d="M8.37856 11.5578L5.94287 9.87499L6.81104 9.55615L8.37856 10.7075V11.5578Z" fill="url(#paint47_linear_17_104843)"/>
<path d="M8.37867 9.00684V10.6542L6.85938 9.53824L8.37867 9.00684Z" fill="#982CE5"/>
<path opacity="0.4" d="M8.42676 10.7075L9.99428 9.55615L10.8624 9.87499L8.42676 11.5578V10.7075Z" fill="url(#paint48_linear_17_104843)"/>
<path d="M8.42676 11.6108L10.9107 9.89258L15.7821 11.6108H8.42676Z" fill="url(#paint49_linear_17_104843)"/>
<path opacity="0.5" d="M15.8544 11.5577L13.5151 7.97961L15.8544 6.17285V11.5577Z" fill="url(#paint50_linear_17_104843)"/>
<path d="M15.8544 6.11937L13.5151 4.2949L15.8544 0.716797V6.11937Z" fill="url(#paint51_linear_17_104843)"/>
<defs>
<linearGradient id="paint0_linear_17_104843" x1="0.909054" y1="6.14209" x2="15.901" y2="6.14209" gradientUnits="userSpaceOnUse">
<stop stop-color="#B753FF"/>
<stop offset="1" stop-color="#A036FF"/>
</linearGradient>
<linearGradient id="paint1_linear_17_104843" x1="6.76149" y1="2.97184" x2="9.80224" y2="0.550451" gradientUnits="userSpaceOnUse">
<stop stop-color="#A036FF"/>
<stop offset="1" stop-color="#3B0073"/>
</linearGradient>
<linearGradient id="paint2_linear_17_104843" x1="6.93567" y1="1.23282" x2="8.21761" y2="4.80784" gradientUnits="userSpaceOnUse">
<stop stop-color="#FCCFFF"/>
<stop offset="1" stop-color="#B65BFF"/>
</linearGradient>
<linearGradient id="paint3_linear_17_104843" x1="7.34787" y1="1.80504" x2="8.57791" y2="5.23873" gradientUnits="userSpaceOnUse">
<stop stop-color="#FCCFFF"/>
<stop offset="1" stop-color="#B65BFF"/>
</linearGradient>
<linearGradient id="paint4_linear_17_104843" x1="5.39726" y1="2.7663" x2="6.46884" y2="4.46435" gradientUnits="userSpaceOnUse">
<stop stop-color="#FCCFFF"/>
<stop offset="1" stop-color="#B65BFF"/>
</linearGradient>
<linearGradient id="paint5_linear_17_104843" x1="4.69746" y1="3.45274" x2="8.31016" y2="7.98695" gradientUnits="userSpaceOnUse">
<stop stop-color="#FCCFFF"/>
<stop offset="1" stop-color="#B65BFF"/>
</linearGradient>
<linearGradient id="paint6_linear_17_104843" x1="1.09023" y1="2.02226" x2="5.84979" y2="2.02226" gradientUnits="userSpaceOnUse">
<stop stop-color="#FCCFFF"/>
<stop offset="1" stop-color="#B65BFF"/>
</linearGradient>
<linearGradient id="paint7_linear_17_104843" x1="2.8118" y1="5.09386" x2="4.26197" y2="9.98857" gradientUnits="userSpaceOnUse">
<stop stop-color="#B753FF"/>
<stop offset="1" stop-color="#A036FF"/>
</linearGradient>
<linearGradient id="paint8_linear_17_104843" x1="0.107891" y1="2.48935" x2="1.60565" y2="5.41207" gradientUnits="userSpaceOnUse">
<stop stop-color="#B753FF"/>
<stop offset="1" stop-color="#8110E8"/>
</linearGradient>
<linearGradient id="paint9_linear_17_104843" x1="-0.836794" y1="6.65629" x2="2.16535" y2="8.2848" gradientUnits="userSpaceOnUse">
<stop stop-color="#A036FF"/>
<stop offset="1" stop-color="#3B0073"/>
</linearGradient>
<linearGradient id="paint10_linear_17_104843" x1="4.7134" y1="7.0253" x2="10.7908" y2="6.95396" gradientUnits="userSpaceOnUse">
<stop stop-color="#FCCFFF"/>
<stop offset="1" stop-color="#B65BFF"/>
</linearGradient>
<linearGradient id="paint11_linear_17_104843" x1="3.82893" y1="5.25877" x2="4.55428" y2="5.25877" gradientUnits="userSpaceOnUse">
<stop stop-color="#B753FF"/>
<stop offset="1" stop-color="#A036FF"/>
</linearGradient>
<linearGradient id="paint12_linear_17_104843" x1="-0.533828" y1="0.568615" x2="1.50123" y2="3.4382" gradientUnits="userSpaceOnUse">
<stop stop-color="#A036FF"/>
<stop offset="1" stop-color="#3B0073"/>
</linearGradient>
<linearGradient id="paint13_linear_17_104843" x1="4.90441" y1="-0.499958" x2="3.62966" y2="2.35593" gradientUnits="userSpaceOnUse">
<stop stop-color="#B753FF"/>
<stop offset="1" stop-color="#A036FF"/>
</linearGradient>
<linearGradient id="paint14_linear_17_104843" x1="2.08542" y1="5.13283" x2="3.97155" y2="8.40099" gradientUnits="userSpaceOnUse">
<stop stop-color="#B753FF"/>
<stop offset="1" stop-color="#A036FF"/>
</linearGradient>
<linearGradient id="paint15_linear_17_104843" x1="-2.85358" y1="5.58468" x2="0.418403" y2="7.17792" gradientUnits="userSpaceOnUse">
<stop stop-color="#B753FF"/>
<stop offset="1" stop-color="#A036FF"/>
</linearGradient>
<linearGradient id="paint16_linear_17_104843" x1="2.9672" y1="8.41864" x2="2.68396" y2="14.1642" gradientUnits="userSpaceOnUse">
<stop stop-color="#D691FF"/>
<stop offset="0.00201261" stop-color="#D691FF"/>
<stop offset="0.6576" stop-color="#BF6AFF"/>
<stop offset="1" stop-color="#B65BFF"/>
</linearGradient>
<linearGradient id="paint17_linear_17_104843" x1="0.5251" y1="5.9092" x2="1.52136" y2="8.91401" gradientUnits="userSpaceOnUse">
<stop stop-color="#A036FF"/>
<stop offset="1" stop-color="#3B0073"/>
</linearGradient>
<linearGradient id="paint18_linear_17_104843" x1="5.88432" y1="7.22027" x2="5.83713" y2="8.26103" gradientUnits="userSpaceOnUse">
<stop stop-color="#A036FF"/>
<stop offset="1" stop-color="#3B0073"/>
</linearGradient>
<linearGradient id="paint19_linear_17_104843" x1="7.72952" y1="8.41029" x2="9.14996" y2="5.45002" gradientUnits="userSpaceOnUse">
<stop stop-color="#B753FF"/>
<stop offset="1" stop-color="#A036FF"/>
</linearGradient>
<linearGradient id="paint20_linear_17_104843" x1="5.40427" y1="3.3154" x2="14.6106" y2="19.3906" gradientUnits="userSpaceOnUse">
<stop stop-color="#FDDBFF"/>
<stop offset="1" stop-color="#B65BFF"/>
</linearGradient>
<linearGradient id="paint21_linear_17_104843" x1="5.26884" y1="3.39288" x2="14.4755" y2="19.4686" gradientUnits="userSpaceOnUse">
<stop stop-color="#FDDBFF"/>
<stop offset="1" stop-color="#B65BFF"/>
</linearGradient>
<linearGradient id="paint22_linear_17_104843" x1="5.39206" y1="3.32221" x2="14.5982" y2="19.397" gradientUnits="userSpaceOnUse">
<stop stop-color="#FDDBFF"/>
<stop offset="1" stop-color="#B65BFF"/>
</linearGradient>
<linearGradient id="paint23_linear_17_104843" x1="5.50757" y1="3.25588" x2="14.7139" y2="19.331" gradientUnits="userSpaceOnUse">
<stop stop-color="#FDDBFF"/>
<stop offset="1" stop-color="#B65BFF"/>
</linearGradient>
<linearGradient id="paint24_linear_17_104843" x1="9.02302" y1="1.69801" x2="13.0812" y2="2.80299" gradientUnits="userSpaceOnUse">
<stop stop-color="#FCCFFF"/>
<stop offset="1" stop-color="#B65BFF"/>
</linearGradient>
<linearGradient id="paint25_linear_17_104843" x1="8.43103" y1="2.4508" x2="9.9345" y2="2.4508" gradientUnits="userSpaceOnUse">
<stop stop-color="#B753FF"/>
<stop offset="1" stop-color="#A036FF"/>
</linearGradient>
<linearGradient id="paint26_linear_17_104843" x1="11.535" y1="0.71649" x2="11.3353" y2="2.65768" gradientUnits="userSpaceOnUse">
<stop stop-color="#B753FF"/>
<stop offset="1" stop-color="#8110E8"/>
</linearGradient>
<linearGradient id="paint27_linear_17_104843" x1="11.7775" y1="3.7683" x2="16.2161" y2="1.08026" gradientUnits="userSpaceOnUse">
<stop stop-color="#B753FF"/>
<stop offset="1" stop-color="#A036FF"/>
</linearGradient>
<linearGradient id="paint28_linear_17_104843" x1="7.79138" y1="9.10088" x2="10.1357" y2="12.2086" gradientUnits="userSpaceOnUse">
<stop stop-color="#B753FF"/>
<stop offset="1" stop-color="#A036FF"/>
</linearGradient>
<linearGradient id="paint29_linear_17_104843" x1="10.5254" y1="7.64737" x2="11.3918" y2="12.1669" gradientUnits="userSpaceOnUse">
<stop stop-color="#B753FF"/>
<stop offset="1" stop-color="#A036FF"/>
</linearGradient>
<linearGradient id="paint30_linear_17_104843" x1="11.2992" y1="3.60086" x2="12.0296" y2="8.31121" gradientUnits="userSpaceOnUse">
<stop stop-color="#A036FF"/>
<stop offset="1" stop-color="#3B0073"/>
</linearGradient>
<linearGradient id="paint31_linear_17_104843" x1="12.4825" y1="4.72675" x2="13.727" y2="8.12957" gradientUnits="userSpaceOnUse">
<stop stop-color="#FCCFFF"/>
<stop offset="1" stop-color="#B65BFF"/>
</linearGradient>
<linearGradient id="paint32_linear_17_104843" x1="13.6488" y1="6.67352" x2="19.4131" y2="6.22305" gradientUnits="userSpaceOnUse">
<stop stop-color="#CD70FF"/>
<stop offset="1" stop-color="#B73EFF"/>
</linearGradient>
<linearGradient id="paint33_linear_17_104843" x1="9.60418" y1="2.34268" x2="11.894" y2="4.89333" gradientUnits="userSpaceOnUse">
<stop stop-color="#A036FF"/>
<stop offset="1" stop-color="#3B0073"/>
</linearGradient>
<linearGradient id="paint34_linear_17_104843" x1="12.2556" y1="5.28394" x2="12.9988" y2="5.28394" gradientUnits="userSpaceOnUse">
<stop stop-color="#B753FF"/>
<stop offset="1" stop-color="#A036FF"/>
</linearGradient>
<linearGradient id="paint35_linear_17_104843" x1="12.2556" y1="7.00534" x2="12.9965" y2="7.00534" gradientUnits="userSpaceOnUse">
<stop stop-color="#B753FF"/>
<stop offset="1" stop-color="#A036FF"/>
</linearGradient>
<linearGradient id="paint36_linear_17_104843" x1="8.2132" y1="5.58261" x2="10.0149" y2="7.49649" gradientUnits="userSpaceOnUse">
<stop stop-color="#A036FF"/>
<stop offset="1" stop-color="#3B0073"/>
</linearGradient>
<linearGradient id="paint37_linear_17_104843" x1="12.6928" y1="7.14458" x2="13.7742" y2="11.8157" gradientUnits="userSpaceOnUse">
<stop stop-color="#B753FF"/>
<stop offset="1" stop-color="#A036FF"/>
</linearGradient>
<linearGradient id="paint38_linear_17_104843" x1="13.0623" y1="5.22924" x2="15.7859" y2="5.22924" gradientUnits="userSpaceOnUse">
<stop stop-color="#CD70FF"/>
<stop offset="1" stop-color="#B73EFF"/>
</linearGradient>
<linearGradient id="paint39_linear_17_104843" x1="12.2625" y1="2.53255" x2="15.7418" y2="2.53255" gradientUnits="userSpaceOnUse">
<stop stop-color="#B753FF"/>
<stop offset="1" stop-color="#A036FF"/>
</linearGradient>
<linearGradient id="paint40_linear_17_104843" x1="10.9518" y1="2.01508" x2="15.7633" y2="2.01508" gradientUnits="userSpaceOnUse">
<stop stop-color="#B753FF"/>
<stop offset="1" stop-color="#A036FF"/>
</linearGradient>
<linearGradient id="paint41_linear_17_104843" x1="8.4222" y1="3.04045" x2="10.7184" y2="3.04045" gradientUnits="userSpaceOnUse">
<stop stop-color="#CD70FF"/>
<stop offset="1" stop-color="#B73EFF"/>
</linearGradient>
<linearGradient id="paint42_linear_17_104843" x1="6.09165" y1="3.04106" x2="8.38311" y2="3.04106" gradientUnits="userSpaceOnUse">
<stop stop-color="#B753FF"/>
<stop offset="1" stop-color="#A036FF"/>
</linearGradient>
<linearGradient id="paint43_linear_17_104843" x1="4.72132" y1="0.753929" x2="5.64312" y2="6.84576" gradientUnits="userSpaceOnUse">
<stop stop-color="#CD70FF"/>
<stop offset="1" stop-color="#B73EFF"/>
</linearGradient>
<linearGradient id="paint44_linear_17_104843" x1="-2.69388" y1="4.38747" x2="-0.452786" y2="3.28388" gradientUnits="userSpaceOnUse">
<stop stop-color="#B753FF"/>
<stop offset="1" stop-color="#A036FF"/>
</linearGradient>
<linearGradient id="paint45_linear_17_104843" x1="-1.96999" y1="6.07185" x2="-0.464549" y2="8.59258" gradientUnits="userSpaceOnUse">
<stop stop-color="#A036FF"/>
<stop offset="1" stop-color="#3B0073"/>
</linearGradient>
<linearGradient id="paint46_linear_17_104843" x1="4.2625" y1="5.99805" x2="4.43234" y2="10.0574" gradientUnits="userSpaceOnUse">
<stop stop-color="#A036FF"/>
<stop offset="1" stop-color="#3B0073"/>
</linearGradient>
<linearGradient id="paint47_linear_17_104843" x1="9.05361" y1="8.3416" x2="8.25269" y2="10.2026" gradientUnits="userSpaceOnUse">
<stop stop-color="#A036FF"/>
<stop offset="1" stop-color="#3B0073"/>
</linearGradient>
<linearGradient id="paint48_linear_17_104843" x1="6.82448" y1="8.39472" x2="8.42348" y2="10.8297" gradientUnits="userSpaceOnUse">
<stop stop-color="#A036FF"/>
<stop offset="1" stop-color="#3B0073"/>
</linearGradient>
<linearGradient id="paint49_linear_17_104843" x1="6.01342" y1="5.30749" x2="8.53194" y2="10.1321" gradientUnits="userSpaceOnUse">
<stop stop-color="#A036FF"/>
<stop offset="1" stop-color="#3B0073"/>
</linearGradient>
<linearGradient id="paint50_linear_17_104843" x1="9.11792" y1="6.40194" x2="14.5845" y2="10.1029" gradientUnits="userSpaceOnUse">
<stop stop-color="#A036FF"/>
<stop offset="1" stop-color="#3B0073"/>
</linearGradient>
<linearGradient id="paint51_linear_17_104843" x1="8.91607" y1="1.76674" x2="18.5743" y2="6.03254" gradientUnits="userSpaceOnUse">
<stop stop-color="#A036FF"/>
<stop offset="1" stop-color="#3B0073"/>
</linearGradient>
</defs>
</svg>
