<svg width="16" height="12" viewBox="0 0 16 12" fill="none" xmlns="http://www.w3.org/2000/svg">
<path d="M14.909 3.15496C14.4168 2.41607 13.5442 1.79635 12.4032 1.36731C10.7028 0.723759 8.8682 0.628418 7.92852 0.628418H7.88377H7.83902C6.89935 0.628418 5.06474 0.735677 3.36437 1.36731C2.22333 1.79635 1.35077 2.41607 0.85856 3.15496C0.366347 3.87002 0.254481 4.65659 0.545334 5.4074C1.35077 7.58833 5.48983 10.2341 7.88377 11.6284C7.88377 11.6284 7.88377 11.6284 7.90614 11.6284H7.92852C10.3001 10.246 14.4168 7.60025 15.2446 5.4074C15.5131 4.65659 15.4012 3.87002 14.909 3.15496Z" fill="url(#paint0_linear_17_104825)"/>
<path opacity="0.7" d="M15.334 4.57302L13.231 3.03564L14.7971 3.05948C15.1551 3.53619 15.334 4.04865 15.334 4.57302Z" fill="url(#paint1_linear_17_104825)"/>
<path opacity="0.7" d="M2.64844 3.03566L5.19899 2.97607L3.65524 4.58496L2.64844 3.03566Z" fill="url(#paint2_linear_17_104825)"/>
<path d="M5.26599 7.11149L2.4917 5.86013L3.65511 4.64453L5.26599 7.11149Z" fill="url(#paint3_linear_17_104825)"/>
<path d="M3.63315 4.62098L2.44736 5.83658L0.478516 4.60907L2.60398 3.04785L3.63315 4.62098Z" fill="url(#paint4_linear_17_104825)"/>
<path opacity="0.4" d="M5.22124 7.12371L5.73583 9.24506L2.69306 7.96987L2.4917 5.88428L5.22124 7.12371Z" fill="url(#paint5_linear_17_104825)"/>
<path opacity="0.4" d="M5.26611 7.11182L7.86141 8.70878L5.7807 9.25699L5.26611 7.11182Z" fill="url(#paint6_linear_17_104825)"/>
<path d="M5.31098 7.09958L3.67773 4.62071L5.26624 2.97607L7.86154 2.33252L10.5016 2.97607L12.0901 4.62071L10.4568 7.09958L7.90629 8.69655L5.31098 7.09958Z" fill="url(#paint7_linear_17_104825)"/>
<path d="M8.30855 2.43994C6.80954 3.23842 5.31053 4.03691 3.81152 4.83539L4.34848 5.63387C6.13835 4.68046 7.92821 3.72705 9.71807 2.77364L8.30855 2.43994Z" fill="url(#paint8_linear_17_104825)"/>
<path d="M11.6648 5.27653L12.0899 4.62106L11.6201 4.09668C9.60647 5.15735 7.61525 6.22994 5.62402 7.29061L6.67557 7.94608L11.6648 5.27653Z" fill="url(#paint9_linear_17_104825)"/>
<path d="M10.7477 6.68245L11.2399 5.93164L7.03369 8.16024L7.48116 8.42243L10.7477 6.68245Z" fill="url(#paint10_linear_17_104825)"/>
<path d="M5.26611 2.95256L5.91494 1.58203L7.83904 2.32093L5.26611 2.95256Z" fill="url(#paint11_linear_17_104825)"/>
<path d="M7.92871 2.32093L9.89756 1.58203L10.524 2.95256L7.92871 2.32093Z" fill="url(#paint12_linear_17_104825)"/>
<path d="M12.1346 4.58496L10.5908 2.97607L13.1414 3.03566L12.1346 4.58496Z" fill="url(#paint13_linear_17_104825)"/>
<path opacity="0.8" d="M12.1348 4.64453L13.2982 5.86013L10.5239 7.11149L12.1348 4.64453Z" fill="url(#paint14_linear_17_104825)"/>
<path opacity="0.5" d="M10.5016 7.12354L10.0094 9.2568L7.92871 8.70858L10.5016 7.12354Z" fill="url(#paint15_linear_17_104825)"/>
<path opacity="0.4" d="M10.5459 7.12371L13.2978 5.88428L13.1189 7.95795L10.0537 9.24506L10.5459 7.12371Z" fill="url(#paint16_linear_17_104825)"/>
<path d="M12.1572 4.62098L13.1864 3.04785L15.3342 4.59715L13.343 5.83658L12.1572 4.62098Z" fill="url(#paint17_linear_17_104825)"/>
<path opacity="0.3" d="M14.7748 3.04751L13.1863 3.02367L12.873 1.60547C13.7232 1.98683 14.3721 2.48738 14.7748 3.04751Z" fill="url(#paint18_linear_17_104825)"/>
<path opacity="0.6" d="M13.1636 3.01206L10.5683 2.95247L9.91943 1.55811L12.828 1.58194L13.1636 3.01206Z" fill="url(#paint19_linear_17_104825)"/>
<path d="M12.3806 1.37907C12.5372 1.43866 12.6714 1.49824 12.828 1.55783L9.94189 1.534L10.3894 0.842773C11.0382 0.96195 11.7094 1.1288 12.3806 1.37907Z" fill="url(#paint20_linear_17_104825)"/>
<path d="M10.3451 0.842737L9.87528 1.54588L7.95117 0.640137C8.5105 0.640137 9.38306 0.67589 10.3451 0.842737Z" fill="url(#paint21_linear_17_104825)"/>
<path d="M7.88349 0.640137L9.85234 1.56971L7.88349 2.30861L5.93701 1.56971L7.88349 0.640137Z" fill="url(#paint22_linear_17_104825)"/>
<path opacity="0.3" d="M7.83925 0.640137L5.91515 1.5578L5.44531 0.842737C6.40736 0.67589 7.27992 0.640137 7.83925 0.640137Z" fill="url(#paint23_linear_17_104825)"/>
<path opacity="0.8" d="M3.40938 1.37936C4.05821 1.12909 4.75178 0.962239 5.37823 0.85498L5.84807 1.57004H2.96191C3.09615 1.49853 3.25277 1.43895 3.40938 1.37936Z" fill="url(#paint24_linear_17_104825)"/>
<path d="M5.84773 1.59375L5.22128 2.95236L2.62598 3.01195L2.96158 1.59375H5.84773Z" fill="url(#paint25_linear_17_104825)"/>
<path opacity="0.3" d="M2.91687 1.58203L2.58127 3.01215L1.01514 3.02407C1.44023 2.46394 2.08905 1.97531 2.91687 1.58203Z" fill="url(#paint26_linear_17_104825)"/>
<path d="M0.993013 3.04756L2.55914 3.03564L0.456055 4.58494C0.456055 4.04865 0.635041 3.53619 0.993013 3.04756Z" fill="url(#paint27_linear_17_104825)"/>
<path d="M0.590294 5.40746C0.500801 5.14527 0.456055 4.895 0.456055 4.63281L2.4249 5.86033L1.01539 6.19403C0.836401 5.91992 0.702161 5.65773 0.590294 5.40746Z" fill="url(#paint28_linear_17_104825)"/>
<path opacity="0.3" d="M1.0376 6.21797L2.44711 5.88428L2.64847 7.95795C1.97728 7.37398 1.41794 6.79002 1.0376 6.21797Z" fill="url(#paint29_linear_17_104825)"/>
<path opacity="0.7" d="M2.69336 7.99365L5.73613 9.26884L4.99781 9.74555C4.17 9.20925 3.38693 8.61337 2.69336 7.99365Z" fill="url(#paint30_linear_17_104825)"/>
<path opacity="0.3" d="M4.99756 9.78139L5.73588 9.30469L7.83897 11.581C7.03353 11.0923 6.02673 10.4726 4.99756 9.78139Z" fill="url(#paint31_linear_17_104825)"/>
<path d="M7.90622 11.569L5.78076 9.28083L7.88385 8.7207L10.0093 9.28083L7.90622 11.569Z" fill="url(#paint32_linear_17_104825)"/>
<path opacity="0.4" d="M7.97314 11.569L10.0539 9.30469L10.8146 9.79331C9.78538 10.4726 8.77858 11.0923 7.97314 11.569Z" fill="url(#paint33_linear_17_104825)"/>
<path d="M10.8144 9.75718L10.0537 9.26855L13.1188 7.98145C12.4253 8.60116 11.6198 9.20896 10.8144 9.75718Z" fill="url(#paint34_linear_17_104825)"/>
<path opacity="0.7" d="M13.1636 7.94574L13.3649 5.87207L14.7744 6.20576C14.3717 6.78973 13.8124 7.37369 13.1636 7.94574Z" fill="url(#paint35_linear_17_104825)"/>
<path opacity="0.3" d="M15.1998 5.40746C15.1104 5.65773 14.9537 5.93184 14.7748 6.19403L13.3652 5.86033L15.3341 4.63281C15.3341 4.895 15.2893 5.14527 15.1998 5.40746Z" fill="url(#paint36_linear_17_104825)"/>
<defs>
<linearGradient id="paint0_linear_17_104825" x1="1.911" y1="2.07073" x2="7.20452" y2="12.0084" gradientUnits="userSpaceOnUse">
<stop stop-color="#5FCAFF"/>
<stop offset="1" stop-color="#33D2FF"/>
</linearGradient>
<linearGradient id="paint1_linear_17_104825" x1="8.89598" y1="5.27802" x2="11.9041" y2="2.37805" gradientUnits="userSpaceOnUse">
<stop stop-color="#33D2FF"/>
<stop offset="1" stop-color="#00538F"/>
</linearGradient>
<linearGradient id="paint2_linear_17_104825" x1="-1.26047" y1="1.3174" x2="0.474067" y2="3.96312" gradientUnits="userSpaceOnUse">
<stop stop-color="#33D2FF"/>
<stop offset="1" stop-color="#00538F"/>
</linearGradient>
<linearGradient id="paint3_linear_17_104825" x1="8.78714" y1="4.44099" x2="6.56759" y2="7.03669" gradientUnits="userSpaceOnUse">
<stop stop-color="#5FCAFF"/>
<stop offset="1" stop-color="#33D2FF"/>
</linearGradient>
<linearGradient id="paint4_linear_17_104825" x1="-4.03147" y1="3.64885" x2="1.90095" y2="6.18708" gradientUnits="userSpaceOnUse">
<stop stop-color="#CFF1FF"/>
<stop offset="1" stop-color="#9BE1FF"/>
</linearGradient>
<linearGradient id="paint5_linear_17_104825" x1="2.19962" y1="8.11784" x2="8.06796" y2="2.12887" gradientUnits="userSpaceOnUse">
<stop stop-color="#CFF1FF"/>
<stop offset="1" stop-color="#9BE1FF"/>
</linearGradient>
<linearGradient id="paint6_linear_17_104825" x1="2.05172" y1="8.90093" x2="4.33841" y2="7.23635" gradientUnits="userSpaceOnUse">
<stop stop-color="#33D2FF"/>
<stop offset="1" stop-color="#00538F"/>
</linearGradient>
<linearGradient id="paint7_linear_17_104825" x1="6.41025" y1="2.72436" x2="7.85993" y2="9.68343" gradientUnits="userSpaceOnUse">
<stop stop-color="#D6FFF8"/>
<stop offset="0.2086" stop-color="#CFFFF7"/>
<stop offset="0.5107" stop-color="#BCFFF4"/>
<stop offset="0.8682" stop-color="#9CFFEF"/>
<stop offset="1" stop-color="#8FFFED"/>
</linearGradient>
<linearGradient id="paint8_linear_17_104825" x1="6.00433" y1="2.80898" x2="7.45403" y2="9.7681" gradientUnits="userSpaceOnUse">
<stop stop-color="#D6FFF8"/>
<stop offset="0.2086" stop-color="#CFFFF7"/>
<stop offset="0.5107" stop-color="#BCFFF4"/>
<stop offset="0.8682" stop-color="#9CFFEF"/>
<stop offset="1" stop-color="#8FFFED"/>
</linearGradient>
<linearGradient id="paint9_linear_17_104825" x1="6.4834" y1="2.70949" x2="7.93309" y2="9.66853" gradientUnits="userSpaceOnUse">
<stop stop-color="#D6FFF8"/>
<stop offset="0.2086" stop-color="#CFFFF7"/>
<stop offset="0.5107" stop-color="#BCFFF4"/>
<stop offset="0.8682" stop-color="#9CFFEF"/>
<stop offset="1" stop-color="#8FFFED"/>
</linearGradient>
<linearGradient id="paint10_linear_17_104825" x1="6.0322" y1="2.80306" x2="7.4819" y2="9.76222" gradientUnits="userSpaceOnUse">
<stop stop-color="#D6FFF8"/>
<stop offset="0.2086" stop-color="#CFFFF7"/>
<stop offset="0.5107" stop-color="#BCFFF4"/>
<stop offset="0.8682" stop-color="#9CFFEF"/>
<stop offset="1" stop-color="#8FFFED"/>
</linearGradient>
<linearGradient id="paint11_linear_17_104825" x1="5.96548" y1="1.6871" x2="6.52378" y2="4.88467" gradientUnits="userSpaceOnUse">
<stop stop-color="#5FCAFF"/>
<stop offset="1" stop-color="#33D2FF"/>
</linearGradient>
<linearGradient id="paint12_linear_17_104825" x1="8.76916" y1="1.87993" x2="9.60057" y2="3.44072" gradientUnits="userSpaceOnUse">
<stop stop-color="#5FCAFF"/>
<stop offset="1" stop-color="#33D2FF"/>
</linearGradient>
<linearGradient id="paint13_linear_17_104825" x1="10.8292" y1="2.84629" x2="11.8382" y2="4.74048" gradientUnits="userSpaceOnUse">
<stop stop-color="#5FCAFF"/>
<stop offset="1" stop-color="#33D2FF"/>
</linearGradient>
<linearGradient id="paint14_linear_17_104825" x1="8.43699" y1="4.71573" x2="9.68555" y2="6.48131" gradientUnits="userSpaceOnUse">
<stop stop-color="#CFFFF4"/>
<stop offset="1" stop-color="#9AF7FF"/>
</linearGradient>
<linearGradient id="paint15_linear_17_104825" x1="5.10359" y1="5.90265" x2="6.31455" y2="7.98657" gradientUnits="userSpaceOnUse">
<stop stop-color="#33D2FF"/>
<stop offset="1" stop-color="#007999"/>
</linearGradient>
<linearGradient id="paint16_linear_17_104825" x1="2.95554" y1="4.36544" x2="6.50122" y2="8.94774" gradientUnits="userSpaceOnUse">
<stop stop-color="#CFF1FF"/>
<stop offset="1" stop-color="#9BE1FF"/>
</linearGradient>
<linearGradient id="paint17_linear_17_104825" x1="6.5112" y1="4.46399" x2="12.3447" y2="4.40574" gradientUnits="userSpaceOnUse">
<stop stop-color="#C4FFF5"/>
<stop offset="1" stop-color="#8FFFED"/>
</linearGradient>
<linearGradient id="paint18_linear_17_104825" x1="15.4885" y1="-0.162063" x2="15.1247" y2="1.76093" gradientUnits="userSpaceOnUse">
<stop stop-color="#33D2FF"/>
<stop offset="1" stop-color="#007999"/>
</linearGradient>
<linearGradient id="paint19_linear_17_104825" x1="11.7515" y1="0.987893" x2="11.559" y2="5.13856" gradientUnits="userSpaceOnUse">
<stop stop-color="#CFFFF4"/>
<stop offset="1" stop-color="#83F3FF"/>
</linearGradient>
<linearGradient id="paint20_linear_17_104825" x1="10.8182" y1="0.821882" x2="11.4458" y2="3.7121" gradientUnits="userSpaceOnUse">
<stop stop-color="#CFF1FF"/>
<stop offset="1" stop-color="#73C9FF"/>
</linearGradient>
<linearGradient id="paint21_linear_17_104825" x1="8.57897" y1="-0.827189" x2="8.70545" y2="0.410957" gradientUnits="userSpaceOnUse">
<stop stop-color="#5FCAFF"/>
<stop offset="1" stop-color="#33D2FF"/>
</linearGradient>
<linearGradient id="paint22_linear_17_104825" x1="7.94253" y1="0.168424" x2="7.8985" y2="4.64904" gradientUnits="userSpaceOnUse">
<stop stop-color="#CFF1FF"/>
<stop offset="1" stop-color="#5CCEFF"/>
</linearGradient>
<linearGradient id="paint23_linear_17_104825" x1="3.52358" y1="-0.682485" x2="4.19575" y2="0.579389" gradientUnits="userSpaceOnUse">
<stop stop-color="#33D2FF"/>
<stop offset="1" stop-color="#007999"/>
</linearGradient>
<linearGradient id="paint24_linear_17_104825" x1="3.41658" y1="0.212571" x2="3.65182" y2="1.2982" gradientUnits="userSpaceOnUse">
<stop stop-color="#5FCAFF"/>
<stop offset="1" stop-color="#33D2FF"/>
</linearGradient>
<linearGradient id="paint25_linear_17_104825" x1="3.37857" y1="1.41935" x2="5.22107" y2="8.02461" gradientUnits="userSpaceOnUse">
<stop stop-color="#F5FCFF"/>
<stop offset="1" stop-color="#84DAFF"/>
</linearGradient>
<linearGradient id="paint26_linear_17_104825" x1="-4.14296" y1="1.85013" x2="-1.18335" y2="2.62798" gradientUnits="userSpaceOnUse">
<stop stop-color="#33D2FF"/>
<stop offset="1" stop-color="#007999"/>
</linearGradient>
<linearGradient id="paint27_linear_17_104825" x1="-2.64435" y1="1.66967" x2="-1.27631" y2="4.1593" gradientUnits="userSpaceOnUse">
<stop stop-color="#5FCAFF"/>
<stop offset="1" stop-color="#33D2FF"/>
</linearGradient>
<linearGradient id="paint28_linear_17_104825" x1="2.7897" y1="3.78132" x2="2.40051" y2="5.26181" gradientUnits="userSpaceOnUse">
<stop stop-color="#5FCAFF"/>
<stop offset="1" stop-color="#33D2FF"/>
</linearGradient>
<linearGradient id="paint29_linear_17_104825" x1="-4.96169" y1="6.52192" x2="-0.9943" y2="7.26102" gradientUnits="userSpaceOnUse">
<stop stop-color="#33D2FF"/>
<stop offset="1" stop-color="#00538F"/>
</linearGradient>
<linearGradient id="paint30_linear_17_104825" x1="5.26747" y1="6.66723" x2="5.03462" y2="8.18846" gradientUnits="userSpaceOnUse">
<stop stop-color="#33D2FF"/>
<stop offset="1" stop-color="#00538F"/>
</linearGradient>
<linearGradient id="paint31_linear_17_104825" x1="8.53865" y1="8.94225" x2="7.39941" y2="12.2447" gradientUnits="userSpaceOnUse">
<stop stop-color="#33D2FF"/>
<stop offset="1" stop-color="#007999"/>
</linearGradient>
<linearGradient id="paint32_linear_17_104825" x1="7.89448" y1="6.15929" x2="7.89448" y2="8.44207" gradientUnits="userSpaceOnUse">
<stop stop-color="#CFF1FF"/>
<stop offset="1" stop-color="#9BE1FF"/>
</linearGradient>
<linearGradient id="paint33_linear_17_104825" x1="3.66788" y1="7.43208" x2="4.88001" y2="9.83269" gradientUnits="userSpaceOnUse">
<stop stop-color="#33D2FF"/>
<stop offset="1" stop-color="#00538F"/>
</linearGradient>
<linearGradient id="paint34_linear_17_104825" x1="6.30735" y1="6.72473" x2="8.34005" y2="9.43694" gradientUnits="userSpaceOnUse">
<stop stop-color="#33D2FF"/>
<stop offset="1" stop-color="#00538F"/>
</linearGradient>
<linearGradient id="paint35_linear_17_104825" x1="7.38179" y1="6.59619" x2="10.9513" y2="7.27766" gradientUnits="userSpaceOnUse">
<stop stop-color="#33D2FF"/>
<stop offset="1" stop-color="#00538F"/>
</linearGradient>
<linearGradient id="paint36_linear_17_104825" x1="11.563" y1="3.79998" x2="12.5527" y2="5.60569" gradientUnits="userSpaceOnUse">
<stop stop-color="#33D2FF"/>
<stop offset="1" stop-color="#007999"/>
</linearGradient>
</defs>
</svg>
