<svg width="16" height="12" viewBox="0 0 16 12" fill="none" xmlns="http://www.w3.org/2000/svg">
<g opacity="0.9">
<path d="M12.4478 0.452148L13.1834 2.97798H15.1271L12.4478 0.452148Z" fill="url(#paint0_linear_17_104853)"/>
<path d="M12.4478 0.452148L13.1834 2.97798H13.6782L12.4478 0.452148Z" fill="url(#paint1_linear_17_104853)"/>
<path d="M13.1821 2.97705L10.5566 8.29182L15.1289 2.97705H13.1821Z" fill="url(#paint2_linear_17_104853)"/>
<path opacity="0.3" d="M13.1821 2.97705L10.5566 8.29182L13.6769 2.97705H13.1821Z" fill="url(#paint3_linear_17_104853)"/>
<path opacity="0.3" d="M13.7493 4.57885L15.1261 2.97705H13.1813L12.8501 3.64745L13.7493 4.57885Z" fill="url(#paint4_linear_17_104853)"/>
<path opacity="0.3" d="M12.0188 5.3291L10.5557 8.29169L12.5878 5.92267L12.0188 5.3291Z" fill="url(#paint5_linear_17_104853)"/>
<path d="M13.1821 2.97705L8.62614 8.5844L7.62939 11.4439L10.5577 8.29182L13.1821 2.97705Z" fill="url(#paint6_linear_17_104853)"/>
<path opacity="0.3" d="M13.182 2.97705L8.625 8.5844L11.0544 7.28465L13.182 2.97705Z" fill="url(#paint7_linear_17_104853)"/>
<path opacity="0.3" d="M8.93389 8.20361L8.62907 8.58354L7.63232 11.443L9.84631 9.06029C9.47589 8.86108 9.16156 8.56595 8.93389 8.20361V8.20361Z" fill="url(#paint8_linear_17_104853)"/>
<path opacity="0.3" d="M12.2393 4.88721L13.1822 2.97705L11.8237 4.64936C11.9696 4.714 12.1088 4.79368 12.2393 4.88721Z" fill="url(#paint9_linear_17_104853)"/>
<path d="M8.625 8.58342L10.5555 2.97607H13.181L8.625 8.58342Z" fill="url(#paint10_linear_17_104853)"/>
<path opacity="0.3" d="M8.625 8.58342L10.5555 2.97607H11.3379L8.625 8.58342Z" fill="url(#paint11_linear_17_104853)"/>
<path opacity="0.3" d="M12.0513 2.97705V4.37363L13.1862 2.97705H12.0513Z" fill="url(#paint12_linear_17_104853)"/>
<path opacity="0.3" d="M10.3141 3.68848L8.62842 8.58333L10.3141 6.50899V3.68848Z" fill="url(#paint13_linear_17_104853)"/>
<path d="M10.5564 2.977L9.8208 0.451172L13.1819 2.977H10.5564Z" fill="url(#paint14_linear_17_104853)"/>
<path d="M11.6224 1.80469C11.4043 2.29478 11.0465 2.70393 10.5972 2.97709H13.182L11.6224 1.80469Z" fill="url(#paint15_linear_17_104853)"/>
<path d="M9.8208 0.452148H12.4463L13.1819 2.97798L9.8208 0.452148Z" fill="url(#paint16_linear_17_104853)"/>
<path opacity="0.3" d="M9.8208 0.452148H10.404L13.1809 2.97798L9.8208 0.452148Z" fill="url(#paint17_linear_17_104853)"/>
<path d="M9.82204 0.452148L7.62939 2.97798H10.5577L9.82204 0.452148Z" fill="url(#paint18_linear_17_104853)"/>
<path d="M7.62939 2.977V0.451172H9.82204L7.62939 2.977Z" fill="url(#paint19_linear_17_104853)"/>
<path opacity="0.3" d="M7.62939 2.977L9.09353 0.451172H9.82204L7.62939 2.977Z" fill="url(#paint20_linear_17_104853)"/>
<path d="M7.62939 2.97705L8.62614 8.5844L10.5566 2.97705H7.62939Z" fill="url(#paint21_linear_17_104853)"/>
<path opacity="0.3" d="M9.80581 2.97705L8.62109 8.5844L10.5516 2.97705H9.80581Z" fill="url(#paint22_linear_17_104853)"/>
<path opacity="0.3" d="M9.98252 4.64515L10.5576 2.97705H8.37207L9.98252 4.64515Z" fill="url(#paint23_linear_17_104853)"/>
<path d="M7.62928 2.97705V11.4439L8.62603 8.5844L7.62928 2.97705Z" fill="url(#paint24_linear_17_104853)"/>
<path d="M2.81117 0.452148L2.07555 2.97798H0.131836L2.81117 0.452148Z" fill="url(#paint25_linear_17_104853)"/>
<path d="M2.8104 0.452148L2.07478 2.97798H1.75879L2.8104 0.452148Z" fill="url(#paint26_linear_17_104853)"/>
<path d="M2.07567 2.97705L4.70115 8.29182L0.128906 2.97705H2.07567Z" fill="url(#paint27_linear_17_104853)"/>
<path d="M2.07478 2.97705L4.69925 8.29182L1.75879 2.97705H2.07478Z" fill="url(#paint28_linear_17_104853)"/>
<path opacity="0.2" d="M3.03185 4.91357C2.82702 5.15628 2.57855 5.35538 2.30029 5.49978L4.70123 8.29188L3.03185 4.91357Z" fill="url(#paint29_linear_17_104853)"/>
<path d="M2.07568 2.97705L6.63268 8.5844L7.62943 11.4439L4.70117 8.29182L2.07568 2.97705Z" fill="url(#paint30_linear_17_104853)"/>
<path d="M2.07568 2.97705L6.63268 8.5844L7.62943 11.4439L6.1653 8.92644L2.07568 2.97705Z" fill="url(#paint31_linear_17_104853)"/>
<path opacity="0.3" d="M6.6327 8.58447C6.61354 9.11413 6.54721 9.64083 6.43457 10.1579L7.62945 11.4439L6.6327 8.58447Z" fill="#FF80AD"/>
<path d="M6.63167 8.58342L4.70117 2.97607H2.07568L6.63167 8.58342Z" fill="url(#paint32_linear_17_104853)"/>
<path opacity="0.3" d="M6.63157 8.58342L4.70107 2.97607H4.02539L6.63157 8.58342Z" fill="url(#paint33_linear_17_104853)"/>
<path opacity="0.5" d="M4.41358 2.97705H2.07666L3.14555 4.29154L4.41358 2.97705Z" fill="url(#paint34_linear_17_104853)"/>
<path opacity="0.5" d="M5.21338 6.84284L6.63585 8.58882L5.82301 6.21875L5.21338 6.84284Z" fill="url(#paint35_linear_17_104853)"/>
<path d="M4.70117 2.977L5.43679 0.451172L2.07568 2.977H4.70117Z" fill="url(#paint36_linear_17_104853)"/>
<path d="M5.43577 0.452148H2.81131L2.07568 2.97798L5.43577 0.452148Z" fill="url(#paint37_linear_17_104853)"/>
<path opacity="0.3" d="M5.43581 0.452148H4.85158L2.07471 2.97798L5.43581 0.452148Z" fill="url(#paint38_linear_17_104853)"/>
<path opacity="0.3" d="M2.7199 0.762695L2.07471 2.9728L4.0235 1.50887C3.51438 1.4371 3.04948 1.171 2.7199 0.762695Z" fill="url(#paint39_linear_17_104853)"/>
<path d="M5.43582 0.452148L7.62846 2.97798H4.7002L5.43582 0.452148Z" fill="url(#paint40_linear_17_104853)"/>
<path opacity="0.3" d="M7.6286 2.9771L6.87063 2.10463L6.02832 2.9771H7.6286Z" fill="url(#paint41_linear_17_104853)"/>
<path opacity="0.3" d="M6.07274 1.18055L5.43567 0.443848L4.85449 2.44346L6.07274 1.18055Z" fill="url(#paint42_linear_17_104853)"/>
<path d="M7.62819 2.977V0.451172H5.43555L7.62819 2.977Z" fill="url(#paint43_linear_17_104853)"/>
<path opacity="0.3" d="M7.62838 2.977V0.451172H7.26463L7.62838 2.977Z" fill="url(#paint44_linear_17_104853)"/>
<path d="M7.62842 2.97705L6.63167 8.5844L4.70117 2.97705H7.62842Z" fill="url(#paint45_linear_17_104853)"/>
<path opacity="0.3" d="M7.62847 2.97705L6.63172 8.5844L7.03205 2.97705H7.62847Z" fill="url(#paint46_linear_17_104853)"/>
<path opacity="0.3" d="M6.50072 3.17912C6.56846 3.10896 6.6362 3.0416 6.70393 2.97705H4.69824L5.35055 4.87143C5.637 4.24293 6.02611 3.67041 6.50072 3.17912Z" fill="url(#paint47_linear_17_104853)"/>
<path d="M7.62847 2.97705V11.4439L6.63172 8.5844L7.62847 2.97705Z" fill="url(#paint48_linear_17_104853)"/>
<path d="M7.62847 2.97705V5.45447L6.63172 8.5844L7.62847 2.97705Z" fill="url(#paint49_linear_17_104853)"/>
</g>
<defs>
<linearGradient id="paint0_linear_17_104853" x1="10.774" y1="1.00363" x2="12.3754" y2="4.19239" gradientUnits="userSpaceOnUse">
<stop stop-color="#FF80AD"/>
<stop offset="1" stop-color="#9C0F42"/>
</linearGradient>
<linearGradient id="paint1_linear_17_104853" x1="8.8335" y1="6.08368" x2="14.2332" y2="6.56232" gradientUnits="userSpaceOnUse">
<stop stop-color="#FF80AD"/>
<stop offset="1" stop-color="#9C0F42"/>
</linearGradient>
<linearGradient id="paint2_linear_17_104853" x1="10.5566" y1="8.29182" x2="15.1289" y2="8.29182" gradientUnits="userSpaceOnUse">
<stop stop-color="#FF4084"/>
<stop offset="1" stop-color="#FF80AD"/>
</linearGradient>
<linearGradient id="paint3_linear_17_104853" x1="10.5566" y1="8.29182" x2="13.6769" y2="8.29182" gradientUnits="userSpaceOnUse">
<stop stop-color="#FF4084"/>
<stop offset="1" stop-color="#FF80AD"/>
</linearGradient>
<linearGradient id="paint4_linear_17_104853" x1="10.5559" y1="5.38616" x2="15.1261" y2="5.38616" gradientUnits="userSpaceOnUse">
<stop stop-color="#FF4084"/>
<stop offset="1" stop-color="#FF80AD"/>
</linearGradient>
<linearGradient id="paint5_linear_17_104853" x1="10.5557" y1="10.1344" x2="15.1157" y2="10.1344" gradientUnits="userSpaceOnUse">
<stop stop-color="#FF4084"/>
<stop offset="1" stop-color="#FF80AD"/>
</linearGradient>
<linearGradient id="paint6_linear_17_104853" x1="13.6497" y1="-6.13632" x2="0.325086" y2="-2.13619" gradientUnits="userSpaceOnUse">
<stop stop-color="#FF80AD"/>
<stop offset="1" stop-color="#9C0F42"/>
</linearGradient>
<linearGradient id="paint7_linear_17_104853" x1="11.6088" y1="-0.458999" x2="5.07711" y2="4.16136" gradientUnits="userSpaceOnUse">
<stop stop-color="#FF80AD"/>
<stop offset="1" stop-color="#9C0F42"/>
</linearGradient>
<linearGradient id="paint8_linear_17_104853" x1="14.5884" y1="-5.11413" x2="2.12693" y2="-0.704275" gradientUnits="userSpaceOnUse">
<stop stop-color="#FF80AD"/>
<stop offset="1" stop-color="#9C0F42"/>
</linearGradient>
<linearGradient id="paint9_linear_17_104853" x1="10.7717" y1="-4.15071" x2="-0.906772" y2="0.697565" gradientUnits="userSpaceOnUse">
<stop stop-color="#FF80AD"/>
<stop offset="1" stop-color="#9C0F42"/>
</linearGradient>
<linearGradient id="paint10_linear_17_104853" x1="10.035" y1="11.2874" x2="15.302" y2="6.89327" gradientUnits="userSpaceOnUse">
<stop stop-color="#FF4084"/>
<stop offset="1" stop-color="#FF80AD"/>
</linearGradient>
<linearGradient id="paint11_linear_17_104853" x1="3.96138" y1="19.2832" x2="14.9702" y2="18.1278" gradientUnits="userSpaceOnUse">
<stop stop-color="#FF4084"/>
<stop offset="1" stop-color="#FF80AD"/>
</linearGradient>
<linearGradient id="paint12_linear_17_104853" x1="10.1231" y1="11.6217" x2="15.3892" y2="7.23033" gradientUnits="userSpaceOnUse">
<stop stop-color="#FF4084"/>
<stop offset="1" stop-color="#FF80AD"/>
</linearGradient>
<linearGradient id="paint13_linear_17_104853" x1="2.28237" y1="43.6093" x2="26.6305" y2="42.9545" gradientUnits="userSpaceOnUse">
<stop stop-color="#FF4084"/>
<stop offset="1" stop-color="#FF80AD"/>
</linearGradient>
<linearGradient id="paint14_linear_17_104853" x1="15.6051" y1="3.88621" x2="13.7026" y2="-1.24866" gradientUnits="userSpaceOnUse">
<stop stop-color="#FF80AD"/>
<stop offset="1" stop-color="#9C0F42"/>
</linearGradient>
<linearGradient id="paint15_linear_17_104853" x1="26.7042" y1="7.25551" x2="26.0639" y2="-5.75963" gradientUnits="userSpaceOnUse">
<stop stop-color="#FF80AD"/>
<stop offset="1" stop-color="#9C0F42"/>
</linearGradient>
<linearGradient id="paint16_linear_17_104853" x1="13.1012" y1="2.88705" x2="13.1012" y2="0.482458" gradientUnits="userSpaceOnUse">
<stop stop-color="#FF4084"/>
<stop offset="1" stop-color="#7D0C35"/>
</linearGradient>
<linearGradient id="paint17_linear_17_104853" x1="13.1002" y1="2.88705" x2="13.1002" y2="0.482458" gradientUnits="userSpaceOnUse">
<stop stop-color="#FF4084"/>
<stop offset="1" stop-color="#7D0C35"/>
</linearGradient>
<linearGradient id="paint18_linear_17_104853" x1="10.5178" y1="5.35076" x2="12.2185" y2="1.67316" gradientUnits="userSpaceOnUse">
<stop stop-color="#FFE6EF"/>
<stop offset="1" stop-color="#FF80AD"/>
</linearGradient>
<linearGradient id="paint19_linear_17_104853" x1="9.76941" y1="2.88607" x2="9.76941" y2="0.481482" gradientUnits="userSpaceOnUse">
<stop stop-color="#FF4084"/>
<stop offset="1" stop-color="#7D0C35"/>
</linearGradient>
<linearGradient id="paint20_linear_17_104853" x1="9.76941" y1="2.88607" x2="9.76941" y2="0.481482" gradientUnits="userSpaceOnUse">
<stop stop-color="#FF4084"/>
<stop offset="1" stop-color="#7D0C35"/>
</linearGradient>
<linearGradient id="paint21_linear_17_104853" x1="7.63964" y1="2.97705" x2="7.63964" y2="8.54515" gradientUnits="userSpaceOnUse">
<stop stop-color="#FF80AD"/>
<stop offset="1" stop-color="#9C0F42"/>
</linearGradient>
<linearGradient id="paint22_linear_17_104853" x1="8.62785" y1="2.97705" x2="8.62785" y2="8.54515" gradientUnits="userSpaceOnUse">
<stop stop-color="#FF80AD"/>
<stop offset="1" stop-color="#9C0F42"/>
</linearGradient>
<linearGradient id="paint23_linear_17_104853" x1="5.81828" y1="2.97705" x2="5.81828" y2="8.54351" gradientUnits="userSpaceOnUse">
<stop stop-color="#FF80AD"/>
<stop offset="1" stop-color="#9C0F42"/>
</linearGradient>
<linearGradient id="paint24_linear_17_104853" x1="8.62959" y1="11.3931" x2="8.62959" y2="3.02785" gradientUnits="userSpaceOnUse">
<stop stop-color="#FF80AD"/>
<stop offset="1" stop-color="#FF4084"/>
</linearGradient>
<linearGradient id="paint25_linear_17_104853" x1="0.131836" y1="2.97798" x2="2.81117" y2="2.97798" gradientUnits="userSpaceOnUse">
<stop stop-color="#FFE6EF"/>
<stop offset="1" stop-color="#FF80AD"/>
</linearGradient>
<linearGradient id="paint26_linear_17_104853" x1="1.75879" y1="2.97798" x2="2.8104" y2="2.97798" gradientUnits="userSpaceOnUse">
<stop stop-color="#FFE6EF"/>
<stop offset="1" stop-color="#FF80AD"/>
</linearGradient>
<linearGradient id="paint27_linear_17_104853" x1="0.128906" y1="8.29182" x2="4.70115" y2="8.29182" gradientUnits="userSpaceOnUse">
<stop stop-color="#FF80AD"/>
<stop offset="1" stop-color="#9C0F42"/>
</linearGradient>
<linearGradient id="paint28_linear_17_104853" x1="1.75879" y1="8.29182" x2="4.69925" y2="8.29182" gradientUnits="userSpaceOnUse">
<stop stop-color="#FF80AD"/>
<stop offset="1" stop-color="#9C0F42"/>
</linearGradient>
<linearGradient id="paint29_linear_17_104853" x1="0.132249" y1="9.81718" x2="4.70123" y2="9.81718" gradientUnits="userSpaceOnUse">
<stop stop-color="#FF80AD"/>
<stop offset="1" stop-color="#9C0F42"/>
</linearGradient>
<linearGradient id="paint30_linear_17_104853" x1="-4.17855" y1="12.2296" x2="9.42843" y2="16.3013" gradientUnits="userSpaceOnUse">
<stop stop-color="#FFE6EF"/>
<stop offset="1" stop-color="#FF80AD"/>
</linearGradient>
<linearGradient id="paint31_linear_17_104853" x1="-3.56497" y1="12.0264" x2="10.042" y2="16.0981" gradientUnits="userSpaceOnUse">
<stop stop-color="#FFE6EF"/>
<stop offset="1" stop-color="#FF80AD"/>
</linearGradient>
<linearGradient id="paint32_linear_17_104853" x1="9.45835" y1="5.88971" x2="4.32928" y2="1.50502" gradientUnits="userSpaceOnUse">
<stop stop-color="#FF80AD"/>
<stop offset="1" stop-color="#FF4084"/>
</linearGradient>
<linearGradient id="paint33_linear_17_104853" x1="13.5286" y1="-3.74805" x2="2.10581" y2="-4.79505" gradientUnits="userSpaceOnUse">
<stop stop-color="#FF80AD"/>
<stop offset="1" stop-color="#FF4084"/>
</linearGradient>
<linearGradient id="paint34_linear_17_104853" x1="22.7352" y1="19.4531" x2="21.7865" y2="0.846598" gradientUnits="userSpaceOnUse">
<stop stop-color="#FF80AD"/>
<stop offset="1" stop-color="#FF4084"/>
</linearGradient>
<linearGradient id="paint35_linear_17_104853" x1="9.16368" y1="1.95793" x2="0.589984" y2="-0.219904" gradientUnits="userSpaceOnUse">
<stop stop-color="#FF80AD"/>
<stop offset="1" stop-color="#FF4084"/>
</linearGradient>
<linearGradient id="paint36_linear_17_104853" x1="5.51412" y1="6.53477" x2="7.4778" y2="1.56519" gradientUnits="userSpaceOnUse">
<stop stop-color="#FFE6EF"/>
<stop offset="1" stop-color="#FF80AD"/>
</linearGradient>
<linearGradient id="paint37_linear_17_104853" x1="5.35513" y1="2.88705" x2="5.35513" y2="0.482458" gradientUnits="userSpaceOnUse">
<stop stop-color="#FF4084"/>
<stop offset="1" stop-color="#7D0C35"/>
</linearGradient>
<linearGradient id="paint38_linear_17_104853" x1="5.35515" y1="2.88705" x2="5.35515" y2="0.482458" gradientUnits="userSpaceOnUse">
<stop stop-color="#FF4084"/>
<stop offset="1" stop-color="#7D0C35"/>
</linearGradient>
<linearGradient id="paint39_linear_17_104853" x1="4.10632" y1="2.88218" x2="4.10632" y2="0.484222" gradientUnits="userSpaceOnUse">
<stop stop-color="#FF4084"/>
<stop offset="1" stop-color="#7D0C35"/>
</linearGradient>
<linearGradient id="paint40_linear_17_104853" x1="5.12608" y1="0.985594" x2="3.86725" y2="3.61713" gradientUnits="userSpaceOnUse">
<stop stop-color="#FF80AD"/>
<stop offset="1" stop-color="#FF4084"/>
</linearGradient>
<linearGradient id="paint41_linear_17_104853" x1="3.42034" y1="1.7228" x2="2.71645" y2="6.97682" gradientUnits="userSpaceOnUse">
<stop stop-color="#FF80AD"/>
<stop offset="1" stop-color="#FF4084"/>
</linearGradient>
<linearGradient id="paint42_linear_17_104853" x1="5.59443" y1="-2.43513" x2="1.43068" y2="-1.76992" gradientUnits="userSpaceOnUse">
<stop stop-color="#FF80AD"/>
<stop offset="1" stop-color="#FF4084"/>
</linearGradient>
<linearGradient id="paint43_linear_17_104853" x1="7.56789" y1="2.8103" x2="7.56789" y2="0.423388" gradientUnits="userSpaceOnUse">
<stop stop-color="#FF80AD"/>
<stop offset="1" stop-color="#FF2472"/>
</linearGradient>
<linearGradient id="paint44_linear_17_104853" x1="7.92659" y1="2.8103" x2="7.92659" y2="0.423388" gradientUnits="userSpaceOnUse">
<stop stop-color="#FF80AD"/>
<stop offset="1" stop-color="#FF2472"/>
</linearGradient>
<linearGradient id="paint45_linear_17_104853" x1="4.70533" y1="5.5134" x2="9.10657" y2="8.09762" gradientUnits="userSpaceOnUse">
<stop stop-color="#FF80AD"/>
<stop offset="1" stop-color="#9C0F42"/>
</linearGradient>
<linearGradient id="paint46_linear_17_104853" x1="-3.30195" y1="60.6246" x2="17.5371" y2="60.7994" gradientUnits="userSpaceOnUse">
<stop stop-color="#FF80AD"/>
<stop offset="1" stop-color="#9C0F42"/>
</linearGradient>
<linearGradient id="paint47_linear_17_104853" x1="2.1306" y1="3.2612" x2="2.81133" y2="10.0406" gradientUnits="userSpaceOnUse">
<stop stop-color="#FF80AD"/>
<stop offset="1" stop-color="#9C0F42"/>
</linearGradient>
<linearGradient id="paint48_linear_17_104853" x1="6.63223" y1="3.00245" x2="6.63223" y2="11.2999" gradientUnits="userSpaceOnUse">
<stop stop-color="#FFE6EF"/>
<stop offset="1" stop-color="#FF80AD"/>
</linearGradient>
<linearGradient id="paint49_linear_17_104853" x1="6.63223" y1="2.99387" x2="6.63223" y2="8.48907" gradientUnits="userSpaceOnUse">
<stop stop-color="#FFE6EF"/>
<stop offset="1" stop-color="#FF80AD"/>
</linearGradient>
</defs>
</svg>
