<svg width="16" height="12" viewBox="0 0 16 12" fill="none" xmlns="http://www.w3.org/2000/svg">
<path d="M8.40283 0.443848C4.26104 0.443848 0.902832 2.90653 0.902832 5.94385C0.902832 8.98116 4.26104 11.4438 8.40283 11.4438C12.5446 11.4438 15.9028 8.98116 15.9028 5.94385C15.9028 2.90653 12.5222 0.443848 8.40283 0.443848Z" fill="url(#paint0_linear_17_104880)"/>
<path opacity="0.4" d="M15.8358 5.92724H13.8433L15.2761 3.875C15.6343 4.49888 15.8358 5.20485 15.8358 5.92724Z" fill="url(#paint1_linear_17_104880)"/>
<path d="M4.57422 3.15283L6.52198 3.31701L4.82049 4.58119L4.57422 3.15283Z" fill="url(#paint2_linear_17_104880)"/>
<path opacity="0.5" d="M4.97755 5.94368L4.77605 7.25712L3.02979 5.9601L4.77605 4.66309L4.97755 5.94368Z" fill="url(#paint3_linear_17_104880)"/>
<path d="M4.77613 4.61402L3.00747 5.92746L1.55225 3.84238L4.52986 3.15283L4.77613 4.61402Z" fill="url(#paint4_linear_17_104880)"/>
<path opacity="0.5" d="M3.00747 5.99316L4.77613 7.3066L4.57463 8.71854L1.55225 8.02898L3.00747 5.99316Z" fill="url(#paint5_linear_17_104880)"/>
<path d="M4.82064 7.33936L6.41019 8.48861L4.61914 8.71846L4.82064 7.33936Z" fill="url(#paint6_linear_17_104880)"/>
<path d="M4.82073 7.29003L5.02222 5.94376L4.79834 4.63033L6.567 3.31689L8.38043 3.46465L10.1715 3.31689L11.9849 4.64675L11.8282 5.94376L11.9849 7.24077L10.2834 8.48854L8.35804 8.24227L6.43267 8.47212L4.82073 7.29003Z" fill="url(#paint7_linear_17_104880)"/>
<path d="M4.84326 7.25719C6.63431 5.94376 8.42535 4.63033 10.2164 3.31689L8.42535 3.46465L7.9552 3.43182C6.97013 4.15421 5.98506 4.8766 4.99998 5.59898L5.04476 5.94376L4.84326 7.25719Z" fill="url(#paint8_linear_17_104880)"/>
<path d="M11.6491 4.36771L10.6416 3.62891C8.85057 4.94234 7.03714 6.27219 5.24609 7.58562L6.25356 8.32443C8.0446 7.011 9.83565 5.68114 11.6491 4.36771Z" fill="url(#paint9_linear_17_104880)"/>
<path d="M8.40291 8.25867L8.71634 8.30792C9.76858 7.53628 10.8208 6.76464 11.8731 5.993V5.96016L12.0298 4.7124L6.92529 8.45569L8.40291 8.25867Z" fill="url(#paint10_linear_17_104880)"/>
<path d="M12.0742 4.63044L12.2533 3.15283L15.2309 3.8588L13.8205 5.91104L12.0742 4.63044Z" fill="url(#paint11_linear_17_104880)"/>
<path d="M13.7986 5.94387L12.0747 7.20804L11.918 5.94387L12.0747 4.67969L13.7986 5.94387Z" fill="url(#paint12_linear_17_104880)"/>
<path opacity="0.4" d="M12.0295 4.59761L10.2832 3.31701L12.2086 3.15283L12.0295 4.59761Z" fill="url(#paint13_linear_17_104880)"/>
<path d="M12.0298 7.29004L12.2089 8.73482L10.3955 8.50497L12.0298 7.29004Z" fill="url(#paint14_linear_17_104880)"/>
<path d="M12.0742 7.25716L13.8205 5.97656L15.2309 8.01238L12.2533 8.71835L12.0742 7.25716Z" fill="#EA661D"/>
<path opacity="0.2" d="M15.2535 3.82593L12.2759 3.11996L13.6639 2.10205C14.358 2.59459 14.8953 3.18563 15.2535 3.82593Z" fill="url(#paint15_linear_17_104880)"/>
<path d="M13.6417 2.06948L12.2312 3.10381C12.2312 3.10381 12.2312 3.10381 12.2312 3.08739L11.2686 0.903809C12.1641 1.18291 12.97 1.57694 13.6417 2.06948Z" fill="url(#paint16_linear_17_104880)"/>
<path d="M12.2089 3.1035L10.2388 3.2841L8.44775 1.97067L11.2463 0.919922L12.2089 3.1035Z" fill="url(#paint17_linear_17_104880)"/>
<path opacity="0.5" d="M8.42529 0.476562C9.41037 0.476562 10.3507 0.624324 11.2238 0.88701L8.42529 1.93776V0.476562Z" fill="url(#paint18_linear_17_104880)"/>
<path d="M8.40294 1.9873L10.1716 3.28432L8.40294 3.43208L6.63428 3.28432L8.40294 1.9873Z" fill="url(#paint19_linear_17_104880)"/>
<path opacity="0.5" d="M8.38061 0.476562V1.92134L5.60449 0.870594C6.45524 0.624325 7.39554 0.49298 8.38061 0.476562Z" fill="url(#paint20_linear_17_104880)"/>
<path d="M8.35787 1.97067L6.58922 3.2841L4.59668 3.11992L5.55937 0.919922L8.35787 1.97067Z" fill="url(#paint21_linear_17_104880)"/>
<path d="M5.51473 0.903809L4.55205 3.08739V3.10381L3.1416 2.06948C3.81324 1.57694 4.61921 1.18291 5.51473 0.903809Z" fill="url(#paint22_linear_17_104880)"/>
<path d="M3.09695 2.10205L4.50739 3.13638L1.52979 3.80951C1.91038 3.16921 2.4477 2.59459 3.09695 2.10205Z" fill="url(#paint23_linear_17_104880)"/>
<path d="M1.50738 3.85889L2.94022 5.94396H0.925293C0.947681 5.20515 1.14917 4.49919 1.50738 3.85889Z" fill="url(#paint24_linear_17_104880)"/>
<path d="M0.947754 5.96045H2.96268L1.50746 7.99627C1.14925 7.38881 0.947754 6.69926 0.947754 5.96045Z" fill="url(#paint25_linear_17_104880)"/>
<path d="M1.52979 8.06201L4.55217 8.76798L3.11934 9.81873C2.44769 9.30977 1.91038 8.71873 1.52979 8.06201Z" fill="url(#paint26_linear_17_104880)"/>
<path d="M3.16406 9.81851L4.5969 8.78418L5.5372 10.9842C4.64168 10.7051 3.8357 10.311 3.16406 9.81851Z" fill="url(#paint27_linear_17_104880)"/>
<path d="M4.61914 8.75134L6.45496 8.52148L8.38034 9.93343L5.58183 10.9678L4.61914 8.75134Z" fill="#EA661D"/>
<path opacity="0.4" d="M8.38061 11.411C7.39554 11.411 6.45524 11.2632 5.60449 11.0169L8.38061 9.99902V11.411Z" fill="url(#paint28_linear_17_104880)"/>
<path d="M6.5 8.52135L8.40299 8.2915L10.2836 8.52135L8.40299 9.91688L6.5 8.52135Z" fill="url(#paint29_linear_17_104880)"/>
<path opacity="0.5" d="M8.42529 11.4113V9.98291L11.2014 11.0008C10.3507 11.2635 9.41037 11.3949 8.42529 11.4113Z" fill="url(#paint30_linear_17_104880)"/>
<path opacity="0.6" d="M8.42529 9.95002L10.3507 8.53809L12.2089 8.76794L11.2238 10.9679L8.42529 9.95002Z" fill="url(#paint31_linear_17_104880)"/>
<path d="M11.2686 10.9839L12.2536 8.80029L13.6417 9.81821C12.97 10.3107 12.1641 10.7048 11.2686 10.9839Z" fill="url(#paint32_linear_17_104880)"/>
<path opacity="0.7" d="M13.6644 9.78571L12.2539 8.75138L15.2539 8.04541C14.8957 8.70213 14.3584 9.29317 13.6644 9.78571Z" fill="url(#paint33_linear_17_104880)"/>
<path d="M15.2761 8.01269L13.8433 5.96045H15.8358C15.8358 6.68284 15.6343 7.38881 15.2761 8.01269Z" fill="url(#paint34_linear_17_104880)"/>
<path opacity="0.3" d="M13.7981 5.92742L8.89517 5.79608L12.2086 3.15279V3.13637C12.2086 3.13637 12.1862 3.13637 12.1638 3.13637L8.58173 5.58264L8.38024 1.98712C8.38024 1.9707 8.35785 1.9707 8.35785 1.9707C8.33547 1.9707 8.33546 1.9707 8.33546 1.98712L8.15636 5.58264L4.55188 3.15279C4.55188 3.15279 4.52949 3.15279 4.50711 3.15279C4.50711 3.15279 4.50711 3.16921 4.50711 3.18563L7.84293 5.81249L2.96233 5.96026C2.93994 5.96026 2.93994 5.97667 2.93994 5.97667C2.93994 5.99309 2.93994 5.99309 2.96233 5.99309L7.84293 6.12443L4.52949 8.76772C4.52949 8.76772 4.52949 8.78413 4.52949 8.80055C4.52949 8.80055 4.55188 8.80055 4.57427 8.80055L8.15636 6.35428L8.35785 9.94981C8.35785 9.96622 8.35785 9.96622 8.38024 9.96622C8.40263 9.96622 8.40263 9.96622 8.40263 9.94981L8.58173 6.35428L12.1862 8.78414H12.2086C12.231 8.78414 12.231 8.78413 12.231 8.76772C12.231 8.76772 12.231 8.7513 12.2086 8.7513L8.87278 6.12443L13.7758 5.97667C13.7982 5.97667 13.7981 5.96026 13.7981 5.96026C13.8205 5.92742 13.8205 5.92742 13.7981 5.92742Z" fill="url(#paint35_linear_17_104880)"/>
<defs>
<linearGradient id="paint0_linear_17_104880" x1="0.899071" y1="5.94396" x2="15.8925" y2="5.94396" gradientUnits="userSpaceOnUse">
<stop stop-color="#FFC936"/>
<stop offset="1" stop-color="#FF7438"/>
</linearGradient>
<linearGradient id="paint1_linear_17_104880" x1="9.73192" y1="2.32339" x2="12.8824" y2="5.4432" gradientUnits="userSpaceOnUse">
<stop stop-color="#FF7438"/>
<stop offset="1" stop-color="#991E00"/>
</linearGradient>
<linearGradient id="paint2_linear_17_104880" x1="4.58105" y1="3.86442" x2="6.53214" y2="3.86442" gradientUnits="userSpaceOnUse">
<stop stop-color="#FFC936"/>
<stop offset="1" stop-color="#FF7438"/>
</linearGradient>
<linearGradient id="paint3_linear_17_104880" x1="1.57749" y1="3.09325" x2="4.56109" y2="8.38881" gradientUnits="userSpaceOnUse">
<stop stop-color="#FFC936"/>
<stop offset="1" stop-color="#FF7438"/>
</linearGradient>
<linearGradient id="paint4_linear_17_104880" x1="0.974723" y1="1.63782" x2="3.63179" y2="6.77783" gradientUnits="userSpaceOnUse">
<stop stop-color="#FFEACF"/>
<stop offset="1" stop-color="#FFD278"/>
</linearGradient>
<linearGradient id="paint5_linear_17_104880" x1="-2.09204" y1="9.72458" x2="2.8563" y2="6.01886" gradientUnits="userSpaceOnUse">
<stop stop-color="#FFEACF"/>
<stop offset="1" stop-color="#FFD278"/>
</linearGradient>
<linearGradient id="paint6_linear_17_104880" x1="4.61422" y1="8.026" x2="6.40439" y2="8.026" gradientUnits="userSpaceOnUse">
<stop stop-color="#FFC936"/>
<stop offset="1" stop-color="#FF7438"/>
</linearGradient>
<linearGradient id="paint7_linear_17_104880" x1="5.21532" y1="3.455" x2="11.7399" y2="12.9438" gradientUnits="userSpaceOnUse">
<stop stop-color="#FFEACF"/>
<stop offset="1" stop-color="#FFD278"/>
</linearGradient>
<linearGradient id="paint8_linear_17_104880" x1="5.19527" y1="3.46911" x2="11.7194" y2="12.9572" gradientUnits="userSpaceOnUse">
<stop stop-color="#FFEACF"/>
<stop offset="1" stop-color="#FFD278"/>
</linearGradient>
<linearGradient id="paint9_linear_17_104880" x1="5.21567" y1="3.4553" x2="11.7397" y2="12.9432" gradientUnits="userSpaceOnUse">
<stop stop-color="#FFEACF"/>
<stop offset="1" stop-color="#FFD278"/>
</linearGradient>
<linearGradient id="paint10_linear_17_104880" x1="5.36368" y1="3.35339" x2="11.888" y2="12.8417" gradientUnits="userSpaceOnUse">
<stop stop-color="#FFEACF"/>
<stop offset="1" stop-color="#FFD278"/>
</linearGradient>
<linearGradient id="paint11_linear_17_104880" x1="12.1695" y1="1.19414" x2="13.6737" y2="6.93379" gradientUnits="userSpaceOnUse">
<stop stop-color="#FFC936"/>
<stop offset="1" stop-color="#FF7438"/>
</linearGradient>
<linearGradient id="paint12_linear_17_104880" x1="12.2358" y1="5.08679" x2="13.6236" y2="10.6329" gradientUnits="userSpaceOnUse">
<stop stop-color="#FFC936"/>
<stop offset="1" stop-color="#FF7438"/>
</linearGradient>
<linearGradient id="paint13_linear_17_104880" x1="11.4035" y1="1.27426" x2="11.2114" y2="5.62117" gradientUnits="userSpaceOnUse">
<stop stop-color="#FF7438"/>
<stop offset="1" stop-color="#991E00"/>
</linearGradient>
<linearGradient id="paint14_linear_17_104880" x1="9.27819" y1="6.30403" x2="12.3481" y2="11.0275" gradientUnits="userSpaceOnUse">
<stop stop-color="#FFC936"/>
<stop offset="1" stop-color="#FF7438"/>
</linearGradient>
<linearGradient id="paint15_linear_17_104880" x1="9.41957" y1="0.712537" x2="12.0257" y2="3.29486" gradientUnits="userSpaceOnUse">
<stop stop-color="#FF7438"/>
<stop offset="1" stop-color="#991E00"/>
</linearGradient>
<linearGradient id="paint16_linear_17_104880" x1="11.2825" y1="2.00721" x2="13.6481" y2="2.00721" gradientUnits="userSpaceOnUse">
<stop stop-color="#FFC936"/>
<stop offset="1" stop-color="#FF7438"/>
</linearGradient>
<linearGradient id="paint17_linear_17_104880" x1="9.62326" y1="1.12996" x2="12.2915" y2="8.36766" gradientUnits="userSpaceOnUse">
<stop stop-color="#FFE981"/>
<stop offset="1" stop-color="#F8ECFF"/>
</linearGradient>
<linearGradient id="paint18_linear_17_104880" x1="6.43929" y1="6.30585" x2="8.74416" y2="-0.828579" gradientUnits="userSpaceOnUse">
<stop stop-color="#FFEACF"/>
<stop offset="1" stop-color="#FFD278"/>
</linearGradient>
<linearGradient id="paint19_linear_17_104880" x1="7.24943" y1="0.630774" x2="8.05087" y2="4.0584" gradientUnits="userSpaceOnUse">
<stop stop-color="#FFC936"/>
<stop offset="1" stop-color="#FF7438"/>
</linearGradient>
<linearGradient id="paint20_linear_17_104880" x1="7.07183" y1="0.293125" x2="6.83604" y2="5.77682" gradientUnits="userSpaceOnUse">
<stop stop-color="#FFEACF"/>
<stop offset="1" stop-color="#FFD278"/>
</linearGradient>
<linearGradient id="paint21_linear_17_104880" x1="4.85237" y1="0.648846" x2="7.78724" y2="7.01114" gradientUnits="userSpaceOnUse">
<stop stop-color="#FFEACF"/>
<stop offset="1" stop-color="#FFD278"/>
</linearGradient>
<linearGradient id="paint22_linear_17_104880" x1="3.71964" y1="0.902741" x2="7.50007" y2="7.66885" gradientUnits="userSpaceOnUse">
<stop stop-color="#FFC936"/>
<stop offset="1" stop-color="#FF7438"/>
</linearGradient>
<linearGradient id="paint23_linear_17_104880" x1="1.54064" y1="2.95558" x2="4.50903" y2="2.95558" gradientUnits="userSpaceOnUse">
<stop stop-color="#FFC936"/>
<stop offset="1" stop-color="#FF7438"/>
</linearGradient>
<linearGradient id="paint24_linear_17_104880" x1="0.948353" y1="4.8986" x2="2.9543" y2="4.8986" gradientUnits="userSpaceOnUse">
<stop stop-color="#FFC936"/>
<stop offset="1" stop-color="#FF7438"/>
</linearGradient>
<linearGradient id="paint25_linear_17_104880" x1="0.948649" y1="6.99195" x2="2.95854" y2="6.99195" gradientUnits="userSpaceOnUse">
<stop stop-color="#FFC936"/>
<stop offset="1" stop-color="#FF7438"/>
</linearGradient>
<linearGradient id="paint26_linear_17_104880" x1="1.5284" y1="8.92942" x2="4.55298" y2="8.92942" gradientUnits="userSpaceOnUse">
<stop stop-color="#FFC936"/>
<stop offset="1" stop-color="#FF7438"/>
</linearGradient>
<linearGradient id="paint27_linear_17_104880" x1="3.16285" y1="9.88337" x2="5.51797" y2="9.88337" gradientUnits="userSpaceOnUse">
<stop stop-color="#FFC936"/>
<stop offset="1" stop-color="#FF7438"/>
</linearGradient>
<linearGradient id="paint28_linear_17_104880" x1="6.03797" y1="8.80056" x2="6.62671" y2="10.7503" gradientUnits="userSpaceOnUse">
<stop stop-color="#FFC936"/>
<stop offset="1" stop-color="#FF7438"/>
</linearGradient>
<linearGradient id="paint29_linear_17_104880" x1="8.32716" y1="7.27499" x2="8.40569" y2="9.96982" gradientUnits="userSpaceOnUse">
<stop stop-color="#FFC936"/>
<stop offset="1" stop-color="#FF7438"/>
</linearGradient>
<linearGradient id="paint30_linear_17_104880" x1="9.74751" y1="7.13105" x2="9.78675" y2="11.5543" gradientUnits="userSpaceOnUse">
<stop stop-color="#FF7438"/>
<stop offset="1" stop-color="#991E00"/>
</linearGradient>
<linearGradient id="paint31_linear_17_104880" x1="8.03693" y1="5.33479" x2="9.88915" y2="11.4195" gradientUnits="userSpaceOnUse">
<stop stop-color="#FF7438"/>
<stop offset="1" stop-color="#991E00"/>
</linearGradient>
<linearGradient id="paint32_linear_17_104880" x1="7.51811" y1="7.73566" x2="10.428" y2="10.4847" gradientUnits="userSpaceOnUse">
<stop stop-color="#FF7438"/>
<stop offset="1" stop-color="#991E00"/>
</linearGradient>
<linearGradient id="paint33_linear_17_104880" x1="13.459" y1="6.63293" x2="13.6522" y2="8.69317" gradientUnits="userSpaceOnUse">
<stop stop-color="#FF7438"/>
<stop offset="1" stop-color="#991E00"/>
</linearGradient>
<linearGradient id="paint34_linear_17_104880" x1="9.36865" y1="6.30109" x2="15.0476" y2="7.47244" gradientUnits="userSpaceOnUse">
<stop stop-color="#FF7438"/>
<stop offset="1" stop-color="#991E00"/>
</linearGradient>
<linearGradient id="paint35_linear_17_104880" x1="7.57234" y1="5.08232" x2="13.9803" y2="17.6293" gradientUnits="userSpaceOnUse">
<stop stop-color="#FFEACF"/>
<stop offset="1" stop-color="#FFD278"/>
</linearGradient>
</defs>
</svg>
