<svg width="16" height="12" viewBox="0 0 16 12" fill="none" xmlns="http://www.w3.org/2000/svg">
<path d="M15.1289 10.8511C13.3381 5.21207 7.71556 0.685571 7.65779 0.639849C7.63853 0.624608 7.61928 0.624608 7.60002 0.639849C7.54226 0.685571 1.91966 5.19683 0.128906 10.8511C0.128906 10.8664 0.128906 10.8816 0.167417 10.8969C0.205928 10.8969 3.67191 11.6284 8.06215 11.6284C10.6231 11.6284 12.9916 11.3846 15.1097 10.9121C15.1289 10.8664 15.1289 10.8511 15.1289 10.8511Z" fill="url(#paint0_linear_17_104816)"/>
<path opacity="0.6" d="M12.0479 7.22384L12.2212 5.54736L12.2597 5.60833C12.6833 6.17223 13.0684 6.75138 13.415 7.31529L13.4342 7.36101L12.0479 7.22384Z" fill="url(#paint1_linear_17_104816)"/>
<path opacity="0.3" d="M11.8555 9.40344L12.048 7.23926L13.4537 7.37642L11.8555 9.40344Z" fill="url(#paint2_linear_17_104816)"/>
<path d="M10.2764 6.46191L12.0479 7.23919L11.8553 9.38814C11.8553 9.38814 11.3354 7.94027 10.2764 6.46191Z" fill="url(#paint3_linear_17_104816)"/>
<path d="M10.2766 6.44673L9.81445 4.4502L12.2214 5.54753L12.0481 7.22401L10.2766 6.44673Z" fill="url(#paint4_linear_17_104816)"/>
<path opacity="0.5" d="M7.63867 3.67285L9.79528 4.45013L8.89028 4.83114C8.89028 4.83114 8.13931 4.05387 7.63867 3.67285Z" fill="url(#paint5_linear_17_104816)"/>
<path opacity="0.1" d="M7.61914 3.65746L10.3342 3.3374L9.79501 4.43474L7.61914 3.65746Z" fill="url(#paint6_linear_17_104816)"/>
<path opacity="0.9" d="M10.2573 6.43149C9.77589 5.74566 8.89014 4.83121 8.89014 4.83121L9.79514 4.4502L10.2573 6.43149Z" fill="url(#paint7_linear_17_104816)"/>
<path d="M9.81445 4.43456L10.3729 3.2915L10.4114 3.33722C11.0468 4.0383 11.6437 4.75461 12.1829 5.47093L12.2406 5.54713L9.81445 4.43456Z" fill="url(#paint8_linear_17_104816)"/>
<path opacity="0.3" d="M7.63867 0.685547L7.69644 0.731267C8.00453 0.975119 9.06358 1.88956 10.3537 3.27647L10.3922 3.30695L7.63867 3.64225V0.685547Z" fill="url(#paint9_linear_17_104816)"/>
<path opacity="0.9" d="M7.86961 9.84535C5.61672 9.84535 3.78745 9.51005 3.44085 9.44909H3.40234V9.41861C3.80671 8.13838 4.63469 6.90389 5.46268 5.92848C6.57949 4.58729 7.60003 3.67285 7.60003 3.67285C8.38951 4.3282 9.58335 5.57794 10.2188 6.4619C11.3163 8.01646 11.8362 9.41861 11.8362 9.41861C11.8362 9.41861 10.3728 9.83011 7.86961 9.84535Z" fill="url(#paint10_linear_17_104816)"/>
<path d="M8.69761 4.67865C8.50506 4.48052 8.3125 4.28239 8.11995 4.11475L4.82727 6.72091C4.40365 7.3153 3.99928 7.95541 3.71045 8.626L8.69761 4.67865Z" fill="url(#paint11_linear_17_104816)"/>
<path d="M9.81447 5.91287C9.58341 5.6233 9.31383 5.31849 9.025 5.01367C7.15722 6.49202 5.3087 7.95513 3.44092 9.43348C3.61422 9.46397 4.21114 9.57065 5.05838 9.67734L9.81447 5.91287Z" fill="url(#paint12_linear_17_104816)"/>
<path d="M10.5845 6.97988C10.469 6.81224 10.3535 6.64459 10.2379 6.4617C10.1994 6.40074 10.1416 6.33977 10.1031 6.27881C8.63972 7.4371 7.17631 8.5954 5.71289 9.7537C6.098 9.78418 6.54087 9.81466 6.98375 9.8299L10.5845 6.97988Z" fill="url(#paint13_linear_17_104816)"/>
<path d="M7.86953 9.84547C8.52421 9.84547 9.08262 9.81498 9.58326 9.76926L11.3548 8.36711C11.2007 8.07754 11.0274 7.74224 10.7964 7.37646C9.75656 8.19946 8.71676 9.02246 7.65771 9.8607C7.75399 9.84546 7.81176 9.84547 7.86953 9.84547Z" fill="url(#paint14_linear_17_104816)"/>
<path opacity="0.4" d="M9.81445 9.76879H9.85296C10.4306 9.70782 11.3356 9.57066 11.817 9.44873L11.5474 9.5859L9.89148 10.4241L9.81445 9.76879Z" fill="url(#paint15_linear_17_104816)"/>
<path d="M7.65771 9.86038C8.27389 9.86038 9.15964 9.8299 9.75656 9.78418H9.79507L9.87209 10.4091L7.65771 9.86038Z" fill="url(#paint16_linear_17_104816)"/>
<path d="M5.44323 9.73877C6.07866 9.79973 6.96441 9.83022 7.58059 9.84546L5.36621 10.3941L5.44323 9.73877Z" fill="#FF509D"/>
<path opacity="0.6" d="M3.42139 9.44873C3.42139 9.44873 4.51895 9.6621 5.42395 9.7383L5.34693 10.4089L3.42139 9.44873Z" fill="url(#paint17_linear_17_104816)"/>
<path d="M3.3832 9.41834L3.17139 7.22367L5.00066 6.43115C4.24969 7.39132 3.74905 8.32101 3.44096 9.23545L3.3832 9.41834Z" fill="url(#paint18_linear_17_104816)"/>
<path d="M4.88477 3.3374L7.59978 3.65746L5.42392 4.43474L4.88477 3.3374Z" fill="url(#paint19_linear_17_104816)"/>
<path d="M5.44336 4.4345L7.59997 3.65723C7.08007 4.09921 6.38688 4.83076 6.38688 4.83076L5.44336 4.4345Z" fill="url(#paint20_linear_17_104816)"/>
<path opacity="0.1" d="M5.4239 4.4502L6.36741 4.8617C6.36741 4.8617 5.40464 5.91331 5.01953 6.43149L5.4239 4.4502Z" fill="url(#paint21_linear_17_104816)"/>
<path opacity="0.7" d="M4.86572 3.32209L4.90423 3.29161C6.19435 1.9047 7.2534 0.990256 7.56149 0.746404L7.61925 0.700684V3.64214L4.86572 3.32209Z" fill="url(#paint22_linear_17_104816)"/>
<path d="M3.09411 5.44083C3.61401 4.73976 4.21093 4.03869 4.8271 3.35285L4.86561 3.30713L5.40477 4.41971L3.01709 5.51704L3.09411 5.44083Z" fill="url(#paint23_linear_17_104816)"/>
<path d="M3.01709 5.56277L5.40477 4.4502L5.0004 6.41625L3.19039 7.22401L3.01709 5.56277Z" fill="url(#paint24_linear_17_104816)"/>
<path d="M1.82345 7.31518C2.17005 6.75128 2.53591 6.18737 2.94027 5.6387L2.99804 5.5625L3.17134 7.2085L1.8042 7.3609L1.82345 7.31518Z" fill="url(#paint25_linear_17_104816)"/>
<path d="M1.78467 7.37642L3.17106 7.23926L3.38287 9.41868L1.78467 7.37642Z" fill="url(#paint26_linear_17_104816)"/>
<path opacity="0.7" d="M0.205779 10.7749C0.552377 9.69284 1.07227 8.58027 1.74622 7.45246L1.76547 7.40674L3.34442 9.43375L0.186523 10.8359L0.205779 10.7749Z" fill="url(#paint27_linear_17_104816)"/>
<path opacity="0.4" d="M4.26868 11.4148C2.09281 11.2319 0.552377 10.9271 0.263545 10.8814L0.186523 10.8661L3.38293 9.44873L4.3457 11.4148H4.26868Z" fill="url(#paint28_linear_17_104816)"/>
<path d="M3.38281 9.44873L5.34687 10.4241L4.32633 11.3843L3.38281 9.44873Z" fill="url(#paint29_linear_17_104816)"/>
<path opacity="0.8" d="M7.4653 11.5826C6.50253 11.5674 5.46273 11.5064 4.38443 11.415H4.32666L5.36646 10.4243L7.60009 11.5826H7.4653Z" fill="url(#paint30_linear_17_104816)"/>
<path opacity="0.7" d="M7.6191 9.86035L5.36621 10.4243L7.6191 11.5826C7.65761 11.5673 9.75645 10.4547 9.77571 10.4395L9.83348 10.409L7.6191 9.86035Z" fill="url(#paint31_linear_17_104816)"/>
<path d="M7.65771 11.5827L9.85284 10.4092L10.8734 11.476H10.8156C9.92986 11.537 8.98634 11.5827 8.04282 11.5827H7.7925H7.65771Z" fill="url(#paint32_linear_17_104816)"/>
<path d="M9.8916 10.4243L11.8557 9.41846L10.8929 11.4607L9.8916 10.4243Z" fill="url(#paint33_linear_17_104816)"/>
<path opacity="0.4" d="M11.8749 9.43359L15.0713 10.8662L14.9943 10.8815C13.7427 11.1558 12.3948 11.3539 10.9699 11.4759H10.9121L11.8749 9.43359Z" fill="url(#paint34_linear_17_104816)"/>
<path opacity="0.4" d="M11.8745 9.41862L13.4727 7.3916L13.492 7.43732C14.1659 8.56514 14.6858 9.69295 15.0517 10.7903L15.0709 10.8512L11.8745 9.41862Z" fill="url(#paint35_linear_17_104816)"/>
<defs>
<linearGradient id="paint0_linear_17_104816" x1="0.128926" y1="6.12578" x2="15.1294" y2="6.12578" gradientUnits="userSpaceOnUse">
<stop stop-color="#FF5CAA"/>
<stop offset="0.11" stop-color="#FF56A6"/>
<stop offset="0.6681" stop-color="#FF3C92"/>
<stop offset="1" stop-color="#FF328B"/>
</linearGradient>
<linearGradient id="paint1_linear_17_104816" x1="9.42145" y1="3.96205" x2="11.1284" y2="6.38562" gradientUnits="userSpaceOnUse">
<stop stop-color="#FF328B"/>
<stop offset="1" stop-color="#960049"/>
</linearGradient>
<linearGradient id="paint2_linear_17_104816" x1="10.4104" y1="5.63491" x2="11.4316" y2="7.63766" gradientUnits="userSpaceOnUse">
<stop stop-color="#FF328B"/>
<stop offset="1" stop-color="#960049"/>
</linearGradient>
<linearGradient id="paint3_linear_17_104816" x1="11.0406" y1="7.9265" x2="14.8552" y2="5.74037" gradientUnits="userSpaceOnUse">
<stop stop-color="#FF5CAA"/>
<stop offset="0.11" stop-color="#FF56A6"/>
<stop offset="0.6681" stop-color="#FF3C92"/>
<stop offset="1" stop-color="#FF328B"/>
</linearGradient>
<linearGradient id="paint4_linear_17_104816" x1="9.91327" y1="4.562" x2="14.6771" y2="12.7515" gradientUnits="userSpaceOnUse">
<stop stop-color="#FFF0F7"/>
<stop offset="1" stop-color="#FF629D"/>
</linearGradient>
<linearGradient id="paint5_linear_17_104816" x1="8.6786" y1="3.90137" x2="9.24534" y2="8.19752" gradientUnits="userSpaceOnUse">
<stop stop-color="#FFF0F7"/>
<stop offset="1" stop-color="#FF629D"/>
</linearGradient>
<linearGradient id="paint6_linear_17_104816" x1="7.62149" y1="3.88296" x2="10.3334" y2="3.88296" gradientUnits="userSpaceOnUse">
<stop stop-color="#FFF0F7"/>
<stop offset="1" stop-color="#FF629D"/>
</linearGradient>
<linearGradient id="paint7_linear_17_104816" x1="9.59683" y1="5.59179" x2="13.2834" y2="3.58847" gradientUnits="userSpaceOnUse">
<stop stop-color="#FF5CAA"/>
<stop offset="0.11" stop-color="#FF56A6"/>
<stop offset="0.6681" stop-color="#FF3C92"/>
<stop offset="1" stop-color="#FF328B"/>
</linearGradient>
<linearGradient id="paint8_linear_17_104816" x1="9.81545" y1="4.41761" x2="12.2248" y2="4.41761" gradientUnits="userSpaceOnUse">
<stop stop-color="#FF5CAA"/>
<stop offset="0.11" stop-color="#FF56A6"/>
<stop offset="0.6681" stop-color="#FF3C92"/>
<stop offset="1" stop-color="#FF328B"/>
</linearGradient>
<linearGradient id="paint9_linear_17_104816" x1="7.04597" y1="-1.584" x2="7.85004" y2="1.7235" gradientUnits="userSpaceOnUse">
<stop stop-color="#FF5CAA"/>
<stop offset="0.11" stop-color="#FF56A6"/>
<stop offset="0.6681" stop-color="#FF3C92"/>
<stop offset="1" stop-color="#FF328B"/>
</linearGradient>
<linearGradient id="paint10_linear_17_104816" x1="4.60194" y1="5.13505" x2="9.47585" y2="14.9722" gradientUnits="userSpaceOnUse">
<stop stop-color="#FFF0F7"/>
<stop offset="1" stop-color="#FF629D"/>
</linearGradient>
<linearGradient id="paint11_linear_17_104816" x1="4.8901" y1="4.99228" x2="9.76387" y2="14.8292" gradientUnits="userSpaceOnUse">
<stop stop-color="#FFF0F7"/>
<stop offset="1" stop-color="#FF629D"/>
</linearGradient>
<linearGradient id="paint12_linear_17_104816" x1="4.60936" y1="5.13124" x2="9.48313" y2="14.9681" gradientUnits="userSpaceOnUse">
<stop stop-color="#FFF0F7"/>
<stop offset="1" stop-color="#FF629D"/>
</linearGradient>
<linearGradient id="paint13_linear_17_104816" x1="5.33716" y1="4.77023" x2="10.2114" y2="14.608" gradientUnits="userSpaceOnUse">
<stop stop-color="#FFF0F7"/>
<stop offset="1" stop-color="#FF629D"/>
</linearGradient>
<linearGradient id="paint14_linear_17_104816" x1="5.976" y1="4.45442" x2="10.8499" y2="14.2916" gradientUnits="userSpaceOnUse">
<stop stop-color="#FFF0F7"/>
<stop offset="1" stop-color="#FF629D"/>
</linearGradient>
<linearGradient id="paint15_linear_17_104816" x1="10.0954" y1="7.88601" x2="10.4495" y2="9.42831" gradientUnits="userSpaceOnUse">
<stop stop-color="#FF328B"/>
<stop offset="1" stop-color="#960049"/>
</linearGradient>
<linearGradient id="paint16_linear_17_104816" x1="8.66614" y1="10.3209" x2="7.47706" y2="14.1908" gradientUnits="userSpaceOnUse">
<stop stop-color="#FF5CAA"/>
<stop offset="0.11" stop-color="#FF56A6"/>
<stop offset="0.6681" stop-color="#FF3C92"/>
<stop offset="1" stop-color="#FF328B"/>
</linearGradient>
<linearGradient id="paint17_linear_17_104816" x1="4.96517" y1="8.917" x2="4.0807" y2="11.3718" gradientUnits="userSpaceOnUse">
<stop stop-color="#FF328B"/>
<stop offset="1" stop-color="#960049"/>
</linearGradient>
<linearGradient id="paint18_linear_17_104816" x1="1.96243" y1="6.24939" x2="4.54785" y2="9.34504" gradientUnits="userSpaceOnUse">
<stop stop-color="#FF5CAA"/>
<stop offset="0.11" stop-color="#FF56A6"/>
<stop offset="0.6681" stop-color="#FF3C92"/>
<stop offset="1" stop-color="#FF328B"/>
</linearGradient>
<linearGradient id="paint19_linear_17_104816" x1="6.14353" y1="3.18371" x2="7.24219" y2="8.47235" gradientUnits="userSpaceOnUse">
<stop stop-color="#FFF0F7"/>
<stop offset="1" stop-color="#FF629D"/>
</linearGradient>
<linearGradient id="paint20_linear_17_104816" x1="6.11125" y1="3.6828" x2="8.6881" y2="7.42883" gradientUnits="userSpaceOnUse">
<stop stop-color="#FF5CAA"/>
<stop offset="1" stop-color="#FF328B"/>
</linearGradient>
<linearGradient id="paint21_linear_17_104816" x1="4.63255" y1="5.08424" x2="8.94568" y2="8.69653" gradientUnits="userSpaceOnUse">
<stop stop-color="#FFF0F7"/>
<stop offset="1" stop-color="#FF629D"/>
</linearGradient>
<linearGradient id="paint22_linear_17_104816" x1="5.54057" y1="1.2012" x2="9.99557" y2="9.25314" gradientUnits="userSpaceOnUse">
<stop stop-color="#FFF0F7"/>
<stop offset="1" stop-color="#FF629D"/>
</linearGradient>
<linearGradient id="paint23_linear_17_104816" x1="2.32226" y1="2.95894" x2="4.12525" y2="5.56426" gradientUnits="userSpaceOnUse">
<stop stop-color="#FF5CAA"/>
<stop offset="0.11" stop-color="#FF56A6"/>
<stop offset="0.6681" stop-color="#FF3C92"/>
<stop offset="1" stop-color="#FF328B"/>
</linearGradient>
<linearGradient id="paint24_linear_17_104816" x1="0.71071" y1="3.03165" x2="5.32882" y2="8.80282" gradientUnits="userSpaceOnUse">
<stop stop-color="#FFF0F7"/>
<stop offset="1" stop-color="#FF629D"/>
</linearGradient>
<linearGradient id="paint25_linear_17_104816" x1="1.65343" y1="5.62537" x2="3.16989" y2="8.3624" gradientUnits="userSpaceOnUse">
<stop stop-color="#FF5CAA"/>
<stop offset="0.11" stop-color="#FF56A6"/>
<stop offset="0.6681" stop-color="#FF3C92"/>
<stop offset="1" stop-color="#FF328B"/>
</linearGradient>
<linearGradient id="paint26_linear_17_104816" x1="2.40881" y1="8.51364" x2="5.7447" y2="5.04927" gradientUnits="userSpaceOnUse">
<stop stop-color="#FF5CAA"/>
<stop offset="1" stop-color="#FF328B"/>
</linearGradient>
<linearGradient id="paint27_linear_17_104816" x1="3.34473" y1="8.44254" x2="11.3108" y2="4.80601" gradientUnits="userSpaceOnUse">
<stop stop-color="#FF328B"/>
<stop offset="1" stop-color="#960049"/>
</linearGradient>
<linearGradient id="paint28_linear_17_104816" x1="1.30361" y1="6.72811" x2="1.64654" y2="9.27569" gradientUnits="userSpaceOnUse">
<stop stop-color="#FF328B"/>
<stop offset="1" stop-color="#960049"/>
</linearGradient>
<linearGradient id="paint29_linear_17_104816" x1="3.38947" y1="10.4139" x2="5.33815" y2="10.4139" gradientUnits="userSpaceOnUse">
<stop stop-color="#FF5CAA"/>
<stop offset="0.11" stop-color="#FF56A6"/>
<stop offset="0.6681" stop-color="#FF3C92"/>
<stop offset="1" stop-color="#FF328B"/>
</linearGradient>
<linearGradient id="paint30_linear_17_104816" x1="6.04099" y1="9.13624" x2="5.97764" y2="11.9263" gradientUnits="userSpaceOnUse">
<stop stop-color="#FF328B"/>
<stop offset="1" stop-color="#960049"/>
</linearGradient>
<linearGradient id="paint31_linear_17_104816" x1="7.55943" y1="9.79463" x2="7.74056" y2="14.463" gradientUnits="userSpaceOnUse">
<stop stop-color="#FF328B"/>
<stop offset="1" stop-color="#960049"/>
</linearGradient>
<linearGradient id="paint32_linear_17_104816" x1="8.77528" y1="8.93291" x2="8.98512" y2="10.708" gradientUnits="userSpaceOnUse">
<stop stop-color="#FF328B"/>
<stop offset="1" stop-color="#960049"/>
</linearGradient>
<linearGradient id="paint33_linear_17_104816" x1="9.18335" y1="8.61881" x2="11.4483" y2="11.6331" gradientUnits="userSpaceOnUse">
<stop stop-color="#FF5CAA"/>
<stop offset="0.11" stop-color="#FF56A6"/>
<stop offset="0.6681" stop-color="#FF3C92"/>
<stop offset="1" stop-color="#FF328B"/>
</linearGradient>
<linearGradient id="paint34_linear_17_104816" x1="10.2799" y1="7.65456" x2="11.035" y2="9.21909" gradientUnits="userSpaceOnUse">
<stop stop-color="#FF328B"/>
<stop offset="1" stop-color="#960049"/>
</linearGradient>
<linearGradient id="paint35_linear_17_104816" x1="10.6928" y1="7.50281" x2="18.5438" y2="13.2015" gradientUnits="userSpaceOnUse">
<stop stop-color="#FFF0F7"/>
<stop offset="1" stop-color="#FF629D"/>
</linearGradient>
</defs>
</svg>
