<svg width="106" height="37" viewBox="0 0 106 37" fill="none" xmlns="http://www.w3.org/2000/svg">
<rect x="0.900024" width="105" height="36.2915" rx="18" fill="white"/>
<path d="M44.8635 15.5061C43.2635 16.1111 41.8075 17.1421 41.7635 18.6061C41.7806 19.4157 41.8403 20.2238 41.9425 21.0271C42.0324 21.8099 42.7397 22.3718 43.5225 22.2821L43.5785 22.2751L48.0615 21.5651C48.625 21.4748 49.0804 21.0575 49.2195 20.5041L49.8025 18.1881C52.0363 17.7593 54.3282 17.7288 56.5725 18.0981L56.9906 18.1651L57.5806 20.4961C57.7197 21.0495 58.1751 21.4668 58.7386 21.5571L63.2215 22.2671C63.5957 22.3252 63.9775 22.2322 64.283 22.0086C64.5885 21.7851 64.7927 21.4493 64.8505 21.0751C64.8505 21.0561 64.8555 21.0381 64.8575 21.0191C64.9598 20.2158 65.0195 19.4077 65.0366 18.5981C64.9916 17.1041 63.5425 16.1471 61.9366 15.4981C56.9836 13.4511 49.9975 13.5481 44.8635 15.5061Z" fill="#E23548"/>
</svg>
