<svg width="90" height="37" viewBox="0 0 90 37" fill="none" xmlns="http://www.w3.org/2000/svg">
<rect x="0.900024" y="0.525391" width="89" height="36" rx="18" fill="white" fill-opacity="0.25"/>
<path d="M30.7 17.3825C29.4625 17.3825 28.5 18.4182 28.5 19.6682H15.3C15.3 18.4182 14.3031 17.3825 13.1 17.3825C11.8625 17.3825 10.9 18.4182 10.9 19.6682V25.3825C10.9 26.0254 11.3813 26.5254 12 26.5254H14.2C14.7844 26.5254 15.3 26.0254 15.3 25.3825H28.5C28.5 26.0254 28.9813 26.5254 29.6 26.5254H31.8C32.3844 26.5254 32.9 26.0254 32.9 25.3825V19.6682C32.9 18.4182 31.9032 17.3825 30.7 17.3825ZM13.65 24.8111H12.55V19.6682C12.55 19.3825 12.7906 19.0968 13.1 19.0968C13.375 19.0968 13.65 19.3825 13.65 19.6682V24.8111ZM28.5 23.6682H15.3V21.3825H28.5V23.6682ZM31.25 24.8111H30.15V19.6682C30.15 19.3825 30.3906 19.0968 30.7 19.0968C30.975 19.0968 31.25 19.3825 31.25 19.6682V24.8111ZM13.925 16.2397C14.3719 16.2397 14.75 15.8825 14.75 15.3825V14.8111C14.75 13.4182 15.85 12.2397 17.225 12.2397H26.575C27.9156 12.2397 29.05 13.4182 29.05 14.8111V15.3825C29.05 15.8825 29.3938 16.2397 29.875 16.2397C30.3219 16.2397 30.7 15.8825 30.7 15.3825V14.8111C30.7 12.454 28.8438 10.5254 26.575 10.5254H17.225C14.9219 10.5254 13.1 12.454 13.1 14.8111V15.3825C13.1 15.8825 13.4438 16.2397 13.925 16.2397Z" fill="white"/>
<path d="M43.891 22.6814C43.2237 22.6814 42.6344 22.5687 42.123 22.3434C41.6117 22.1094 41.2087 21.7801 40.914 21.3554C40.6194 20.9221 40.4677 20.3977 40.459 19.7824H42.214C42.2314 20.2071 42.383 20.5667 42.669 20.8614C42.9637 21.1474 43.3667 21.2904 43.878 21.2904C44.32 21.2904 44.671 21.1864 44.931 20.9784C45.191 20.7617 45.321 20.4757 45.321 20.1204C45.321 19.7477 45.204 19.4574 44.97 19.2494C44.7447 19.0414 44.4414 18.8724 44.06 18.7424C43.6787 18.6124 43.2714 18.4737 42.838 18.3264C42.136 18.0837 41.5987 17.7717 41.226 17.3904C40.862 17.0091 40.68 16.5021 40.68 15.8694C40.6714 15.3321 40.797 14.8727 41.057 14.4914C41.3257 14.1014 41.6897 13.8024 42.149 13.5944C42.6084 13.3777 43.137 13.2694 43.735 13.2694C44.3417 13.2694 44.8747 13.3777 45.334 13.5944C45.802 13.8111 46.166 14.1144 46.426 14.5044C46.6947 14.8944 46.8377 15.3581 46.855 15.8954H45.074C45.0654 15.5747 44.9397 15.2931 44.697 15.0504C44.463 14.7991 44.1337 14.6734 43.709 14.6734C43.345 14.6647 43.0374 14.7557 42.786 14.9464C42.5434 15.1284 42.422 15.3971 42.422 15.7524C42.422 16.0557 42.5174 16.2984 42.708 16.4804C42.8987 16.6537 43.1587 16.8011 43.488 16.9224C43.8174 17.0437 44.1944 17.1737 44.619 17.3124C45.0697 17.4684 45.4814 17.6504 45.854 17.8584C46.2267 18.0664 46.5257 18.3437 46.751 18.6904C46.9764 19.0284 47.089 19.4661 47.089 20.0034C47.089 20.4801 46.9677 20.9221 46.725 21.3294C46.4824 21.7367 46.1227 22.0661 45.646 22.3174C45.1694 22.5601 44.5844 22.6814 43.891 22.6814ZM51.6349 22.6814C50.9849 22.6814 50.4085 22.5427 49.9059 22.2654C49.4032 21.9881 49.0089 21.5981 48.7229 21.0954C48.4369 20.5927 48.2939 20.0121 48.2939 19.3534C48.2939 18.6861 48.4325 18.0924 48.7099 17.5724C48.9959 17.0524 49.3859 16.6494 49.8799 16.3634C50.3825 16.0687 50.9719 15.9214 51.6479 15.9214C52.2805 15.9214 52.8395 16.0601 53.3249 16.3374C53.8102 16.6147 54.1872 16.9961 54.4559 17.4814C54.7332 17.9581 54.8719 18.4911 54.8719 19.0804C54.8719 19.1757 54.8675 19.2754 54.8589 19.3794C54.8589 19.4834 54.8545 19.5917 54.8459 19.7044H49.9449C49.9795 20.2071 50.1529 20.6014 50.4649 20.8874C50.7855 21.1734 51.1712 21.3164 51.6219 21.3164C51.9599 21.3164 52.2415 21.2427 52.4669 21.0954C52.7009 20.9394 52.8742 20.7401 52.9869 20.4974H54.6769C54.5555 20.9047 54.3519 21.2774 54.0659 21.6154C53.7885 21.9447 53.4419 22.2047 53.0259 22.3954C52.6185 22.5861 52.1549 22.6814 51.6349 22.6814ZM51.6479 17.2734C51.2405 17.2734 50.8809 17.3904 50.5689 17.6244C50.2569 17.8497 50.0575 18.1964 49.9709 18.6644H53.1819C53.1559 18.2397 52.9999 17.9017 52.7139 17.6504C52.4279 17.3991 52.0725 17.2734 51.6479 17.2734ZM56.2714 22.5254V13.1654H57.9354V22.5254H56.2714ZM62.7686 22.6814C62.1186 22.6814 61.5423 22.5427 61.0396 22.2654C60.537 21.9881 60.1426 21.5981 59.8566 21.0954C59.5706 20.5927 59.4276 20.0121 59.4276 19.3534C59.4276 18.6861 59.5663 18.0924 59.8436 17.5724C60.1296 17.0524 60.5196 16.6494 61.0136 16.3634C61.5163 16.0687 62.1056 15.9214 62.7816 15.9214C63.4143 15.9214 63.9733 16.0601 64.4586 16.3374C64.944 16.6147 65.321 16.9961 65.5896 17.4814C65.867 17.9581 66.0056 18.4911 66.0056 19.0804C66.0056 19.1757 66.0013 19.2754 65.9926 19.3794C65.9926 19.4834 65.9883 19.5917 65.9796 19.7044H61.0786C61.1133 20.2071 61.2866 20.6014 61.5986 20.8874C61.9193 21.1734 62.305 21.3164 62.7556 21.3164C63.0936 21.3164 63.3753 21.2427 63.6006 21.0954C63.8346 20.9394 64.008 20.7401 64.1206 20.4974H65.8106C65.6893 20.9047 65.4856 21.2774 65.1996 21.6154C64.9223 21.9447 64.5756 22.2047 64.1596 22.3954C63.7523 22.5861 63.2886 22.6814 62.7686 22.6814ZM62.7816 17.2734C62.3743 17.2734 62.0146 17.3904 61.7026 17.6244C61.3906 17.8497 61.1913 18.1964 61.1046 18.6644H64.3156C64.2896 18.2397 64.1336 17.9017 63.8476 17.6504C63.5616 17.3991 63.2063 17.2734 62.7816 17.2734ZM70.5642 22.6814C69.9055 22.6814 69.3248 22.5384 68.8222 22.2524C68.3195 21.9664 67.9208 21.5677 67.6262 21.0564C67.3402 20.5451 67.1972 19.9601 67.1972 19.3014C67.1972 18.6427 67.3402 18.0577 67.6262 17.5464C67.9208 17.0351 68.3195 16.6364 68.8222 16.3504C69.3248 16.0644 69.9055 15.9214 70.5642 15.9214C71.3875 15.9214 72.0808 16.1381 72.6442 16.5714C73.2075 16.9961 73.5672 17.5854 73.7232 18.3394H71.9682C71.8815 18.0274 71.7082 17.7847 71.4482 17.6114C71.1968 17.4294 70.8978 17.3384 70.5512 17.3384C70.0918 17.3384 69.7018 17.5117 69.3812 17.8584C69.0605 18.2051 68.9002 18.6861 68.9002 19.3014C68.9002 19.9167 69.0605 20.3977 69.3812 20.7444C69.7018 21.0911 70.0918 21.2644 70.5512 21.2644C70.8978 21.2644 71.1968 21.1777 71.4482 21.0044C71.7082 20.8311 71.8815 20.5841 71.9682 20.2634H73.7232C73.5672 20.9914 73.2075 21.5764 72.6442 22.0184C72.0808 22.4604 71.3875 22.6814 70.5642 22.6814ZM77.9842 22.5254C77.3082 22.5254 76.7666 22.3607 76.3592 22.0314C75.9519 21.7021 75.7482 21.1171 75.7482 20.2764V17.4684H74.6432V16.0774H75.7482L75.9432 14.3484H77.4122V16.0774H79.1542V17.4684H77.4122V20.2894C77.4122 20.6014 77.4772 20.8181 77.6072 20.9394C77.7459 21.0521 77.9799 21.1084 78.3092 21.1084H79.1152V22.5254H77.9842Z" fill="white"/>
</svg>
