<svg width="17" height="14" viewBox="0 0 17 14" fill="none" xmlns="http://www.w3.org/2000/svg">
<path d="M14.2999 13.5709C14.6589 13.5709 14.9499 13.2799 14.9499 12.9209C14.9499 12.5619 14.6589 12.2709 14.2999 12.2709V13.5709ZM2.84087 12.9209V12.2709H2.84087L2.84087 12.9209ZM1.56787 11.6469L2.21787 11.6474V11.6469H1.56787ZM1.56787 4.64691H2.21787L2.21787 4.64589L1.56787 4.64691ZM2.84087 3.37191L2.84087 4.02191H2.84087V3.37191ZM4.75087 4.02191C5.10986 4.02191 5.40087 3.7309 5.40087 3.37191C5.40087 3.01293 5.10986 2.72191 4.75087 2.72191V4.02191ZM6.66087 0.811914C6.30189 0.811914 6.01087 1.10293 6.01087 1.46191C6.01087 1.8209 6.30189 2.11191 6.66087 2.11191V0.811914ZM10.4809 1.46191L11.0217 1.10142C10.9012 0.920557 10.6982 0.811914 10.4809 0.811914V1.46191ZM11.7539 3.37191L11.213 3.7324C11.3335 3.91327 11.5365 4.02191 11.7539 4.02191V3.37191ZM14.2999 3.37191L14.3024 2.72191H14.2999V3.37191ZM15.5679 4.64491L14.9179 4.64491V4.64491H15.5679ZM14.9179 10.5909C14.9179 10.9499 15.2089 11.2409 15.5679 11.2409C15.9269 11.2409 16.2179 10.9499 16.2179 10.5909H14.9179ZM11.1943 9.64603C11.397 9.34978 11.3212 8.94526 11.025 8.74251C10.7287 8.53976 10.3242 8.61555 10.1215 8.9118L11.1943 9.64603ZM7.48598 6.27632C7.78223 6.07357 7.85803 5.66905 7.65528 5.3728C7.45253 5.07656 7.04801 5.00076 6.75176 5.20351L7.48598 6.27632ZM14.2999 12.2709H2.84087V13.5709H14.2999V12.2709ZM2.84087 12.2709C2.67556 12.2709 2.51702 12.2052 2.40017 12.0883L1.48057 13.0071C1.84125 13.3681 2.3306 13.5709 2.84087 13.5709L2.84087 12.2709ZM2.40017 12.0883C2.28332 11.9713 2.21774 11.8127 2.21787 11.6474L0.917873 11.6464C0.917472 12.1567 1.1199 12.6462 1.48057 13.0071L2.40017 12.0883ZM2.21787 11.6469V4.64691H0.917873V11.6469H2.21787ZM2.21787 4.64589C2.21761 4.48049 2.28313 4.32178 2.4 4.20473L1.48004 3.28622C1.11932 3.6475 0.917071 4.1374 0.917874 4.64794L2.21787 4.64589ZM2.4 4.20473C2.51686 4.08769 2.67547 4.02191 2.84087 4.02191L2.84087 2.72191C2.33034 2.72191 1.84076 2.92493 1.48004 3.28622L2.4 4.20473ZM2.84087 4.02191H4.75087V2.72191H2.84087V4.02191ZM6.66087 2.11191H10.4809V0.811914H6.66087V2.11191ZM9.94 1.8224L11.213 3.7324L12.2947 3.01142L11.0217 1.10142L9.94 1.8224ZM11.7539 4.02191H14.2999V2.72191H11.7539V4.02191ZM14.2973 4.02191C14.6404 4.02326 14.9179 4.30179 14.9179 4.64491L16.2179 4.64492C16.2179 3.58582 15.3615 2.72608 14.3024 2.72192L14.2973 4.02191ZM14.9179 4.64491V10.5909H16.2179V4.64491H14.9179ZM10.1215 8.9118C9.69125 9.54042 8.92659 9.85053 8.18003 9.69915L7.92169 10.9732C9.18012 11.2284 10.4691 10.7057 11.1943 9.64603L10.1215 8.9118ZM8.18003 9.69915C7.43348 9.54777 6.85001 8.9643 6.69863 8.21775L5.42456 8.4761C5.67974 9.73452 6.66326 10.7181 7.92169 10.9732L8.18003 9.69915ZM6.69863 8.21775C6.54726 7.4712 6.85736 6.70654 7.48598 6.27632L6.75176 5.20351C5.69213 5.92872 5.16939 7.21767 5.42456 8.4761L6.69863 8.21775Z" fill="white"/>
</svg>
