<svg width="20" height="19" viewBox="0 0 20 19" fill="none" xmlns="http://www.w3.org/2000/svg">
<path d="M13.7471 16.7706C13.7476 15.8034 14.5321 15.0351 15.4862 15.0356C16.428 15.0361 17.2048 15.8152 17.2235 16.7769C17.2206 17.742 16.4371 18.508 15.4844 18.5075C14.515 18.507 13.7466 17.7226 13.7471 16.7706Z" stroke="white"/>
<path d="M9.49793 16.6792L9.49786 16.6792L9.49828 16.6873C9.54696 17.6208 8.8095 18.4257 7.85213 18.4821L7.82302 18.4821C6.91214 18.4816 6.1615 17.7519 6.12845 16.8348C6.09595 15.8901 6.82197 15.0882 7.79467 15.0317C8.7062 15.039 9.46541 15.7725 9.49793 16.6792Z" stroke="white"/>
<path d="M18.1916 3.5957L5.42154 3.5957C5.12224 3.5957 4.88999 3.85688 4.92496 4.15412L5.79282 11.5309C5.85207 12.0345 6.27888 12.414 6.78597 12.414L16.9884 12.414C17.4736 12.414 17.8889 12.0657 17.9732 11.5878L19.1764 4.76949C19.2845 4.15715 18.8134 3.5957 18.1916 3.5957Z" stroke="white"/>
<path d="M5.14975 6.18945L4.72108 1.90269C4.66996 1.39149 4.23979 1.0022 3.72604 1.0022L0.999954 1.0022" stroke="white" stroke-linecap="round"/>
</svg>
