<svg width="38" height="38" viewBox="0 0 38 38" fill="none" xmlns="http://www.w3.org/2000/svg">
<circle cx="19" cy="19" r="18" fill="white" stroke="#F1F1F1"/>
<path fill-rule="evenodd" clip-rule="evenodd" d="M13.966 12.97H25.7708C26.4743 12.9716 27.0446 13.5394 27.0473 14.241V21.555C27.0446 22.2558 26.4756 22.8232 25.7728 22.826H24.6397V24.396C24.6405 24.5044 24.5976 24.6087 24.5207 24.6854C24.4438 24.7621 24.3393 24.8048 24.2305 24.804C24.1226 24.8025 24.02 24.7569 23.9467 24.678L22.1056 22.826H13.966C13.2632 22.8232 12.6942 22.2558 12.6915 21.555V14.241C12.6942 13.5402 13.2632 12.9727 13.966 12.97ZM14.5957 18.0869C14.5957 18.737 15.1242 19.2639 15.776 19.2639C16.4258 19.259 16.9514 18.7349 16.9563 18.0869C16.9563 17.4369 16.4279 16.9099 15.776 16.9099C15.1242 16.9099 14.5957 17.4369 14.5957 18.0869ZM19.9155 19.2639C19.2637 19.2639 18.7352 18.737 18.7352 18.0869C18.7352 17.4369 19.2637 16.9099 19.9155 16.9099C20.5674 16.9099 21.0958 17.4369 21.0958 18.0869C21.0909 18.7349 20.5653 19.259 19.9155 19.2639ZM22.8587 18.0869C22.8587 18.737 23.3871 19.2639 24.039 19.2639C24.6888 19.259 25.2143 18.7349 25.2192 18.0869C25.2192 17.4369 24.6908 16.9099 24.039 16.9099C23.3871 16.9099 22.8587 17.4369 22.8587 18.0869Z" fill="#FF414B"/>
<path d="M11.9675 21.585V19.085H10.6769C10.2172 19.0877 9.84529 19.4586 9.84256 19.917V24.717C9.83207 24.9435 9.91555 25.1643 10.0734 25.3276C10.2312 25.4909 10.4495 25.5821 10.6769 25.58H11.4169V26.616C11.4211 26.7617 11.5386 26.8788 11.6847 26.883C11.7555 26.8836 11.8236 26.8554 11.8732 26.805L13.0856 25.596H18.4364C18.8961 25.5932 19.268 25.2223 19.2707 24.764V23.571H13.967C12.8672 23.5677 11.9752 22.6817 11.9675 21.585Z" fill="#FF414B"/>
</svg>
