<svg width="19" height="19" viewBox="0 0 19 19" fill="none" xmlns="http://www.w3.org/2000/svg">
<path d="M9.33333 17.693H2.66667C1.75 17.693 1 16.943 1 16.0264V9.3597C1 4.77636 4.75 1.02637 9.33333 1.02637C13.9167 1.02637 17.6667 4.77636 17.6667 9.3597C17.6667 14.0264 14 17.693 9.33333 17.693Z" stroke="#FF414B" stroke-width="2" stroke-miterlimit="10" stroke-linecap="round" stroke-linejoin="round"/>
<path d="M5.16207 10.193C5.62231 10.193 5.9954 9.81993 5.9954 9.3597C5.9954 8.89946 5.62231 8.52637 5.16207 8.52637C4.70183 8.52637 4.32874 8.89946 4.32874 9.3597C4.32874 9.81993 4.70183 10.193 5.16207 10.193Z" fill="#FF414B"/>
<path d="M13.5028 10.193C13.963 10.193 14.3361 9.81993 14.3361 9.3597C14.3361 8.89946 13.963 8.52637 13.5028 8.52637C13.0425 8.52637 12.6694 8.89946 12.6694 9.3597C12.6694 9.81993 13.0425 10.193 13.5028 10.193Z" fill="#FF414B"/>
<path d="M9.33236 10.193C9.79259 10.193 10.1657 9.81993 10.1657 9.3597C10.1657 8.89946 9.79259 8.52637 9.33236 8.52637C8.87212 8.52637 8.49902 8.89946 8.49902 9.3597C8.49902 9.81993 8.87212 10.193 9.33236 10.193Z" fill="#FF414B"/>
</svg>
