<svg width="36" height="37" viewBox="0 0 36 37" fill="none" xmlns="http://www.w3.org/2000/svg">
<g filter="url(#filter0_b_1144_144496)">
<circle cx="18" cy="18.7007" r="18" fill="white" fill-opacity="0.25"/>
</g>
<path fill-rule="evenodd" clip-rule="evenodd" d="M12.9661 12.6709H24.7709C25.4744 12.6725 26.0447 13.2403 26.0474 13.9419V21.2559C26.0447 21.9567 25.4756 22.5242 24.7729 22.5269H23.6397V24.0969C23.6405 24.2054 23.5977 24.3096 23.5208 24.3863C23.4439 24.463 23.3393 24.5057 23.2306 24.5049C23.1227 24.5034 23.0201 24.4579 22.9468 24.3789L21.1057 22.5269H12.9661C12.2633 22.5242 11.6943 21.9567 11.6915 21.2559V13.9419C11.6943 13.2411 12.2633 12.6736 12.9661 12.6709ZM13.5959 17.7878C13.5959 18.4379 14.1243 18.9648 14.7761 18.9648C15.426 18.9599 15.9515 18.4358 15.9564 17.7878C15.9564 17.1378 15.428 16.6108 14.7761 16.6108C14.1243 16.6108 13.5959 17.1378 13.5959 17.7878ZM18.9156 18.9648C18.2637 18.9648 17.7353 18.4379 17.7353 17.7878C17.7353 17.1378 18.2637 16.6108 18.9156 16.6108C19.5674 16.6108 20.0959 17.1378 20.0959 17.7878C20.0909 18.4358 19.5654 18.9599 18.9156 18.9648ZM21.8588 17.7878C21.8588 18.4379 22.3872 18.9648 23.0391 18.9648C23.6889 18.9599 24.2145 18.4358 24.2194 17.7878C24.2194 17.1378 23.6909 16.6108 23.0391 16.6108C22.3872 16.6108 21.8588 17.1378 21.8588 17.7878Z" fill="white"/>
<path d="M10.9675 21.2861V18.7861H9.67687C9.21723 18.7889 8.84529 19.1598 8.84256 19.6181V24.4181C8.83207 24.6447 8.91555 24.8655 9.07339 25.0288C9.23122 25.192 9.44948 25.2833 9.67687 25.2811H10.4169V26.3171C10.4211 26.4628 10.5386 26.58 10.6847 26.5841C10.7555 26.5848 10.8236 26.5566 10.8732 26.5061L12.0856 25.2971H17.4364C17.8961 25.2944 18.268 24.9235 18.2707 24.4651V23.2721H12.967C11.8672 23.2689 10.9752 22.3829 10.9675 21.2861Z" fill="white"/>
<defs>
<filter id="filter0_b_1144_144496" x="-4" y="-3.29932" width="44" height="44" filterUnits="userSpaceOnUse" color-interpolation-filters="sRGB">
<feFlood flood-opacity="0" result="BackgroundImageFix"/>
<feGaussianBlur in="BackgroundImageFix" stdDeviation="2"/>
<feComposite in2="SourceAlpha" operator="in" result="effect1_backgroundBlur_1144_144496"/>
<feBlend mode="normal" in="SourceGraphic" in2="effect1_backgroundBlur_1144_144496" result="shape"/>
</filter>
</defs>
</svg>
