<svg width="22" height="23" viewBox="0 0 22 23" fill="none" xmlns="http://www.w3.org/2000/svg">
<path d="M10.0977 14.5696C9.83984 14.8274 9.36719 14.8274 9.10938 14.5696L6.35938 11.8196C6.10156 11.5618 6.10156 11.0891 6.35938 10.8313C6.61719 10.5735 7.08984 10.5735 7.34766 10.8313L9.625 13.1086L14.6094 8.0813C14.8672 7.82349 15.3398 7.82349 15.5977 8.0813C15.8555 8.33911 15.8555 8.81177 15.5977 9.06958L10.0977 14.5696ZM22 11.304C22 17.4055 17.0586 22.304 11 22.304C4.89844 22.304 0 17.4055 0 11.304C0 5.24536 4.89844 0.303955 11 0.303955C17.0586 0.303955 22 5.24536 22 11.304ZM11 1.67896C5.67188 1.67896 1.375 6.0188 1.375 11.304C1.375 16.6321 5.67188 20.929 11 20.929C16.2852 20.929 20.625 16.6321 20.625 11.304C20.625 6.0188 16.2852 1.67896 11 1.67896Z" fill="#FF404A"/>
</svg>
