<svg width="22" height="23" viewBox="0 0 22 23" fill="none" xmlns="http://www.w3.org/2000/svg">
<path d="M10.3125 15.429V11.9915H6.875C6.48828 11.9915 6.1875 11.6907 6.1875 11.304C6.1875 10.9602 6.48828 10.6165 6.875 10.6165H10.3125V7.17896C10.3125 6.83521 10.6133 6.49146 11 6.49146C11.3438 6.49146 11.6875 6.83521 11.6875 7.17896V10.6165H15.125C15.4688 10.6165 15.8125 10.9602 15.8125 11.304C15.8125 11.6907 15.4688 11.9915 15.125 11.9915H11.6875V15.429C11.6875 15.8157 11.3438 16.1165 11 16.1165C10.6133 16.1165 10.3125 15.8157 10.3125 15.429ZM22 11.304C22 17.4055 17.0586 22.304 11 22.304C4.89844 22.304 0 17.4055 0 11.304C0 5.24536 4.89844 0.303955 11 0.303955C17.0586 0.303955 22 5.24536 22 11.304ZM11 1.67896C5.67188 1.67896 1.375 6.0188 1.375 11.304C1.375 16.6321 5.67188 20.929 11 20.929C16.2852 20.929 20.625 16.6321 20.625 11.304C20.625 6.0188 16.2852 1.67896 11 1.67896Z" fill="#9D9D9D"/>
</svg>
