<svg width="23" height="22" viewBox="0 0 23 22" fill="none" xmlns="http://www.w3.org/2000/svg">
<path d="M11.2407 15.125V11.6875H7.80322C7.4165 11.6875 7.11572 11.3867 7.11572 11C7.11572 10.6562 7.4165 10.3125 7.80322 10.3125H11.2407V6.875C11.2407 6.53125 11.5415 6.1875 11.9282 6.1875C12.272 6.1875 12.6157 6.53125 12.6157 6.875V10.3125H16.0532C16.397 10.3125 16.7407 10.6562 16.7407 11C16.7407 11.3867 16.397 11.6875 16.0532 11.6875H12.6157V15.125C12.6157 15.5117 12.272 15.8125 11.9282 15.8125C11.5415 15.8125 11.2407 15.5117 11.2407 15.125ZM22.9282 11C22.9282 17.1016 17.9868 22 11.9282 22C5.82666 22 0.928223 17.1016 0.928223 11C0.928223 4.94141 5.82666 0 11.9282 0C17.9868 0 22.9282 4.94141 22.9282 11ZM11.9282 1.375C6.6001 1.375 2.30322 5.71484 2.30322 11C2.30322 16.3281 6.6001 20.625 11.9282 20.625C17.2134 20.625 21.5532 16.3281 21.5532 11C21.5532 5.71484 17.2134 1.375 11.9282 1.375Z" fill="#9D9D9D"/>
</svg>
