<svg width="16" height="16" viewBox="0 0 16 16" fill="none" xmlns="http://www.w3.org/2000/svg">
<path d="M8.01545 6.43512e-07C5.90004 -0.000847394 3.87014 0.836511 2.36855 2.32941C0.866952 3.82231 0.0155253 5.8496 0 7.96904C0.0130704 10.0949 0.86175 12.1301 2.36211 13.6333C3.86248 15.1366 5.89365 15.9869 8.01545 16C10.1331 16 12.164 15.1571 13.6614 13.6569C15.1588 12.1566 16 10.1217 16 8C16 5.87827 15.1588 3.84344 13.6614 2.34315C12.164 0.842856 10.1331 6.43512e-07 8.01545 6.43512e-07V6.43512e-07Z" fill="#CDD2D7"/>
<path d="M8.03634 1.1501C9.83724 1.16995 11.5588 1.89418 12.8323 3.1677C14.1058 4.44122 14.8301 6.16277 14.8499 7.96369C14.8571 9.32145 14.4606 10.6507 13.7108 11.7827C12.961 12.9148 11.8915 13.7985 10.6384 14.3215C9.38518 14.8445 8.00484 14.9833 6.67265 14.7202C5.34046 14.457 4.11652 13.8039 3.15632 12.8437C2.19612 11.8835 1.54297 10.6595 1.27984 9.32735C1.01671 7.99516 1.15546 6.61481 1.67848 5.36164C2.20151 4.10848 3.08519 3.03904 4.2173 2.28916C5.34929 1.53936 6.67858 1.14289 8.03634 1.1501Z" fill="#A8ADB1" stroke="#818F9A" stroke-width="0.3"/>
<g filter="url(#filter0_d_7_4638)">
<path d="M8.95134 7.49973H8.48388V5.62431H8.95134C9.01287 5.62378 9.07389 5.63553 9.13084 5.65888C9.1878 5.68223 9.23953 5.71671 9.28305 5.7603C9.32656 5.8039 9.36097 5.85575 9.38427 5.91281C9.40758 5.96988 9.41931 6.03102 9.41878 6.09267C9.41878 6.21702 9.46808 6.33627 9.55584 6.4242C9.6436 6.51213 9.76262 6.56153 9.88673 6.56153C10.0108 6.56153 10.1299 6.51213 10.2176 6.4242C10.3054 6.33627 10.3547 6.21702 10.3547 6.09267C10.3549 5.90795 10.3188 5.72499 10.2484 5.55428C10.178 5.38357 10.0746 5.22846 9.94423 5.09785C9.81387 4.96723 9.65906 4.86367 9.48868 4.7931C9.3183 4.72253 9.1357 4.68635 8.95134 4.68661H8.48388V4.21825C8.48388 4.0939 8.43458 3.97465 8.34682 3.88672C8.25906 3.79879 8.14004 3.74939 8.01593 3.74939C7.89182 3.74939 7.7728 3.79879 7.68504 3.88672C7.59728 3.97465 7.54798 4.0939 7.54798 4.21825V4.68661H7.01774C6.83329 4.68634 6.6506 4.72257 6.48015 4.7932C6.30971 4.86383 6.15486 4.96747 6.02448 5.0982C5.8941 5.22892 5.79076 5.38415 5.72039 5.55497C5.65001 5.7258 5.61399 5.90886 5.61438 6.09367V7.03138C5.61412 7.2161 5.65024 7.39906 5.72067 7.56977C5.79111 7.74048 5.89446 7.89559 6.02483 8.02621C6.15519 8.15683 6.31 8.26038 6.48038 8.33095C6.65076 8.40152 6.83337 8.43771 7.01774 8.43745H7.54798V10.3748H7.01774C6.9562 10.3753 6.89517 10.3636 6.83822 10.3402C6.78127 10.3169 6.72953 10.2824 6.68601 10.2388C6.6425 10.1952 6.60809 10.1434 6.58479 10.0863C6.56148 10.0292 6.54975 9.96808 6.55028 9.90643C6.55028 9.78208 6.50098 9.66283 6.41322 9.5749C6.32546 9.48697 6.20644 9.43758 6.08233 9.43758C5.95822 9.43758 5.8392 9.48697 5.75144 9.5749C5.66368 9.66283 5.61438 9.78208 5.61438 9.90643C5.61412 10.0911 5.65024 10.2741 5.72067 10.4448C5.79111 10.6155 5.89446 10.7706 6.02483 10.9013C6.15519 11.0319 6.31 11.1354 6.48038 11.206C6.65076 11.2766 6.83337 11.3128 7.01774 11.3125H7.54798V11.7809C7.54798 11.9052 7.59728 12.0245 7.68504 12.1124C7.7728 12.2003 7.89182 12.2497 8.01593 12.2497C8.14004 12.2497 8.25906 12.2003 8.34682 12.1124C8.43458 12.0245 8.48388 11.9052 8.48388 11.7809V11.3125H8.95134C9.1357 11.3128 9.3183 11.2766 9.48868 11.206C9.65906 11.1354 9.81387 11.0319 9.94423 10.9013C10.0746 10.7706 10.178 10.6155 10.2484 10.4448C10.3188 10.2741 10.3549 10.0911 10.3547 9.90643V8.9078C10.3552 8.72291 10.3193 8.53974 10.249 8.3688C10.1786 8.19786 10.0753 8.04251 9.94495 7.91168C9.81456 7.78085 9.65965 7.67711 9.48914 7.60642C9.31863 7.53573 9.13587 7.49947 8.95134 7.49973V7.49973ZM7.54798 7.49973H7.01774C6.9562 7.50027 6.89517 7.48852 6.83822 7.46517C6.78127 7.44182 6.72953 7.40734 6.68601 7.36374C6.6425 7.32015 6.60809 7.26831 6.58479 7.21124C6.56148 7.15418 6.54975 7.09304 6.55028 7.03138V6.09367C6.54975 6.03202 6.56148 5.97087 6.58479 5.91381C6.60809 5.85675 6.6425 5.8049 6.68601 5.7613C6.72953 5.7177 6.78127 5.68323 6.83822 5.65988C6.89517 5.63653 6.9562 5.62478 7.01774 5.62531H7.54798V7.49973ZM9.41977 9.90643C9.4203 9.96808 9.40858 10.0292 9.38528 10.0863C9.36197 10.1434 9.32756 10.1952 9.28405 10.2388C9.24054 10.2824 9.1888 10.3169 9.13185 10.3402C9.07489 10.3636 9.01386 10.3753 8.95233 10.3748H8.48488V8.43745H8.95233C9.01386 8.43691 9.07489 8.44867 9.13185 8.47201C9.1888 8.49536 9.24054 8.52984 9.28405 8.57344C9.32756 8.61704 9.36197 8.66888 9.38528 8.72595C9.40858 8.78301 9.4203 8.84415 9.41977 8.90581V9.90643Z" fill="#E8E8E8"/>
</g>
<defs>
<filter id="filter0_d_7_4638" x="5.31438" y="3.74939" width="5.0403" height="8.80034" filterUnits="userSpaceOnUse" color-interpolation-filters="sRGB">
<feFlood flood-opacity="0" result="BackgroundImageFix"/>
<feColorMatrix in="SourceAlpha" type="matrix" values="0 0 0 0 0 0 0 0 0 0 0 0 0 0 0 0 0 0 127 0" result="hardAlpha"/>
<feOffset dx="-0.3" dy="0.3"/>
<feComposite in2="hardAlpha" operator="out"/>
<feColorMatrix type="matrix" values="0 0 0 0 0.505882 0 0 0 0 0.560784 0 0 0 0 0.603922 0 0 0 1 0"/>
<feBlend mode="normal" in2="BackgroundImageFix" result="effect1_dropShadow_7_4638"/>
<feBlend mode="normal" in="SourceGraphic" in2="effect1_dropShadow_7_4638" result="shape"/>
</filter>
</defs>
</svg>
