<svg width="36" height="26" viewBox="0 0 36 26" fill="none" xmlns="http://www.w3.org/2000/svg">
<path d="M16.5 5C16.5 6.13115 15.7172 7.24554 14.2569 8.10457C12.8081 8.95679 10.7739 9.5 8.5 9.5C6.22611 9.5 4.19188 8.95679 2.7431 8.10457C1.28276 7.24554 0.5 6.13115 0.5 5C0.5 3.86885 1.28276 2.75446 2.7431 1.89543C4.19188 1.04321 6.22611 0.5 8.5 0.5C10.7739 0.5 12.8081 1.04321 14.2569 1.89543C15.7172 2.75446 16.5 3.86885 16.5 5Z" stroke="#126881"/>
<path d="M0.5 5V8.10059C0.5 10.5469 4.082 12.53 8.50063 12.53C12.9192 12.53 16.5013 10.5469 16.5013 8.10059V5" stroke="#126881" stroke-linecap="round"/>
<path d="M0.5 8V11.1006C0.5 13.5469 4.082 15.53 8.50063 15.53C12.9192 15.53 16.5013 13.5469 16.5013 11.1006V8" stroke="#126881" stroke-linecap="round"/>
<path d="M0.5 11V14.1006C0.5 16.5469 4.082 18.53 8.50063 18.53C12.9192 18.53 16.5013 16.5469 16.5013 14.1006V11" stroke="#126881" stroke-linecap="round"/>
<path d="M0.5 14V17.1006C0.5 19.5469 4.082 21.53 8.50063 21.53C12.9192 21.53 16.5013 19.5469 16.5013 17.1006V14" stroke="#126881" stroke-linecap="round"/>
<path d="M0.5 17V20.1006C0.5 22.5469 4.082 24.53 8.50063 24.53C12.9192 24.53 16.5013 22.5469 16.5013 20.1006V17" stroke="#126881" stroke-linecap="round"/>
<path d="M35.5 5C35.5 6.13115 34.7172 7.24554 33.2569 8.10457C31.8081 8.95679 29.7739 9.5 27.5 9.5C25.2261 9.5 23.1919 8.95679 21.7431 8.10457C20.2828 7.24554 19.5 6.13115 19.5 5C19.5 3.86885 20.2828 2.75446 21.7431 1.89543C23.1919 1.04321 25.2261 0.5 27.5 0.5C29.7739 0.5 31.8081 1.04321 33.2569 1.89543C34.7172 2.75446 35.5 3.86885 35.5 5Z" stroke="#126881"/>
<path d="M19.5 5V8.10059C19.5 10.5469 23.082 12.53 27.5006 12.53C31.9192 12.53 35.5013 10.5469 35.5013 8.10059V5" stroke="#126881" stroke-linecap="round"/>
<path d="M19.5 8V11.1006C19.5 13.5469 23.082 15.53 27.5006 15.53C31.9192 15.53 35.5013 13.5469 35.5013 11.1006V8" stroke="#126881" stroke-linecap="round"/>
<path d="M19.5 11V14.1006C19.5 16.5469 23.082 18.53 27.5006 18.53C31.9192 18.53 35.5013 16.5469 35.5013 14.1006V11" stroke="#126881" stroke-linecap="round"/>
<path d="M19.5 14V17.1006C19.5 19.5469 23.082 21.53 27.5006 21.53C31.9192 21.53 35.5013 19.5469 35.5013 17.1006V14" stroke="#126881" stroke-linecap="round"/>
<path d="M19.5 17V20.1006C19.5 22.5469 23.082 24.53 27.5006 24.53C31.9192 24.53 35.5013 22.5469 35.5013 20.1006V17" stroke="#126881" stroke-linecap="round"/>
</svg>
