<svg width="16" height="14" viewBox="0 0 16 14" fill="none" xmlns="http://www.w3.org/2000/svg">
<path d="M8.01858 1C11.8623 1 14.9873 3.46875 14.9873 6.5C14.9873 9.53125 11.8623 12 8.01858 12C7.11233 12 6.23733 11.875 5.39358 11.625C5.11233 11.5312 4.76858 11.5625 4.51858 11.75C3.83108 12.25 2.70608 12.8438 1.29983 13C1.67483 12.5312 2.23733 11.7188 2.58108 10.8125C2.73733 10.4688 2.64358 10.0938 2.39358 9.78125C1.48733 8.8125 1.01858 7.6875 1.01858 6.5C1.01858 3.46875 4.14358 1 8.01858 1ZM8.01858 0C3.58108 0 0.0185804 2.9375 0.0185804 6.5C0.0185804 8 0.61233 9.375 1.64358 10.4688C1.20608 11.6875 0.23733 12.75 0.20608 12.75C-0.0126696 12.9688 -0.0439196 13.2812 0.0498304 13.5625C0.17483 13.8438 0.45608 14 0.76858 14C2.67483 14 4.17483 13.2188 5.11233 12.5625C6.01858 12.8438 6.98733 13 8.01858 13C12.4248 13 15.9873 10.0938 15.9873 6.5C15.9873 2.9375 12.4248 0 8.01858 0Z" fill="#333333"/>
</svg>
