<svg width="36" height="36" viewBox="0 0 36 36" fill="none" xmlns="http://www.w3.org/2000/svg">
<g clip-path="url(#clip0_1_397)">
<path d="M18 32V32.0703C15.3281 32.0703 12.8672 31.5781 10.6172 30.8047C9.84375 31.3672 8.4375 32.2109 6.82031 32.9141C5.13281 33.6875 3.09375 34.3203 1.125 34.3203C0.632812 34.3203 0.210938 34.0391 0.0703125 33.6172C-0.140625 33.1953 0 32.7031 0.28125 32.3516C0.351562 32.3516 0.351562 32.2812 0.421875 32.2812C0.492188 32.1406 0.632812 32 0.773438 31.8594C1.05469 31.5078 1.40625 30.9453 1.82812 30.3125C2.53125 29.1875 3.16406 27.6406 3.30469 25.8828C1.19531 23.4922 0 20.6094 0 17.375C0 9.35938 8.01562 2.75 18 2.75C27.9141 2.75 36 9.35938 36 17.375C36 25.4609 27.9141 32 18 32ZM9 15.125C7.73438 15.125 6.75 16.1797 6.75 17.375C6.75 18.6406 7.73438 19.625 9 19.625C10.1953 19.625 11.25 18.6406 11.25 17.375C11.25 16.1797 10.1953 15.125 9 15.125ZM18 15.125C16.7344 15.125 15.75 16.1797 15.75 17.375C15.75 18.6406 16.7344 19.625 18 19.625C19.1953 19.625 20.25 18.6406 20.25 17.375C20.25 16.1797 19.1953 15.125 18 15.125ZM24.75 17.375C24.75 18.6406 25.7344 19.625 27 19.625C28.1953 19.625 29.25 18.6406 29.25 17.375C29.25 16.1797 28.1953 15.125 27 15.125C25.7344 15.125 24.75 16.1797 24.75 17.375Z" fill="white"/>
</g>
<defs>
<clipPath id="clip0_1_397">
<rect width="36" height="36" fill="white"/>
</clipPath>
</defs>
</svg>
