<svg width="22" height="20" viewBox="0 0 22 20" fill="none" xmlns="http://www.w3.org/2000/svg">
<path fill-rule="evenodd" clip-rule="evenodd" d="M8.36122 19.6653H8.36108H8.36083H8.36078H8.36072C6.57084 19.6559 4.78069 19.6465 2.99204 19.6901C2.19231 19.7062 1.42071 19.395 0.855862 18.8286C0.291012 18.2622 -0.0181164 17.4898 3.7391e-05 16.6901C0.00870392 14.2982 0.00581526 11.9058 0.00292641 9.51321C0.00148192 8.31688 3.7391e-05 7.12051 3.7391e-05 5.92414C-0.0229489 5.05428 0.345886 4.22006 1.00477 3.65167C1.66366 3.08329 2.54295 2.84081 3.40004 2.99114C4.08153 3.11795 4.56761 3.72439 4.54304 4.41714C4.5173 5.90008 5.56007 7.18742 7.01604 7.47014C7.19137 7.50914 7.37042 7.52892 7.55004 7.52914C8.23474 7.52914 8.91955 7.53047 9.60444 7.53181H9.60466H9.60489H9.60511H9.60526C10.9757 7.53447 12.3463 7.53714 13.717 7.52914C15.3312 7.54883 16.6677 6.28012 16.732 4.66714C16.752 3.09114 17.864 2.78114 19.05 3.04114C20.3792 3.30664 21.3273 4.48601 21.301 5.84114C21.3257 9.51981 21.3257 13.1985 21.301 16.8771C21.296 17.6348 20.9853 18.3583 20.4393 18.8836C19.8933 19.4089 19.1583 19.6914 18.401 19.6671C16.5674 19.6749 14.7296 19.6742 12.8911 19.6735H12.8909H12.8907H12.8905C12.1334 19.6732 11.3762 19.6728 10.619 19.6731C9.86665 19.6731 9.11409 19.6692 8.36149 19.6653H8.36135H8.36122ZM6.06404 15.7551C6.28007 15.7551 6.49656 15.756 6.713 15.7569C7.14578 15.7587 7.57841 15.7605 8.00704 15.7551C8.34902 15.803 8.68765 15.6478 8.87466 15.3575C9.06167 15.0672 9.06299 14.6947 8.87804 14.4031C8.58439 13.679 8.0314 13.0904 7.32704 12.7521L7.31819 12.7477C7.05098 12.6141 6.91705 12.5472 6.90465 12.4624C6.89219 12.3773 7.00245 12.2742 7.22352 12.0674L7.22704 12.0641C7.58855 11.7578 7.80402 11.3132 7.82039 10.8397C7.83677 10.3661 7.65253 9.90767 7.31304 9.57714C6.86763 9.1154 6.20146 8.94144 5.58716 9.12645C4.97287 9.31146 4.51357 9.82439 4.39725 10.4553C4.28093 11.0862 4.52711 11.7292 5.03504 12.1211C5.40704 12.4121 5.38504 12.5501 4.96504 12.7311C4.19202 13.0573 3.58979 13.6907 3.30304 14.4791C3.14916 14.7661 3.16816 15.1149 3.35229 15.3834C3.53642 15.6519 3.85494 15.7953 4.17804 15.7551C4.58449 15.7604 4.99606 15.7583 5.40829 15.7563H5.40836H5.40842H5.40849L5.40909 15.7563H5.40912H5.40915C5.62749 15.7552 5.846 15.7541 6.06404 15.7541V15.7551ZM17.421 12.0841H14.452C14.0105 12.0837 13.5689 12.0843 13.1274 12.0848C12.598 12.0855 12.0689 12.0862 11.541 12.0851C10.989 12.0821 10.625 11.7591 10.641 11.3041C10.657 11.0865 10.7612 10.8849 10.9294 10.7459C11.0976 10.607 11.3153 10.5427 11.532 10.5681C13.4934 10.5635 15.4547 10.5635 17.416 10.5681C17.6329 10.5494 17.8481 10.6199 18.0119 10.7633C18.1757 10.9067 18.274 11.1107 18.284 11.3281C18.2759 11.5451 18.1788 11.7491 18.0155 11.8922C17.8522 12.0352 17.6372 12.1047 17.421 12.0841ZM13.4012 15.756H13.4013C13.7383 15.7589 14.0772 15.7618 14.413 15.7531C14.8502 15.7713 15.2208 15.435 15.245 14.9981C15.2435 14.789 15.1578 14.5892 15.0073 14.444C14.8568 14.2987 14.6541 14.2202 14.445 14.2261C13.455 14.2071 12.463 14.2081 11.473 14.2261C11.2641 14.2141 11.0589 14.2859 10.903 14.4255C10.747 14.5651 10.6531 14.7611 10.642 14.9701C10.6448 15.1899 10.7379 15.3989 10.8995 15.5479C11.061 15.697 11.2767 15.773 11.496 15.7581C11.7962 15.7626 12.0973 15.7597 12.3983 15.7568H12.3983C12.5656 15.7551 12.7329 15.7535 12.9 15.7531C13.0662 15.7531 13.2334 15.7546 13.4012 15.756ZM17.559 14.2261C17.9708 14.244 18.293 14.5871 18.285 14.9991C18.2529 15.428 17.8931 15.758 17.463 15.7531C17.0528 15.7144 16.7423 15.3651 16.752 14.9531C16.7501 14.7454 16.8374 14.5469 16.9917 14.4078C17.1461 14.2688 17.3526 14.2026 17.559 14.2261Z" fill="white"/>
<path d="M10.6611 5.92706C9.69208 5.97011 8.72142 5.96243 7.75315 5.90406C6.87483 5.79537 6.2007 5.0728 6.15315 4.18906C6.09511 3.61619 6.09511 3.03892 6.15315 2.46606C6.25039 1.47011 7.08746 0.710466 8.08815 0.710057C9.79948 0.690723 11.5115 0.690723 13.2241 0.710057C14.2236 0.714528 15.059 1.4718 15.1611 2.46606C15.2159 2.94937 15.2289 3.4365 15.2001 3.92206C15.1966 4.48803 14.9648 5.02862 14.5573 5.42132C14.1497 5.81403 13.6009 6.02559 13.0351 6.00806C12.2421 6.02806 11.4491 6.00806 10.6561 6.00806L10.6611 5.92706Z" fill="white"/>
</svg>
