<svg width="28" height="28" viewBox="0 0 28 28" fill="none" xmlns="http://www.w3.org/2000/svg">
<g clip-path="url(#clip0_2043_133334)">
<path d="M26.8333 25.6667H5.83333C4.90508 25.6667 4.01484 25.2979 3.35846 24.6415C2.70208 23.9852 2.33333 23.0949 2.33333 22.1667V1.16667C2.33333 0.857247 2.21042 0.560501 1.99162 0.341709C1.77283 0.122916 1.47609 0 1.16667 0C0.857247 0 0.560501 0.122916 0.341709 0.341709C0.122916 0.560501 0 0.857247 0 1.16667L0 22.1667C0.0018525 23.7132 0.617029 25.1959 1.71059 26.2894C2.80415 27.383 4.28681 27.9981 5.83333 28H26.8333C27.1428 28 27.4395 27.8771 27.6583 27.6583C27.8771 27.4395 28 27.1428 28 26.8333C28 26.5239 27.8771 26.2272 27.6583 26.0084C27.4395 25.7896 27.1428 25.6667 26.8333 25.6667Z" fill="white"/>
<path d="M7.00001 23.335C7.30943 23.335 7.60618 23.212 7.82497 22.9933C8.04376 22.7745 8.16668 22.4777 8.16668 22.1683V14.0016C8.16668 13.6922 8.04376 13.3955 7.82497 13.1767C7.60618 12.9579 7.30943 12.835 7.00001 12.835C6.69059 12.835 6.39384 12.9579 6.17505 13.1767C5.95626 13.3955 5.83334 13.6922 5.83334 14.0016V22.1683C5.83334 22.4777 5.95626 22.7745 6.17505 22.9933C6.39384 23.212 6.69059 23.335 7.00001 23.335Z" fill="white"/>
<path d="M11.6667 11.6667V22.1667C11.6667 22.4761 11.7896 22.7728 12.0084 22.9916C12.2272 23.2104 12.5239 23.3333 12.8333 23.3333C13.1427 23.3333 13.4395 23.2104 13.6583 22.9916C13.8771 22.7728 14 22.4761 14 22.1667V11.6667C14 11.3572 13.8771 11.0605 13.6583 10.8417C13.4395 10.6229 13.1427 10.5 12.8333 10.5C12.5239 10.5 12.2272 10.6229 12.0084 10.8417C11.7896 11.0605 11.6667 11.3572 11.6667 11.6667Z" fill="white"/>
<path d="M17.5 15.1667V22.1667C17.5 22.4761 17.6229 22.7728 17.8417 22.9916C18.0605 23.2104 18.3572 23.3333 18.6667 23.3333C18.9761 23.3333 19.2728 23.2104 19.4916 22.9916C19.7104 22.7728 19.8333 22.4761 19.8333 22.1667V15.1667C19.8333 14.8572 19.7104 14.5605 19.4916 14.3417C19.2728 14.1229 18.9761 14 18.6667 14C18.3572 14 18.0605 14.1229 17.8417 14.3417C17.6229 14.5605 17.5 14.8572 17.5 15.1667Z" fill="white"/>
<path d="M23.3333 10.5016V22.1683C23.3333 22.4777 23.4563 22.7745 23.6751 22.9933C23.8938 23.212 24.1906 23.335 24.5 23.335C24.8094 23.335 25.1062 23.212 25.325 22.9933C25.5438 22.7745 25.6667 22.4777 25.6667 22.1683V10.5016C25.6667 10.1922 25.5438 9.89546 25.325 9.67667C25.1062 9.45788 24.8094 9.33496 24.5 9.33496C24.1906 9.33496 23.8938 9.45788 23.6751 9.67667C23.4563 9.89546 23.3333 10.1922 23.3333 10.5016Z" fill="white"/>
<path d="M7.00001 10.4993C7.3094 10.4993 7.6061 10.3763 7.82484 10.1575L12.0085 5.97384C12.2309 5.762 12.5262 5.64384 12.8333 5.64384C13.1405 5.64384 13.4358 5.762 13.6582 5.97384L16.1922 8.50784C16.8485 9.16399 17.7386 9.53259 18.6667 9.53259C19.5947 9.53259 20.4848 9.16399 21.1412 8.50784L27.6582 1.99084C27.8707 1.7708 27.9883 1.4761 27.9856 1.1702C27.983 0.864305 27.8603 0.57169 27.644 0.355381C27.4276 0.139071 27.135 0.0163741 26.8291 0.013716C26.5232 0.0110578 26.2285 0.128651 26.0085 0.341169L19.4915 6.857C19.2727 7.07572 18.976 7.19859 18.6667 7.19859C18.3573 7.19859 18.0606 7.07572 17.8418 6.857L15.3078 4.32417C14.6515 3.66802 13.7614 3.29942 12.8333 3.29942C11.9053 3.29942 11.0152 3.66802 10.3588 4.32417L6.17517 8.50784C6.01206 8.671 5.90099 8.87885 5.85599 9.10513C5.811 9.33141 5.8341 9.56595 5.92238 9.7791C6.01066 9.99225 6.16016 10.1744 6.35197 10.3026C6.54378 10.4308 6.7693 10.4993 7.00001 10.4993Z" fill="white"/>
</g>
<defs>
<clipPath id="clip0_2043_133334">
<rect width="28" height="28" fill="white"/>
</clipPath>
</defs>
</svg>
