<svg width="13" height="13" viewBox="0 0 13 13" fill="none" xmlns="http://www.w3.org/2000/svg">
<path fill-rule="evenodd" clip-rule="evenodd" d="M0.916833 7.02344H5.41458C5.72509 7.02344 5.9768 7.27515 5.9768 7.58566V12.0834C5.9768 12.3939 5.72509 12.6456 5.41458 12.6456C5.10408 12.6456 4.85237 12.3939 4.85237 12.0834V8.94297L1.31438 12.481C1.09482 12.7005 0.738844 12.7005 0.519284 12.481C0.299724 12.2614 0.299724 11.9054 0.519284 11.6859L4.05727 8.14788H0.916833C0.606328 8.14788 0.354614 7.89616 0.354614 7.58566C0.354614 7.27515 0.606328 7.02344 0.916833 7.02344Z" fill="white"/>
<path fill-rule="evenodd" clip-rule="evenodd" d="M11.5988 6.46289L7.10104 6.46289C6.79054 6.46289 6.53882 6.21118 6.53882 5.90067L6.53882 1.40292C6.53882 1.09241 6.79054 0.840701 7.10104 0.840701C7.41155 0.840701 7.66326 1.09241 7.66326 1.40292L7.66326 4.54335L11.2012 1.00537C11.4208 0.785811 11.7768 0.785811 11.9963 1.00537C12.2159 1.22493 12.2159 1.58091 11.9963 1.80047L8.45836 5.33845L11.5988 5.33845C11.9093 5.33845 12.161 5.59017 12.161 5.90067C12.161 6.21118 11.9093 6.46289 11.5988 6.46289Z" fill="white"/>
</svg>
