<svg width="10" height="10" viewBox="0 0 10 10" fill="none" xmlns="http://www.w3.org/2000/svg">
<g clip-path="url(#clip0_349_217705)">
<path d="M1.25 2.5C1.25 2.00555 1.39662 1.5222 1.67133 1.11108C1.94603 0.699953 2.33648 0.379521 2.79329 0.190302C3.25011 0.00108321 3.75277 -0.0484251 4.23773 0.0480379C4.72268 0.144501 5.16814 0.382603 5.51777 0.732234C5.8674 1.08187 6.1055 1.52732 6.20196 2.01228C6.29843 2.49723 6.24892 2.99989 6.0597 3.45671C5.87048 3.91353 5.55005 4.30397 5.13893 4.57868C4.7278 4.85338 4.24445 5 3.75 5C3.08716 4.99934 2.45166 4.73574 1.98296 4.26704C1.51427 3.79834 1.25066 3.16284 1.25 2.5ZM3.75 5.83334C2.75578 5.83444 1.80259 6.22988 1.09957 6.9329C0.396545 7.63592 0.00110286 8.58911 0 9.58333C0 9.69384 0.0438987 9.79982 0.122039 9.87796C0.200179 9.9561 0.30616 10 0.416667 10H7.08333C7.19384 10 7.29982 9.9561 7.37796 9.87796C7.4561 9.79982 7.5 9.69384 7.5 9.58333C7.4989 8.58911 7.10346 7.63592 6.40043 6.9329C5.69741 6.22988 4.74422 5.83444 3.75 5.83334ZM8.9225 5L9.87792 4.04458C9.95382 3.966 9.99581 3.86075 9.99486 3.7515C9.99392 3.64225 9.9501 3.53775 9.87284 3.46049C9.79559 3.38324 9.69108 3.33942 9.58183 3.33847C9.47258 3.33752 9.36733 3.37952 9.28875 3.45542L8.33333 4.41084L7.37792 3.45542C7.29933 3.37952 7.19408 3.33752 7.08483 3.33847C6.97558 3.33942 6.87108 3.38324 6.79383 3.46049C6.71657 3.53775 6.67275 3.64225 6.6718 3.7515C6.67085 3.86075 6.71285 3.966 6.78875 4.04458L7.74417 5L6.78875 5.95542C6.74895 5.99385 6.71721 6.03983 6.69537 6.09067C6.67354 6.1415 6.66204 6.19618 6.66156 6.2515C6.66108 6.30683 6.67162 6.36169 6.69257 6.4129C6.71352 6.46411 6.74446 6.51063 6.78359 6.54975C6.82271 6.58887 6.86923 6.61981 6.92044 6.64076C6.97164 6.66171 7.02651 6.67225 7.08183 6.67177C7.13716 6.67129 7.19183 6.6598 7.24267 6.63796C7.2935 6.61612 7.33948 6.58438 7.37792 6.54459L8.33333 5.58917L9.28875 6.54459C9.36733 6.62048 9.47258 6.66248 9.58183 6.66153C9.69108 6.66058 9.79559 6.61676 9.87284 6.53951C9.9501 6.46226 9.99392 6.35775 9.99486 6.2485C9.99581 6.13925 9.95382 6.034 9.87792 5.95542L8.9225 5Z" fill="#F22F22"/>
</g>
<defs>
<clipPath id="clip0_349_217705">
<rect width="10" height="10" fill="white"/>
</clipPath>
</defs>
</svg>
