<svg width="28" height="28" viewBox="0 0 28 28" fill="none" xmlns="http://www.w3.org/2000/svg">
<g clip-path="url(#clip0_4018_119950)">
<path d="M27.9428 12.35L27.1203 6.51667C26.9182 5.12826 26.2247 3.85843 25.1658 2.93788C24.107 2.01733 22.753 1.50714 21.35 1.5H5.83333C4.28681 1.50185 2.80415 2.11703 1.71059 3.21059C0.617029 4.30415 0.0018525 5.78681 0 7.33333L0 13.1667C0.0018525 14.7132 0.617029 16.1959 1.71059 17.2894C2.80415 18.383 4.28681 18.9981 5.83333 19H8.99733L11.2303 23.5243C11.6057 24.2869 12.2427 24.889 13.0251 25.221C13.8075 25.5531 14.6832 25.5928 15.4924 25.3329C16.3016 25.0731 16.9905 24.531 17.4333 23.8056C17.8762 23.0801 18.0435 22.2197 17.9048 21.3812L17.5128 19H22.1667C23.0017 19 23.8271 18.8208 24.5869 18.4744C25.3467 18.1279 26.0233 17.6224 26.5709 16.9919C27.1185 16.3615 27.5244 15.6208 27.7611 14.82C27.9978 14.0192 28.0597 13.1768 27.9428 12.35ZM5.83333 3.83333H8.16667V16.6667H5.83333C4.90508 16.6667 4.01484 16.2979 3.35846 15.6415C2.70208 14.9852 2.33333 14.0949 2.33333 13.1667V7.33333C2.33333 6.40508 2.70208 5.51484 3.35846 4.85846C4.01484 4.20208 4.90508 3.83333 5.83333 3.83333ZM24.808 15.4627C24.4795 15.8406 24.0737 16.1437 23.618 16.3514C23.1624 16.5591 22.6674 16.6666 22.1667 16.6667H16.1385C15.9693 16.6666 15.8021 16.7034 15.6485 16.7744C15.4949 16.8455 15.3586 16.9491 15.2491 17.0781C15.1395 17.207 15.0593 17.3583 15.0141 17.5213C14.9688 17.6844 14.9596 17.8554 14.987 18.0223L15.603 21.7557C15.6326 21.929 15.6236 22.1066 15.5766 22.276C15.5296 22.4454 15.4458 22.6024 15.3312 22.7357C15.1968 22.8806 15.0299 22.9915 14.8443 23.0593C14.6586 23.1271 14.4596 23.1498 14.2634 23.1257C14.0673 23.1015 13.8797 23.0312 13.716 22.9204C13.5524 22.8096 13.4174 22.6615 13.3222 22.4883L10.7683 17.3177C10.701 17.1883 10.6099 17.0728 10.5 16.977V3.83333H21.35C22.1926 3.83641 23.0061 4.14218 23.6422 4.69491C24.2782 5.24764 24.6944 6.01053 24.815 6.8445L25.6387 12.6778C25.7078 13.1744 25.6693 13.6801 25.526 14.1605C25.3827 14.641 25.1378 15.0851 24.808 15.4627Z" fill="white"/>
</g>
<defs>
<clipPath id="clip0_4018_119950">
<rect width="28" height="28" fill="white"/>
</clipPath>
</defs>
</svg>
