<svg width="22" height="22" viewBox="0 0 22 22" fill="none" xmlns="http://www.w3.org/2000/svg">
<path d="M10.0977 14.2656C9.83984 14.5234 9.36719 14.5234 9.10938 14.2656L6.35938 11.5156C6.10156 11.2578 6.10156 10.7852 6.35938 10.5273C6.61719 10.2695 7.08984 10.2695 7.34766 10.5273L9.625 12.8047L14.6094 7.77734C14.8672 7.51953 15.3398 7.51953 15.5977 7.77734C15.8555 8.03516 15.8555 8.50781 15.5977 8.76562L10.0977 14.2656ZM22 11C22 17.1016 17.0586 22 11 22C4.89844 22 0 17.1016 0 11C0 4.94141 4.89844 0 11 0C17.0586 0 22 4.94141 22 11ZM11 1.375C5.67188 1.375 1.375 5.71484 1.375 11C1.375 16.3281 5.67188 20.625 11 20.625C16.2852 20.625 20.625 16.3281 20.625 11C20.625 5.71484 16.2852 1.375 11 1.375Z" fill="#FF404A"/>
</svg>
