<svg width="37" height="39" viewBox="0 0 37 39" fill="none" xmlns="http://www.w3.org/2000/svg">
<path d="M10.213 7.1709C7.83734 8.54164 5.86474 10.5139 4.49353 12.8893C3.12233 15.2646 2.40093 17.9592 2.40198 20.7019H18.024L10.213 7.1709Z" fill="#8ABB2A"/>
<path d="M25.837 7.17102C23.4614 5.80119 20.7673 5.08008 18.025 5.08008C15.2827 5.08008 12.5887 5.80119 10.213 7.17102L18.025 20.702L25.837 7.17102Z" fill="#FFD400"/>
<path d="M2.40198 20.7021C2.40083 23.4448 3.12202 26.1393 4.49304 28.5146C5.86407 30.8899 7.83655 32.8623 10.212 34.2332L18.024 20.7021H2.40198Z" fill="#0060AF"/>
<path d="M25.8369 34.2332C28.2123 32.8623 30.1848 30.8899 31.5558 28.5146C32.9268 26.1393 33.6481 23.4448 33.647 20.7021H18.0239L25.8369 34.2332Z" fill="#E50019"/>
<path d="M10.213 34.2332C12.5886 35.6031 15.2826 36.3242 18.0249 36.3242C20.7672 36.3242 23.4613 35.6031 25.8369 34.2332L18.0249 20.7021L10.213 34.2332Z" fill="#511F7F"/>
<path d="M25.8369 7.1709L18.0239 20.7019H33.6459C33.6471 17.9594 32.9261 15.265 31.5553 12.8896C30.1845 10.5143 28.2122 8.54189 25.8369 7.1709Z" fill="#ED4C14"/>
<path d="M18.025 2.67578C14.46 2.67578 10.975 3.73292 8.01085 5.71353C5.04665 7.69414 2.73633 10.5092 1.37206 13.8029C0.00778747 17.0965 -0.349137 20.7208 0.346361 24.2173C1.04186 27.7138 2.75856 30.9255 5.27941 33.4464C7.80025 35.9672 11.012 37.6839 14.5085 38.3794C18.005 39.0749 21.6292 38.718 24.9228 37.3537C28.2165 35.9895 31.0316 33.6791 33.0123 30.7149C34.9929 27.7507 36.05 24.2658 36.05 20.7008C36.05 18.3337 35.5837 15.9898 34.6779 13.8029C33.7721 11.616 32.4444 9.62898 30.7706 7.9552C29.0968 6.28142 27.1097 4.95369 24.9228 4.04785C22.7359 3.14201 20.3921 2.67578 18.025 2.67578ZM18.025 36.3228C14.9353 36.3228 11.9149 35.4066 9.34587 33.69C6.77685 31.9735 4.77454 29.5336 3.59215 26.679C2.40976 23.8245 2.10039 20.6835 2.70317 17.6531C3.30595 14.6227 4.79379 11.8392 6.97856 9.65439C9.16334 7.46961 11.9469 5.98175 14.9773 5.37897C18.0077 4.77619 21.1487 5.08555 24.0033 6.26794C26.8578 7.45034 29.2976 9.45261 31.0142 12.0216C32.7308 14.5907 33.647 17.611 33.647 20.7008C33.647 24.844 32.0011 28.8175 29.0714 31.7472C26.1417 34.6769 22.1682 36.3228 18.025 36.3228Z" fill="white"/>
<path opacity="0.1" d="M18.025 5.07861C14.9352 5.07861 11.9149 5.9948 9.34583 7.71136C6.77681 9.42793 4.7745 11.8677 3.59211 14.7223C2.40972 17.5768 2.10036 20.7179 2.70313 23.7483C3.30591 26.7787 4.79375 29.5622 6.97853 31.747C9.1633 33.9318 11.9469 35.4196 14.9772 36.0224C18.0076 36.6252 21.1487 36.3158 24.0032 35.1334C26.8578 33.951 29.2976 31.9487 31.0142 29.3797C32.7307 26.8107 33.647 23.7903 33.647 20.7006C33.647 16.5574 32.0011 12.5839 29.0714 9.65417C26.1417 6.72448 22.1682 5.07861 18.025 5.07861ZM18.025 35.7216C15.0541 35.7216 12.1499 34.8406 9.67976 33.1901C7.20957 31.5395 5.28425 29.1936 4.14735 26.4489C3.01044 23.7041 2.71302 20.6839 3.29261 17.7701C3.8722 14.8564 5.30279 12.1799 7.40351 10.0792C9.50424 7.97844 12.1807 6.54779 15.0945 5.9682C18.0083 5.38861 21.0285 5.68609 23.7733 6.823C26.518 7.9599 28.8639 9.88516 30.5145 12.3553C32.165 14.8255 33.046 17.7297 33.046 20.7006C33.046 24.6844 31.4634 28.505 28.6464 31.322C25.8294 34.139 22.0088 35.7216 18.025 35.7216Z" fill="#1A1818"/>
<path opacity="0.1" d="M18.0251 14.0918C16.7179 14.0918 15.4402 14.4794 14.3533 15.2056C13.2665 15.9318 12.4193 16.964 11.9191 18.1716C11.4189 19.3793 11.288 20.7081 11.543 21.9901C11.798 23.2721 12.4276 24.4497 13.3518 25.374C14.2761 26.2983 15.4537 26.9278 16.7358 27.1828C18.0178 27.4378 19.3466 27.3069 20.5542 26.8067C21.7619 26.3065 22.794 25.4594 23.5202 24.3726C24.2464 23.2857 24.6341 22.0079 24.6341 20.7007C24.6341 18.9479 23.9377 17.267 22.6983 16.0275C21.4589 14.7881 19.7779 14.0918 18.0251 14.0918ZM18.0251 26.7098C16.8368 26.7098 15.6752 26.3574 14.6872 25.6973C13.6992 25.0371 12.9291 24.0987 12.4744 23.0009C12.0197 21.9031 11.9007 20.6951 12.1325 19.5297C12.3643 18.3642 12.9365 17.2937 13.7768 16.4535C14.617 15.6133 15.6875 15.041 16.8529 14.8092C18.0184 14.5774 19.2264 14.6964 20.3243 15.1511C21.4221 15.6059 22.3604 16.3759 23.0205 17.3639C23.6807 18.3519 24.033 19.5135 24.033 20.7018C24.033 22.2952 23.4001 23.8234 22.2734 24.9501C21.1466 26.0768 19.6185 26.7098 18.0251 26.7098Z" fill="#1A1818"/>
<path d="M18.025 26.7089C21.3431 26.7089 24.033 24.019 24.033 20.7009C24.033 17.3827 21.3431 14.6929 18.025 14.6929C14.7068 14.6929 12.017 17.3827 12.017 20.7009C12.017 24.019 14.7068 26.7089 18.025 26.7089Z" fill="#1A1818"/>
<path d="M18.025 25.2068C20.5136 25.2068 22.531 23.1894 22.531 20.7008C22.531 18.2122 20.5136 16.1948 18.025 16.1948C15.5364 16.1948 13.519 18.2122 13.519 20.7008C13.519 23.1894 15.5364 25.2068 18.025 25.2068Z" fill="#5A5B5E"/>
<path d="M18.025 23.7048C19.6841 23.7048 21.029 22.3598 21.029 20.7008C21.029 19.0417 19.6841 17.6968 18.025 17.6968C16.3659 17.6968 15.021 19.0417 15.021 20.7008C15.021 22.3598 16.3659 23.7048 18.025 23.7048Z" fill="#1A1818"/>
<path d="M35.274 20.7005C35.274 20.7895 35.2477 20.8765 35.1982 20.9505C35.1488 21.0245 35.0785 21.0822 34.9963 21.1162C34.9141 21.1503 34.8236 21.1592 34.7363 21.1418C34.649 21.1245 34.5688 21.0816 34.5058 21.0187C34.4429 20.9557 34.4 20.8756 34.3827 20.7883C34.3653 20.701 34.3742 20.6105 34.4083 20.5283C34.4424 20.446 34.5001 20.3758 34.5741 20.3264C34.6481 20.2769 34.7351 20.2505 34.8241 20.2505C34.9434 20.2505 35.0579 20.2979 35.1423 20.3823C35.2267 20.4667 35.274 20.5812 35.274 20.7005Z" fill="#5A5B5E"/>
<path d="M34.6881 16.2364C34.7111 16.3223 34.7081 16.4132 34.6796 16.4974C34.651 16.5817 34.598 16.6555 34.5275 16.7097C34.4569 16.7639 34.3718 16.796 34.2831 16.8019C34.1943 16.8077 34.1059 16.7872 34.0288 16.7428C33.9517 16.6984 33.8894 16.6321 33.85 16.5524C33.8105 16.4726 33.7956 16.3829 33.8071 16.2947C33.8186 16.2065 33.856 16.1237 33.9145 16.0567C33.9731 15.9897 34.0502 15.9416 34.1361 15.9184C34.1932 15.903 34.2528 15.899 34.3115 15.9066C34.3702 15.9142 34.4267 15.9333 34.478 15.9629C34.5293 15.9924 34.5742 16.0318 34.6102 16.0787C34.6463 16.1256 34.6728 16.1792 34.6881 16.2364Z" fill="#5A5B5E"/>
<path d="M32.962 12.0735C33.0064 12.1506 33.027 12.2392 33.0211 12.3279C33.0152 12.4167 32.9831 12.5018 32.9289 12.5723C32.8747 12.6429 32.8008 12.6958 32.7165 12.7244C32.6322 12.7529 32.5413 12.7558 32.4554 12.7328C32.3695 12.7097 32.2924 12.6617 32.2337 12.5948C32.1751 12.5279 32.1375 12.4451 32.1259 12.3569C32.1143 12.2687 32.1291 12.179 32.1684 12.0992C32.2078 12.0194 32.2699 11.953 32.347 11.9085C32.3982 11.8789 32.4547 11.8597 32.5134 11.852C32.572 11.8443 32.6316 11.8482 32.6887 11.8635C32.7458 11.8788 32.7994 11.9053 32.8463 11.9413C32.8932 11.9774 32.9325 12.0222 32.962 12.0735Z" fill="#5A5B5E"/>
<path d="M30.221 8.50366C30.2838 8.56663 30.3266 8.6468 30.3439 8.73407C30.3612 8.82134 30.3522 8.91178 30.3182 8.99396C30.2841 9.07613 30.2264 9.14639 30.1524 9.1958C30.0784 9.24521 29.9915 9.27155 29.9025 9.27155C29.8135 9.27155 29.7266 9.24521 29.6526 9.1958C29.5786 9.14639 29.5209 9.07613 29.4869 8.99396C29.4528 8.91178 29.4438 8.82134 29.4611 8.73407C29.4784 8.6468 29.5212 8.56663 29.584 8.50366C29.6258 8.46179 29.6755 8.42855 29.7301 8.40588C29.7848 8.38322 29.8433 8.37158 29.9025 8.37158C29.9617 8.37158 30.0202 8.38322 30.0749 8.40588C30.1295 8.42855 30.1792 8.46179 30.221 8.50366Z" fill="#5A5B5E"/>
<path d="M26.6491 5.76251C26.7261 5.80702 26.7883 5.87338 26.8276 5.95318C26.867 6.03299 26.8817 6.12266 26.8701 6.21088C26.8585 6.29909 26.821 6.38188 26.7623 6.44879C26.7037 6.5157 26.6266 6.56373 26.5407 6.58679C26.4547 6.60985 26.3638 6.60693 26.2796 6.57837C26.1953 6.5498 26.1214 6.49689 26.0671 6.42633C26.0129 6.35577 25.9809 6.27073 25.975 6.18194C25.9691 6.09316 25.9896 6.00459 26.0341 5.92749C26.0636 5.87625 26.1029 5.83138 26.1498 5.79535C26.1967 5.75932 26.2503 5.73285 26.3074 5.71753C26.3645 5.7022 26.424 5.69828 26.4827 5.70599C26.5413 5.71371 26.5979 5.73293 26.6491 5.76251Z" fill="#5A5B5E"/>
<path d="M22.4892 4.04286C22.5751 4.06583 22.6524 4.11377 22.7111 4.18062C22.7698 4.24747 22.8074 4.3302 22.8191 4.41841C22.8308 4.50662 22.816 4.59637 22.7768 4.67622C22.7375 4.75607 22.6754 4.82243 22.5984 4.86702C22.5214 4.9116 22.4329 4.93235 22.3441 4.92665C22.2553 4.92095 22.1702 4.88904 22.0995 4.83497C22.0288 4.7809 21.9758 4.7071 21.947 4.62288C21.9183 4.53866 21.9152 4.44782 21.9381 4.36183C21.9691 4.24658 22.0445 4.14831 22.1477 4.08851C22.251 4.02872 22.3738 4.01232 22.4892 4.04286Z" fill="#5A5B5E"/>
<path d="M18.025 3.45264C18.114 3.45264 18.201 3.47906 18.275 3.5285C18.349 3.57795 18.4067 3.64818 18.4408 3.73041C18.4749 3.81263 18.4838 3.90313 18.4664 3.99042C18.4491 4.07771 18.4062 4.15789 18.3433 4.22083C18.2803 4.28376 18.2001 4.32663 18.1128 4.34399C18.0255 4.36136 17.935 4.35242 17.8528 4.31836C17.7706 4.2843 17.7003 4.22665 17.6509 4.15265C17.6014 4.07865 17.5751 3.99165 17.5751 3.90265C17.5751 3.7833 17.6224 3.6688 17.7068 3.58441C17.7912 3.50002 17.9057 3.45264 18.025 3.45264Z" fill="#5A5B5E"/>
<path d="M13.561 4.04169C13.6469 4.01867 13.7377 4.02165 13.822 4.05023C13.9062 4.07881 13.9801 4.13171 14.0343 4.20227C14.0885 4.27282 14.1206 4.35783 14.1264 4.44659C14.1323 4.53536 14.1118 4.6239 14.0674 4.70099C14.0229 4.77807 13.9567 4.84026 13.8769 4.8797C13.7972 4.91914 13.7076 4.93409 13.6194 4.92261C13.5311 4.91112 13.4483 4.87373 13.3813 4.81518C13.3143 4.75664 13.2662 4.67957 13.243 4.59369C13.2276 4.53656 13.2235 4.47695 13.2312 4.41827C13.2388 4.3596 13.2579 4.30298 13.2874 4.25171C13.317 4.20044 13.3564 4.15549 13.4033 4.11944C13.4502 4.0834 13.5038 4.057 13.561 4.04169Z" fill="#5A5B5E"/>
<path d="M9.40095 5.76374C9.47805 5.71932 9.56669 5.69871 9.65547 5.7046C9.74426 5.71048 9.8293 5.74255 9.89986 5.79676C9.97042 5.85097 10.0233 5.92489 10.0518 6.00916C10.0804 6.09343 10.0833 6.18427 10.0603 6.27021C10.0372 6.35615 9.98923 6.43336 9.92232 6.49201C9.85541 6.55067 9.77262 6.58819 9.6844 6.5998C9.59618 6.61141 9.50652 6.59661 9.42671 6.55726C9.3469 6.51791 9.28055 6.45578 9.23604 6.37873C9.20646 6.32752 9.18724 6.27098 9.17952 6.21235C9.1718 6.15372 9.17567 6.09411 9.19099 6.03699C9.20632 5.97988 9.23272 5.92636 9.26875 5.87946C9.30478 5.83257 9.34971 5.79326 9.40095 5.76374Z" fill="#5A5B5E"/>
<path d="M5.82898 8.50455C5.89195 8.44171 5.97218 8.39892 6.05945 8.38163C6.14672 8.36434 6.2371 8.3733 6.31927 8.40739C6.40145 8.44147 6.47171 8.49917 6.52112 8.57316C6.57053 8.64714 6.59692 8.73407 6.59692 8.82304C6.59692 8.912 6.57053 8.99899 6.52112 9.07298C6.47171 9.14696 6.40145 9.20466 6.31927 9.23875C6.2371 9.27283 6.14672 9.28174 6.05945 9.26444C5.97218 9.24715 5.89195 9.20443 5.82898 9.14158C5.7871 9.09978 5.75387 9.05011 5.7312 8.99546C5.70853 8.94081 5.6969 8.8822 5.6969 8.82304C5.6969 8.76387 5.70853 8.70533 5.7312 8.65067C5.75387 8.59602 5.7871 8.54635 5.82898 8.50455Z" fill="#5A5B5E"/>
<path d="M3.08807 12.0765C3.13258 11.9994 3.19894 11.9373 3.27875 11.898C3.35855 11.8586 3.44822 11.8438 3.53644 11.8554C3.62466 11.867 3.70744 11.9045 3.77435 11.9632C3.84126 12.0219 3.8893 12.0991 3.91235 12.185C3.93541 12.2709 3.93249 12.3618 3.90393 12.446C3.87537 12.5303 3.82245 12.6042 3.75189 12.6584C3.68133 12.7127 3.59629 12.7447 3.50751 12.7506C3.41872 12.7565 3.33015 12.7359 3.25305 12.6915C3.20181 12.6619 3.15694 12.6226 3.12091 12.5757C3.08488 12.5289 3.05841 12.4753 3.04309 12.4182C3.02777 12.3611 3.02384 12.3015 3.03155 12.2429C3.03927 12.1842 3.05849 12.1277 3.08807 12.0765Z" fill="#5A5B5E"/>
<path d="M1.36505 16.2364C1.38807 16.1504 1.43607 16.0732 1.50299 16.0145C1.56991 15.9558 1.65277 15.9183 1.74103 15.9067C1.82928 15.8951 1.91895 15.9099 1.99878 15.9492C2.07861 15.9886 2.14502 16.0508 2.18951 16.1279C2.23401 16.205 2.25462 16.2935 2.24878 16.3823C2.24293 16.4712 2.21089 16.5563 2.15668 16.6269C2.10246 16.6975 2.02851 16.7504 1.94421 16.779C1.85991 16.8076 1.76901 16.8105 1.68304 16.7874C1.56783 16.7565 1.4696 16.6811 1.40997 16.5778C1.35034 16.4744 1.33419 16.3516 1.36505 16.2364Z" fill="#5A5B5E"/>
<path d="M0.779053 20.7005C0.779053 20.6115 0.805412 20.5245 0.854858 20.4505C0.904305 20.3765 0.974597 20.3188 1.05682 20.2847C1.13905 20.2507 1.22954 20.2418 1.31683 20.2591C1.40412 20.2765 1.48431 20.3194 1.54724 20.3823C1.61017 20.4452 1.65305 20.5254 1.67041 20.6127C1.68777 20.7 1.67883 20.7904 1.64478 20.8727C1.61072 20.9549 1.55307 21.0252 1.47906 21.0746C1.40506 21.1241 1.31807 21.1505 1.22906 21.1505C1.10972 21.1505 0.995219 21.1031 0.910828 21.0187C0.826436 20.9343 0.779053 20.8198 0.779053 20.7005Z" fill="#5A5B5E"/>
<path d="M1.36505 25.1646C1.34203 25.0787 1.34501 24.9878 1.3736 24.9036C1.40218 24.8193 1.45508 24.7455 1.52563 24.6913C1.59619 24.6371 1.68125 24.605 1.77002 24.5991C1.85879 24.5932 1.94733 24.6138 2.02441 24.6582C2.1015 24.7026 2.16368 24.7689 2.20312 24.8486C2.24257 24.9284 2.25745 25.018 2.24597 25.1062C2.23449 25.1944 2.19715 25.2773 2.13861 25.3443C2.08007 25.4113 2.00294 25.4594 1.91705 25.4826C1.85993 25.498 1.80038 25.502 1.7417 25.4944C1.68302 25.4868 1.62641 25.4676 1.57513 25.4381C1.52386 25.4085 1.47891 25.3692 1.44287 25.3223C1.40683 25.2753 1.38036 25.2218 1.36505 25.1646Z" fill="#5A5B5E"/>
<path d="M3.08808 29.3246C3.04366 29.2475 3.02305 29.1589 3.02894 29.0701C3.03482 28.9813 3.06689 28.8963 3.1211 28.8257C3.17531 28.7552 3.24923 28.7023 3.3335 28.6737C3.41778 28.6451 3.50867 28.6422 3.59461 28.6653C3.68055 28.6883 3.7577 28.7364 3.81635 28.8033C3.87501 28.8702 3.91253 28.953 3.92414 29.0412C3.93575 29.1294 3.92095 29.2191 3.8816 29.2989C3.84225 29.3787 3.78012 29.4451 3.70307 29.4896C3.65186 29.5191 3.59532 29.5384 3.53669 29.5461C3.47806 29.5538 3.41851 29.5499 3.3614 29.5345C3.30428 29.5192 3.2507 29.4928 3.2038 29.4567C3.15691 29.4207 3.1176 29.3758 3.08808 29.3246Z" fill="#5A5B5E"/>
<path d="M5.82902 32.8968C5.76617 32.8338 5.72339 32.7536 5.70609 32.6664C5.6888 32.5791 5.69777 32.4887 5.73185 32.4065C5.76593 32.3243 5.82364 32.2541 5.89762 32.2047C5.9716 32.1553 6.05853 32.1289 6.1475 32.1289C6.23646 32.1289 6.32345 32.1553 6.39744 32.2047C6.47142 32.2541 6.52913 32.3243 6.56321 32.4065C6.59729 32.4887 6.60626 32.5791 6.58897 32.6664C6.57167 32.7536 6.52889 32.8338 6.46604 32.8968C6.42424 32.9387 6.37458 32.9719 6.31992 32.9946C6.26527 33.0172 6.20667 33.0289 6.1475 33.0289C6.08833 33.0289 6.02979 33.0172 5.97514 32.9946C5.92048 32.9719 5.87082 32.9387 5.82902 32.8968Z" fill="#5A5B5E"/>
<path d="M9.40107 35.6375C9.32402 35.593 9.26183 35.5266 9.22248 35.4468C9.18314 35.367 9.16839 35.2774 9.18 35.1891C9.19161 35.1009 9.22913 35.0181 9.28779 34.9512C9.34645 34.8843 9.42353 34.8363 9.50947 34.8132C9.59541 34.7902 9.68631 34.7931 9.77058 34.8217C9.85485 34.8502 9.92877 34.9031 9.98298 34.9737C10.0372 35.0443 10.0693 35.1293 10.0751 35.2181C10.081 35.3069 10.0605 35.3954 10.0161 35.4725C9.95625 35.5758 9.8579 35.6511 9.74262 35.6821C9.62735 35.713 9.50455 35.697 9.40107 35.6375Z" fill="#5A5B5E"/>
<path d="M13.561 37.3608C13.475 37.3378 13.3978 37.2898 13.3391 37.2228C13.2804 37.1559 13.2429 37.0731 13.2313 36.9848C13.2197 36.8965 13.2344 36.8068 13.2738 36.727C13.3131 36.6472 13.3754 36.5808 13.4525 36.5363C13.5296 36.4918 13.6182 36.4712 13.707 36.477C13.7958 36.4829 13.8809 36.5149 13.9515 36.5691C14.0221 36.6234 14.075 36.6973 14.1036 36.7816C14.1322 36.8659 14.1351 36.9568 14.112 37.0428C14.0811 37.158 14.0056 37.2562 13.9023 37.3158C13.799 37.3754 13.6762 37.3916 13.561 37.3608Z" fill="#5A5B5E"/>
<path d="M18.0251 37.9474C17.9361 37.9474 17.849 37.921 17.775 37.8716C17.701 37.8221 17.6434 37.7518 17.6093 37.6696C17.5753 37.5874 17.5663 37.4969 17.5837 37.4096C17.6011 37.3223 17.6439 37.2421 17.7069 37.1792C17.7698 37.1162 17.8499 37.0734 17.9372 37.056C18.0245 37.0386 18.115 37.0476 18.1972 37.0816C18.2795 37.1157 18.3498 37.1733 18.3993 37.2473C18.4487 37.3214 18.4751 37.4083 18.4751 37.4973C18.4751 37.6167 18.4276 37.7312 18.3432 37.8156C18.2588 37.9 18.1445 37.9474 18.0251 37.9474Z" fill="#5A5B5E"/>
<path d="M22.489 37.3607C22.403 37.3837 22.3122 37.3808 22.2279 37.3522C22.1436 37.3237 22.0697 37.2707 22.0155 37.2001C21.9613 37.1295 21.9292 37.0445 21.9233 36.9556C21.9175 36.8668 21.9382 36.7782 21.9827 36.7011C22.0272 36.624 22.0935 36.5619 22.1733 36.5225C22.2532 36.4831 22.3429 36.4683 22.4311 36.4799C22.5194 36.4915 22.6021 36.5291 22.6691 36.5878C22.736 36.6465 22.784 36.7237 22.807 36.8097C22.8379 36.9249 22.8217 37.0477 22.7621 37.151C22.7024 37.2543 22.6042 37.3297 22.489 37.3607Z" fill="#5A5B5E"/>
<path d="M26.649 35.6378C26.5719 35.6822 26.4834 35.7028 26.3947 35.6969C26.3059 35.691 26.2208 35.6589 26.1503 35.6047C26.0797 35.5505 26.0267 35.4766 25.9982 35.3923C25.9696 35.3081 25.9667 35.2172 25.9897 35.1313C26.0128 35.0453 26.0608 34.9681 26.1277 34.9095C26.1946 34.8508 26.2774 34.8133 26.3656 34.8017C26.4538 34.7901 26.5436 34.8049 26.6234 34.8442C26.7032 34.8836 26.7696 34.9457 26.8141 35.0228C26.8437 35.074 26.8628 35.1305 26.8705 35.1892C26.8782 35.2478 26.8743 35.3074 26.859 35.3645C26.8437 35.4216 26.8173 35.4751 26.7812 35.522C26.7452 35.5689 26.7003 35.6082 26.649 35.6378Z" fill="#5A5B5E"/>
<path d="M30.2211 32.8974C30.1581 32.9603 30.0779 33.003 29.9906 33.0203C29.9033 33.0376 29.8129 33.0286 29.7307 32.9945C29.6485 32.9605 29.5783 32.9028 29.5289 32.8288C29.4795 32.7549 29.4531 32.6679 29.4531 32.5789C29.4531 32.4899 29.4795 32.403 29.5289 32.329C29.5783 32.255 29.6485 32.1973 29.7307 32.1632C29.8129 32.1292 29.9033 32.1202 29.9906 32.1375C30.0779 32.1548 30.1581 32.1976 30.2211 32.2604C30.2629 32.3022 30.2962 32.3519 30.3188 32.4065C30.3415 32.4612 30.3531 32.5197 30.3531 32.5789C30.3531 32.6381 30.3415 32.6967 30.3188 32.7513C30.2962 32.806 30.2629 32.8556 30.2211 32.8974Z" fill="#5A5B5E"/>
<path d="M32.962 29.3245C32.9175 29.4016 32.8512 29.4637 32.7714 29.5031C32.6916 29.5424 32.6019 29.5572 32.5137 29.5456C32.4255 29.534 32.3427 29.4965 32.2758 29.4378C32.2088 29.3792 32.1609 29.302 32.1378 29.216C32.1148 29.1301 32.1177 29.0392 32.1462 28.955C32.1748 28.8707 32.2277 28.7968 32.2982 28.7426C32.3688 28.6884 32.4538 28.6563 32.5426 28.6504C32.6314 28.6445 32.7199 28.6651 32.797 28.7095C32.8482 28.7391 32.8932 28.7784 32.9292 28.8253C32.9652 28.8722 32.9918 28.9257 33.0071 28.9828C33.0224 29.0399 33.0263 29.0995 33.0186 29.1581C33.0108 29.2168 32.9916 29.2733 32.962 29.3245Z" fill="#5A5B5E"/>
<path d="M34.686 25.1646C34.663 25.2506 34.615 25.3277 34.5481 25.3864C34.4812 25.4451 34.3983 25.4827 34.3101 25.4943C34.2218 25.5059 34.1321 25.4911 34.0522 25.4517C33.9724 25.4124 33.9061 25.3502 33.8616 25.2731C33.8171 25.196 33.7964 25.1075 33.8022 25.0186C33.8081 24.9298 33.8402 24.8447 33.8944 24.7741C33.9486 24.7035 34.0225 24.6505 34.1068 24.622C34.1911 24.5934 34.2821 24.5905 34.368 24.6135C34.4831 24.6447 34.5811 24.7202 34.6407 24.8234C34.7003 24.9267 34.7166 25.0493 34.686 25.1646Z" fill="#5A5B5E"/>
<path d="M18.7939 0.675781L17.4985 4.2212L16.203 0.675781H18.7939Z" fill="#E50019"/>
</svg>
