<svg width="22" height="22" viewBox="0 0 22 22" fill="none" xmlns="http://www.w3.org/2000/svg">
<path d="M11.0002 1.75012C4.0632 1.75012 1.7502 4.06312 1.7502 11.0001C1.7502 17.9371 4.0632 20.2501 11.0002 20.2501C17.9372 20.2501 20.2502 17.9371 20.2502 11.0001" stroke="#BDBDBD" stroke-width="2" stroke-linecap="round" stroke-linejoin="round"/>
<path fill-rule="evenodd" clip-rule="evenodd" d="M18.5285 3.30388V3.30388C17.5355 2.42488 16.0185 2.51688 15.1395 3.50988C15.1395 3.50988 10.7705 8.44488 9.2555 10.1579C7.7385 11.8699 8.8505 14.2349 8.8505 14.2349C8.8505 14.2349 11.3545 15.0279 12.8485 13.3399C14.3435 11.6519 18.7345 6.69288 18.7345 6.69288C19.6135 5.69988 19.5205 4.18288 18.5285 3.30388Z" stroke="#BDBDBD" stroke-width="2" stroke-linecap="round" stroke-linejoin="round"/>
<path d="M14.009 4.80078L17.604 7.98378" stroke="#BDBDBD" stroke-width="2" stroke-linecap="round" stroke-linejoin="round"/>
</svg>
