<svg width="20" height="20" viewBox="0 0 20 20" fill="none" xmlns="http://www.w3.org/2000/svg">
<path d="M14.6736 1.3375C15.7236 0.287503 17.4111 0.287503 18.4611 1.3375L18.9486 1.825C19.9986 2.875 19.9986 4.5625 18.9486 5.6125L11.5236 13.0375C11.2236 13.3375 10.8111 13.6 10.3611 13.7125L6.61113 14.8C6.31113 14.875 5.97363 14.8 5.74863 14.5375C5.48613 14.3125 5.41113 13.975 5.48613 13.675L6.57363 9.925C6.68613 9.475 6.94863 9.0625 7.24863 8.7625L14.6736 1.3375ZM17.1861 2.6125C16.8486 2.275 16.2861 2.275 15.9486 2.6125L14.8236 3.7L16.5861 5.4625L17.6736 4.3375C18.0111 4 18.0111 3.4375 17.6736 3.1L17.1861 2.6125ZM8.29863 10.4125L7.66113 12.625L9.87363 11.9875C10.0236 11.95 10.1361 11.875 10.2486 11.7625L15.3111 6.7L13.5861 4.975L8.52363 10.0375C8.41113 10.15 8.33613 10.2625 8.29863 10.4125ZM8.18613 2.8C8.67363 2.8 9.08613 3.2125 9.08613 3.7C9.08613 4.225 8.67363 4.6 8.18613 4.6H3.98613C3.12363 4.6 2.48613 5.275 2.48613 6.1V16.3C2.48613 17.1625 3.12363 17.8 3.98613 17.8H14.1861C15.0111 17.8 15.6861 17.1625 15.6861 16.3V12.1C15.6861 11.6125 16.0611 11.2 16.5861 11.2C17.0736 11.2 17.4861 11.6125 17.4861 12.1V16.3C17.4861 18.1375 15.9861 19.6 14.1861 19.6H3.98613C2.14863 19.6 0.686134 18.1375 0.686134 16.3V6.1C0.686134 4.3 2.14863 2.8 3.98613 2.8H8.18613Z" fill="#1F1F1F"/>
</svg>
