<svg width="36" height="37" viewBox="0 0 36 37" fill="none" xmlns="http://www.w3.org/2000/svg">
<g filter="url(#filter0_b_1144_144516)">
<circle cx="18" cy="18.7007" r="18" fill="white" fill-opacity="0.25"/>
</g>
<path d="M10.2 19.0937C10.2 17.5219 10.6678 15.9857 11.5438 14.6807C12.4199 13.3757 13.6645 12.3609 15.1192 11.7656C16.5739 11.1703 18.1728 11.0215 19.7124 11.338C21.252 11.6545 22.6625 12.422 23.7644 13.5429C24.8663 14.6638 25.6097 16.0872 25.8998 17.632C26.19 19.1767 26.0139 20.7729 25.3939 22.2172C24.7739 23.6615 23.738 24.8886 22.4182 25.7423C21.0985 26.5959 19.5545 27.0374 17.983 27.0106C15.9106 26.9631 13.9384 26.1095 12.4851 24.6313C11.0319 23.153 10.2122 21.1665 10.2 19.0937ZM18.218 20.1226H16.479C15.485 20.1226 14.492 20.1176 13.498 20.1226C13.016 20.1226 12.876 20.3136 12.988 20.7676C13.011 20.8606 13.041 20.9526 13.069 21.0446C13.368 22.1906 14.0429 23.203 14.9855 23.9199C15.9282 24.6368 17.0841 25.0168 18.2683 24.9989C19.4524 24.9811 20.5964 24.5664 21.517 23.8214C22.4375 23.0764 23.0816 22.0441 23.3459 20.8896C23.5029 20.3046 23.369 20.1216 22.772 20.1206C21.2533 20.1206 19.7366 20.1213 18.222 20.1226H18.218ZM22.254 16.6986C22.2699 16.4142 22.2096 16.1307 22.0794 15.8774C21.9491 15.6241 21.7536 15.4101 21.513 15.2576C21.3442 15.1622 21.1525 15.1146 20.9586 15.1201C20.7648 15.1255 20.5761 15.1838 20.4129 15.2886C20.1191 15.4961 19.902 15.7949 19.7955 16.1385C19.689 16.4821 19.699 16.8513 19.824 17.1886C19.895 17.4564 20.053 17.693 20.2731 17.8614C20.4932 18.0297 20.7629 18.1202 21.0399 18.1186C21.3155 18.0933 21.5755 17.9793 21.7808 17.7938C21.9862 17.6083 22.1259 17.3612 22.179 17.0896C22.222 16.9346 22.241 16.7666 22.254 16.6986ZM13.894 16.6346C13.8723 16.8194 13.8895 17.0066 13.9447 17.1842C13.9999 17.3618 14.0916 17.5259 14.2142 17.6659C14.3367 17.8058 14.4872 17.9185 14.6559 17.9966C14.8247 18.0748 15.008 18.1167 15.194 18.1196C15.5301 18.0701 15.8358 17.8976 16.0518 17.6353C16.2678 17.3731 16.3787 17.04 16.363 16.7006C16.3952 16.3342 16.286 15.9693 16.0579 15.6808C15.8298 15.3922 15.4999 15.2019 15.136 15.1486C14.776 15.1854 14.4447 15.3614 14.2126 15.639C13.9806 15.9166 13.8663 16.2739 13.894 16.6346Z" fill="white"/>
<defs>
<filter id="filter0_b_1144_144516" x="-4" y="-3.29932" width="44" height="44" filterUnits="userSpaceOnUse" color-interpolation-filters="sRGB">
<feFlood flood-opacity="0" result="BackgroundImageFix"/>
<feGaussianBlur in="BackgroundImageFix" stdDeviation="2"/>
<feComposite in2="SourceAlpha" operator="in" result="effect1_backgroundBlur_1144_144516"/>
<feBlend mode="normal" in="SourceGraphic" in2="effect1_backgroundBlur_1144_144516" result="shape"/>
</filter>
</defs>
</svg>
