<svg width="20" height="19" viewBox="0 0 20 19" fill="none" xmlns="http://www.w3.org/2000/svg">
<circle cx="9.99959" cy="9.17" r="9.17" fill="#CA4141"/>
<rect x="2.65576" y="5.99902" width="14.924" height="7.136" fill="white"/>
<path fill-rule="evenodd" clip-rule="evenodd" d="M10.6867 0.344238H9.27373C9.11532 0.393805 8.95069 0.420738 8.78473 0.424238C8.19247 0.510577 7.60959 0.652196 7.04373 0.847238L6.72873 0.959238L5.76373 1.41624L5.35073 1.65524C4.67603 2.09169 4.05683 2.60847 3.50673 3.19424C3.13678 3.6096 2.79724 4.05108 2.49073 4.51524L2.25173 4.92824L1.79473 5.89324L1.68273 6.20824C1.43833 6.90837 1.28049 7.63577 1.21273 8.37424C1.21237 8.37763 1.21208 8.38105 1.21179 8.38446C1.20969 8.40924 1.20762 8.43369 1.17773 8.44424V9.88524C1.23064 10.0512 1.25927 10.224 1.26273 10.3982C1.34611 10.981 1.48679 11.5541 1.68273 12.1092C1.69024 12.1368 1.69559 12.1649 1.69873 12.1932C1.73185 12.233 1.75239 12.2818 1.75773 12.3332L1.89573 12.6772C1.92213 12.7041 1.93778 12.7396 1.93973 12.7772C1.99949 12.8707 2.04688 12.9716 2.08073 13.0772L2.18073 13.2662L2.32373 13.5302C2.35968 13.5645 2.38531 13.6082 2.39773 13.6562L2.59773 13.9812L2.69773 14.1272L2.91373 14.4342L2.97173 14.5072L3.18373 14.7762L3.28373 14.8872L3.49473 15.1272L3.62573 15.2672L3.84773 15.4912L3.97373 15.6112L4.22873 15.8462C4.26732 15.8591 4.29975 15.8858 4.31973 15.9212L4.56573 16.1212C4.61995 16.1453 4.66762 16.182 4.70473 16.2282L4.98173 16.4282C5.02224 16.4403 5.05749 16.4656 5.08173 16.5002L5.38873 16.6912L5.53073 16.7822L5.83773 16.9552L5.94573 17.0102L6.28473 17.1722L6.38973 17.2292C6.50934 17.2636 6.62473 17.3112 6.73373 17.3712C6.79569 17.3798 6.85468 17.4031 6.90573 17.4392C7.44005 17.6281 7.98933 17.7716 8.54773 17.8682C8.6866 17.8895 8.82547 17.907 8.96434 17.9244C9.04147 17.9342 9.1186 17.9439 9.19573 17.9542C9.20754 17.9559 9.21994 17.9554 9.23235 17.955C9.26515 17.9537 9.29797 17.9525 9.31973 17.9902H10.6637C10.8487 17.9431 11.038 17.9156 11.2287 17.9082C11.7524 17.8305 12.269 17.7111 12.7737 17.5512L13.0737 17.4512L13.9297 17.0782L14.3107 16.8842C15.0636 16.4447 15.7543 15.9066 16.3647 15.2842C16.8821 14.7327 17.3366 14.1253 17.7197 13.4732L17.9087 13.1012L18.2867 12.2352L18.3867 11.9352C18.597 11.286 18.7329 10.6151 18.7917 9.93524C18.7921 9.93226 18.7923 9.92924 18.7926 9.92621C18.7949 9.90181 18.7973 9.87669 18.8257 9.86424V8.52024C18.7779 8.33444 18.7504 8.14399 18.7437 7.95224C18.6467 7.31268 18.49 6.68361 18.2757 6.07324C18.2396 6.02219 18.2163 5.96319 18.2077 5.90124C18.1477 5.79222 18.1001 5.67684 18.0657 5.55724L18.0087 5.45724L17.8467 5.11924L17.7907 5.01024L17.6177 4.70324L17.5277 4.56124L17.3377 4.25524C17.3033 4.23083 17.278 4.19564 17.2657 4.15524L17.0657 3.87824C17.0299 3.8553 17.0041 3.81953 16.9937 3.77824L16.7577 3.49024C16.7223 3.47033 16.6955 3.43787 16.6827 3.39924L16.4477 3.14324L16.3267 3.01724L16.1037 2.79624L15.9637 2.66524L15.7237 2.45424L15.6117 2.35424L15.3427 2.14224L15.2697 2.08424L14.9627 1.86824L14.8167 1.76824L14.4927 1.56824L14.3657 1.49324L14.1017 1.34924L13.9127 1.24924C13.8071 1.2154 13.7062 1.168 13.6127 1.10824C13.5753 1.10665 13.5397 1.09135 13.5127 1.06524L13.1687 0.927238C13.1172 0.921949 13.0685 0.901405 13.0287 0.868238C12.5203 0.695611 11.9995 0.561892 11.4707 0.468238C11.3496 0.450614 11.2281 0.434809 11.1065 0.418987C11.0073 0.406082 10.908 0.393165 10.8087 0.379238C10.7969 0.377549 10.7843 0.378317 10.7716 0.379088C10.7394 0.381054 10.7069 0.383033 10.6867 0.344238ZM16.4427 10.7202C16.4174 10.9796 16.2193 11.1888 15.9617 11.2282H15.9627C15.8928 11.246 15.8198 11.2487 15.7487 11.2362H15.2327H15.0597H14.5437H14.3707C14.2212 11.261 14.068 11.2497 13.9237 11.2032C13.8538 11.1922 13.7901 11.1568 13.7437 11.1032C13.6238 11.0401 13.5408 10.9241 13.5197 10.7902L13.4807 10.6162L13.3987 10.2412L13.3437 10.0652L13.1977 9.72224L13.1357 9.65024L12.8217 9.47924C12.7848 9.47874 12.7493 9.46489 12.7217 9.44024L12.3437 9.33324L12.1657 9.28824L11.7537 9.20924L11.5827 9.19024L11.1357 9.13724L10.9627 9.12824L10.4467 9.09924H10.3077H9.61873L9.06873 9.13024H8.89573L8.30973 9.19824C8.24331 9.223 8.17253 9.23389 8.10173 9.23024L7.44673 9.38124L7.17173 9.47424C6.94248 9.55006 6.76191 9.72878 6.68373 9.95724L6.61173 10.2002C6.59556 10.2709 6.57975 10.3417 6.56391 10.4127C6.54254 10.5084 6.52113 10.6043 6.49873 10.7002C6.44941 11.027 6.15628 11.2604 5.82673 11.2352C5.78366 11.2358 5.74058 11.2343 5.69751 11.2328C5.66058 11.2315 5.62366 11.2302 5.58673 11.2302H5.41373H4.89773H4.72473H4.20873L4.03573 11.2222C3.89985 11.2032 3.77695 11.1313 3.69373 11.0222C3.64645 10.9899 3.61127 10.9428 3.59373 10.8882C3.54244 10.7573 3.51338 10.6187 3.50773 10.4782C3.48151 10.4246 3.47077 10.3647 3.47673 10.3052C3.43366 10.1592 3.41276 10.0075 3.41473 9.85524L3.39373 9.71624C3.35486 9.51978 3.37647 9.31615 3.45573 9.13224C3.6466 8.70378 3.98571 8.35863 4.41073 8.16024C4.71031 7.96774 5.03596 7.81922 5.37773 7.71924C5.45115 7.67668 5.53315 7.65106 5.61773 7.64424C5.85196 7.55306 6.09489 7.48605 6.34273 7.44424C6.40788 7.41578 6.47873 7.40277 6.54973 7.40624C6.75197 7.34575 6.9602 7.30752 7.17073 7.29224C7.23592 7.26559 7.30698 7.25662 7.37673 7.26624C7.57961 7.218 7.78722 7.19251 7.99573 7.19024C8.05082 7.16775 8.1111 7.16117 8.16973 7.17124C8.35206 7.14353 8.53632 7.13049 8.72073 7.13224H8.89373C9.07579 7.10247 9.2606 7.09308 9.44473 7.10424H9.61873H10.1347H10.3077L10.8227 7.11224C10.8814 7.10166 10.9419 7.10719 10.9977 7.12824L11.4777 7.14624C11.5252 7.13708 11.5744 7.14376 11.6177 7.16524C11.7794 7.15766 11.9414 7.17076 12.0997 7.20424C12.1594 7.19607 12.2202 7.20259 12.2767 7.22324L12.7197 7.27724C12.768 7.27056 12.8171 7.2808 12.8587 7.30624C13.0214 7.31325 13.1828 7.33875 13.3397 7.38224C13.3772 7.37745 13.415 7.3879 13.4447 7.41124C13.5984 7.42277 13.7497 7.45645 13.8937 7.51124C13.9424 7.50583 13.9914 7.51905 14.0307 7.54824C14.1818 7.57015 14.3291 7.61254 14.4687 7.67424L14.5527 7.69924L14.9257 7.83524L15.0317 7.88824C15.1667 7.92633 15.2944 7.98648 15.4097 8.06624C15.4514 8.07142 15.4896 8.09213 15.5167 8.12424C15.6284 8.17002 15.7318 8.23388 15.8227 8.31324L15.9317 8.39524C16.0385 8.45946 16.1321 8.54326 16.2077 8.64224C16.2517 8.66849 16.2866 8.70758 16.3077 8.75424C16.4067 8.84867 16.4794 8.96722 16.5187 9.09824C16.5523 9.13745 16.572 9.18667 16.5747 9.23824C16.6213 9.38258 16.6305 9.53634 16.6017 9.68524L16.5787 9.89324C16.57 10.1031 16.5364 10.3112 16.4787 10.5132C16.4854 10.5842 16.473 10.6557 16.4427 10.7202Z" fill="#CA4141"/>
</svg>
