<svg width="14" height="11" viewBox="0 0 14 11" fill="none" xmlns="http://www.w3.org/2000/svg">
<path d="M9.67941 5.5C9.67941 6.92634 8.47003 8.07143 7.01043 8.07143C5.52997 8.07143 4.34144 6.92634 4.34144 5.5C4.34144 4.09375 5.52997 2.92857 7.01043 2.92857C8.47003 2.92857 9.67941 4.09375 9.67941 5.5ZM7.01043 3.57143C5.88445 3.57143 5.00869 4.43527 5.00869 5.5C5.00869 6.56473 5.88445 7.42857 7.01043 7.42857C8.11555 7.42857 9.01216 6.56473 9.01216 5.5C9.01216 4.43527 8.11555 3.57143 7.01043 3.57143ZM11.0139 2.62723C11.9939 3.49107 12.6403 4.53571 12.9531 5.25893C13.0156 5.41964 13.0156 5.60045 12.9531 5.76116C12.6403 6.46429 11.9939 7.50893 11.0139 8.39286C10.0339 9.27679 8.67854 10 7.01043 10C5.32146 10 3.96612 9.27679 2.9861 8.39286C2.00608 7.50893 1.35969 6.46429 1.04692 5.76116C0.984361 5.60045 0.984361 5.41964 1.04692 5.25893C1.35969 4.53571 2.00608 3.49107 2.9861 2.62723C3.96612 1.7433 5.32146 1 7.01043 1C8.67854 1 10.0339 1.7433 11.0139 2.62723ZM1.67246 5.5C1.94353 6.14286 2.54822 7.10714 3.44483 7.91071C4.34144 8.71429 5.52997 9.35714 7.01043 9.35714C8.47003 9.35714 9.65856 8.71429 10.5552 7.91071C11.4518 7.10714 12.0565 6.14286 12.3484 5.5C12.0565 4.85714 11.4518 3.89286 10.5552 3.08929C9.65856 2.28571 8.47003 1.64286 7.01043 1.64286C5.52997 1.64286 4.34144 2.28571 3.44483 3.08929C2.54822 3.89286 1.94353 4.85714 1.67246 5.5Z" fill="white" stroke="white" stroke-width="0.4"/>
</svg>
