<svg width="72" height="72" viewBox="0 0 72 72" fill="none" xmlns="http://www.w3.org/2000/svg">
<path d="M61 22.5C61 23.6046 61.8954 24.5 63 24.5C64.1046 24.5 65 23.6046 65 22.5H61ZM49.5 7C48.3954 7 47.5 7.89543 47.5 9C47.5 10.1046 48.3954 11 49.5 11V7ZM11 49.5C11 48.3954 10.1046 47.5 9 47.5C7.89543 47.5 7 48.3954 7 49.5H11ZM22.5 65C23.6046 65 24.5 64.1046 24.5 63C24.5 61.8954 23.6046 61 22.5 61V65ZM22.5 11C23.6046 11 24.5 10.1046 24.5 9C24.5 7.89543 23.6046 7 22.5 7V11ZM7 22.5C7 23.6046 7.89543 24.5 9 24.5C10.1046 24.5 11 23.6046 11 22.5H7ZM49.5 61C48.3954 61 47.5 61.8954 47.5 63C47.5 64.1046 48.3954 65 49.5 65V61ZM65 49.5C65 48.3954 64.1046 47.5 63 47.5C61.8954 47.5 61 48.3954 61 49.5H65ZM65 22.5C65 13.9396 58.0604 7 49.5 7V11C55.8513 11 61 16.1487 61 22.5H65ZM7 49.5C7 58.0604 13.9396 65 22.5 65V61C16.1487 61 11 55.8513 11 49.5H7ZM22.5 7C13.9396 7 7 13.9396 7 22.5H11C11 16.1487 16.1487 11 22.5 11V7ZM49.5 65C58.0604 65 65 58.0604 65 49.5H61C61 55.8513 55.8513 61 49.5 61V65Z" fill="#363853"/>
<path fill-rule="evenodd" clip-rule="evenodd" d="M22 30.2711C22 31.1327 22.6985 31.8313 23.5601 31.8313C24.4218 31.8313 25.1203 31.1327 25.1203 30.2711V25.5601C25.1203 24.6985 24.4218 24 23.5601 24C22.6985 24 22 24.6985 22 25.5601V30.2711ZM39.6203 25.6519V37.3988C39.6203 39.7266 37.7266 41.6203 35.3988 41.6203H34.0528C33.1404 41.6203 32.4009 40.8808 32.4009 39.9684C32.4009 39.0561 33.1404 38.3165 34.0528 38.3165H35.3988C35.9048 38.3165 36.3165 37.9048 36.3165 37.3988V25.6519C36.3165 24.7396 37.0561 24 37.9684 24C38.8808 24 39.6203 24.7396 39.6203 25.6519ZM47.3869 46.0059C48.006 46.6761 47.9645 47.7212 47.2943 48.3403C44.2974 51.1085 40.3988 52.633 36.3166 52.633C32.2344 52.633 28.3358 51.1085 25.3388 48.3403C24.6686 47.7212 24.6272 46.6761 25.2462 46.0059C25.8653 45.3358 26.9103 45.2943 27.5806 45.9133C29.9653 48.1161 33.0678 49.3292 36.3166 49.3292C39.5654 49.3292 42.6679 48.1161 45.0526 45.9133C45.7228 45.2943 46.7678 45.3358 47.3869 46.0059ZM51.0003 30.2711V25.5601C51.0003 24.6985 50.3018 24 49.4401 24C48.5785 24 47.88 24.6985 47.88 25.5601V30.2711C47.88 31.1327 48.5785 31.8313 49.4401 31.8313C50.3018 31.8313 51.0003 31.1327 51.0003 30.2711Z" fill="#363853"/>
</svg>
