<svg width="13" height="13" viewBox="0 0 13 13" fill="none" xmlns="http://www.w3.org/2000/svg">
<path d="M6.31201 0.586914C6.31201 0.586914 7.04977 3.54365 9.94408 4.28709C10.0462 4.35519 9.60925 10.4389 4.96701 11.6874C4.96701 11.7215 1.70382 10.5751 0.897949 6.64226" stroke="#777777" stroke-miterlimit="10" stroke-linecap="round" stroke-linejoin="round"/>
<path d="M2.0723 2.36919L2.55469 0.791504L3.11652 2.36919L4.39342 3.11263L3.08247 3.64609L2.55469 5.16134L2.0723 3.68014L0.75 3.14668L2.0723 2.36919Z" stroke="#777777" stroke-miterlimit="10" stroke-linecap="round" stroke-linejoin="round"/>
<path d="M11.1858 0.989258C11.2199 1.22194 12.3946 3.70196 10.3799 7.25459C10.414 7.24324 9.42653 9.46221 9.95431 10.6086C9.94296 10.6086 8.96684 10.6767 8.2915 9.29763" stroke="#777777" stroke-miterlimit="10" stroke-linecap="round" stroke-linejoin="round"/>
<path d="M3.95703 9.36621C3.95703 9.36621 4.93315 10.0075 6.14195 9.36621" stroke="#777777" stroke-miterlimit="10" stroke-linecap="round" stroke-linejoin="round"/>
<path d="M6.14111 5.51855C6.14111 5.51855 7.11723 6.15984 8.32603 5.51855" stroke="#777777" stroke-miterlimit="10" stroke-linecap="round" stroke-linejoin="round"/>
</svg>
