<svg width="20" height="20" viewBox="0 0 20 20" fill="none" xmlns="http://www.w3.org/2000/svg">
<path d="M2 4.3125C2 3.59375 2.5625 3 3.28125 3H16.6875C17.4062 3 18 3.59375 18 4.3125C18 4.625 17.875 4.90625 17.6875 5.125L12.5 11.5312V16C12.5 16.5625 12.0312 17 11.4688 17C11.25 17 11.0312 16.9375 10.8438 16.7812L7.96875 14.5C7.65625 14.25 7.5 13.9062 7.5 13.5312V11.5312L2.28125 5.125C2.09375 4.90625 2 4.625 2 4.3125ZM3.6875 4.5L8.8125 10.7812C8.9375 10.9375 9 11.0938 9 11.25V13.4062L11 15V11.25C11 11.0938 11.0312 10.9375 11.1562 10.7812L16.2812 4.5H3.6875Z" fill="white"/>
</svg>
