<svg width="29" height="28" viewBox="0 0 29 28" fill="none" xmlns="http://www.w3.org/2000/svg">
<g clip-path="url(#clip0_2043_120976)">
<path d="M23.7739 3.08589L14.5 0.0117188L5.22621 3.08589C4.53031 3.31458 3.92436 3.75709 3.4947 4.35036C3.06504 4.94363 2.83361 5.65737 2.83337 6.38989V14.0012C2.83337 22.7792 13.5667 27.6267 14.0264 27.8286L14.4394 28.0117L14.8687 27.8694C15.3295 27.7154 26.1667 24.0077 26.1667 14.0012V6.38989C26.1663 5.65742 25.9348 4.94375 25.5052 4.35052C25.0755 3.75729 24.4697 3.31474 23.7739 3.08589ZM23.8334 14.0012C23.8334 21.3081 16.4262 24.7532 14.5549 25.5057C12.68 24.5689 5.16671 20.4109 5.16671 14.0012V6.38989C5.16681 6.14567 5.24401 5.90772 5.38731 5.70995C5.5306 5.51219 5.73267 5.36472 5.96471 5.28855L14.5 2.45822L23.0354 5.28855C23.2676 5.36441 23.4699 5.5118 23.6132 5.70963C23.7566 5.90746 23.8336 6.14558 23.8334 6.38989V14.0012Z" fill="white"/>
<path d="M17.355 18L16.4526 15.334H12.6929L11.7905 18H10.1978L13.7593 8.13574H15.4136L18.9751 18H17.355ZM14.5522 9.77637L13.0825 14.1035H16.063L14.5933 9.77637H14.5522Z" fill="white"/>
</g>
<defs>
<clipPath id="clip0_2043_120976">
<rect width="28" height="28" fill="white" transform="translate(0.5)"/>
</clipPath>
</defs>
</svg>
