<svg width="12" height="15" viewBox="0 0 12 15" fill="none" xmlns="http://www.w3.org/2000/svg">
<path d="M0.834493 7.72257C1.2958 8.32847 1.87385 8.83579 2.53449 9.21457C2.53449 9.21457 1.69949 2.15957 7.13449 0.93457C5.74149 6.04857 8.90649 7.49057 10.0605 4.78857C11.1998 6.14277 11.3844 8.05984 10.5245 9.60657C11.3145 9.72057 11.9785 8.85757 11.9785 8.85757C11.9845 8.96357 11.9875 9.07057 11.9875 9.17857C11.9846 11.3802 10.7082 13.3815 8.71315 14.3126C6.71807 15.2438 4.36442 14.9367 2.67501 13.5248C0.985605 12.113 0.265449 9.8513 0.827493 7.72257H0.834493Z" fill="#FF6536"/>
<path d="M11.9855 8.85757C11.9855 8.85757 11.3215 9.72057 10.5315 9.60657C11.3914 8.05984 11.2068 6.14277 10.0675 4.78857C8.9135 7.48857 5.7475 6.04857 7.1405 0.93457C6.86176 0.996939 6.58776 1.07881 6.3205 1.17957V14.8536C9.45432 14.853 11.9945 12.3124 11.9945 9.17857C11.9945 9.07057 11.9915 8.96357 11.9855 8.85757Z" fill="#FF421D"/>
<path d="M3.83148 12.3647C3.83111 13.5081 4.60979 14.5046 5.71933 14.7808C6.82886 15.0569 7.98383 14.5416 8.51947 13.5315C9.05511 12.5213 8.83362 11.2762 7.98248 10.5127C7.02048 11.8197 5.64948 9.83667 6.71748 8.38867C6.71748 8.39267 3.83148 8.75067 3.83148 12.3647Z" fill="#FBBF00"/>
<path d="M8.8085 12.3647C8.80916 11.6577 8.50833 10.9841 7.9815 10.5127C7.0195 11.8197 5.6485 9.83667 6.7165 8.38867C6.58064 8.41096 6.44686 8.4444 6.3165 8.48867V14.8577C6.97783 14.8585 7.6123 14.596 8.07984 14.1283C8.54739 13.6606 8.80956 13.026 8.8085 12.3647V12.3647Z" fill="#FFA900"/>
</svg>
