<svg width="55" height="46" viewBox="0 0 55 46" fill="none" xmlns="http://www.w3.org/2000/svg">
<path fill-rule="evenodd" clip-rule="evenodd" d="M49.838 24.8481C52.519 27.6355 54.1272 31.2817 54.378 35.1411C54.381 36.4412 53.5129 37.5822 52.259 37.9261C47.954 38.5921 44.37 37.0201 41.159 34.6261C40.3454 37.47 38.8248 40.0616 36.739 42.1591C33.6132 45.196 29.1014 46.3282 24.912 45.1271C20.5 43.9381 15.946 41.3331 12.068 38.9461C9.36724 37.3915 7.17482 35.0876 5.75604 32.3131C3.48004 33.1481 0.676041 30.3401 2.29004 28.1301L2.87904 27.3221C0.747041 25.8491 -1.04696 23.8641 1.06304 21.3981C2.08784 20.2373 3.70013 19.789 5.17704 20.2541C6.26804 15.8061 9.79204 12.4351 13.81 10.1731C13.845 6.46506 13.893 1.74606 18.003 0.673059C19.7356 0.221746 21.8014 0.495392 23.6244 0.736876L23.6244 0.736879C23.8817 0.770956 24.1341 0.804391 24.38 0.835059C26.5443 1.07331 28.6797 1.52518 30.755 2.18406C36.999 4.26306 42.806 9.21706 44.338 15.6221C45.7739 14.8328 47.2747 14.168 48.824 13.6351C49.6926 13.4042 50.619 13.5878 51.3339 14.1324C52.0488 14.677 52.4719 15.5214 52.48 16.4201C52.4372 19.4265 51.5191 22.3552 49.838 24.8481ZM43.7025 23.2228C43.7346 23.1852 43.7662 23.1482 43.803 23.1121C44.0756 22.8373 44.333 22.5478 44.574 22.2451C44.299 22.4511 44.027 22.6621 43.762 22.8821C43.6735 22.9547 43.5803 23.0215 43.483 23.0821L43.651 23.2821L43.6712 23.2593C43.6818 23.2471 43.6922 23.2349 43.7025 23.2228ZM22.52 12.3374L22.52 12.3375L22.503 12.4221C22.494 12.4135 22.4859 12.404 22.4777 12.3944C22.4676 12.3827 22.4576 12.371 22.446 12.3611C22.2932 12.2344 22.134 12.1156 21.969 12.0051C22.072 11.8511 22.307 11.8231 22.616 11.8741C22.5822 12.0273 22.5512 12.1819 22.52 12.3374ZM19.802 6.57306C20.0966 6.45408 20.3998 6.3578 20.709 6.28506V6.28006C20.4187 6.26101 20.1276 6.25867 19.837 6.27306C19.8182 6.3721 19.8065 6.47235 19.802 6.57306Z" fill="white"/>
<path fill-rule="evenodd" clip-rule="evenodd" d="M50.821 36.0646C50.9317 35.98 50.9974 35.8493 50.9991 35.71C50.6751 31.905 49.9791 27.508 46.3331 25.53C49.4411 23.373 49.8001 19.434 49.8261 15.867C49.8244 15.6572 49.6548 15.4876 49.4451 15.486C46.692 15.715 44.1698 17.1149 42.5191 19.33C39.8791 9.22579 30.126 2.67056 19.7731 4.04198C18.7831 4.17998 17.8101 4.32298 17.3431 5.30398C16.6551 6.75698 17.1741 9.03198 17.6151 10.493C17.6207 10.5081 17.6281 10.5225 17.6371 10.536C11.9041 12.97 7.26505 18.357 6.54705 24.57C5.84605 23.657 4.55805 23.017 3.68905 24.042C2.66505 25.244 4.05305 26.485 5.22405 26.865C4.75037 27.0084 4.35516 27.3379 4.12895 27.778C3.90273 28.2182 3.86488 28.7314 4.02405 29.2C4.54305 30.373 5.78305 29.982 6.63105 29.373C8.49905 34.167 13.1641 37.077 18.2871 38.344C18.3003 38.3622 18.3146 38.3796 18.3301 38.396C22.1171 41.543 27.1541 43.475 32.0701 42.148C33.7353 41.7587 35.2277 40.8359 36.3201 39.52C36.5531 39.533 36.8041 39.295 36.6661 39.057C37.838 37.0937 38.4218 34.8353 38.3481 32.55C38.3495 32.4675 38.3235 32.387 38.2741 32.321C39.0684 31.1678 39.734 29.9311 40.2591 28.633C42.2763 32.6003 46.0466 35.3836 50.4321 36.143C50.5669 36.178 50.7103 36.1491 50.821 36.0646ZM50.0457 35.0894C50.049 35.1085 50.0519 35.1259 50.0521 35.143C46.0931 34.2397 42.7499 31.6045 40.9471 27.966C40.8852 27.826 40.745 27.7372 40.5921 27.741C40.6961 27.451 40.7861 27.153 40.8731 26.859C44.1951 29.2731 47.2658 32.0153 50.0391 35.044C50.0407 35.0603 50.0433 35.0753 50.0457 35.0893L50.0457 35.0894ZM49.9351 34.071C49.8283 33.1358 49.6535 32.2097 49.4121 31.3C46.8391 29.2679 44.0406 27.5388 41.0721 26.147C41.0558 26.2092 41.0387 26.2696 41.0216 26.3297L41.0215 26.33C41.0019 26.3992 40.9822 26.4683 40.9641 26.54C44.2664 28.6532 47.2817 31.1846 49.9351 34.071ZM49.0402 17.5028C49.0205 17.6355 48.9996 17.7753 48.9891 17.92C48.9394 18.6634 48.8442 19.4032 48.7041 20.135C46.4794 21.6223 44.0809 22.8313 41.5621 23.735C41.6051 23.415 41.6441 23.1 41.6741 22.784C44.5247 21.2905 46.988 19.1529 48.8681 16.541C49.1515 16.7558 49.1008 17.0963 49.0402 17.5028ZM48.4946 20.9695L48.4946 20.9694L48.4946 20.9693C48.5047 20.9285 48.5148 20.8875 48.5261 20.847C46.4184 22.3662 44.0397 23.4683 41.5181 24.094H41.5091C41.4791 24.2973 41.4457 24.5006 41.4091 24.704C41.4387 24.6949 41.4704 24.6949 41.5001 24.704C42.7403 24.9844 44.017 25.0675 45.2831 24.95C45.3544 24.9398 45.4263 24.9639 45.4771 25.015C46.9183 24.1551 47.9778 22.7784 48.4401 21.165V21.167C48.4613 21.1045 48.4778 21.0374 48.4946 20.9695ZM48.3688 16.3547L48.3711 16.355L48.3701 16.353L48.3688 16.3547ZM44.3201 18.417C45.0845 17.7554 47.2053 16.201 48.3688 16.3547C46.5313 18.7447 44.2722 20.7786 41.7031 22.356C41.7075 22.2736 41.7139 22.1919 41.7203 22.1099L41.7204 22.1091C41.7269 22.0253 41.7335 21.9413 41.7381 21.856C41.7657 21.8395 41.7882 21.8156 41.8031 21.787C42.0021 21.409 42.2141 21.046 42.4391 20.687C42.6361 20.6352 42.7627 20.4435 42.7331 20.242C43.1821 19.5685 43.7154 18.9552 44.3201 18.417ZM49.1151 30.355L49.1127 30.3478L49.1141 30.349L49.1151 30.355ZM49.1127 30.3478C46.766 28.351 44.0696 26.8063 41.1601 25.792L41.1875 25.6848C41.244 25.4643 41.3013 25.2408 41.3461 25.018C41.363 25.0322 41.3818 25.044 41.4021 25.053C42.6006 25.4696 43.8752 25.6214 45.1381 25.498C45.1488 25.6402 45.225 25.7694 45.3442 25.8477C45.4634 25.926 45.6122 25.9446 45.7471 25.898C47.3337 26.9647 48.5183 28.5309 49.1127 30.3478ZM41.9341 20.315C41.8249 20.5319 41.7268 20.7542 41.6401 20.981L41.6391 20.975C41.0274 19.4733 40.2193 18.0593 39.2361 16.77L39.2363 16.7698L39.2363 16.7698C39.5992 16.4978 39.9621 16.2259 40.3171 15.94C40.9994 17.3413 41.541 18.8068 41.9341 20.315ZM41.0181 21.509L41.0159 21.5077L41.0161 21.503L41.0181 21.509ZM41.0159 21.5077C40.9303 21.456 40.8642 21.3773 40.8281 21.284C37.8336 13.9301 30.3872 9.39462 22.4791 10.108C14.4591 11.02 8.71705 17.583 6.97105 25.123C6.96338 25.1614 6.94378 25.1964 6.91505 25.223L6.95405 25.314C7.03205 25.556 6.71605 25.703 6.54805 25.552C6.23284 25.1664 5.8745 24.8181 5.48005 24.514C5.14705 24.324 4.58505 24.207 4.29105 24.544C3.94505 24.933 4.25605 25.504 4.58505 25.785C4.98221 26.0519 5.407 26.2752 5.85205 26.451C5.97293 26.5068 6.02678 26.6492 5.97305 26.771C6.01394 26.8115 6.0354 26.8676 6.03195 26.9251C6.0285 26.9825 6.00048 27.0357 5.95505 27.071C5.85381 27.1463 5.73723 27.222 5.61581 27.3009L5.61576 27.3009L5.61571 27.3009L5.61565 27.301C5.06788 27.6567 4.4217 28.0764 4.64105 28.809C4.95205 29.864 6.21105 28.848 6.64105 28.472C6.97005 28.182 7.44105 28.636 7.12505 28.956C7.09505 28.986 7.06505 29.016 7.02505 29.047C9.16127 32.7632 12.5592 35.5903 16.6021 37.015C20.7558 38.4521 25.2312 38.6858 29.5121 37.689C36.6135 35.8264 40.7462 28.4713 41.0159 21.5077ZM40.0451 15.409C39.6781 15.737 39.3191 16.083 38.9641 16.429L38.9621 16.42C38.074 15.3029 37.0656 14.2871 35.9551 13.391C36.271 13.075 36.578 12.751 36.885 12.427L36.8851 12.427C36.9831 12.3251 37.0851 12.2241 37.1878 12.1226L37.1878 12.1226L37.1879 12.1225L37.1879 12.1225L37.1879 12.1224L37.188 12.1224L37.1881 12.1222L37.1882 12.1222C37.3252 11.9867 37.4632 11.8501 37.5941 11.709C38.5405 12.8515 39.3622 14.0918 40.0451 15.409ZM36.3441 38.388C37.1474 36.8293 37.5498 35.0951 37.5151 33.342C36.6511 34.422 35.6481 35.383 34.5321 36.2C35.1648 36.9212 35.7468 37.6854 36.2741 38.487C36.2844 38.4673 36.2967 38.4507 36.3088 38.4344C36.3212 38.4177 36.3334 38.4013 36.3431 38.382L36.3441 38.388ZM36.7617 11.8173L36.7616 11.8174L36.7616 11.8175C36.6869 11.906 36.6128 11.994 36.5381 12.08L36.5371 12.073L36.5061 12.1079C36.2095 12.4432 35.914 12.7771 35.6261 13.126C34.4314 12.2047 33.1345 11.4242 31.7611 10.8C31.9855 10.2794 32.2342 9.76922 32.4822 9.26021C32.7159 8.78062 32.9491 8.3021 33.1611 7.81698C34.6728 8.77664 36.0411 9.94558 37.2251 11.289C37.0635 11.4592 36.9117 11.6393 36.7617 11.8173ZM35.8881 39.02C35.3559 38.1341 34.7775 37.2769 34.1551 36.452C33.1386 37.1492 32.0352 37.7103 30.8731 38.121C31.3257 39.1781 31.6936 40.2695 31.9731 41.385C33.4877 41.0119 34.853 40.187 35.8881 39.02ZM32.7137 7.54015L32.7151 7.54098V7.53798L32.7137 7.54015ZM32.7137 7.54015C32.6877 7.5245 32.6624 7.50822 32.637 7.49182L32.637 7.49181L32.637 7.4918L32.6369 7.49177L32.6368 7.4917L32.6368 7.49169C32.5993 7.46749 32.5614 7.44304 32.5201 7.41998C31.1162 6.61246 29.6196 5.97816 28.0631 5.53098C28.0674 5.55074 28.0674 5.57122 28.0631 5.59098C28.0142 5.92646 27.9358 6.25597 27.8573 6.58593L27.8573 6.58595L27.8573 6.58603L27.8573 6.58605C27.775 6.93175 27.6927 7.27794 27.6441 7.63198C27.5626 8.23521 27.5221 8.84327 27.5231 9.45198C28.8571 9.70528 30.159 10.1054 31.4051 10.645C31.6673 9.54502 32.1095 8.49596 32.7137 7.54015ZM30.7871 41.65C30.9811 41.616 31.1801 41.576 31.3791 41.533C31.0007 40.4614 30.7087 39.3612 30.5061 38.243C30.1341 38.36 29.7581 38.464 29.3731 38.554C28.1545 38.8242 26.9149 38.9892 25.6681 39.047C25.7681 39.488 25.8681 39.925 26.0141 40.353C26.0825 40.5536 26.1628 40.7494 26.243 40.945L26.243 40.945C26.3339 41.1667 26.4247 41.3881 26.4981 41.616C27.9145 41.8804 29.3666 41.8919 30.7871 41.65ZM27.6391 5.40698C27.1138 6.65966 26.9259 8.02809 27.0941 9.37598C25.6667 9.14208 24.2155 9.08967 22.7751 9.21998C22.7697 8.60052 22.7593 7.98106 22.7489 7.36133L22.7489 7.36103C22.734 6.47119 22.7191 5.58078 22.7191 4.68898C23.1759 4.7142 23.6337 4.75165 24.0513 4.78581L24.0901 4.78898C25.2888 4.89098 26.4764 5.09777 27.6391 5.40698ZM25.7881 41.469L25.7879 41.4687L25.7891 41.469H25.7881ZM25.7879 41.4687C23.5106 40.8827 21.3506 39.9104 19.4021 38.594C21.301 38.9669 23.2357 39.1263 25.1701 39.069C25.2597 39.8944 25.4678 40.7026 25.7879 41.4687ZM22.2768 9.27345C22.2433 9.27655 22.2093 9.2797 22.1741 9.28398C20.8195 9.46309 19.4913 9.8042 18.2181 10.3C18.1923 10.1359 18.1646 9.96953 18.1368 9.80184C17.8003 7.7773 17.432 5.56145 19.9431 4.89098C20.6807 4.71644 21.4387 4.64377 22.1961 4.67498C22.0215 6.20459 22.0856 7.75204 22.3861 9.26198C22.3499 9.2667 22.3137 9.27004 22.2768 9.27345Z" fill="#222221"/>
<path d="M50.0401 35.0479C50.0401 35.0819 50.0491 35.1129 50.0531 35.1479C46.0949 34.2456 42.7519 31.6119 40.9481 27.9749C40.8862 27.835 40.746 27.7462 40.5931 27.7499C40.6931 27.4599 40.7871 27.1619 40.8741 26.8679C44.1958 29.2805 47.2666 32.0209 50.0401 35.0479Z" fill="#80BDC4"/>
<path d="M49.4121 31.299C49.6536 32.2087 49.8284 33.1348 49.9351 34.07C47.2817 31.1836 44.2664 28.6523 40.9641 26.539C40.9991 26.405 41.0381 26.28 41.0721 26.146C44.0406 27.5379 46.839 29.2669 49.4121 31.299Z" fill="#80BDC4"/>
<path d="M48.868 16.5391C49.244 16.8251 49.032 17.3301 48.989 17.9181C48.9392 18.6626 48.8437 19.4033 48.703 20.1361C46.4784 21.6234 44.0799 22.8324 41.561 23.7361C41.604 23.4161 41.643 23.1001 41.673 22.7851C44.5244 21.2909 46.988 19.1522 48.868 16.5391V16.5391Z" fill="#80BDC4"/>
<path d="M48.526 20.845C48.496 20.953 48.474 21.061 48.44 21.165C47.975 22.776 46.9142 24.1497 45.473 25.007C45.4223 24.9559 45.3503 24.9318 45.279 24.942C44.0129 25.0594 42.7362 24.9764 41.496 24.696C41.4664 24.6869 41.4347 24.6869 41.405 24.696C41.4437 24.4926 41.477 24.2893 41.505 24.086H41.514C44.0366 23.4626 46.4167 22.3625 48.526 20.845V20.845Z" fill="#80BDC4"/>
<path d="M44.32 18.415C45.085 17.749 47.208 16.197 48.371 16.353C46.5331 18.7427 44.2736 20.7762 41.704 22.353C41.713 22.189 41.73 22.025 41.739 21.853C41.7667 21.8365 41.7893 21.8126 41.804 21.784C42.004 21.408 42.214 21.045 42.44 20.684C42.6371 20.6322 42.7637 20.4405 42.734 20.239C43.1828 19.5659 43.7158 18.9529 44.32 18.415Z" fill="#80BDC4"/>
<path d="M45.7461 25.8911C47.3348 26.9591 48.5204 28.5281 49.1141 30.3481C46.7675 28.3473 44.0702 26.7991 41.1591 25.7821C41.2241 25.5271 41.2931 25.2671 41.3451 25.0081C41.362 25.0223 41.3808 25.0341 41.4011 25.0431C42.5996 25.4597 43.8742 25.6115 45.1371 25.4881C45.147 25.6308 45.2228 25.7609 45.3421 25.8398C45.4615 25.9188 45.6108 25.9378 45.7461 25.8911Z" fill="#80BDC4"/>
<path d="M41.9331 20.3091C41.8239 20.526 41.7258 20.7483 41.6391 20.9751C41.0288 19.4715 40.2218 18.0554 39.2391 16.7641C39.6021 16.4921 39.9651 16.2191 40.3201 15.9341C41.001 17.3355 41.5413 18.801 41.9331 20.3091Z" fill="#80BDC4"/>
<path fill-rule="evenodd" clip-rule="evenodd" d="M40.825 21.277C40.8615 21.3711 40.9284 21.4503 41.015 21.502C40.747 28.467 36.615 35.826 29.515 37.68C25.2342 38.6768 20.7588 38.4431 16.605 37.006C12.5623 35.5813 9.16433 32.7542 7.02804 29.038C7.04765 29.0212 7.06568 29.0044 7.0839 28.9874L7.08392 28.9874C7.09823 28.9741 7.11265 28.9607 7.12804 28.947C7.43904 28.627 6.97204 28.173 6.64404 28.463C6.21204 28.839 4.95304 29.855 4.64404 28.8C4.42486 28.068 5.07055 27.6484 5.61775 27.2928C5.73961 27.2136 5.85659 27.1376 5.95804 27.062C6.00347 27.0267 6.03149 26.9735 6.03494 26.9161C6.03839 26.8587 6.01693 26.8025 5.97604 26.762C6.02977 26.6402 5.97592 26.4978 5.85504 26.442C5.40999 26.2662 4.9852 26.0429 4.58804 25.776C4.25904 25.495 3.94804 24.924 4.29404 24.535C4.58804 24.198 5.15004 24.315 5.48304 24.505C5.87749 24.8091 6.23582 25.1574 6.55104 25.543C6.72004 25.694 7.03504 25.543 6.95704 25.305L6.91804 25.214C6.94677 25.1874 6.96637 25.1524 6.97404 25.114C8.72104 17.574 14.462 11.014 22.482 10.099C30.3885 9.38872 37.8319 13.9246 40.825 21.277ZM28.125 27.858C29.388 27.093 29.491 24.183 29.396 22.933C29.318 21.904 29.115 19.816 27.974 19.366C26.638 18.843 24.939 20.144 23.927 21.039C23.9076 20.9653 23.8829 20.8932 23.853 20.823C23.5095 20.0647 22.6799 19.6526 21.868 19.837C21.626 19.888 21.678 20.291 21.924 20.269C22.4843 20.1794 23.0343 20.4796 23.2621 20.9993C23.4898 21.519 23.3377 22.1268 22.892 22.478C22.585 22.707 22.892 23.226 23.192 22.993C23.2272 22.9648 23.2606 22.9344 23.292 22.902C24.0293 23.4844 24.3332 24.4599 24.057 25.358C23.7051 26.1938 22.9048 26.7534 21.999 26.797C21.636 26.862 21.748 27.397 22.081 27.411C22.8823 27.4709 23.6586 27.1171 24.139 26.473C24.1854 26.5029 24.2353 26.5353 24.2884 26.5698L24.289 26.5702C25.2289 27.1807 27.1665 28.4391 28.127 27.858H28.125ZM15.8719 19.6561C16.3676 20.3327 16.5339 21.1958 16.325 22.008H16.329C16.2625 22.1757 16.08 22.2659 15.9064 22.217C15.7327 22.168 15.6242 21.9958 15.655 21.818C15.7997 21.1931 15.6481 20.5363 15.2443 20.0379C14.8404 19.5395 14.2294 19.2551 13.588 19.267C13.0008 19.3764 12.4813 19.7153 12.1446 20.2087C11.808 20.7021 11.6818 21.3093 11.794 21.896C11.829 22.234 11.35 22.238 11.25 21.97C11.0209 21.1673 11.1741 20.3038 11.6655 19.629C12.1569 18.9542 12.9317 18.5433 13.766 18.515C14.6035 18.5608 15.3763 18.9795 15.8719 19.6561Z" fill="#E7BC3D"/>
<path d="M40.0431 15.4019C39.6761 15.7309 39.3171 16.0769 38.9621 16.4219C38.074 15.3013 37.0648 14.2821 35.9531 13.3829C36.2691 13.0669 36.5751 12.7429 36.8831 12.4189C37.1121 12.1809 37.3631 11.9479 37.5921 11.7009C38.5386 12.8437 39.3603 14.0844 40.0431 15.4019Z" fill="#80BDC4"/>
<path d="M37.514 33.3359C37.5488 35.0891 37.1464 36.8233 36.343 38.3819C36.321 38.4159 36.295 38.4469 36.274 38.4819C35.7468 37.6803 35.1648 36.9162 34.532 36.1949C35.6477 35.3776 36.6504 34.4162 37.514 33.3359V33.3359Z" fill="#80BDC4"/>
<path d="M37.2251 11.286C36.9831 11.541 36.7621 11.818 36.5381 12.077C36.2311 12.423 35.9241 12.769 35.6301 13.123C34.4354 12.2017 33.1385 11.4212 31.7651 10.797C32.1981 9.78596 32.7251 8.81696 33.1651 7.81396C34.6754 8.77394 36.0423 9.94287 37.2251 11.286Z" fill="#80BDC4"/>
<path d="M34.155 36.448C34.7775 37.2729 35.3559 38.1301 35.888 39.016C34.8525 40.1834 33.4864 41.0082 31.971 41.381C31.6916 40.2655 31.3237 39.1741 30.871 38.117C32.0339 37.7065 33.138 37.1454 34.155 36.448Z" fill="#80BDC4"/>
<path d="M32.5201 7.41595C32.5891 7.45495 32.6501 7.49795 32.7151 7.53695C32.1122 8.49144 31.671 9.53883 31.4091 10.6369C30.163 10.0974 28.8611 9.69726 27.5271 9.44395C27.5261 8.83524 27.5666 8.22718 27.6481 7.62395C27.7481 6.93195 27.9721 6.27095 28.0671 5.58295C28.0714 5.56319 28.0714 5.54271 28.0671 5.52295C29.6224 5.9717 31.1177 6.60734 32.5201 7.41595Z" fill="#80BDC4"/>
<path d="M31.379 41.5329C31.179 41.5759 30.979 41.6149 30.787 41.6499C29.3666 41.8919 27.9145 41.8803 26.498 41.6159C26.36 41.1879 26.157 40.7809 26.014 40.3529C25.871 39.9249 25.768 39.4879 25.668 39.0469C26.9149 38.9891 28.1544 38.8242 29.373 38.5539C29.758 38.4629 30.134 38.3599 30.506 38.2429C30.7087 39.3611 31.0006 40.4613 31.379 41.5329Z" fill="#80BDC4"/>
<path fill-rule="evenodd" clip-rule="evenodd" d="M29.3981 22.934C29.4981 24.184 29.3891 27.093 28.1271 27.859C27.1595 28.4437 25.2044 27.1657 24.2799 26.5614L24.2799 26.5614L24.1491 26.476C23.6687 27.1201 22.8924 27.4739 22.0911 27.414C21.7581 27.396 21.6461 26.865 22.0091 26.8C22.9148 26.7564 23.7152 26.1968 24.0671 25.361C24.3432 24.4629 24.0394 23.4874 23.3021 22.905C23.2706 22.9374 23.2372 22.9678 23.2021 22.996C22.8951 23.229 22.5931 22.71 22.9021 22.481C23.3477 22.1298 23.4998 21.5219 23.2721 21.0023C23.0444 20.4826 22.4943 20.1824 21.9341 20.272C21.6881 20.294 21.6341 19.891 21.8781 19.84C22.6899 19.6556 23.5195 20.0677 23.8631 20.826C23.8929 20.8961 23.9176 20.9683 23.9371 21.042C24.9491 20.147 26.6481 18.842 27.9841 19.369C29.1181 19.817 29.3211 21.905 29.3981 22.934ZM28.7621 23.782V23.7809L28.7631 23.781L28.7621 23.782ZM28.7621 23.7809C27.3338 23.5997 25.8958 23.5049 24.4561 23.497C24.2986 23.1813 24.0724 22.9048 23.7941 22.688C25.3381 22.493 26.8901 22.212 28.4161 21.901C28.4961 21.8898 28.563 21.8345 28.5891 21.758C28.707 22.3139 28.765 22.8808 28.7621 23.449V23.7809ZM28.4726 26.0332L28.4721 26.035L28.4741 26.034L28.4726 26.0332ZM28.7441 24.235C28.7142 24.842 28.6232 25.4444 28.4726 26.0332C27.3155 25.3867 26.0609 24.9327 24.7581 24.689H24.7411C24.739 24.3923 24.6907 24.0978 24.5981 23.816C25.9708 24.0357 27.3551 24.1756 28.7441 24.235ZM28.2821 21.4C28.3651 21.3844 28.4505 21.4102 28.5111 21.469C28.3488 20.6925 27.7251 20.0962 26.9421 19.969C26.2312 19.8761 25.2617 20.5824 24.5156 21.126C24.3223 21.2668 24.144 21.3967 23.9891 21.499C23.9819 21.773 23.9136 22.0419 23.7891 22.286C25.2701 21.923 26.7831 21.645 28.2831 21.399L28.2821 21.4ZM28.2221 26.523C28.2439 26.5336 28.2671 26.5411 28.2911 26.545L28.2921 26.544C28.2179 26.7255 28.1045 26.8884 27.9601 27.021C27.2251 27.654 25.7708 26.7643 24.8396 26.1945C24.7029 26.1108 24.5774 26.034 24.4671 25.97C24.6017 25.679 24.6879 25.3679 24.7221 25.049C25.9284 25.4402 27.0993 25.9333 28.2221 26.523Z" fill="#222221"/>
<path d="M28.768 23.4481C28.768 23.5481 28.768 23.6551 28.768 23.7811C27.3417 23.5997 25.9058 23.5046 24.468 23.4961C24.3106 23.1804 24.0843 22.9039 23.806 22.6871C25.35 22.4931 26.906 22.2121 28.428 21.9001C28.5081 21.8889 28.575 21.8336 28.601 21.7571C28.717 22.3132 28.773 22.8801 28.768 23.4481Z" fill="#80BDC4"/>
<path d="M28.746 24.2349C28.7161 24.8425 28.625 25.4456 28.474 26.0349C27.3172 25.3881 26.0628 24.9339 24.76 24.6899H24.743C24.741 24.3932 24.6927 24.0987 24.6 23.8169C25.9728 24.0362 27.3571 24.1758 28.746 24.2349Z" fill="#80BDC4"/>
<path d="M28.5121 21.4671C28.4515 21.4082 28.3661 21.3825 28.2831 21.3981C26.7831 21.6441 25.2691 21.9251 23.7911 22.2841C23.9156 22.0399 23.984 21.771 23.9911 21.4971C24.7431 20.9971 26.0491 19.8501 26.9441 19.9671C27.7267 20.0947 28.3499 20.6909 28.5121 21.4671Z" fill="#80BDC4"/>
<path d="M28.2231 26.5209C28.2449 26.5315 28.2681 26.539 28.2921 26.5429C28.2174 26.7238 28.1037 26.886 27.9591 27.0179C27.1161 27.7449 25.3261 26.4649 24.4661 25.9669C24.6007 25.6758 24.6868 25.3647 24.7211 25.0459C25.9281 25.4373 27.0997 25.9308 28.2231 26.5209Z" fill="#80BDC4"/>
<path d="M27.6441 5.40589C27.1188 6.65856 26.9309 8.027 27.0991 9.37489C25.6716 9.14233 24.2204 9.09126 22.7801 9.22289C22.7671 7.71389 22.7201 6.20489 22.7241 4.69189C23.1991 4.71389 23.6671 4.75189 24.0951 4.79189C25.2937 4.89258 26.4812 5.09803 27.6441 5.40589Z" fill="#80BDC4"/>
<path d="M25.1711 39.064C25.2607 39.8895 25.4689 40.6978 25.7891 41.464C23.5113 40.8764 21.3513 39.9023 19.4031 38.584C21.3018 38.9586 23.2365 39.1196 25.1711 39.064Z" fill="#80BDC4"/>
<path d="M22.387 9.26299C22.318 9.27199 22.249 9.27599 22.175 9.28499C20.8204 9.46409 19.4923 9.8052 18.219 10.301C17.882 8.15699 17.224 5.61899 19.944 4.89199C20.6816 4.71745 21.4397 4.64477 22.197 4.67599C22.0225 6.2056 22.0866 7.75305 22.387 9.26299Z" fill="#80BDC4"/>
<path d="M13.7701 18.5149C14.6075 18.5607 15.3803 18.9794 15.876 19.656C16.3716 20.3325 16.5379 21.1956 16.3291 22.0079C16.2702 22.1857 16.0824 22.2863 15.9018 22.2367C15.7211 22.1872 15.6109 22.0048 15.6511 21.8219C15.7967 21.1979 15.6469 20.5416 15.245 20.0426C14.843 19.5436 14.2337 19.2575 13.5931 19.2669C13.0058 19.3762 12.4864 19.7151 12.1497 20.2085C11.813 20.7019 11.6868 21.3092 11.7991 21.8959C11.8341 22.2329 11.3581 22.2369 11.2551 21.9699C11.0259 21.1674 11.179 20.304 11.6702 19.6292C12.1614 18.9545 12.9359 18.5434 13.7701 18.5149Z" fill="#222221"/>
</svg>
