<svg width="20" height="25" viewBox="0 0 20 25" fill="none" xmlns="http://www.w3.org/2000/svg">
<path d="M5.32803 1.9253C5.58182 1.07934 6.36047 0.5 7.24368 0.5H14.7627C16.3044 0.5 17.2664 2.17094 16.4922 3.50427L13.8239 8.09979C13.7852 8.16645 13.8333 8.25 13.9103 8.25H17.1311C18.7285 8.25 19.6813 10.0303 18.7952 11.3594L15.9557 15.6187C15.8682 15.75 15.6824 15.7684 15.5709 15.6568L14.4892 14.5752C14.405 14.4909 14.3919 14.3589 14.458 14.2597L17.1311 10.25H13.7366C12.1949 10.25 11.2329 8.57906 12.0071 7.24573L14.6754 2.65021C14.7141 2.58355 14.666 2.5 14.589 2.5H7.42969C7.31929 2.5 7.22196 2.57242 7.19023 2.67816L6.24942 5.8142C6.19506 5.99539 5.96695 6.0529 5.83319 5.91914L4.62854 4.71449C4.5635 4.64946 4.53943 4.55397 4.56586 4.46588L5.32803 1.9253Z" fill="white"/>
<path fill-rule="evenodd" clip-rule="evenodd" d="M0.792893 5.29289C1.18342 4.90237 1.81658 4.90237 2.20711 5.29289L11.9921 15.0779L11.9999 15.0857L13.5938 16.6795L13.6017 16.6875L17.7071 20.7929C18.0976 21.1834 18.0976 21.8166 17.7071 22.2071C17.3166 22.5976 16.6834 22.5976 16.2929 22.2071L13.6081 19.5223L10.4324 23.7566C9.22045 25.3725 6.64989 24.3778 6.8414 22.367L7.40017 16.4999H3.85389C2.50828 16.4999 1.54661 15.1978 1.94234 13.9117L3.36708 9.28129L0.792893 6.70711C0.402369 6.31658 0.402369 5.68342 0.792893 5.29289ZM4.96725 10.8815L8.58568 14.4999H3.98929C3.92201 14.4999 3.87393 14.4348 3.89371 14.3705L4.96725 10.8815Z" fill="white"/>
</svg>
