<svg width="27" height="22" viewBox="0 0 27 22" fill="none" xmlns="http://www.w3.org/2000/svg">
<path d="M5.00003 12C5.00003 12.8478 4.01117 13.311 3.35984 12.7682L0.359841 10.2682C-0.0644356 9.91466 -0.121761 9.28409 0.231804 8.85982C0.585368 8.43554 1.21593 8.37822 1.64021 8.73178L3.00003 9.86496V6C3.00003 2.68629 5.68632 0 9.00002 0H19C19.8655 0 20.7076 0.280712 21.4 0.800001L22.6 1.7C23.0419 2.03137 23.1314 2.65817 22.8 3.1C22.4687 3.54183 21.8419 3.63137 21.4 3.3L20.2 2.4C19.8538 2.14036 19.4328 2 19 2H9.00002C6.79089 2 5.00003 3.79086 5.00003 6V12Z" fill="white"/>
<path d="M22.0001 9.99992C22.0001 9.15208 22.989 8.68892 23.6403 9.2317L26.6403 11.7317C27.0646 12.0853 27.1219 12.7158 26.7684 13.1401C26.4148 13.5644 25.7842 13.6217 25.36 13.2681L24.0001 12.135V15.9999C24.0001 19.3136 21.3139 21.9999 18.0001 21.9999H8.00014C7.13466 21.9999 6.29253 21.7192 5.60014 21.1999L4.40014 20.2999C3.95832 19.9685 3.86877 19.3417 4.20014 18.8999C4.53151 18.4581 5.15832 18.3685 5.60014 18.6999L6.80014 19.5999C7.14634 19.8596 7.5674 19.9999 8.00014 19.9999H18.0001C20.2093 19.9999 22.0001 18.2091 22.0001 15.9999V9.99992Z" fill="white"/>
<path fill-rule="evenodd" clip-rule="evenodd" d="M18.0001 11C18.0001 13.4852 15.9854 15.5 13.5001 15.5C11.0148 15.5 9.00008 13.4852 9.00008 11C9.00008 8.51468 11.0148 6.49996 13.5001 6.49996C15.9854 6.49996 18.0001 8.51468 18.0001 11ZM16.0001 11C16.0001 12.3807 14.8808 13.5 13.5001 13.5C12.1194 13.5 11.0001 12.3807 11.0001 11C11.0001 9.61925 12.1194 8.49996 13.5001 8.49996C14.8808 8.49996 16.0001 9.61925 16.0001 11Z" fill="white"/>
</svg>
