<svg width="44" height="48" viewBox="0 0 44 48" fill="none" xmlns="http://www.w3.org/2000/svg">
<path fill-rule="evenodd" clip-rule="evenodd" d="M29.64 43.123C28.6326 45.1892 26.8273 46.7561 24.64 47.463C21.208 48.541 17.715 47.241 15.101 44.964C12.5766 45.5748 9.91714 44.8116 8.10098 42.955C6.54655 41.3502 5.68467 39.1991 5.70098 36.965C4.82009 36.6529 4.03638 36.1153 3.42798 35.406C2.3305 34.1557 1.93216 32.4388 2.36698 30.833C0.802737 29.389 -0.0378724 27.3239 0.0732539 25.198C0.18438 23.0721 1.23572 21.1059 2.94198 19.833C2.49064 18.7923 2.40155 17.6303 2.68898 16.533C3.36198 13.715 5.56898 12.401 8.06198 11.983C7.99698 8.77497 9.19998 5.62997 12.254 3.95897C15.885 1.97197 19.27 3.59797 21.793 6.21297C22.5854 6.01676 23.4041 5.94923 24.218 6.01297C24.225 6.00381 24.2319 5.99484 24.2386 5.98601C24.273 5.94089 24.3045 5.89963 24.343 5.85697C24.8817 5.25431 25.5638 4.79722 26.326 4.52797C26.8849 3.49169 28.0167 2.89827 29.187 3.02797C29.8194 3.08414 30.6765 2.53489 31.5351 1.98466C32.2051 1.55528 32.8761 1.1253 33.442 0.98197C34.9273 0.568196 36.5165 0.768156 37.853 1.53697C40.4037 3.04215 41.6377 6.06349 40.87 8.92397C40.3662 10.3776 39.3459 11.5954 38.003 12.346C37.5428 12.6214 36.976 12.8063 36.4061 12.9922C35.8503 13.1736 35.2916 13.3559 34.826 13.624C35.9258 14.5762 36.7206 15.8315 37.111 17.233C37.3364 18.0881 37.3871 18.9798 37.26 19.855C40.403 21.169 43.073 23.324 43.603 27.055C43.9932 29.3144 43.2762 31.6238 41.675 33.265C40.9548 33.9481 40.084 34.4524 39.133 34.737C39.3224 36.8079 38.6639 38.8672 37.308 40.444C35.3868 42.6023 32.4872 43.6153 29.64 43.123ZM13.251 38.238C12.916 38.167 12.608 38.094 12.322 38.02C12.5514 38.3997 12.8863 38.7044 13.286 38.897C13.2487 38.6794 13.237 38.4582 13.251 38.238Z" fill="white"/>
<path d="M27.902 11.4121C27.4564 10.7019 27.4081 9.81238 27.774 9.0581C27.9833 8.65623 28.4113 8.41714 28.8633 8.44973C29.3152 8.48232 29.7045 8.78036 29.854 9.2081C29.869 9.27252 29.9138 9.32594 29.9746 9.352C30.0354 9.37805 30.105 9.37364 30.162 9.3401C30.162 9.3401 30.173 9.3481 30.179 9.3511C29.3767 9.98875 28.6162 10.6772 27.902 11.4121Z" fill="#FAF19C"/>
<path d="M30.65 8.99401C30.6428 8.95588 30.6289 8.91933 30.609 8.88601C30.3858 8.58981 30.2927 8.21561 30.351 7.84937C30.4092 7.48312 30.6139 7.15631 30.918 6.94401C31.688 6.48401 32.346 7.00701 32.892 7.50801C32.904 7.52001 32.919 7.52201 32.936 7.53301C32.1386 7.96228 31.3745 8.45065 30.65 8.99401Z" fill="#FAF19C"/>
<path d="M33.207 7.38794C33.207 7.37294 33.217 7.36594 33.213 7.34794C33.2125 7.33351 33.2094 7.31929 33.204 7.30594C33.2879 7.29578 33.3636 7.2507 33.4125 7.18178C33.4615 7.11286 33.4791 7.0265 33.461 6.94394C33.2801 6.27583 33.5663 5.56904 34.161 5.21494C34.4767 5.08381 34.8382 5.12949 35.1113 5.33503C35.3845 5.54056 35.5285 5.87527 35.49 6.21494C35.4777 6.28281 35.499 6.35243 35.547 6.40194C34.7424 6.66897 33.96 6.99864 33.207 7.38794Z" fill="#FAF19C"/>
<path d="M26.353 39.2531C26.1763 41.3745 24.6561 43.142 22.585 43.6341C20.285 44.0701 17.375 43.0541 16.368 40.8811C16.2901 40.7257 16.1275 40.6313 15.9539 40.6406C15.7804 40.6499 15.6288 40.7612 15.568 40.9241C15.4719 40.8319 15.3344 40.797 15.206 40.8321C12.5815 41.5937 9.81474 40.1964 8.87 37.6321C8.05 35.3781 8.925 33.0901 10.17 31.1741C12.1778 27.7563 15.9825 25.8097 19.929 26.1811C20.0206 26.3919 20.1462 26.5861 20.301 26.7561C17.6448 27.3738 15.5012 29.3288 14.642 31.9171C14.597 32.0466 14.6655 32.1881 14.795 32.2331C14.9245 32.2781 15.066 32.2096 15.111 32.0801C16.0709 29.5972 18.1887 27.744 20.777 27.1221C20.865 27.1665 20.9567 27.2033 21.051 27.2321C21.0066 27.274 20.9895 27.3375 21.007 27.3961C21.8757 30.202 21.5087 33.245 19.998 35.7641C19.84 36.0381 20.239 36.3121 20.412 36.0401C22.0644 33.4323 22.4237 30.2087 21.386 27.3011C21.693 27.3328 22.0032 27.2987 22.296 27.2011C22.3307 27.1872 22.3628 27.1676 22.391 27.1431C22.3961 27.1876 22.4079 27.2311 22.426 27.2721C24.11 30.6721 26.5 34.2291 26.451 38.1721C26.451 38.4151 26.428 38.6611 26.399 38.9041C26.3218 39.0036 26.3042 39.1369 26.353 39.2531Z" fill="#D16A70"/>
<path fill-rule="evenodd" clip-rule="evenodd" d="M33.121 21.619C33.1594 21.6257 33.1986 21.6257 33.237 21.619C35.1769 21.6244 37.0424 22.3665 38.456 23.695C41.565 26.663 40.535 31.973 36.179 32.676C37.351 34.728 36.153 38.09 34.303 39.328C32.403 40.6 29.161 41.361 27.143 39.996C26.9266 40.8874 26.5305 41.7251 25.979 42.458C23.488 45.748 17.533 45.051 15.679 41.444C15.6287 41.5684 15.5194 41.6592 15.388 41.686C13.6384 42.1639 11.7668 41.8345 10.2855 40.7881C8.80415 39.7416 7.86826 38.0877 7.73399 36.279C6.65167 35.9587 5.77553 35.1606 5.35601 34.1128C4.93648 33.0649 5.01974 31.8827 5.58199 30.904C3.47299 29.81 1.56199 28.229 2.13699 25.604C2.59299 23.504 4.47899 22.077 6.37199 21.223C5.78621 19.0411 6.08709 16.716 7.20899 14.755C8.04999 13.268 9.81899 11.955 11.46 12.629C11.2952 10.9051 12.0359 9.219 13.4169 8.17409C14.7979 7.12917 16.6218 6.8748 18.236 7.50201C19.3162 7.91247 20.2646 8.60857 20.98 9.51601C21.9071 8.83021 23.0798 8.56559 24.2116 8.78678C25.3435 9.00797 26.3302 9.69461 26.931 10.679C26.6782 9.73781 27.0063 8.73621 27.767 8.12701C28.3342 7.73138 29.0836 7.7156 29.667 8.08701C29.6448 7.38881 29.9976 6.73202 30.592 6.36501C31.3116 6.01432 32.1673 6.09741 32.806 6.58001C32.7371 5.62619 33.3676 4.76224 34.297 4.53701C34.9786 4.44749 35.639 4.81236 35.926 5.43701C36.067 5.02092 36.3904 4.69204 36.804 4.54401C37.4849 4.33368 38.212 4.68934 38.464 5.35601C38.7529 5.9912 38.5198 6.74208 37.922 7.10201C37.7315 7.21105 37.5203 7.27917 37.302 7.30201C37.5399 7.73303 37.5399 8.256 37.302 8.68701C37.1329 8.60029 36.956 8.53742 36.7758 8.49796C36.9376 8.26835 36.9885 7.97203 36.9018 7.69446C36.7877 7.32916 36.4591 7.07283 36.077 7.05101C35.477 7.50035 34.894 7.96101 34.328 8.43301C34.4264 8.36661 34.5571 8.3744 34.647 8.45201L34.642 8.45301C34.7742 8.60829 34.9327 8.72917 35.1056 8.81422C35.0587 8.84565 35.0127 8.87906 34.9679 8.91446C34.3015 9.44059 34.0033 10.3072 34.205 11.132C33.6543 11.6207 32.8656 11.7347 32.199 11.422C32.6011 11.9906 32.6043 12.7501 32.207 13.322C31.9567 13.6587 31.6068 13.9081 31.207 14.035C33.734 15.695 35.731 18.716 33.487 21.478C33.4243 21.5585 33.3307 21.609 33.229 21.617L33.2045 21.618C33.1789 21.6192 33.1502 21.6205 33.121 21.619ZM35.1056 8.81422C35.5716 9.04338 36.1428 9.01239 36.59 8.69301C36.6625 8.63646 36.7247 8.57054 36.7758 8.49796C36.2048 8.37297 35.6003 8.48305 35.1056 8.81422ZM33.116 21.619C33.1063 21.6179 33.0966 21.6164 33.0871 21.6145L33.115 21.615L33.116 21.619ZM33.0871 21.6145C32.9778 21.5924 32.8855 21.5177 32.8415 21.4139C32.7937 21.301 32.8103 21.1712 32.885 21.074C34.992 18.258 32.66 15.813 30.385 14.174C29.8886 14.1774 29.3989 14.059 28.959 13.829C26.4305 16.9316 24.498 20.4752 23.259 24.281L23.509 24.173C23.4778 24.1566 23.4567 24.126 23.4525 24.091C23.4483 24.0561 23.4616 24.0213 23.488 23.998C24.3852 23.3212 25.1792 22.5174 25.845 21.612C26.4409 20.6567 26.8454 19.5947 27.036 18.485C27.092 18.231 27.504 18.328 27.476 18.576C27.2254 20.6922 26.082 22.6002 24.334 23.819C26.9965 22.6866 30.1599 21.5602 33.0871 21.6145ZM26.355 39.256C26.1777 41.3761 24.6586 43.1424 22.589 43.635L22.588 43.631C20.291 44.067 17.378 43.051 16.374 40.874C16.2961 40.7186 16.1335 40.6242 15.9599 40.6336C15.7863 40.6429 15.6348 40.7542 15.574 40.917C15.4779 40.8249 15.3404 40.79 15.212 40.825C12.5875 41.5867 9.82072 40.1893 8.87599 37.625C8.05699 35.367 8.93199 33.083 10.176 31.167C12.1838 27.7492 15.9885 25.8026 19.935 26.174C20.0266 26.3848 20.1522 26.5791 20.307 26.749C17.6508 27.3668 15.5071 29.3218 14.648 31.91C14.603 32.0395 14.6715 32.181 14.801 32.226C14.9305 32.271 15.072 32.2025 15.117 32.073C16.0769 29.5902 18.1947 27.737 20.783 27.115C20.871 27.1595 20.9627 27.1963 21.057 27.225C21.0126 27.267 20.9955 27.3304 21.013 27.389C21.8818 30.1949 21.5149 33.238 20.004 35.757C19.846 36.033 20.245 36.305 20.418 36.033C22.0704 33.4252 22.4297 30.2017 21.392 27.294C21.6987 27.3256 22.0085 27.2915 22.301 27.194C22.3357 27.1801 22.3678 27.1605 22.396 27.136C22.4011 27.1805 22.4129 27.224 22.431 27.265C22.7523 27.9137 23.0993 28.568 23.4501 29.2296C24.9382 32.0357 26.4956 34.9727 26.456 38.165C26.452 38.408 26.433 38.654 26.404 38.897C26.3219 38.9982 26.3031 39.1366 26.355 39.256ZM27.303 39.153C30.803 41.99 38.134 36.974 35.478 32.689C35.3613 32.6323 35.2859 32.5153 35.2824 32.3857C35.2788 32.256 35.3476 32.1351 35.461 32.072C35.4902 32.051 35.525 32.0392 35.561 32.038L35.589 32.032C38.465 31.632 40.451 29.013 39.214 26.126C38.2332 24.128 36.2767 22.7906 34.059 22.602C31.1061 22.1916 28.2568 23.2081 25.4684 24.2029L25.4683 24.203C24.6419 24.4978 23.8208 24.7907 23.004 25.044C22.842 25.59 22.683 26.15 22.544 26.716C22.5566 26.766 22.5604 26.8178 22.555 26.869C22.7064 26.7934 22.8904 26.8417 22.985 26.982C25.08 30.062 27.836 34.967 27.305 39.15L27.303 39.153ZM7.70314 35.4212L7.70299 35.426L7.70499 35.422L7.70314 35.4212ZM7.70314 35.4212C7.729 34.6102 7.89087 33.8094 8.18199 33.052C9.93099 28.452 14.66 24.427 19.738 25.538C19.71 25.396 19.691 25.2524 19.681 25.108C18.2225 23.745 16.2318 23.104 14.252 23.36C13.907 23.405 13.796 22.875 14.145 22.824C16.1531 22.5149 18.1932 23.1306 19.695 24.499C19.713 24.2994 19.7427 24.1011 19.784 23.905C17.0646 21.7604 13.6223 20.7484 10.175 21.08C9.14557 21.1999 8.13572 21.4509 7.16999 21.827C7.16559 21.9364 7.09756 22.0332 6.99606 22.0743C6.89456 22.1155 6.77837 22.0935 6.69899 22.018C6.03403 22.3149 5.40829 22.6927 4.83599 23.143C3.73442 23.9015 3.01635 25.1008 2.86799 26.43C2.83121 28.3935 4.31524 29.3217 5.69967 30.1876L5.70075 30.1883C5.78398 30.2404 5.86684 30.2922 5.94899 30.344C6.0379 30.3922 6.09655 30.4819 6.10502 30.5827C6.11348 30.6834 6.07061 30.7817 5.99099 30.844C6.06549 30.9115 6.09228 31.0171 6.05899 31.112C5.32582 32.7562 6.06133 34.6834 7.70314 35.4212ZM20.403 24.255C20.239 25.155 20.715 25.855 21.843 26.365C23.4367 19.0868 27.5641 12.6115 33.489 8.09401C30.7712 9.62314 28.3724 11.66 26.423 14.094C25.1882 15.6473 24.067 17.2876 23.068 19.002C22.9302 19.2352 22.7987 19.4707 22.667 19.7064L22.667 19.7064L22.667 19.7064L22.667 19.7064L22.6669 19.7065L22.6669 19.7065L22.6669 19.7065L22.6669 19.7065L22.6669 19.7066L22.6669 19.7066L22.6666 19.707C22.5872 19.8491 22.5078 19.9913 22.427 20.133C22.419 20.168 22.412 20.204 22.405 20.244C22.3903 20.3289 22.3334 20.4005 22.254 20.434C22.1942 20.5408 22.1332 20.6453 22.0725 20.7493C21.9809 20.9062 21.8902 21.0616 21.806 21.221C21.413 21.921 21.057 22.636 20.729 23.37C20.649 23.5177 20.5792 23.6708 20.52 23.828C20.5235 23.828 20.5253 23.831 20.5271 23.8341C20.5285 23.8364 20.5299 23.8387 20.532 23.84C20.5862 23.9073 20.6035 23.9972 20.578 24.0798C20.5526 24.1624 20.4877 24.2269 20.405 24.252L20.403 24.255ZM20.3448 22.1876L20.34 22.198L20.345 22.195L20.3448 22.1876ZM21.947 19.356C21.3381 20.2555 20.8023 21.2024 20.3448 22.1876C20.2697 19.0059 19.4604 15.8845 17.98 13.067C17.912 12.9466 17.7613 12.9008 17.6378 12.9631C17.5143 13.0254 17.4616 13.1737 17.518 13.3C19.0383 16.3751 19.8444 19.7538 19.876 23.184C16.3473 20.138 11.4316 19.2743 7.07599 20.935C6.81153 19.4562 6.88676 17.9365 7.29599 16.491C7.95599 14.488 9.60699 12.447 11.922 13.432C12.174 13.532 12.307 13.184 12.122 13.032L12.077 13.002C11.976 8.40801 17.083 6.27101 20.159 9.92001C22.3165 12.4854 22.141 15.7465 21.9717 18.8914C21.9634 19.0466 21.955 19.2015 21.947 19.356ZM22.712 18.19L22.7175 18.1817L22.717 18.187L22.712 18.19ZM22.7175 18.1817C23.0047 15.406 22.8041 12.2836 21.34 10.033C23.546 8.75701 25.795 9.72601 26.695 12.091C26.7257 12.1733 26.791 12.238 26.8735 12.268C26.956 12.298 27.0476 12.2903 27.124 12.247C25.6482 13.8859 24.3185 15.6506 23.15 17.521L23.0635 17.6541L23.0633 17.6544L23.0629 17.6549C22.9524 17.825 22.8368 18.003 22.7175 18.1817ZM31.274 13.364C30.9944 13.5148 30.6761 13.5785 30.36 13.547L30.365 13.545C30.0864 13.4032 29.8003 13.2767 29.508 13.166C30.058 12.523 30.636 11.898 31.23 11.285L31.264 11.307C31.6732 11.484 31.9389 11.8864 31.9411 12.3322C31.9433 12.7781 31.6815 13.183 31.274 13.364ZM31.998 10.519C32.4531 11.0535 33.2535 11.1222 33.793 10.673C34.2537 10.1667 34.258 9.39439 33.803 8.88301C33.187 9.41301 32.583 9.95501 32.005 10.517L31.998 10.519ZM27.897 11.413C27.4518 10.7027 27.4038 9.81312 27.77 9.05901L27.775 9.05701C27.9862 8.65913 28.4126 8.42367 28.8619 8.45682C29.3112 8.48996 29.6984 8.78544 29.849 9.21001C29.864 9.27443 29.9088 9.32785 29.9696 9.3539C30.0304 9.37996 30.1 9.37555 30.157 9.34201C30.1595 9.34151 30.1622 9.34426 30.1651 9.34714C30.168 9.35001 30.171 9.35301 30.174 9.35301C29.3718 9.99033 28.6112 10.6784 27.897 11.413ZM30.646 8.99601C30.6388 8.95789 30.6249 8.92133 30.605 8.88801V8.88701C30.3822 8.59088 30.2892 8.21692 30.3475 7.85092C30.4057 7.48492 30.6102 7.15831 30.914 6.94601C31.688 6.48601 32.342 7.01001 32.888 7.51001C32.895 7.51701 32.903 7.52061 32.9119 7.52458C32.9182 7.52741 32.9249 7.53043 32.932 7.53501C32.1346 7.9643 31.3705 8.45267 30.646 8.99601ZM33.205 7.34901C33.205 7.36701 33.205 7.37401 33.199 7.38901C33.951 6.99952 34.7324 6.66951 35.536 6.40201C35.488 6.35251 35.4667 6.28289 35.479 6.21501C35.5175 5.87535 35.3735 5.54064 35.1003 5.3351C34.8272 5.12957 34.4657 5.08389 34.15 5.21501C33.5553 5.56911 33.2691 6.27591 33.45 6.94401C33.4681 7.02658 33.4505 7.11294 33.4016 7.18185C33.3526 7.25077 33.2769 7.29585 33.193 7.30601C33.2026 7.31852 33.2098 7.33278 33.214 7.34801L33.205 7.34901ZM37.902 5.63301C38.219 6.48501 37.148 6.99601 36.519 6.49601L36.528 6.49501C36.5188 6.47396 36.5071 6.45414 36.493 6.43601C36.4927 6.34116 36.442 6.25361 36.36 6.20601C36.3634 6.1818 36.3634 6.15723 36.36 6.13301C36.178 5.17901 37.538 4.64001 37.902 5.63301Z" fill="#222221"/>
<path fill-rule="evenodd" clip-rule="evenodd" d="M27.302 39.15C30.802 41.986 38.133 36.971 35.477 32.686C35.3598 32.6295 35.284 32.5123 35.2804 32.3822C35.2768 32.2521 35.3461 32.1309 35.46 32.068C35.4892 32.047 35.524 32.0352 35.56 32.034L35.588 32.028C38.464 31.622 40.45 29.01 39.213 26.122C38.2322 24.124 36.2757 22.7866 34.058 22.598C31.1045 22.1877 28.2557 23.2041 25.4676 24.1988C24.6411 24.4937 23.8199 24.7867 23.003 25.04C22.843 25.586 22.682 26.146 22.543 26.712C22.5556 26.762 22.5594 26.8138 22.554 26.865C22.7053 26.7894 22.8893 26.8377 22.984 26.978C25.08 30.062 27.836 34.967 27.302 39.15ZM30.614 30.762C30.712 31.062 30.199 31.233 30.088 30.945C28.99 28.0586 26.0127 26.3433 22.965 26.841C22.8545 26.8628 22.7473 26.791 22.7255 26.6805C22.7037 26.5701 22.7755 26.4628 22.886 26.441C26.1878 25.6944 29.5211 27.5581 30.614 30.762Z" fill="#D16A70"/>
<path d="M30.614 30.762C30.714 31.062 30.199 31.232 30.088 30.945C28.9915 28.057 26.0138 26.3398 22.965 26.837C22.8935 26.8511 22.82 26.826 22.772 26.7712C22.7241 26.7164 22.709 26.6402 22.7325 26.5712C22.756 26.5023 22.8145 26.4511 22.886 26.437C26.1889 25.6908 29.5227 27.5565 30.614 30.762Z" fill="#222221"/>
<path d="M8.18302 33.0489C7.8913 33.8078 7.72937 34.6103 7.70402 35.4229C6.05943 34.685 5.32364 32.7542 6.06002 31.1089C6.09331 31.0141 6.06652 30.9085 5.99202 30.8409C6.07164 30.7786 6.11451 30.6804 6.10605 30.5796C6.09758 30.4788 6.03892 30.3891 5.95002 30.3409C4.50102 29.4239 2.83002 28.5079 2.86902 26.4269C3.01738 25.0977 3.73545 23.8984 4.83702 23.1399C5.4093 22.6896 6.03505 22.3118 6.70002 22.0149C6.7794 22.0904 6.89559 22.1124 6.99709 22.0713C7.09859 22.0301 7.16662 21.9334 7.17102 21.8239C8.13674 21.4478 9.1466 21.1968 10.176 21.0769C13.6234 20.7453 17.0657 21.7573 19.785 23.9019C19.7438 24.098 19.7141 24.2964 19.696 24.4959C18.1942 23.1275 16.1541 22.5118 14.146 22.8209C13.798 22.8709 13.909 23.4009 14.253 23.3569C16.2328 23.1009 18.2235 23.7419 19.682 25.1049C19.692 25.2493 19.711 25.3929 19.739 25.5349C14.66 24.4239 9.93202 28.4479 8.18302 33.0489Z" fill="#D16A70"/>
<path d="M21.848 26.363C20.719 25.858 20.248 25.153 20.408 24.253C20.4919 24.2289 20.5582 24.1643 20.5844 24.081C20.6105 23.9977 20.5931 23.9068 20.538 23.839C20.533 23.839 20.532 23.831 20.526 23.827C20.5852 23.6698 20.655 23.5168 20.735 23.369C21.063 22.635 21.419 21.919 21.812 21.22C21.953 20.954 22.112 20.7 22.26 20.433C22.3394 20.3995 22.3963 20.3279 22.411 20.243C22.417 20.203 22.425 20.168 22.433 20.132C22.648 19.754 22.853 19.374 23.074 19.001C24.073 17.2866 25.1942 15.6463 26.429 14.093C28.3784 11.659 30.7772 9.62215 33.495 8.09302C27.5699 12.6101 23.4422 19.085 21.848 26.363Z" fill="#FAF19C"/>
<path d="M23.503 24.1709L23.253 24.2789C24.492 20.4731 26.4245 16.9295 28.953 13.8269C29.3929 14.0568 29.8826 14.1753 30.379 14.1719C32.655 15.8099 34.987 18.2549 32.879 21.0719C32.8043 21.1691 32.7877 21.2989 32.8355 21.4118C32.8834 21.5246 32.9882 21.603 33.11 21.6169C30.175 21.5549 27.004 22.6849 24.323 23.8169C26.071 22.5981 27.2144 20.6901 27.465 18.5739C27.493 18.3259 27.081 18.2289 27.025 18.4829C26.8344 19.5926 26.4299 20.6546 25.834 21.6099C25.1682 22.5153 24.3742 23.3191 23.477 23.9959C23.451 24.0199 23.4385 24.0553 23.4437 24.0903C23.4489 24.1253 23.4711 24.1555 23.503 24.1709Z" fill="#D16A70"/>
<path d="M33.232 21.6199C33.1936 21.6266 33.1544 21.6266 33.116 21.6199C33.159 21.6209 33.197 21.6179 33.232 21.6199Z" fill="#222221"/>
<path d="M21.951 19.354C21.3399 20.2566 20.8025 21.207 20.344 22.196C20.2732 19.0106 19.4665 15.8848 17.987 13.063C17.919 12.9425 17.7683 12.8968 17.6448 12.9591C17.5213 13.0213 17.4686 13.1697 17.525 13.296C19.0453 16.371 19.8513 19.7498 19.883 23.18C16.3543 20.1339 11.4386 19.2702 7.08298 20.931C6.81852 19.4521 6.89375 17.9325 7.30298 16.487C7.96298 14.487 9.61398 12.443 11.929 13.428C12.178 13.533 12.311 13.182 12.129 13.028L12.084 12.998C11.984 8.40495 17.089 6.26695 20.166 9.91595C22.427 12.61 22.122 16.068 21.951 19.354Z" fill="#D16A70"/>
<path d="M23.155 17.5181C23.018 17.7301 22.87 17.9581 22.717 18.1871C23.009 15.4101 22.809 12.2871 21.345 10.0291C23.551 8.7541 25.805 9.7221 26.7 12.0871C26.7307 12.1694 26.7959 12.234 26.8785 12.2641C26.961 12.2941 27.0526 12.2864 27.129 12.2431C25.6531 13.8823 24.3234 15.6473 23.155 17.5181Z" fill="#D16A70"/>
<path d="M31.278 13.362C30.9984 13.5127 30.6801 13.5765 30.364 13.545C30.0871 13.4023 29.8027 13.2748 29.512 13.163C30.061 12.52 30.639 11.895 31.234 11.282L31.268 11.304C31.6778 11.4807 31.944 11.8834 31.9462 12.3297C31.9484 12.776 31.6861 13.1813 31.278 13.362Z" fill="#FAF19C"/>
<path d="M33.797 10.6721C33.2576 11.1212 32.4571 11.0526 32.002 10.5181C32.582 9.95608 33.186 9.41808 33.802 8.88208C34.2585 9.39218 34.2563 10.1645 33.797 10.6721Z" fill="#FAF19C"/>
<path d="M36.594 8.69205C35.9808 9.12996 35.1345 9.0257 34.646 8.45205C34.5573 8.37661 34.4295 8.36847 34.332 8.43205C34.9013 7.95938 35.4843 7.49872 36.081 7.05005C36.4631 7.07187 36.7916 7.3282 36.9058 7.6935C37.0199 8.0588 36.8957 8.45659 36.594 8.69205Z" fill="#FAF19C"/>
<path d="M37.91 5.63207C38.226 6.48407 37.156 6.99907 36.527 6.49507C36.5205 6.47513 36.5118 6.45601 36.501 6.43807C36.5007 6.34322 36.45 6.25567 36.368 6.20807C36.3714 6.18386 36.3714 6.15928 36.368 6.13507C36.186 5.17707 37.546 4.63807 37.91 5.63207Z" fill="#FAF19C"/>
</svg>
