<svg width="21" height="18" viewBox="0 0 21 18" fill="none" xmlns="http://www.w3.org/2000/svg">
<path d="M20.8433 6.63365C20.6588 7.04838 20.2296 7.29847 19.7778 7.25443C15.1599 7.24691 10.5424 7.24691 5.92521 7.25443C5.35295 7.25443 5.04708 7.0603 4.9263 6.63703C4.8619 6.42256 4.89438 6.19065 5.01522 6.00212C5.13606 5.81358 5.33322 5.68723 5.55499 5.65619C5.73163 5.63872 5.90923 5.63307 6.08661 5.63925C10.0085 5.63925 13.9304 5.63925 17.8523 5.63925H18.4166L16.4572 3.01501C16.1298 2.57707 15.798 2.14252 15.4763 1.70007C15.2456 1.47636 15.1684 1.13769 15.2793 0.83608C15.3903 0.534467 15.6685 0.326563 15.9892 0.305681C16.3099 0.284798 16.6128 0.454861 16.7619 0.739539C18.1277 2.5545 19.4885 4.37285 20.8445 6.19458L20.8433 6.63365Z" fill="#9D9D9D"/>
<path d="M0.86083 11.5176C1.03672 11.0976 1.4681 10.8436 1.92069 10.8934C6.49195 10.901 11.0632 10.904 15.6345 10.9025C15.8399 10.8979 16.0441 10.9364 16.2338 11.0153C16.564 11.1531 16.7443 11.5112 16.6582 11.8585C16.6161 12.212 16.3262 12.4842 15.9708 12.5041C15.8086 12.5166 15.6459 12.5207 15.4832 12.5165C11.6072 12.5165 7.73202 12.5165 3.85755 12.5165H3.27626C3.82594 13.2682 4.3158 13.9398 4.80905 14.6103C5.26053 15.2288 5.72668 15.8417 6.17704 16.4636C6.33394 16.6348 6.41431 16.8625 6.39961 17.0942C6.38492 17.3259 6.27642 17.5417 6.09916 17.6916C5.90173 17.8269 5.6571 17.8745 5.42338 17.8229C5.18966 17.7714 4.98771 17.6254 4.86548 17.4196C3.52759 15.6039 2.19308 13.7856 0.861959 11.9646L0.86083 11.5176Z" fill="#9D9D9D"/>
</svg>
