<svg width="22" height="25" viewBox="0 0 22 25" fill="none" xmlns="http://www.w3.org/2000/svg">
<path fill-rule="evenodd" clip-rule="evenodd" d="M20.4554 10.4635C20.6837 10.6863 20.9952 10.8027 21.3137 10.7843V10.7883C21.452 10.7889 21.5803 10.8609 21.6527 10.9788C21.7252 11.0966 21.7316 11.2436 21.6697 11.3673L21.6695 11.3676C21.6435 11.4164 21.1029 12.4304 19.2197 11.9673C18.087 11.6888 18.0095 10.7468 17.9576 10.1148L17.9567 10.1043C17.9087 9.48429 17.8567 9.28829 17.5927 9.20429C17.2512 9.06043 16.8558 9.16185 16.6257 9.45229C16.4187 9.79229 16.6377 10.3483 17.1977 10.8993C18.8545 12.5282 17.8593 13.9177 17.1325 14.9323L17.1297 14.9363C17.1045 14.972 17.0793 15.0074 17.0543 15.0426C16.9839 15.1415 16.9146 15.2389 16.8497 15.3363C16.1257 16.4033 16.1297 16.6833 16.5057 18.1543C16.7115 18.8891 17.257 19.4807 17.9727 19.7453C18.3175 19.8864 18.5162 20.2499 18.4487 20.6163L17.7687 24.2853C17.6994 24.6638 17.3705 24.9394 16.9857 24.9413H13.9577C13.6791 24.9424 13.42 24.7984 13.2737 24.5613C13.1296 24.3284 13.1175 24.0373 13.2417 23.7933L13.6417 23.0103C13.7763 22.7385 14.0544 22.5676 14.3577 22.5703H15.3007C15.2647 22.1623 15.1127 22.0143 14.3857 21.7783C13.2969 21.3425 12.4442 20.4651 12.0397 19.3643C12.0237 19.3303 12.0087 19.2973 11.9937 19.2643C11.9787 19.2313 11.9637 19.1983 11.9477 19.1643C11.8557 18.9693 11.7677 18.7573 11.6797 18.5373C11.5597 18.2423 11.4437 17.9263 11.3317 17.5943C11.1397 17.0343 10.4117 16.4513 9.22469 15.9153C9.21291 15.9082 9.19975 15.9025 9.18602 15.8966C9.17643 15.8925 9.16656 15.8882 9.15669 15.8833C9.14921 15.8808 9.14238 15.8767 9.13669 15.8713H9.12469C8.78069 15.7193 8.41769 15.5793 8.04969 15.4513C6.76498 15.0111 5.45069 14.6626 4.11669 14.4083L4.12469 14.5163C4.12548 14.7822 3.99281 15.0307 3.77146 15.178C3.55012 15.3253 3.26963 15.3517 3.02469 15.2483L1.18569 14.4773C0.978842 14.3906 0.818545 14.2201 0.744688 14.0083C0.673127 13.7907 0.696352 13.553 0.808688 13.3533L1.26869 12.5703C1.41073 12.3243 1.6726 12.172 1.95669 12.1703H6.40069C6.36469 12.0223 6.33269 11.8863 6.31269 11.7543C6.29269 11.6223 6.28069 11.4983 6.27269 11.3743C6.2627 11.2345 6.2627 11.0941 6.27269 10.9543C6.27666 10.5288 6.4 10.1131 6.62869 9.75429C6.7541 9.56418 6.91753 9.40211 7.10869 9.27829L7.21669 9.20229C7.30069 9.14229 7.38869 9.06629 7.48069 8.98629C7.74822 8.72653 7.9978 8.44889 8.22769 8.15529C7.87635 8.29603 7.53805 8.46735 7.21669 8.66729C7.05109 8.80388 6.82588 8.84338 6.62369 8.77129C6.22469 8.63129 6.02469 8.11629 5.84469 7.38429L5.82869 7.31629C5.76345 7.07148 5.82167 6.81023 5.98469 6.61629C6.44334 6.0844 7.60297 6.16529 7.69762 6.1719C7.70119 6.17215 7.70325 6.17229 7.70369 6.17229C7.78769 6.18429 7.84369 6.16029 7.86769 6.10829C7.8923 6.06289 7.88235 6.00652 7.84369 5.97229C7.63569 5.76429 7.47169 5.66029 6.70069 6.04429C6.03769 6.36729 5.29369 5.93629 4.66669 4.85329C4.5105 4.59299 4.5761 4.25678 4.81869 4.07429C5.43 3.65207 6.07559 3.28178 6.74869 2.96729C7.57549 2.59691 8.4939 2.48133 9.38669 2.63529C9.07844 2.49959 8.75888 2.39117 8.43169 2.31129C8.16258 2.24304 7.97544 1.99908 7.97924 1.72148C7.98305 1.44387 8.17681 1.20514 8.44769 1.14429C10.4465 0.58342 12.5916 1.1724 14.0237 2.67529C16.0267 5.00229 15.1677 6.87229 14.5357 8.23929C14.3637 8.58663 14.2206 8.94751 14.1077 9.31829C13.9615 9.81876 13.9741 10.3523 14.1437 10.8453C14.2479 11.1027 14.1578 11.3979 13.9277 11.5533C13.7013 11.7121 13.3957 11.6956 13.1877 11.5133C12.9989 11.3409 12.8335 11.1446 12.6957 10.9293C12.8858 12.2021 13.6855 13.3019 14.8377 13.8753C15.9297 12.9473 15.7697 12.7203 15.3297 12.1203C14.9378 11.6429 14.6638 11.0801 14.5297 10.4773C14.3282 9.70984 14.4968 8.89229 14.9857 8.26729C15.5788 7.60825 16.4271 7.23659 17.3137 7.24729C19.1137 7.24729 20.1137 8.08629 20.1137 9.61329C20.103 9.93212 20.227 10.2407 20.4554 10.4635ZM8.30269 4.91329L9.10269 4.51329V4.51229C9.24309 4.456 9.33974 4.32532 9.35244 4.17459C9.36513 4.02386 9.29171 3.87885 9.1627 3.79987C9.03369 3.72089 8.87116 3.72144 8.74269 3.80129L7.94269 4.20129C7.74656 4.30112 7.66792 4.54063 7.76669 4.73729C7.83301 4.87313 7.97153 4.95873 8.12269 4.95729C8.18543 4.958 8.24734 4.94286 8.30269 4.91329Z" fill="#31C9FD"/>
<path d="M11.2887 18.9482C11.1687 18.6482 11.0527 18.3372 10.9407 18.0052C10.7487 17.4452 10.0217 16.8622 8.83468 16.3262C7.71837 16.4286 6.8161 17.2797 6.64868 18.3882C6.43268 20.3512 7.26868 21.0262 7.53968 21.2502C7.58768 21.2862 7.62368 21.3102 7.66368 21.3382C8.07526 21.5697 8.37196 21.9621 8.48268 22.4212C8.52886 22.9185 8.36828 23.4129 8.03868 23.7882C7.93925 23.9272 7.76106 23.9855 7.59868 23.9322L6.15568 23.4762L5.57568 24.5552L9.05768 24.5432L10.4087 21.5652C9.70293 21.2156 9.41346 20.3606 9.76168 19.6542C10.0935 19.1458 10.6865 18.8717 11.2887 18.9482Z" fill="#31C9FD"/>
<path d="M2.05177 7.55313C2.38471 7.55412 2.68223 7.76123 2.79877 8.07312L3.79877 10.7511H5.66977C5.67379 10.3257 5.79713 9.90992 6.02577 9.55113H5.32577C5.07886 9.55149 4.84561 9.43782 4.69377 9.24312L2.13177 5.95312H0.884766L1.41677 7.55313H2.05177Z" fill="#31C9FD"/>
</svg>
