<svg width="41" height="63" viewBox="0 0 41 63" fill="none" xmlns="http://www.w3.org/2000/svg">
<path d="M38.089 14.9769C34.9897 13.7441 31.6759 13.141 28.341 13.2029C30.0971 10.2345 32.2091 7.4915 34.63 5.03492C35.4985 4.11712 35.6583 2.73685 35.0227 1.64482C34.3871 0.55278 33.108 0.0100961 31.881 0.311919C25.6658 1.92443 20.4766 6.19321 17.696 11.9809C14.463 9.76992 10.267 9.09992 6.26201 8.68092C2.97901 8.33392 2.60201 13.3129 5.51101 14.2319C6.21167 14.4533 6.89534 14.7016 7.56201 14.9769C3.54701 17.8709 1.41801 23.2889 0.955008 28.3909C0.723008 30.9509 4.08901 31.8769 5.72501 30.3669C6.31601 29.8209 6.98401 29.1929 7.70701 28.5729C4.59349 33.9889 3.60815 40.3701 4.94301 46.4729C5.49563 51.9022 8.51624 56.775 13.133 59.6849C18.478 62.9339 26.799 63.6009 30.943 58.1169C32.883 55.5499 33.643 52.2809 34.276 49.1839C35.1478 45.4101 35.4222 41.5228 35.089 37.6639C34.6175 32.0505 31.8338 26.8858 27.404 23.4059C30.536 21.4949 34.458 20.9509 38.09 20.4309C41.188 19.9839 40.314 15.8659 38.089 14.9769Z" fill="white"/>
<path fill-rule="evenodd" clip-rule="evenodd" d="M34.004 16.997C34.1982 17.0498 34.323 17.2386 34.2954 17.438C34.2677 17.6374 34.0963 17.7851 33.895 17.783C30.802 18.043 25.406 19.661 24.708 23.225C24.6845 23.384 24.5568 23.5072 24.397 23.525C28.629 26.625 30.726 34.061 31.571 38.385C32.84 44.891 33.34 53.208 27.471 57.68C22.2719 61.5084 15.0355 60.8652 10.593 56.18C5.655 51.111 5.159 42.042 6.193 35.418C6.975 30.404 9.685 25.529 14.132 23.277C10.4082 22.7695 6.68002 24.178 4.222 27.021C4.12195 27.1152 3.97598 27.1418 3.84909 27.0892C3.72221 27.0365 3.63801 26.9143 3.634 26.777C3.57834 21.2609 7.99019 16.7364 13.506 16.653C11.1829 14.1833 8.30822 12.2986 5.117 11.153C4.705 11.014 4.76 10.353 5.222 10.367C10 10.567 15.96 11.077 18.738 15.461C20.2507 9.44918 25.2964 4.98082 31.447 4.20603C31.792 4.16403 31.892 4.63003 31.707 4.84003C28.5466 8.44113 25.9391 12.4921 23.97 16.86C27.111 15.341 30.726 15.925 34.004 16.997ZM28.713 55.275C31.613 51.812 31.663 46.975 31.281 42.705C30.9174 38.6414 29.9428 34.6559 28.39 30.883C26.705 26.783 23.69 21.969 18.522 23.007C18.4156 23.0306 18.3043 23.0025 18.222 22.931C18.1771 22.9539 18.1288 22.9695 18.079 22.977C9.15301 24.086 6.505 33.925 6.78601 41.532C6.836 42.932 6.925 44.373 7.114 45.81C7.3723 48.6105 8.27261 51.3139 9.745 53.71C11.8606 56.9042 15.31 58.9672 19.125 59.32C20.4358 59.4194 21.7538 59.2839 23.017 58.92C25.2378 58.3027 27.2221 57.0329 28.713 55.275ZM31.9888 17.2405C31.9895 17.2407 31.9903 17.2408 31.991 17.241V17.24C31.9903 17.2402 31.9895 17.2403 31.9888 17.2405ZM23.321 18.141C25.9723 16.3675 29.0514 16.493 31.9888 17.2405C28.6392 17.8898 24.5349 19.7128 23.88 23.006C23.8676 23.0657 23.8676 23.1273 23.88 23.187C22.2747 22.1709 20.3232 21.8565 18.48 22.317C18.4239 22.1506 18.2517 22.0528 18.08 22.09C16.9648 22.2279 15.8743 22.5207 14.84 22.96C11.0677 22.0028 7.07094 23.1233 4.346 25.902C4.678 20.795 9.008 17.589 14.008 17.295C14.0725 17.2919 14.1342 17.268 14.184 17.227C14.2388 17.2207 14.2871 17.1878 14.313 17.1391C14.339 17.0904 14.3393 17.0321 14.314 16.983C14.3283 16.8484 14.2485 16.7215 14.121 16.676C12.5161 14.2992 10.2625 12.4333 7.62801 11.3C12.011 11.623 16.386 12.636 18.668 16.843C18.89 17.254 19.479 16.893 19.29 16.477C19.256 16.406 19.219 16.334 19.181 16.263C20.4634 10.6549 24.8875 6.30293 30.516 5.11303C27.3183 8.85978 24.7095 13.0713 22.779 17.603C22.644 17.927 22.951 18.389 23.321 18.141Z" fill="#222221"/>
<path d="M31.28 42.704C31.662 46.978 31.612 51.811 28.712 55.274C27.2213 57.0314 25.2374 58.3008 23.017 58.918L22.803 57.695C23.123 57.695 23.341 57.228 22.992 57.056C21.53 56.325 20.126 55.526 18.764 54.669C20.0779 53.6023 21.2943 52.421 22.399 51.139C23.6877 51.9677 25.0595 52.6594 26.492 53.203C26.828 53.329 27.042 52.803 26.731 52.631C25.441 51.921 24.201 51.194 22.999 50.416C24.6453 48.3727 26.008 46.1163 27.05 43.708C27.395 43.885 27.743 44.061 28.084 44.225C28.2304 44.3109 28.4186 44.2619 28.5045 44.1155C28.5904 43.9692 28.5414 43.7809 28.395 43.695C28.05 43.451 27.701 43.22 27.353 42.989C27.453 42.732 27.559 42.476 27.653 42.22C27.792 41.846 27.208 41.699 27.065 42.056C26.99 42.249 26.905 42.438 26.826 42.628C25.015 41.428 23.174 40.3 21.409 39.039C22.7891 36.9919 24.0289 34.8537 25.12 32.639C25.44 32.807 25.763 32.971 26.087 33.126C26.453 33.303 26.772 32.756 26.406 32.584C26.062 32.428 25.725 32.26 25.393 32.084C25.662 31.521 25.927 30.958 26.175 30.39C26.331 30.041 25.814 29.738 25.662 30.09C25.41 30.67 25.145 31.237 24.876 31.805C22.894 30.7111 21.0651 29.3601 19.437 27.787C19.752 27.262 20.064 26.732 20.358 26.198C20.4188 26.0878 20.3802 25.9493 20.2713 25.8864C20.1623 25.8235 20.0231 25.8593 19.958 25.967C19.658 26.446 19.345 26.913 19.033 27.383C18.466 26.816 17.919 26.232 17.398 25.609C17.259 25.445 16.965 25.668 17.098 25.844C17.6159 26.5262 18.17 27.1802 18.758 27.803C17.5347 29.6183 16.2487 31.3623 14.9 33.035C13.887 31.896 12.9 30.735 11.87 29.572C11.727 29.412 11.47 29.618 11.576 29.799C12.3854 31.1773 13.3136 32.4822 14.35 33.699C13.072 35.241 11.736 36.742 10.311 38.199C9.98303 37.812 9.65903 37.426 9.33603 37.043C9.16803 36.843 8.81903 37.11 8.97903 37.316C9.29403 37.728 9.61803 38.144 9.94103 38.564C9.58403 38.925 9.22703 39.291 8.85703 39.648C8.73103 39.77 8.91603 39.942 9.04603 39.837C9.42403 39.522 9.80203 39.194 10.176 38.862C11.861 41.031 13.668 43.275 15.635 45.362C14.383 46.724 13.0677 48.0327 11.689 49.288C10.3944 48.124 9.14336 46.8953 7.93603 45.602C7.88516 45.5479 7.8056 45.5321 7.73791 45.5626C7.67022 45.593 7.62931 45.6631 7.63603 45.737L7.11503 45.804C6.92603 44.367 6.83703 42.925 6.78703 41.526C6.50503 33.919 9.15303 24.081 18.08 22.971C18.1299 22.9634 18.1781 22.9479 18.223 22.925C18.3053 22.9964 18.4166 23.0246 18.523 23.001C23.688 21.963 26.706 26.775 28.391 30.877C29.9436 34.6515 30.9176 38.6388 31.28 42.704Z" fill="#A04E2F"/>
<path d="M23.32 18.1349C25.972 16.3659 29.052 16.4919 31.99 17.2349C28.641 17.8869 24.534 19.7059 23.883 22.9929C23.8706 23.0526 23.8706 23.1142 23.883 23.1739C22.2777 22.1578 20.3262 21.8434 18.483 22.3039C18.4269 22.1375 18.2547 22.0397 18.083 22.0769C16.9678 22.2148 15.8773 22.5076 14.843 22.9469C11.0707 21.9897 7.07394 23.1102 4.349 25.8889C4.681 20.7829 9.014 17.5759 14.011 17.2819C14.0738 17.2796 14.1344 17.2575 14.184 17.2189C14.2388 17.2126 14.2871 17.1797 14.313 17.131C14.339 17.0823 14.3393 17.024 14.314 16.9749C14.3283 16.8403 14.2485 16.7134 14.121 16.6679C12.5161 14.2911 10.2625 12.4252 7.628 11.2919C12.012 11.6159 16.387 12.6279 18.668 16.8349C18.891 17.2469 19.479 16.8849 19.29 16.4689C19.256 16.3979 19.219 16.3259 19.181 16.2549C20.4637 10.6481 24.8868 6.29721 30.514 5.10693C27.3163 8.85368 24.7075 13.0652 22.777 17.5969C22.644 17.9189 22.951 18.3829 23.32 18.1349Z" fill="#68A96A"/>
<path fill-rule="evenodd" clip-rule="evenodd" d="M28.397 43.696C28.5433 43.7818 28.5924 43.9701 28.5065 44.1165C28.4206 44.2628 28.2323 44.3118 28.086 44.226C27.745 44.062 27.397 43.886 27.052 43.709C26.01 46.1172 24.6473 48.3736 23.001 50.417C24.201 51.194 25.442 51.917 26.733 52.632C27.044 52.8 26.833 53.332 26.494 53.204C25.0615 52.6604 23.6897 51.9687 22.401 51.14C21.2963 52.422 20.0798 53.6033 18.766 54.67C20.127 55.527 21.531 56.326 22.994 57.057C23.343 57.229 23.125 57.696 22.805 57.696C22.748 57.6975 22.6915 57.6844 22.641 57.658C21.1019 56.9046 19.6062 56.0656 18.161 55.145C18.1125 55.1819 18.0644 55.2189 18.0166 55.2558C17.9066 55.3405 17.7975 55.4244 17.686 55.506C17.526 55.623 17.3 55.346 17.459 55.212C17.5179 55.162 17.5756 55.112 17.6334 55.0621L17.6335 55.062C17.6912 55.012 17.749 54.962 17.808 54.912C15.5481 53.453 13.4254 51.7919 11.466 49.949C11.3552 50.0373 11.2444 50.1262 11.1334 50.2152L11.1328 50.2157C10.9325 50.3763 10.7316 50.5375 10.529 50.697C10.403 50.797 10.239 50.579 10.357 50.474C10.651 50.222 10.937 49.974 11.223 49.713C9.96106 48.5051 8.77765 47.2178 7.67999 45.859C7.65333 45.8254 7.63856 45.7839 7.63799 45.741C7.63127 45.667 7.67218 45.597 7.73987 45.5665C7.80756 45.5361 7.88712 45.5519 7.93799 45.606C9.14399 46.9006 10.395 48.1293 11.691 49.292C13.069 48.0393 14.3843 46.7306 15.637 45.366C13.67 43.277 11.863 41.033 10.178 38.866C9.80399 39.198 9.42599 39.526 9.04799 39.841C8.91699 39.941 8.73299 39.773 8.85899 39.652C9.16086 39.3607 9.45409 39.0634 9.74572 38.7678L9.74576 38.7677L9.74583 38.7677L9.7459 38.7676L9.94299 38.568L9.67004 38.2144L9.66982 38.2141C9.43781 37.9137 9.20733 37.6153 8.98099 37.32C8.82099 37.114 9.16999 36.849 9.33799 37.047C9.50315 37.2417 9.66805 37.4377 9.83348 37.6344L9.8336 37.6345L9.83371 37.6346L9.83382 37.6348C9.99281 37.8238 10.1523 38.0134 10.313 38.203C11.738 36.749 13.074 35.248 14.352 33.703C13.3156 32.4862 12.3874 31.1812 11.578 29.803C11.473 29.622 11.729 29.416 11.872 29.576C12.3803 30.1484 12.8781 30.7218 13.3737 31.2927L13.3737 31.2927C13.8825 31.8787 14.3889 32.4621 14.902 33.039C16.2553 31.3623 17.5413 29.6183 18.76 27.807C18.172 27.1841 17.6179 26.5302 17.1 25.848C16.969 25.671 17.264 25.448 17.4 25.613C17.921 26.235 18.467 26.819 19.035 27.387L19.1383 27.2309L19.1384 27.2308C19.4148 26.8133 19.6906 26.3969 19.96 25.971C20.025 25.8633 20.1643 25.8275 20.2732 25.8904C20.3822 25.9533 20.4207 26.0918 20.36 26.202C20.066 26.736 19.755 27.265 19.439 27.791C21.0671 29.364 22.8959 30.715 24.878 31.809C25.147 31.242 25.412 30.674 25.664 30.094C25.815 29.745 26.332 30.048 26.177 30.394C25.929 30.961 25.664 31.524 25.395 32.088C25.727 32.26 26.064 32.428 26.408 32.588C26.774 32.76 26.454 33.307 26.089 33.13C25.765 32.975 25.442 32.811 25.122 32.643C24.0309 34.8576 22.7911 36.9959 21.411 39.043C22.5994 39.892 23.8222 40.6817 25.0472 41.4727L25.0475 41.4729L25.0477 41.473L25.048 41.4732C25.6421 41.8568 26.2366 42.2408 26.828 42.632C26.849 42.5823 26.8703 42.5325 26.8917 42.4828L26.892 42.4822L26.892 42.4821L26.892 42.482L26.8921 42.4819C26.9518 42.3426 27.0118 42.2027 27.067 42.06C27.21 41.703 27.794 41.85 27.655 42.224C27.5924 42.3969 27.5235 42.5693 27.4547 42.7416L27.4546 42.7417C27.4212 42.8255 27.3877 42.9092 27.355 42.993C27.704 43.221 28.053 43.452 28.397 43.696ZM22.475 50.067C24.0757 48.0174 25.4234 45.7822 26.489 43.41C24.5299 42.3522 22.6529 41.1488 20.874 39.81C19.5496 41.6987 18.1008 43.4971 16.537 45.193C16.619 45.2729 16.6987 45.3559 16.7784 45.4389L16.7785 45.439C16.8582 45.522 16.938 45.605 17.02 45.685C18.6954 47.3155 20.5219 48.7831 22.475 50.068V50.067ZM24.606 32.36C23.525 34.5508 22.2965 36.6656 20.929 38.69V38.691C20.273 38.208 19.63 37.712 19.003 37.181C17.7039 36.0468 16.4784 34.831 15.334 33.541C16.7296 31.8636 18.0089 30.0928 19.163 28.241C20.7754 29.8621 22.6077 31.2487 24.606 32.36ZM18.374 54.417C19.6307 53.2995 20.8023 52.0898 21.879 50.798C19.7459 49.332 17.7762 47.6413 16.004 45.755C14.732 47.0928 13.3834 48.3556 11.965 49.537C13.9726 51.3261 16.1153 52.9576 18.374 54.417ZM20.399 39.451C19.095 41.3194 17.6777 43.106 16.155 44.801V44.802C14.196 42.797 12.377 40.66 10.567 38.514C12.0539 37.1653 13.4565 35.7266 14.767 34.206C16.4715 36.1311 18.3576 37.8876 20.399 39.451Z" fill="#222221"/>
<path d="M26.489 43.4129C25.4234 45.7852 24.0757 48.0203 22.475 50.0699C20.5221 48.7863 18.6956 47.32 17.02 45.6909C16.856 45.5309 16.701 45.3589 16.537 45.1989C18.1008 43.503 19.5496 41.7047 20.874 39.8159C22.653 41.1537 24.53 42.3561 26.489 43.4129Z" fill="#A04E2F"/>
<path d="M22.808 57.695L23.022 58.918C21.7588 59.2818 20.4408 59.4173 19.13 59.318C15.3151 58.9651 11.8656 56.9021 9.75002 53.708C8.27762 51.3118 7.37732 48.6085 7.11902 45.808L7.64002 45.741C7.64059 45.7839 7.65536 45.8254 7.68202 45.859C8.77971 47.2178 9.96312 48.5051 11.225 49.713C10.939 49.969 10.653 50.222 10.359 50.474C10.241 50.579 10.405 50.793 10.531 50.697C10.846 50.449 11.157 50.197 11.468 49.949C13.4274 51.7919 15.5501 53.453 17.81 54.912C17.692 55.012 17.579 55.112 17.461 55.212C17.301 55.347 17.515 55.632 17.688 55.506C17.861 55.38 18.003 55.267 18.163 55.145C19.6083 56.0656 21.1039 56.9046 22.643 57.658C22.6939 57.6842 22.7508 57.6969 22.808 57.695Z" fill="#A04E2F"/>
<path d="M24.606 32.3571C23.5236 34.549 22.2934 36.6649 20.924 38.6901C20.268 38.2071 19.624 37.7111 18.999 37.1771C17.6999 36.0429 16.4744 34.8271 15.33 33.5371C16.7256 31.8597 18.0049 30.0889 19.159 28.2371C20.7726 29.8589 22.6062 31.2458 24.606 32.3571Z" fill="#A04E2F"/>
<path d="M21.879 50.7981C20.8024 52.09 19.6308 53.2997 18.374 54.4171C16.1153 52.9578 13.9726 51.3263 11.965 49.5371C13.3834 48.3557 14.7321 47.0929 16.004 45.7551C17.7763 47.6415 19.7459 49.3322 21.879 50.7981Z" fill="#A04E2F"/>
<path d="M20.399 39.4511C19.095 41.3194 17.6777 43.1061 16.155 44.8011C14.196 42.8011 12.377 40.6611 10.569 38.5141C12.056 37.1654 13.4586 35.7267 14.769 34.2061C16.473 36.1311 18.3583 37.8875 20.399 39.4511Z" fill="#A04E2F"/>
</svg>
