<svg width="21" height="18" viewBox="0 0 21 18" fill="none" xmlns="http://www.w3.org/2000/svg">
<path d="M19.125 10.9784C18.4655 10.3578 17.6315 9.95043 16.7198 9.83405V2.73491C16.7198 1.97845 16.4095 1.29957 15.9246 0.795259C15.4203 0.290948 14.7414 0 13.9849 0H2.73491C1.97845 0 1.29957 0.310345 0.795259 0.795259C0.290948 1.29957 0 1.97845 0 2.73491V11.6767V12.5108V14.3147C0 15.0711 0.310345 15.75 0.795259 16.2543C1.29957 16.7586 1.97845 17.0496 2.73491 17.0496H13.6164C14.3341 17.6315 15.2263 18 16.2155 18C17.3599 18 18.3879 17.5345 19.125 16.7974C19.8621 16.0603 20.3276 15.0323 20.3276 13.8879C20.3276 12.7435 19.8621 11.7155 19.125 10.9784ZM1.02802 2.73491C1.02802 2.2694 1.22198 1.84267 1.53233 1.53233C1.84267 1.22198 2.2694 1.02802 2.73491 1.02802H13.9849C14.4504 1.02802 14.8772 1.22198 15.1875 1.53233C15.4978 1.84267 15.6918 2.2694 15.6918 2.73491V8.78664L12.8211 5.93534C12.6272 5.74138 12.2974 5.72198 12.0841 5.93534L7.75862 10.2802L4.82974 7.3319C4.63578 7.13793 4.30603 7.11853 4.09267 7.3319L1.02802 10.4353V2.73491ZM2.71552 16.0409V16.0216C2.25 16.0216 1.82328 15.8276 1.51293 15.5172C1.22198 15.2069 1.02802 14.7802 1.02802 14.3147V12.5108V11.8901L4.4806 8.4375L7.40948 11.3664C7.60345 11.5603 7.93319 11.5603 8.14655 11.3664L12.472 7.02155L15.3039 9.87284C15.2457 9.89224 15.1875 9.91164 15.1293 9.93103C15.0517 9.95043 14.9741 9.96983 14.8772 10.0086C14.7996 10.028 14.722 10.0668 14.6444 10.0862C14.5862 10.1056 14.5474 10.125 14.4892 10.1638C14.4116 10.2026 14.3534 10.222 14.2953 10.2608C14.1983 10.319 14.1013 10.3772 14.0043 10.4353C13.9461 10.4741 13.9073 10.4935 13.8491 10.5323C13.8103 10.5517 13.7909 10.5711 13.7522 10.5905C13.5776 10.7069 13.4224 10.8427 13.2866 10.9978C12.5496 11.7349 12.0841 12.7629 12.0841 13.9073C12.0841 14.1983 12.1228 14.4698 12.181 14.7608C12.2004 14.8384 12.2198 14.8966 12.2392 14.9741C12.2974 15.1681 12.3556 15.3621 12.4332 15.556V15.5754C12.5108 15.7306 12.5884 15.9052 12.6853 16.0409H2.71552ZM18.3685 16.0603C17.806 16.6228 17.0496 16.9526 16.1961 16.9526C15.3815 16.9526 14.625 16.6228 14.0819 16.0991C14.0043 16.0216 13.9267 15.9246 13.8491 15.847C13.7909 15.7888 13.7328 15.7112 13.6746 15.653C13.597 15.556 13.5388 15.4397 13.4806 15.3233C13.4418 15.2457 13.403 15.1875 13.3642 15.1099C13.3254 15.0129 13.2866 14.8966 13.2672 14.7802C13.2478 14.7026 13.2091 14.6056 13.1897 14.528C13.1509 14.3341 13.1315 14.1207 13.1315 13.9073C13.1315 13.0539 13.4806 12.2974 14.0237 11.7349C14.5862 11.1724 15.3427 10.8427 16.1961 10.8427C17.0496 10.8427 17.806 11.1918 18.3685 11.7349C18.931 12.278 19.2608 13.0539 19.2608 13.9073C19.2608 14.7414 18.9116 15.4978 18.3685 16.0603Z" fill="white"/>
</svg>
