<svg width="15" height="12" viewBox="0 0 15 12" fill="none" xmlns="http://www.w3.org/2000/svg">
<path d="M1.70771 3.34767L1.13856 3.40522V3.8596L1.70771 3.99995V3.34767Z" fill="url(#paint0_linear_1358_79950)"/>
<path d="M5.04452 3.24938L3.0332 3.2615V4.08847H4.99403L5.04452 3.24938Z" fill="url(#paint1_linear_1358_79950)"/>
<path d="M7.92889 3.20999L5.04456 3.3463L4.99902 4.05311L7.92889 4.12884V3.20999Z" fill="url(#paint2_linear_1358_79950)"/>
<path d="M1.70752 3.34767L3.09822 3.41229L3.03289 3.93735L1.70752 3.99995V3.34767Z" fill="url(#paint3_linear_1358_79950)"/>
<path d="M14.1488 3.34767L14.718 3.40522V3.8596L14.1488 3.99995V3.34767Z" fill="url(#paint4_linear_1358_79950)"/>
<path d="M10.812 3.24938L12.8233 3.2615V3.936L10.8625 4.08847L10.812 3.24938Z" fill="url(#paint5_linear_1358_79950)"/>
<path d="M7.92871 3.20999L10.813 3.3463L10.8586 4.05311L7.92871 4.12884L7.92871 3.20999Z" fill="url(#paint6_linear_1358_79950)"/>
<path d="M14.1485 3.3472L12.7578 3.41182L12.8231 3.93688L14.1485 3.99847V3.3472Z" fill="url(#paint7_linear_1358_79950)"/>
<path d="M7.92887 3.99268L6.82324 8.81919L7.92887 11.5L9.03351 8.81919L7.92887 3.99268Z" fill="url(#paint8_linear_1358_79950)"/>
<path d="M7.92871 3.99252C8.87833 3.65093 9.91391 3.65093 10.8635 3.99252L9.03434 8.81903L7.92871 3.99252Z" fill="url(#paint9_linear_1358_79950)"/>
<path d="M12.8244 3.93604L10.2726 8.88371L7.92871 11.4999L9.03434 8.81909L12.8244 3.93604Z" fill="url(#paint10_linear_1358_79950)"/>
<path d="M12.8242 3.93322L10.2725 8.8809L14.1605 3.93322C13.9586 3.84831 13.7433 3.80177 13.525 3.7959C13.2861 3.80629 13.0499 3.85256 12.8242 3.93322Z" fill="url(#paint11_linear_1358_79950)"/>
<path d="M14.7187 3.8585L10.2725 8.8809L14.1605 3.93322C14.2624 3.85487 14.3838 3.80728 14.5109 3.7959C14.6861 3.79893 14.7187 3.8585 14.7187 3.8585Z" fill="url(#paint12_linear_1358_79950)"/>
<path d="M12.8493 1.27951L12.3099 0.730218H11.3022L12.8493 1.27951Z" fill="url(#paint13_linear_1358_79950)"/>
<path d="M12.8479 1.2793L12.7578 3.46738C13.2163 3.61766 13.7117 3.60089 14.1594 3.41992L12.8479 1.2793Z" fill="url(#paint14_linear_1358_79950)"/>
<path d="M12.8481 1.2793L14.7179 3.39973C14.7179 3.39973 14.6744 3.5007 14.4546 3.5007C14.3479 3.51341 14.2407 3.48133 14.1577 3.41185L12.8481 1.2793Z" fill="url(#paint15_linear_1358_79950)"/>
<path d="M11.3 0.72998L10.0439 1.69124L12.756 3.46736L12.8461 1.27927L11.3 0.72998Z" fill="url(#paint16_linear_1358_79950)"/>
<path d="M12.758 3.46765C12.45 3.55129 12.131 3.58536 11.8127 3.56863C11.4691 3.58554 11.1264 3.52018 10.812 3.37779L10.0459 1.6875L12.758 3.46765Z" fill="url(#paint17_linear_1358_79950)"/>
<path d="M10.0459 1.69155L11.302 0.730288H7.92871L10.0459 1.69155Z" fill="url(#paint18_linear_1358_79950)"/>
<path d="M7.92875 0.72998L5.81152 1.69124L7.92875 3.40778L10.046 1.69124L7.92875 0.72998Z" fill="url(#paint19_linear_1358_79950)"/>
<path d="M10.0459 1.69141L10.813 3.38169C10.3625 3.50281 9.8991 3.5669 9.43324 3.57253C8.92812 3.56276 8.42476 3.5087 7.92871 3.41098L10.0459 1.69141Z" fill="url(#paint20_linear_1358_79950)"/>
<path d="M7.92895 3.99252C6.97934 3.65093 5.94376 3.65093 4.99414 3.99252L6.82333 8.81903L7.92895 3.99252Z" fill="url(#paint21_linear_1358_79950)"/>
<path d="M3.0332 3.93704C3.6691 3.6952 4.37227 3.71512 4.99403 3.99257L6.82322 8.81908L3.0332 3.93704Z" fill="url(#paint22_linear_1358_79950)"/>
<path d="M3.0332 3.93604L5.58496 8.88371L7.92885 11.4979L6.82322 8.81707L3.0332 3.93604Z" fill="url(#paint23_linear_1358_79950)"/>
<path d="M3.03303 3.93322L5.58479 8.8809L1.69678 3.93322C1.89862 3.84831 2.11398 3.80177 2.33224 3.7959C2.57119 3.80629 2.80732 3.85256 3.03303 3.93322Z" fill="url(#paint24_linear_1358_79950)"/>
<path d="M1.13867 3.85839L5.58494 8.88583L1.69693 3.93815C1.59505 3.8598 1.47364 3.81222 1.34653 3.80083C1.17134 3.79881 1.13867 3.85839 1.13867 3.85839Z" fill="url(#paint25_linear_1358_79950)"/>
<path d="M3.0083 1.27951L3.54775 0.730218H4.55539L3.0083 1.27951Z" fill="url(#paint26_linear_1358_79950)"/>
<path d="M3.00829 1.2793L3.09836 3.46738C2.63988 3.61766 2.14448 3.60089 1.69678 3.41992L3.00829 1.2793Z" fill="url(#paint27_linear_1358_79950)"/>
<path d="M3.00844 1.2793L1.13867 3.40882C1.13867 3.40882 1.18222 3.50979 1.40196 3.50979C1.50866 3.52249 1.61584 3.49042 1.69891 3.42093L3.00844 1.2793Z" fill="url(#paint28_linear_1358_79950)"/>
<path d="M4.55537 0.72998L5.81146 1.69124L3.09935 3.46736L3.00928 1.27927L4.55537 0.72998Z" fill="url(#paint29_linear_1358_79950)"/>
<path d="M3.09961 3.46765C3.40763 3.55129 3.72656 3.58536 4.04489 3.56863C4.38849 3.58558 4.7312 3.52022 5.04559 3.37779L5.8127 1.6875L3.09961 3.46765Z" fill="url(#paint30_linear_1358_79950)"/>
<path d="M5.81126 1.69155L4.55518 0.730288H7.92848L5.81126 1.69155Z" fill="url(#paint31_linear_1358_79950)"/>
<path d="M5.81057 1.69141L5.04346 3.38169C5.49398 3.50281 5.9574 3.5669 6.42326 3.57253C6.92838 3.56276 7.43175 3.5087 7.92779 3.41098L5.81057 1.69141Z" fill="url(#paint32_linear_1358_79950)"/>
<path d="M12.8242 3.93704C12.1883 3.6952 11.4851 3.71512 10.8634 3.99257L9.03418 8.81908L12.8242 3.93704Z" fill="url(#paint33_linear_1358_79950)"/>
<g opacity="0.3">
<path d="M2.56372 3.34767L1.19678 3.40522V3.8596L2.56372 3.99995V3.34767Z" fill="url(#paint34_linear_1358_79950)"/>
<path d="M5.92226 3.24938L3.70605 3.2615V4.08847H5.87871L5.92226 3.24938Z" fill="url(#paint35_linear_1358_79950)"/>
<path d="M7.92876 3.20999L5.92338 3.3463L5.88379 4.05311L7.92777 4.12884L7.92876 3.20999Z" fill="url(#paint36_linear_1358_79950)"/>
<path d="M2.56494 3.3472L3.7646 3.41182L3.70818 3.93688L2.56593 3.99847L2.56494 3.3472Z" fill="url(#paint37_linear_1358_79950)"/>
<path d="M13.2915 3.34767L14.703 3.40522V3.8596L13.2915 3.99995V3.34767Z" fill="url(#paint38_linear_1358_79950)"/>
<path d="M9.93311 3.24938L12.1493 3.2615V3.936L9.97666 4.08847L9.93311 3.24938Z" fill="url(#paint39_linear_1358_79950)"/>
<path d="M7.92773 3.20999L9.93311 3.3463L9.9727 4.05311L7.92872 4.12884L7.92773 3.20999Z" fill="url(#paint40_linear_1358_79950)"/>
<path d="M13.2924 3.3472L12.0928 3.41182L12.1492 3.93688L13.2914 3.99847L13.2924 3.3472Z" fill="url(#paint41_linear_1358_79950)"/>
<path d="M7.92341 3.99268L6.97021 8.81919L7.92341 11.5L8.87661 8.81919L7.92341 3.99268Z" fill="url(#paint42_linear_1358_79950)"/>
<path d="M7.92773 3.99276C8.56173 3.6196 9.34267 3.6196 9.97666 3.99276L8.88093 8.81927L7.92773 3.99276Z" fill="url(#paint43_linear_1358_79950)"/>
<path d="M12.1493 3.93604L9.94895 8.88371L7.92773 11.4999L8.88093 8.81909L12.1493 3.93604Z" fill="url(#paint44_linear_1358_79950)"/>
<path d="M12.1491 3.93322L9.94873 8.8809L13.3012 3.93322C13.1301 3.84926 12.9437 3.8025 12.7539 3.7959C12.5462 3.8067 12.3417 3.85313 12.1491 3.93322Z" fill="url(#paint45_linear_1358_79950)"/>
<path d="M14.7028 3.85839L9.95166 8.88583L13.3042 3.93815C13.3886 3.86179 13.494 3.81384 13.6061 3.80083C13.7545 3.79881 14.7028 3.85839 14.7028 3.85839Z" fill="url(#paint46_linear_1358_79950)"/>
<path d="M12.1697 1.27951L11.7045 0.730218H10.8354L12.1697 1.27951Z" fill="url(#paint47_linear_1358_79950)"/>
<path d="M12.171 1.2793L12.0928 3.46738C12.4855 3.61823 12.9212 3.60112 13.3013 3.41992L12.171 1.2793Z" fill="url(#paint48_linear_1358_79950)"/>
<path d="M12.1709 1.2793L14.7038 3.39973C14.7038 3.39973 13.7457 3.5007 13.5576 3.5007C13.4638 3.5114 13.3701 3.47882 13.3023 3.41185L12.1709 1.2793Z" fill="url(#paint49_linear_1358_79950)"/>
<path d="M10.8368 0.72998L9.75391 1.69124L12.0928 3.46736L12.171 1.27927L10.8368 0.72998Z" fill="url(#paint50_linear_1358_79950)"/>
<path d="M12.0928 3.46765C11.8291 3.55088 11.5528 3.58508 11.2772 3.56863C10.8242 3.54947 10.374 3.48556 9.93306 3.37779L9.75391 1.6875L12.0928 3.46765Z" fill="url(#paint51_linear_1358_79950)"/>
<path d="M9.75395 1.69155L10.8368 0.730288H7.92773L9.75395 1.69155Z" fill="url(#paint52_linear_1358_79950)"/>
<path d="M7.92876 0.72998L6.10254 1.69124L7.92876 3.40778L9.75497 1.69124L7.92876 0.72998Z" fill="url(#paint53_linear_1358_79950)"/>
<path d="M9.75394 1.69141L9.93309 3.38169C9.93309 3.38169 9.84797 3.57253 9.22537 3.57253C8.78898 3.56253 8.35464 3.50841 7.92871 3.41098L9.75394 1.69141Z" fill="url(#paint54_linear_1358_79950)"/>
<path d="M7.93174 3.99276C7.29774 3.6196 6.51681 3.6196 5.88281 3.99276L6.97854 8.81927L7.93174 3.99276Z" fill="url(#paint55_linear_1358_79950)"/>
<path d="M3.70703 3.93689C4.4168 3.70589 5.18215 3.72545 5.87968 3.99242L6.97541 8.81893L3.70703 3.93689Z" fill="url(#paint56_linear_1358_79950)"/>
<path d="M3.70605 3.93604L5.90642 8.88371L7.92763 11.4979L6.97444 8.81707L3.70605 3.93604Z" fill="url(#paint57_linear_1358_79950)"/>
<path d="M3.70488 3.93322L5.90525 8.8809L2.55273 3.93322C2.72391 3.84929 2.9103 3.80253 3.1001 3.7959C3.30783 3.8067 3.51228 3.85313 3.70488 3.93322Z" fill="url(#paint58_linear_1358_79950)"/>
<path d="M1.19678 3.85834L5.90733 8.88578L2.55481 3.9381C2.55481 3.9381 1.52738 3.80078 1.37692 3.80078C1.22647 3.80078 1.19678 3.85834 1.19678 3.85834Z" fill="url(#paint59_linear_1358_79950)"/>
<path d="M3.68604 1.27951L4.15125 0.730218H5.02031L3.68604 1.27951Z" fill="url(#paint60_linear_1358_79950)"/>
<path d="M3.68604 1.2793L3.76423 3.46738C3.37155 3.61823 2.93582 3.60112 2.55566 3.41992L3.68604 1.2793Z" fill="url(#paint61_linear_1358_79950)"/>
<path d="M3.68518 1.2793L1.19678 3.39973C1.19678 3.39973 2.11038 3.5007 2.29944 3.5007C2.39329 3.5114 2.48693 3.47882 2.55481 3.41185L3.68518 1.2793Z" fill="url(#paint62_linear_1358_79950)"/>
<path d="M5.01836 0.72998L6.10122 1.69124L3.76228 3.46736L3.68408 1.27927L5.01836 0.72998Z" fill="url(#paint63_linear_1358_79950)"/>
<path d="M3.76318 3.46765C4.02693 3.55088 4.30319 3.58508 4.57879 3.56863C5.03184 3.54947 5.48201 3.48556 5.92297 3.37779L6.10213 1.6875L3.76318 3.46765Z" fill="url(#paint64_linear_1358_79950)"/>
<path d="M6.1054 1.69155L5.0166 0.730288H7.92568L6.1054 1.69155Z" fill="url(#paint65_linear_1358_79950)"/>
<path d="M6.1025 1.69141L5.92334 3.38169C5.92334 3.38169 6.00846 3.57253 6.63106 3.57253C7.06745 3.56252 7.5018 3.5084 7.92772 3.41098L6.1025 1.69141Z" fill="url(#paint66_linear_1358_79950)"/>
<path d="M12.1492 3.93689C11.4395 3.70589 10.6741 3.72545 9.97659 3.99242L8.88086 8.81893L12.1492 3.93689Z" fill="url(#paint67_linear_1358_79950)"/>
</g>
<defs>
<linearGradient id="paint0_linear_1358_79950" x1="0.601582" y1="3.89545" x2="1.79217" y2="4.49612" gradientUnits="userSpaceOnUse">
<stop offset="0.023" stop-color="#434860"/>
<stop offset="0.068" stop-color="#3C4057"/>
<stop offset="1" stop-color="#7B95BF"/>
</linearGradient>
<linearGradient id="paint1_linear_1358_79950" x1="-2.19094" y1="1.41636" x2="-1.72162" y2="6.85713" gradientUnits="userSpaceOnUse">
<stop offset="0.023" stop-color="#434860"/>
<stop offset="0.068" stop-color="#3C4057"/>
<stop offset="0.474" stop-color="#7B95BF"/>
<stop offset="1" stop-color="#C2CEE2"/>
</linearGradient>
<linearGradient id="paint2_linear_1358_79950" x1="-15.1947" y1="-2.96907" x2="-14.8972" y2="11.1879" gradientUnits="userSpaceOnUse">
<stop offset="0.023" stop-color="#434860"/>
<stop offset="0.068" stop-color="#3C4057"/>
<stop offset="0.474" stop-color="#7B95BF"/>
<stop offset="1" stop-color="#C2CEE2"/>
</linearGradient>
<linearGradient id="paint3_linear_1358_79950" x1="42.2507" y1="2.88909" x2="42.98" y2="5.37993" gradientUnits="userSpaceOnUse">
<stop offset="0.402" stop-color="#7B95BF"/>
<stop offset="0.977" stop-color="#434860"/>
</linearGradient>
<linearGradient id="paint4_linear_1358_79950" x1="66.5295" y1="3.89544" x2="67.7201" y2="4.49612" gradientUnits="userSpaceOnUse">
<stop offset="0.023" stop-color="#434860"/>
<stop offset="0.068" stop-color="#3C4057"/>
<stop offset="1" stop-color="#7B95BF"/>
</linearGradient>
<linearGradient id="paint5_linear_1358_79950" x1="41.2947" y1="1.13234" x2="41.7635" y2="6.57286" gradientUnits="userSpaceOnUse">
<stop offset="0.023" stop-color="#434860"/>
<stop offset="0.068" stop-color="#3C4057"/>
<stop offset="0.474" stop-color="#7B95BF"/>
<stop offset="1" stop-color="#C2CEE2"/>
</linearGradient>
<linearGradient id="paint6_linear_1358_79950" x1="47.7475" y1="3.67886" x2="48.9485" y2="5.38866" gradientUnits="userSpaceOnUse">
<stop offset="0.094" stop-color="#C7D3E6"/>
<stop offset="0.708" stop-color="#7B95BF"/>
<stop offset="1" stop-color="#3C4057"/>
</linearGradient>
<linearGradient id="paint7_linear_1358_79950" x1="-1.19899" y1="2.88811" x2="-0.469683" y2="5.37895" gradientUnits="userSpaceOnUse">
<stop offset="0.251" stop-color="#7B95BF"/>
<stop offset="0.977" stop-color="#434860"/>
</linearGradient>
<linearGradient id="paint8_linear_1358_79950" x1="6.82324" y1="11.5" x2="9.03351" y2="11.5" gradientUnits="userSpaceOnUse">
<stop offset="0.015" stop-color="#3C4057"/>
<stop offset="0.166" stop-color="#7B95BF"/>
<stop offset="0.407" stop-color="white"/>
<stop offset="0.612" stop-color="white"/>
<stop offset="0.849" stop-color="#7B95BF"/>
<stop offset="1" stop-color="#3C4057"/>
</linearGradient>
<linearGradient id="paint9_linear_1358_79950" x1="5.0406" y1="13.577" x2="13.4995" y2="13.5957" gradientUnits="userSpaceOnUse">
<stop offset="0.43" stop-color="#E5EAF2"/>
<stop offset="0.708" stop-color="#7B95BF"/>
<stop offset="1" stop-color="#3C4057"/>
</linearGradient>
<linearGradient id="paint10_linear_1358_79950" x1="8.95764" y1="9.09199" x2="11.1829" y2="9.33347" gradientUnits="userSpaceOnUse">
<stop offset="0.023" stop-color="#434860"/>
<stop offset="0.068" stop-color="#3C4057"/>
<stop offset="0.474" stop-color="#7B95BF"/>
<stop offset="1" stop-color="#C2CEE2"/>
</linearGradient>
<linearGradient id="paint11_linear_1358_79950" x1="11.0132" y1="7.13695" x2="12.7111" y2="7.49206" gradientUnits="userSpaceOnUse">
<stop offset="0.023" stop-color="#434860"/>
<stop offset="0.068" stop-color="#3C4057"/>
<stop offset="0.474" stop-color="#7B95BF"/>
<stop offset="1" stop-color="#C2CEE2"/>
</linearGradient>
<linearGradient id="paint12_linear_1358_79950" x1="10.2725" y1="8.8809" x2="14.7187" y2="8.8809" gradientUnits="userSpaceOnUse">
<stop offset="0.14" stop-color="#E6EBF3"/>
<stop offset="0.626" stop-color="#7B95BF"/>
<stop offset="1" stop-color="#3C4057"/>
</linearGradient>
<linearGradient id="paint13_linear_1358_79950" x1="11.3022" y1="1.50973" x2="12.8493" y2="1.50973" gradientUnits="userSpaceOnUse">
<stop offset="0.3" stop-color="white"/>
<stop offset="0.626" stop-color="#7B95BF"/>
<stop offset="1" stop-color="#3C4057"/>
</linearGradient>
<linearGradient id="paint14_linear_1358_79950" x1="12.7578" y1="3.56904" x2="14.1594" y2="3.56904" gradientUnits="userSpaceOnUse">
<stop stop-color="#C2CEE2"/>
<stop offset="0.626" stop-color="#7B95BF"/>
<stop offset="1" stop-color="#3C4057"/>
</linearGradient>
<linearGradient id="paint15_linear_1358_79950" x1="12.8481" y1="3.50343" x2="14.7179" y2="3.50343" gradientUnits="userSpaceOnUse">
<stop offset="0.14" stop-color="#E6EBF3"/>
<stop offset="0.626" stop-color="#7B95BF"/>
<stop offset="1" stop-color="#3C4057"/>
</linearGradient>
<linearGradient id="paint16_linear_1358_79950" x1="10.0439" y1="3.46736" x2="12.8461" y2="3.46736" gradientUnits="userSpaceOnUse">
<stop offset="0.005" stop-color="#A1B4D2"/>
<stop offset="0.3" stop-color="white"/>
<stop offset="1" stop-color="#7B95BF"/>
</linearGradient>
<linearGradient id="paint17_linear_1358_79950" x1="12.1468" y1="4.27547" x2="12.6947" y2="2.10262" gradientUnits="userSpaceOnUse">
<stop stop-color="#3C4057"/>
<stop offset="0.374" stop-color="#7B95BF"/>
<stop offset="0.7" stop-color="white"/>
</linearGradient>
<linearGradient id="paint18_linear_1358_79950" x1="7.92871" y1="1.71578" x2="11.302" y2="1.71578" gradientUnits="userSpaceOnUse">
<stop offset="0.005" stop-color="#A1B4D2"/>
<stop offset="0.3" stop-color="white"/>
<stop offset="1" stop-color="#7B95BF"/>
</linearGradient>
<linearGradient id="paint19_linear_1358_79950" x1="5.81152" y1="3.40778" x2="10.046" y2="3.40778" gradientUnits="userSpaceOnUse">
<stop offset="0.015" stop-color="#3C4057"/>
<stop offset="0.166" stop-color="#7B95BF"/>
<stop offset="0.407" stop-color="white"/>
<stop offset="0.612" stop-color="white"/>
<stop offset="0.849" stop-color="#7B95BF"/>
<stop offset="1" stop-color="#3C4057"/>
</linearGradient>
<linearGradient id="paint20_linear_1358_79950" x1="7.92871" y1="3.57253" x2="10.813" y2="3.57253" gradientUnits="userSpaceOnUse">
<stop offset="0.297" stop-color="#E5EAF2"/>
<stop offset="0.626" stop-color="#7B95BF"/>
<stop offset="1" stop-color="#3C4057"/>
</linearGradient>
<linearGradient id="paint21_linear_1358_79950" x1="135.806" y1="13.5697" x2="144.256" y2="13.5883" gradientUnits="userSpaceOnUse">
<stop offset="0.43" stop-color="#E5EAF2"/>
<stop offset="0.708" stop-color="#7B95BF"/>
<stop offset="1" stop-color="#3C4057"/>
</linearGradient>
<linearGradient id="paint22_linear_1358_79950" x1="87.1749" y1="7.39936" x2="89.7149" y2="7.89366" gradientUnits="userSpaceOnUse">
<stop offset="0.023" stop-color="#434860"/>
<stop offset="0.068" stop-color="#3C4057"/>
<stop offset="0.474" stop-color="#7B95BF"/>
<stop offset="1" stop-color="#C2CEE2"/>
</linearGradient>
<linearGradient id="paint23_linear_1358_79950" x1="114.923" y1="9.08971" x2="117.147" y2="9.33126" gradientUnits="userSpaceOnUse">
<stop offset="0.023" stop-color="#434860"/>
<stop offset="0.068" stop-color="#3C4057"/>
<stop offset="0.474" stop-color="#7B95BF"/>
<stop offset="1" stop-color="#C2CEE2"/>
</linearGradient>
<linearGradient id="paint24_linear_1358_79950" x1="87.9657" y1="7.13695" x2="89.6636" y2="7.49206" gradientUnits="userSpaceOnUse">
<stop offset="0.023" stop-color="#434860"/>
<stop offset="0.068" stop-color="#3C4057"/>
<stop offset="0.474" stop-color="#7B95BF"/>
<stop offset="1" stop-color="#C2CEE2"/>
</linearGradient>
<linearGradient id="paint25_linear_1358_79950" x1="53.7291" y1="8.88583" x2="58.1754" y2="8.88583" gradientUnits="userSpaceOnUse">
<stop offset="0.14" stop-color="#E6EBF3"/>
<stop offset="0.626" stop-color="#7B95BF"/>
<stop offset="1" stop-color="#3C4057"/>
</linearGradient>
<linearGradient id="paint26_linear_1358_79950" x1="54.763" y1="1.50973" x2="56.3101" y2="1.50973" gradientUnits="userSpaceOnUse">
<stop offset="0.3" stop-color="white"/>
<stop offset="0.626" stop-color="#7B95BF"/>
<stop offset="1" stop-color="#3C4057"/>
</linearGradient>
<linearGradient id="paint27_linear_1358_79950" x1="56.2058" y1="3.56904" x2="57.6073" y2="3.56904" gradientUnits="userSpaceOnUse">
<stop stop-color="#C2CEE2"/>
<stop offset="0.626" stop-color="#7B95BF"/>
<stop offset="1" stop-color="#3C4057"/>
</linearGradient>
<linearGradient id="paint28_linear_1358_79950" x1="56.2968" y1="3.51251" x2="58.1666" y2="3.51251" gradientUnits="userSpaceOnUse">
<stop offset="0.14" stop-color="#E6EBF3"/>
<stop offset="0.626" stop-color="#7B95BF"/>
<stop offset="1" stop-color="#3C4057"/>
</linearGradient>
<linearGradient id="paint29_linear_1358_79950" x1="53.4933" y1="2.09867" x2="56.2955" y2="2.09867" gradientUnits="userSpaceOnUse">
<stop offset="0.005" stop-color="#A1B4D2"/>
<stop offset="0.3" stop-color="white"/>
<stop offset="1" stop-color="#7B95BF"/>
</linearGradient>
<linearGradient id="paint30_linear_1358_79950" x1="55.617" y1="4.27734" x2="56.1663" y2="2.10236" gradientUnits="userSpaceOnUse">
<stop stop-color="#3C4057"/>
<stop offset="0.374" stop-color="#7B95BF"/>
<stop offset="0.7" stop-color="white"/>
</linearGradient>
<linearGradient id="paint31_linear_1358_79950" x1="51.3867" y1="1.21092" x2="54.76" y2="1.21092" gradientUnits="userSpaceOnUse">
<stop offset="0.005" stop-color="#A1B4D2"/>
<stop offset="0.3" stop-color="white"/>
<stop offset="1" stop-color="#7B95BF"/>
</linearGradient>
<linearGradient id="paint32_linear_1358_79950" x1="51.3889" y1="3.57253" x2="54.2732" y2="3.57253" gradientUnits="userSpaceOnUse">
<stop offset="0.297" stop-color="#E5EAF2"/>
<stop offset="0.626" stop-color="#7B95BF"/>
<stop offset="1" stop-color="#3C4057"/>
</linearGradient>
<linearGradient id="paint33_linear_1358_79950" x1="8.79839" y1="7.39935" x2="11.3384" y2="7.89366" gradientUnits="userSpaceOnUse">
<stop offset="0.023" stop-color="#434860"/>
<stop offset="0.068" stop-color="#3C4057"/>
<stop offset="0.474" stop-color="#7B95BF"/>
<stop offset="1" stop-color="#C2CEE2"/>
</linearGradient>
<linearGradient id="paint34_linear_1358_79950" x1="-0.222633" y1="2.89992" x2="0.52673" y2="5.2899" gradientUnits="userSpaceOnUse">
<stop offset="0.023" stop-color="#434860"/>
<stop offset="0.068" stop-color="#3C4057"/>
<stop offset="1" stop-color="#7B95BF"/>
</linearGradient>
<linearGradient id="paint35_linear_1358_79950" x1="-3.90575" y1="0.5567" x2="-3.48912" y2="7.6792" gradientUnits="userSpaceOnUse">
<stop offset="0.023" stop-color="#434860"/>
<stop offset="0.068" stop-color="#3C4057"/>
<stop offset="0.474" stop-color="#7B95BF"/>
<stop offset="1" stop-color="#C2CEE2"/>
</linearGradient>
<linearGradient id="paint36_linear_1358_79950" x1="0.923673" y1="1.58046" x2="1.38271" y2="6.76245" gradientUnits="userSpaceOnUse">
<stop offset="0.023" stop-color="#434860"/>
<stop offset="0.068" stop-color="#3C4057"/>
<stop offset="0.474" stop-color="#7B95BF"/>
<stop offset="1" stop-color="#C2CEE2"/>
</linearGradient>
<linearGradient id="paint37_linear_1358_79950" x1="42.264" y1="3.32241" x2="43.1502" y2="5.00168" gradientUnits="userSpaceOnUse">
<stop offset="0.402" stop-color="#7B95BF"/>
<stop offset="0.977" stop-color="#434860"/>
</linearGradient>
<linearGradient id="paint38_linear_1358_79950" x1="43.0119" y1="2.78357" x2="43.7283" y2="5.37884" gradientUnits="userSpaceOnUse">
<stop offset="0.023" stop-color="#434860"/>
<stop offset="0.068" stop-color="#3C4057"/>
<stop offset="1" stop-color="#7B95BF"/>
</linearGradient>
<linearGradient id="paint39_linear_1358_79950" x1="39.5801" y1="0.21249" x2="39.9968" y2="7.33499" gradientUnits="userSpaceOnUse">
<stop offset="0.023" stop-color="#434860"/>
<stop offset="0.068" stop-color="#3C4057"/>
<stop offset="0.474" stop-color="#7B95BF"/>
<stop offset="1" stop-color="#C2CEE2"/>
</linearGradient>
<linearGradient id="paint40_linear_1358_79950" x1="49.1906" y1="4.0062" x2="51.0777" y2="4.64242" gradientUnits="userSpaceOnUse">
<stop offset="0.094" stop-color="#C7D3E6"/>
<stop offset="0.708" stop-color="#7B95BF"/>
<stop offset="1" stop-color="#3C4057"/>
</linearGradient>
<linearGradient id="paint41_linear_1358_79950" x1="-1.208" y1="3.32292" x2="-0.320707" y2="5.0024" gradientUnits="userSpaceOnUse">
<stop offset="0.251" stop-color="#7B95BF"/>
<stop offset="0.977" stop-color="#434860"/>
</linearGradient>
<linearGradient id="paint42_linear_1358_79950" x1="6.97021" y1="11.5" x2="8.87661" y2="11.5" gradientUnits="userSpaceOnUse">
<stop offset="0.015" stop-color="#3C4057"/>
<stop offset="0.166" stop-color="#7B95BF"/>
<stop offset="0.407" stop-color="white"/>
<stop offset="0.612" stop-color="white"/>
<stop offset="0.849" stop-color="#7B95BF"/>
<stop offset="1" stop-color="#3C4057"/>
</linearGradient>
<linearGradient id="paint43_linear_1358_79950" x1="2.59803" y1="21.4898" x2="14.8273" y2="21.4956" gradientUnits="userSpaceOnUse">
<stop offset="0.43" stop-color="#E5EAF2"/>
<stop offset="0.708" stop-color="#7B95BF"/>
<stop offset="1" stop-color="#3C4057"/>
</linearGradient>
<linearGradient id="paint44_linear_1358_79950" x1="8.66623" y1="9.77022" x2="11.2384" y2="9.92217" gradientUnits="userSpaceOnUse">
<stop offset="0.023" stop-color="#434860"/>
<stop offset="0.068" stop-color="#3C4057"/>
<stop offset="0.474" stop-color="#7B95BF"/>
<stop offset="1" stop-color="#C2CEE2"/>
</linearGradient>
<linearGradient id="paint45_linear_1358_79950" x1="10.0047" y1="7.46822" x2="11.9497" y2="7.69304" gradientUnits="userSpaceOnUse">
<stop offset="0.023" stop-color="#434860"/>
<stop offset="0.068" stop-color="#3C4057"/>
<stop offset="0.474" stop-color="#7B95BF"/>
<stop offset="1" stop-color="#C2CEE2"/>
</linearGradient>
<linearGradient id="paint46_linear_1358_79950" x1="9.95166" y1="8.88583" x2="14.7028" y2="8.88583" gradientUnits="userSpaceOnUse">
<stop offset="0.14" stop-color="#E6EBF3"/>
<stop offset="0.626" stop-color="#7B95BF"/>
<stop offset="1" stop-color="#3C4057"/>
</linearGradient>
<linearGradient id="paint47_linear_1358_79950" x1="10.8354" y1="1.50973" x2="12.1697" y2="1.50973" gradientUnits="userSpaceOnUse">
<stop offset="0.3" stop-color="white"/>
<stop offset="0.626" stop-color="#7B95BF"/>
<stop offset="1" stop-color="#3C4057"/>
</linearGradient>
<linearGradient id="paint48_linear_1358_79950" x1="12.0928" y1="3.56935" x2="13.3013" y2="3.56935" gradientUnits="userSpaceOnUse">
<stop stop-color="#C2CEE2"/>
<stop offset="0.626" stop-color="#7B95BF"/>
<stop offset="1" stop-color="#3C4057"/>
</linearGradient>
<linearGradient id="paint49_linear_1358_79950" x1="12.1709" y1="3.5027" x2="14.7038" y2="3.5027" gradientUnits="userSpaceOnUse">
<stop offset="0.14" stop-color="#E6EBF3"/>
<stop offset="0.626" stop-color="#7B95BF"/>
<stop offset="1" stop-color="#3C4057"/>
</linearGradient>
<linearGradient id="paint50_linear_1358_79950" x1="9.75391" y1="3.46736" x2="12.171" y2="3.46736" gradientUnits="userSpaceOnUse">
<stop offset="0.005" stop-color="#A1B4D2"/>
<stop offset="0.3" stop-color="white"/>
<stop offset="1" stop-color="#7B95BF"/>
</linearGradient>
<linearGradient id="paint51_linear_1358_79950" x1="11.0182" y1="4.38028" x2="11.8618" y2="2.53187" gradientUnits="userSpaceOnUse">
<stop stop-color="#3C4057"/>
<stop offset="0.374" stop-color="#7B95BF"/>
<stop offset="0.7" stop-color="white"/>
</linearGradient>
<linearGradient id="paint52_linear_1358_79950" x1="7.92773" y1="1.71578" x2="10.8368" y2="1.71578" gradientUnits="userSpaceOnUse">
<stop offset="0.005" stop-color="#A1B4D2"/>
<stop offset="0.3" stop-color="white"/>
<stop offset="1" stop-color="#7B95BF"/>
</linearGradient>
<linearGradient id="paint53_linear_1358_79950" x1="6.10254" y1="3.40778" x2="9.75497" y2="3.40778" gradientUnits="userSpaceOnUse">
<stop offset="0.015" stop-color="#3C4057"/>
<stop offset="0.166" stop-color="#7B95BF"/>
<stop offset="0.407" stop-color="white"/>
<stop offset="0.612" stop-color="white"/>
<stop offset="0.849" stop-color="#7B95BF"/>
<stop offset="1" stop-color="#3C4057"/>
</linearGradient>
<linearGradient id="paint54_linear_1358_79950" x1="7.92871" y1="3.57253" x2="9.93309" y2="3.57253" gradientUnits="userSpaceOnUse">
<stop offset="0.297" stop-color="#E5EAF2"/>
<stop offset="0.626" stop-color="#7B95BF"/>
<stop offset="1" stop-color="#3C4057"/>
</linearGradient>
<linearGradient id="paint55_linear_1358_79950" x1="272.141" y1="21.4898" x2="284.37" y2="21.4956" gradientUnits="userSpaceOnUse">
<stop offset="0.43" stop-color="#E5EAF2"/>
<stop offset="0.708" stop-color="#7B95BF"/>
<stop offset="1" stop-color="#3C4057"/>
</linearGradient>
<linearGradient id="paint56_linear_1358_79950" x1="113.021" y1="8.38251" x2="116.749" y2="8.78499" gradientUnits="userSpaceOnUse">
<stop offset="0.023" stop-color="#434860"/>
<stop offset="0.068" stop-color="#3C4057"/>
<stop offset="0.474" stop-color="#7B95BF"/>
<stop offset="1" stop-color="#C2CEE2"/>
</linearGradient>
<linearGradient id="paint57_linear_1358_79950" x1="151.463" y1="9.76744" x2="154.034" y2="9.91944" gradientUnits="userSpaceOnUse">
<stop offset="0.023" stop-color="#434860"/>
<stop offset="0.068" stop-color="#3C4057"/>
<stop offset="0.474" stop-color="#7B95BF"/>
<stop offset="1" stop-color="#C2CEE2"/>
</linearGradient>
<linearGradient id="paint58_linear_1358_79950" x1="115.028" y1="7.46822" x2="116.973" y2="7.69304" gradientUnits="userSpaceOnUse">
<stop offset="0.023" stop-color="#434860"/>
<stop offset="0.068" stop-color="#3C4057"/>
<stop offset="0.474" stop-color="#7B95BF"/>
<stop offset="1" stop-color="#C2CEE2"/>
</linearGradient>
<linearGradient id="paint59_linear_1358_79950" x1="53.4085" y1="8.88578" x2="58.119" y2="8.88578" gradientUnits="userSpaceOnUse">
<stop offset="0.14" stop-color="#E6EBF3"/>
<stop offset="0.626" stop-color="#7B95BF"/>
<stop offset="1" stop-color="#3C4057"/>
</linearGradient>
<linearGradient id="paint60_linear_1358_79950" x1="54.3085" y1="1.50973" x2="55.6427" y2="1.50973" gradientUnits="userSpaceOnUse">
<stop offset="0.3" stop-color="white"/>
<stop offset="0.626" stop-color="#7B95BF"/>
<stop offset="1" stop-color="#3C4057"/>
</linearGradient>
<linearGradient id="paint61_linear_1358_79950" x1="55.5393" y1="3.56935" x2="56.7479" y2="3.56935" gradientUnits="userSpaceOnUse">
<stop stop-color="#C2CEE2"/>
<stop offset="0.626" stop-color="#7B95BF"/>
<stop offset="1" stop-color="#3C4057"/>
</linearGradient>
<linearGradient id="paint62_linear_1358_79950" x1="55.6207" y1="3.5027" x2="58.1091" y2="3.5027" gradientUnits="userSpaceOnUse">
<stop offset="0.14" stop-color="#E6EBF3"/>
<stop offset="0.626" stop-color="#7B95BF"/>
<stop offset="1" stop-color="#3C4057"/>
</linearGradient>
<linearGradient id="paint63_linear_1358_79950" x1="53.2161" y1="2.09867" x2="55.6332" y2="2.09867" gradientUnits="userSpaceOnUse">
<stop offset="0.005" stop-color="#A1B4D2"/>
<stop offset="0.3" stop-color="white"/>
<stop offset="1" stop-color="#7B95BF"/>
</linearGradient>
<linearGradient id="paint64_linear_1358_79950" x1="54.4774" y1="4.38028" x2="55.321" y2="2.53187" gradientUnits="userSpaceOnUse">
<stop stop-color="#3C4057"/>
<stop offset="0.374" stop-color="#7B95BF"/>
<stop offset="0.7" stop-color="white"/>
</linearGradient>
<linearGradient id="paint65_linear_1358_79950" x1="51.3873" y1="1.21092" x2="54.2964" y2="1.21092" gradientUnits="userSpaceOnUse">
<stop offset="0.005" stop-color="#A1B4D2"/>
<stop offset="0.3" stop-color="white"/>
<stop offset="1" stop-color="#7B95BF"/>
</linearGradient>
<linearGradient id="paint66_linear_1358_79950" x1="51.3727" y1="3.57253" x2="53.3771" y2="3.57253" gradientUnits="userSpaceOnUse">
<stop offset="0.297" stop-color="#E5EAF2"/>
<stop offset="0.626" stop-color="#7B95BF"/>
<stop offset="1" stop-color="#3C4057"/>
</linearGradient>
<linearGradient id="paint67_linear_1358_79950" x1="6.97296" y1="8.38251" x2="10.7013" y2="8.78499" gradientUnits="userSpaceOnUse">
<stop offset="0.023" stop-color="#434860"/>
<stop offset="0.068" stop-color="#3C4057"/>
<stop offset="0.474" stop-color="#7B95BF"/>
<stop offset="1" stop-color="#C2CEE2"/>
</linearGradient>
</defs>
</svg>
