<svg width="15" height="16" viewBox="0 0 15 16" fill="none" xmlns="http://www.w3.org/2000/svg">
<circle cx="7.5" cy="8" r="7.5" fill="#FF404A"/>
<path d="M9.80201 5.03161C10.7651 6.47873 10.4764 8.40695 9.22414 9.52183L9.66779 10.1885L10.4483 9.66909C10.6596 9.52842 10.9575 9.58825 11.0982 9.79963C11.2497 10.0273 11.179 10.3089 10.9677 10.4496L10.1872 10.969L10.7066 11.7494C10.8581 11.9771 10.7874 12.2587 10.576 12.3994C10.3484 12.5508 10.0776 12.4965 9.9261 12.2688L9.40671 11.4883L8.62624 12.0077C8.3986 12.1592 8.12779 12.1048 7.9763 11.8772C7.83563 11.6658 7.8792 11.3788 8.10684 11.2273L8.88731 10.7079L8.44367 10.0412C6.91547 10.7767 5.05241 10.3039 4.07855 8.8405C3.02894 7.26329 3.44237 5.13475 5.03583 4.07432C6.61304 3.02471 8.7524 3.45441 9.80201 5.03161ZM4.85902 8.3211C5.62729 9.47555 7.17088 9.78558 8.32533 9.01731C9.46352 8.25986 9.78981 6.70545 9.02154 5.551C8.26409 4.41282 6.69342 4.09735 5.55523 4.85479C4.40078 5.62306 4.10157 7.18291 4.85902 8.3211Z" fill="white"/>
</svg>
