<svg width="37" height="37" viewBox="0 0 37 37" fill="none" xmlns="http://www.w3.org/2000/svg">
<circle cx="18.8" cy="18.175" r="18" fill="#E65443"/>
<path d="M11.4746 19.056V25.481C11.4752 26.0723 11.9557 26.5515 12.5486 26.552H17.9175V19.052L11.4746 19.056Z" fill="white"/>
<path fill-rule="evenodd" clip-rule="evenodd" d="M26.5084 14.772H23.1109C23.3259 14.6311 23.5273 14.4708 23.7126 14.293C24.5797 13.4206 24.5797 12.0143 23.7126 11.142C22.8336 10.2971 21.4419 10.2971 20.5629 11.142C20.0966 11.608 18.8581 13.504 19.0326 14.771H18.9534C19.1249 13.501 17.8874 11.609 17.4201 11.143C16.5407 10.2991 15.1498 10.2991 14.2704 11.143C13.4049 12.016 13.4049 13.4209 14.2704 14.294C14.456 14.4715 14.6574 14.6318 14.8721 14.773H11.4746C10.8823 14.7741 10.4023 15.2523 10.4006 15.843V17.449C10.4012 17.7442 10.6411 17.9834 10.9371 17.984H17.9215V15.843H20.0655V17.985H27.0469C27.3429 17.9844 27.5828 17.7452 27.5834 17.45V15.843C27.5828 15.2513 27.1017 14.772 26.5084 14.772ZM17.8544 14.737C17.7924 14.768 17.7226 14.7802 17.6538 14.772C16.6817 14.6125 15.7737 14.1851 15.0325 13.538C14.5823 13.0831 14.5823 12.3519 15.0325 11.897C15.2474 11.6804 15.5403 11.5586 15.8458 11.5586C16.1513 11.5586 16.4441 11.6804 16.659 11.897C17.3851 12.624 18.1051 14.479 17.8544 14.737ZM20.1257 14.737C20.1257 14.738 20.1738 14.772 20.3262 14.772H20.3282C21.2988 14.6122 22.2053 14.1851 22.9455 13.539C23.2513 13.2518 23.377 12.8219 23.2739 12.4158C23.1708 12.0096 22.8551 11.6911 22.4491 11.5836C22.0431 11.4761 21.6105 11.5964 21.319 11.898C20.595 12.624 19.875 14.479 20.1257 14.737Z" fill="white"/>
<path d="M20.0654 19.0559V26.5559H25.4343C26.0275 26.5559 26.5083 26.0764 26.5083 25.4849V19.0599L20.0654 19.0559Z" fill="white"/>
</svg>
