<svg width="15" height="14" viewBox="0 0 15 14" fill="none" xmlns="http://www.w3.org/2000/svg">
<path d="M7.51352 5.63073e-07C5.66254 -0.00074147 3.88637 0.731947 2.57248 2.03824C1.25858 3.34452 0.513585 5.1184 0.5 6.97291C0.511437 8.83308 1.25403 10.6138 2.56685 11.9292C3.87967 13.2445 5.65695 13.9885 7.51352 14C9.36645 14 11.1435 13.2625 12.4537 11.9497C13.7639 10.637 14.5 8.85652 14.5 7C14.5 5.14349 13.7639 3.36301 12.4537 2.05025C11.1435 0.737499 9.36645 5.63073e-07 7.51352 5.63073e-07Z" fill="#F8DC4A"/>
<path d="M4.14786 1.93919C5.15106 1.27469 6.32913 0.923347 7.53242 0.929774C9.12831 0.947313 10.6539 1.58907 11.7824 2.7176C12.911 3.84615 13.5527 5.37176 13.5702 6.96768C13.5766 8.17094 13.2253 9.34897 12.5608 10.3521C11.8963 11.3554 10.9486 12.1385 9.83805 12.602C8.72752 13.0655 7.50429 13.1884 6.32373 12.9553C5.14317 12.7221 4.05855 12.1433 3.20764 11.2924C2.35673 10.4414 1.77793 9.35683 1.54475 8.17627C1.31156 6.99571 1.43453 5.77248 1.89802 4.66195C2.36151 3.55142 3.14461 2.60371 4.14786 1.93919Z" fill="#DEA004" stroke="#C99204" stroke-width="0.109375"/>
<g filter="url(#filter0_d_356_125298)">
<path d="M8.33048 6.56183H7.92145V4.92083H8.33048C8.38433 4.92037 8.43771 4.93065 8.48755 4.95108C8.53738 4.97151 8.58265 5.00168 8.62073 5.03982C8.6588 5.07797 8.68891 5.12334 8.7093 5.17327C8.72969 5.2232 8.73996 5.2767 8.7395 5.33065C8.7395 5.43945 8.78264 5.5438 8.85942 5.62073C8.93621 5.69767 9.04036 5.74089 9.14895 5.74089C9.25755 5.74089 9.36169 5.69767 9.43848 5.62073C9.51527 5.5438 9.55841 5.43945 9.55841 5.33065C9.55864 5.16901 9.52703 5.00893 9.4654 4.85955C9.40377 4.71018 9.31334 4.57446 9.19927 4.46017C9.0852 4.34588 8.94974 4.25527 8.80066 4.19352C8.65157 4.13177 8.4918 4.10011 8.33048 4.10034H7.92145V3.69053C7.92145 3.58172 7.87832 3.47737 7.80153 3.40044C7.72474 3.3235 7.62059 3.28027 7.512 3.28027C7.4034 3.28027 7.29926 3.3235 7.22247 3.40044C7.14568 3.47737 7.10255 3.58172 7.10255 3.69053V4.10034H6.63858C6.47719 4.10011 6.31734 4.1318 6.1682 4.1936C6.01906 4.25541 5.88356 4.3461 5.76948 4.46048C5.6554 4.57486 5.56498 4.71069 5.5034 4.86016C5.44182 5.00963 5.4103 5.16981 5.41065 5.33152V6.15202C5.41042 6.31365 5.44202 6.47373 5.50365 6.6231C5.56528 6.77248 5.65572 6.9082 5.76979 7.02249C5.88386 7.13678 6.01931 7.22739 6.1684 7.28914C6.31748 7.35089 6.47727 7.38255 6.63858 7.38232H7.10255V9.0775H6.63858C6.58474 9.07796 6.53134 9.06768 6.4815 9.04725C6.43167 9.02682 6.3864 8.99665 6.34832 8.95851C6.31025 8.92036 6.28014 8.87499 6.25975 8.82506C6.23936 8.77513 6.22909 8.72163 6.22956 8.66768C6.22956 8.55888 6.18642 8.45453 6.10963 8.37759C6.03284 8.30066 5.9287 8.25744 5.8201 8.25744C5.71151 8.25744 5.60736 8.30066 5.53057 8.37759C5.45379 8.45453 5.41065 8.55888 5.41065 8.66768C5.41042 8.82931 5.44202 8.9894 5.50365 9.13878C5.56528 9.28815 5.65572 9.42386 5.76979 9.53816C5.88386 9.65245 6.01931 9.74306 6.1684 9.80481C6.31748 9.86656 6.47727 9.89822 6.63858 9.89799H7.10255V10.3078C7.10255 10.4166 7.14568 10.521 7.22247 10.5979C7.29926 10.6748 7.4034 10.7181 7.512 10.7181C7.62059 10.7181 7.72474 10.6748 7.80153 10.5979C7.87832 10.521 7.92145 10.4166 7.92145 10.3078V9.89799H8.33048C8.4918 9.89822 8.65157 9.86656 8.80066 9.80481C8.94974 9.74306 9.0852 9.65245 9.19927 9.53816C9.31334 9.42386 9.40377 9.28815 9.4654 9.13878C9.52703 8.9894 9.55864 8.82931 9.55841 8.66768V7.79388C9.55887 7.63211 9.52743 7.47183 9.46591 7.32226C9.40438 7.17269 9.31398 7.03675 9.19989 6.92228C9.0858 6.8078 8.95025 6.71703 8.80106 6.65518C8.65186 6.59332 8.49195 6.56159 8.33048 6.56183ZM7.10255 6.56183H6.63858C6.58474 6.56229 6.53134 6.55201 6.4815 6.53158C6.43167 6.51115 6.3864 6.48098 6.34832 6.44283C6.31025 6.40469 6.28014 6.35933 6.25975 6.3094C6.23936 6.25946 6.22909 6.20597 6.22956 6.15202V5.33152C6.22909 5.27757 6.23936 5.22407 6.25975 5.17414C6.28014 5.12421 6.31025 5.07884 6.34832 5.0407C6.3864 5.00255 6.43167 4.97238 6.4815 4.95195C6.53134 4.93152 6.58474 4.92124 6.63858 4.92171H7.10255V6.56183ZM8.74036 8.66768C8.74083 8.72163 8.73057 8.77513 8.71018 8.82506C8.68979 8.87499 8.65968 8.92036 8.62161 8.95851C8.58353 8.99665 8.53826 9.02682 8.48843 9.04725C8.43859 9.06768 8.38519 9.07796 8.33135 9.0775H7.92233V7.38232H8.33135C8.38519 7.38186 8.43859 7.39214 8.48843 7.41257C8.53826 7.433 8.58353 7.46317 8.62161 7.50132C8.65968 7.53946 8.68979 7.58483 8.71018 7.63476C8.73057 7.68469 8.74083 7.73819 8.74036 7.79214V8.66768Z" fill="#F8DC4A"/>
</g>
<defs>
<filter id="filter0_d_356_125298" x="5.30127" y="3.28027" width="4.25708" height="7.54687" filterUnits="userSpaceOnUse" color-interpolation-filters="sRGB">
<feFlood flood-opacity="0" result="BackgroundImageFix"/>
<feColorMatrix in="SourceAlpha" type="matrix" values="0 0 0 0 0 0 0 0 0 0 0 0 0 0 0 0 0 0 127 0" result="hardAlpha"/>
<feOffset dx="-0.109375" dy="0.109375"/>
<feComposite in2="hardAlpha" operator="out"/>
<feColorMatrix type="matrix" values="0 0 0 0 0.788235 0 0 0 0 0.572549 0 0 0 0 0.0196078 0 0 0 1 0"/>
<feBlend mode="normal" in2="BackgroundImageFix" result="effect1_dropShadow_356_125298"/>
<feBlend mode="normal" in="SourceGraphic" in2="effect1_dropShadow_356_125298" result="shape"/>
</filter>
</defs>
</svg>
