<svg width="18" height="19" viewBox="0 0 18 19" fill="none" xmlns="http://www.w3.org/2000/svg">
<circle cx="8.963" cy="9.47643" r="8.963" fill="#F6B545"/>
<path d="M5.48602 9.58545H7.83602V13.3384H5.82402L5.48602 9.58545Z" fill="white"/>
<path d="M12.38 9.59253L12.042 13.3415H10.03V9.59253H12.38Z" fill="white"/>
<path d="M8.29901 13.3294V7.62939H9.61101V13.3294H8.29901Z" fill="white"/>
<path d="M5.24701 9.05252V7.63452H7.83701V9.05252H5.24701Z" fill="white"/>
<path d="M10.033 7.62744H12.617V9.05044H10.033V7.62744Z" fill="white"/>
<path d="M8.44101 7.2965L8.01801 5.2085L10.018 5.3495L9.52701 6.3495C9.39801 6.6115 9.26301 6.8715 9.14301 7.1375C9.11296 7.24448 9.00786 7.31226 8.89801 7.2955C8.75201 7.2875 8.60301 7.2965 8.44101 7.2965Z" fill="white"/>
<path d="M9.323 7.29062L10.252 6.13062L10.863 6.67162L9.346 7.32262L9.323 7.29062Z" fill="white"/>
<path d="M7.14801 6.83948L7.83001 6.11548L8.24201 7.45548L7.14801 6.83948Z" fill="white"/>
</svg>
