<svg width="37" height="37" viewBox="0 0 37 37" fill="none" xmlns="http://www.w3.org/2000/svg">
<circle cx="18.201" cy="18.175" r="18" fill="#E65443"/>
<path d="M10.8756 19.056V25.481C10.8762 26.0723 11.3567 26.5515 11.9496 26.552H17.3185V19.052L10.8756 19.056Z" fill="white"/>
<path fill-rule="evenodd" clip-rule="evenodd" d="M25.9094 14.772H22.5119C22.7269 14.6311 22.9283 14.4708 23.1136 14.293C23.9807 13.4206 23.9807 12.0143 23.1136 11.142C22.2346 10.2971 20.8429 10.2971 19.9639 11.142C19.4976 11.608 18.2591 13.504 18.4336 14.771H18.3544C18.5259 13.501 17.2884 11.609 16.8211 11.143C15.9417 10.2991 14.5508 10.2991 13.6714 11.143C12.8059 12.016 12.8059 13.4209 13.6714 14.294C13.857 14.4715 14.0584 14.6318 14.2731 14.773H10.8756C10.2833 14.7741 9.80329 15.2523 9.80164 15.843V17.449C9.80219 17.7442 10.0421 17.9834 10.3381 17.984H17.3225V15.843H19.4665V17.985H26.4479C26.7439 17.9844 26.9838 17.7452 26.9844 17.45V15.843C26.9838 15.2513 26.5027 14.772 25.9094 14.772ZM17.2554 14.737C17.1934 14.768 17.1236 14.7802 17.0548 14.772C16.0827 14.6125 15.1747 14.1851 14.4335 13.538C13.9833 13.0831 13.9833 12.3519 14.4335 11.897C14.6484 11.6804 14.9413 11.5586 15.2468 11.5586C15.5523 11.5586 15.8451 11.6804 16.06 11.897C16.7861 12.624 17.5061 14.479 17.2554 14.737ZM19.5267 14.737C19.5267 14.738 19.5748 14.772 19.7272 14.772H19.7292C20.6998 14.6122 21.6063 14.1851 22.3465 13.539C22.6523 13.2518 22.778 12.8219 22.6749 12.4158C22.5718 12.0096 22.2561 11.6911 21.8501 11.5836C21.4441 11.4761 21.0115 11.5964 20.72 11.898C19.996 12.624 19.276 14.479 19.5267 14.737Z" fill="white"/>
<path d="M19.4665 19.0559V26.5559H24.8354C25.4285 26.5559 25.9094 26.0764 25.9094 25.4849V19.0599L19.4665 19.0559Z" fill="white"/>
</svg>
