<svg width="18" height="17" viewBox="0 0 18 17" fill="none" xmlns="http://www.w3.org/2000/svg">
<path d="M1.87549 9.056V15.481C1.87604 16.0723 2.35656 16.5515 2.94947 16.552H8.31839V9.052L1.87549 9.056Z" fill="white"/>
<path fill-rule="evenodd" clip-rule="evenodd" d="M16.9093 4.77198H13.5118C13.7268 4.63114 13.9282 4.47079 14.1135 4.29298C14.9806 3.42061 14.9806 2.01434 14.1135 1.14198C13.2345 0.297076 11.8427 0.297076 10.9637 1.14198C10.4974 1.60798 9.25901 3.50398 9.43349 4.77098H9.35427C9.52575 3.50098 8.28831 1.60898 7.82101 1.14298C6.9416 0.299111 5.55067 0.299111 4.67126 1.14298C3.80579 2.01601 3.80579 3.42094 4.67126 4.29398C4.85687 4.47147 5.05826 4.63179 5.27293 4.77298H1.8755C1.2832 4.77407 0.803169 5.25233 0.801514 5.84298V7.44898C0.802066 7.74422 1.04194 7.98343 1.338 7.98398H8.3224V5.84298H10.4664V7.98498H17.4478C17.7438 7.98443 17.9837 7.74522 17.9842 7.44998V5.84298C17.9837 5.25132 17.5026 4.77198 16.9093 4.77198ZM8.25524 4.737C8.19326 4.768 8.12352 4.78017 8.05468 4.772C7.0826 4.61255 6.17463 4.18511 5.4334 3.538C4.98317 3.08313 4.98317 2.35187 5.4334 1.897C5.6483 1.68044 5.94114 1.55859 6.24666 1.55859C6.55218 1.55859 6.84501 1.68044 7.05991 1.897C7.78593 2.624 8.50593 4.479 8.25524 4.737ZM10.5265 4.73702C10.5265 4.73802 10.5747 4.77202 10.7271 4.77202H10.7291C11.6997 4.61219 12.6062 4.18514 13.3464 3.53902C13.6522 3.2518 13.7779 2.82187 13.6748 2.41576C13.5717 2.00964 13.256 1.69114 12.85 1.58361C12.444 1.47609 12.0114 1.59642 11.7198 1.89802C10.9958 2.62402 10.2758 4.47902 10.5265 4.73702Z" fill="white"/>
<path d="M10.4663 9.05591V16.5559H15.8352C16.4284 16.5559 16.9092 16.0764 16.9092 15.4849V9.05991L10.4663 9.05591Z" fill="white"/>
</svg>
