<svg width="14" height="14" viewBox="0 0 14 14" fill="none" xmlns="http://www.w3.org/2000/svg">
<path d="M7.35001 13.9999C11.0227 13.9999 14 11.0226 14 7.34987C14 3.67718 11.0227 0.699875 7.35001 0.699875C3.67732 0.699875 0.700012 3.67718 0.700012 7.34987C0.700012 11.0226 3.67732 13.9999 7.35001 13.9999Z" fill="#FFC850"/>
<path d="M6.65002 13.2999C9.54952 13.2999 11.9 10.9494 11.9 8.04988C11.9 5.15039 9.54952 2.79988 6.65002 2.79988C3.75053 2.79988 1.40002 5.15039 1.40002 8.04988C1.40002 10.9494 3.75053 13.2999 6.65002 13.2999Z" fill="#DD992B"/>
<path d="M7.34998 12.5999C10.2495 12.5999 12.6 10.2494 12.6 7.34988C12.6 4.45039 10.2495 2.09988 7.34998 2.09988C4.45048 2.09988 2.09998 4.45039 2.09998 7.34988C2.09998 10.2494 4.45048 12.5999 7.34998 12.5999Z" fill="#FFDC64"/>
<path d="M10.4481 10.8224C10.4009 10.7604 10.3273 10.7243 10.2487 10.7217C7.30427 10.6253 4.94711 8.24705 4.94711 5.3259C4.94711 4.54473 5.11757 3.80374 5.42196 3.13421C5.5183 2.92226 5.27765 2.71148 5.07992 2.83816C3.5676 3.8071 2.61911 5.55585 2.82896 7.50679C3.06571 9.70769 4.81863 11.5118 7.0422 11.8426C8.26953 12.0252 9.41995 11.7605 10.3701 11.199C10.5041 11.1198 10.5419 10.9455 10.4481 10.8224V10.8224Z" fill="#FFC850"/>
<path d="M11.0419 6.69181C11.1854 6.54598 11.2359 6.3321 11.1741 6.13338C11.1122 5.93466 10.9509 5.79272 10.7529 5.76278L9.02123 5.50028C8.9874 5.49523 8.95785 5.47306 8.94268 5.44078L8.16842 3.80359C8.07937 3.61615 7.90009 3.49988 7.69982 3.49988C7.49954 3.49988 7.32027 3.61615 7.23199 3.80359L6.45734 5.44078C6.44218 5.47306 6.41262 5.49523 6.37879 5.50028L4.6471 5.76316C4.44916 5.79311 4.28778 5.93505 4.22595 6.13377C4.16411 6.33249 4.21467 6.54637 4.35817 6.6922L5.61114 7.96656C5.63564 7.99145 5.64692 8.02762 5.64108 8.063L5.34514 9.86274C5.31131 10.0685 5.39103 10.2726 5.55281 10.3955C5.71458 10.5184 5.92535 10.5343 6.1023 10.4371L7.65121 9.58742C7.68154 9.5707 7.7181 9.5707 7.74843 9.58742L9.29734 10.4371C9.37434 10.4787 9.45756 10.4997 9.54078 10.4997C9.6485 10.4997 9.75544 10.4643 9.84722 10.3951C10.009 10.2722 10.0887 10.0681 10.0549 9.86236L9.75894 8.06262C9.75311 8.02723 9.76439 7.99106 9.78889 7.96617L11.0419 6.69181Z" fill="#EE9400"/>
<path fill-rule="evenodd" clip-rule="evenodd" d="M3.77143 3.74988L2.8 6.29988L1.82857 3.74988L0 3.14988L1.82857 2.54988L2.8 -0.00012207L3.77143 2.54988L5.6 3.14988L3.77143 3.74988V3.74988V3.74988Z" fill="white"/>
</svg>
