<svg width="24" height="25" viewBox="0 0 24 25" fill="none" xmlns="http://www.w3.org/2000/svg">
<g clip-path="url(#clip0_2045_79682)">
<path d="M7.40843 7.9277L2.45397 8.92174C1.32782 9.14768 0.906566 10.5365 1.71745 11.35L5.81532 15.4609C6.01878 15.665 6.10707 15.9571 6.05072 16.2397L5.11994 20.9084C4.88559 22.0839 6.10619 23.0143 7.17759 22.4769L12.1135 20.0012C12.3572 19.8789 12.6444 19.8789 12.8882 20.0012L17.824 22.4769C18.8955 23.0143 20.1161 22.0839 19.8817 20.9084L18.9509 16.2397C18.8946 15.9571 18.9829 15.665 19.1863 15.4609L23.2842 11.35C24.0951 10.5365 23.6738 9.14768 22.5477 8.92174L17.5932 7.9277C17.3543 7.87977 17.1468 7.7332 17.0217 7.5241L13.7365 2.0314C13.1777 1.09701 11.824 1.09701 11.2651 2.0314L9.98588 4.17022L7.97991 7.5241C7.85485 7.7332 7.64731 7.87977 7.40843 7.9277Z" fill="#F7B307" stroke="#5B3303" stroke-width="0.575949" stroke-linecap="round" stroke-linejoin="round"/>
<path d="M11.3491 12.332L8.75732 16.3637" stroke="#FFC530" stroke-width="0.575949" stroke-linecap="round" stroke-linejoin="round"/>
<path d="M23.0794 11.1467L19.5884 14.6488C19.2284 15.01 18.6739 15.0914 18.2252 14.8492L12.5 11.7573L17.0868 8.01367C17.2192 8.10956 17.372 8.1772 17.5358 8.21007L22.4902 9.20411C23.3911 9.38486 23.7281 10.496 23.0794 11.1467Z" fill="#FFC01D"/>
<path d="M14.8044 10.8943L19.412 10.3184" stroke="#FFD363" stroke-width="0.575949" stroke-linecap="round" stroke-linejoin="round"/>
<path d="M11.9863 19.7447L7.0504 22.2204C6.63257 22.43 6.18637 22.3605 5.86047 22.1253L12.5027 11.7582L23.419 10.3184C23.4245 10.611 23.319 10.91 23.0822 11.1476L18.9843 15.2585C18.713 15.5306 18.5953 15.9201 18.6704 16.2969L19.6012 20.9656C19.7887 21.906 18.8122 22.6504 17.9551 22.2204L13.0192 19.7447C12.6942 19.5816 12.3113 19.5816 11.9863 19.7447Z" fill="#CF9500"/>
<path d="M18.6677 16.2975L19.5985 20.9662C19.6946 21.4481 19.4849 21.8786 19.1423 22.1259L12.5 11.7588L18.9816 15.2591C18.7103 15.5312 18.5926 15.9207 18.6677 16.2975Z" fill="#B97D08"/>
<path d="M2.50789 9.20366L7.46235 8.20962C7.78086 8.14572 8.05758 7.95029 8.22433 7.6715L11.5095 2.1788C11.7331 1.80505 12.1156 1.61817 12.4981 1.61816V11.7569L1.62341 10.029C1.73171 9.63421 2.04554 9.29643 2.50789 9.20366Z" fill="#FFD056"/>
<path d="M3.86255 9.74267L11.7819 10.7506L11.9258 3.40723" stroke="#FFE39A" stroke-width="0.575949" stroke-linecap="round" stroke-linejoin="round"/>
<path d="M11.7814 10.748L9.90955 10.5098" stroke="#FFFBF0" stroke-width="0.575949" stroke-linecap="round" stroke-linejoin="round"/>
<circle cx="12.3549" cy="13.9193" r="0.431962" fill="#BA8600"/>
<ellipse cx="13.5053" cy="15.0717" rx="0.143987" ry="0.143987" fill="#BA8600"/>
<ellipse cx="11.491" cy="16.2241" rx="0.143987" ry="0.143987" fill="#BA8600"/>
<ellipse cx="13.2193" cy="15.936" rx="0.143987" ry="0.143987" fill="#BA8600"/>
<ellipse cx="15.2337" cy="17.0854" rx="0.143987" ry="0.143987" fill="#BA8600"/>
<ellipse cx="13.2193" cy="13.9194" rx="0.143987" ry="0.143987" fill="#BA8600"/>
<ellipse cx="12.3531" cy="12.767" rx="0.143987" ry="0.143987" fill="#BA8600"/>
<ellipse cx="13.7955" cy="16.7973" rx="0.143987" ry="0.143987" fill="#BA8600"/>
<ellipse cx="12.7872" cy="14.9276" rx="0.287975" ry="0.287975" fill="#BA8600"/>
<ellipse cx="12.4971" cy="16.08" rx="0.287975" ry="0.287975" fill="#BA8600"/>
<ellipse cx="14.2255" cy="16.08" rx="0.287975" ry="0.287975" fill="#BA8600"/>
<ellipse cx="11.635" cy="15.2157" rx="0.287975" ry="0.287975" fill="#BA8600"/>
</g>
<defs>
<clipPath id="clip0_2045_79682">
<rect width="24" height="24" fill="white" transform="translate(0 0.0263672)"/>
</clipPath>
</defs>
</svg>
