<svg width="15" height="16" viewBox="0 0 15 16" fill="none" xmlns="http://www.w3.org/2000/svg">
<path d="M3.51502 9.87501L3.00152 11.792L1.12462 11.8321C-0.0281105 9.68544 -0.0485293 7.10851 1.07004 4.94385L2.74087 5.25017L3.47269 6.91097C3.14335 7.87403 3.15791 8.92147 3.5139 9.87501H3.51502Z" fill="#FBBB00"/>
<path d="M14.8699 6.95758C15.3796 9.6374 14.368 12.3796 12.24 14.0864L10.1359 13.975L9.8385 12.116C10.7084 11.607 11.3769 10.8146 11.7321 9.8715H7.78784V6.95312H14.8733L14.8699 6.95758Z" fill="#518EF8"/>
<path d="M12.2389 14.0864C10.53 15.4577 8.30012 15.9985 6.1529 15.5625C4.00568 15.1266 2.1633 13.7588 1.12457 11.8297L3.51497 9.87256C3.96929 11.0834 4.93482 12.0321 6.15352 12.465C7.37221 12.898 8.71984 12.771 9.83626 12.1181L12.2389 14.0864Z" fill="#28B446"/>
<path d="M12.3291 2.65686L9.93986 4.61396C8.8059 3.90803 7.41208 3.75724 6.15339 4.20435C4.8947 4.65145 3.90831 5.6477 3.47377 6.91078L1.07001 4.94367C2.09648 2.96165 3.96511 1.55094 6.15249 1.10666C8.33987 0.662393 10.6108 1.23234 12.3291 2.65686Z" fill="#F14336"/>
</svg>
