<svg width="16" height="16" viewBox="0 0 16 16" fill="none" xmlns="http://www.w3.org/2000/svg">
<path d="M13.6574 2.34316C16.7816 5.46738 16.7816 10.5327 13.6574 13.657C10.5332 16.7812 5.46781 16.7812 2.34359 13.657C-0.780627 10.5327 -0.780627 5.46738 2.34359 2.34316C5.46781 -0.781055 10.5332 -0.781055 13.6574 2.34316Z" fill="#FFD05D"/>
<path d="M12.1851 1.17188C14.1925 4.31355 13.764 8.42527 11.1519 11.0855C8.53991 13.7458 4.43671 14.2494 1.25885 12.2998C3.03304 15.0731 6.32502 16.4763 9.55433 15.8358C12.7836 15.1952 15.2908 12.6418 15.8722 9.4013C16.4535 6.16081 14.9904 2.89504 12.1851 1.17188Z" fill="#FDC453"/>
<path d="M1.08744 8.84369C1.0875 5.66316 3.11264 2.83567 6.12388 1.81184C9.13511 0.788002 12.464 1.79509 14.4028 4.31642C13.0145 1.92638 10.4138 0.504933 7.65254 0.626893C4.89124 0.748853 2.42606 2.39405 1.25389 4.89718C0.0817208 7.40031 0.396468 10.3473 2.07085 12.5464C1.42339 11.42 1.08419 10.1429 1.08744 8.84369Z" fill="#FFD77F"/>
<path d="M4.72118 9.67865C4.63164 9.59223 4.49395 9.57995 4.39053 9.64915C4.2871 9.71835 4.24593 9.85031 4.29165 9.96605C4.89405 11.4775 6.3501 12.4752 7.97714 12.4912C9.60418 12.5073 11.0796 11.5385 11.7117 10.0392C11.761 9.92366 11.7218 9.78942 11.6181 9.71853C11.5144 9.64763 11.3751 9.65981 11.2853 9.74762C10.1106 10.8847 7.62545 12.4993 4.72118 9.67865Z" fill="#5E4939"/>
<path d="M13.6461 4.96423L10.397 5.23281C10.3586 5.23295 10.3202 5.23504 10.282 5.23908C10.2528 5.23908 9.20664 5.36763 8.04034 5.43556C8.01284 5.43709 7.98527 5.43709 7.95777 5.43556C6.79147 5.36763 5.74535 5.24222 5.71504 5.23908C5.6772 5.23505 5.63918 5.23296 5.60113 5.23281L2.35303 4.96423C1.71449 4.95169 1.36125 5.26626 1.39469 5.82224C1.39469 5.84314 1.62461 7.10768 1.62461 7.10768C1.67054 7.52905 1.81364 7.93402 2.04264 8.29071C2.18824 8.492 2.38189 8.65367 2.60594 8.76099C2.71773 8.81837 2.83596 8.86222 2.95813 8.89163C3.06542 8.91073 3.17417 8.92053 3.28315 8.92089C3.38034 8.92611 3.53815 8.93343 3.63534 8.93343H4.68042C5.02734 8.93314 5.36954 8.85304 5.68055 8.69933C6.13151 8.45953 6.47528 8.05828 6.64307 7.57587C6.8529 7.13124 7.19105 6.75962 7.61394 6.50885C7.84357 6.3579 8.14095 6.3579 8.37058 6.50885C8.58922 6.65064 8.78902 6.81955 8.96523 7.01153C9.09066 7.16342 9.20355 7.32524 9.30279 7.4954C9.42193 7.68038 9.49717 7.89985 9.61631 8.08796C9.73335 8.27551 9.88731 8.43729 10.0688 8.56347C10.3935 8.77936 10.7696 8.90522 11.1588 8.9282C11.2059 8.9282 11.2529 8.9282 11.2999 8.9282H12.345C12.4422 8.9282 12.6 8.92089 12.6972 8.91566C12.8062 8.9153 12.9149 8.90551 13.0222 8.8864C13.1444 8.85701 13.2626 8.81316 13.3744 8.75577C13.5985 8.64848 13.7921 8.4868 13.9377 8.28548C14.1667 7.92878 14.3098 7.52382 14.3557 7.10245C14.3557 7.10245 14.5846 5.83791 14.5857 5.81701C14.6379 5.26626 14.2857 4.95273 13.6461 4.96423Z" fill="#2D292A"/>
<path d="M11.3114 8.9355H12.3565C12.4536 8.9355 12.6115 8.92819 12.7086 8.92296C12.8176 8.92264 12.9264 8.91285 13.0337 8.8937C13.1559 8.86443 13.2741 8.82057 13.3859 8.76306C13.61 8.65582 13.8036 8.49413 13.9492 8.29278C14.1781 7.93608 14.3212 7.53112 14.3672 7.10975C14.3672 7.10975 14.5961 5.84521 14.5971 5.82431C14.6015 5.75172 14.5984 5.67887 14.5877 5.60693C13.6604 7.26181 11.9958 8.37176 10.1116 8.59167C10.4277 8.79222 10.7894 8.90943 11.163 8.93237C11.2173 8.93341 11.2644 8.9355 11.3114 8.9355Z" fill="#414042"/>
<path d="M2.60898 8.76214C2.72076 8.81954 2.839 8.86339 2.96117 8.89277C3.06846 8.91192 3.17721 8.92171 3.28619 8.92203C3.38338 8.92726 3.54119 8.93457 3.63838 8.93457H4.68346C5.03038 8.93428 5.37259 8.85419 5.6836 8.70048C6.13455 8.46067 6.47832 8.05942 6.64611 7.57702C6.74914 7.33771 6.89788 7.12081 7.084 6.93848C5.69761 7.92016 4.06838 8.50251 2.37384 8.62209C2.44873 8.6744 2.52732 8.7212 2.60898 8.76214Z" fill="#414042"/>
</svg>
