<svg width="10" height="9" viewBox="0 0 10 9" fill="none" xmlns="http://www.w3.org/2000/svg">
<path d="M9.63602 2.93496C9.63602 2.92796 9.63602 2.92096 9.63602 2.91396C9.66194 2.24687 9.41813 1.59744 8.95962 1.11221C8.5011 0.626979 7.86651 0.346826 7.19902 0.334961C6.22154 0.340093 5.37116 1.00543 5.13102 1.95296C4.89088 1.00543 4.0405 0.340093 3.06302 0.334961C2.39553 0.346826 1.76093 0.626979 1.30242 1.11221C0.843906 1.59744 0.600103 2.24687 0.626019 2.91396C0.626019 2.92096 0.626019 2.92796 0.626019 2.93496C0.618019 3.22796 0.626019 6.20796 5.12602 8.63496C9.63702 6.20796 9.64402 3.22796 9.63602 2.93496Z" fill="#F94343"/>
</svg>
