<svg width="36" height="37" viewBox="0 0 36 37" fill="none" xmlns="http://www.w3.org/2000/svg">
<circle cx="18" cy="18.0591" r="18" fill="url(#paint0_linear_111_4171)"/>
<path d="M18.0161 25.3771C16.7808 23.7046 15.1756 22.3386 13.325 21.3851C12.54 20.9552 11.817 20.421 11.1761 19.7971C9.5665 18.1746 9.40878 15.6149 10.8071 13.8081C11.5972 12.7762 12.8378 12.1876 14.1392 12.2272C15.4405 12.2669 16.6428 12.93 17.3683 14.0081C17.5899 14.3131 17.7694 14.6471 17.9499 14.9321C18.4527 14.3444 18.9912 13.788 19.5624 13.2661C20.6673 12.2532 22.2625 11.9748 23.6467 12.5531C25.0561 13.2544 26.0029 14.6312 26.151 16.195C26.2991 17.7588 25.6276 19.2881 24.3747 20.2401C23.8452 20.6517 23.2902 21.0298 22.7131 21.3721C20.8302 22.2853 19.2132 23.6641 18.0161 25.3771Z" fill="white"/>
<defs>
<linearGradient id="paint0_linear_111_4171" x1="-8.68627" y1="16.7374" x2="20.9984" y2="46.9414" gradientUnits="userSpaceOnUse">
<stop stop-color="#FFA7BD"/>
<stop offset="1" stop-color="#DD486E"/>
</linearGradient>
</defs>
</svg>
