<svg width="22" height="19" viewBox="0 0 22 19" fill="none" xmlns="http://www.w3.org/2000/svg">
<path d="M11 6.56614L10.5018 6.60762C10.5233 6.86679 10.74 7.06614 11 7.06614C11.2601 7.06614 11.4767 6.86679 11.4983 6.60762L11 6.56614ZM10.9992 17.6007H11.4992C11.4992 17.3763 11.3497 17.1794 11.1336 17.1191L10.9992 17.6007ZM10.9992 17.6012H10.4992C10.4992 17.7578 10.5726 17.9053 10.6974 17.9998C10.8222 18.0943 10.9841 18.1249 11.1348 18.0825L10.9992 17.6012ZM11 17.601L11.1356 17.1197C11.047 17.0947 10.9531 17.0947 10.8645 17.1197L11 17.601ZM11.0009 17.6012L10.8653 18.0825C11.016 18.1249 11.1779 18.0943 11.3027 17.9998C11.4275 17.9053 11.5009 17.7578 11.5009 17.6012H11.0009ZM11.0009 17.6007L10.8665 17.1191C10.6504 17.1794 10.5009 17.3763 10.5009 17.6007H11.0009ZM6.00044 1.5C7.61242 1.5 8.68193 2.30968 9.38814 3.36325C10.1064 4.43481 10.4295 5.73896 10.5018 6.60762L11.4983 6.52467C11.4156 5.53143 11.054 4.05251 10.2188 2.80647C9.37152 1.54244 8.01873 0.5 6.00044 0.5V1.5ZM1.50003 6.57597C1.50003 5.3876 1.82154 4.10564 2.53869 3.13457C3.24114 2.18343 4.34279 1.5 6.00044 1.5V0.5C4.02144 0.5 2.62288 1.33729 1.73428 2.5405C0.860399 3.72379 0.500031 5.22982 0.500031 6.57597H1.50003ZM11.1336 17.1191C8.95938 16.5126 6.53433 15.0132 4.65435 13.0708C2.76869 11.1224 1.50003 8.80156 1.50003 6.57597H0.500031C0.500031 9.16543 1.95822 11.7229 3.93578 13.7662C5.91903 15.8154 8.49359 17.4209 10.8649 18.0824L11.1336 17.1191ZM10.4992 17.6007V17.6012H11.4992V17.6007H10.4992ZM11.1348 18.0825L11.1356 18.0822L10.8645 17.1197L10.8637 17.1199L11.1348 18.0825ZM11.1364 17.1199L11.1356 17.1197L10.8645 18.0822L10.8653 18.0825L11.1364 17.1199ZM10.5009 17.6007V17.6012H11.5009V17.6007H10.5009ZM11.1352 18.0824C13.5065 17.4209 16.0811 15.8154 18.0643 13.7662C20.0419 11.7229 21.5001 9.16543 21.5001 6.57597H20.5001C20.5001 8.80156 19.2314 11.1224 17.3457 13.0708C15.4658 15.0132 13.0407 16.5126 10.8665 17.1191L11.1352 18.0824ZM21.5001 6.57597C21.5001 5.22982 21.1397 3.72379 20.2658 2.5405C19.3772 1.33729 17.9787 0.5 15.9996 0.5V1.5C17.6573 1.5 18.759 2.18343 19.4614 3.13457C20.1786 4.10564 20.5001 5.3876 20.5001 6.57597H21.5001ZM15.9996 0.5C13.9814 0.5 12.6286 1.54244 11.7813 2.80647C10.9461 4.05251 10.5844 5.53143 10.5018 6.52467L11.4983 6.60762C11.5706 5.73896 11.8937 4.43481 12.6119 3.36325C13.3182 2.30968 14.3877 1.5 15.9996 1.5V0.5Z" fill="#126881"/>
</svg>
