<svg width="25" height="25" viewBox="0 0 25 25" fill="none" xmlns="http://www.w3.org/2000/svg">
<path fill-rule="evenodd" clip-rule="evenodd" d="M12.931 0.322266C6.30095 0.322818 0.926634 5.69788 0.927002 12.3279C0.92737 18.958 6.30229 24.3325 12.9323 24.3323C19.5624 24.3321 24.937 18.9573 24.937 12.3273C24.9293 5.6999 19.5584 0.329429 12.931 0.322266ZM13.854 19.2543C13.854 19.7643 13.4405 20.1778 12.9305 20.1778C12.4205 20.1778 12.007 19.7643 12.007 19.2543V18.3313C12.007 17.8212 12.4205 17.4078 12.9305 17.4078C13.4405 17.4078 13.854 17.8212 13.854 18.3313V19.2543ZM13.854 14.2483C13.8354 13.2195 14.3337 12.25 15.181 11.6663H15.182C16.3891 10.893 17.1096 9.54964 17.086 8.11627C17.0419 5.87043 15.2318 4.0604 12.986 4.01627H12.926C10.6342 4.02123 8.779 5.88048 8.779 8.17227C8.779 8.6823 9.19247 9.09577 9.7025 9.09577C10.2125 9.09577 10.626 8.6823 10.626 8.17227C10.6231 7.55418 10.8697 6.96106 11.31 6.52727C11.743 6.08251 12.3437 5.84136 12.964 5.86327C14.2035 5.90322 15.199 6.89875 15.239 8.13827C15.2523 8.93568 14.8515 9.68306 14.18 10.1133C12.7981 11.0305 11.9789 12.5889 12.007 14.2473V15.5603C12.007 16.0703 12.4205 16.4838 12.9305 16.4838C13.4405 16.4838 13.854 16.0703 13.854 15.5603V14.2483Z" fill="#FF6B49"/>
</svg>
