<svg width="16" height="16" viewBox="0 0 16 16" fill="none" xmlns="http://www.w3.org/2000/svg">
<path d="M13.7633 1.3545C13.6696 1.24336 13.5527 1.15405 13.4208 1.09281C13.2889 1.03158 13.1452 0.999903 12.9998 1H11.6548C11.5154 0.999912 11.3787 1.0387 11.2601 1.11201C11.1415 1.18532 11.0456 1.29024 10.9833 1.415L10.6908 2H9.99984V1.75C9.99984 1.55109 9.92082 1.36032 9.78017 1.21967C9.63951 1.07902 9.44875 1 9.24984 1H6.74984C6.55092 1 6.36016 1.07902 6.21951 1.21967C6.07885 1.36032 5.99984 1.55109 5.99984 1.75V2H5.30884L5.01634 1.415C4.95396 1.29031 4.85811 1.18545 4.73951 1.11216C4.62091 1.03886 4.48425 1.00003 4.34484 1H2.99984C2.85443 1.00001 2.71077 1.03172 2.57888 1.09294C2.44698 1.15416 2.33002 1.2434 2.23616 1.35445C2.14229 1.46551 2.07377 1.59569 2.03537 1.73594C1.99698 1.87619 1.98963 2.02312 2.01384 2.1665L2.36584 4.25C2.42492 4.59952 2.60587 4.91682 2.8766 5.14564C3.14734 5.37445 3.49036 5.5 3.84484 5.5H3.99984V11.5C3.60213 11.5004 3.22083 11.6586 2.93961 11.9398C2.6584 12.221 2.50023 12.6023 2.49984 13V15H13.4998V13C13.4994 12.6023 13.3413 12.221 13.0601 11.9398C12.7788 11.6586 12.3975 11.5004 11.9998 11.5V5.5H12.1548C12.5093 5.5 12.8523 5.37445 13.1231 5.14564C13.3938 4.91682 13.5748 4.59952 13.6338 4.25L13.9858 2.1665C14.0102 2.02312 14.0029 1.87613 13.9645 1.73586C13.9261 1.59559 13.8574 1.46543 13.7633 1.3545ZM12.4998 13V14H3.49984V13C3.49984 12.8674 3.55252 12.7402 3.64628 12.6464C3.74005 12.5527 3.86723 12.5 3.99984 12.5H11.9998C12.1324 12.5 12.2596 12.5527 12.3534 12.6464C12.4472 12.7402 12.4998 12.8674 12.4998 13ZM10.9998 11.5H4.99984V5.5H10.9998V11.5ZM12.6478 4.0835C12.6283 4.20006 12.568 4.30591 12.4777 4.38218C12.3875 4.45845 12.273 4.50021 12.1548 4.5H3.84484C3.72665 4.50021 3.61222 4.45845 3.52194 4.38218C3.43166 4.30591 3.37138 4.20006 3.35184 4.0835L2.99984 2H4.19084L4.69084 3H6.99984V2H8.99984V3H11.3083L11.8088 2H12.9998L12.6478 4.0835Z" fill="#FF404A"/>
</svg>
