<svg width="20" height="20" viewBox="0 0 20 20" fill="none" xmlns="http://www.w3.org/2000/svg">
<path d="M19.093 9.22979H10.771V0.907788C10.7561 0.49305 10.4155 0.164551 10.0005 0.164551C9.58552 0.164551 9.24498 0.49305 9.23003 0.907788V9.22979H0.908033C0.493294 9.24473 0.164795 9.58528 0.164795 10.0003C0.164795 10.4153 0.493294 10.7558 0.908033 10.7708H9.23003V19.0928C9.24498 19.5075 9.58552 19.836 10.0005 19.836C10.4155 19.836 10.7561 19.5075 10.771 19.0928V10.7708H19.093C19.5078 10.7558 19.8363 10.4153 19.8363 10.0003C19.8363 9.58528 19.5078 9.24473 19.093 9.22979Z" fill="#F1F1F1"/>
</svg>
