<svg width="43" height="43" viewBox="0 0 43 43" fill="none" xmlns="http://www.w3.org/2000/svg">
<circle cx="21.5" cy="21.71" r="20.5" stroke="#1F1F1F"/>
<path d="M20.8083 28.116C21.1824 27.9 21.55 27.6727 21.9341 27.466C22.2139 27.307 22.5348 27.2349 22.8557 27.2589C23.1766 27.283 23.4831 27.4021 23.7361 27.6011C23.999 27.7693 24.2048 28.0131 24.3264 28.3005C24.448 28.5879 24.4797 28.9054 24.4174 29.2111C24.311 29.5795 24.3255 29.9723 24.4589 30.3317C24.5922 30.6912 24.8373 30.9985 25.1582 31.2083C25.4934 31.4154 25.8862 31.5095 26.2788 31.4765C26.6714 31.4436 27.043 31.2855 27.339 31.0254C29.4742 29.6631 31.0395 27.569 31.7415 25.1355C32.4435 22.7019 32.2342 20.0958 31.1526 17.8055C30.0711 15.5153 28.1916 13.6979 25.8663 12.6939C23.5409 11.69 20.9293 11.5683 18.5207 12.3518C16.4046 13.0076 14.5467 14.3092 13.2075 16.074C11.8683 17.8389 11.1149 19.9786 11.0529 22.1932C10.9828 23.3148 11.1797 24.437 11.6275 25.4678C12.0753 26.4985 12.7611 27.4084 13.6287 28.1226C14.5209 28.8102 15.5945 29.222 16.7176 29.3074C17.8406 29.3928 18.9642 29.1481 19.95 28.6034C20.2349 28.4389 20.5199 28.2744 20.8048 28.1099L20.8083 28.116ZM13.875 24.8131C13.7014 24.5169 13.6199 24.1757 13.6408 23.833C13.6616 23.4903 13.7839 23.1616 13.9921 22.8885C14.2003 22.6155 14.4849 22.4106 14.8099 22.2998C15.1349 22.189 15.4854 22.1773 15.8171 22.2663C16.1487 22.3552 16.4463 22.5408 16.6722 22.7994C16.8981 23.0579 17.042 23.3778 17.0856 23.7184C17.1291 24.059 17.0705 24.4048 16.917 24.7119C16.7635 25.019 16.5222 25.2736 16.2237 25.4432C16.0282 25.5568 15.8122 25.6306 15.588 25.6604C15.3639 25.6902 15.1361 25.6753 14.9178 25.6167C14.6994 25.558 14.4948 25.4568 14.3157 25.3187C14.1367 25.1807 13.9867 25.0085 13.8745 24.8123L13.875 24.8131ZM20.2127 13.7744C20.6105 13.5597 21.0765 13.5091 21.5111 13.6335C21.9457 13.7578 22.3144 14.0473 22.5384 14.44C22.7624 14.8326 22.8239 15.2973 22.7098 15.7347C22.5956 16.1721 22.3149 16.5475 21.9276 16.7807C21.7314 16.9019 21.5125 16.9818 21.2844 17.0152C21.0562 17.0486 20.8236 17.035 20.6009 16.9751C20.3782 16.9152 20.1701 16.8104 19.9895 16.667C19.8088 16.5237 19.6595 16.3449 19.5506 16.1416C19.4291 15.9451 19.3497 15.7256 19.3174 15.4969C19.285 15.2682 19.3005 15.0353 19.3627 14.8128C19.4249 14.5904 19.5326 14.3833 19.6789 14.2045C19.8252 14.0258 20.0069 13.8793 20.2127 13.7744ZM24.8716 18.4238C24.7544 18.2246 24.6779 18.0041 24.6464 17.775C24.6149 17.546 24.6291 17.3131 24.6882 17.0896C24.7472 16.8661 24.85 16.6565 24.9905 16.473C25.131 16.2894 25.3065 16.1355 25.5069 16.0202C25.8075 15.845 26.1534 15.7629 26.5007 15.7843C26.848 15.8058 27.1812 15.9297 27.4581 16.1405C27.7349 16.3513 27.943 16.6395 28.056 16.9687C28.1691 17.2978 28.1819 17.653 28.093 17.9894C28.0041 18.3259 27.8174 18.6284 27.5565 18.8587C27.2957 19.089 26.9723 19.2367 26.6275 19.2832C26.2826 19.3297 25.9317 19.2729 25.6192 19.1199C25.3066 18.9669 25.0464 18.7247 24.8716 18.4238ZM14.5461 19.0575C14.4248 18.8612 14.3449 18.6423 14.3114 18.414C14.2779 18.1858 14.2914 17.9531 14.3512 17.7302C14.411 17.5074 14.5157 17.2992 14.659 17.1184C14.8022 16.9375 14.9809 16.7879 15.1842 16.6787C15.375 16.5583 15.5884 16.478 15.8113 16.4427C16.0342 16.4074 16.2619 16.4179 16.4806 16.4734C16.6994 16.5289 16.9045 16.6284 17.0836 16.7657C17.2626 16.9031 17.4118 17.0754 17.5222 17.2723C17.6483 17.4653 17.7335 17.6822 17.7725 17.9094C17.8114 18.1367 17.8033 18.3696 17.7486 18.5936C17.694 18.8176 17.5939 19.028 17.4546 19.2118C17.3153 19.3956 17.1398 19.5488 16.9389 19.662C16.7438 19.7857 16.5255 19.8683 16.2973 19.9048C16.0692 19.9413 15.836 19.9309 15.612 19.8742C15.388 19.8176 15.1779 19.7158 14.9946 19.5753C14.8112 19.4347 14.6584 19.2582 14.5456 19.0566L14.5461 19.0575Z" fill="#1F1F1F"/>
</svg>
