<svg width="43" height="43" viewBox="0 0 43 43" fill="none" xmlns="http://www.w3.org/2000/svg">
<circle cx="21.5" cy="21.71" r="20.5" stroke="#1F1F1F"/>
<path d="M29.524 16.766V28.91C29.3992 29.316 29.2427 29.7115 29.056 30.093C28.8633 30.3748 28.6141 30.6133 28.3242 30.7934C28.0342 30.9735 27.71 31.0912 27.372 31.139H16.15C15.7727 31.0113 15.4051 30.8566 15.05 30.676C14.7679 30.4819 14.529 30.2316 14.3483 29.9408C14.1676 29.6499 14.049 29.3249 14 28.986V14.152C14.0703 13.8852 14.156 13.6228 14.257 13.366C14.4293 13.0104 14.6839 12.7009 14.9998 12.4634C15.3156 12.2258 15.6835 12.067 16.073 12H24.758C25.5 12.755 26.238 13.516 26.987 14.264C27.828 15.1 28.678 15.932 29.524 16.766ZM21.747 22.766C22.8857 22.766 24.0243 22.766 25.163 22.766C25.67 22.766 25.924 22.566 25.924 22.166C25.924 21.766 25.663 21.548 25.17 21.547C22.8926 21.547 20.615 21.547 18.337 21.547C17.849 21.547 17.589 21.776 17.595 22.178C17.601 22.561 17.854 22.767 18.329 22.768C19.469 22.7647 20.6087 22.7623 21.748 22.761L21.747 22.766ZM21.775 25.147C20.624 25.147 19.475 25.147 18.321 25.147C18.1697 25.142 18.0193 25.1725 17.882 25.236C17.76 25.2983 17.6656 25.4038 17.6174 25.532C17.5691 25.6602 17.5704 25.8017 17.621 25.929C17.6659 26.0713 17.76 26.193 17.8864 26.2723C18.0128 26.3516 18.1633 26.3834 18.311 26.362C20.6143 26.362 22.9173 26.362 25.22 26.362C25.678 26.362 25.93 26.12 25.925 25.733C25.92 25.346 25.67 25.147 25.191 25.146C24.053 25.1427 22.9143 25.1413 21.775 25.142V25.147Z" fill="#1F1F1F"/>
</svg>
