<svg width="43" height="43" viewBox="0 0 43 43" fill="none" xmlns="http://www.w3.org/2000/svg">
<circle cx="21.5" cy="21.5" r="20.5" stroke="#1F1F1F"/>
<path d="M29.2052 12H29.3892C30.4982 12.315 30.6892 12.575 30.7302 13.785C30.7302 13.8 30.7302 13.816 30.7302 13.831C30.7195 18.1323 30.7106 22.4323 30.7032 26.731C30.6989 27.3 30.5124 27.8526 30.1712 28.308C29.5987 29.0719 28.8117 29.648 27.9106 29.9631C27.0095 30.2781 26.035 30.3178 25.1112 30.077C24.6647 29.9823 24.2517 29.7697 23.9154 29.4611C23.579 29.1526 23.3316 28.7595 23.1988 28.3228C23.0661 27.8861 23.0528 27.4218 23.1606 26.9782C23.2683 26.5347 23.4929 26.1282 23.8112 25.801C24.4126 25.0778 25.2213 24.5564 26.1282 24.307C27.1162 24.0166 28.1699 24.0396 29.1442 24.373C29.1647 24.3214 29.1795 24.2678 29.1882 24.213C29.1812 22.193 29.1882 20.172 29.1572 18.152C29.1472 17.427 28.9362 17.282 28.2352 17.471C27.4682 17.677 26.7092 17.912 25.9522 18.151C24.1156 18.729 22.2822 19.3127 20.4522 19.902C20.1575 19.9657 19.8968 20.1365 19.7206 20.3812C19.5444 20.6259 19.4652 20.9272 19.4982 21.227C19.4882 23.727 19.4622 26.218 19.4722 28.712C19.4991 29.4915 19.2736 30.2589 18.8293 30.8999C18.3849 31.541 17.7455 32.0215 17.0062 32.27C16.5811 32.4267 16.147 32.558 15.7062 32.663H14.6062C14.4752 32.631 14.3452 32.592 14.2122 32.563C13.7751 32.5123 13.3592 32.3473 13.0064 32.0844C12.6536 31.8215 12.3764 31.4702 12.2028 31.0659C12.0292 30.6616 11.9654 30.2187 12.0178 29.7819C12.0702 29.345 12.2369 28.9298 12.5012 28.578C12.9219 27.9435 13.4937 27.4236 14.1653 27.065C14.8368 26.7065 15.587 26.5206 16.3482 26.524C16.8572 26.514 17.3672 26.592 17.9082 26.631V26.199C17.9172 23.246 17.9202 20.293 17.9432 17.34C17.9473 17.0211 18.0128 16.706 18.1362 16.412C18.3134 16.0035 18.5822 15.6412 18.922 15.3534C19.2617 15.0655 19.6632 14.8597 20.0952 14.752C23.1306 13.84 26.1672 12.9227 29.2052 12Z" fill="#1F1F1F"/>
</svg>
