<svg width="43" height="43" viewBox="0 0 43 43" fill="none" xmlns="http://www.w3.org/2000/svg">
<circle cx="21.5" cy="21.5" r="20.5" stroke="#1F1F1F"/>
<path fill-rule="evenodd" clip-rule="evenodd" d="M15.54 12.2598H14.417C14.1496 12.3484 13.9883 12.6206 14.039 12.8978C14.0423 13.0795 14.0407 13.2615 14.0392 13.4434C14.0369 13.7068 14.0346 13.9701 14.047 14.2328C14.06 14.5068 13.956 14.5788 13.699 14.5688C13.4487 14.5592 13.1984 14.561 12.9481 14.5629C12.7534 14.5643 12.5587 14.5657 12.364 14.5618C12.0905 14.5149 11.8239 14.6758 11.738 14.9398V16.0628C11.8359 16.321 12.1028 16.4739 12.375 16.4278C12.559 16.4194 12.7436 16.4227 12.9281 16.426C13.1617 16.4302 13.3952 16.4343 13.627 16.4148C13.992 16.3838 14.048 16.5298 14.048 16.8538C14.041 20.0178 14.041 23.1858 14.041 26.3538C14.041 26.6021 14.0409 26.8501 14.0408 27.0983C14.0406 27.5956 14.0404 28.0941 14.041 28.5998C14.042 29.3578 14.085 29.3998 14.862 29.3998C15.7593 29.3998 16.6566 29.4001 17.5538 29.4004C20.5442 29.4015 23.5343 29.4025 26.525 29.3918C26.904 29.3908 27.068 29.4648 27.025 29.8808C27.0023 30.0994 27.0074 30.321 27.0125 30.5429C27.0163 30.7107 27.0202 30.8787 27.012 31.0458C26.9613 31.3238 27.1141 31.599 27.377 31.7028H28.5C28.7678 31.6145 28.9292 31.342 28.878 31.0648C28.8748 30.883 28.8763 30.7011 28.8779 30.5192C28.8802 30.2557 28.8825 29.9924 28.87 29.7298C28.857 29.4558 28.961 29.3838 29.218 29.3938C29.4683 29.4033 29.7187 29.4015 29.969 29.3997C30.1637 29.3983 30.3583 29.3968 30.553 29.4008C30.8266 29.4477 31.0932 29.2867 31.179 29.0228V27.8998C31.0812 27.6416 30.8143 27.4886 30.542 27.5348C30.358 27.5431 30.1732 27.5399 29.9886 27.5366C29.7548 27.5324 29.5213 27.5282 29.29 27.5478C28.926 27.5788 28.869 27.4328 28.869 27.1088C28.876 23.9448 28.876 20.7768 28.876 17.6088C28.876 17.3604 28.8761 17.1125 28.8763 16.8642C28.8765 16.3669 28.8767 15.8684 28.876 15.3628C28.875 14.6048 28.832 14.5628 28.055 14.5628C27.1581 14.5628 26.2611 14.5624 25.3641 14.5621C22.3737 14.5611 19.3829 14.56 16.392 14.5708C16.013 14.5718 15.849 14.4978 15.892 14.0818C15.9148 13.8625 15.9097 13.641 15.9046 13.4193C15.9007 13.2516 15.8969 13.0838 15.905 12.9168C15.9558 12.6387 15.8029 12.3635 15.54 12.2598ZM15.9019 23.2442C15.9015 22.8088 15.901 22.3733 15.901 21.9378H15.905C15.905 20.2248 15.905 18.5118 15.894 16.8008C15.892 16.4968 15.979 16.4168 16.279 16.4168C19.733 16.4274 23.1874 16.4274 26.642 16.4168C26.945 16.4158 27.025 16.5008 27.025 16.8008C27.0144 20.2548 27.0144 23.7091 27.025 27.1638C27.026 27.4668 26.941 27.5468 26.641 27.5468C23.187 27.5361 19.7327 27.5361 16.278 27.5468C15.974 27.5478 15.894 27.4628 15.894 27.1628C15.9045 25.8563 15.9032 24.5504 15.9019 23.2442Z" fill="#1F1F1F"/>
</svg>
