<svg width="43" height="43" viewBox="0 0 43 43" fill="none" xmlns="http://www.w3.org/2000/svg">
<circle cx="21.135" cy="21.5" r="20.5" stroke="#1F1F1F"/>
<path d="M21.089 26.0119C23.3128 26.0058 25.114 24.2046 25.12 21.9809V15.5309C25.1354 14.4591 24.7069 13.4287 23.936 12.6839C23.1825 11.9258 22.1579 11.4995 21.089 11.4995C20.0202 11.4995 18.9955 11.9258 18.242 12.6839C17.4712 13.4287 17.0427 14.4591 17.058 15.5309V21.9809C17.0646 24.2044 18.8655 26.0053 21.089 26.0119Z" fill="#1F1F1F"/>
<path d="M11 17.664V18.164H11.5H12.508H13.008V17.664V15.812H15.004H15.504V15.312V14.4V13.9H15.004H13.008V13.412H15.156H15.5938V17.664V18.164H16.0938H17.1017H17.6017V17.664V15.8747L18.711 17.9038L18.8532 18.164H19.1498H20.3658H20.6328H21.1328H21.2493H25.0288H25.5234H25.5288H26.0234H29.9194H30.4194V17.664V16.752V16.252H29.9194H27.5314V15.716H29.6314H30.1314V15.216V14.304V13.804H29.6314H27.5314V13.412H29.7754H30.2754V12.912V12V11.5H29.7754H26.0234H25.5234V12V16.252H25.0288H22.6408V15.716H24.7408H25.2408V15.216V14.304V13.804H24.7408H22.6408V13.412H24.8848H25.3848V12.912V12V11.5H24.8848H21.1328H20.6328V12V13.1638C20.528 12.6033 20.227 12.1859 19.7923 11.912C19.2836 11.5914 18.644 11.5 18.0617 11.5H16.0938H15.656H15.5938H15.156H11.5H11V12V17.664ZM20.6328 17.1376L19.6167 15.4458C19.8488 15.3295 20.0514 15.1712 20.2165 14.9735C20.4327 14.7147 20.5697 14.4063 20.6328 14.0722V17.1376ZM17.6017 13.9V13.364H17.9738C18.2282 13.364 18.4156 13.3876 18.5279 13.4404C18.5736 13.4619 18.5879 13.4799 18.5935 13.4884C18.5983 13.4958 18.6178 13.5278 18.6178 13.616C18.6178 13.7233 18.5944 13.7636 18.5875 13.774C18.5806 13.7845 18.5646 13.8039 18.5138 13.8261C18.3858 13.8823 18.1795 13.9 17.8857 13.9H17.6017Z" fill="#1F1F1F" stroke="white"/>
<path d="M28.106 19.802C27.8756 19.5739 27.531 19.5061 27.2313 19.6298C26.9317 19.7536 26.7353 20.0448 26.733 20.369V21.982C26.6919 25.0695 24.1773 27.5509 21.0895 27.5509C18.0017 27.5509 15.4871 25.0695 15.446 21.982V20.369C15.446 19.9236 15.0849 19.5625 14.6395 19.5625C14.1941 19.5625 13.833 19.9236 13.833 20.369V21.982C13.8351 25.6757 16.6121 28.7782 20.283 29.188V30.851H17.058C16.6126 30.851 16.2515 31.2121 16.2515 31.6575C16.2515 32.1029 16.6126 32.464 17.058 32.464H25.12C25.5654 32.464 25.9265 32.1029 25.9265 31.6575C25.9265 31.2121 25.5654 30.851 25.12 30.851H21.896V29.188C25.5667 28.7777 28.3434 25.6755 28.346 21.982V20.369C28.3477 20.155 28.2609 19.9497 28.106 19.802Z" fill="#1F1F1F"/>
</svg>
