<svg width="24" height="25" viewBox="0 0 24 25" fill="none" xmlns="http://www.w3.org/2000/svg">
<rect opacity="0.25" y="0.0219727" width="24" height="24" rx="12" fill="black"/>
<path d="M11.2341 12C13.2053 12 14.7964 10.4367 14.7964 8.5C14.7964 6.56333 13.2053 5 11.2341 5C9.26293 5 7.67175 6.56333 7.67175 8.5C7.67175 10.4367 9.26293 12 11.2341 12ZM11.2341 5.875C12.7065 5.875 13.9058 7.05333 13.9058 8.5C13.9058 9.94667 12.7065 11.125 11.2341 11.125C9.76166 11.125 8.56234 9.94667 8.56234 8.5C8.56234 7.05333 9.76166 5.875 11.2341 5.875Z" fill="white"/>
<g clip-path="url(#clip0_1102_97402)">
<path d="M11.2195 12C13.1974 12 14.794 10.4367 14.794 8.5C14.794 6.56333 13.1974 5 11.2195 5C9.24162 5 7.64502 6.56333 7.64502 8.5C7.64502 10.4367 9.24162 12 11.2195 12ZM11.2195 5.875C12.6969 5.875 13.9003 7.05333 13.9003 8.5C13.9003 9.94667 12.6969 11.125 11.2195 11.125C9.74204 11.125 8.53864 9.94667 8.53864 8.5C8.53864 7.05333 9.74204 5.875 11.2195 5.875Z" fill="white"/>
<path d="M18.5592 15.9433H16.9387H16.7719V15.6283V14.1933C16.7719 13.9483 16.5694 13.75 16.3192 13.75C16.0689 13.75 15.8783 13.9483 15.8783 14.1933V14.5667V15.8733V15.9433H14.0911C13.8409 15.9433 13.6383 16.1417 13.6383 16.3867C13.6383 16.6317 13.8409 16.83 14.0911 16.83H15.8783V18.1367V18.58C15.8783 18.8017 16.0809 19 16.3192 19C16.5575 19 16.7719 18.8017 16.7719 18.5567V16.8067H17.2843H18.5592C18.8094 16.8067 19.0119 16.6083 19.0119 16.3633C19.0119 16.1183 18.7975 15.9433 18.5592 15.9433Z" fill="white"/>
<path d="M14.377 14.6016C14.3889 14.6133 14.4127 14.6133 14.4366 14.625C14.4842 14.6483 14.5319 14.6483 14.5915 14.66C14.6034 14.66 14.6034 14.66 14.6153 14.66C14.6153 14.66 14.6153 14.66 14.6272 14.66C14.8655 14.6483 15.0561 14.4616 15.0561 14.2283C15.0561 14.1583 15.0323 14.1 15.0085 14.0416C14.9966 14.0066 14.9727 13.9716 14.9489 13.9483C14.937 13.9366 14.937 13.925 14.9251 13.9133C14.8655 13.8783 14.8059 13.8433 14.7464 13.82C14.0315 13.3883 13.531 13.3066 12.6255 13.3066H9.80167C7.3472 13.3066 5.35741 15.115 5.03571 17.4366C5.0238 17.4833 5.01188 17.53 5.01188 17.5766C5.01188 17.5883 5.01188 17.5883 5.01188 17.6V18.125V18.4866V18.5683C4.99997 18.8133 5.19061 19 5.4289 19C5.6672 19 5.85784 18.8133 5.85784 18.58V18.51V18.2883L5.88167 17.775C6.03656 15.78 7.71656 14.205 9.78975 14.205H12.6255C13.4357 14.1933 13.7574 14.1933 14.377 14.6016ZM5.08337 17.5183C5.07146 17.53 5.07146 17.53 5.05954 17.5416C5.07146 17.53 5.08337 17.53 5.08337 17.5183Z" fill="white"/>
</g>
<defs>
<clipPath id="clip0_1102_97402">
<rect width="14" height="14" fill="white" transform="translate(5 5)"/>
</clipPath>
</defs>
</svg>
