<svg width="12" height="13" viewBox="0 0 12 13" fill="none" xmlns="http://www.w3.org/2000/svg">
<path fill-rule="evenodd" clip-rule="evenodd" d="M6.40464 11.8506C6.49875 11.9246 6.59482 12.0002 6.69401 12.0785L6.69501 0.478516L6.56301 0.578516C5.14168 1.71185 3.71801 2.84518 2.29201 3.97852C2.22105 4.0303 2.13585 4.05893 2.04801 4.06052H0.160014C0.134259 4.06052 0.108505 4.06223 0.0825071 4.06397C0.0560142 4.06573 0.0292689 4.06752 0.00201416 4.06752V8.50252H0.128014C0.285208 8.50152 0.442525 8.5004 0.599936 8.49928C1.0754 8.4959 1.55171 8.49252 2.02801 8.49252C2.11172 8.49285 2.19321 8.51943 2.26101 8.56852C3.51368 9.55985 4.76601 10.5522 6.01801 11.5455C6.14515 11.6464 6.27297 11.747 6.40464 11.8506ZM5.80001 2.30952V10.2165L5.05801 9.62652C4.25135 8.97518 3.44301 8.32652 2.63301 7.68052C2.57689 7.63855 2.50907 7.61513 2.43901 7.61352C2.13172 7.60952 1.82398 7.61085 1.51609 7.61218C1.36209 7.61285 1.20805 7.61352 1.05401 7.61352H0.898014V4.92752C0.939014 4.92052 0.991014 4.92052 1.03901 4.92052C1.19005 4.92052 1.34098 4.9214 1.49187 4.92229C1.79353 4.92407 2.09505 4.92585 2.39701 4.92052C2.48447 4.91658 2.5686 4.88586 2.63801 4.83252C3.65001 4.02585 4.66135 3.21818 5.67201 2.40952C5.70072 2.38236 5.73123 2.36002 5.76729 2.33363C5.7777 2.326 5.78858 2.31803 5.80001 2.30952Z" fill="white"/>
<path d="M9.535 11.3274L8.909 10.7044C11.3378 8.24966 11.3378 4.29719 8.909 1.84242L9.529 1.23242C12.314 4.02019 12.3167 8.53634 9.535 11.3274Z" fill="white"/>
<path d="M8.278 10.0555L7.646 9.43649C9.36526 7.68021 9.36526 4.87177 7.646 3.11549L8.28 2.50049C10.3581 4.59043 10.3572 7.96664 8.278 10.0555Z" fill="white"/>
</svg>
