<svg width="42" height="59" viewBox="0 0 42 59" fill="none" xmlns="http://www.w3.org/2000/svg">
<path fill-rule="evenodd" clip-rule="evenodd" d="M29.469 8.30298C34.567 15.705 39.055 24.576 40.681 33.482L40.7013 33.5935C41.0783 35.6583 41.4894 37.9101 40.457 39.859C39.551 41.574 37.713 42.618 36.069 43.518C33.2577 45.0418 30.2383 46.1456 27.107 46.794C27.875 50.463 27.606 54.506 24.645 56.779C20.096 60.271 14.845 56.22 13.463 51.63C12.9894 50.0562 12.7491 48.4215 12.75 46.778C8.59752 45.8872 4.68934 44.1014 1.29798 41.545C0.606734 41.0359 0.152299 40.2675 0.039133 39.4165C-0.0740326 38.5655 0.163806 37.705 0.697977 37.033C3.09198 29.9543 5.57998 22.9093 8.16198 15.898C8.49 15.0091 8.81419 14.1175 9.13858 13.2254C10.1087 10.5573 11.0806 7.88441 12.162 5.26598C13.07 3.06798 14.951 1.01898 17.236 1.10198C18.0514 0.736955 18.9366 0.554044 19.83 0.565978C24.1787 0.60156 26.9709 4.66659 29.2045 7.91839C29.2936 8.04798 29.3817 8.17628 29.469 8.30298ZM21.617 9.92999V9.93098H21.616C21.6163 9.93065 21.6166 9.93032 21.617 9.92999ZM21.617 9.92999C21.7386 9.80905 21.8686 9.69677 22.006 9.59398C21.9742 9.55466 21.9425 9.51512 21.9107 9.47553C21.8287 9.37314 21.7464 9.2705 21.662 9.17098C21.647 9.41998 21.632 9.66698 21.617 9.90498V9.92999Z" fill="white"/>
<path fill-rule="evenodd" clip-rule="evenodd" d="M37.755 39.0089C37.7916 39.1479 37.7606 39.296 37.6712 39.4086C37.5819 39.5212 37.4447 39.585 37.301 39.5809C37.258 39.6624 37.1946 39.7313 37.117 39.7809C32.878 42.4508 28.0803 44.1071 23.097 44.6209C23.1679 44.6725 23.2199 44.7459 23.245 44.8299C23.904 47.1019 25.456 56.5119 20.881 55.9759C18.844 55.7409 17.721 53.3009 17.256 51.5759C16.7277 49.3255 16.6807 46.9888 17.118 44.7189C12.0494 44.4112 7.17353 42.665 3.06199 39.6849C2.90474 39.5773 2.86367 39.363 2.96999 39.2049C2.84315 39.1404 2.7824 38.993 2.82699 38.8579C4.80799 31.5209 7.96299 24.3629 11.159 17.4799C12.759 14.0339 14.401 10.5719 16.25 7.25291C17.169 5.60391 18.486 3.66391 20.65 4.01091C22.6125 4.32045 23.8485 6.39736 24.8208 8.03115L24.8208 8.03126C24.9385 8.22893 25.0523 8.42012 25.163 8.60091C27.1485 11.8527 28.9552 15.2103 30.575 18.6589C33.6316 25.1897 36.0366 32.006 37.755 39.0089ZM36.591 38.8919C36.6379 38.8612 36.6896 38.8385 36.744 38.8249C36.417 37.5489 36.065 36.2769 35.697 35.0109C35.6908 35.0171 35.6863 35.0235 35.682 35.0295C35.676 35.0381 35.6704 35.046 35.661 35.0519C26.747 41.7249 14.238 40.4739 4.92499 35.2459C4.44499 36.5126 3.95466 37.7772 3.45399 39.0399C3.44535 39.0578 3.43473 39.072 3.42441 39.0858L3.42438 39.0858L3.42437 39.0858C3.41677 39.096 3.40934 39.1059 3.40299 39.1169C14.039 44.7169 26.14 45.4989 36.591 38.8919ZM35.447 34.1439C35.3496 34.1353 35.2527 34.1643 35.176 34.2249C25.849 41.0469 15.033 38.7549 5.16499 34.6269C5.24299 34.4213 5.32099 34.2138 5.39899 34.0064L5.39911 34.0061C5.46407 33.8334 5.52903 33.6606 5.59399 33.4889C14.591 38.2379 26.104 38.9579 34.824 33.1889C34.9461 33.1096 35.0236 32.9772 35.033 32.8319C35.0994 33.0511 35.1696 33.2691 35.2397 33.4871L35.2398 33.4872L35.24 33.4879C35.3102 33.7061 35.3805 33.9244 35.447 34.1439ZM34.349 32.3719C34.4368 32.308 34.5468 32.2826 34.6537 32.3015C34.7607 32.3203 34.8553 32.3819 34.916 32.4719C33.7185 28.6504 32.3089 24.8986 30.694 21.2339C29.5193 18.5839 28.2377 15.9886 26.849 13.4479C26.1243 12.1099 25.3703 10.7856 24.587 9.47491C24.4272 9.20706 24.2654 8.90975 24.0973 8.60095L24.0973 8.60084C23.5513 7.59768 22.9395 6.47341 22.116 5.84491C18.6491 3.19444 16.2951 8.51855 14.9513 11.5578C14.7396 12.0366 14.5529 12.4586 14.391 12.7839C13.0483 15.4799 11.7687 18.2096 10.552 20.9729C8.91809 24.6618 7.50312 28.4173 6.08499 32.1811L5.79299 32.9559C5.80332 32.9584 5.81219 32.9596 5.82093 32.9608C5.82995 32.9621 5.83883 32.9634 5.84899 32.9659C15.249 37.0639 25.369 38.1259 34.35 32.3719H34.349ZM22.427 45.0639C22.8859 46.7789 23.1126 48.5476 23.101 50.3229H23.102C23.0819 51.1896 22.9926 52.0534 22.835 52.9059C22.503 54.6579 20.297 54.9729 18.985 53.4729C17.4303 51.701 17.5761 48.7127 17.6982 46.2117C17.7228 45.7077 17.7464 45.2234 17.755 44.7729C19.343 44.8587 20.9352 44.8296 22.519 44.6859C22.4217 44.7857 22.3864 44.9306 22.427 45.0639Z" fill="#222221"/>
<path d="M36.745 38.826C36.6906 38.8396 36.6389 38.8622 36.592 38.893C26.141 45.5 14.04 44.718 3.40497 39.118C3.41997 39.092 3.44097 39.072 3.45597 39.041C3.95663 37.7796 4.44697 36.515 4.92697 35.247C14.24 40.475 26.749 41.726 35.663 35.053C35.678 35.043 35.683 35.027 35.699 35.012C36.066 36.278 36.418 37.552 36.745 38.826Z" fill="#68A96A"/>
<path d="M35.448 34.1438C35.3505 34.1355 35.2536 34.1649 35.177 34.2258C25.849 41.0468 15.03 38.7548 5.16602 34.6258C5.30902 34.2478 5.45202 33.8648 5.59502 33.4878C14.595 38.2358 26.104 38.9558 34.825 33.1878C34.9472 33.1085 35.0246 32.9761 35.034 32.8308C35.167 33.2708 35.312 33.7048 35.448 34.1438Z" fill="white"/>
<path fill-rule="evenodd" clip-rule="evenodd" d="M34.917 32.474C34.8563 32.3839 34.7617 32.3224 34.6547 32.3036C34.5478 32.2847 34.4378 32.3101 34.35 32.374C25.369 38.128 15.25 37.066 5.85001 32.974C5.83001 32.974 5.81401 32.974 5.79401 32.964L6.05801 32.2631C7.48474 28.4745 8.90841 24.694 10.553 20.981C11.773 18.2237 13.0527 15.494 14.392 12.792C14.5535 12.4674 14.7396 12.0464 14.9506 11.5689C16.2938 8.53014 18.649 3.20166 22.117 5.853C22.9405 6.4815 23.5523 7.60577 24.0983 8.60892L24.0983 8.60903L24.0984 8.60916L24.0985 8.60931L24.0986 8.60958L24.0987 8.60966C24.2666 8.91823 24.4283 9.21533 24.588 9.483C25.3693 10.7903 26.1233 12.1147 26.85 13.456C28.234 15.9987 29.5157 18.594 30.695 21.242C32.3097 24.9047 33.7193 28.6545 34.917 32.474ZM29.367 30.758C29.4305 29.715 28.9395 28.7159 28.075 28.129C27.687 27.853 27.314 28.267 27.375 28.639C27.1865 29.1654 27.23 29.7471 27.4948 30.2395C27.7597 30.732 28.2209 31.089 28.764 31.222C28.9075 31.2565 29.0589 31.2242 29.176 31.1344C29.293 31.0445 29.3632 30.9065 29.367 30.759V30.758ZM26.5677 22.9414C26.7159 23.0246 26.8969 23.0237 27.0444 22.9391C27.1921 22.8544 27.2843 22.6982 27.287 22.528C27.2335 21.4989 26.7986 20.5267 26.067 19.801C25.9996 19.7354 25.9144 19.6913 25.822 19.674C25.7614 19.6149 25.6759 19.5888 25.5926 19.6041C25.5093 19.6194 25.4386 19.6742 25.403 19.751C25.3942 19.7802 25.3839 19.8089 25.372 19.837C25.2826 19.932 25.2366 20.0598 25.245 20.19C24.9764 21.3049 25.5293 22.4549 26.5677 22.9414ZM21.043 28.506C21.2457 27.7811 21.2332 27.0129 21.007 26.295C20.9664 26.1472 20.8581 26.0274 20.7152 25.972C20.5723 25.9166 20.4116 25.9322 20.282 26.014C20.2054 25.9414 20.1004 25.9068 19.9957 25.9198C19.891 25.9328 19.7975 25.9919 19.741 26.081C19.348 26.781 18.454 29.313 19.919 29.441C20.4616 29.4182 20.9223 29.036 21.045 28.507L21.043 28.506ZM20.7271 9.89617C20.8333 9.99158 20.8958 10.1263 20.9 10.269L20.902 10.27C20.864 10.6221 20.9047 10.9765 20.9451 11.3287C21.0131 11.9208 21.0805 12.5071 20.772 13.067C20.4745 13.7079 19.7345 14.0126 19.072 13.767C18.4918 13.4561 18.191 12.7958 18.337 12.154C18.4194 11.6121 18.7358 11.2198 19.0548 10.8243C19.2891 10.5337 19.5247 10.2415 19.67 9.887C19.7206 9.75838 19.8339 9.66497 19.9698 9.63995C20.1058 9.61492 20.245 9.66183 20.338 9.764C20.4803 9.753 20.621 9.80076 20.7271 9.89617ZM14.043 22.911C15.0002 22.3009 15.436 21.1293 15.11 20.042C15.396 19.742 15.003 19.332 14.651 19.485C13.5418 20.0973 12.9889 21.3838 13.308 22.61C13.3485 22.7609 13.4572 22.8842 13.6019 22.9433C13.7465 23.0023 13.9104 22.9904 14.045 22.911H14.043ZM11.7017 29.4127C11.7538 29.5985 11.6457 29.7914 11.46 29.844L11.462 29.845C11.548 30.8873 10.9656 31.87 10.01 32.295C9.86307 32.374 9.68572 32.3714 9.54116 32.2881C9.3966 32.2048 9.30538 32.0527 9.30001 31.886C9.17335 30.6119 10.0204 29.4446 11.271 29.17C11.4569 29.1184 11.6496 29.2269 11.7017 29.4127Z" fill="#C83B44"/>
<path d="M28.075 28.134C28.9395 28.7208 29.4305 29.72 29.367 30.763C29.3639 30.9118 29.2931 31.0511 29.1748 31.1414C29.0564 31.2317 28.9034 31.2632 28.759 31.227C28.2159 31.094 27.7546 30.737 27.4898 30.2445C27.225 29.752 27.1815 29.1704 27.37 28.644C27.314 28.268 27.687 27.854 28.075 28.134Z" fill="#222221"/>
<path d="M27.289 22.5278C27.2862 22.698 27.1941 22.8542 27.0464 22.9389C26.8987 23.0237 26.7173 23.0244 26.569 22.9408C25.5305 22.454 24.978 21.3037 25.247 20.1888C25.2387 20.0586 25.2847 19.9309 25.374 19.8358C25.3859 19.8077 25.3963 19.779 25.405 19.7498C25.4406 19.673 25.5113 19.6182 25.5946 19.6029C25.6779 19.5876 25.7634 19.6137 25.824 19.6728C25.9164 19.6901 26.0016 19.7342 26.069 19.7998C26.8008 20.5257 27.2358 21.4984 27.289 22.5278Z" fill="#222221"/>
<path d="M22.429 45.0679C22.8879 46.7829 23.1146 48.5517 23.103 50.3269C23.0832 51.1936 22.9942 52.0574 22.837 52.9099C22.505 54.6609 20.3 54.9729 18.987 53.4769C17.118 51.3479 17.705 47.4629 17.757 44.7769C19.345 44.8627 20.9372 44.8336 22.521 44.6899C22.4237 44.7897 22.3884 44.9346 22.429 45.0679Z" fill="#D5B59E"/>
<path fill-rule="evenodd" clip-rule="evenodd" d="M21.044 28.5079C21.2468 27.783 21.2343 27.0148 21.008 26.2969C20.9675 26.1492 20.8596 26.0294 20.7169 25.9738C20.5742 25.9183 20.4137 25.9335 20.284 26.0149C20.2075 25.9422 20.1024 25.9077 19.9977 25.9206C19.893 25.9336 19.7995 25.9928 19.743 26.0819C19.349 26.7869 18.456 29.3139 19.921 29.4419C20.4625 29.4177 20.9216 29.0359 21.044 28.5079ZM20.14 27.1609C20.1624 27.3386 20.1694 27.5179 20.161 27.6969V27.7009C20.1633 27.86 20.1424 28.0187 20.099 28.1719C20.0965 28.1842 20.0902 28.1953 20.0838 28.2065C20.0772 28.218 20.0705 28.2297 20.068 28.2429C20.0663 28.2395 20.0652 28.2362 20.0641 28.2329C20.0619 28.2262 20.0597 28.2195 20.053 28.2129V28.2129C20.053 28.1519 20.053 28.0899 20.048 28.0289C20.0461 27.8205 20.0599 27.6122 20.089 27.4059C20.0954 27.3589 20.1065 27.3117 20.1176 27.2643C20.1256 27.2299 20.1337 27.1954 20.14 27.1609Z" fill="#222221"/>
<path fill-rule="evenodd" clip-rule="evenodd" d="M20.7291 9.89596C20.6229 9.80055 20.4823 9.75279 20.34 9.76379C20.2477 9.66136 20.1091 9.61371 19.9733 9.6377C19.8375 9.66169 19.7236 9.75393 19.672 9.88179C19.5267 10.2363 19.291 10.5285 19.0567 10.8191C18.7378 11.2146 18.4214 11.6069 18.339 12.1488C18.1929 12.7906 18.4938 13.4509 19.074 13.7618C19.7365 14.0074 20.4765 13.7027 20.774 13.0618C21.0815 12.5014 21.0141 11.9161 20.9459 11.3246C20.9054 10.9736 20.8647 10.6203 20.902 10.2688C20.8978 10.1261 20.8353 9.99137 20.7291 9.89596ZM19.743 12.6788C19.615 12.8628 19.462 12.9038 19.334 12.5308C19.2926 12.3854 19.2947 12.231 19.34 12.0868C19.3421 12.1397 19.3471 12.1924 19.355 12.2448C19.3804 12.4566 19.5354 12.6299 19.743 12.6788Z" fill="#222221"/>
<path d="M15.111 20.042C15.4369 21.1293 15.0012 22.3008 14.044 22.911C13.9097 22.9896 13.7465 23.0012 13.6024 22.9424C13.4584 22.8836 13.3499 22.7611 13.309 22.611C12.9899 21.3848 13.5427 20.0983 14.652 19.486C15.004 19.332 15.397 19.741 15.111 20.042Z" fill="#222221"/>
<path d="M11.272 29.1708C11.4579 29.1192 11.6505 29.2278 11.7026 29.4135C11.7547 29.5993 11.6466 29.7923 11.461 29.8448C11.5477 30.887 10.9661 31.8701 10.011 32.2958C9.86403 32.3748 9.68669 32.3722 9.54213 32.2889C9.39756 32.2057 9.30635 32.0536 9.30097 31.8868C9.17431 30.6127 10.0214 29.4455 11.272 29.1708Z" fill="#222221"/>
</svg>
