<svg width="36" height="62" viewBox="0 0 36 62" fill="none" xmlns="http://www.w3.org/2000/svg">
<path d="M33.731 7.67402C29.743 5.23402 25.7097 2.87102 21.631 0.585019C20.419 -0.0939813 18.404 0.180019 17.781 1.59402C16.867 3.67069 16.0083 5.76835 15.205 7.88702C10.8731 7.68583 6.75088 9.76227 4.33403 13.3629C1.91719 16.9635 1.55694 21.5651 3.38401 25.498C0.624178 27.0946 -0.55137 30.4706 0.620011 33.436C1.42653 35.4964 3.35117 36.9051 5.55901 37.051C6.03701 41.208 8.12401 45.142 9.79601 48.928C10.896 51.428 11.996 53.928 13.106 56.428C13.8549 58.5451 15.2808 60.3562 17.163 61.581C18.623 62.426 20.963 61.72 21.298 59.898C22.725 52.1908 24.7703 44.6109 27.414 37.232C27.9238 37.2505 28.4339 37.2065 28.933 37.101C30.8 36.6879 32.3386 35.3722 33.0367 33.5921C33.7347 31.8119 33.5005 29.8011 32.412 28.229C34.2096 23.725 33.4654 18.604 30.46 14.798L33.73 12.537C34.5765 12.019 35.0927 11.0982 35.0929 10.1058C35.0931 9.11343 34.5773 8.19235 33.731 7.67402Z" fill="white"/>
<path fill-rule="evenodd" clip-rule="evenodd" d="M31.775 9.69906C31.8527 9.83438 31.8527 10.0007 31.775 10.1361C30.8761 11.4794 29.3235 12.6241 27.9131 13.6639L27.9131 13.6639C27.5114 13.9601 27.1212 14.2477 26.761 14.5291L26.014 15.1131C27.8807 16.667 29.0716 18.8846 29.336 21.2991C29.554 22.9411 29.689 26.5361 28.61 28.1991C29.757 29.4081 30.785 31.6301 29.089 32.8351C28.5084 33.2611 27.7731 33.4183 27.069 33.2671C27.1171 33.3597 27.1261 33.4677 27.094 33.5671C25.8788 37.4999 24.4682 41.3853 23.0602 45.2632L23.0601 45.2633C22.5077 46.7849 21.9557 48.3054 21.416 49.8271C20.7052 52.2038 19.8598 54.5382 18.884 56.8191C18.5698 57.6481 17.9335 58.3147 17.12 58.6671L16.734 58.3231C18.1677 57.5201 18.7912 55.3341 19.2903 53.5844L19.2903 53.5844C19.4227 53.1203 19.5463 52.6868 19.674 52.3181C20.388 50.2514 21.1034 48.1847 21.82 46.1181C22.191 45.0435 22.5566 43.9654 22.9225 42.8866L22.9227 42.8859L22.9228 42.8858C24.0066 39.6902 25.0925 36.4881 26.326 33.3521C26.3628 33.249 26.4401 33.1656 26.54 33.1211C25.898 32.8703 25.3009 32.5171 24.772 32.0751C24.3267 33.264 23.1686 34.0329 21.9 33.9821C20.524 33.851 19.3709 32.8856 19 31.5541C18.5965 32.0933 17.9728 32.4235 17.3 32.4541C16.88 32.4417 16.4811 32.2672 16.187 31.9671C14.704 34.4741 10.736 34.4991 9.48702 31.7901C9.04383 32.3961 8.43156 32.8577 7.72702 33.1171L7.32702 33.2301C6.3054 33.4715 5.23226 33.1551 4.50502 32.3981C3.03502 30.9321 3.70502 27.8371 6.00502 27.8501C2.53202 22.4871 5.28302 14.3991 11.51 12.6731H11.548C13.1827 12.171 14.8917 11.9538 16.6 12.0311C17.1466 8.63674 18.1326 5.32796 19.533 2.18806C19.675 1.85206 20.171 2.00306 20.247 2.29306C20.3342 2.28146 20.4229 2.29463 20.503 2.33106C22.8642 3.51887 25.1617 4.82933 27.386 6.25706C27.6721 6.44239 28.0019 6.63662 28.3509 6.8422C29.6365 7.59943 31.1836 8.51069 31.775 9.69906ZM30.427 9.96806C30.5955 8.99242 27.6808 7.33274 26.1001 6.43265L25.871 6.30206C25.661 6.18406 25.485 6.08306 25.354 6.00206C23.633 4.95706 21.864 3.99106 20.067 3.07906C20.0574 3.07454 20.052 3.06843 20.0467 3.06252C20.0426 3.05797 20.0387 3.05354 20.033 3.05006C19.2685 5.02929 18.6338 7.05625 18.133 9.11806C18.112 9.20206 18.091 9.29006 18.07 9.37806C17.8128 10.5067 17.6602 11.6559 17.5078 12.803C17.3444 14.033 17.1813 15.2607 16.89 16.4581C17.4004 16.636 17.9011 16.8406 18.39 17.0711C19.1558 17.4104 19.8894 17.8181 20.582 18.2891C20.588 18.2457 20.6089 18.2058 20.641 18.1761C21.4061 17.4747 22.2173 16.8252 23.069 16.2321C23.3034 16.0634 23.5388 15.8964 23.7739 15.7295L23.7739 15.7295C24.3935 15.2898 25.0113 14.8513 25.605 14.3881C26.512 13.6821 27.405 12.9561 28.284 12.2171C28.4366 12.0866 28.6206 11.9471 28.816 11.7989L28.816 11.7989C29.4926 11.2857 30.306 10.6687 30.427 9.96806ZM28.47 21.4191C28.5966 22.4012 28.6121 23.3945 28.516 24.3801C28.4495 25.0163 28.351 25.6487 28.221 26.2751C28.174 26.4971 28.124 26.7201 28.065 26.9381C27.9707 27.1776 27.9546 27.4408 28.019 27.6901C27.9071 27.6727 27.7949 27.7199 27.729 27.8121L27.666 27.8871C27.5142 28.0425 27.5142 28.2906 27.666 28.4461C27.6832 28.4716 27.7028 28.4933 27.7229 28.5154C27.7319 28.5254 27.741 28.5355 27.75 28.5461C27.7966 28.5951 27.8563 28.6299 27.922 28.6461C27.9359 28.6658 27.95 28.6859 27.9643 28.7063C28.7173 29.7783 30.0608 31.6909 28.157 32.3671C26.943 32.7961 25.793 32.0131 24.831 31.3131C24.823 31.2881 24.823 31.2581 24.823 31.2331C24.764 30.8331 24.176 30.8891 24.076 31.2331C23.763 32.3501 22.986 33.3201 21.676 33.0811C20.5516 32.7776 19.6851 31.8804 19.421 30.7461C19.4318 30.7188 19.4402 30.6907 19.446 30.6621C19.518 30.3471 19.085 30.0071 18.846 30.3131C18.7479 30.4411 18.6613 30.5761 18.5753 30.7103C18.3564 31.052 18.1409 31.3883 17.746 31.5901C17.3147 31.8118 16.7873 31.7036 16.478 31.3301C16.5281 31.2092 16.5715 31.0857 16.608 30.9601C16.6533 30.7478 16.5254 30.537 16.3162 30.4793C16.1071 30.4215 15.8891 30.5367 15.819 30.7421C15.4466 32.024 14.3075 32.9327 12.9749 33.0108C11.6422 33.089 10.4047 32.3197 9.88502 31.0901C9.89789 31.0599 9.91174 31.0299 9.9257 30.9997C9.94321 30.9618 9.96089 30.9236 9.97702 30.8841C10.141 30.4521 9.40602 30.1331 9.21702 30.5651C8.57102 32.0561 6.89602 33.0981 5.39602 32.0271C3.79202 30.8801 4.56002 28.8811 6.21502 28.3271C6.28012 28.3068 6.33447 28.2615 6.36602 28.2011C6.43325 28.2078 6.49933 28.1801 6.54169 28.1274C6.58405 28.0748 6.59696 28.0043 6.57602 27.9401C5.65202 25.0301 4.82502 22.3121 5.76602 19.2641C6.66445 16.4482 8.8813 14.2486 11.704 13.3721C11.8179 13.337 11.9064 13.2467 11.939 13.1321C12.3762 13.0888 12.8121 13.0378 13.2477 12.9869C14.3317 12.8602 15.415 12.7336 16.517 12.7251C16.3846 13.9279 16.3803 15.1413 16.504 16.3451C16.1196 16.2423 15.7197 16.2111 15.324 16.2531C15.299 16.2581 15.274 16.2911 15.299 16.3121C16.1815 16.8291 17.1077 17.2675 18.067 17.6221C19.088 18.1761 20.0699 18.7992 21.006 19.4871C21.334 19.7181 21.754 19.1841 21.439 18.9241C21.275 18.7902 21.1078 18.6665 20.9375 18.5405C20.9157 18.5244 20.8939 18.5083 20.872 18.4921C20.8758 18.4937 20.8802 18.4937 20.884 18.4921C22.5334 17.6965 24.0783 16.7006 25.484 15.5271C27.1273 17.0892 28.1819 19.1701 28.47 21.4191Z" fill="#222221"/>
<path fill-rule="evenodd" clip-rule="evenodd" d="M26.0944 6.42924C26.0165 6.38491 25.9419 6.34244 25.871 6.302L25.586 6.834C25.6772 6.83882 25.7521 6.90781 25.7643 6.99829C25.7765 7.08877 25.7227 7.17515 25.636 7.204C25.119 7.422 24.59 7.619 24.057 7.804C24.268 8.46989 24.4997 9.12614 24.7312 9.78214C24.9012 10.264 25.0713 10.7457 25.233 11.231C25.955 10.997 26.678 10.79 27.408 10.597C27.4973 10.5722 27.5931 10.5969 27.6593 10.6618C27.7254 10.7267 27.7519 10.822 27.7288 10.9118C27.7056 11.0016 27.6363 11.0722 27.547 11.097C26.821 11.2917 26.103 11.5003 25.393 11.723C25.4075 11.765 25.4223 11.808 25.437 11.851C25.4518 11.894 25.4665 11.937 25.481 11.979C25.556 12.223 25.174 12.387 25.065 12.156C25.0344 12.0961 25.0091 12.0317 24.9832 11.9659C24.9702 11.9329 24.9571 11.8994 24.943 11.866C23.935 12.194 22.9397 12.551 21.957 12.937C22.0361 13.1615 22.1148 13.3859 22.1934 13.6104C22.4031 14.2089 22.6128 14.8075 22.831 15.406C22.8529 15.4648 22.8458 15.5305 22.812 15.5833C22.7782 15.6362 22.7216 15.6701 22.659 15.675L23.066 16.234C23.3082 16.0595 23.5513 15.8868 23.7942 15.7143C24.406 15.2798 25.0158 14.8467 25.602 14.39C26.509 13.685 27.399 12.958 28.281 12.219C28.4335 12.089 28.6168 11.9499 28.8114 11.8023C29.4905 11.2869 30.3065 10.6676 30.427 9.968C30.5957 8.99115 27.6745 7.32855 26.0944 6.42924ZM28.218 10.447C28.327 10.758 27.832 10.888 27.727 10.581C27.458 9.796 27.186 8.989 26.98 8.185C26.929 7.997 27.219 7.862 27.303 8.047C27.643 8.826 27.937 9.647 28.218 10.447Z" fill="#D5B59E"/>
<path fill-rule="evenodd" clip-rule="evenodd" d="M28.512 24.38C28.6081 23.3944 28.5926 22.4011 28.466 21.419C28.1776 19.1722 27.1242 17.0933 25.483 15.532C24.0774 16.7056 22.5324 17.7014 20.883 18.497C20.8792 18.4987 20.8748 18.4987 20.871 18.497L20.8732 18.4986C21.0655 18.64 21.2537 18.7785 21.438 18.929C21.752 19.192 21.333 19.723 21.005 19.492C20.0689 18.8042 19.087 18.1811 18.066 17.627C17.1067 17.2724 16.1805 16.834 15.298 16.317C15.273 16.296 15.298 16.258 15.323 16.258C15.7187 16.216 16.1187 16.2472 16.503 16.35C16.3793 15.1463 16.3836 13.9328 16.516 12.73C15.4136 12.7385 14.33 12.8652 13.246 12.992C12.8108 13.0428 12.3756 13.0937 11.939 13.137C11.9064 13.2516 11.8179 13.3419 11.704 13.377C8.8813 14.2535 6.66445 16.4532 5.76602 19.269C4.82602 22.318 5.65302 25.035 6.57702 27.945C6.59797 28.0092 6.58505 28.0797 6.5427 28.1323C6.50034 28.185 6.43426 28.2127 6.36702 28.206C6.33539 28.2663 6.28107 28.3117 6.21602 28.332C4.56102 28.891 3.79702 30.89 5.39702 32.032C6.90002 33.102 8.57102 32.061 9.21802 30.57C9.40702 30.137 10.142 30.457 9.97802 30.889C9.9608 30.9317 9.94182 30.9727 9.92316 31.013L9.92315 31.013C9.91039 31.0406 9.8978 31.0678 9.88602 31.095C10.4057 32.3246 11.6432 33.0939 12.9759 33.0158C14.3085 32.9376 15.4476 32.0289 15.82 30.747C15.8901 30.5416 16.1081 30.4264 16.3173 30.4842C16.5264 30.542 16.6543 30.7528 16.609 30.965C16.5725 31.0906 16.5291 31.2141 16.479 31.335C16.7883 31.7085 17.3157 31.8167 17.747 31.595C18.1349 31.3982 18.3487 31.0657 18.5665 30.7268C18.6553 30.5887 18.7448 30.4495 18.847 30.318C19.086 30.012 19.518 30.352 19.447 30.667C19.4412 30.6957 19.4328 30.7238 19.422 30.751C19.6861 31.8853 20.5526 32.7825 21.677 33.086C22.989 33.325 23.766 32.355 24.077 31.238C24.173 30.894 24.765 30.838 24.824 31.238C24.832 31.264 24.832 31.293 24.832 31.318C25.794 32.019 26.944 32.8 28.158 32.372C30.0635 31.6956 28.7173 29.7807 27.9644 28.7099L27.923 28.651C27.8573 28.6348 27.7976 28.6001 27.751 28.551C27.7385 28.5355 27.7261 28.5214 27.7141 28.5078L27.7141 28.5078L27.714 28.5077C27.6974 28.4888 27.6815 28.4707 27.667 28.451C27.5152 28.2956 27.5152 28.0474 27.667 27.892L27.73 27.817C27.7959 27.7248 27.9081 27.6776 28.02 27.695C27.9556 27.4457 27.9717 27.1825 28.066 26.943C28.122 26.725 28.176 26.503 28.222 26.28C28.3505 25.6519 28.4473 25.0178 28.512 24.38ZM13.1576 19.1825C12.9595 19.4338 12.6599 19.5838 12.34 19.592V19.593C11.991 19.6357 11.6407 19.524 11.3808 19.287C11.121 19.05 10.9775 18.7115 10.988 18.36C10.9986 18.0534 11.1521 17.7694 11.4029 17.5927C11.6537 17.4159 11.9727 17.3668 12.265 17.46C12.774 17.4675 13.2193 17.8043 13.365 18.292C13.4317 18.6049 13.3557 18.9313 13.1576 19.1825ZM9.56802 22.192C9.90166 21.9922 10.1384 21.6639 10.2226 21.2843C10.3067 20.9046 10.231 20.5071 10.013 20.185C9.81613 19.8905 9.48526 19.7137 9.13102 19.7137C8.77679 19.7137 8.44592 19.8905 8.24902 20.185C8.23394 20.2122 8.2241 20.2421 8.22002 20.273C7.79481 20.553 7.61199 21.0846 7.77502 21.567C7.91253 21.9034 8.18817 22.1643 8.53159 22.2832C8.87501 22.4021 9.25298 22.3674 9.56902 22.188L9.56802 22.192ZM9.13902 17.115C9.4053 17.3427 9.54346 17.6863 9.50902 18.035L9.51302 18.031C9.48274 18.2997 9.33321 18.5406 9.10579 18.687C8.87837 18.8334 8.59719 18.8697 8.34002 18.786C8.0596 18.7253 7.81812 18.5484 7.67567 18.2993C7.53321 18.0503 7.50318 17.7525 7.59302 17.48C7.69977 17.1992 7.91744 16.9748 8.19481 16.8596C8.47218 16.7444 8.78477 16.7485 9.05902 16.871C9.10354 16.8911 9.13755 16.929 9.15277 16.9754C9.16798 17.0218 9.163 17.0724 9.13902 17.115Z" fill="#714F2B"/>
<path d="M28.218 10.447C28.323 10.758 27.832 10.888 27.727 10.581C27.458 9.79604 27.185 8.98904 26.98 8.18104C26.93 7.99204 27.219 7.85804 27.303 8.04304C27.642 8.82904 27.936 9.64504 28.218 10.447Z" fill="#222221"/>
<path fill-rule="evenodd" clip-rule="evenodd" d="M27.7285 10.7836C27.6901 10.6455 27.5471 10.5647 27.409 10.6031C26.677 10.7961 25.955 11.0061 25.233 11.2471C25.0713 10.7615 24.9011 10.2798 24.731 9.79815C24.4992 9.14213 24.2675 8.4861 24.057 7.8201C24.59 7.6311 25.119 7.4341 25.636 7.2201C25.7226 7.19125 25.7765 7.10487 25.7643 7.01439C25.752 6.92391 25.6772 6.85492 25.586 6.8501C25.5694 6.84814 25.5526 6.84814 25.536 6.8501C24.99 6.9801 24.444 7.1271 23.898 7.2871C23.8835 7.23774 23.8676 7.18776 23.8516 7.13741C23.8268 7.05924 23.8017 6.98017 23.781 6.9011C23.7473 6.81035 23.6497 6.76061 23.5565 6.78671C23.4633 6.81282 23.4057 6.90606 23.424 7.0011C23.457 7.1321 23.491 7.2671 23.524 7.4011C22.491 7.7161 21.462 8.0731 20.446 8.4341C20.3734 8.20221 20.2998 7.972 20.2265 7.74269C20.1392 7.46963 20.0523 7.19787 19.968 6.9261C19.9455 6.86502 19.8798 6.83146 19.8171 6.84896C19.7544 6.86647 19.7156 6.92918 19.728 6.9931C19.8459 7.44692 19.9707 7.89766 20.0963 8.35142C20.1135 8.41358 20.1308 8.4758 20.148 8.5381L18.603 9.0841C18.5448 9.101 18.5 9.1474 18.485 9.2061C18.4623 9.26845 18.4764 9.33825 18.5215 9.38693C18.5666 9.4356 18.6351 9.45497 18.699 9.4371C19.0947 9.31976 19.4958 9.20478 19.898 9.08944C20.0203 9.05438 20.1426 9.01929 20.265 8.9841C20.613 10.2201 20.987 11.4491 21.387 12.6711C20.635 12.9941 19.892 13.3381 19.157 13.7121C19.0053 13.206 18.8834 12.6915 18.792 12.1711C18.762 12.0091 18.506 12.0461 18.506 12.2091C18.5249 12.7867 18.6037 13.3608 18.741 13.9221C18.7039 13.9439 18.6655 13.9629 18.6273 13.9818C18.6005 13.995 18.5739 14.0081 18.548 14.0221C18.342 14.1331 18.523 14.4331 18.733 14.3331C18.766 14.3201 18.799 14.3041 18.833 14.2871C19.0213 14.9647 19.3102 15.6102 19.69 16.2021C19.743 16.2823 19.8492 16.3075 19.9326 16.2596C20.0159 16.2117 20.0476 16.1073 20.005 16.0211C19.719 15.3611 19.472 14.7321 19.266 14.0891C20.016 13.7464 20.7733 13.4218 21.538 13.1151C21.811 13.9261 22.095 14.7341 22.395 15.5341C22.4354 15.6414 22.5476 15.7036 22.66 15.6811C22.7226 15.6762 22.7792 15.6423 22.813 15.5894C22.8468 15.5366 22.8538 15.4709 22.832 15.4121C22.6117 14.8057 22.399 14.1992 22.1863 13.5928C22.1103 13.3762 22.0343 13.1597 21.958 12.9431C22.9413 12.5571 23.9367 12.2001 24.944 11.8721C24.96 11.9091 24.9749 11.9466 24.9897 11.984C25.0137 12.0448 25.0375 12.1052 25.066 12.1621C25.175 12.3921 25.557 12.2291 25.482 11.9851C25.4675 11.9431 25.4528 11.9001 25.438 11.8571C25.4233 11.8141 25.4085 11.7711 25.394 11.7291C26.1033 11.5051 26.8213 11.2964 27.548 11.1031C27.6861 11.0647 27.7669 10.9217 27.7285 10.7836ZM23.664 7.9451C23.9447 9.11898 24.3052 10.2723 24.743 11.3971L24.741 11.3961C23.746 11.7281 22.767 12.0891 21.804 12.4861C21.39 11.2921 20.981 10.0951 20.59 8.8861C21.619 8.5921 22.652 8.2851 23.664 7.9451Z" fill="#222221"/>
<path fill-rule="evenodd" clip-rule="evenodd" d="M26.324 33.3471C26.3608 33.2441 26.4381 33.1606 26.538 33.1161C25.8938 32.8654 25.2946 32.5114 24.764 32.0681C24.3187 33.2571 23.1606 34.026 21.892 33.9751C20.516 33.8441 19.3629 32.8787 18.992 31.5471C18.5885 32.0863 17.9648 32.4165 17.292 32.4471C16.872 32.4348 16.4731 32.2602 16.179 31.9601C14.699 34.4671 10.73 34.4911 9.47903 31.7831C9.03611 32.389 8.42421 32.8506 7.72003 33.1101C8.56722 35.0389 9.21459 37.0494 9.65203 39.1101C10.2567 41.1835 10.874 43.2551 11.504 45.3251C12.1687 47.5231 12.8477 49.7181 13.541 51.9101C13.6525 52.2625 13.7618 52.7162 13.883 53.2196L13.883 53.2196L13.883 53.2197C14.3596 55.1992 15.0211 57.9466 16.732 58.3181C18.1657 57.5151 18.7892 55.3292 19.2883 53.5795C19.4207 53.1154 19.5443 52.6819 19.672 52.3131C20.3847 50.2465 21.1 48.1798 21.818 46.1131C22.1876 45.0427 22.5518 43.969 22.9163 42.8948C24.0016 39.6959 25.0888 36.4912 26.324 33.3471ZM21.813 38.1891C22.144 38.4531 21.661 38.9571 21.338 38.6631H21.34C20.7164 38.0975 20.0802 37.5435 19.4409 36.9869L19.4408 36.9868L19.409 36.9591C19.3651 36.9197 19.2788 36.835 19.1648 36.7229C18.6251 36.1928 17.4625 35.0507 17.209 35.2001C17.1372 35.2373 17.049 35.2176 16.9997 35.1534C16.9505 35.0891 16.9544 34.9989 17.009 34.9391C17.4223 34.5184 17.9865 35.0409 18.3778 35.4032L18.3778 35.4032L18.3779 35.4033C18.459 35.4784 18.5327 35.5466 18.596 35.5981C18.9137 35.8547 19.2306 36.1123 19.5476 36.3701L19.5476 36.3701L19.5477 36.3701C20.2994 36.9813 21.0513 37.5926 21.813 38.1891ZM20.721 42.8791C20.965 42.5981 20.562 42.1861 20.31 42.4681C19.974 42.8411 19.638 43.2191 19.31 43.5931C17.979 42.2451 16.627 40.9141 15.27 39.5871C16.177 38.5411 17.13 37.5421 18.142 36.5671C18.39 36.3321 18.025 35.9671 17.773 36.1931C16.7353 37.1245 15.7749 38.1385 14.901 39.2251L14.8932 39.2174C13.8878 38.233 12.8865 37.2525 11.901 36.2561C11.733 36.0881 11.485 36.3401 11.645 36.5121C12.5977 37.5701 13.5644 38.6255 14.545 39.6781C14.104 40.2491 13.684 40.8331 13.294 41.4251C13.16 41.6311 13.475 41.7951 13.613 41.6101C14.025 41.0721 14.449 40.5521 14.881 40.0391C16.181 41.4251 17.51 42.7811 18.881 44.0791C18.0704 44.9945 17.2667 45.9185 16.47 46.8511C15.416 45.7301 14.383 44.5921 13.341 43.4411C13.206 43.2861 12.941 43.4871 13.055 43.6601C13.9478 44.9737 14.939 46.2176 16.02 47.3811C15.6127 47.8558 15.211 48.3345 14.815 48.8171C14.656 49.0101 14.915 49.2831 15.092 49.0941C15.3766 48.7954 15.6594 48.4923 15.9416 48.1897C16.0798 48.0415 16.2179 47.8934 16.356 47.7461C17.074 48.5021 17.818 49.2241 18.578 49.9051C18.872 50.1691 19.3 49.7491 19.014 49.4681C18.267 48.7331 17.545 47.9811 16.83 47.2301C17.666 46.3188 18.4947 45.4018 19.316 44.4791C19.4464 44.5705 19.6246 44.5494 19.7301 44.4301C19.8356 44.3108 19.8347 44.1313 19.728 44.0131C19.9995 43.6993 20.2773 43.384 20.5532 43.0708L20.5535 43.0705L20.722 42.8791H20.721ZM17.375 53.7181C17.53 53.9201 17.211 54.1301 17.043 53.9741H17.044C16.241 53.1898 15.4888 52.3551 14.792 51.4751C14.641 51.2951 14.885 51.0341 15.061 51.2111C15.8841 51.9975 16.657 52.8348 17.375 53.7181Z" fill="#D5B59E"/>
<path d="M25.87 6.3021L25.585 6.8441C25.5684 6.84212 25.5517 6.84212 25.535 6.8441C24.989 6.9741 24.443 7.1211 23.897 7.2811C23.859 7.1551 23.813 7.0251 23.78 6.8951C23.7464 6.80435 23.6487 6.7546 23.5555 6.78071C23.4623 6.80682 23.4047 6.90006 23.423 6.9951C23.457 7.1251 23.49 7.2601 23.523 7.3951C22.49 7.7101 21.461 8.0671 20.445 8.4281C20.286 7.9281 20.122 7.4281 19.967 6.9201C19.9445 6.85901 19.8789 6.82546 19.8162 6.84296C19.7534 6.86047 19.7147 6.92318 19.727 6.9871C19.862 7.5041 20.004 8.0161 20.147 8.5321L18.602 9.0781C18.5439 9.09499 18.499 9.1414 18.484 9.2001L18.131 9.1161C18.6318 7.05428 19.2665 5.02731 20.031 3.0481C20.044 3.0561 20.048 3.0691 20.065 3.0771C21.865 3.9881 23.63 4.9541 25.352 6.0001C25.484 6.0881 25.661 6.1881 25.87 6.3021Z" fill="#D5B59E"/>
<path d="M23.662 7.948C23.9427 9.12188 24.3032 10.2752 24.741 11.4C23.741 11.732 22.767 12.093 21.801 12.492C21.386 11.292 20.978 10.098 20.587 8.892C21.617 8.591 22.65 8.284 23.662 7.948Z" fill="#D5B59E"/>
<path d="M22.658 15.671L23.065 16.23C22.2133 16.8232 21.4022 17.4726 20.637 18.174C20.6049 18.2037 20.584 18.2437 20.578 18.287C19.8854 17.816 19.1518 17.4084 18.386 17.069C17.8971 16.8386 17.3964 16.634 16.886 16.456C17.449 14.142 17.533 11.715 18.066 9.37603C18.087 9.28803 18.108 9.19903 18.129 9.11603L18.482 9.20003C18.4594 9.26238 18.4734 9.33218 18.5185 9.38086C18.5636 9.42953 18.6321 9.4489 18.696 9.43103C19.213 9.27603 19.737 9.13103 20.262 8.97803C20.6107 10.2127 20.9847 11.4417 21.384 12.665C20.632 12.988 19.884 13.333 19.154 13.706C19.0024 13.1999 18.8805 12.6854 18.789 12.165C18.76 12.001 18.499 12.039 18.503 12.203C18.5219 12.7806 18.6007 13.3547 18.738 13.916C18.675 13.95 18.608 13.979 18.545 14.016C18.339 14.125 18.52 14.427 18.73 14.327C18.763 14.314 18.797 14.298 18.83 14.281C19.0183 14.9586 19.3072 15.6041 19.687 16.196C19.74 16.2762 19.8462 16.3014 19.9296 16.2535C20.0129 16.2056 20.0447 16.1012 20.002 16.015C19.716 15.356 19.469 14.726 19.263 14.083C20.015 13.7384 20.7724 13.4137 21.535 13.109C21.808 13.92 22.089 14.726 22.392 15.528C22.434 15.6342 22.5464 15.6946 22.658 15.671Z" fill="#D5B59E"/>
<path d="M21.813 38.188C22.145 38.453 21.662 38.956 21.339 38.663C20.705 38.088 20.058 37.525 19.416 36.963C19.16 36.736 17.516 35.023 17.216 35.204C17.1442 35.2411 17.056 35.2214 17.0067 35.1572C16.9575 35.093 16.9614 35.0027 17.016 34.943C17.516 34.435 18.234 35.304 18.603 35.602C19.667 36.462 20.73 37.339 21.813 38.188Z" fill="#222221"/>
<path d="M20.31 42.468C20.562 42.186 20.965 42.598 20.721 42.879C20.389 43.257 20.053 43.635 19.721 44.013C19.8277 44.1312 19.8286 44.3107 19.7231 44.43C19.6176 44.5493 19.4394 44.5704 19.309 44.479C18.4864 45.4023 17.6577 46.3193 16.823 47.23C17.537 47.982 18.259 48.73 19.007 49.468C19.293 49.749 18.864 50.168 18.571 49.905C17.811 49.225 17.071 48.505 16.349 47.746C15.929 48.196 15.509 48.646 15.085 49.094C14.908 49.283 14.648 49.01 14.808 48.817C15.2027 48.3343 15.6044 47.8557 16.013 47.381C14.932 46.2175 13.9408 44.9736 13.048 43.66C12.931 43.488 13.199 43.286 13.334 43.441C14.375 44.592 15.409 45.73 16.463 46.851C17.263 45.9177 18.0667 44.9937 18.874 44.079C17.5 42.779 16.174 41.425 14.874 40.039C14.442 40.552 14.017 41.072 13.606 41.61C13.468 41.795 13.153 41.631 13.287 41.425C13.677 40.833 14.097 40.249 14.538 39.678C13.56 38.628 12.5934 37.5727 11.638 36.512C11.478 36.34 11.726 36.088 11.894 36.256C12.885 37.256 13.889 38.238 14.894 39.225C15.7679 38.1384 16.7283 37.1244 17.766 36.193C18.018 35.966 18.383 36.332 18.135 36.567C17.123 37.541 16.17 38.541 15.263 39.587C16.619 40.914 17.971 42.245 19.303 43.593C19.638 43.219 19.974 42.841 20.31 42.468Z" fill="#222221"/>
<path d="M17.376 53.718C17.531 53.918 17.212 54.129 17.044 53.974C16.2413 53.1893 15.4895 52.3543 14.793 51.474C14.642 51.293 14.885 51.033 15.062 51.21C15.8851 51.9966 16.658 52.8343 17.376 53.718Z" fill="#222221"/>
<path d="M17.119 58.6601C17.064 58.6771 17.01 58.6941 16.951 58.7061C16.9096 58.7828 16.832 58.8333 16.745 58.8401C15.468 58.9321 14.788 57.9291 14.313 56.8491C13.3116 54.2961 12.4563 51.6882 11.751 49.0381C10.907 46.3254 10.0854 43.6084 9.28604 40.8871C8.57204 38.4481 7.44704 35.7871 7.32104 33.2231L7.72104 33.1101C8.56822 35.0389 9.21559 37.0494 9.65304 39.1101C10.2617 41.1848 10.879 43.2564 11.505 45.3251C12.1684 47.5251 12.8474 49.7201 13.542 51.9101C14.092 53.6481 14.587 57.8521 16.733 58.3181L17.119 58.6601Z" fill="#222221"/>
<path fill-rule="evenodd" clip-rule="evenodd" d="M13.1536 19.1865C13.3517 18.9353 13.4277 18.6089 13.361 18.296C13.2153 17.8101 12.7722 17.4741 12.265 17.465C11.9727 17.3718 11.6536 17.4209 11.4029 17.5977C11.1521 17.7744 10.9986 18.0584 10.988 18.365C10.9783 18.7153 11.1215 19.0526 11.3803 19.289C11.6391 19.5253 11.988 19.6374 12.336 19.596C12.6559 19.5878 12.9555 19.4378 13.1536 19.1865ZM12.911 18.304C13.099 18.703 12.785 19.043 12.399 19.123H12.403C12.0277 19.2233 11.6368 19.0263 11.494 18.665C11.3655 18.352 11.4953 17.9927 11.794 17.834C11.8053 17.8816 11.8372 17.9218 11.881 17.9437C11.9249 17.9655 11.9762 17.9667 12.021 17.947C12.1863 17.8752 12.3734 17.8725 12.5406 17.9396C12.7078 18.0067 12.8412 18.1379 12.911 18.304Z" fill="#222221"/>
<path d="M12.915 18.304C13.1 18.704 12.789 19.043 12.403 19.123C12.0306 19.2181 11.6453 19.0221 11.503 18.665C11.3746 18.3521 11.5043 17.9927 11.803 17.834C11.8143 17.8816 11.8462 17.9218 11.8901 17.9437C11.9339 17.9655 11.9852 17.9667 12.03 17.947C12.1947 17.8767 12.3806 17.8749 12.5466 17.9419C12.7126 18.0089 12.8452 18.1391 12.915 18.304Z" fill="#FAF19C"/>
<path fill-rule="evenodd" clip-rule="evenodd" d="M10.2235 21.2805C10.3077 20.9008 10.2319 20.5032 10.014 20.1812C9.81643 19.8871 9.48516 19.7111 9.13092 19.7119C8.77669 19.7127 8.44622 19.8903 8.24999 20.1852C8.23488 20.2124 8.22504 20.2423 8.22099 20.2732C7.79578 20.5532 7.61296 21.0848 7.77599 21.5672C7.91353 21.9033 8.189 22.164 8.53216 22.2829C8.87532 22.4017 9.25303 22.3672 9.56899 22.1882C9.90263 21.9884 10.1393 21.6601 10.2235 21.2805ZM9.63199 20.5342C9.85396 20.9313 9.73948 21.432 9.36699 21.6932C9.02886 21.9252 8.56792 21.8493 8.32199 21.5212C8.18137 21.3147 8.16143 21.049 8.26967 20.8238C8.37791 20.5987 8.59792 20.4483 8.84699 20.4292C8.89269 20.4267 8.93532 20.4055 8.96471 20.3704C8.9941 20.3353 9.0076 20.2896 9.00199 20.2442C9.25352 20.1862 9.51249 20.3054 9.63199 20.5342Z" fill="#222221"/>
<path d="M9.631 20.534C9.85296 20.9311 9.73849 21.4318 9.366 21.693C9.02767 21.9257 8.566 21.8498 8.32 21.521C8.17937 21.3145 8.15943 21.0488 8.26767 20.8237C8.37591 20.5985 8.59592 20.4481 8.845 20.429C8.89069 20.4266 8.93333 20.4053 8.96272 20.3702C8.99211 20.3351 9.00561 20.2894 9 20.244C9.25185 20.1855 9.51139 20.3048 9.631 20.534Z" fill="#FAF19C"/>
<path fill-rule="evenodd" clip-rule="evenodd" d="M9.51003 18.0311C9.54447 17.6824 9.40631 17.3389 9.14003 17.1111C9.16372 17.0688 9.16867 17.0185 9.15367 16.9723C9.13867 16.9262 9.10509 16.8884 9.06103 16.8681C8.78678 16.7456 8.47419 16.7415 8.19682 16.8567C7.91944 16.972 7.70177 17.1964 7.59503 17.4771C7.50518 17.7496 7.53522 18.0474 7.67768 18.2965C7.82013 18.5455 8.06161 18.7224 8.34203 18.7831C8.59809 18.865 8.87736 18.8281 9.10341 18.6826C9.32945 18.5371 9.4786 18.2981 9.51003 18.0311ZM8.62803 17.3371C9.24103 17.4841 9.17703 18.5131 8.47703 18.2951H8.47603C8.33755 18.2652 8.21793 18.1786 8.14628 18.0564C8.07462 17.9342 8.05748 17.7876 8.09903 17.6521C8.17493 17.4659 8.33372 17.326 8.52803 17.2741C8.55263 17.3065 8.58817 17.3289 8.62803 17.3371Z" fill="#222221"/>
<path d="M8.62803 17.3381C9.24103 17.4851 9.17403 18.5141 8.47703 18.2961C8.33836 18.2665 8.2185 18.18 8.14664 18.0578C8.07477 17.9355 8.0575 17.7887 8.09903 17.6531C8.17493 17.4669 8.33372 17.327 8.52803 17.2751C8.55263 17.3076 8.58817 17.33 8.62803 17.3381Z" fill="#FAF19C"/>
</svg>
