<svg width="24" height="24" viewBox="0 0 24 24" fill="none" xmlns="http://www.w3.org/2000/svg">
<rect width="24" height="24" rx="12" fill="black" fill-opacity="0.26"/>
<path d="M16.8438 16.5793C16.6562 16.7668 16.3125 16.7668 16.125 16.5793L12 12.4231L7.84375 16.5793C7.65625 16.7668 7.3125 16.7668 7.125 16.5793C6.9375 16.3918 6.9375 16.0481 7.125 15.8606L11.2812 11.7043L7.125 7.57935C6.9375 7.39185 6.9375 7.0481 7.125 6.8606C7.3125 6.6731 7.65625 6.6731 7.84375 6.8606L12 11.0168L16.125 6.8606C16.3125 6.6731 16.6562 6.6731 16.8438 6.8606C17.0312 7.0481 17.0312 7.39185 16.8438 7.57935L12.6875 11.7043L16.8438 15.8606C17.0312 16.0481 17.0312 16.3918 16.8438 16.5793Z" fill="#F8F8F8"/>
</svg>
