<svg width="16" height="15" viewBox="0 0 16 15" fill="none" xmlns="http://www.w3.org/2000/svg">
<path fill-rule="evenodd" clip-rule="evenodd" d="M3.6164 0.175049H2.79311C2.59661 0.239644 2.47832 0.439232 2.51634 0.642049C2.51882 0.775885 2.51773 0.90989 2.51664 1.04386C2.51507 1.2352 2.51351 1.42647 2.52236 1.61705C2.53239 1.81705 2.45618 1.86905 2.26765 1.86205C2.08737 1.85541 1.90708 1.85673 1.72679 1.85805C1.58117 1.85911 1.43556 1.86018 1.28994 1.85705C1.08973 1.82323 0.894846 1.9406 0.831665 2.13305V2.95405C0.903817 3.14207 1.09886 3.25333 1.29796 3.22005C1.4227 3.21596 1.54845 3.21789 1.6741 3.21983C1.85553 3.22262 2.03677 3.22541 2.21451 3.21005C2.48125 3.18705 2.52236 3.29405 2.52236 3.53105V10.473V12.114C2.52236 12.665 2.55545 12.696 3.12403 12.696C3.75695 12.696 4.38987 12.6962 5.02279 12.6964C7.23778 12.6971 9.45277 12.6978 11.6678 12.69C11.9475 12.689 12.0669 12.747 12.0358 13.047C12.0192 13.2069 12.0228 13.3686 12.0264 13.5305C12.0291 13.6532 12.0318 13.776 12.0258 13.898C11.9887 14.101 12.1003 14.3018 12.2925 14.378H13.1158C13.3118 14.3135 13.43 14.1145 13.3926 13.912C13.3901 13.7782 13.3912 13.6442 13.3923 13.5102C13.3938 13.3189 13.3954 13.1276 13.3865 12.937C13.3765 12.737 13.4527 12.685 13.6412 12.692C13.8215 12.6987 14.0018 12.6974 14.1821 12.6961C14.3277 12.695 14.4733 12.6939 14.619 12.697C14.8193 12.7313 15.0144 12.6138 15.0772 12.421V11.6C15.0054 11.4118 14.8101 11.3004 14.6109 11.334C14.4883 11.3377 14.3646 11.3356 14.2411 11.3336C14.0575 11.3305 13.8742 11.3275 13.6944 11.343C13.4277 11.366 13.3865 11.259 13.3865 11.022V4.08005V2.43905C13.3865 1.88805 13.3534 1.85705 12.7849 1.85705C12.152 1.85705 11.5191 1.85685 10.8862 1.85665C8.67121 1.85596 6.45617 1.85527 4.24114 1.86305C3.96136 1.86405 3.84203 1.80605 3.87311 1.50605C3.88965 1.34623 3.88608 1.18447 3.88251 1.02261C3.8798 0.899883 3.87709 0.777094 3.88314 0.655049C3.92023 0.452114 3.80862 0.251263 3.6164 0.175049ZM3.88078 8.19791C3.88047 7.87991 3.88016 7.56192 3.88016 7.24394C3.88016 6.93119 3.88047 6.61844 3.88078 6.30569C3.88172 5.36744 3.88266 4.42919 3.87514 3.49094C3.87314 3.26894 3.93531 3.21094 4.15692 3.21094C6.68729 3.21894 9.21765 3.21894 11.748 3.21094C11.9706 3.21094 12.0288 3.27094 12.0288 3.49194C12.0208 6.01527 12.0208 8.5386 12.0288 11.0619C12.0288 11.2839 11.9686 11.3419 11.747 11.3419C9.21665 11.3339 6.68628 11.3339 4.15592 11.3419C3.9333 11.3429 3.87514 11.2819 3.87514 11.0609C3.88266 10.1062 3.88172 9.15197 3.88078 8.19791Z" fill="white"/>
</svg>
