<svg width="40" height="30" viewBox="0 0 40 30" fill="none" xmlns="http://www.w3.org/2000/svg">
<path d="M10.6223 14.6524C11.9094 14.0249 13.3177 13.6854 14.7493 13.6574H32.1813V10.3054C32.166 7.71934 30.0734 5.62669 27.4873 5.6114H16.0903V4.9414C16.1061 3.69444 15.6056 2.49646 14.7073 1.6314C13.8422 0.733262 12.6443 0.232734 11.3973 0.248404H4.69732C3.45038 0.232734 2.25244 0.733262 1.38732 1.6314C0.487602 2.49577 -0.0144308 3.69385 0.000315956 4.9414V25.0544C0.000315956 25.1104 0.00398262 25.1977 0.011316 25.3164C0.018316 25.4354 0.022316 25.5224 0.022316 25.5784L0.122316 25.4534L7.18332 17.1534C8.13221 16.0775 9.30633 15.2236 10.6223 14.6524Z" fill="#3A3A3A"/>
<path d="M38.8125 16.6114C38.4169 16.4238 37.9833 16.3304 37.5455 16.3384H14.7505C13.7067 16.3676 12.6815 16.6214 11.7445 17.0824C10.7796 17.4929 9.91766 18.1121 9.22053 18.8954L2.18053 27.1954C1.80228 27.5615 1.57108 28.0535 1.53053 28.5784C1.51069 28.9645 1.73159 29.3227 2.08553 29.4784C2.48146 29.666 2.91546 29.7595 3.35353 29.7514H26.1535C27.1973 29.722 28.2225 29.4682 29.1595 29.0074C30.1244 28.5968 30.9864 27.9777 31.6835 27.1944L38.7235 18.8944C39.1015 18.5281 39.3323 18.0361 39.3725 17.5114C39.3918 17.1239 39.1686 16.7652 38.8125 16.6114Z" fill="#3A3A3A"/>
</svg>
