<svg width="18" height="15" viewBox="0 0 18 15" fill="none" xmlns="http://www.w3.org/2000/svg">
<path fill-rule="evenodd" clip-rule="evenodd" d="M4.76612 0.144531H16.5709C17.2745 0.146175 17.8447 0.713938 17.8475 1.41553V8.72953C17.8447 9.43035 17.2757 9.99779 16.5729 10.0005H15.4398V11.5705C15.4406 11.679 15.3977 11.7832 15.3208 11.8599C15.2439 11.9366 15.1394 11.9793 15.0306 11.9785C14.9227 11.977 14.8201 11.9315 14.7468 11.8525L12.9057 10.0005H4.76612C4.06335 9.99779 3.49433 9.43035 3.49158 8.72953V1.41553C3.49433 0.714716 4.06335 0.147272 4.76612 0.144531ZM5.39592 5.26147C5.39592 5.91151 5.92435 6.43847 6.5762 6.43847C7.226 6.43357 7.75156 5.90947 7.75648 5.26147C7.75648 4.61143 7.22805 4.08447 6.5762 4.08447C5.92435 4.08447 5.39592 4.61143 5.39592 5.26147ZM10.7156 6.43847C10.0638 6.43847 9.53535 5.91151 9.53535 5.26147C9.53535 4.61143 10.0638 4.08447 10.7156 4.08447C11.3675 4.08447 11.8959 4.61143 11.8959 5.26147C11.891 5.90947 11.3654 6.43357 10.7156 6.43847ZM13.6589 5.26147C13.6589 5.91151 14.1873 6.43847 14.8391 6.43847C15.4889 6.43357 16.0145 5.90947 16.0194 5.26147C16.0194 4.61143 15.491 4.08447 14.8391 4.08447C14.1873 4.08447 13.6589 4.61143 13.6589 5.26147Z" fill="white"/>
<path d="M2.76751 8.75977V6.25977H1.47692C1.01728 6.2625 0.645342 6.6334 0.642604 7.09177V11.8918C0.63212 12.1183 0.715604 12.3391 0.873435 12.5024C1.03127 12.6657 1.24953 12.7569 1.47692 12.7548H2.21698V13.7908C2.22117 13.9365 2.33862 14.0536 2.48472 14.0578C2.55558 14.0584 2.62364 14.0302 2.67324 13.9798L3.88561 12.7708H9.23647C9.69612 12.768 10.0681 12.3971 10.0708 11.9388V10.7458H4.76706C3.66722 10.7425 2.7752 9.85653 2.76751 8.75977Z" fill="white"/>
</svg>
