<svg width="17" height="12" viewBox="0 0 17 12" fill="none" xmlns="http://www.w3.org/2000/svg">
<path d="M11.0814 0.719707C9.56621 0.719707 8.052 0.714707 6.53679 0.719707C6.03123 0.709315 5.58525 1.04795 5.4608 1.53671C5.32274 2.00489 5.51887 2.50701 5.93813 2.75871C6.13625 2.86863 6.35826 2.9287 6.58493 2.93371C9.58593 2.94504 12.5873 2.94704 15.5889 2.93971C15.9001 2.96496 16.2077 2.8587 16.4365 2.64686C16.6653 2.43502 16.7944 2.13707 16.7923 1.82571C16.7918 1.5156 16.6617 1.21973 16.4334 1.00926C16.205 0.798784 15.899 0.692767 15.5889 0.716707C14.0828 0.714707 12.5816 0.718707 11.0814 0.719707Z" fill="white"/>
<path d="M11.1145 7.40072C12.6006 7.40072 14.0867 7.40072 15.5739 7.40072C15.8846 7.4333 16.1946 7.33293 16.4269 7.12454C16.6592 6.91616 16.792 6.61931 16.7922 6.30772C16.7966 5.99682 16.6703 5.69827 16.444 5.48438C16.2177 5.27048 15.912 5.16074 15.6009 5.18172C12.5993 5.17706 9.59792 5.17706 6.59692 5.18172C6.02776 5.14544 5.52471 5.5478 5.4367 6.10972C5.34198 6.63684 5.64491 7.15458 6.15168 7.33172C6.32916 7.38271 6.51362 7.40532 6.6982 7.39872C8.17029 7.40272 9.64238 7.40072 11.1145 7.40072Z" fill="white"/>
<path d="M11.1226 11.8617C12.6378 11.8617 14.152 11.8687 15.6672 11.8617C16.2389 11.8845 16.7289 11.4578 16.7833 10.8897C16.8522 10.3446 16.5072 9.83227 15.975 9.68973C15.8648 9.66075 15.7511 9.64663 15.6371 9.64773C12.622 9.64773 9.60667 9.64773 6.59096 9.64773C6.14941 9.62292 5.73645 9.86614 5.54506 10.2637C5.34899 10.6259 5.38024 11.0685 5.62528 11.3997C5.84836 11.7245 6.2285 11.9057 6.62205 11.8747C8.12121 11.8587 9.62138 11.8617 11.1226 11.8617Z" fill="white"/>
<path d="M2.54957 2.94174C2.82133 2.94174 3.09409 2.95474 3.36484 2.94174C3.9665 2.9158 4.43769 2.4162 4.42679 1.81574C4.41928 1.2312 3.95459 0.754612 3.36885 0.730744C2.8113 0.708744 2.25175 0.707744 1.6952 0.730744C1.10775 0.754596 0.648495 1.24465 0.664338 1.83074C0.649406 2.41621 1.10471 2.90705 1.69119 2.93774C1.97598 2.95674 2.26278 2.93774 2.54957 2.93774V2.94174Z" fill="white"/>
<path d="M2.56764 11.8607C2.82536 11.8607 3.08307 11.8707 3.33979 11.8607C3.94272 11.852 4.42687 11.3621 4.42681 10.7607C4.43524 10.1582 3.95593 9.66103 3.35182 9.64575C2.80931 9.62575 2.2648 9.62475 1.72129 9.64575C1.43133 9.65355 1.15658 9.7768 0.958369 9.98799C0.760158 10.1992 0.654997 10.4807 0.666361 10.7697C0.663134 11.0586 0.776289 11.3366 0.980454 11.5416C1.18462 11.7465 1.46271 11.8611 1.75238 11.8597C2.02413 11.8697 2.29589 11.8607 2.56764 11.8607Z" fill="white"/>
<path d="M2.53054 7.39884C2.8023 7.39884 3.07506 7.40784 3.34581 7.39884C3.94638 7.38686 4.42693 6.89786 4.42681 6.29884C4.43104 5.71352 3.97487 5.22741 3.38893 5.19284C2.81734 5.16684 2.24375 5.16684 1.67216 5.19284C1.08612 5.23142 0.639609 5.73191 0.669374 6.31684C0.666395 6.90187 1.13188 7.38248 1.71829 7.39984C1.98703 7.40884 2.25879 7.39884 2.53054 7.39884Z" fill="white"/>
</svg>
