<svg width="23" height="17" viewBox="0 0 23 17" fill="none" xmlns="http://www.w3.org/2000/svg">
<path d="M20.744 7.17355C19.5065 7.17355 18.544 8.20926 18.544 9.45926H5.34397C5.34397 8.20926 4.34709 7.17355 3.14397 7.17355C1.90647 7.17355 0.94397 8.20926 0.94397 9.45926V15.1735C0.94397 15.8164 1.42522 16.3164 2.04397 16.3164H4.24397C4.82834 16.3164 5.34397 15.8164 5.34397 15.1735H18.544C18.544 15.8164 19.0252 16.3164 19.644 16.3164H21.844C22.4283 16.3164 22.944 15.8164 22.944 15.1735V9.45926C22.944 8.20926 21.9471 7.17355 20.744 7.17355ZM3.69397 14.6021H2.59397V9.45926C2.59397 9.17355 2.83459 8.88784 3.14397 8.88784C3.41897 8.88784 3.69397 9.17355 3.69397 9.45926V14.6021ZM18.544 13.4593H5.34397V11.1735H18.544V13.4593ZM21.294 14.6021H20.194V9.45926C20.194 9.17355 20.4346 8.88784 20.744 8.88784C21.019 8.88784 21.294 9.17355 21.294 9.45926V14.6021ZM3.96897 6.03069C4.41584 6.03069 4.79397 5.67355 4.79397 5.17355V4.60212C4.79397 3.20926 5.89397 2.03069 7.26897 2.03069H16.619C17.9596 2.03069 19.094 3.20926 19.094 4.60212V5.17355C19.094 5.67355 19.4377 6.03069 19.919 6.03069C20.3658 6.03069 20.744 5.67355 20.744 5.17355V4.60212C20.744 2.24498 18.8877 0.316406 16.619 0.316406H7.26897C4.96584 0.316406 3.14397 2.24498 3.14397 4.60212V5.17355C3.14397 5.67355 3.48772 6.03069 3.96897 6.03069Z" fill="white"/>
</svg>
