<svg width="12" height="13" viewBox="0 0 12 13" fill="none" xmlns="http://www.w3.org/2000/svg">
<path d="M11.963 11.3059C11.9635 11.5999 11.7866 11.8653 11.515 11.9778C11.2434 12.0904 10.9306 12.0281 10.723 11.8199L6.15298 7.2479L1.58198 11.8189C1.29839 12.1025 0.838582 12.1025 0.554984 11.8189C0.271386 11.5353 0.271386 11.0755 0.554984 10.7919L5.64198 5.7089C5.92588 5.42508 6.38609 5.42508 6.66998 5.7089L11.75 10.7919C11.8867 10.928 11.9634 11.113 11.963 11.3059Z" fill="white"/>
<path d="M11.963 6.56566C11.9635 6.8597 11.7866 7.12502 11.515 7.23761C11.2434 7.35021 10.9306 7.28784 10.723 7.07966L6.15298 2.50766L1.58198 7.07866C1.29839 7.36226 0.838582 7.36226 0.554984 7.07866C0.271386 6.79507 0.271386 6.33526 0.554984 6.05166L5.64198 0.968665C5.92588 0.684842 6.38609 0.684842 6.66998 0.968665L11.75 6.05166C11.8867 6.18773 11.9634 6.37278 11.963 6.56566Z" fill="white"/>
</svg>
