<svg width="24" height="24" viewBox="0 0 24 24" fill="none" xmlns="http://www.w3.org/2000/svg">
<rect width="24" height="24" rx="12" fill="black" fill-opacity="0.26"/>
<path d="M15.5725 12C15.5725 13.9018 13.96 15.4286 12.0139 15.4286C10.04 15.4286 8.45526 13.9018 8.45526 12C8.45526 10.125 10.04 8.57143 12.0139 8.57143C13.96 8.57143 15.5725 10.125 15.5725 12ZM12.0139 9.42857C10.5126 9.42857 9.34492 10.5804 9.34492 12C9.34492 13.4196 10.5126 14.5714 12.0139 14.5714C13.4874 14.5714 14.6829 13.4196 14.6829 12C14.6829 10.5804 13.4874 9.42857 12.0139 9.42857ZM17.3519 8.16964C18.6586 9.32143 19.5204 10.7143 19.9374 11.6786C20.0209 11.8929 20.0209 12.1339 19.9374 12.3482C19.5204 13.2857 18.6586 14.6786 17.3519 15.8571C16.0452 17.0357 14.2381 18 12.0139 18C9.76195 18 7.95482 17.0357 6.64813 15.8571C5.34144 14.6786 4.47958 13.2857 4.06255 12.3482C3.97915 12.1339 3.97915 11.8929 4.06255 11.6786C4.47958 10.7143 5.34144 9.32143 6.64813 8.16964C7.95482 6.99107 9.76195 6 12.0139 6C14.2381 6 16.0452 6.99107 17.3519 8.16964ZM4.89661 12C5.25804 12.8571 6.06429 14.1429 7.25977 15.2143C8.45526 16.2857 10.04 17.1429 12.0139 17.1429C13.96 17.1429 15.5447 16.2857 16.7402 15.2143C17.9357 14.1429 18.742 12.8571 19.1312 12C18.742 11.1429 17.9357 9.85714 16.7402 8.78571C15.5447 7.71429 13.96 6.85714 12.0139 6.85714C10.04 6.85714 8.45526 7.71429 7.25977 8.78571C6.06429 9.85714 5.25804 11.1429 4.89661 12Z" fill="#F8F8F8"/>
</svg>
