<svg width="12" height="13" viewBox="0 0 12 13" fill="none" xmlns="http://www.w3.org/2000/svg">
<path d="M0.341948 1.48121C0.341428 1.18717 0.518318 0.921857 0.789946 0.809263C1.06157 0.696669 1.37429 0.759034 1.58195 0.967211L6.15195 5.53921L10.7229 0.968211C11.0065 0.684612 11.4663 0.684612 11.7499 0.968211C12.0335 1.25181 12.0335 1.71161 11.7499 1.99521L6.66295 7.07821C6.37905 7.36203 5.91884 7.36203 5.63495 7.07821L0.554948 1.99521C0.418226 1.85915 0.34154 1.6741 0.341948 1.48121Z" fill="white"/>
<path d="M0.341948 6.22144C0.341428 5.92741 0.518318 5.66209 0.789946 5.5495C1.06157 5.4369 1.37429 5.49927 1.58195 5.70744L6.15195 10.2794L10.7229 5.70844C11.0065 5.42485 11.4663 5.42485 11.7499 5.70844C12.0335 5.99204 12.0335 6.45185 11.7499 6.73544L6.66295 11.8184C6.37905 12.1023 5.91884 12.1023 5.63495 11.8184L0.554948 6.73544C0.418226 6.59938 0.34154 6.41433 0.341948 6.22144Z" fill="white"/>
</svg>
