<svg width="16" height="16" viewBox="0 0 16 16" fill="none" xmlns="http://www.w3.org/2000/svg">
<path fill-rule="evenodd" clip-rule="evenodd" d="M4.70486 0C2.11092 0.0101459 0.0106342 2.11043 0.000488281 4.70437V11.2946C0.0100709 13.8889 2.11052 15.9899 4.70486 16H11.2951C13.889 15.9899 15.9893 13.8896 15.9995 11.2956V4.70437C15.9893 2.11083 13.8897 0.010709 11.2961 0H4.70486ZM4.70504 1.45501H11.2953C12.1577 1.45392 12.985 1.79602 13.5948 2.40582C14.2046 3.01562 14.5467 3.84301 14.5457 4.7054V11.2956C14.5467 12.158 14.2046 12.9854 13.5948 13.5952C12.985 14.205 12.1577 14.5471 11.2953 14.546H4.70504C3.84264 14.5471 3.01526 14.205 2.40546 13.5952C1.79566 12.9854 1.45356 12.158 1.45465 11.2956V4.70437C1.45383 3.84216 1.79605 3.01504 2.40582 2.40546C3.0156 1.79588 3.84282 1.45392 4.70504 1.45501ZM11.6878 3.45475C11.789 3.20801 12.0289 3.04656 12.2956 3.04572C12.4703 3.0449 12.6381 3.11359 12.7622 3.23665C12.8862 3.35972 12.9562 3.52705 12.9567 3.70176C12.958 3.96844 12.7984 4.2096 12.5525 4.31271C12.3065 4.41582 12.0227 4.36057 11.8334 4.17273C11.6441 3.9849 11.5866 3.70149 11.6878 3.45475ZM8.00064 3.63699C5.59047 3.63699 3.63663 5.59082 3.63663 8.001C3.63663 10.4112 5.59047 12.365 8.00064 12.365C10.4108 12.365 12.3647 10.4112 12.3647 8.001C12.3596 5.59277 10.4089 3.64162 8.00064 3.63596V3.63699ZM10.688 6.88804C10.2379 5.8009 9.17706 5.09203 8.00039 5.09203V5.091C7.22795 5.08798 6.48628 5.3935 5.94008 5.93969C5.39388 6.48589 5.08837 7.22757 5.09139 8C5.09097 9.17667 5.79946 10.2377 6.88645 10.6883C7.97343 11.1389 9.22481 10.8903 10.057 10.0584C10.8892 9.22648 11.1382 7.97519 10.688 6.88804Z" fill="white"/>
</svg>
