<svg width="16" height="16" viewBox="0 0 16 16" fill="none" xmlns="http://www.w3.org/2000/svg">
<path fill-rule="evenodd" clip-rule="evenodd" d="M4.71709 0C2.19449 0.00986688 0.151957 2.0524 0.14209 4.575V10.984C0.151409 13.507 2.1941 15.5501 4.71709 15.56H11.1261C13.6487 15.5501 15.6912 13.5076 15.7011 10.985V4.575C15.6912 2.05278 13.6493 0.0104145 11.1271 0H4.71709ZM4.71709 1.415H11.1261C11.9648 1.41394 12.7694 1.74663 13.3624 2.33966C13.9555 2.93269 14.2882 3.73733 14.2871 4.576V10.985C14.2882 11.8237 13.9555 12.6283 13.3624 13.2213C12.7694 13.8144 11.9648 14.1471 11.1261 14.146H4.71709C3.87842 14.1471 3.07378 13.8144 2.48075 13.2213C1.88772 12.6283 1.55503 11.8237 1.55609 10.985V4.575C1.55529 3.7365 1.8881 2.93212 2.48111 2.33931C3.07411 1.74649 3.87859 1.41394 4.71709 1.415ZM11.508 3.35978C11.6064 3.11983 11.8397 2.96281 12.0991 2.962C12.269 2.9612 12.4323 3.028 12.5529 3.14768C12.6735 3.26736 12.7416 3.43009 12.7421 3.6C12.7433 3.85935 12.5881 4.09387 12.3489 4.19415C12.1098 4.29442 11.8337 4.24069 11.6496 4.05802C11.4655 3.87535 11.4096 3.59974 11.508 3.35978ZM7.92209 3.537C5.57819 3.537 3.67809 5.4371 3.67809 7.781C3.67809 10.1249 5.57819 12.025 7.92209 12.025C10.266 12.025 12.1661 10.1249 12.1661 7.781C12.1611 5.43899 10.2641 3.5415 7.92209 3.536V3.537ZM10.5358 6.69862C10.098 5.64137 9.0664 4.952 7.92209 4.952V4.951C7.1709 4.94806 6.44962 5.24517 5.91844 5.77635C5.38726 6.30753 5.09015 7.02881 5.09309 7.78C5.09269 8.92431 5.78169 9.95618 6.83879 10.3944C7.89588 10.8326 9.11285 10.5908 9.92214 9.78176C10.7314 8.97275 10.9737 7.75587 10.5358 6.69862Z" fill="white"/>
</svg>
