<svg width="81" height="38" viewBox="0 0 81 38" fill="none" xmlns="http://www.w3.org/2000/svg">
<rect x="0.944092" y="0.316162" width="79.956" height="37.3677" rx="18" fill="black" fill-opacity="0.25"/>
<path d="M32.7441 17.1733C31.5066 17.1733 30.5441 18.209 30.5441 19.459H17.3441C17.3441 18.209 16.3472 17.1733 15.1441 17.1733C13.9066 17.1733 12.9441 18.209 12.9441 19.459V25.1733C12.9441 25.8162 13.4253 26.3162 14.0441 26.3162H16.2441C16.8285 26.3162 17.3441 25.8162 17.3441 25.1733H30.5441C30.5441 25.8162 31.0253 26.3162 31.6441 26.3162H33.8441C34.4285 26.3162 34.9441 25.8162 34.9441 25.1733V19.459C34.9441 18.209 33.9472 17.1733 32.7441 17.1733ZM15.6941 24.6019H14.5941V19.459C14.5941 19.1733 14.8347 18.8876 15.1441 18.8876C15.4191 18.8876 15.6941 19.1733 15.6941 19.459V24.6019ZM30.5441 23.459H17.3441V21.1733H30.5441V23.459ZM33.2941 24.6019H32.1941V19.459C32.1941 19.1733 32.4347 18.8876 32.7441 18.8876C33.0191 18.8876 33.2941 19.1733 33.2941 19.459V24.6019ZM15.9691 16.0304C16.416 16.0304 16.7941 15.6733 16.7941 15.1733V14.6019C16.7941 13.209 17.8941 12.0304 19.2691 12.0304H28.6191C29.9597 12.0304 31.0941 13.209 31.0941 14.6019V15.1733C31.0941 15.6733 31.4378 16.0304 31.9191 16.0304C32.366 16.0304 32.7441 15.6733 32.7441 15.1733V14.6019C32.7441 12.2447 30.8878 10.3162 28.6191 10.3162H19.2691C16.966 10.3162 15.1441 12.2447 15.1441 14.6019V15.1733C15.1441 15.6733 15.4878 16.0304 15.9691 16.0304Z" fill="white"/>
<path d="M45.1631 23.8398C44.2791 23.8398 43.5685 23.5928 43.0311 23.0988C42.5025 22.5962 42.2381 21.8855 42.2381 20.9668H43.9021C43.9108 21.3915 44.0105 21.7295 44.2011 21.9808C44.3918 22.2322 44.6995 22.3578 45.1241 22.3578C45.5228 22.3578 45.8131 22.2408 45.9951 22.0068C46.1771 21.7642 46.2681 21.4478 46.2681 21.0578V14.5838H47.9321V21.0578C47.9321 21.9505 47.6808 22.6395 47.1781 23.1248C46.6841 23.6015 46.0125 23.8398 45.1631 23.8398ZM52.7581 23.8398C52.1341 23.8398 51.5708 23.6968 51.0681 23.4108C50.5741 23.1248 50.1798 22.7305 49.8851 22.2278C49.5991 21.7165 49.4561 21.1272 49.4561 20.4598C49.4561 19.7925 49.6034 19.2075 49.8981 18.7048C50.1928 18.1935 50.5871 17.7948 51.0811 17.5088C51.5838 17.2228 52.1471 17.0798 52.7711 17.0798C53.3864 17.0798 53.9411 17.2228 54.4351 17.5088C54.9378 17.7948 55.3321 18.1935 55.6181 18.7048C55.9128 19.2075 56.0601 19.7925 56.0601 20.4598C56.0601 21.1272 55.9128 21.7165 55.6181 22.2278C55.3321 22.7305 54.9378 23.1248 54.4351 23.4108C53.9324 23.6968 53.3734 23.8398 52.7581 23.8398ZM52.7581 22.3968C53.1914 22.3968 53.5684 22.2365 53.8891 21.9158C54.2098 21.5865 54.3701 21.1012 54.3701 20.4598C54.3701 19.8185 54.2098 19.3375 53.8891 19.0168C53.5684 18.6875 53.1958 18.5228 52.7711 18.5228C52.3291 18.5228 51.9478 18.6875 51.6271 19.0168C51.3151 19.3375 51.1591 19.8185 51.1591 20.4598C51.1591 21.1012 51.3151 21.5865 51.6271 21.9158C51.9478 22.2365 52.3248 22.3968 52.7581 22.3968ZM58.4449 16.2348C58.1415 16.2348 57.8902 16.1438 57.6909 15.9618C57.5002 15.7798 57.4049 15.5502 57.4049 15.2728C57.4049 14.9955 57.5002 14.7702 57.6909 14.5968C57.8902 14.4148 58.1415 14.3238 58.4449 14.3238C58.7482 14.3238 58.9952 14.4148 59.1859 14.5968C59.3852 14.7702 59.4849 14.9955 59.4849 15.2728C59.4849 15.5502 59.3852 15.7798 59.1859 15.9618C58.9952 16.1438 58.7482 16.2348 58.4449 16.2348ZM57.6129 23.6838V17.2358H59.2769V23.6838H57.6129ZM61.0137 23.6838V17.2358H62.4827L62.6127 18.3278C62.812 17.9465 63.098 17.6432 63.4707 17.4178C63.852 17.1925 64.2984 17.0798 64.8097 17.0798C65.607 17.0798 66.2267 17.3312 66.6687 17.8338C67.1107 18.3365 67.3317 19.0732 67.3317 20.0438V23.6838H65.6677V20.1998C65.6677 19.6452 65.555 19.2205 65.3297 18.9258C65.1044 18.6312 64.7534 18.4838 64.2767 18.4838C63.8087 18.4838 63.423 18.6485 63.1197 18.9778C62.825 19.3072 62.6777 19.7665 62.6777 20.3558V23.6838H61.0137Z" fill="white"/>
</svg>
