<svg width="25" height="25" viewBox="0 0 25 25" fill="none" xmlns="http://www.w3.org/2000/svg">
<path d="M12.296 7.74811C12.635 7.25811 12.907 6.79412 13.248 6.38712C13.5512 5.99947 13.9363 5.68351 14.3756 5.46177C14.815 5.24003 15.2979 5.11797 15.7899 5.10432C16.2818 5.09066 16.7708 5.18574 17.2218 5.38276C17.6728 5.57978 18.0747 5.87389 18.399 6.24412C18.8274 6.75731 19.1059 7.37876 19.2038 8.04005C19.3017 8.70133 19.2153 9.37681 18.954 9.99213C18.5069 11.1007 17.8049 12.0884 16.905 12.8751C15.84 13.8841 14.717 14.8311 13.622 15.8081C13.163 16.2171 12.713 16.6351 12.331 16.9841C11.122 15.9031 9.849 14.7841 8.596 13.6381C7.18329 12.564 6.11549 11.1003 5.52401 9.42713C5.36108 8.99302 5.29443 8.52867 5.32869 8.06626C5.36295 7.60385 5.4973 7.15439 5.72243 6.74903C5.94756 6.34367 6.25809 5.99209 6.63253 5.7186C7.00697 5.44512 7.43637 5.25624 7.89101 5.16511C8.64866 5.03401 9.42824 5.13432 10.128 5.45292C10.8278 5.77151 11.4154 6.2936 11.814 6.95112C11.975 7.20412 12.121 7.45811 12.296 7.74811Z" fill="#E0E0E0"/>
<path d="M10.123 16.202C9.71882 16.8005 9.19516 17.3089 8.5849 17.6951C7.97464 18.0813 7.29103 18.337 6.57712 18.446C5.86321 18.5551 5.13446 18.5152 4.43674 18.3288C3.73901 18.1424 3.08743 17.8136 2.52301 17.363L6.495 15.817L6.47101 15.661C5.01064 15.7788 3.55631 15.3702 2.371 14.509C1.24746 13.5974 0.421835 12.371 0 10.987L4.62701 12.748L4.72699 12.584C3.50327 11.7859 2.55708 10.6279 2.01874 9.26971C1.48039 7.9115 1.37639 6.41979 1.72101 5C2.64301 6.189 3.514 7.31 4.38 8.436C4.43835 8.51428 4.47306 8.60764 4.48001 8.70502C4.64699 10.4201 5.45948 12.0076 6.75299 13.146C7.71699 14.112 8.77499 14.985 9.79099 15.9C9.89999 15.986 9.99999 16.08 10.123 16.202Z" fill="#E0E0E0"/>
<path d="M14.516 16.245C15.346 15.519 16.19 14.803 17.008 14.059C18.1951 13.0901 19.1395 11.8574 19.766 10.459C19.9449 10.1068 20.0494 9.72142 20.073 9.32703C20.0739 9.04323 20.1313 8.76246 20.2416 8.50101C20.352 8.23955 20.5132 8.00265 20.716 7.80405C21.426 6.90405 22.1 5.97904 22.784 5.07104C23.846 6.85404 22.615 10.1 19.959 12.681C20.722 12.429 21.494 12.202 22.244 11.917C23.016 11.623 23.766 11.272 24.525 10.947C24.203 13.608 21.525 15.594 18.102 15.804L22.059 17.348C21.5024 17.7987 20.8584 18.1293 20.1677 18.3187C19.477 18.5082 18.7545 18.5525 18.0459 18.4489C17.3372 18.3453 16.6577 18.0959 16.0501 17.7166C15.4426 17.3373 14.9202 16.8362 14.516 16.245V16.245Z" fill="#E0E0E0"/>
</svg>
