<svg width="25" height="25" viewBox="0 0 25 25" fill="none" xmlns="http://www.w3.org/2000/svg">
<path d="M22.1569 3.10232C21.4133 2.93598 20.6385 2.97298 19.9141 3.20948C19.1896 3.44597 18.5423 3.87322 18.04 4.44631C17.4173 5.11376 16.8951 5.86835 16.4899 6.68632C16.386 6.99744 16.1863 7.26766 15.9194 7.45826C15.6524 7.64886 15.332 7.75005 15.004 7.7473C14.83 7.73931 14.7259 7.8123 14.6659 8.0143C14.3939 8.9143 14.383 8.91431 15.305 8.93931C15.557 8.94531 15.6899 8.93931 15.5919 9.28431C14.6919 12.4223 13.8129 15.5663 12.9279 18.7093C12.7892 19.2473 12.51 19.7387 12.1189 20.1333C11.9993 20.2692 11.833 20.3551 11.6529 20.3743C11.5179 20.3803 11.3619 20.3323 11.4899 20.1443C11.6194 19.9947 11.6887 19.8024 11.6847 19.6046C11.6806 19.4068 11.6034 19.2175 11.4679 19.0733C11.3155 18.9348 11.1261 18.8437 10.9228 18.811C10.7195 18.7784 10.5111 18.8056 10.323 18.8893C10.1287 18.9291 9.95295 19.0319 9.82311 19.1818C9.69327 19.3317 9.61656 19.5203 9.60494 19.7183C9.58341 19.9236 9.63065 20.1303 9.73925 20.3058C9.84784 20.4814 10.0116 20.6159 10.2049 20.6883C10.508 20.8185 10.8381 20.8734 11.1669 20.8483C11.7863 20.8747 12.4032 20.7551 12.9678 20.499C13.5324 20.243 14.0288 19.8577 14.4169 19.3743C14.9462 18.7339 15.371 18.0141 15.676 17.2413C16.5851 14.789 17.3668 12.2914 18.018 9.75831C18.257 8.95231 18.258 8.95831 19.111 8.93931C19.272 8.93931 19.461 9.01931 19.574 8.78631C19.924 8.06431 19.828 7.88632 19.043 7.88032C19.0096 7.87846 18.9763 7.87846 18.943 7.88032C18.636 7.91032 18.572 7.75431 18.643 7.49331C18.8882 6.4323 19.3061 5.4188 19.88 4.49331C20.1105 4.09691 20.4471 3.77273 20.8519 3.5573C21.0519 3.4693 21.275 3.39731 21.443 3.57631C21.611 3.75531 21.428 3.9053 21.35 4.0593C21.2769 4.16294 21.2278 4.28154 21.2062 4.4065C21.1846 4.53146 21.1911 4.65965 21.2251 4.78179C21.2592 4.90393 21.3201 5.01696 21.4032 5.11269C21.4864 5.20843 21.5898 5.28447 21.706 5.3353C21.8301 5.3897 21.9642 5.41733 22.0998 5.41637C22.2353 5.41542 22.369 5.38591 22.4924 5.32976C22.6157 5.27362 22.7258 5.1921 22.8155 5.09054C22.9052 4.98897 22.9725 4.86962 23.013 4.7403C23.0813 4.57755 23.1128 4.40176 23.1054 4.22541C23.098 4.04906 23.0517 3.87651 22.97 3.72008C22.8882 3.56365 22.773 3.42718 22.6325 3.32039C22.4919 3.21361 22.3296 3.13916 22.1569 3.10232Z" fill="#E0E0E0"/>
<path d="M7.093 10.0502C7.743 10.0682 8.39299 10.0552 9.04399 10.0561C10.206 10.0561 10.497 10.2562 10.863 11.3352C10.8543 11.3481 10.8501 11.3636 10.8512 11.3792C10.8523 11.3948 10.8586 11.4095 10.869 11.4212L10.88 11.6212H11.151C11.1764 11.6125 11.2034 11.6098 11.23 11.6132V7.62315C11.251 7.54215 11.286 7.45515 11.151 7.44015C11.016 7.42515 10.843 7.36116 10.868 7.61316C10.838 7.70616 10.8 7.79716 10.778 7.89116C10.56 8.86016 10.284 9.13615 9.31 9.20315C8.548 9.25615 7.781 9.23116 7.017 9.25116C6.805 9.25716 6.732 9.17915 6.733 8.97015C6.738 7.42315 6.741 5.87515 6.733 4.32815C6.733 4.06015 6.86599 4.04815 7.06599 4.05015C7.70099 4.05615 8.337 4.05015 8.972 4.05015C9.281 4.05015 9.59099 4.05015 9.89999 4.05015C10.4903 3.95398 11.0948 4.09405 11.5827 4.44006C12.0705 4.78608 12.4026 5.31023 12.507 5.89915C12.562 6.05415 12.576 6.24316 12.807 6.19116C13.021 6.14316 12.938 5.95416 12.933 5.82516C12.907 5.09316 12.857 4.36216 12.842 3.63116C12.837 3.37716 12.765 3.30015 12.509 3.30015C9.447 3.30815 6.38399 3.30016 3.32199 3.30716C3.19199 3.30716 3.002 3.23715 3 3.48115C3 3.70615 3.16499 3.68115 3.31099 3.68115C3.41099 3.68115 3.51099 3.68115 3.60399 3.68115C3.76303 3.66732 3.92319 3.6878 4.07364 3.74121C4.22408 3.79462 4.36131 3.87971 4.47603 3.99074C4.59075 4.10176 4.68029 4.23612 4.7386 4.38473C4.79691 4.53335 4.82261 4.69274 4.814 4.85216C4.95 8.15216 4.914 11.4612 4.836 14.7642C4.811 15.8102 4.654 15.9182 3.545 16.1692C3.404 16.2012 3.27099 16.2442 3.27499 16.3952C3.27899 16.5462 3.43499 16.5272 3.54199 16.5272C5.16999 16.5218 6.79799 16.5145 8.42599 16.5052C8.43168 16.4934 8.4391 16.4827 8.448 16.4732C8.4391 16.4827 8.43168 16.4934 8.42599 16.5052L8.526 16.4972C8.626 16.2252 8.62599 16.2252 8.30299 16.1972C7.20299 16.1042 6.794 15.7842 6.778 14.9461C6.751 13.4352 6.75899 11.9232 6.73799 10.4112C6.72999 10.1392 6.813 10.0432 7.093 10.0502Z" fill="#E0E0E0"/>
<path d="M11.151 11.6143H10.88L10.874 11.8064C10.864 11.8854 10.902 11.9063 10.974 11.8853L11.153 11.8803C11.324 11.8293 11.247 11.7084 11.232 11.6044C11.2046 11.6013 11.1768 11.6047 11.151 11.6143Z" fill="#E0E0E0"/>
<path d="M3.04299 16.3134C3.04299 16.3134 3.057 16.3134 3.067 16.3014C3.01 16.2774 3.00399 16.2834 3.04299 16.3134Z" fill="#E0E0E0"/>
<path d="M3.07899 16.2893L3.06801 16.2964H3.076V16.2874L3.07899 16.2893Z" fill="#E0E0E0"/>
<path d="M3.076 16.2983L3.032 16.3983C3.032 16.4653 3.065 16.5143 3.132 16.4983C3.159 16.4923 3.17699 16.4423 3.19899 16.4113C3.23399 16.2923 3.145 16.3083 3.076 16.2983Z" fill="#E0E0E0"/>
</svg>
