<svg width="20" height="25" viewBox="0 0 20 25" fill="none" xmlns="http://www.w3.org/2000/svg">
<path fill-rule="evenodd" clip-rule="evenodd" d="M3.56181 17.6579C3.75151 21.2204 6.69424 24.0125 10.2618 24.0149C12.1089 24.0238 13.8778 23.2697 15.1504 21.9309C16.423 20.592 17.0864 18.7872 16.9838 16.9429C16.7956 13.287 13.7157 10.4543 10.0568 10.5719C8.24761 10.6267 6.53733 11.4102 5.3143 12.7446C4.09126 14.0789 3.45927 15.8508 3.56181 17.6579ZM13.4641 21.5513C13.3931 21.6373 13.2837 21.6818 13.1728 21.6699V21.6709C13.1133 21.6483 13.0558 21.6209 13.0008 21.5889C12.1328 21.0642 11.2681 20.5352 10.4068 20.0019C10.3252 19.9378 10.2104 19.9378 10.1288 20.0019C9.64464 20.3012 9.15886 20.598 8.67311 20.8948C8.30208 21.1214 7.93107 21.3481 7.56081 21.5759C7.44361 21.6769 7.27387 21.6887 7.14381 21.6049C7.01954 21.5128 6.9731 21.3484 7.03081 21.2049C7.12822 20.8021 7.22444 20.399 7.32066 19.9959C7.45856 19.4182 7.59645 18.8405 7.73781 18.2639C7.77299 18.1592 7.73159 18.0442 7.63781 17.9859C7.18701 17.6029 6.73761 17.2178 6.28816 16.8326C5.97489 16.5642 5.6616 16.2957 5.34781 16.0279C5.21516 15.947 5.15423 15.7864 5.19981 15.6379C5.25138 15.492 5.39452 15.3989 5.54881 15.4109C5.91544 15.3825 6.28207 15.3528 6.64876 15.3232C7.26321 15.2735 7.87782 15.2237 8.49281 15.1799C8.64159 15.1852 8.77448 15.0875 8.81381 14.9439C9.09738 14.2456 9.38851 13.5509 9.67966 12.856C9.77045 12.6394 9.86124 12.4227 9.95181 12.2059C9.99292 12.0554 10.1289 11.9505 10.2848 11.9489C10.4336 11.9626 10.5581 12.0676 10.5968 12.2119C10.7645 12.6206 10.9331 13.0281 11.1016 13.4353C11.319 13.9607 11.5362 14.4857 11.7508 15.0119C11.7794 15.1132 11.8726 15.1826 11.9778 15.1809C12.4808 15.2194 12.9839 15.2596 13.4869 15.2999C13.9899 15.3401 14.4928 15.3804 14.9958 15.4189C15.1502 15.4095 15.2926 15.502 15.3468 15.6469C15.3911 15.7961 15.3285 15.9563 15.1948 16.0359C14.8562 16.3249 14.5179 16.6149 14.1796 16.9049C13.7477 17.2752 13.3157 17.6455 12.8828 18.0139C12.8091 18.0646 12.7781 18.1582 12.8068 18.2429C12.989 18.9928 13.1679 19.7428 13.3468 20.4927C13.4064 20.7428 13.466 20.9928 13.5258 21.2429C13.5584 21.3495 13.5352 21.4654 13.4641 21.5513Z" fill="#62A7F7"/>
<path d="M9.18391 9.95491C7.27318 10.2692 5.55316 11.2975 4.37191 12.8319C4.33591 12.7619 4.30491 12.7059 4.27791 12.6479L1.37191 6.40391C1.15691 5.94191 0.945909 5.47891 0.726909 5.01991C0.626071 4.83993 0.658006 4.61475 0.804909 4.46991C1.87158 3.24057 2.93824 2.00991 4.00491 0.777906C4.21991 0.528906 4.43291 0.277906 4.66891 0.00390625L9.18391 9.95491Z" fill="#62A7F7"/>
<path d="M16.1758 12.8346C15.0139 11.2764 13.2768 10.2479 11.3518 9.97858L15.8638 0.0175781C15.8911 0.0393868 15.9172 0.0627593 15.9418 0.0875781C17.2118 1.55424 18.4818 3.01824 19.7518 4.47958C19.8918 4.62374 19.9195 4.84312 19.8198 5.01758C19.1591 6.42758 18.5005 7.83858 17.8438 9.25058C17.3105 10.3906 16.7808 11.5312 16.2548 12.6726C16.2328 12.7226 16.2078 12.7706 16.1758 12.8346Z" fill="#62A7F7"/>
</svg>
