<svg width="24" height="24" viewBox="0 0 24 24" fill="none" xmlns="http://www.w3.org/2000/svg">
<path d="M21.9079 23.5656H1.97195C1.08829 23.5656 0.371948 22.8492 0.371948 21.9656V2.03359C0.371948 1.14994 1.08829 0.433594 1.97195 0.433594H21.9079C22.7916 0.433594 23.5079 1.14994 23.5079 2.03359V21.9696C23.5079 22.8532 22.7916 23.5696 21.9079 23.5696" fill="#4D6FA9"/>
<path d="M19.9139 4.42188V8.40987H16.3249C15.8831 8.40987 15.5249 8.76805 15.5249 9.20988V11.6029H19.5129V15.5909H15.5249V23.5669H11.5369V15.5889H8.34595V11.6009H11.5369V9.20787C11.5278 6.71274 13.4374 4.6294 15.9239 4.42188H19.9119L19.9139 4.42188Z" fill="white"/>
</svg>
