<svg width="16" height="16" viewBox="0 0 16 16" fill="none" xmlns="http://www.w3.org/2000/svg">
<path d="M13.6569 2.34315C16.781 5.46734 16.781 10.5327 13.6569 13.6569C10.5327 16.781 5.46734 16.781 2.34315 13.6569C-0.781049 10.5327 -0.781049 5.46734 2.34315 2.34315C5.46734 -0.781049 10.5327 -0.781049 13.6569 2.34315Z" fill="#F94343"/>
<path d="M12.1857 1.17578C14.1939 4.31763 13.7655 8.43014 11.1529 11.0907C8.54038 13.7512 4.43635 14.2543 1.25848 12.3037C3.03288 15.0763 6.3245 16.479 9.55339 15.8385C12.7823 15.198 15.2892 12.645 15.8709 9.405C16.4525 6.165 14.9902 2.89944 12.1857 1.17578V1.17578Z" fill="#E53939"/>
<path d="M1.08707 8.84363C1.08713 5.66312 3.11226 2.83565 6.12347 1.81183C9.13468 0.788001 12.4636 1.79508 14.4023 4.31639C13.014 1.92637 10.4134 0.504933 7.65212 0.626893C4.89084 0.748852 2.42568 2.39403 1.25352 4.89714C0.0813582 7.40026 0.396103 10.3472 2.07047 12.5463C1.42306 11.4199 1.08387 10.1428 1.08707 8.84363Z" fill="#F76363"/>
<path d="M12.7072 7.06874C12.7072 7.06143 12.7072 7.05411 12.7072 7.04679C12.7343 6.34964 12.4795 5.67094 12.0003 5.16384C11.5211 4.65674 10.858 4.36396 10.1604 4.35156C9.13885 4.35693 8.25014 5.05225 7.99918 6.04248C7.74821 5.05225 6.8595 4.35693 5.83798 4.35156C5.1404 4.36396 4.47721 4.65674 3.99803 5.16384C3.51885 5.67094 3.26406 6.34964 3.29114 7.04679C3.29114 7.05411 3.29114 7.06143 3.29114 7.06874C3.28278 7.37495 3.29114 10.4893 7.99395 13.0256C12.7083 10.4893 12.7156 7.37495 12.7072 7.06874Z" fill="white"/>
</svg>
