<svg width="36" height="37" viewBox="0 0 36 37" fill="none" xmlns="http://www.w3.org/2000/svg">
<g filter="url(#filter0_b_1144_144507)">
<circle cx="18" cy="18.7007" r="18" fill="white" fill-opacity="0.25"/>
</g>
<path d="M20.2814 13.2456C18.7662 13.2456 17.252 13.2406 15.7367 13.2456C15.2312 13.2352 14.7852 13.5738 14.6608 14.0626C14.5227 14.5308 14.7188 15.0329 15.1381 15.2846C15.3362 15.3945 15.5582 15.4546 15.7849 15.4596C18.7859 15.4709 21.7872 15.4729 24.7889 15.4656C25.1001 15.4908 25.4076 15.3846 25.6365 15.1727C25.8653 14.9609 25.9944 14.6629 25.9922 14.3516C25.9918 14.0415 25.8617 13.7456 25.6333 13.5351C25.4049 13.3247 25.0989 13.2186 24.7889 13.2426C23.2827 13.2406 21.7815 13.2446 20.2814 13.2456Z" fill="white"/>
<path d="M20.3144 19.9266C21.8005 19.9266 23.2867 19.9266 24.7738 19.9266C25.0845 19.9592 25.3946 19.8588 25.6269 19.6504C25.8591 19.442 25.9919 19.1452 25.9922 18.8336C25.9965 18.5227 25.8703 18.2242 25.644 18.0103C25.4177 17.7964 25.112 17.6866 24.8009 17.7076C21.7992 17.7029 18.7979 17.7029 15.7969 17.7076C15.2277 17.6713 14.7247 18.0737 14.6366 18.6356C14.5419 19.1627 14.8449 19.6805 15.3516 19.8576C15.5291 19.9086 15.7136 19.9312 15.8982 19.9246C17.3702 19.9286 18.8423 19.9266 20.3144 19.9266Z" fill="white"/>
<path d="M20.3225 24.3876C21.8377 24.3876 23.3519 24.3946 24.8671 24.3876C25.4389 24.4104 25.9289 23.9837 25.9832 23.4156C26.0522 22.8704 25.7071 22.3582 25.175 22.2156C25.0647 22.1866 24.9511 22.1725 24.837 22.1736C21.822 22.1736 18.8066 22.1736 15.7909 22.1736C15.3494 22.1488 14.9364 22.392 14.745 22.7896C14.5489 23.1518 14.5802 23.5944 14.8252 23.9256C15.0483 24.2504 15.4284 24.4316 15.822 24.4006C17.3212 24.3846 18.8213 24.3876 20.3225 24.3876Z" fill="white"/>
<path d="M11.7495 15.4676C12.0213 15.4676 12.294 15.4806 12.5648 15.4676C13.1665 15.4417 13.6376 14.9421 13.6267 14.3416C13.6192 13.7571 13.1545 13.2805 12.5688 13.2566C12.0113 13.2346 11.4517 13.2336 10.8952 13.2566C10.3077 13.2805 9.84845 13.7705 9.86429 14.3566C9.84936 14.9421 10.3047 15.4329 10.8911 15.4636C11.1759 15.4826 11.4627 15.4636 11.7495 15.4636V15.4676Z" fill="white"/>
<path d="M11.7676 24.3866C12.0253 24.3866 12.283 24.3966 12.5397 24.3866C13.1427 24.3779 13.6268 23.8879 13.6268 23.2866C13.6352 22.6841 13.1559 22.1869 12.5518 22.1716C12.0093 22.1516 11.4648 22.1506 10.9212 22.1716C10.6313 22.1794 10.3565 22.3027 10.1583 22.5139C9.96011 22.7251 9.85495 23.0066 9.86631 23.2956C9.86308 23.5845 9.97624 23.8625 10.1804 24.0674C10.3846 24.2724 10.6627 24.387 10.9523 24.3856C11.2241 24.3956 11.4958 24.3866 11.7676 24.3866Z" fill="white"/>
<path d="M11.7305 19.9247C12.0023 19.9247 12.275 19.9337 12.5458 19.9247C13.1463 19.9127 13.6269 19.4237 13.6268 18.8247C13.631 18.2394 13.1748 17.7533 12.5889 17.7187C12.0173 17.6927 11.4437 17.6927 10.8721 17.7187C10.2861 17.7573 9.83956 18.2578 9.86933 18.8427C9.86635 19.4277 10.3318 19.9084 10.9182 19.9257C11.187 19.9347 11.4587 19.9247 11.7305 19.9247Z" fill="white"/>
<defs>
<filter id="filter0_b_1144_144507" x="-4" y="-3.29932" width="44" height="44" filterUnits="userSpaceOnUse" color-interpolation-filters="sRGB">
<feFlood flood-opacity="0" result="BackgroundImageFix"/>
<feGaussianBlur in="BackgroundImageFix" stdDeviation="2"/>
<feComposite in2="SourceAlpha" operator="in" result="effect1_backgroundBlur_1144_144507"/>
<feBlend mode="normal" in="SourceGraphic" in2="effect1_backgroundBlur_1144_144507" result="shape"/>
</filter>
</defs>
</svg>
