<svg width="11" height="15" viewBox="0 0 11 15" fill="none" xmlns="http://www.w3.org/2000/svg">
<path fill-rule="evenodd" clip-rule="evenodd" d="M1.90203 5.6813C1.90303 5.90637 1.90405 6.13349 1.90405 6.3639L0.824053 6.3519C0.524053 6.3519 0.424053 6.4509 0.424053 6.7429V8.0199C0.424053 8.56553 0.423386 9.11072 0.422719 9.6556C0.421386 10.7445 0.420054 11.8322 0.424053 12.9199C0.41629 13.3747 0.59114 13.8137 0.909496 14.1386C1.22785 14.4636 1.66316 14.6474 2.11805 14.6489C4.37072 14.6522 6.62372 14.6522 8.87705 14.6489C9.02451 14.648 9.17129 14.6288 9.31405 14.5919C10.1088 14.3944 10.6498 13.6584 10.6011 12.8409V6.7739C10.6011 6.4389 10.5181 6.3569 10.1811 6.3569H3.33205V4.5569C3.3259 4.37952 3.33426 4.20192 3.35705 4.0259C3.5353 2.86983 4.5949 2.06101 5.75705 2.1939C6.86024 2.32135 7.69277 3.25537 7.69305 4.3659C7.69403 4.43076 7.69374 4.49563 7.69345 4.56049C7.69284 4.69563 7.69224 4.83076 7.70305 4.9659C7.72549 5.34487 8.04246 5.63892 8.42205 5.6329C8.80363 5.63297 9.11497 5.32741 9.12205 4.9459C9.136 4.4744 9.1025 4.0027 9.02205 3.5379C8.73444 2.3006 7.81603 1.30646 6.60535 0.92191C5.39466 0.537363 4.07092 0.819337 3.12205 1.6639C2.3451 2.34571 1.90097 3.33021 1.90405 4.3639C1.89808 4.80124 1.90004 5.23726 1.90203 5.6813ZM5.08805 11.6959V11.0999C5.08805 11.0496 5.08758 10.9997 5.08711 10.9499C5.08576 10.8085 5.08444 10.6689 5.09405 10.5299C5.1072 10.4075 5.05331 10.2874 4.95305 10.2159C4.68205 10.0029 4.57671 9.64105 4.69105 9.3159C4.77457 8.9833 5.05781 8.73886 5.39905 8.7049C5.73 8.64789 6.06261 8.79641 6.24105 9.0809C6.49449 9.44804 6.4197 9.94882 6.07005 10.2259C5.98495 10.2875 5.93829 10.3892 5.94705 10.4939V11.6999C5.94605 11.9929 5.81505 12.1079 5.49705 12.1079C5.21505 12.1069 5.08805 11.9809 5.08805 11.6959Z" fill="white"/>
</svg>
