<svg width="37" height="36" viewBox="0 0 37 36" fill="none" xmlns="http://www.w3.org/2000/svg">
<circle cx="18.9" cy="18" r="18" fill="url(#paint0_linear_1291_95546)"/>
<path d="M18.9161 25.318C17.6808 23.6456 16.0756 22.2795 14.2251 21.326C13.44 20.8961 12.7171 20.3619 12.0761 19.738C10.4665 18.1155 10.3088 15.5558 11.7071 13.749C12.4972 12.7171 13.7379 12.1285 15.0392 12.1681C16.3406 12.2078 17.5429 12.8709 18.2683 13.949C18.4899 14.254 18.6694 14.588 18.8499 14.873C19.3527 14.2853 19.8912 13.7289 20.4624 13.207C21.5673 12.1942 23.1625 11.9157 24.5467 12.494C25.9561 13.1953 26.9029 14.5722 27.051 16.1359C27.1991 17.6997 26.5276 19.229 25.2748 20.181C24.7452 20.5926 24.1902 20.9707 23.6131 21.313C21.7303 22.2262 20.1132 23.605 18.9161 25.318Z" fill="white"/>
<defs>
<linearGradient id="paint0_linear_1291_95546" x1="-7.78624" y1="16.6783" x2="21.8984" y2="46.8823" gradientUnits="userSpaceOnUse">
<stop stop-color="#FFA7BD"/>
<stop offset="1" stop-color="#DD486E"/>
</linearGradient>
</defs>
</svg>
