<svg width="16" height="16" viewBox="0 0 16 16" fill="none" xmlns="http://www.w3.org/2000/svg">
<path d="M9.2812 0.104481C13.6418 0.812068 16.6031 4.92062 15.8955 9.2812C15.1879 13.6418 11.0794 16.6031 6.7188 15.8955C2.35823 15.1879 -0.603106 11.0794 0.104481 6.7188C0.812068 2.35823 4.92062 -0.603106 9.2812 0.104481Z" fill="#FFD05D"/>
<path d="M12.1858 1.17236C14.1941 4.31381 13.7659 8.42605 11.1535 11.0864C8.54109 13.7466 4.43731 14.2495 1.25989 12.2987C3.03339 15.0729 6.32555 16.4771 9.55539 15.837C12.7852 15.1969 15.293 12.6431 15.8743 9.40221C16.4556 6.16127 14.9918 2.89516 12.1858 1.17236V1.17236Z" fill="#FDC453"/>
<path d="M1.08862 8.84354C1.08927 5.66374 3.11413 2.83714 6.12466 1.81349C9.13519 0.789841 12.4634 1.79629 14.4022 4.31663C13.021 1.91281 10.4158 0.478417 7.64596 0.596626C4.87609 0.714835 2.40264 2.36596 1.23123 4.87873C0.0598184 7.39149 0.38548 10.3475 2.07582 12.545C1.42718 11.4194 1.08668 10.1427 1.08862 8.84354Z" fill="#FFD77F"/>
<path d="M4.6001 9.63672C4.79673 11.3658 6.25977 12.6719 7.99998 12.6719C9.74018 12.6719 11.2032 11.3658 11.3999 9.63672L4.6001 9.63672Z" fill="#695342"/>
<path d="M5.651 11.7361C6.93824 12.9532 8.94202 12.9854 10.2677 11.8102L10.2364 11.7361C8.77675 11.0873 7.1106 11.0873 5.651 11.7361Z" fill="#F06669"/>
<path d="M6.897 5.67311C6.897 5.67311 6.897 5.66476 6.897 5.66163C6.91108 5.29553 6.77717 4.93918 6.52547 4.67295C6.27377 4.40672 5.92549 4.25304 5.55917 4.24658C5.02291 4.24966 4.55651 4.61479 4.42483 5.13464C4.29315 4.61479 3.82675 4.24966 3.2905 4.24658C2.92418 4.25304 2.57589 4.40672 2.32419 4.67295C2.0725 4.93918 1.93859 5.29553 1.95267 5.66163C1.95267 5.66163 1.95267 5.66998 1.95267 5.67311C1.95267 5.83382 1.95267 7.46906 4.42379 8.80376C6.897 7.46906 6.90117 5.83382 6.897 5.67311Z" fill="#E62728"/>
<path d="M14.0464 5.67311C14.0464 5.67311 14.0464 5.66476 14.0464 5.66163C14.0604 5.29553 13.9265 4.93918 13.6748 4.67295C13.4231 4.40672 13.0748 4.25304 12.7085 4.24658C12.1723 4.24966 11.7059 4.61479 11.5742 5.13464C11.4425 4.61479 10.9761 4.24966 10.4398 4.24658C10.0735 4.25304 9.72525 4.40672 9.47355 4.67295C9.22185 4.93918 9.08794 5.29553 9.10202 5.66163C9.10202 5.66163 9.10202 5.66998 9.10202 5.67311C9.10202 5.83382 9.10202 7.46906 11.5731 8.80376C14.0474 7.46906 14.0516 5.83382 14.0464 5.67311Z" fill="#E62728"/>
</svg>
