<svg width="26" height="26" viewBox="0 0 26 26" fill="none" xmlns="http://www.w3.org/2000/svg">
<path d="M18.1635 19.8122L23.7258 25.3744L25.3757 23.7245L2.27686 0.625623L0.626953 2.27553L7.16799 8.81657V10.6667C7.16799 13.8883 9.77966 16.5 13.0013 16.5C13.5641 16.5 14.1082 16.4203 14.6231 16.2716L16.4315 18.0801C15.3886 18.5636 14.2265 18.8333 13.0013 18.8333C8.8871 18.8333 5.48346 15.791 4.91736 11.8333H2.5654C3.10341 16.7002 6.96777 20.5645 11.8346 21.1026V25.8333H14.168V21.1026C15.6076 20.9435 16.9596 20.4933 18.1635 19.8122ZM12.4794 14.128C10.9643 13.9015 9.7665 12.7038 9.53997 11.1885L12.4794 14.128ZM21.605 16.6871L19.9222 15.0042C20.5153 14.0598 20.9205 12.9853 21.0852 11.8333H23.4372C23.239 13.626 22.5897 15.2826 21.605 16.6871ZM18.2113 13.2933L16.4047 11.4868C16.4679 11.2237 16.5013 10.9491 16.5013 10.6667V5.99999C16.5013 4.067 14.9343 2.49999 13.0013 2.49999C11.4914 2.49999 10.2048 3.45614 9.71391 4.79601L7.96784 3.04994C8.98111 1.32478 10.856 0.166656 13.0013 0.166656C16.223 0.166656 18.8346 2.77833 18.8346 5.99999V10.6667C18.8346 11.6115 18.61 12.5039 18.2113 13.2933Z" fill="#2D4465"/>
</svg>
