<svg width="32" height="31" viewBox="0 0 32 31" fill="none" xmlns="http://www.w3.org/2000/svg">
<path d="M8.01984 2.39896C8.84836 1.84451 9.74689 1.40265 10.6918 1.08496C16.1718 -0.699041 21.0008 0.368959 25.0438 4.51796C26.8725 6.37359 28.0308 8.7856 28.3358 11.373C28.4585 12.3632 28.5276 13.3593 28.5428 14.357C28.5748 16.231 28.5518 18.106 28.5518 19.981V20.371C27.8398 20.4584 27.2666 20.9976 27.1358 21.703C27.0568 21.949 26.9188 22.177 26.8438 22.424C26.7329 22.8109 26.4183 23.1056 26.0248 23.191C25.7158 23.28 25.4128 23.391 25.1078 23.491C24.4395 23.7018 23.9955 24.3347 24.0248 25.035C24.0445 25.7118 24.4966 26.2995 25.1458 26.492C25.5518 26.619 25.9618 26.741 26.3518 26.905C26.5022 26.9865 26.6222 27.1146 26.6938 27.27C26.8488 27.57 26.9558 27.903 27.0998 28.214C27.2438 28.525 27.3998 28.805 27.5668 29.128C26.886 29.9675 25.9144 30.5204 24.8448 30.677C24.5066 30.7348 24.164 30.7633 23.8208 30.762C21.6748 30.77 19.5298 30.762 17.3848 30.762C17.3064 30.7648 17.2287 30.7454 17.1608 30.706C17.3688 30.631 17.5788 30.558 17.7868 30.48C20.4743 29.4786 22.5621 27.3118 23.4628 24.589C24.1355 22.6521 24.4213 20.602 24.3038 18.555C24.2438 16.286 23.1338 14.532 21.9978 12.747C21.6238 12.16 21.1708 11.625 20.7668 11.057C20.6198 10.85 20.5088 10.618 20.3388 10.323C20.2688 10.67 20.1948 10.944 20.1628 11.223C20.0379 12.1833 19.5515 13.0598 18.8028 13.674C17.6554 14.6272 16.3335 15.3482 14.9108 15.797C12.7898 16.5334 10.5959 17.0406 8.36684 17.31C8.01584 17.356 7.66684 17.39 7.31384 17.439C6.77084 17.515 6.51384 17.739 6.48684 18.284C6.41108 19.1648 6.39171 20.0496 6.42884 20.933C6.55904 22.9031 7.1754 24.8103 8.22284 26.484C9.38372 28.4121 11.1975 29.86 13.3348 30.565C13.3928 30.585 13.4498 30.61 13.5788 30.665C13.4408 30.679 13.3688 30.693 13.2978 30.693C11.1738 30.693 9.04884 30.693 6.92384 30.693C6.20465 30.712 5.48827 30.596 4.81184 30.351C3.21888 29.7731 2.12922 28.2946 2.04884 26.602C2.00862 26.1562 1.99293 25.7085 2.00184 25.261C2.00184 21.4496 2.00184 17.638 2.00184 13.826C1.96753 12.0329 2.27677 10.2498 2.91284 8.57296C2.94684 8.48696 2.98384 8.40296 3.03884 8.27296C3.09284 8.37296 3.13284 8.43696 3.16084 8.50496C3.40584 9.10496 3.64584 9.69796 3.89384 10.292C4.10241 10.9618 4.72941 11.4126 5.43084 11.397C6.12032 11.3906 6.72543 10.9363 6.92384 10.276C7.24484 9.47596 7.57184 8.67596 7.87784 7.87596C7.95543 7.63725 8.14055 7.44879 8.37784 7.36696C9.15784 7.08296 9.93484 6.79096 10.7158 6.50796C11.1695 6.36223 11.533 6.01917 11.7047 5.57465C11.8763 5.13012 11.8378 4.63181 11.5998 4.21896C11.3921 3.87857 11.072 3.62143 10.6948 3.49196C9.83484 3.15396 8.97784 2.80596 8.12084 2.46096C8.08586 2.44251 8.05212 2.4218 8.01984 2.39896Z" fill="white"/>
<path d="M10.256 5.05993C9.36696 5.41293 8.57496 5.78293 7.74696 6.03993C7.09909 6.19195 6.5909 6.69396 6.43096 7.33993C6.21596 8.07393 5.87896 8.77293 5.59396 9.48693C5.55196 9.58693 5.50696 9.69493 5.44196 9.84793C5.02396 8.79593 4.61696 7.79793 4.23496 6.78993C4.15742 6.54447 3.9665 6.35132 3.72196 6.27093C2.79796 5.92593 1.88396 5.55393 0.966959 5.19093C0.882959 5.15793 0.800959 5.11793 0.657959 5.05493C1.24696 4.81993 1.77996 4.60593 2.31396 4.39393C2.82596 4.19393 3.34396 4.00293 3.84696 3.78193C3.98946 3.71377 4.10344 3.59766 4.16896 3.45393C4.59596 2.41793 5.00396 1.37393 5.44096 0.273926C5.50696 0.422926 5.55396 0.519926 5.59396 0.619926C5.96596 1.55593 6.34296 2.48993 6.70396 3.43093C6.76038 3.6079 6.89724 3.74772 7.07296 3.80793C8.10696 4.20793 9.13896 4.61993 10.256 5.05993Z" fill="white"/>
<path d="M25.6641 24.9422C26.3561 24.6612 26.9741 24.4242 27.5781 24.1562C27.7288 24.0829 27.8501 23.9605 27.9221 23.8092C28.1911 23.2092 28.4301 22.5872 28.7091 21.9092C28.9027 22.306 29.0697 22.7152 29.2091 23.1342C29.3479 23.805 29.8757 24.3269 30.5481 24.4582C30.9626 24.5938 31.3678 24.7565 31.7611 24.9452C31.0821 25.2232 30.4761 25.4812 29.8611 25.7182C29.6854 25.778 29.5474 25.9157 29.4871 26.0912C29.2471 26.7052 28.9871 27.3132 28.7141 27.9912C28.4671 27.3832 28.2261 26.8572 28.0411 26.3122C27.9445 25.9735 27.6798 25.7087 27.3411 25.6122C26.7971 25.4312 26.2731 25.1912 25.6641 24.9422Z" fill="white"/>
<path d="M8.66284 21.651C10.0898 19.591 12.1348 19.251 13.8628 21.7C12.0998 20.831 10.3818 20.557 8.66284 21.651Z" fill="white"/>
<path d="M17.2148 21.641C17.7506 20.6762 18.7405 20.0503 19.8418 19.98C20.9121 20.0853 21.8616 20.7116 22.3798 21.654C20.7926 20.6963 18.8069 20.6913 17.2148 21.641Z" fill="white"/>
</svg>
