<svg width="27" height="24" viewBox="0 0 27 24" fill="none" xmlns="http://www.w3.org/2000/svg">
<path fill-rule="evenodd" clip-rule="evenodd" d="M0.901491 11.34C0.901491 5.087 6.55449 0 13.5015 0C20.4495 0 26.1015 5.093 26.1015 11.346C26.1015 17.599 20.4495 22.686 13.5015 22.686C11.7399 22.6913 9.9939 22.3562 8.35949 21.699C6.17147 22.8239 3.81334 23.5814 1.37949 23.941C1.36018 23.9424 1.3408 23.9424 1.32149 23.941C1.15106 23.9422 0.996783 23.8404 0.930998 23.6831C0.865212 23.5259 0.900965 23.3445 1.02149 23.224C1.98749 22.258 2.65349 20.22 2.90149 17.474C1.60656 15.6904 0.906734 13.5441 0.901491 11.34ZM5.94149 11.34C5.94149 12.2678 6.69365 13.02 7.62149 13.02C8.54887 13.0189 9.30039 12.2674 9.30149 11.34C9.30149 10.4122 8.54933 9.66 7.62149 9.66C6.69365 9.66 5.94149 10.4122 5.94149 11.34ZM13.5015 13.02C12.5737 13.02 11.8215 12.2678 11.8215 11.34C11.8215 10.4122 12.5737 9.66 13.5015 9.66C14.4293 9.66 15.1815 10.4122 15.1815 11.34C15.1804 12.2674 14.4289 13.0189 13.5015 13.02ZM17.7015 11.34C17.7015 12.2678 18.4537 13.02 19.3815 13.02H19.3825C20.3095 13.0183 21.0604 12.267 21.0615 11.34C21.0615 10.4122 20.3093 9.66 19.3815 9.66C18.4537 9.66 17.7015 10.4122 17.7015 11.34Z" fill="#31C9FD"/>
</svg>
