<svg width="66" height="69" viewBox="0 0 66 69" fill="none" xmlns="http://www.w3.org/2000/svg">
<path d="M19 27C18.1716 27 17.5 27.6716 17.5 28.5C17.5 29.3284 18.1716 30 19 30H47C47.8284 30 48.5 29.3284 48.5 28.5C48.5 27.6716 47.8284 27 47 27H19Z" fill="#B0B0B3"/>
<path fill-rule="evenodd" clip-rule="evenodd" d="M4.5 0C2.01472 0 0 2.01472 0 4.5V52C0 54.4853 2.01472 56.5 4.5 56.5H22.0119C22.4807 56.5 22.9225 56.7192 23.2062 57.0924L31.0096 67.36C32.0101 68.6764 33.99 68.6764 34.9904 67.36L42.7938 57.0924C43.0775 56.7192 43.5193 56.5 43.9881 56.5H61.5C63.9853 56.5 66 54.4853 66 52V4.5C66 2.01472 63.9853 0 61.5 0H4.5ZM3 4.5C3 3.67157 3.67157 3 4.5 3H61.5C62.3284 3 63 3.67157 63 4.5V52C63 52.8284 62.3284 53.5 61.5 53.5H43.9881C42.5818 53.5 41.2563 54.1575 40.4053 55.2771L33 65.021L25.5947 55.2771C24.7437 54.1575 23.4182 53.5 22.0119 53.5H4.5C3.67157 53.5 3 52.8284 3 52V4.5Z" fill="#B0B0B3"/>
</svg>
