<svg width="36" height="37" viewBox="0 0 36 37" fill="none" xmlns="http://www.w3.org/2000/svg">
<g filter="url(#filter0_b_1144_144519)">
<circle cx="18" cy="18.7007" r="18" fill="white" fill-opacity="0.25"/>
</g>
<path d="M17.916 22.4476C18.7977 22.4449 19.6426 22.0934 20.266 21.4699C20.8894 20.8463 21.2406 20.0013 21.243 19.1196V13.7956C21.2495 13.3579 21.1662 12.9235 20.9982 12.5193C20.8301 12.1151 20.5809 11.7496 20.266 11.4456C19.958 11.1358 19.5918 10.8901 19.1885 10.7223C18.7852 10.5546 18.3528 10.4683 17.916 10.4683C17.4792 10.4683 17.0467 10.5546 16.6434 10.7223C16.2401 10.8901 15.874 11.1358 15.566 11.4456C15.2509 11.7495 15.0015 12.1149 14.8333 12.5192C14.6651 12.9234 14.5816 13.3578 14.588 13.7956V19.1196C14.5904 20.0015 14.9418 20.8466 15.5654 21.4702C16.189 22.0938 17.0341 22.4452 17.916 22.4476Z" fill="white"/>
<path d="M23.708 17.3215C23.6151 17.2294 23.497 17.1667 23.3685 17.1414C23.2401 17.1161 23.1071 17.1293 22.9861 17.1793C22.8652 17.2293 22.7616 17.3138 22.6885 17.4223C22.6154 17.5309 22.5759 17.6586 22.575 17.7895V19.1205C22.575 20.3561 22.0842 21.5412 21.2104 22.4149C20.3367 23.2886 19.1517 23.7795 17.916 23.7795C16.6804 23.7795 15.4954 23.2886 14.6216 22.4149C13.7479 21.5412 13.257 20.3561 13.257 19.1205V17.7895C13.2504 17.6174 13.1773 17.4547 13.0532 17.3353C12.9292 17.216 12.7637 17.1493 12.5915 17.1493C12.4194 17.1493 12.2539 17.216 12.1298 17.3353C12.0057 17.4547 11.9327 17.6174 11.926 17.7895V19.1205C11.927 20.593 12.4705 22.0136 13.4526 23.1108C14.4347 24.208 15.7866 24.905 17.25 25.0685V26.4415H14.588C14.416 26.4482 14.2532 26.5212 14.1339 26.6453C14.0145 26.7693 13.9478 26.9348 13.9478 27.107C13.9478 27.2792 14.0145 27.4446 14.1339 27.5687C14.2532 27.6928 14.416 27.7658 14.588 27.7725H21.239C21.4111 27.7658 21.5738 27.6928 21.6932 27.5687C21.8126 27.4446 21.8792 27.2792 21.8792 27.107C21.8792 26.9348 21.8126 26.7693 21.6932 26.6453C21.5738 26.5212 21.4111 26.4482 21.239 26.4415H18.582V25.0685C20.0454 24.9048 21.3972 24.2078 22.3792 23.1106C23.3613 22.0134 23.9048 20.593 23.906 19.1205V17.7895C23.9068 17.7021 23.8896 17.6154 23.8556 17.535C23.8215 17.4545 23.7713 17.3818 23.708 17.3215Z" fill="white"/>
<defs>
<filter id="filter0_b_1144_144519" x="-4" y="-3.29932" width="44" height="44" filterUnits="userSpaceOnUse" color-interpolation-filters="sRGB">
<feFlood flood-opacity="0" result="BackgroundImageFix"/>
<feGaussianBlur in="BackgroundImageFix" stdDeviation="2"/>
<feComposite in2="SourceAlpha" operator="in" result="effect1_backgroundBlur_1144_144519"/>
<feBlend mode="normal" in="SourceGraphic" in2="effect1_backgroundBlur_1144_144519" result="shape"/>
</filter>
</defs>
</svg>
