<svg width="25" height="25" viewBox="0 0 25 25" fill="none" xmlns="http://www.w3.org/2000/svg">
<path fill-rule="evenodd" clip-rule="evenodd" d="M0.468994 12.031C0.468994 5.38646 5.85546 4.16004e-08 12.5 4.16004e-08C15.6909 -0.000265132 18.7512 1.2672 21.0075 3.52351C23.2638 5.77981 24.5313 8.8401 24.531 12.031C24.531 18.6755 19.1445 24.062 12.5 24.062C5.85546 24.062 0.468994 18.6755 0.468994 12.031ZM11.081 17.937L18.257 13V12.997C18.5752 12.7784 18.7653 12.4171 18.7653 12.031C18.7653 11.6449 18.5752 11.2836 18.257 11.065L11.081 6.128C10.7223 5.88082 10.2561 5.853 9.87051 6.05575C9.48495 6.2585 9.24365 6.65838 9.24399 7.094V16.971C9.24365 17.4066 9.48495 17.8065 9.87051 18.0093C10.2561 18.212 10.7223 18.1842 11.081 17.937Z" fill="#19DFC4"/>
</svg>
