<svg width="19" height="15" viewBox="0 0 19 15" fill="none" xmlns="http://www.w3.org/2000/svg">
<path fill-rule="evenodd" clip-rule="evenodd" d="M4.96607 0.969971H16.7709C17.4744 0.971615 18.0447 1.53938 18.0474 2.24097V9.55497C18.0447 10.2558 17.4756 10.8232 16.7729 10.826H15.6397V12.396C15.6405 12.5044 15.5977 12.6087 15.5208 12.6854C15.4439 12.7621 15.3393 12.8048 15.2306 12.804C15.1227 12.8025 15.0201 12.7569 14.9468 12.678L13.1057 10.826H4.96607C4.2633 10.8232 3.69428 10.2558 3.69153 9.55497V2.24097C3.69428 1.54016 4.2633 0.972712 4.96607 0.969971ZM5.59581 6.08691C5.59581 6.73695 6.12424 7.26391 6.77609 7.26391C7.42589 7.25901 7.95145 6.73491 7.95637 6.08691C7.95637 5.43687 7.42794 4.90991 6.77609 4.90991C6.12424 4.90991 5.59581 5.43687 5.59581 6.08691ZM10.9156 7.26391C10.2637 7.26391 9.7353 6.73695 9.7353 6.08691C9.7353 5.43687 10.2637 4.90991 10.9156 4.90991C11.5674 4.90991 12.0959 5.43687 12.0959 6.08691C12.0909 6.73491 11.5654 7.25901 10.9156 7.26391ZM13.8588 6.08691C13.8588 6.73695 14.3872 7.26391 15.039 7.26391C15.6888 7.25901 16.2144 6.73491 16.2193 6.08691C16.2193 5.43687 15.6909 4.90991 15.039 4.90991C14.3872 4.90991 13.8588 5.43687 13.8588 6.08691Z" fill="#FF414B"/>
<path d="M2.96746 9.58496V7.08496H1.67687C1.21723 7.08769 0.845293 7.4586 0.842556 7.91696V12.717C0.832071 12.9435 0.915555 13.1643 1.07339 13.3276C1.23122 13.4909 1.44948 13.5821 1.67687 13.58H2.41693V14.616C2.42112 14.7617 2.53857 14.8788 2.68467 14.883C2.75553 14.8836 2.8236 14.8554 2.8732 14.805L4.08556 13.596H9.43643C9.89607 13.5932 10.268 13.2223 10.2707 12.764V11.571H4.96701C3.86717 11.5677 2.97515 10.6817 2.96746 9.58496Z" fill="#FF414B"/>
</svg>
