<svg width="28" height="28" viewBox="0 0 28 28" fill="none" xmlns="http://www.w3.org/2000/svg">
<g clip-path="url(#clip0_2043_121196)">
<path d="M26.313 1.07687C25.7863 0.637602 25.1688 0.320527 24.5049 0.148453C23.841 -0.0236218 23.1473 -0.0464193 22.4735 0.0817002L11.7588 2.0907C10.4215 2.34132 9.21388 3.05153 8.34486 4.09844C7.47585 5.14535 7.00012 6.46311 7 7.8237V19.3154C6.29376 18.8955 5.4883 18.6715 4.66667 18.6667C3.74369 18.6667 2.84144 18.9404 2.07401 19.4532C1.30658 19.966 0.70844 20.6948 0.355231 21.5475C0.00202198 22.4002 -0.0903936 23.3385 0.0896708 24.2438C0.269735 25.149 0.714192 25.9806 1.36684 26.6332C2.01948 27.2858 2.851 27.7303 3.75625 27.9104C4.66149 28.0904 5.5998 27.998 6.45252 27.6448C7.30525 27.2916 8.03408 26.6935 8.54686 25.926C9.05964 25.1586 9.33333 24.2563 9.33333 23.3334V12.6887C9.33329 12.1443 9.5236 11.6171 9.87131 11.1982C10.219 10.7793 10.7022 10.4952 11.2373 10.395L24.2842 7.94503C24.4534 7.91317 24.6276 7.91917 24.7943 7.9626C24.9609 8.00603 25.1159 8.08581 25.248 8.19623C25.3802 8.30664 25.4863 8.44494 25.5586 8.60121C25.631 8.75747 25.6679 8.92782 25.6667 9.10003V15.82C24.9609 15.3985 24.1554 15.1729 23.3333 15.1667C22.4104 15.1667 21.5081 15.4404 20.7407 15.9532C19.9732 16.466 19.3751 17.1948 19.0219 18.0475C18.6687 18.9002 18.5763 19.8385 18.7563 20.7438C18.9364 21.649 19.3809 22.4806 20.0335 23.1332C20.6861 23.7858 21.5177 24.2303 22.4229 24.4104C23.3282 24.5904 24.2665 24.498 25.1192 24.1448C25.9719 23.7916 26.7007 23.1935 27.2135 22.426C27.7263 21.6586 28 20.7563 28 19.8334V4.6667C28.0008 3.98098 27.85 3.30356 27.5583 2.68295C27.2667 2.06234 26.8414 1.51389 26.313 1.07687ZM4.66667 25.6667C4.20518 25.6667 3.75405 25.5299 3.37034 25.2735C2.98662 25.0171 2.68755 24.6527 2.51095 24.2263C2.33435 23.7999 2.28814 23.3308 2.37817 22.8782C2.4682 22.4255 2.69043 22.0098 3.01675 21.6835C3.34308 21.3571 3.75884 21.1349 4.21146 21.0449C4.66408 20.9548 5.13324 21.001 5.5596 21.1776C5.98596 21.3543 6.35037 21.6533 6.60676 22.037C6.86315 22.4207 7 22.8719 7 23.3334C7 23.9522 6.75417 24.5457 6.31658 24.9833C5.879 25.4209 5.28551 25.6667 4.66667 25.6667ZM23.8548 5.65603L10.8068 8.10137C10.288 8.20022 9.7898 8.38642 9.33333 8.65203V7.8237C9.33322 7.00729 9.61852 6.21653 10.1398 5.58824C10.6612 4.95996 11.3857 4.53369 12.1882 4.3832L22.904 2.3742C23.2409 2.31114 23.5875 2.32306 23.9192 2.40911C24.2509 2.49516 24.5596 2.65323 24.8234 2.87207C25.0871 3.09092 25.2994 3.36518 25.4451 3.67535C25.5909 3.98552 25.6665 4.32399 25.6667 4.6667V5.8147C25.0878 5.60058 24.4621 5.54579 23.8548 5.65603ZM23.3333 22.1667C22.8718 22.1667 22.4207 22.0299 22.037 21.7735C21.6533 21.5171 21.3542 21.1527 21.1776 20.7263C21.001 20.2999 20.9548 19.8308 21.0448 19.3782C21.1349 18.9255 21.3571 18.5098 21.6834 18.1835C22.0097 17.8571 22.4255 17.6349 22.8781 17.5449C23.3307 17.4548 23.7999 17.501 24.2263 17.6776C24.6526 17.8543 25.017 18.1533 25.2734 18.537C25.5298 18.9207 25.6667 19.3719 25.6667 19.8334C25.6667 20.4522 25.4208 21.0457 24.9832 21.4833C24.5457 21.9209 23.9522 22.1667 23.3333 22.1667Z" fill="white"/>
</g>
<defs>
<clipPath id="clip0_2043_121196">
<rect width="28" height="28" fill="white"/>
</clipPath>
</defs>
</svg>
