<svg width="21" height="23" viewBox="0 0 21 23" fill="none" xmlns="http://www.w3.org/2000/svg">
<path d="M10.4173 22.9749C12.3038 22.9749 13.882 21.6313 14.2444 19.853H6.59015C6.95274 21.6313 8.53088 22.9749 10.4173 22.9749Z" fill="#ACBAC3"/>
<path d="M17.7214 10.4865C17.7172 10.4865 17.713 10.4875 17.7088 10.4875C13.6891 10.4875 10.4172 7.21985 10.4172 3.20318C10.4172 2.09897 10.6715 1.05517 11.1142 0.11655C10.8849 0.0948274 10.6526 0.0812988 10.4172 0.0812988C6.39026 0.0812988 3.12565 3.34246 3.12565 7.36561V10.2668C3.12565 12.3262 2.22252 14.2702 0.638084 15.6084C0.10994 16.059 -0.124473 16.777 0.065117 17.4774C0.285988 18.2922 1.09222 18.8126 1.93813 18.8126H18.8912C19.7787 18.8126 20.6153 18.2381 20.7953 17.3692C20.9349 16.6969 20.6954 16.0257 20.1735 15.5876C18.6589 14.3191 17.7829 12.4552 17.7214 10.4865Z" fill="#ACBAC3"/>
</svg>
