<svg width="17" height="16" viewBox="0 0 17 16" fill="none" xmlns="http://www.w3.org/2000/svg">
<circle cx="8.75653" cy="8" r="8" fill="#B3C61F"/>
<path d="M12.8055 3.2002C13.0763 3.2002 13.3055 3.42936 13.3055 3.7002V6.03353C13.3055 6.3252 13.0763 6.53353 12.8055 6.53353C12.5138 6.53353 12.3055 6.3252 12.3055 6.03353V4.90853L10.5347 6.67936C11.6388 8.11686 11.5347 10.1585 10.2222 11.471C9.493 12.1794 8.57633 12.5335 7.63883 12.5335C6.6805 12.5335 5.743 12.1794 5.03467 11.471C3.59717 10.0335 3.59717 7.72103 5.03467 6.28353C5.743 5.5752 6.6805 5.2002 7.63883 5.2002C8.40967 5.2002 9.1805 5.47103 9.82633 5.97103L11.5972 4.2002H10.4722C10.1805 4.2002 9.97217 3.99186 9.97217 3.7002C9.97217 3.42936 10.1805 3.2002 10.4722 3.2002H12.8055ZM9.51383 10.7627C10.5555 9.72103 10.5555 8.03353 9.51383 6.99186C9.01383 6.49186 8.34717 6.2002 7.63883 6.2002C6.90967 6.2002 6.243 6.49186 5.743 6.99186C4.70133 8.03353 4.70133 9.72103 5.743 10.7627C6.243 11.2627 6.90967 11.5335 7.63883 11.5335C8.34717 11.5335 9.01383 11.2627 9.51383 10.7627Z" fill="white"/>
</svg>
