<svg width="28" height="12" viewBox="0 0 28 12" fill="none" xmlns="http://www.w3.org/2000/svg">
<path d="M2.92907 11.7783L0.0119329 8.86117C-0.421171 8.42807 -0.44567 7.73387 -0.0442458 7.2714C0.291102 6.88507 0.57274 6.57802 0.800675 6.35008C8.0905 -0.939739 19.9095 -0.939739 27.1993 6.35008C27.4273 6.57801 27.7089 6.88514 28.0442 7.27144C28.4456 7.73394 28.4211 8.4281 27.9881 8.86114L25.0709 11.7784C24.8591 11.9901 24.5214 12.0071 24.2894 11.8177C24.0812 11.6476 23.9116 11.5135 23.7806 11.4154C22.4483 10.4168 20.9982 9.64841 19.4845 9.11012C19.2416 9.02372 19.0955 8.77556 19.1379 8.5212L19.6465 5.46882C16.0305 4.02075 11.9695 4.02073 8.35341 5.46878L8.86134 8.51576C8.90415 8.77323 8.75632 9.02435 8.51057 9.11188C6.99735 9.65049 5.54773 10.4192 4.216 11.418C4.08582 11.5155 3.91737 11.6488 3.71055 11.8177C3.47857 12.0071 3.14083 11.9901 2.92907 11.7783Z" fill="white"/>
</svg>
