<svg width="14" height="22" viewBox="0 0 14 22" fill="none" xmlns="http://www.w3.org/2000/svg">
<path fill-rule="evenodd" clip-rule="evenodd" d="M1.002 11.2346V3.38059C0.909735 2.71824 1.1342 2.05105 1.60806 1.57916C2.08191 1.10727 2.75004 0.885578 3.412 0.980594H10.847C11.4669 0.924624 12.08 1.14387 12.5239 1.5802C12.9677 2.01653 13.1974 2.62586 13.152 3.24659C13.1613 3.77989 13.1582 4.31585 13.1551 4.8518V4.85193C13.1536 5.11993 13.152 5.38793 13.152 5.65559V19.1116C13.2853 20.202 12.5714 21.2162 11.5 21.4586C11.2955 21.5012 11.0868 21.52 10.878 21.5146C8.33 21.5179 5.782 21.5179 3.234 21.5146C2.63191 21.5635 2.03851 21.3468 1.60973 20.9213C1.18095 20.4958 0.959656 19.904 1.004 19.3016C0.997447 17.5384 0.999051 15.7766 1.00066 14.0151C1.0015 13.0882 1.00234 12.1614 1.002 11.2346ZM2.702 17.4976H11.437V3.73259H2.704L2.702 17.4976ZM7.74501 20.0925C7.54358 20.2892 7.27035 20.3947 6.989 20.3846L6.988 20.3856C6.71501 20.3869 6.4527 20.2796 6.25892 20.0873C6.06514 19.8951 5.95579 19.6336 5.955 19.3606C5.95196 18.9855 6.14928 18.6372 6.47264 18.447C6.79599 18.2568 7.19625 18.2536 7.52264 18.4385C7.84903 18.6235 8.05196 18.9685 8.055 19.3436C8.05846 19.6251 7.94643 19.8958 7.74501 20.0925Z" fill="#3AAF69"/>
</svg>
