<svg width="24" height="24" viewBox="0 0 24 24" fill="none" xmlns="http://www.w3.org/2000/svg">
<path d="M9.15366 11.8255L17.3422 6.50423L4.03163 8.8183L9.15366 11.8255ZM10.1753 13.3977L10.8641 19.3324L18.3639 8.07642L10.1753 13.3977ZM2.04541 7.26729L20.8059 4.0204C21.3054 3.92875 21.8229 4.15151 22.0996 4.57732C22.355 4.97037 22.3484 5.53369 22.0618 5.95288L11.4747 21.7773C11.188 22.1965 10.6329 22.4175 10.1252 22.2816C9.63888 22.1783 9.2541 21.7296 9.1952 21.2088L8.32159 13.4843L1.63903 9.58115C1.18709 9.31581 0.933322 8.78193 1.01526 8.26283C1.11848 7.77647 1.54594 7.35894 2.04541 7.26729Z" fill="#1F1F1F"/>
</svg>
