<svg width="24" height="24" viewBox="0 0 24 24" fill="none" xmlns="http://www.w3.org/2000/svg">
<path d="M20.75 7.5C20.75 9.57031 19.0703 11.25 17 11.25C15.8672 11.25 14.8516 10.7812 14.1484 9.96094L10.6328 11.7188C10.7109 11.9922 10.75 12.2656 10.75 12.5C10.75 12.7734 10.7109 13.0469 10.6328 13.3203L14.1484 15.0391C14.8516 14.2578 15.8672 13.75 17 13.75C19.0703 13.75 20.75 15.4297 20.75 17.5C20.75 19.5703 19.0703 21.25 17 21.25C14.9297 21.25 13.25 19.5703 13.25 17.5C13.25 17.2656 13.25 16.9922 13.3281 16.7188L9.8125 14.9609C9.10938 15.7812 8.09375 16.25 7 16.25C4.92969 16.25 3.25 14.5703 3.25 12.5C3.25 10.4297 4.92969 8.75 7 8.75C8.09375 8.75 9.10938 9.25781 9.8125 10.0391L13.3281 8.32031C13.25 8.04688 13.25 7.77344 13.25 7.5C13.25 5.42969 14.9297 3.75 17 3.75C19.0703 3.75 20.75 5.42969 20.75 7.5ZM7 14.375C7.66406 14.375 8.25 14.0234 8.60156 13.4375C8.95312 12.8906 8.95312 12.1484 8.60156 11.5625C8.25 11.0156 7.66406 10.625 7 10.625C6.29688 10.625 5.71094 11.0156 5.35938 11.5625C5.00781 12.1484 5.00781 12.8906 5.35938 13.4375C5.71094 14.0234 6.29688 14.375 7 14.375ZM18.875 7.5C18.875 6.83594 18.4844 6.25 17.9375 5.89844C17.3516 5.54688 16.6094 5.54688 16.0625 5.89844C15.4766 6.25 15.125 6.83594 15.125 7.5C15.125 8.20312 15.4766 8.78906 16.0625 9.14062C16.6094 9.49219 17.3516 9.49219 17.9375 9.14062C18.4844 8.78906 18.875 8.20312 18.875 7.5ZM17 19.375C17.6641 19.375 18.25 19.0234 18.6016 18.4375C18.9531 17.8906 18.9531 17.1484 18.6016 16.5625C18.25 16.0156 17.6641 15.625 17 15.625C16.2969 15.625 15.7109 16.0156 15.3594 16.5625C15.0078 17.1484 15.0078 17.8906 15.3594 18.4375C15.7109 19.0234 16.2969 19.375 17 19.375Z" fill="#1F1F1F"/>
</svg>
