<svg width="25" height="25" viewBox="0 0 25 25" fill="none" xmlns="http://www.w3.org/2000/svg">
<path d="M0.787621 22.918C0.880621 22.923 0.974621 22.932 1.06762 22.932H24.5896C24.6826 22.932 24.7766 22.923 24.8696 22.918V24.941C24.8066 24.941 24.7446 24.941 24.6816 24.941H0.974621C0.911621 24.941 0.849621 24.941 0.786621 24.941L0.787621 22.918Z" fill="#13DDC5"/>
<path d="M9.83765 10.9336H15.8246V21.9206H9.83765V10.9336Z" fill="#13DDC5"/>
<path d="M1.80957 13.9375H7.78557V21.9155H1.80957V13.9375Z" fill="#13DDC5"/>
<path d="M23.8556 15.9395V21.9185H17.8706V15.9425L23.8556 15.9395Z" fill="#13DDC5"/>
<path d="M16.8717 4.1709C16.7957 4.3091 16.7048 4.43854 16.6007 4.5569C16.1007 5.0189 15.5877 5.4689 15.0737 5.9169C14.9712 5.98959 14.9302 6.12201 14.9737 6.2399C15.1397 6.9079 15.2907 7.5799 15.4467 8.2499C15.5222 8.45395 15.4718 8.68333 15.3177 8.8369C15.1508 8.99162 14.8959 9.00139 14.7177 8.8599C14.1437 8.4929 13.5707 8.1249 13.0027 7.7489C12.9063 7.66711 12.765 7.66711 12.6687 7.7489C12.1147 8.1179 11.5517 8.4729 10.9957 8.8389C10.8257 8.98958 10.5756 9.00683 10.3867 8.8809C10.2026 8.74575 10.1301 8.50527 10.2087 8.2909C10.3647 7.6119 10.5177 6.9329 10.6867 6.2579C10.7349 6.13412 10.6939 5.99334 10.5867 5.9149C10.0867 5.4789 9.59165 5.0289 9.08665 4.5909C8.88172 4.45953 8.79131 4.20637 8.86665 3.9749C8.94653 3.75383 9.16432 3.61341 9.39865 3.6319C10.0237 3.5919 10.6477 3.5319 11.2727 3.4919C11.4453 3.50188 11.6007 3.38767 11.6427 3.2199C11.8657 2.6019 12.1187 1.9949 12.3507 1.3799C12.4377 1.1479 12.5657 0.971901 12.8307 0.966901C13.0957 0.961901 13.2307 1.1369 13.3147 1.3669C13.5427 1.9749 13.7937 2.5739 14.0147 3.1859C14.06 3.37814 14.2388 3.50854 14.4357 3.4929C15.0767 3.5299 15.7167 3.5869 16.3567 3.6369C16.6385 3.65936 16.8594 3.88841 16.8717 4.1709Z" fill="#13DDC5"/>
</svg>
