<svg width="25" height="25" viewBox="0 0 25 25" fill="none" xmlns="http://www.w3.org/2000/svg">
<path d="M3.5 8.528C3.5 7.572 3.5 7.094 3.608 6.702C3.74606 6.20163 4.01158 5.74565 4.37862 5.37862C4.74565 5.01158 5.20163 4.74606 5.702 4.608C6.094 4.5 6.572 4.5 7.528 4.5H16.7C18.38 4.5 19.22 4.5 19.862 4.827C20.4265 5.11462 20.8854 5.57354 21.173 6.138C21.5 6.78 21.5 7.62 21.5 9.3V15.7C21.5 17.38 21.5 18.22 21.173 18.862C20.8854 19.4265 20.4265 19.8854 19.862 20.173C19.22 20.5 18.38 20.5 16.7 20.5H14.647" stroke="black" stroke-width="1.5" stroke-linecap="round" stroke-linejoin="round"/>
<path d="M11.5 20.5C11.5 18.3783 10.6571 16.3434 9.15685 14.8431C7.65656 13.3429 5.62173 12.5 3.5 12.5M3.5 20.504L3.853 20.15M7.5 20.5C7.5 19.4391 7.07857 18.4217 6.32843 17.6716C5.57828 16.9214 4.56087 16.5 3.5 16.5" stroke="#FF414B" stroke-width="1.5" stroke-linecap="round" stroke-linejoin="round"/>
</svg>
