<svg width="28" height="28" viewBox="0 0 28 28" fill="none" xmlns="http://www.w3.org/2000/svg">
<g clip-path="url(#clip0_2043_134774)">
<path d="M26.7202 7.62585C25.9315 7.23152 25.0017 7.31435 24.297 7.84518C24.2515 7.87902 24.2083 7.91752 24.1687 7.95718L22.1188 10.0257C21.8727 7.03318 19.3877 4.66602 16.3333 4.66602H5.83333C2.61683 4.66485 0 7.28168 0 10.4982V17.4982C0 20.7147 2.61683 23.3315 5.83333 23.3315H16.3333C19.4005 23.3315 21.896 20.9433 22.1223 17.9333L24.171 19.9797C24.2107 20.0182 24.2515 20.0532 24.2958 20.087C24.7065 20.395 25.1918 20.5513 25.6818 20.5513C26.0353 20.5513 26.3888 20.4708 26.7202 20.3052C27.51 19.9108 28 19.1163 28 18.2355V9.69785C28 8.81468 27.51 8.02018 26.7202 7.62585ZM16.3333 20.9982H5.83333C3.90367 20.9982 2.33333 19.4278 2.33333 17.4982V10.4982C2.33333 8.56852 3.90367 6.99818 5.83333 6.99818H16.3333C18.263 6.99818 19.8333 8.56852 19.8333 10.4982V17.4982C19.8333 19.4278 18.263 20.9982 16.3333 20.9982ZM22.1667 14.6783V13.2912L25.6667 9.75852L25.6958 18.2028L22.1667 14.6772V14.6783Z" fill="white"/>
</g>
<defs>
<clipPath id="clip0_2043_134774">
<rect width="28" height="28" fill="white"/>
</clipPath>
</defs>
</svg>
