<svg width="14" height="14" viewBox="0 0 14 14" fill="none" xmlns="http://www.w3.org/2000/svg">
<path d="M12.424 6.25269H1.13401C1.01582 6.25269 0.920013 6.3485 0.920013 6.46669V13.1087C0.920013 13.2269 1.01582 13.3227 1.13401 13.3227H12.424C12.5422 13.3227 12.638 13.2269 12.638 13.1087V6.46669C12.638 6.3485 12.5422 6.25269 12.424 6.25269V6.25269Z" fill="#F7434C"/>
<path d="M12.424 6.25269H1.13401C1.01582 6.25269 0.920013 6.3485 0.920013 6.46669V7.32269H12.638V6.46669C12.638 6.3485 12.5422 6.25269 12.424 6.25269V6.25269Z" fill="#DB2E37"/>
<path d="M7.87298 6.25269H5.68598C5.5678 6.25269 5.47198 6.3485 5.47198 6.46669V13.1087C5.47198 13.2269 5.5678 13.3227 5.68598 13.3227H7.87298C7.99117 13.3227 8.08698 13.2269 8.08698 13.1087V6.46669C8.08698 6.3485 7.99117 6.25269 7.87298 6.25269V6.25269Z" fill="#FFDB57"/>
<path d="M7.87298 6.25269H5.68598C5.5678 6.25269 5.47198 6.3485 5.47198 6.46669V7.31869H8.08798V6.46669C8.08799 6.40976 8.0653 6.35517 8.02495 6.31501C7.9846 6.27485 7.92991 6.25242 7.87298 6.25269Z" fill="#F5BA3D"/>
<path d="M12.007 2.29773C11.8081 1.76768 11.5071 1.28183 11.121 0.867729C10.9909 0.739032 10.8128 0.670829 10.63 0.679729C9.98701 0.694729 8.94001 1.50173 7.51701 3.07973C7.48165 3.11897 7.46206 3.16991 7.46201 3.22273V4.35473C7.46201 4.47292 7.55782 4.56873 7.67601 4.56873H10.969C11.4579 4.62804 11.9285 4.36214 12.13 3.91273C12.2898 3.37767 12.2459 2.80243 12.007 2.29773Z" fill="#FFDB57"/>
<path d="M12.13 2.67088C12.1241 2.64885 12.1146 2.62791 12.102 2.60888C11.779 2.11988 11.08 2.30288 10.551 2.54288C9.67978 2.90182 8.92026 3.48699 8.35101 4.23788C8.30798 4.30378 8.30459 4.38798 8.34219 4.45712C8.37979 4.52626 8.45231 4.56918 8.53101 4.56888H10.968C11.3596 4.60119 11.7428 4.44256 11.997 4.14288C12.2676 3.69951 12.3167 3.15557 12.13 2.67088Z" fill="#EF9325"/>
<path d="M6.041 3.0778C4.618 1.5018 3.571 0.694796 2.928 0.677796C2.7452 0.668771 2.56702 0.736993 2.437 0.865796C2.05083 1.28019 1.7498 1.76639 1.551 2.2968C1.31266 2.80094 1.26886 3.37534 1.428 3.9098C1.62948 4.35921 2.10007 4.62511 2.589 4.5658H5.882C6.00019 4.5658 6.096 4.46999 6.096 4.3518V3.2208C6.09594 3.16798 6.07635 3.11704 6.041 3.0778Z" fill="#FFDB57"/>
<path d="M5.205 4.23689C4.63574 3.486 3.87623 2.90083 3.005 2.54189C2.476 2.30289 1.777 2.11989 1.454 2.60789C1.44143 2.62694 1.43198 2.64787 1.426 2.66989C1.23902 3.15398 1.28741 3.69746 1.557 4.14089C1.81119 4.44057 2.19436 4.5992 2.586 4.56689H5.023C5.1017 4.56719 5.17421 4.52427 5.21181 4.45513C5.24941 4.38599 5.24603 4.30179 5.203 4.23589L5.205 4.23689Z" fill="#EF9325"/>
<path d="M7.67601 2.7959H5.88301C5.76482 2.7959 5.66901 2.89171 5.66901 3.0099V4.3539C5.66901 4.47209 5.76482 4.5679 5.88301 4.5679H7.67601C7.7942 4.5679 7.89001 4.47209 7.89001 4.3539V3.0099C7.89001 2.89171 7.7942 2.7959 7.67601 2.7959Z" fill="#F5BA3D"/>
<path d="M13.345 4.13989H0.214C0.0958111 4.13989 0 4.2357 0 4.35389V6.46689C0 6.58508 0.0958111 6.68089 0.214 6.68089H13.344C13.4622 6.68089 13.558 6.58508 13.558 6.46689V4.35389C13.558 4.23609 13.4628 4.14044 13.345 4.13989Z" fill="#F7434C"/>
<rect x="5.13501" y="4.13989" width="3.289" height="2.541" fill="#FFDB57"/>
</svg>
