<svg width="15" height="15" viewBox="0 0 15 15" fill="none" xmlns="http://www.w3.org/2000/svg">
<circle cx="7.5" cy="7.5" r="7.5" fill="#FF404A"/>
<path d="M9.80201 4.53161C10.7651 5.97873 10.4764 7.90695 9.22414 9.02183L9.66779 9.68848L10.4483 9.16909C10.6596 9.02842 10.9575 9.08825 11.0982 9.29963C11.2497 9.52726 11.179 9.80889 10.9677 9.94956L10.1872 10.469L10.7066 11.2494C10.8581 11.4771 10.7874 11.7587 10.576 11.8994C10.3484 12.0508 10.0776 11.9965 9.9261 11.7688L9.40671 10.9883L8.62624 11.5077C8.3986 11.6592 8.12779 11.6048 7.9763 11.3772C7.83563 11.1658 7.8792 10.8788 8.10684 10.7273L8.88731 10.2079L8.44367 9.54122C6.91547 10.2767 5.05241 9.80388 4.07855 8.3405C3.02894 6.76329 3.44237 4.63475 5.03583 3.57432C6.61304 2.52471 8.7524 2.95441 9.80201 4.53161ZM4.85902 7.8211C5.62729 8.97555 7.17088 9.28558 8.32533 8.51731C9.46352 7.75986 9.78981 6.20545 9.02154 5.051C8.26409 3.91282 6.69342 3.59735 5.55523 4.35479C4.40078 5.12306 4.10157 6.68291 4.85902 7.8211Z" fill="white"/>
</svg>
