<svg width="16" height="16" viewBox="0 0 16 16" fill="none" xmlns="http://www.w3.org/2000/svg">
<circle cx="8.42822" cy="8" r="7.5" fill="#B3C61F"/>
<path d="M12.2241 3.5C12.478 3.5 12.6929 3.71484 12.6929 3.96875V6.15625C12.6929 6.42969 12.478 6.625 12.2241 6.625C11.9507 6.625 11.7554 6.42969 11.7554 6.15625V5.10156L10.0952 6.76172C11.1304 8.10938 11.0327 10.0234 9.80225 11.2539C9.11865 11.918 8.25928 12.25 7.38037 12.25C6.48193 12.25 5.60303 11.918 4.93896 11.2539C3.59131 9.90625 3.59131 7.73828 4.93896 6.39062C5.60303 5.72656 6.48193 5.375 7.38037 5.375C8.10303 5.375 8.82568 5.62891 9.43115 6.09766L11.0913 4.4375H10.0366C9.76318 4.4375 9.56787 4.24219 9.56787 3.96875C9.56787 3.71484 9.76318 3.5 10.0366 3.5H12.2241ZM9.13818 10.5898C10.1147 9.61328 10.1147 8.03125 9.13818 7.05469C8.66943 6.58594 8.04443 6.3125 7.38037 6.3125C6.69678 6.3125 6.07178 6.58594 5.60303 7.05469C4.62646 8.03125 4.62646 9.61328 5.60303 10.5898C6.07178 11.0586 6.69678 11.3125 7.38037 11.3125C8.04443 11.3125 8.66943 11.0586 9.13818 10.5898Z" fill="white"/>
</svg>
