<svg width="24" height="24" viewBox="0 0 24 24" fill="none" xmlns="http://www.w3.org/2000/svg">
<path d="M23.2975 12.3C23.3064 18.663 18.1605 23.8312 11.7975 23.85H11.7475C5.36862 23.85 0.19751 18.6789 0.19751 12.3C0.19751 5.92111 5.36862 0.75 11.7475 0.75H11.7975C18.1596 0.77095 23.3042 5.93787 23.2975 12.3Z" fill="#6E398D"/>
<path fill-rule="evenodd" clip-rule="evenodd" d="M0.138403 13.0686C0.516995 19.2046 5.59873 23.9902 11.7464 24.0002C12.7299 24.0009 13.7096 23.8779 14.6624 23.6342C20.617 22.1052 24.3584 16.2122 23.2088 10.1729C22.0592 4.13362 16.4144 0.0272672 10.3146 0.792888C4.2147 1.55851 -0.240189 6.93252 0.138403 13.0686ZM2.73923 5.31788C4.89848 2.53357 8.22298 0.903029 11.7464 0.900184L11.7474 0.899184C13.7879 0.896197 15.7914 1.44303 17.5474 2.48218C19.2019 3.46388 20.5831 4.84551 21.5644 6.50018C23.68 10.0775 23.68 14.5229 21.5644 18.1002C20.5833 19.7549 19.202 21.1366 17.5474 22.1182C13.9701 24.2336 9.52479 24.2336 5.94744 22.1182C4.29224 21.1371 2.9105 19.7554 1.92944 18.1002C1.38232 17.177 0.969188 16.1807 0.702439 15.1412C-0.171787 11.7279 0.57998 8.10219 2.73923 5.31788Z" fill="#6E398D"/>
<path d="M2.91745 8.74646L2.88345 8.83346L2.84945 8.92046C1.96969 11.2182 2.02027 13.7684 2.99045 16.0295L3.02845 16.1155L3.06545 16.2015C4.06817 18.4484 5.90741 20.2159 8.19245 21.1285L8.27945 21.1625L8.36645 21.1965C10.6642 22.0762 13.2144 22.0256 15.4754 21.0555L15.5614 21.0175L15.6474 20.9805C17.8943 19.9776 19.6618 18.1384 20.5744 15.8535L20.6084 15.7665L20.6424 15.6795C21.5222 13.3817 21.4716 10.8315 20.5014 8.57046L20.4654 8.48946L20.4264 8.39946C19.4235 6.15264 17.5844 4.38521 15.2994 3.47246L15.2124 3.43846L15.1254 3.40446C12.8277 2.5246 10.2775 2.57518 8.01645 3.54546L7.92645 3.58546L7.84445 3.62146C5.59757 4.62427 3.83011 6.46347 2.91745 8.74846V8.74646Z" fill="white"/>
<path d="M19.9445 8.73047L11.8335 12.2805H20.6895C20.6862 11.0587 20.4326 9.85051 19.9445 8.73047V8.73047Z" fill="#829495"/>
<path d="M20.0785 15.5423C20.4793 14.5153 20.6861 13.4228 20.6885 12.3203H11.8425L20.0785 15.5423Z" fill="#E9EFF0"/>
<path d="M15.0194 3.98047L11.7944 12.2255L18.0564 5.96447C17.1909 5.10185 16.1571 4.42652 15.0194 3.98047Z" fill="#9E6DAC"/>
<path d="M19.9294 8.69923C19.4856 7.69032 18.8594 6.77194 18.0824 5.99023L11.8274 12.2452L19.9294 8.69923Z" fill="#6E398D"/>
<path d="M3.56348 15.9015C4.00718 16.9104 4.63334 17.8288 5.41048 18.6105L11.6655 12.3555L3.56348 15.9015Z" fill="#6E398D"/>
<path d="M8.47252 20.62L11.6975 12.375L5.43652 18.637C6.30189 19.4991 7.33529 20.1741 8.47252 20.62Z" fill="#9E6DAC"/>
<path d="M15.3475 20.4829C16.3564 20.039 17.2748 19.4129 18.0565 18.6359L11.8015 12.3809L15.3475 20.4829Z" fill="#6E398D"/>
<path d="M20.0656 15.5727L11.8206 12.3477L18.0826 18.6097C18.9448 17.744 19.6198 16.7103 20.0656 15.5727Z" fill="#9E6DAC"/>
<path d="M8.14552 4.11719C7.13656 4.56091 6.21817 5.18707 5.43652 5.96419L11.6915 12.2192L8.14552 4.11719Z" fill="#6E398D"/>
<path d="M3.42651 9.02723L11.6715 12.2522L5.40951 5.99023C4.54725 6.85588 3.87227 7.88963 3.42651 9.02723H3.42651Z" fill="#9E6DAC"/>
<path d="M3.41347 9.06055C3.01268 10.0876 2.80585 11.1801 2.80347 12.2825H11.6495L3.41347 9.06055Z" fill="#E9EFF0"/>
<path d="M3.54847 15.8742L11.6595 12.3242H2.80347C2.80692 13.546 3.06045 14.7541 3.54847 15.8742Z" fill="#829495"/>
<path d="M8.50635 20.6325C9.53341 21.0332 10.6259 21.2401 11.7283 21.2425V12.3965L8.50635 20.6325Z" fill="#E9EFF0"/>
<path d="M15.3154 20.4977L11.7654 12.3867V21.2427C12.9872 21.2392 14.1953 20.9857 15.3154 20.4977Z" fill="#829495"/>
<path d="M8.17847 4.10242L11.7285 12.2134V3.35742C10.5067 3.36076 9.29852 3.6143 8.17847 4.10242Z" fill="#829495"/>
<path d="M14.9874 3.96742C13.9603 3.56666 12.8679 3.35983 11.7654 3.35742V12.2034L14.9874 3.96742Z" fill="#E9EFF0"/>
<path d="M12.8685 14.3516V19.0706L11.7475 20.3226L10.6255 19.0706V14.3516H12.8685Z" fill="#CF0D1B"/>
<path d="M12.8676 14.3516V19.0706L11.7466 20.3226V14.3526L12.8676 14.3516Z" fill="#A50C1B"/>
<path d="M11.7445 1.10938C11.3739 1.10938 11.0735 1.40979 11.0735 1.78038C11.0735 2.15096 11.3739 2.45138 11.7445 2.45138C12.1151 2.45138 12.4155 2.15096 12.4155 1.78038C12.4155 1.60241 12.3448 1.43174 12.219 1.30591C12.0931 1.18007 11.9224 1.10938 11.7445 1.10938V1.10938Z" fill="#FFD300"/>
<path d="M11.7445 22.1504C11.3739 22.1504 11.0735 22.4508 11.0735 22.8214C11.0735 23.192 11.3739 23.4924 11.7445 23.4924C12.1151 23.4924 12.4155 23.192 12.4155 22.8214C12.4155 22.6434 12.3448 22.4728 12.219 22.3469C12.0931 22.2211 11.9224 22.1504 11.7445 22.1504Z" fill="#FFD300"/>
<path d="M22.2655 11.6289C21.8949 11.6289 21.5945 11.9293 21.5945 12.2999C21.5945 12.6705 21.8949 12.9709 22.2655 12.9709C22.6361 12.9709 22.9365 12.6705 22.9365 12.2999C22.9365 12.1219 22.8658 11.9513 22.74 11.8254C22.6141 11.6996 22.4434 11.6289 22.2655 11.6289V11.6289Z" fill="#FFD300"/>
<path d="M1.89742 12.3019C1.89742 11.9313 1.597 11.6309 1.22642 11.6309C0.855837 11.6309 0.55542 11.9313 0.55542 12.3019C0.55542 12.6724 0.855837 12.9729 1.22642 12.9729C1.597 12.9729 1.89742 12.6724 1.89742 12.3019Z" fill="#FFD300"/>
<path d="M18.7114 4.38797C18.4494 4.65002 18.4494 5.07486 18.7114 5.33689C18.9735 5.59891 19.3983 5.59891 19.6604 5.33689C19.9224 5.07486 19.9224 4.65002 19.6604 4.38797C19.5346 4.26211 19.3639 4.19141 19.1859 4.19141C19.0079 4.19141 18.8372 4.26211 18.7114 4.38797Z" fill="#FFD300"/>
<path d="M3.83346 19.2649C3.57145 19.527 3.57147 19.9518 3.8335 20.2138C4.09554 20.4759 4.52038 20.4759 4.78242 20.2138C5.04446 19.9518 5.04448 19.527 4.78246 19.2649C4.65662 19.1391 4.48594 19.0684 4.30796 19.0684C4.12999 19.0684 3.9593 19.1391 3.83346 19.2649Z" fill="#FFD300"/>
<path d="M18.7114 19.2649C18.4494 19.527 18.4494 19.9518 18.7114 20.2138C18.9735 20.4759 19.3983 20.4759 19.6604 20.2138C19.9224 19.9518 19.9224 19.527 19.6604 19.2649C19.5346 19.1391 19.3639 19.0684 19.1859 19.0684C19.0079 19.0684 18.8372 19.1391 18.7114 19.2649Z" fill="#FFD300"/>
<circle cx="4.30747" cy="4.86045" r="0.671" fill="#FFD300"/>
<path d="M21.7015 8.82807C22.0426 8.68355 22.202 8.28995 22.0577 7.94878C21.9133 7.60761 21.5198 7.44796 21.1786 7.59214C20.8373 7.73631 20.6775 8.12975 20.8215 8.47107C20.8907 8.6352 21.0224 8.76505 21.1875 8.83202C21.3526 8.89898 21.5375 8.89756 21.7015 8.82807Z" fill="#FFD300"/>
<path d="M1.79338 15.7737C1.54332 15.8792 1.38147 16.125 1.38332 16.3964C1.38516 16.6679 1.55034 16.9114 1.80181 17.0136C2.05328 17.1157 2.34152 17.0563 2.53209 16.863C2.72266 16.6697 2.77803 16.3807 2.67238 16.1307C2.52817 15.7894 2.13469 15.6296 1.79338 15.7737Z" fill="#FFD300"/>
<path d="M15.5774 21.3754C15.2363 21.52 15.0768 21.9136 15.2212 22.2547C15.3655 22.5959 15.759 22.7555 16.1003 22.6114C16.4415 22.4672 16.6014 22.0737 16.4574 21.7324C16.3881 21.5683 16.2565 21.4384 16.0914 21.3715C15.9263 21.3045 15.7414 21.3059 15.5774 21.3754Z" fill="#FFD300"/>
<path d="M7.91754 3.22671C8.1676 3.12117 8.32944 2.87537 8.3276 2.60396C8.32575 2.33254 8.16058 2.08897 7.90911 1.98684C7.65763 1.8847 7.3694 1.94413 7.17883 2.13739C6.98826 2.33066 6.93288 2.6197 7.03854 2.86971C7.18274 3.21096 7.57622 3.37077 7.91754 3.22671Z" fill="#FFD300"/>
<path d="M21.7463 15.6412C21.403 15.5019 21.0118 15.6671 20.8723 16.0103C20.7328 16.3535 20.8978 16.7448 21.241 16.8845C21.5841 17.0241 21.9755 16.8593 22.1153 16.5162C22.1825 16.3513 22.1814 16.1664 22.1122 16.0022C22.043 15.8381 21.9113 15.7082 21.7463 15.6412Z" fill="#FFD300"/>
<path d="M1.74854 8.96056C1.99998 9.06279 2.28824 9.00346 2.47888 8.81026C2.66952 8.61706 2.72499 8.32803 2.61942 8.07798C2.51385 7.82793 2.26803 7.66611 1.99661 7.66798C1.7252 7.66986 1.48164 7.83507 1.37954 8.08656C1.24019 8.4298 1.40536 8.82104 1.74854 8.96056Z" fill="#FFD300"/>
<path d="M8.03853 21.4244C7.69528 21.2851 7.30405 21.4503 7.16456 21.7935C7.02506 22.1367 7.19008 22.528 7.5332 22.6677C7.87632 22.8073 8.26771 22.6425 8.40753 22.2994C8.47477 22.1345 8.47365 21.9496 8.40444 21.7854C8.33522 21.6213 8.20358 21.4914 8.03853 21.4244Z" fill="#FFD300"/>
<path d="M15.4555 3.17572C15.7988 3.31505 16.19 3.14985 16.3295 2.80666C16.469 2.46347 16.304 2.07216 15.9608 1.9325C15.6177 1.79284 15.2263 1.95767 15.0865 2.30072C15.0193 2.46567 15.0204 2.65059 15.0896 2.81472C15.1588 2.97885 15.2904 3.10873 15.4555 3.17572Z" fill="#FFD300"/>
<circle cx="11.7473" cy="12.2996" r="4.116" fill="#E7E7E8"/>
<circle cx="11.7463" cy="12.3003" r="3.146" fill="#6E398D"/>
<path d="M11.5974 11.8659H10.7404V11.5659C10.7462 11.4473 10.7378 11.3285 10.7154 11.2119C10.6947 11.1701 10.6529 11.1428 10.6063 11.1407C10.5597 11.1387 10.5157 11.1621 10.4914 11.2019C10.4651 11.304 10.4553 11.4097 10.4624 11.5149V13.0969C10.4567 13.1952 10.4665 13.2937 10.4914 13.3889C10.5095 13.4351 10.556 13.4637 10.6054 13.4589C10.6604 13.4633 10.7119 13.4312 10.7324 13.3799C10.7606 13.2795 10.7717 13.175 10.7654 13.0709V12.6799H10.5924V12.1799H11.5924V13.9489H11.0604L10.9814 13.7129C10.9297 13.8077 10.8533 13.8869 10.7604 13.9419C10.6639 13.9945 10.5552 14.0207 10.4454 14.0179C10.3057 14.0192 10.168 13.9848 10.0454 13.9179C9.9297 13.8571 9.83131 13.768 9.75937 13.6589C9.69603 13.5605 9.65444 13.4497 9.63737 13.3339C9.61827 13.1646 9.61025 12.9942 9.61337 12.8239V11.8449C9.6063 11.6151 9.62339 11.3852 9.66437 11.1589C9.71144 10.9974 9.81509 10.8582 9.95637 10.7669C10.1396 10.6415 10.3586 10.579 10.5804 10.5889C10.7991 10.5807 11.0158 10.6344 11.2054 10.7439C11.3523 10.8254 11.4668 10.955 11.5294 11.1109C11.5872 11.3116 11.6126 11.5202 11.6044 11.7289L11.5974 11.8659Z" fill="white"/>
<path fill-rule="evenodd" clip-rule="evenodd" d="M13.8644 13.2813C13.8797 13.148 13.8874 12.9146 13.8874 12.5813V12.0173C13.8915 11.7797 13.8835 11.5421 13.8634 11.3053C13.827 11.0197 13.6387 10.7763 13.3714 10.6693C13.2202 10.6095 13.0589 10.58 12.8964 10.5823C12.7288 10.5788 12.5623 10.6101 12.4074 10.6743C12.1433 10.7848 11.9599 11.0298 11.9284 11.3143C11.913 11.4476 11.9054 11.681 11.9054 12.0143V12.5783C11.9012 12.8159 11.9092 13.0535 11.9294 13.2903C11.9653 13.5761 12.1538 13.8197 12.4214 13.9263C12.5725 13.9861 12.7339 14.0157 12.8964 14.0133C13.064 14.0168 13.2305 13.9855 13.3854 13.9213C13.6496 13.811 13.833 13.5659 13.8644 13.2813ZM13.0054 11.2043C13.0279 11.3006 13.0363 11.3996 13.0304 11.4983L13.0374 13.0133C13.0433 13.1365 13.0353 13.2599 13.0134 13.3813C12.9999 13.4309 12.9525 13.4635 12.9014 13.4583C12.8536 13.4652 12.8078 13.437 12.7924 13.3913C12.7708 13.2746 12.7631 13.1558 12.7694 13.0373V11.4983C12.7596 11.3949 12.7719 11.2906 12.8054 11.1923C12.8276 11.159 12.8653 11.1394 12.9054 11.1403C12.9491 11.1374 12.9897 11.1633 13.0054 11.2043Z" fill="white"/>
</svg>
