<svg width="16" height="12" viewBox="0 0 16 12" fill="none" xmlns="http://www.w3.org/2000/svg">
<g opacity="0.9">
<path d="M12.8996 0.188416L13.6353 2.71425H15.579L12.8996 0.188416Z" fill="url(#paint0_linear_1_760)"/>
<path d="M12.8996 0.188416L13.6353 2.71425H14.1301L12.8996 0.188416Z" fill="url(#paint1_linear_1_760)"/>
<path d="M13.6342 2.7132L11.0088 8.02797L15.581 2.7132H13.6342Z" fill="url(#paint2_linear_1_760)"/>
<path opacity="0.3" d="M13.6342 2.7132L11.0088 8.02797L14.1291 2.7132H13.6342Z" fill="url(#paint3_linear_1_760)"/>
<path opacity="0.3" d="M14.2012 4.31499L15.5779 2.7132H13.6332L13.302 3.38359L14.2012 4.31499Z" fill="url(#paint4_linear_1_760)"/>
<path opacity="0.3" d="M12.4709 5.06537L11.0077 8.02796L13.0398 5.65894L12.4709 5.06537Z" fill="url(#paint5_linear_1_760)"/>
<path d="M13.6342 2.7132L9.07825 8.32054L8.0815 11.18L11.0098 8.02797L13.6342 2.7132Z" fill="url(#paint6_linear_1_760)"/>
<path opacity="0.3" d="M13.6342 2.7132L9.07723 8.32054L11.5066 7.02079L13.6342 2.7132Z" fill="url(#paint7_linear_1_760)"/>
<path opacity="0.3" d="M9.38611 7.93958L9.0813 8.3195L8.08455 11.179L10.2985 8.79625C9.92811 8.59704 9.61378 8.30191 9.38611 7.93958V7.93958Z" fill="url(#paint8_linear_1_760)"/>
<path opacity="0.3" d="M12.6913 4.62336L13.6342 2.7132L12.2758 4.38551C12.4217 4.45014 12.5609 4.52983 12.6913 4.62336V4.62336Z" fill="url(#paint9_linear_1_760)"/>
<path d="M9.07723 8.31948L11.0077 2.71213H13.6332L9.07723 8.31948Z" fill="url(#paint10_linear_1_760)"/>
<path opacity="0.3" d="M9.07723 8.31948L11.0077 2.71213H11.7901L9.07723 8.31948Z" fill="url(#paint11_linear_1_760)"/>
<path opacity="0.3" d="M12.5034 2.7132V4.10977L13.6383 2.7132H12.5034Z" fill="url(#paint12_linear_1_760)"/>
<path opacity="0.3" d="M10.7659 3.42462L9.08028 8.31947L10.7659 6.24513V3.42462Z" fill="url(#paint13_linear_1_760)"/>
<path d="M11.0088 2.71318L10.2731 0.187347L13.6342 2.71318H11.0088Z" fill="url(#paint14_linear_1_760)"/>
<path d="M12.0746 1.54077C11.8565 2.03087 11.4987 2.44002 11.0494 2.71318H13.6342L12.0746 1.54077Z" fill="url(#paint15_linear_1_760)"/>
<path d="M10.2731 0.188416H12.8986L13.6342 2.71425L10.2731 0.188416Z" fill="url(#paint16_linear_1_760)"/>
<path opacity="0.3" d="M10.2731 0.188416H10.8563L13.6332 2.71425L10.2731 0.188416Z" fill="url(#paint17_linear_1_760)"/>
<path d="M10.2741 0.188416L8.0815 2.71425H11.0098L10.2741 0.188416Z" fill="url(#paint18_linear_1_760)"/>
<path d="M8.0815 2.71318V0.187347H10.2741L8.0815 2.71318Z" fill="url(#paint19_linear_1_760)"/>
<path opacity="0.3" d="M8.0815 2.71318L9.54564 0.187347H10.2741L8.0815 2.71318Z" fill="url(#paint20_linear_1_760)"/>
<path d="M8.0815 2.7132L9.07825 8.32054L11.0088 2.7132H8.0815Z" fill="url(#paint21_linear_1_760)"/>
<path opacity="0.3" d="M10.2579 2.7132L9.07317 8.32054L11.0037 2.7132H10.2579Z" fill="url(#paint22_linear_1_760)"/>
<path opacity="0.3" d="M10.4347 4.3813L11.0098 2.7132H8.82423L10.4347 4.3813Z" fill="url(#paint23_linear_1_760)"/>
<path d="M8.0815 2.7132V11.18L9.07825 8.32054L8.0815 2.7132Z" fill="url(#paint24_linear_1_760)"/>
<path d="M3.26338 0.188416L2.52776 2.71425H0.584045L3.26338 0.188416Z" fill="url(#paint25_linear_1_760)"/>
<path d="M3.26236 0.188416L2.52674 2.71425H2.21075L3.26236 0.188416Z" fill="url(#paint26_linear_1_760)"/>
<path d="M2.52775 2.7132L5.15324 8.02797L0.580994 2.7132H2.52775Z" fill="url(#paint27_linear_1_760)"/>
<path d="M2.52674 2.7132L5.15121 8.02797L2.21075 2.7132H2.52674Z" fill="url(#paint28_linear_1_760)"/>
<path opacity="0.2" d="M3.48386 4.64966C3.27903 4.89236 3.03056 5.09146 2.7523 5.23586L5.15324 8.02796L3.48386 4.64966Z" fill="url(#paint29_linear_1_760)"/>
<path d="M2.52776 2.7132L7.08476 8.32054L8.0815 11.18L5.15324 8.02797L2.52776 2.7132Z" fill="url(#paint30_linear_1_760)"/>
<path d="M2.52776 2.7132L7.08476 8.32054L8.0815 11.18L6.61737 8.66258L2.52776 2.7132Z" fill="url(#paint31_linear_1_760)"/>
<path opacity="0.3" d="M7.08475 8.32053C7.06559 8.85018 6.99926 9.37688 6.88662 9.89391L8.0815 11.18L7.08475 8.32053Z" fill="#FF80AD"/>
<path d="M7.08374 8.31948L5.15324 2.71213H2.52776L7.08374 8.31948Z" fill="url(#paint32_linear_1_760)"/>
<path opacity="0.3" d="M7.08374 8.31948L5.15324 2.71213H4.47756L7.08374 8.31948Z" fill="url(#paint33_linear_1_760)"/>
<path opacity="0.5" d="M4.86569 2.7132H2.52877L3.59766 4.02768L4.86569 2.7132Z" fill="url(#paint34_linear_1_760)"/>
<path opacity="0.5" d="M5.66533 6.57877L7.0878 8.32475L6.27496 5.95468L5.66533 6.57877Z" fill="url(#paint35_linear_1_760)"/>
<path d="M5.15324 2.71318L5.88886 0.187347L2.52776 2.71318H5.15324Z" fill="url(#paint36_linear_1_760)"/>
<path d="M5.88785 0.188416H3.26338L2.52776 2.71425L5.88785 0.188416Z" fill="url(#paint37_linear_1_760)"/>
<path opacity="0.3" d="M5.88784 0.188416H5.30361L2.52673 2.71425L5.88784 0.188416Z" fill="url(#paint38_linear_1_760)"/>
<path opacity="0.3" d="M3.17193 0.498871L2.52673 2.70897L4.47552 1.24504C3.9664 1.17328 3.5015 0.907171 3.17193 0.498871Z" fill="url(#paint39_linear_1_760)"/>
<path d="M5.88784 0.188416L8.08049 2.71425H5.15222L5.88784 0.188416Z" fill="url(#paint40_linear_1_760)"/>
<path opacity="0.3" d="M8.08049 2.71318L7.32251 1.84072L6.4802 2.71318H8.08049Z" fill="url(#paint41_linear_1_760)"/>
<path opacity="0.3" d="M6.5249 0.916694L5.88784 0.179993L5.30666 2.17961L6.5249 0.916694Z" fill="url(#paint42_linear_1_760)"/>
<path d="M8.08048 2.71318V0.187347H5.88784L8.08048 2.71318Z" fill="url(#paint43_linear_1_760)"/>
<path opacity="0.3" d="M8.08049 2.71318V0.187347H7.71674L8.08049 2.71318Z" fill="url(#paint44_linear_1_760)"/>
<path d="M8.08049 2.7132L7.08374 8.32054L5.15324 2.7132H8.08049Z" fill="url(#paint45_linear_1_760)"/>
<path opacity="0.3" d="M8.08048 2.7132L7.08373 8.32054L7.48406 2.7132H8.08048Z" fill="url(#paint46_linear_1_760)"/>
<path opacity="0.3" d="M6.95266 2.91526C7.0204 2.8451 7.08814 2.77774 7.15587 2.7132H5.15018L5.80249 4.60757C6.08894 3.97907 6.47805 3.40655 6.95266 2.91526V2.91526Z" fill="url(#paint47_linear_1_760)"/>
<path d="M8.08048 2.7132V11.18L7.08373 8.32054L8.08048 2.7132Z" fill="url(#paint48_linear_1_760)"/>
<path d="M8.08048 2.7132V5.19062L7.08373 8.32054L8.08048 2.7132Z" fill="url(#paint49_linear_1_760)"/>
</g>
<defs>
<linearGradient id="paint0_linear_1_760" x1="11.2259" y1="0.739901" x2="12.8273" y2="3.92866" gradientUnits="userSpaceOnUse">
<stop stop-color="#FF80AD"/>
<stop offset="1" stop-color="#9C0F42"/>
</linearGradient>
<linearGradient id="paint1_linear_1_760" x1="9.28537" y1="5.81995" x2="14.6851" y2="6.29858" gradientUnits="userSpaceOnUse">
<stop stop-color="#FF80AD"/>
<stop offset="1" stop-color="#9C0F42"/>
</linearGradient>
<linearGradient id="paint2_linear_1_760" x1="11.0088" y1="8.02797" x2="15.581" y2="8.02797" gradientUnits="userSpaceOnUse">
<stop stop-color="#FF4084"/>
<stop offset="1" stop-color="#FF80AD"/>
</linearGradient>
<linearGradient id="paint3_linear_1_760" x1="11.0088" y1="8.02797" x2="14.1291" y2="8.02797" gradientUnits="userSpaceOnUse">
<stop stop-color="#FF4084"/>
<stop offset="1" stop-color="#FF80AD"/>
</linearGradient>
<linearGradient id="paint4_linear_1_760" x1="11.0078" y1="5.1223" x2="15.5779" y2="5.1223" gradientUnits="userSpaceOnUse">
<stop stop-color="#FF4084"/>
<stop offset="1" stop-color="#FF80AD"/>
</linearGradient>
<linearGradient id="paint5_linear_1_760" x1="11.0077" y1="9.87069" x2="15.5678" y2="9.87069" gradientUnits="userSpaceOnUse">
<stop stop-color="#FF4084"/>
<stop offset="1" stop-color="#FF80AD"/>
</linearGradient>
<linearGradient id="paint6_linear_1_760" x1="14.1018" y1="-6.40017" x2="0.777196" y2="-2.40005" gradientUnits="userSpaceOnUse">
<stop stop-color="#FF80AD"/>
<stop offset="1" stop-color="#9C0F42"/>
</linearGradient>
<linearGradient id="paint7_linear_1_760" x1="12.0611" y1="-0.722854" x2="5.52934" y2="3.89751" gradientUnits="userSpaceOnUse">
<stop stop-color="#FF80AD"/>
<stop offset="1" stop-color="#9C0F42"/>
</linearGradient>
<linearGradient id="paint8_linear_1_760" x1="15.0406" y1="-5.37817" x2="2.57915" y2="-0.968314" gradientUnits="userSpaceOnUse">
<stop stop-color="#FF80AD"/>
<stop offset="1" stop-color="#9C0F42"/>
</linearGradient>
<linearGradient id="paint9_linear_1_760" x1="11.2238" y1="-4.41456" x2="-0.45473" y2="0.43371" gradientUnits="userSpaceOnUse">
<stop stop-color="#FF80AD"/>
<stop offset="1" stop-color="#9C0F42"/>
</linearGradient>
<linearGradient id="paint10_linear_1_760" x1="10.4872" y1="11.0234" x2="15.7542" y2="6.62933" gradientUnits="userSpaceOnUse">
<stop stop-color="#FF4084"/>
<stop offset="1" stop-color="#FF80AD"/>
</linearGradient>
<linearGradient id="paint11_linear_1_760" x1="4.41361" y1="19.0192" x2="15.4225" y2="17.8638" gradientUnits="userSpaceOnUse">
<stop stop-color="#FF4084"/>
<stop offset="1" stop-color="#FF80AD"/>
</linearGradient>
<linearGradient id="paint12_linear_1_760" x1="10.5752" y1="11.3579" x2="15.8413" y2="6.96648" gradientUnits="userSpaceOnUse">
<stop stop-color="#FF4084"/>
<stop offset="1" stop-color="#FF80AD"/>
</linearGradient>
<linearGradient id="paint13_linear_1_760" x1="2.73423" y1="43.3454" x2="27.0824" y2="42.6906" gradientUnits="userSpaceOnUse">
<stop stop-color="#FF4084"/>
<stop offset="1" stop-color="#FF80AD"/>
</linearGradient>
<linearGradient id="paint14_linear_1_760" x1="16.0574" y1="3.62239" x2="14.1549" y2="-1.51248" gradientUnits="userSpaceOnUse">
<stop stop-color="#FF80AD"/>
<stop offset="1" stop-color="#9C0F42"/>
</linearGradient>
<linearGradient id="paint15_linear_1_760" x1="27.1564" y1="6.99159" x2="26.5161" y2="-6.02355" gradientUnits="userSpaceOnUse">
<stop stop-color="#FF80AD"/>
<stop offset="1" stop-color="#9C0F42"/>
</linearGradient>
<linearGradient id="paint16_linear_1_760" x1="13.5536" y1="2.62332" x2="13.5536" y2="0.218726" gradientUnits="userSpaceOnUse">
<stop stop-color="#FF4084"/>
<stop offset="1" stop-color="#7D0C35"/>
</linearGradient>
<linearGradient id="paint17_linear_1_760" x1="13.5526" y1="2.62332" x2="13.5526" y2="0.218726" gradientUnits="userSpaceOnUse">
<stop stop-color="#FF4084"/>
<stop offset="1" stop-color="#7D0C35"/>
</linearGradient>
<linearGradient id="paint18_linear_1_760" x1="10.9699" y1="5.08703" x2="12.6706" y2="1.40943" gradientUnits="userSpaceOnUse">
<stop stop-color="#FFE6EF"/>
<stop offset="1" stop-color="#FF80AD"/>
</linearGradient>
<linearGradient id="paint19_linear_1_760" x1="10.2215" y1="2.62225" x2="10.2215" y2="0.217657" gradientUnits="userSpaceOnUse">
<stop stop-color="#FF4084"/>
<stop offset="1" stop-color="#7D0C35"/>
</linearGradient>
<linearGradient id="paint20_linear_1_760" x1="10.2215" y1="2.62225" x2="10.2215" y2="0.217657" gradientUnits="userSpaceOnUse">
<stop stop-color="#FF4084"/>
<stop offset="1" stop-color="#7D0C35"/>
</linearGradient>
<linearGradient id="paint21_linear_1_760" x1="8.09175" y1="2.7132" x2="8.09175" y2="8.28129" gradientUnits="userSpaceOnUse">
<stop stop-color="#FF80AD"/>
<stop offset="1" stop-color="#9C0F42"/>
</linearGradient>
<linearGradient id="paint22_linear_1_760" x1="9.07993" y1="2.7132" x2="9.07993" y2="8.28129" gradientUnits="userSpaceOnUse">
<stop stop-color="#FF80AD"/>
<stop offset="1" stop-color="#9C0F42"/>
</linearGradient>
<linearGradient id="paint23_linear_1_760" x1="6.27044" y1="2.7132" x2="6.27044" y2="8.27965" gradientUnits="userSpaceOnUse">
<stop stop-color="#FF80AD"/>
<stop offset="1" stop-color="#9C0F42"/>
</linearGradient>
<linearGradient id="paint24_linear_1_760" x1="9.0818" y1="11.1292" x2="9.0818" y2="2.764" gradientUnits="userSpaceOnUse">
<stop stop-color="#FF80AD"/>
<stop offset="1" stop-color="#FF4084"/>
</linearGradient>
<linearGradient id="paint25_linear_1_760" x1="0.584045" y1="2.71425" x2="3.26338" y2="2.71425" gradientUnits="userSpaceOnUse">
<stop stop-color="#FFE6EF"/>
<stop offset="1" stop-color="#FF80AD"/>
</linearGradient>
<linearGradient id="paint26_linear_1_760" x1="2.21075" y1="2.71425" x2="3.26236" y2="2.71425" gradientUnits="userSpaceOnUse">
<stop stop-color="#FFE6EF"/>
<stop offset="1" stop-color="#FF80AD"/>
</linearGradient>
<linearGradient id="paint27_linear_1_760" x1="0.580994" y1="8.02797" x2="5.15324" y2="8.02797" gradientUnits="userSpaceOnUse">
<stop stop-color="#FF80AD"/>
<stop offset="1" stop-color="#9C0F42"/>
</linearGradient>
<linearGradient id="paint28_linear_1_760" x1="2.21075" y1="8.02797" x2="5.15121" y2="8.02797" gradientUnits="userSpaceOnUse">
<stop stop-color="#FF80AD"/>
<stop offset="1" stop-color="#9C0F42"/>
</linearGradient>
<linearGradient id="paint29_linear_1_760" x1="0.58426" y1="9.55326" x2="5.15324" y2="9.55326" gradientUnits="userSpaceOnUse">
<stop stop-color="#FF80AD"/>
<stop offset="1" stop-color="#9C0F42"/>
</linearGradient>
<linearGradient id="paint30_linear_1_760" x1="-3.72648" y1="11.9657" x2="9.88051" y2="16.0374" gradientUnits="userSpaceOnUse">
<stop stop-color="#FFE6EF"/>
<stop offset="1" stop-color="#FF80AD"/>
</linearGradient>
<linearGradient id="paint31_linear_1_760" x1="-3.1129" y1="11.7625" x2="10.4941" y2="15.8342" gradientUnits="userSpaceOnUse">
<stop stop-color="#FFE6EF"/>
<stop offset="1" stop-color="#FF80AD"/>
</linearGradient>
<linearGradient id="paint32_linear_1_760" x1="9.91043" y1="5.62576" x2="4.78135" y2="1.24108" gradientUnits="userSpaceOnUse">
<stop stop-color="#FF80AD"/>
<stop offset="1" stop-color="#FF4084"/>
</linearGradient>
<linearGradient id="paint33_linear_1_760" x1="13.9808" y1="-4.01199" x2="2.55798" y2="-5.059" gradientUnits="userSpaceOnUse">
<stop stop-color="#FF80AD"/>
<stop offset="1" stop-color="#FF4084"/>
</linearGradient>
<linearGradient id="paint34_linear_1_760" x1="23.1873" y1="19.1893" x2="22.2386" y2="0.582743" gradientUnits="userSpaceOnUse">
<stop stop-color="#FF80AD"/>
<stop offset="1" stop-color="#FF4084"/>
</linearGradient>
<linearGradient id="paint35_linear_1_760" x1="9.61563" y1="1.69386" x2="1.04193" y2="-0.483973" gradientUnits="userSpaceOnUse">
<stop stop-color="#FF80AD"/>
<stop offset="1" stop-color="#FF4084"/>
</linearGradient>
<linearGradient id="paint36_linear_1_760" x1="5.96619" y1="6.27094" x2="7.92987" y2="1.30136" gradientUnits="userSpaceOnUse">
<stop stop-color="#FFE6EF"/>
<stop offset="1" stop-color="#FF80AD"/>
</linearGradient>
<linearGradient id="paint37_linear_1_760" x1="5.8072" y1="2.62332" x2="5.8072" y2="0.218726" gradientUnits="userSpaceOnUse">
<stop stop-color="#FF4084"/>
<stop offset="1" stop-color="#7D0C35"/>
</linearGradient>
<linearGradient id="paint38_linear_1_760" x1="5.80717" y1="2.62332" x2="5.80717" y2="0.218726" gradientUnits="userSpaceOnUse">
<stop stop-color="#FF4084"/>
<stop offset="1" stop-color="#7D0C35"/>
</linearGradient>
<linearGradient id="paint39_linear_1_760" x1="4.55835" y1="2.61836" x2="4.55835" y2="0.220398" gradientUnits="userSpaceOnUse">
<stop stop-color="#FF4084"/>
<stop offset="1" stop-color="#7D0C35"/>
</linearGradient>
<linearGradient id="paint40_linear_1_760" x1="5.57811" y1="0.721861" x2="4.31928" y2="3.35339" gradientUnits="userSpaceOnUse">
<stop stop-color="#FF80AD"/>
<stop offset="1" stop-color="#FF4084"/>
</linearGradient>
<linearGradient id="paint41_linear_1_760" x1="3.87223" y1="1.45888" x2="3.16833" y2="6.7129" gradientUnits="userSpaceOnUse">
<stop stop-color="#FF80AD"/>
<stop offset="1" stop-color="#FF4084"/>
</linearGradient>
<linearGradient id="paint42_linear_1_760" x1="6.0466" y1="-2.69899" x2="1.88285" y2="-2.03378" gradientUnits="userSpaceOnUse">
<stop stop-color="#FF80AD"/>
<stop offset="1" stop-color="#FF4084"/>
</linearGradient>
<linearGradient id="paint43_linear_1_760" x1="8.02019" y1="2.54648" x2="8.02019" y2="0.159563" gradientUnits="userSpaceOnUse">
<stop stop-color="#FF80AD"/>
<stop offset="1" stop-color="#FF2472"/>
</linearGradient>
<linearGradient id="paint44_linear_1_760" x1="8.3787" y1="2.54648" x2="8.3787" y2="0.159563" gradientUnits="userSpaceOnUse">
<stop stop-color="#FF80AD"/>
<stop offset="1" stop-color="#FF2472"/>
</linearGradient>
<linearGradient id="paint45_linear_1_760" x1="5.15739" y1="5.24955" x2="9.55863" y2="7.83376" gradientUnits="userSpaceOnUse">
<stop stop-color="#FF80AD"/>
<stop offset="1" stop-color="#9C0F42"/>
</linearGradient>
<linearGradient id="paint46_linear_1_760" x1="-2.84994" y1="60.3608" x2="17.9891" y2="60.5355" gradientUnits="userSpaceOnUse">
<stop stop-color="#FF80AD"/>
<stop offset="1" stop-color="#9C0F42"/>
</linearGradient>
<linearGradient id="paint47_linear_1_760" x1="2.58254" y1="2.99735" x2="3.26327" y2="9.7767" gradientUnits="userSpaceOnUse">
<stop stop-color="#FF80AD"/>
<stop offset="1" stop-color="#9C0F42"/>
</linearGradient>
<linearGradient id="paint48_linear_1_760" x1="7.08424" y1="2.7386" x2="7.08424" y2="11.0361" gradientUnits="userSpaceOnUse">
<stop stop-color="#FFE6EF"/>
<stop offset="1" stop-color="#FF80AD"/>
</linearGradient>
<linearGradient id="paint49_linear_1_760" x1="7.08424" y1="2.73002" x2="7.08424" y2="8.22522" gradientUnits="userSpaceOnUse">
<stop stop-color="#FFE6EF"/>
<stop offset="1" stop-color="#FF80AD"/>
</linearGradient>
</defs>
</svg>
