<svg width="13" height="13" viewBox="0 0 13 13" fill="none" xmlns="http://www.w3.org/2000/svg">
<path d="M1.3623 3.86955V2.46368C1.3623 1.67411 2.00223 1.03418 2.79181 1.03418H4.28431" stroke="#777777" stroke-miterlimit="10" stroke-linecap="round" stroke-linejoin="round"/>
<path d="M9.4292 1.03418H10.8351C11.6246 1.03418 12.2646 1.67411 12.2646 2.46368V3.95619" stroke="#777777" stroke-miterlimit="10" stroke-linecap="round" stroke-linejoin="round"/>
<path d="M12.2643 9.09717V10.503C12.2643 11.2926 11.6244 11.9325 10.8348 11.9325H9.34229" stroke="#777777" stroke-miterlimit="10" stroke-linecap="round" stroke-linejoin="round"/>
<path d="M4.19768 11.9332H2.79181C2.00223 11.9332 1.3623 11.2933 1.3623 10.5037V9.01123" stroke="#777777" stroke-miterlimit="10" stroke-linecap="round" stroke-linejoin="round"/>
<path d="M5.00293 9.01123C5.00293 9.01123 6.7711 10.6022 8.60819 9.01123" stroke="#777777" stroke-miterlimit="10" stroke-linecap="round" stroke-linejoin="round"/>
<path d="M6.33203 7.64611H7.10388V4.96826" stroke="#777777" stroke-miterlimit="10" stroke-linecap="round" stroke-linejoin="round"/>
<path d="M9.20264 4.86426V5.93146" stroke="#777777" stroke-miterlimit="10" stroke-linecap="round" stroke-linejoin="round"/>
<path d="M4.51318 4.86426V5.93146" stroke="#777777" stroke-miterlimit="10" stroke-linecap="round" stroke-linejoin="round"/>
</svg>
