<svg width="19" height="19" viewBox="0 0 19 19" fill="none" xmlns="http://www.w3.org/2000/svg">
<path d="M18.923 9.41211C18.7368 9.69867 18.4072 9.85847 18.067 9.82711C12.499 9.81644 6.9323 9.81644 1.36696 9.82711C1.02684 9.85924 0.697137 9.69921 0.511963 9.41211V9.00311C0.696981 8.71583 1.02679 8.55574 1.36696 8.58811C6.93563 8.59811 12.504 8.59811 18.072 8.58811C18.4121 8.55574 18.7419 8.71583 18.927 9.00311L18.923 9.41211Z" fill="white"/>
<path d="M6.81093 0C7.11793 0.177 7.33393 0.415 7.21093 0.794C7.08793 1.173 6.78293 1.233 6.42693 1.23C5.29593 1.22 4.16393 1.223 3.03293 1.23C2.68101 1.20472 2.33545 1.33354 2.08596 1.58303C1.83647 1.83252 1.70765 2.17808 1.73293 2.53C1.73293 3.661 1.72593 4.792 1.73293 5.924C1.73293 6.28 1.67193 6.589 1.29693 6.708C0.92193 6.827 0.68093 6.608 0.50293 6.308V2.052C0.631462 1.71751 0.780409 1.39123 0.94893 1.075C1.3301 0.531415 1.90084 0.15009 2.54893 0.006L6.81093 0Z" fill="white"/>
<path d="M18.924 6.30212C18.747 6.60912 18.509 6.82512 18.13 6.70212C17.751 6.57912 17.691 6.27412 17.694 5.91912C17.704 4.78712 17.701 3.65612 17.694 2.52512C17.7193 2.17319 17.5905 1.82764 17.341 1.57815C17.0915 1.32866 16.746 1.19984 16.394 1.22512C15.262 1.22512 14.131 1.21812 13 1.22512C12.645 1.22512 12.335 1.16612 12.216 0.789117C12.097 0.412117 12.311 0.171117 12.616 -0.00488281H16.872C17.2065 0.12365 17.5328 0.272597 17.849 0.441117C18.3917 0.82325 18.7727 1.39357 18.918 2.04112L18.924 6.30212Z" fill="white"/>
<path d="M0.509033 12.113C0.685033 11.804 0.924033 11.59 1.30303 11.713C1.68203 11.836 1.74203 12.141 1.73903 12.497C1.73003 13.629 1.73303 14.76 1.73903 15.892C1.73903 16.61 2.32106 17.192 3.03903 17.192C4.17103 17.192 5.30203 17.199 6.43303 17.192C6.78903 17.192 7.09803 17.251 7.21703 17.628C7.33603 18.005 7.11703 18.244 6.81703 18.422H2.64303C2.27441 18.2932 1.91521 18.1388 1.56803 17.96C1.02986 17.5833 0.653787 17.0172 0.515033 16.375L0.509033 12.113Z" fill="white"/>
<path d="M12.6219 18.4152C12.3129 18.2392 12.0999 18.0002 12.2219 17.6212C12.3439 17.2422 12.6499 17.1822 13.0049 17.1852C14.1369 17.1952 15.2679 17.1922 16.3999 17.1852C16.7519 17.2105 17.0974 17.0816 17.3469 16.8321C17.5964 16.5827 17.7252 16.2371 17.6999 15.8852C17.6999 14.7532 17.7069 13.6222 17.6999 12.4902C17.6999 12.1342 17.7579 11.8252 18.1359 11.7072C18.5139 11.5892 18.7539 11.8072 18.9299 12.1072V16.3632C18.8076 16.6893 18.6647 17.0073 18.5019 17.3152C18.108 17.8963 17.494 18.2914 16.8019 18.4092L12.6219 18.4152Z" fill="white"/>
</svg>
