<svg width="25" height="22" viewBox="0 0 25 22" fill="none" xmlns="http://www.w3.org/2000/svg">
<path fill-rule="evenodd" clip-rule="evenodd" d="M1.26313 7.236C1.26368 7.69582 1.6363 8.06845 2.09613 8.069C2.31774 8.06954 2.53038 7.98153 2.6868 7.82455C2.84322 7.66757 2.93046 7.45461 2.92913 7.233V2.612C2.93077 2.09022 3.35335 1.66765 3.87513 1.666H8.49913C8.79673 1.666 9.07172 1.50723 9.22053 1.2495C9.36933 0.991769 9.36933 0.674231 9.22053 0.4165C9.07172 0.158769 8.79673 0 8.49913 0H3.87813C2.43459 0.00165322 1.26478 1.17146 1.26313 2.615V7.236ZM21.9761 8.07C21.5163 8.06945 21.1437 7.69683 21.1431 7.237V2.615C21.1415 2.09322 20.7189 1.67065 20.1971 1.669H15.5761C15.1161 1.669 14.7431 1.29605 14.7431 0.836C14.7431 0.375947 15.1161 0.003 15.5761 0.003H20.1971C21.6407 0.00465322 22.8105 1.17446 22.8121 2.618V7.239C22.8099 7.69843 22.4366 8.06956 21.9771 8.069L21.9761 8.07ZM23.2381 11.61H0.838127C0.378074 11.61 0.00512695 11.2371 0.00512695 10.777C0.00512695 10.3169 0.378074 9.944 0.838127 9.944H23.2381C23.6982 9.944 24.0711 10.3169 24.0711 10.777C24.0711 11.2371 23.6982 11.61 23.2381 11.61ZM3.87513 21.55H8.49313C8.95401 21.55 9.32763 21.1764 9.32763 20.7155C9.32763 20.2546 8.95401 19.881 8.49313 19.881H3.87213C3.35035 19.8794 2.92777 19.4568 2.92613 18.935V14.314C2.92613 13.8539 2.55318 13.481 2.09313 13.481C1.63307 13.481 1.26013 13.8539 1.26013 14.314V18.935C1.26178 20.3785 2.43159 21.5483 3.87513 21.55ZM20.1961 21.55H15.5751C15.1151 21.55 14.7421 21.1771 14.7421 20.717C14.7421 20.2569 15.1151 19.884 15.5751 19.884H20.1961C20.7179 19.8824 21.1405 19.4598 21.1421 18.938V14.314C21.1421 13.8539 21.5151 13.481 21.9751 13.481C22.4352 13.481 22.8081 13.8539 22.8081 14.314V18.935C22.8087 19.6282 22.5337 20.2932 22.0439 20.7836C21.554 21.274 20.8893 21.5497 20.1961 21.55Z" fill="#65BED6"/>
</svg>
