<svg width="15" height="15" viewBox="0 0 15 15" fill="none" xmlns="http://www.w3.org/2000/svg">
<path fill-rule="evenodd" clip-rule="evenodd" d="M2.81635 0H1.99306C1.79656 0.0645952 1.67827 0.264184 1.7163 0.467C1.71877 0.600836 1.71768 0.734841 1.71659 0.868806C1.71503 1.06016 1.71346 1.25142 1.72231 1.442C1.73234 1.642 1.65613 1.694 1.4676 1.687C1.28732 1.68036 1.10703 1.68168 0.926741 1.683C0.781124 1.68406 0.635506 1.68513 0.489889 1.682C0.28968 1.64818 0.0947967 1.76555 0.0316162 1.958V2.779C0.103768 2.96702 0.298808 3.07829 0.497911 3.045C0.622651 3.04091 0.748397 3.04284 0.874052 3.04478C1.05548 3.04757 1.23672 3.05036 1.41446 3.035C1.6812 3.012 1.72231 3.119 1.72231 3.356V10.298V11.939C1.72231 12.49 1.7554 12.521 2.32398 12.521C2.9569 12.521 3.58982 12.5212 4.22274 12.5214C6.43773 12.5221 8.65272 12.5228 10.8677 12.515C11.1475 12.514 11.2668 12.572 11.2357 12.872C11.2192 13.0318 11.2228 13.1936 11.2263 13.3554C11.2291 13.4782 11.2318 13.601 11.2257 13.723C11.1886 13.9259 11.3002 14.1268 11.4925 14.203H12.3157C12.5118 14.1385 12.63 13.9395 12.5925 13.737C12.59 13.6032 12.5911 13.4692 12.5922 13.3352C12.5938 13.1438 12.5953 12.9526 12.5865 12.762C12.5765 12.562 12.6527 12.51 12.8412 12.517C13.0215 12.5236 13.2018 12.5223 13.3821 12.521C13.5277 12.5199 13.6733 12.5189 13.8189 12.522C14.0192 12.5563 14.2144 12.4387 14.2772 12.246V11.425C14.2054 11.2367 14.0101 11.1253 13.8109 11.159C13.6882 11.1626 13.5646 11.1606 13.441 11.1585C13.2575 11.1555 13.0741 11.1525 12.8943 11.168C12.6276 11.191 12.5865 11.084 12.5865 10.847V3.905V2.264C12.5865 1.713 12.5534 1.682 11.9848 1.682C11.3519 1.682 10.7191 1.6818 10.0862 1.6816C7.87116 1.68091 5.65612 1.68022 3.44109 1.688C3.16131 1.689 3.04198 1.631 3.07306 1.331C3.0896 1.17118 3.08603 1.00942 3.08246 0.847565C3.07975 0.724834 3.07704 0.602045 3.08309 0.48C3.12018 0.277065 3.00857 0.0762144 2.81635 0ZM3.08073 8.02286C3.08042 7.70486 3.08011 7.38687 3.08011 7.06889C3.08011 6.75614 3.08042 6.44339 3.08073 6.13064C3.08167 5.19239 3.08261 4.25414 3.07509 3.31589C3.07309 3.09389 3.13526 3.03589 3.35688 3.03589C5.88724 3.04389 8.4176 3.04389 10.948 3.03589C11.1706 3.03589 11.2287 3.09589 11.2287 3.31689C11.2207 5.84022 11.2207 8.36355 11.2287 10.8869C11.2287 11.1089 11.1686 11.1669 10.947 11.1669C8.4166 11.1589 5.88624 11.1589 3.35587 11.1669C3.13325 11.1679 3.07509 11.1069 3.07509 10.8859C3.08261 9.93112 3.08167 8.97692 3.08073 8.02286Z" fill="#FF414B"/>
</svg>
