<svg width="16" height="15" viewBox="0 0 16 15" fill="none" xmlns="http://www.w3.org/2000/svg">
<path fill-rule="evenodd" clip-rule="evenodd" d="M3.6164 0.174805H2.79311C2.59661 0.2394 2.47832 0.438988 2.51634 0.641805C2.51882 0.77564 2.51773 0.909646 2.51664 1.04361C2.51507 1.23496 2.51351 1.42623 2.52236 1.6168C2.53239 1.8168 2.45618 1.8688 2.26765 1.8618C2.08737 1.85517 1.90708 1.85648 1.72679 1.8578C1.58117 1.85887 1.43556 1.85993 1.28994 1.8568C1.08973 1.82299 0.894846 1.94036 0.831665 2.1328V2.9538C0.903817 3.14183 1.09886 3.25309 1.29796 3.2198C1.4227 3.21571 1.54845 3.21765 1.6741 3.21958C1.85553 3.22238 2.03677 3.22517 2.21451 3.2098C2.48125 3.1868 2.52236 3.2938 2.52236 3.5308V10.4728V12.1138C2.52236 12.6648 2.55545 12.6958 3.12403 12.6958C3.75695 12.6958 4.38987 12.696 5.02279 12.6962C7.23778 12.6969 9.45277 12.6976 11.6678 12.6898C11.9475 12.6888 12.0669 12.7468 12.0358 13.0468C12.0192 13.2066 12.0228 13.3684 12.0264 13.5302C12.0291 13.653 12.0318 13.7758 12.0258 13.8978C11.9887 14.1007 12.1003 14.3016 12.2925 14.3778H13.1158C13.3118 14.3133 13.43 14.1143 13.3926 13.9118C13.3901 13.778 13.3912 13.644 13.3923 13.51C13.3938 13.3186 13.3954 13.1274 13.3865 12.9368C13.3765 12.7368 13.4527 12.6848 13.6412 12.6918C13.8215 12.6984 14.0018 12.6971 14.1821 12.6958C14.3277 12.6947 14.4733 12.6937 14.619 12.6968C14.8193 12.7311 15.0144 12.6135 15.0772 12.4208V11.5998C15.0054 11.4115 14.8101 11.3001 14.6109 11.3338C14.4883 11.3374 14.3646 11.3354 14.2411 11.3333C14.0575 11.3303 13.8742 11.3273 13.6944 11.3428C13.4277 11.3658 13.3865 11.2588 13.3865 11.0218V4.0798V2.4388C13.3865 1.8878 13.3534 1.8568 12.7849 1.8568C12.152 1.8568 11.5191 1.85661 10.8862 1.85641C8.67121 1.85572 6.45617 1.85503 4.24114 1.8628C3.96136 1.8638 3.84203 1.8058 3.87311 1.5058C3.88965 1.34599 3.88608 1.18423 3.88251 1.02237C3.8798 0.899639 3.87709 0.77685 3.88314 0.654805C3.92023 0.45187 3.80862 0.251019 3.6164 0.174805ZM3.88078 8.19766C3.88047 7.87966 3.88016 7.56168 3.88016 7.24369C3.88016 6.93094 3.88047 6.61819 3.88078 6.30544C3.88172 5.36719 3.88266 4.42894 3.87514 3.49069C3.87314 3.26869 3.93531 3.21069 4.15692 3.21069C6.68729 3.21869 9.21765 3.21869 11.748 3.21069C11.9706 3.21069 12.0288 3.27069 12.0288 3.49169C12.0208 6.01503 12.0208 8.53836 12.0288 11.0617C12.0288 11.2837 11.9686 11.3417 11.747 11.3417C9.21665 11.3337 6.68628 11.3337 4.15592 11.3417C3.9333 11.3427 3.87514 11.2817 3.87514 11.0607C3.88266 10.1059 3.88172 9.15172 3.88078 8.19766Z" fill="white"/>
</svg>
