<svg width="38" height="38" viewBox="0 0 38 38" fill="none" xmlns="http://www.w3.org/2000/svg">
<circle cx="19" cy="19" r="18" fill="white" fill-opacity="0.15" stroke="#E0E0E0"/>
<path fill-rule="evenodd" clip-rule="evenodd" d="M14.8164 12H13.9931C13.7966 12.0646 13.6783 12.2642 13.7163 12.467C13.7188 12.6008 13.7177 12.7348 13.7166 12.8688C13.715 13.0602 13.7135 13.2514 13.7223 13.442C13.7323 13.642 13.6561 13.694 13.4676 13.687C13.2873 13.6804 13.107 13.6817 12.9267 13.683C12.7811 13.6841 12.6355 13.6851 12.4899 13.682C12.2897 13.6482 12.0948 13.7656 12.0316 13.958V14.779C12.1038 14.967 12.2988 15.0783 12.4979 15.045C12.6227 15.0409 12.7484 15.0428 12.8741 15.0448C13.0555 15.0476 13.2367 15.0504 13.4145 15.035C13.6812 15.012 13.7223 15.119 13.7223 15.356V22.298V23.939C13.7223 24.49 13.7554 24.521 14.324 24.521C14.9569 24.521 15.5898 24.5212 16.2227 24.5214C18.4377 24.5221 20.6527 24.5228 22.8677 24.515C23.1475 24.514 23.2668 24.572 23.2357 24.872C23.2192 25.0318 23.2228 25.1936 23.2263 25.3554C23.2291 25.4782 23.2318 25.601 23.2257 25.723C23.1886 25.9259 23.3002 26.1268 23.4925 26.203H24.3157C24.5118 26.1385 24.63 25.9395 24.5925 25.737C24.59 25.6032 24.5911 25.4692 24.5922 25.3352C24.5938 25.1438 24.5953 24.9526 24.5865 24.762C24.5765 24.562 24.6527 24.51 24.8412 24.517C25.0215 24.5236 25.2018 24.5223 25.3821 24.521C25.5277 24.5199 25.6733 24.5189 25.8189 24.522C26.0192 24.5563 26.2144 24.4387 26.2772 24.246V23.425C26.2054 23.2367 26.0101 23.1253 25.8109 23.159C25.6882 23.1626 25.5646 23.1606 25.441 23.1585C25.2575 23.1555 25.0741 23.1525 24.8943 23.168C24.6276 23.191 24.5865 23.084 24.5865 22.847V15.905V14.264C24.5865 13.713 24.5534 13.682 23.9848 13.682C23.3519 13.682 22.7191 13.6818 22.0862 13.6816C19.8712 13.6809 17.6561 13.6802 15.4411 13.688C15.1613 13.689 15.042 13.631 15.0731 13.331C15.0896 13.1712 15.086 13.0094 15.0825 12.8476C15.0797 12.7248 15.077 12.602 15.0831 12.48C15.1202 12.2771 15.0086 12.0762 14.8164 12ZM15.0807 20.0229C15.0804 19.7049 15.0801 19.3869 15.0801 19.0689C15.0801 18.7561 15.0804 18.4434 15.0807 18.1306C15.0817 17.1924 15.0826 16.2541 15.0751 15.3159C15.0731 15.0939 15.1353 15.0359 15.3569 15.0359C17.8872 15.0439 20.4176 15.0439 22.948 15.0359C23.1706 15.0359 23.2287 15.0959 23.2287 15.3169C23.2207 17.8402 23.2207 20.3636 23.2287 22.8869C23.2287 23.1089 23.1686 23.1669 22.947 23.1669C20.4166 23.1589 17.8862 23.1589 15.3559 23.1669C15.1333 23.1679 15.0751 23.1069 15.0751 22.8859C15.0826 21.9311 15.0817 20.9769 15.0807 20.0229Z" fill="#FF414B"/>
</svg>
