<svg width="31" height="31" viewBox="0 0 31 31" fill="none" xmlns="http://www.w3.org/2000/svg">
<circle cx="15.5" cy="15.5" r="15.5" fill="white" fill-opacity="0.17"/>
<circle cx="15.4999" cy="15.4998" r="14.9925" stroke="#F1F1F1"/>
<path d="M21.5 14.7857C20.6562 14.7857 20 15.433 20 16.2143H11C11 15.433 10.3203 14.7857 9.5 14.7857C8.65625 14.7857 8 15.433 8 16.2143V19.7857C8 20.1875 8.32812 20.5 8.75 20.5H10.25C10.6484 20.5 11 20.1875 11 19.7857H20C20 20.1875 20.3281 20.5 20.75 20.5H22.25C22.6484 20.5 23 20.1875 23 19.7857V16.2143C23 15.433 22.3203 14.7857 21.5 14.7857ZM9.875 19.4286H9.125V16.2143C9.125 16.0357 9.28906 15.8571 9.5 15.8571C9.6875 15.8571 9.875 16.0357 9.875 16.2143V19.4286ZM20 18.7143H11V17.2857H20V18.7143ZM21.875 19.4286H21.125V16.2143C21.125 16.0357 21.2891 15.8571 21.5 15.8571C21.6875 15.8571 21.875 16.0357 21.875 16.2143V19.4286ZM10.0625 14.0714C10.3672 14.0714 10.625 13.8482 10.625 13.5357V13.1786C10.625 12.308 11.375 11.5714 12.3125 11.5714H18.6875C19.6016 11.5714 20.375 12.308 20.375 13.1786V13.5357C20.375 13.8482 20.6094 14.0714 20.9375 14.0714C21.2422 14.0714 21.5 13.8482 21.5 13.5357V13.1786C21.5 11.7054 20.2344 10.5 18.6875 10.5H12.3125C10.7422 10.5 9.5 11.7054 9.5 13.1786V13.5357C9.5 13.8482 9.73438 14.0714 10.0625 14.0714Z" fill="#DEDEDE"/>
</svg>
