<svg width="23" height="25" viewBox="0 0 23 25" fill="none" xmlns="http://www.w3.org/2000/svg">
<path d="M10.4173 24.9749C12.3038 24.9749 13.882 23.6313 14.2444 21.853H6.59015C6.95274 23.6313 8.53088 24.9749 10.4173 24.9749Z" fill="#ACBAC3"/>
<path d="M17.7214 12.4865C17.7172 12.4865 17.713 12.4875 17.7088 12.4875C13.6891 12.4875 10.4172 9.21985 10.4172 5.20318C10.4172 4.09897 10.6715 3.05517 11.1142 2.11655C10.8849 2.09483 10.6526 2.0813 10.4172 2.0813C6.39026 2.0813 3.12565 5.34246 3.12565 9.36561V12.2668C3.12565 14.3262 2.22252 16.2702 0.638084 17.6084C0.10994 18.059 -0.124473 18.777 0.065117 19.4774C0.285988 20.2922 1.09222 20.8126 1.93813 20.8126H18.8912C19.7787 20.8126 20.6153 20.2381 20.7953 19.3692C20.9349 18.6969 20.6954 18.0257 20.1735 17.5876C18.6589 16.3191 17.7829 14.4552 17.7214 12.4865Z" fill="#ACBAC3"/>
<path d="M22.9172 5.20319C22.9172 8.07679 20.5855 10.4062 17.7088 10.4062C14.8324 10.4062 12.5006 8.07679 12.5006 5.20319C12.5006 2.32959 14.8324 0 17.7088 0C20.5855 0 22.9172 2.32959 22.9172 5.20319Z" fill="#E41A4A"/>
</svg>
