<svg width="17" height="16" viewBox="0 0 17 16" fill="none" xmlns="http://www.w3.org/2000/svg">
<path d="M16.5532 0.1875C16.3657 0.0625 16.1782 0 15.9907 0C15.8032 0 15.647 0.0625 15.4907 0.15625L1.49071 8.125C1.14696 8.34375 0.959457 8.6875 0.990707 9.0625C0.990707 9.40625 1.24071 9.75 1.58446 9.90625L4.80321 11.25L6.74071 15.8438C6.80321 15.9688 6.89696 16 6.95946 16C7.02196 16 7.08446 16 7.11571 15.9375L9.80321 13.375L13.5532 14.9375C13.7095 15 13.8345 15 13.9595 15C14.147 15 14.3345 14.9375 14.4282 14.875C14.7095 14.75 14.897 14.4688 14.9282 14.1562L16.9282 1.1875C17.022 0.78125 16.8657 0.40625 16.5532 0.1875ZM1.99071 9L13.8657 2.21875L4.83446 10.2188L1.99071 9ZM7.24071 14.4688L5.70946 10.7812L12.8657 4.4375L7.58446 11.7188C7.49071 11.8438 7.45946 12 7.49071 12.1562C7.55321 12.3125 7.64696 12.4375 7.80321 12.4688L8.86571 12.9062L7.24071 14.4688ZM13.9907 13.875L8.77196 11.7812L15.8032 2.09375L13.9907 13.875Z" fill="#333333"/>
</svg>
