<svg width="22" height="22" viewBox="0 0 22 22" fill="none" xmlns="http://www.w3.org/2000/svg">
<circle cx="11" cy="10.9998" r="3.5" stroke="#126881"/>
<path d="M8.84172 3.58264L7.39518 4.24597C7.23689 4.31856 7.05223 4.30356 6.90772 4.20637L5.37817 3.17765C5.17907 3.04374 4.91293 3.07014 4.74402 3.24055L3.22799 4.76999C3.05593 4.94357 3.03458 5.21611 3.17751 5.41437L4.17049 6.79181C4.27173 6.93225 4.29312 7.11506 4.22704 7.27507L3.55626 8.89917C3.49357 9.05098 3.36031 9.16231 3.19978 9.19701L1.39435 9.58732C1.16424 9.63706 1 9.8406 1 10.076V12.101C1 12.3364 1.16424 12.5399 1.39435 12.5897L3.20956 12.9821C3.36464 13.0156 3.4946 13.1208 3.55977 13.2654L4.21465 14.7189C4.28808 14.8819 4.26892 15.0717 4.16438 15.2167L3.17751 16.5856C3.03458 16.7839 3.05593 17.0564 3.22799 17.23L4.90712 18.924C5.08148 19.0999 5.35833 19.1216 5.55801 18.9751L6.90335 17.988C7.04965 17.8807 7.24261 17.8611 7.40755 17.9367L8.84614 18.5964C8.98738 18.6611 9.09049 18.7879 9.12513 18.9394L9.50762 20.6115C9.55962 20.8388 9.76184 21 9.99503 21H12.005C12.2382 21 12.4404 20.8388 12.4924 20.6115L12.8749 18.9394C12.9095 18.7879 13.0126 18.6611 13.1539 18.5964L14.5925 17.9367C14.7574 17.8611 14.9504 17.8807 15.0967 17.988L16.442 18.9751C16.6417 19.1216 16.9185 19.0999 17.0929 18.924L18.772 17.23C18.9441 17.0564 18.9654 16.7839 18.8225 16.5856L17.8356 15.2167C17.7311 15.0717 17.7119 14.8819 17.7854 14.7189L18.4402 13.2654C18.5054 13.1208 18.6354 13.0156 18.7904 12.9821L20.6056 12.5897C20.8358 12.5399 21 12.3364 21 12.101V10.076C21 9.8406 20.8358 9.63706 20.6056 9.58732L18.8002 9.19701C18.6397 9.16231 18.5064 9.05098 18.4437 8.89917L17.773 7.27507C17.7069 7.11506 17.7283 6.93225 17.8295 6.79181L18.8225 5.41437C18.9654 5.21611 18.9441 4.94357 18.772 4.76999L17.256 3.24055C17.0871 3.07014 16.8209 3.04374 16.6218 3.17765L15.1025 4.19948C14.9525 4.30037 14.7597 4.31243 14.5983 4.231L13.3013 3.57677C13.1764 3.51375 13.0836 3.40124 13.0454 3.2666L12.5065 1.36375C12.4456 1.14855 12.2491 1 12.0254 1H10.0014C9.76534 1 9.56141 1.16516 9.51235 1.39611L9.12239 3.23203C9.08954 3.38671 8.98546 3.51673 8.84172 3.58264Z" stroke="#126881"/>
</svg>
