<svg width="24" height="25" viewBox="0 0 24 25" fill="none" xmlns="http://www.w3.org/2000/svg">
<path fill-rule="evenodd" clip-rule="evenodd" d="M21.228 8.88308L22.861 9.21308L22.853 9.21508C23.1828 9.2799 23.42 9.56997 23.418 9.90608V14.1511C23.4194 14.4871 23.1818 14.7768 22.852 14.8411L21.219 15.1671C21.0568 15.6869 20.8538 16.1932 20.612 16.6811L21.555 18.1261C21.7362 18.4007 21.7016 18.7645 21.472 19.0001L18.572 22.0001C18.3328 22.2534 17.9436 22.2922 17.659 22.0911L16.289 21.1341C15.8226 21.3792 15.337 21.5859 14.837 21.7521L14.515 23.4521C14.4535 23.7854 14.162 24.0268 13.823 24.0251H9.71801C9.37877 24.0262 9.08758 23.7839 9.02701 23.4501L8.70901 21.7441C8.21573 21.5788 7.73652 21.3741 7.27601 21.1321L5.90601 22.0881C5.62296 22.2877 5.23652 22.2502 4.99701 22.0001L2.09701 19.0001C1.86654 18.7645 1.83156 18.4002 2.01301 18.1251L2.95601 16.6801C2.71146 16.1855 2.50681 15.6722 2.34401 15.1451L0.711008 14.8151C0.381204 14.7503 0.144021 14.4602 0.146008 14.1241V9.87908C0.145442 9.54217 0.384958 9.25265 0.716008 9.19008L2.34601 8.86408C2.50922 8.34384 2.71318 7.83727 2.95601 7.34908L2.01701 5.90208C1.83584 5.62744 1.87038 5.26371 2.10001 5.02808L5.00001 2.02808C5.23952 1.77792 5.62596 1.74051 5.90901 1.94008L7.27901 2.90008C7.74548 2.65191 8.23143 2.44222 8.73201 2.27308L9.05401 0.57308C9.11551 0.23972 9.40703 -0.00167062 9.74601 8.01839e-05H13.846C14.1899 -0.00509016 14.4866 0.240324 14.546 0.57908L14.863 2.28208C15.3563 2.44737 15.8355 2.65203 16.296 2.89408L17.666 1.93808C17.9491 1.73851 18.3355 1.77592 18.575 2.02608L21.475 5.02608C21.705 5.26146 21.7399 5.62522 21.559 5.90008L20.615 7.34908C20.8597 7.84333 21.0647 8.35628 21.228 8.88308ZM6.70101 12.0141C6.66372 14.8622 8.93798 17.2036 11.786 17.2491C14.6343 17.2041 16.9089 14.8624 16.871 12.0141C16.9089 9.16571 14.6343 6.82404 11.786 6.77908C8.93798 6.82458 6.66372 9.16593 6.70101 12.0141Z" fill="#FFB14D"/>
<path d="M11.7861 8.18667C10.2243 8.12423 8.78128 9.01708 8.14013 10.4426C7.49898 11.868 7.78835 13.5401 8.87127 14.6672C9.95418 15.7943 11.6133 16.1502 13.0633 15.5666C14.5132 14.9829 15.463 13.5767 15.4631 12.0137C15.501 9.94286 13.8567 8.2315 11.7861 8.18667Z" fill="#FFB14D"/>
</svg>
