<svg width="26" height="28" viewBox="0 0 26 28" fill="none" xmlns="http://www.w3.org/2000/svg">
<path d="M23.843 16.2167L23.325 15.918C23.5582 14.6492 23.5582 13.3485 23.325 12.0797L23.843 11.781C24.2413 11.5512 24.5905 11.2452 24.8706 10.8804C25.1507 10.5156 25.3561 10.0993 25.4753 9.65512C25.5945 9.21095 25.625 8.74765 25.5651 8.29168C25.5052 7.83572 25.3561 7.39601 25.1263 6.99767C24.8965 6.59932 24.5905 6.25015 24.2257 5.97007C23.861 5.69 23.4446 5.48451 23.0004 5.36534C22.5563 5.24617 22.093 5.21566 21.637 5.27554C21.181 5.33542 20.7413 5.48452 20.343 5.71433L19.8238 6.01417C18.8433 5.1764 17.7164 4.52696 16.5 4.0985V3.5C16.5 2.57174 16.1312 1.6815 15.4749 1.02513C14.8185 0.368749 13.9282 0 13 0C12.0717 0 11.1815 0.368749 10.5251 1.02513C9.86874 1.6815 9.49999 2.57174 9.49999 3.5V4.0985C8.28361 4.52849 7.15714 5.17953 6.17732 6.01883L5.65582 5.71667C4.85133 5.25254 3.89542 5.127 2.99837 5.36767C2.10132 5.60834 1.33662 6.19551 0.872489 7C0.40836 7.80449 0.282823 8.7604 0.523495 9.65745C0.764167 10.5545 1.35133 11.3192 2.15582 11.7833L2.67382 12.082C2.44062 13.3508 2.44062 14.6515 2.67382 15.9203L2.15582 16.219C1.35133 16.6831 0.764167 17.4478 0.523495 18.3449C0.282823 19.2419 0.40836 20.1978 0.872489 21.0023C1.33662 21.8068 2.10132 22.394 2.99837 22.6347C3.89542 22.8753 4.85133 22.7498 5.65582 22.2857L6.17499 21.9858C7.15588 22.8237 8.28313 23.4732 9.49999 23.9015V24.5C9.49999 25.4283 9.86874 26.3185 10.5251 26.9749C11.1815 27.6313 12.0717 28 13 28C13.9282 28 14.8185 27.6313 15.4749 26.9749C16.1312 26.3185 16.5 25.4283 16.5 24.5V23.9015C17.7164 23.4715 18.8428 22.8205 19.8227 21.9812L20.3442 22.2822C21.1486 22.7463 22.1046 22.8718 23.0016 22.6312C23.8987 22.3905 24.6634 21.8033 25.1275 20.9988C25.5916 20.1943 25.7172 19.2384 25.4765 18.3414C25.2358 17.4443 24.6486 16.6796 23.8442 16.2155L23.843 16.2167ZM20.8703 11.8113C21.2654 13.2429 21.2654 14.7548 20.8703 16.1863C20.8013 16.4355 20.8171 16.7005 20.9151 16.9398C21.013 17.179 21.1877 17.379 21.4117 17.5082L22.6763 18.2385C22.9444 18.3932 23.1401 18.6481 23.2203 18.9471C23.3005 19.246 23.2586 19.5646 23.1039 19.8328C22.9492 20.1009 22.6943 20.2965 22.3953 20.3767C22.0964 20.4569 21.7778 20.415 21.5097 20.2603L20.2427 19.5277C20.0185 19.3979 19.7576 19.3463 19.5009 19.3812C19.2443 19.416 19.0065 19.5353 18.8252 19.7202C17.7867 20.7803 16.4785 21.5366 15.0417 21.9077C14.7909 21.9721 14.5686 22.1182 14.41 22.3229C14.2514 22.5276 14.1654 22.7792 14.1655 23.0382V24.5C14.1655 24.8094 14.0426 25.1062 13.8238 25.325C13.605 25.5438 13.3082 25.6667 12.9988 25.6667C12.6894 25.6667 12.3927 25.5438 12.1739 25.325C11.9551 25.1062 11.8322 24.8094 11.8322 24.5V23.0393C11.8323 22.7804 11.7463 22.5287 11.5876 22.3241C11.429 22.1194 11.2068 21.9733 10.956 21.9088C9.51906 21.5363 8.21121 20.7783 7.17366 19.7167C6.99227 19.5318 6.75452 19.4125 6.49787 19.3777C6.24122 19.3428 5.98028 19.3944 5.75616 19.5242L4.49149 20.2557C4.35876 20.3335 4.21194 20.3843 4.0595 20.4051C3.90706 20.426 3.752 20.4164 3.60325 20.3771C3.4545 20.3378 3.315 20.2694 3.19278 20.176C3.07056 20.0825 2.96803 19.9658 2.8911 19.8326C2.81417 19.6993 2.76435 19.5522 2.74452 19.3996C2.72469 19.247 2.73523 19.092 2.77554 18.9435C2.81586 18.795 2.88514 18.656 2.97941 18.5344C3.07368 18.4128 3.19107 18.311 3.32482 18.235L4.58949 17.5047C4.81343 17.3755 4.98811 17.1755 5.08609 16.9363C5.18407 16.697 5.19981 16.432 5.13082 16.1828C4.73574 14.7513 4.73574 13.2394 5.13082 11.8078C5.19857 11.5592 5.18208 11.2951 5.08394 11.0568C4.9858 10.8186 4.81152 10.6195 4.58832 10.4907L3.32366 9.76033C3.05554 9.60562 2.85987 9.35074 2.77968 9.05176C2.6995 8.75278 2.74136 8.43419 2.89607 8.16608C3.05078 7.89797 3.30566 7.7023 3.60464 7.62211C3.90362 7.54192 4.22221 7.58379 4.49032 7.7385L5.75732 8.47117C5.98083 8.60127 6.24123 8.65341 6.4976 8.61941C6.75397 8.58541 6.99178 8.46719 7.17366 8.28333C8.21209 7.22323 9.52032 6.46686 10.9572 6.09583C11.2087 6.03116 11.4315 5.88438 11.5902 5.67875C11.7489 5.47313 11.8345 5.22042 11.8333 4.96067V3.5C11.8333 3.19058 11.9562 2.89383 12.175 2.67504C12.3938 2.45625 12.6906 2.33333 13 2.33333C13.3094 2.33333 13.6062 2.45625 13.8249 2.67504C14.0437 2.89383 14.1667 3.19058 14.1667 3.5V4.96067C14.1665 5.21962 14.2526 5.47125 14.4112 5.67593C14.5698 5.8806 14.792 6.02669 15.0428 6.09117C16.4802 6.46351 17.7884 7.22153 18.8263 8.28333C19.0077 8.46821 19.2455 8.58747 19.5021 8.62233C19.7588 8.65718 20.0197 8.60564 20.2438 8.47583L21.5085 7.74433C21.6412 7.66652 21.788 7.61573 21.9405 7.59489C22.0929 7.57404 22.248 7.58356 22.3967 7.62288C22.5455 7.66221 22.685 7.73057 22.8072 7.82403C22.9294 7.91749 23.0319 8.03421 23.1089 8.16745C23.1858 8.3007 23.2356 8.44784 23.2555 8.60042C23.2753 8.753 23.2647 8.90799 23.2244 9.05647C23.1841 9.20496 23.1148 9.344 23.0206 9.4656C22.9263 9.5872 22.8089 9.68895 22.6752 9.765L21.4105 10.4953C21.1877 10.6245 21.0139 10.8237 20.9162 11.062C20.8185 11.3002 20.8024 11.5641 20.8703 11.8125V11.8113Z" fill="white"/>
</svg>
