<svg width="36" height="33" viewBox="0 0 36 33" fill="none" xmlns="http://www.w3.org/2000/svg">
<path d="M21.5859 0.960951C22.3594 0.609388 23.3438 0.750013 23.9766 1.38283L35.2266 11.5078C35.7188 11.9297 36 12.4922 36 13.125C36 13.8281 35.7188 14.3906 35.2266 14.8125L23.9766 24.9375C23.3438 25.5703 22.3594 25.711 21.5859 25.3594C20.7422 25.0078 20.25 24.1641 20.25 23.25V18.75H13.5C9.77344 18.75 6.75 21.7735 6.75 25.5C6.75 27.6797 7.59375 28.875 8.29688 29.5078C8.64844 29.8594 9 30.3516 9 30.9141C9 31.6875 8.36719 32.25 7.59375 32.25C7.38281 32.25 7.17188 32.25 7.03125 32.1797C5.69531 31.4063 0 27.8906 0 19.875C0 13.0547 5.48438 7.50001 12.375 7.50001H20.25V3.00001C20.25 2.15626 20.7422 1.31251 21.5859 0.960951Z" fill="white"/>
</svg>
