<svg width="39" height="38" viewBox="0 0 39 38" fill="none" xmlns="http://www.w3.org/2000/svg">
<circle cx="19.259" cy="19" r="19" fill="#55ACEE"/>
<path d="M30.797 13.734C29.9771 14.0975 29.1074 14.3361 28.2167 14.4416C29.1561 13.8798 29.8591 12.9955 30.1946 11.9536C29.3118 12.4777 28.3458 12.8469 27.3384 13.0453C25.9441 11.5635 23.7291 11.2012 21.9353 12.1615C20.1415 13.1218 19.2149 15.166 19.6749 17.148C16.0582 16.9672 12.6885 15.2591 10.4047 12.4489C9.21104 14.5033 9.81926 17.1317 11.7941 18.453C11.08 18.431 10.3816 18.2381 9.7576 17.8903C9.7576 17.9092 9.7576 17.929 9.7576 17.9469C9.75807 20.0877 11.2668 21.9318 13.3651 22.3562C12.7029 22.536 12.0085 22.5625 11.3346 22.4337C11.9237 24.2654 13.6117 25.5203 15.5355 25.5568C13.6475 27.0323 11.2527 27.7015 8.87335 27.4186C12.8108 29.9417 17.8114 30.1147 21.9137 27.8696C26.016 25.6245 28.5659 21.3193 28.5631 16.6428C28.5631 16.4444 28.5631 16.2538 28.5502 16.0613C29.4311 15.4254 30.1914 14.6373 30.7951 13.734H30.797Z" fill="#F1F2F2"/>
</svg>
