<svg width="14" height="14" viewBox="0 0 14 14" fill="none" xmlns="http://www.w3.org/2000/svg">
<path fill-rule="evenodd" clip-rule="evenodd" d="M13.5 1.4298C13.5 0.835782 12.9852 0.372725 12.3945 0.435373L4.89454 1.2308C4.38593 1.28474 4 1.71376 4 2.22522V9.73197C3.62497 9.58383 3.20011 9.50027 2.75 9.50027C1.23122 9.50027 0 10.4517 0 11.6253C0 12.7989 1.23122 13.7503 2.75 13.7503C4.22771 13.7503 5.43319 12.8496 5.49732 11.72H5.5V2.675L12 1.98563V8.73197C11.625 8.58383 11.2001 8.50027 10.75 8.50027C9.23122 8.50027 8 9.45166 8 10.6253C8 11.7989 9.23122 12.7503 10.75 12.7503C12.2573 12.7503 13.4813 11.8132 13.4998 10.6519L13.5 10.6253V1.4298ZM12 10.6253C12 10.5974 11.9892 10.4732 11.7774 10.3096C11.5638 10.1446 11.2056 10.0003 10.75 10.0003C10.2944 10.0003 9.93621 10.1446 9.72263 10.3096C9.51084 10.4732 9.5 10.5974 9.5 10.6253C9.5 10.6532 9.51084 10.7773 9.72263 10.9409C9.93621 11.106 10.2944 11.2503 10.75 11.2503C11.2056 11.2503 11.5638 11.106 11.7774 10.9409C11.9892 10.7773 12 10.6532 12 10.6253ZM4 11.6253C4 11.5974 3.98916 11.4732 3.77737 11.3096C3.56379 11.1446 3.20556 11.0003 2.75 11.0003C2.29444 11.0003 1.93621 11.1446 1.72263 11.3096C1.51084 11.4732 1.5 11.5974 1.5 11.6253C1.5 11.6532 1.51084 11.7773 1.72263 11.9409C1.93621 12.106 2.29444 12.2503 2.75 12.2503C3.20556 12.2503 3.56379 12.106 3.77737 11.9409C3.98916 11.7773 4 11.6532 4 11.6253Z" fill="white"/>
</svg>
