<svg width="15" height="13" viewBox="0 0 15 13" fill="none" xmlns="http://www.w3.org/2000/svg">
<g opacity="0.56">
<path d="M7.36706 0.965856C7.19765 0.964302 7.03501 1.03225 6.91706 1.15386L3.59006 4.43986H0.97206C0.802802 4.43804 0.640183 4.50562 0.52206 4.62686C0.39933 4.74171 0.330405 4.90278 0.33206 5.07086V8.85986C0.330405 9.02794 0.39933 9.189 0.52206 9.30386C0.640013 9.42546 0.802654 9.49341 0.97206 9.49186H3.59006L6.91806 12.7779C7.03696 12.898 7.199 12.9657 7.36806 12.9657C7.53712 12.9657 7.69916 12.898 7.81806 12.7779C7.94079 12.663 8.00972 12.5019 8.00806 12.3339V1.59786C8.00972 1.42978 7.94079 1.26871 7.81806 1.15386C7.69987 1.032 7.53681 0.964028 7.36706 0.965856Z" fill="white"/>
<path d="M11.2818 8.37971C11.56 7.96068 11.7079 7.46867 11.7068 6.96571C11.7075 6.46095 11.5597 5.96713 11.2818 5.54571C11.0178 5.12233 10.6233 4.79627 10.1578 4.61671C10.0795 4.58098 9.9939 4.56386 9.90783 4.56671C9.73895 4.56484 9.57655 4.6316 9.45783 4.75171C9.33339 4.86996 9.26443 5.03509 9.26783 5.20671C9.2639 5.33562 9.3065 5.46163 9.38783 5.56171C9.47004 5.66047 9.56803 5.74494 9.67783 5.81171C9.79116 5.87838 9.90449 5.95505 10.0178 6.04171C10.1405 6.1362 10.2397 6.25768 10.3078 6.39671C10.4676 6.75956 10.4676 7.17286 10.3078 7.53571C10.2397 7.67475 10.1405 7.79622 10.0178 7.89071C9.90449 7.97405 9.79116 8.05071 9.67783 8.12071C9.56805 8.1875 9.47006 8.27197 9.38783 8.37071C9.30666 8.47088 9.26408 8.59683 9.26783 8.72571C9.26431 8.89736 9.33329 9.06254 9.45783 9.18071C9.57655 9.30082 9.73895 9.36759 9.90783 9.36571C9.9939 9.36849 10.0794 9.35138 10.1578 9.31571C10.6221 9.13044 11.0156 8.80274 11.2818 8.37971Z" fill="white"/>
<path d="M13.377 9.7437C14.2066 8.49574 14.4351 6.94232 13.9998 5.50838C13.5646 4.07443 12.5113 2.91003 11.128 2.3337C11.0451 2.30167 10.957 2.28506 10.868 2.2847C10.6988 2.283 10.5362 2.35056 10.418 2.4717C10.2958 2.58608 10.2269 2.74631 10.228 2.9137C10.2274 3.16853 10.3818 3.39814 10.618 3.4937C10.8809 3.62008 11.1345 3.76477 11.377 3.9267C11.8626 4.27212 12.2583 4.72887 12.531 5.2587C13.0839 6.32885 13.0839 7.60055 12.531 8.6707C12.2583 9.20053 11.8626 9.65728 11.377 10.0027C11.1345 10.1647 10.8809 10.3093 10.618 10.4357C10.3818 10.5313 10.2274 10.7609 10.228 11.0157C10.2269 11.1831 10.2958 11.3433 10.418 11.4577C10.5394 11.5803 10.7056 11.6479 10.878 11.6447C10.9636 11.6436 11.0483 11.627 11.128 11.5957C12.0477 11.22 12.8319 10.5743 13.377 9.7437Z" fill="white"/>
</g>
</svg>
