<svg width="25" height="25" viewBox="0 0 25 25" fill="none" xmlns="http://www.w3.org/2000/svg">
<path d="M12.5 2.5C11.1868 2.5 9.88642 2.75866 8.67317 3.2612C7.45991 3.76375 6.35752 4.50035 5.42893 5.42893C4.50035 6.35752 3.76375 7.45991 3.2612 8.67317C2.75866 9.88642 2.5 11.1868 2.5 12.5C2.5 13.8132 2.75866 15.1136 3.2612 16.3268C3.76375 17.5401 4.50035 18.6425 5.42893 19.5711C6.35752 20.4997 7.45991 21.2362 8.67317 21.7388C9.57731 22.1133 10.5298 22.3524 11.5 22.4499V20.5C11.5 19.9477 11.9477 19.5 12.5 19.5C13.0523 19.5 13.5 19.9477 13.5 20.5L13.5 23.5C13.5 24.0523 13.0523 24.5 12.5 24.5C10.9241 24.5 9.36371 24.1896 7.9078 23.5866C6.45189 22.9835 5.12902 22.0996 4.01472 20.9853C2.90042 19.871 2.0165 18.5481 1.41345 17.0922C0.810389 15.6363 0.5 14.0759 0.5 12.5C0.5 10.9241 0.810389 9.36371 1.41345 7.9078C2.0165 6.45189 2.90042 5.12902 4.01472 4.01472C5.12902 2.90042 6.45189 2.0165 7.9078 1.41345C9.36371 0.810389 10.9241 0.5 12.5 0.5C13.0523 0.5 13.5 0.947715 13.5 1.5C13.5 2.05228 13.0523 2.5 12.5 2.5Z" fill="white"/>
<path d="M23.5413 12.7977C24.0898 12.8625 24.4819 13.3597 24.4171 13.9082C24.3483 14.4905 24.2369 15.0671 24.0838 15.6331C23.9396 16.1663 23.3905 16.4815 22.8574 16.3373C22.3242 16.1932 22.0089 15.6441 22.1531 15.1109C22.2807 14.6392 22.3736 14.1588 22.4309 13.6735C22.4957 13.125 22.9929 12.7329 23.5413 12.7977Z" fill="white"/>
<path d="M22.8958 6.50599C22.6199 6.02753 22.0084 5.86331 21.5299 6.13917C21.0515 6.41504 20.8873 7.02654 21.1631 7.50499C21.4072 7.92834 21.62 8.36901 21.7996 8.82346C22.0027 9.33706 22.5836 9.58882 23.0972 9.38577C23.6108 9.18272 23.8626 8.60176 23.6596 8.08815C23.444 7.54281 23.1887 7.014 22.8958 6.50599Z" fill="white"/>
<path d="M16.0923 2.05511C16.3184 1.55126 16.9102 1.32614 17.4141 1.55231C17.9491 1.79245 18.4657 2.07148 18.9599 2.38716C19.4253 2.68447 19.5616 3.30279 19.2643 3.76822C18.967 4.23365 18.3487 4.36994 17.8833 4.07263C17.4714 3.80957 17.0409 3.57704 16.5951 3.37692C16.0912 3.15076 15.8661 2.55896 16.0923 2.05511Z" fill="white"/>
<path d="M10.6146 14.4557C13.2486 16.3992 16.3627 8.45623 15.867 8.03066C15.3714 7.6051 7.98054 12.5122 10.6146 14.4557Z" fill="white"/>
<path fill-rule="evenodd" clip-rule="evenodd" d="M17.3663 19.2109C16.6941 19.2109 16.1206 19.6972 16.0107 20.3603L15.5896 22.9014C15.4509 23.7386 16.0966 24.5001 16.9452 24.5001H17.1941C17.873 24.5001 18.4501 24.0043 18.5524 23.3332L18.9398 20.7921C19.0667 19.9603 18.4229 19.2109 17.5815 19.2109H17.3663ZM17.5815 20.4609H17.3663C17.3056 20.4609 17.2538 20.5048 17.2439 20.5647L16.8228 23.1058C16.8103 23.1814 16.8686 23.2501 16.9452 23.2501H17.1941C17.2554 23.2501 17.3075 23.2053 17.3167 23.1448L17.7041 20.6037C17.7156 20.5286 17.6575 20.4609 17.5815 20.4609Z" fill="white"/>
<path d="M21.894 19.2109H19.809C19.7594 19.2109 19.7174 19.2472 19.7101 19.2962L18.9498 24.3853C18.9408 24.4458 18.9876 24.5001 19.0487 24.5001H19.9994C20.0482 24.5001 20.0899 24.4649 20.098 24.4168L20.4372 22.4097C20.4453 22.3616 20.487 22.3264 20.5358 22.3264H21.3432C21.3917 22.3264 21.4332 22.2916 21.4417 22.2438L21.5981 21.3628C21.609 21.3015 21.5618 21.2453 21.4996 21.2453H20.7493C20.6878 21.2453 20.6409 21.1905 20.6505 21.1298L20.7743 20.3417C20.7819 20.2931 20.8238 20.2572 20.873 20.2572H21.7388C21.787 20.2572 21.8284 20.2228 21.8371 20.1753L21.9923 19.329C22.0036 19.2675 21.9564 19.2109 21.894 19.2109Z" fill="white"/>
<path d="M24.6122 19.2109H22.5272C22.4777 19.2109 22.4356 19.2472 22.4283 19.2962L21.6681 24.3853C21.6591 24.4458 21.7059 24.5001 21.767 24.5001H22.7177C22.7665 24.5001 22.8082 24.4649 22.8163 24.4168L23.1554 22.4097C23.1636 22.3616 23.2052 22.3264 23.254 22.3264H24.0615C24.11 22.3264 24.1515 22.2916 24.16 22.2438L24.3163 21.3628C24.3272 21.3015 24.2801 21.2453 24.2179 21.2453H23.4675C23.4061 21.2453 23.3592 21.1905 23.3687 21.1298L23.4925 20.3417C23.5002 20.2931 23.5421 20.2572 23.5913 20.2572H24.457C24.5053 20.2572 24.5467 20.2228 24.5554 20.1753L24.7106 19.329C24.7218 19.2675 24.6747 19.2109 24.6122 19.2109Z" fill="white"/>
</svg>
