<svg width="32" height="33" viewBox="0 0 32 33" fill="none" xmlns="http://www.w3.org/2000/svg">
<g clip-path="url(#clip0_372_159399)">
<path d="M22.6684 7.16797C23.3412 7.16776 23.9892 7.42184 24.4825 7.8793C24.9758 8.33675 25.278 8.96376 25.3284 9.63463L25.3351 9.83463V23.168H28.0018C28.3416 23.1683 28.6685 23.2985 28.9156 23.5318C29.1627 23.7651 29.3114 24.0839 29.3313 24.4232C29.3513 24.7624 29.2409 25.0965 29.0228 25.3571C28.8046 25.6177 28.4952 25.7852 28.1578 25.8253L28.0018 25.8346H25.3351V28.5013C25.3347 28.8411 25.2046 29.168 24.9713 29.4151C24.738 29.6622 24.4192 29.8109 24.0799 29.8309C23.7407 29.8508 23.4066 29.7404 23.146 29.5223C22.8854 29.3042 22.7179 28.9948 22.6778 28.6573L22.6684 28.5013V9.83463H12.0018V7.16797H22.6684ZM8.00178 3.16797C8.32835 3.16801 8.64356 3.28791 8.88761 3.50492C9.13165 3.72193 9.28757 4.02097 9.32578 4.3453L9.33511 4.5013V23.168H20.0018V25.8346H9.33511C8.66234 25.8348 8.01436 25.5808 7.52105 25.1233C7.02774 24.6658 6.72557 24.0388 6.67511 23.368L6.66844 23.168V9.83463H4.00178C3.66194 9.83426 3.33507 9.70413 3.08795 9.47084C2.84084 9.23754 2.69213 8.9187 2.67222 8.57944C2.6523 8.24019 2.76268 7.90613 2.9808 7.64552C3.19892 7.38492 3.50832 7.21744 3.84578 7.1773L4.00178 7.16797H6.66844V4.5013C6.66844 4.14768 6.80892 3.80854 7.05897 3.55849C7.30902 3.30844 7.64816 3.16797 8.00178 3.16797Z" fill="#1F1F1F"/>
</g>
<defs>
<clipPath id="clip0_372_159399">
<rect width="32" height="32" fill="white" transform="translate(0 0.5)"/>
</clipPath>
</defs>
</svg>
