<svg width="11" height="12" viewBox="0 0 11 12" fill="none" xmlns="http://www.w3.org/2000/svg">
<circle cx="1.08102" cy="8.43017" r="0.333" fill="#FF4B4E"/>
<circle cx="2.62502" cy="4.56225" r="0.333" fill="#FFCA54"/>
<circle cx="7.19604" cy="3.75903" r="0.333" fill="#00CDB3"/>
<circle cx="10.018" cy="8.43017" r="0.333" fill="#57BAE5"/>
<circle cx="3.94604" cy="2.07226" r="0.333" fill="#57BAE5"/>
<path d="M9.66703 6.1272L6.84103 5.7162L5.57803 3.1542C5.52452 3.04629 5.41448 2.97803 5.29403 2.97803C5.17358 2.97803 5.06354 3.04629 5.01003 3.1542L3.74603 5.7152L0.920028 6.1262C0.800868 6.14365 0.701889 6.22712 0.66457 6.34162C0.62725 6.45612 0.658037 6.58188 0.744028 6.6662L2.78903 8.6592L2.30603 11.4732C2.2857 11.5921 2.33462 11.7123 2.43224 11.7831C2.52986 11.854 2.65925 11.8633 2.76603 11.8072L5.29303 10.4782C8.04303 11.9242 7.85703 11.8432 7.96803 11.8432C8.06127 11.843 8.14972 11.8018 8.20983 11.7306C8.26994 11.6593 8.29562 11.5651 8.28003 11.4732L7.79703 8.6592L9.84203 6.6662C9.92738 6.58195 9.95788 6.45676 9.92085 6.3427C9.88381 6.22864 9.78558 6.14524 9.66703 6.1272V6.1272Z" fill="#FFCA54"/>
<path d="M2.24602 3.63112C2.05402 3.59412 1.72202 3.35512 1.83502 2.71012C1.87602 2.47512 1.82502 2.45512 1.54902 2.39312C1.27302 2.33112 0.870023 2.23912 0.840023 1.66712C0.832977 1.60018 0.863448 1.53482 0.919248 1.49718C0.975048 1.45954 1.04706 1.45577 1.10649 1.48738C1.16591 1.51899 1.20304 1.58081 1.20302 1.64812C1.21802 1.93312 1.35202 1.97612 1.62902 2.03912C1.87802 2.09612 2.29502 2.19012 2.19302 2.77412C2.11502 3.21612 2.31202 3.27412 2.31402 3.27412C2.38092 3.28298 2.43742 3.32812 2.46083 3.39141C2.48423 3.4547 2.4707 3.52575 2.42567 3.576C2.38063 3.62626 2.31149 3.64747 2.24602 3.63112V3.63112Z" fill="#F99830"/>
<circle cx="1.19202" cy="4.09318" r="0.236" fill="#57BAE5"/>
<circle cx="8.99302" cy="8.90226" r="0.236" fill="#00CDB3"/>
<circle cx="1.40202" cy="10.3691" r="0.236" fill="#FFCA54"/>
<path d="M8.33902 3.78821C8.26821 3.71718 8.26821 3.60224 8.33902 3.53121L8.59202 3.27121C8.66296 3.20535 8.77304 3.20653 8.84254 3.2739C8.91204 3.34127 8.91665 3.45126 8.85302 3.52421L8.60002 3.78421C8.5663 3.81999 8.51953 3.84061 8.47037 3.84136C8.42121 3.84212 8.37383 3.82294 8.33902 3.78821Z" fill="#FF4B4E"/>
<path d="M3.42602 3.68816L3.09002 3.55216C3.00275 3.51101 2.96276 3.40891 2.99887 3.31943C3.03498 3.22996 3.13463 3.18421 3.22602 3.21516L3.56202 3.35116C3.64929 3.39231 3.68928 3.49441 3.65317 3.58389C3.61706 3.67336 3.51741 3.71911 3.42602 3.68816Z" fill="#FF4B4E"/>
<path d="M1.76702 9.65715L1.43102 9.52115C1.34376 9.48 1.30377 9.3779 1.33987 9.28843C1.37598 9.19896 1.47564 9.15321 1.56702 9.18415L1.90302 9.32015C1.99029 9.36131 2.03028 9.46341 1.99417 9.55288C1.95806 9.64235 1.85841 9.6881 1.76702 9.65715V9.65715Z" fill="#00CDB3"/>
<path d="M9.43203 10.277L9.09603 10.141C9.00876 10.0999 8.96877 9.99777 9.00488 9.9083C9.04099 9.81883 9.14065 9.77308 9.23203 9.80403L9.56803 9.94003C9.6553 9.98118 9.69529 10.0833 9.65918 10.1728C9.62307 10.2622 9.52342 10.308 9.43203 10.277V10.277Z" fill="#57BAE5"/>
<path d="M7.27403 0.641144C7.25228 0.546804 7.16049 0.486001 7.06514 0.50278C6.96979 0.519559 6.90427 0.608048 6.91603 0.704144C6.96603 0.985144 6.84503 1.05614 6.58803 1.18014C6.35803 1.29114 5.97303 1.48014 6.20303 2.02214C6.37803 2.43714 6.19703 2.53714 6.19703 2.53714C6.14603 2.57114 5.98503 2.63014 6.05403 2.79414C6.17303 3.07714 6.90903 2.75914 6.53703 1.88014C6.44403 1.66014 6.48903 1.63014 6.74503 1.50614C7.12287 1.40375 7.35503 1.02415 7.27403 0.641144V0.641144Z" fill="#F99830"/>
<path d="M10.042 3.2892C9.9597 3.23193 9.84656 3.25206 9.78902 3.3342C9.67723 3.52156 9.61462 3.73415 9.60702 3.9522C9.56802 4.2972 9.55302 4.4262 9.19202 4.4032C8.87509 4.35323 8.55228 4.44583 8.31002 4.6562C8.07802 4.8942 8.08602 5.2222 8.30502 5.2252C8.48702 5.2252 8.49902 5.0342 8.49902 5.0342C8.49902 5.0342 8.53702 4.7252 9.16902 4.7652C10.169 4.8282 9.84602 3.8862 10.086 3.5412C10.1428 3.45932 10.1232 3.34699 10.042 3.2892V3.2892Z" fill="#F99830"/>
<path d="M4.54903 5.35506L5.60503 3.21506L5.57803 3.16006C5.52452 3.05215 5.41448 2.98389 5.29403 2.98389C5.17358 2.98389 5.06354 3.05215 5.01003 3.16006L3.74603 5.72106L4.17403 5.64506C4.33641 5.60999 4.47424 5.5034 4.54903 5.35506Z" fill="#F99830"/>
<path d="M2.98703 11.3531L3.41703 8.84714C3.44699 8.67392 3.39947 8.49628 3.28703 8.36114L1.42703 6.54614C1.35676 6.47654 1.323 6.37813 1.33576 6.28005C1.34851 6.18197 1.4063 6.09546 1.49203 6.04614L0.921035 6.12914C0.801875 6.14659 0.702896 6.23006 0.665577 6.34456C0.628257 6.45907 0.659044 6.58483 0.745035 6.66914L2.79003 8.66214L2.30703 11.4761C2.2867 11.5951 2.33563 11.7152 2.43325 11.7861C2.53087 11.857 2.66026 11.8663 2.76703 11.8101L3.08803 11.6421C3.00684 11.5696 2.96868 11.4604 2.98703 11.3531Z" fill="#F99830"/>
</svg>
