<svg width="53" height="41" viewBox="0 0 53 41" fill="none" xmlns="http://www.w3.org/2000/svg">
<path fill-rule="evenodd" clip-rule="evenodd" d="M50.256 8.55802C47.6856 8.44276 45.1701 7.77493 42.881 6.60002C41.5517 5.90246 40.3979 4.96364 39.243 4.02393C38.378 3.32012 37.5124 2.61583 36.572 2.01202C34.437 0.499856 31.8125 -0.156378 29.217 0.173025C27.2059 0.534558 25.9682 1.67196 24.6303 2.90142C24.2585 3.24307 23.879 3.59183 23.473 3.93302C22.6838 4.59718 22.6237 4.57017 21.8135 4.20582C21.7624 4.18287 21.7084 4.15857 21.651 4.13302C20.6457 3.61734 19.566 3.26172 18.451 3.07902C15.7751 2.93284 13.2047 4.14117 11.61 6.29502C10.5225 7.62596 9.92735 9.17581 9.32981 10.732C8.98452 11.6312 8.63842 12.5326 8.19602 13.395C6.99649 15.7284 4.89183 17.4673 2.37402 18.205C0.546025 18.793 0.547025 21.114 1.61102 22.333C1.81426 23.1888 2.4015 23.9026 3.20202 24.267C6.3615 25.6623 8.54272 28.4634 10.7047 31.2398L10.7047 31.2398C11.9641 32.8572 13.2171 34.4662 14.653 35.784C19.474 40.205 26.151 41.057 32.34 39.541C38.514 38.028 44.302 34.652 46.724 28.5C47.6099 25.9362 48.2813 23.3031 48.731 20.628C49.243 18.213 49.845 15.456 51.658 13.646C53.222 12.085 52.974 8.72102 50.256 8.55802ZM17.156 9.46502C17.005 9.35683 16.8439 9.2634 16.675 9.18602C16.8603 9.05496 17.0661 8.9556 17.284 8.89202C17.2243 9.07824 17.1828 9.2698 17.16 9.46402L17.156 9.46502ZM37.8299 29.5996C37.8279 29.5981 37.826 29.5966 37.824 29.595L37.828 29.594C37.8286 29.5959 37.8292 29.5977 37.8299 29.5996ZM37.8299 29.5996C37.9625 30.0052 38.0366 30.4275 38.05 30.854C38.282 30.674 38.506 30.488 38.724 30.288C38.426 30.0625 38.1279 29.834 37.8299 29.5996Z" fill="white"/>
<path fill-rule="evenodd" clip-rule="evenodd" d="M48.125 12.2061C48.69 12.3681 48.339 13.2131 47.778 13.0501C47.7129 13.0341 47.6495 13.0132 47.5868 12.9925L47.5517 12.981L47.518 12.9701C47.4859 13.0228 47.4421 13.0672 47.39 13.1001C47.3742 13.1125 47.3566 13.1234 47.3383 13.1348L47.3383 13.1348C47.3254 13.1428 47.3122 13.1511 47.299 13.1601C47.4143 13.3158 47.4269 13.5248 47.331 13.6931C46.3 15.4896 46.1835 17.472 46.0665 19.4646V19.4646C46.0107 20.4135 45.9549 21.3646 45.8 22.2991C45.416 24.5184 44.4857 26.6072 43.093 28.3771C39.92 32.4771 34.985 34.5871 30.001 35.4871C25.301 36.3351 19.979 36.2871 16.18 32.9951C14.5741 31.6028 13.3504 29.8212 12.1304 28.0451C10.4204 25.5555 8.7178 23.0766 5.98002 21.6951C5.3753 21.7061 4.76892 21.7087 4.16164 21.7113H4.16125L3.98002 21.7121C3.89731 21.7117 3.82338 21.6605 3.79402 21.5831C3.77335 21.5861 3.75293 21.591 3.73239 21.5959L3.73236 21.5959L3.73233 21.5959L3.73229 21.5959C3.71112 21.601 3.68983 21.6061 3.66802 21.6091C3.26802 21.6731 3.19802 21.0771 3.58202 20.9931C7.30968 20.1535 8.84076 16.9654 10.3797 13.7611C11.3388 11.7639 12.301 9.76036 13.8 8.31514C15.1351 6.90661 16.9964 6.11778 18.937 6.13814C20.0737 6.31011 21.1956 6.56853 22.293 6.91114C23.9492 7.39687 25.7332 6.80818 26.775 5.43214C26.9575 5.23462 27.1372 5.02948 27.3178 4.82324C28.1807 3.83812 29.0656 2.82776 30.382 2.50114C32.066 2.08414 33.599 2.98814 34.842 4.03614C36.6137 5.71697 38.4837 7.29107 40.442 8.75014C42.8092 10.2919 45.401 11.4577 48.125 12.2061ZM43.289 26.4891C44.5682 24.3656 44.7892 22.0213 45.0092 19.6867C45.1981 17.6832 45.3862 15.6868 46.242 13.8431C43.4701 15.514 40.3721 16.571 37.157 16.9431C36.957 16.9671 36.75 16.9871 36.55 17.0021C36.5356 17.1138 36.4791 17.2157 36.392 17.2871C35.7367 17.834 35.034 18.3213 34.292 18.7431C35.3171 19.2203 36.1359 20.0511 36.598 21.0831C36.6445 21.2048 36.5867 21.3415 36.4671 21.393C36.3474 21.4445 36.2085 21.3925 36.152 21.2751C35.6863 20.2971 34.9247 19.4903 33.975 18.9691C33.961 18.9594 33.948 18.9483 33.936 18.9361C31.7601 20.0763 29.3968 20.8157 26.959 21.1191C27.0689 21.4706 27.2286 21.837 27.3918 22.2115L27.3918 22.2115L27.3919 22.2115L27.3919 22.2115C27.9002 23.3775 28.4423 24.6212 27.618 25.7331C27.5787 25.7867 27.5057 25.8026 27.4476 25.7704C27.3896 25.7382 27.3645 25.6678 27.389 25.6061C27.8801 24.494 27.4229 23.4805 26.9658 22.4672C26.7936 22.0856 26.6215 21.704 26.5 21.3171C26.4871 21.2676 26.4871 21.2157 26.5 21.1661C24.8555 21.3541 23.1964 21.3788 21.547 21.2401C21.0426 21.743 20.7974 22.4499 20.882 23.1571C20.8951 23.302 20.7922 23.4317 20.6482 23.452C20.5041 23.4723 20.3694 23.376 20.342 23.2331C20.1974 22.4971 20.4003 21.7356 20.892 21.1691C19.605 21.0319 18.333 20.7779 17.092 20.4101C17.0606 20.4 17.0334 20.3796 17.015 20.3521C13.7975 21.1926 10.4884 21.6326 7.16302 21.6621C9.67568 23.0173 11.3263 25.3566 12.9874 27.7108C13.4947 28.4297 14.0029 29.15 14.537 29.8441C18.232 34.6441 23.391 35.6081 29.137 34.7001C34.65 33.8401 40.297 31.4491 43.289 26.4891ZM46.483 12.6431C44.2218 14.0743 41.727 15.0974 39.112 15.6661C39.5188 15.2686 39.7711 14.7395 39.824 14.1731C39.856 13.8681 39.365 13.8141 39.356 14.1141C39.3331 14.754 39.0161 15.3474 38.497 15.7221C38.4695 15.743 38.4506 15.7732 38.444 15.8071C37.1105 16.054 35.7572 16.1785 34.401 16.1791C34.3079 16.1462 34.2066 16.1437 34.112 16.1721C34.108 16.1721 34.1 16.1781 34.1 16.1781C33.471 16.1691 32.843 16.1411 32.215 16.0781C32.7344 15.4571 33.0413 14.6862 33.091 13.8781C33.1002 13.7675 33.0208 13.6692 32.9108 13.6548C32.8007 13.6403 32.6987 13.7149 32.679 13.8241C32.5728 14.6125 32.2852 15.3656 31.839 16.0241C29.8372 15.7934 27.8765 15.2886 26.012 14.5241C25.8684 14.4621 25.7022 14.4853 25.581 14.5841C24.7701 15.389 23.8833 16.1137 22.933 16.7481C22.4382 16.7277 21.9887 16.4542 21.743 16.0241C21.62 15.8171 21.271 16.0261 21.382 16.2381C21.6021 16.6467 21.9821 16.9455 22.431 17.0631C21.1468 17.8598 19.7781 18.5115 18.35 19.0061C17.5156 18.7962 16.7481 18.3782 16.119 17.7911C15.95 17.6301 15.671 17.9141 15.833 18.0851C16.3312 18.622 16.9605 19.02 17.659 19.2401C13.8068 20.3117 9.84262 20.9299 5.84702 21.0821C5.77102 21.0541 5.68902 21.0261 5.60802 20.9991C8.50094 19.6351 10.0292 16.5018 11.4336 13.6223L11.563 13.3571C12.887 10.6421 14.877 7.28414 18.277 7.04914C19.2664 6.98174 20.226 7.26589 21.1831 7.5493C22.4269 7.91759 23.6663 8.2846 24.961 7.87714C26.1868 7.4942 27.0267 6.53255 27.8463 5.59416C28.0176 5.39797 28.1881 5.2028 28.361 5.01414C29.515 3.76914 30.881 2.86414 32.633 3.63814C33.8282 4.29927 34.9024 5.15848 35.81 6.17914C38.8443 9.09862 42.49 11.3066 46.483 12.6431ZM31.105 17.8961C31.1197 17.8898 31.1344 17.8822 31.1493 17.8744C31.1627 17.8674 31.1762 17.8603 31.19 17.8541C31.09 17.8466 30.99 17.8381 30.8901 17.8296C30.79 17.8211 30.69 17.8126 30.59 17.8051C30.6065 17.8571 30.6126 17.9118 30.608 17.9661C30.7234 17.9469 30.8368 17.9319 30.95 17.917C31.0017 17.9102 31.0533 17.9033 31.105 17.8961ZM18.727 19.8001C18.7249 19.8131 18.7249 19.8262 18.727 19.8391C18.7179 19.9031 18.7244 19.9683 18.746 20.0291C18.6715 20.0291 18.5969 20.0285 18.5222 20.0278C18.3726 20.0265 18.2225 20.0251 18.071 20.0291C18.293 19.9551 18.51 19.8781 18.727 19.8001Z" fill="#222221"/>
<path d="M46.243 13.842C44.393 17.835 45.667 22.542 43.29 26.488C40.298 31.449 34.654 33.839 29.144 34.705C23.395 35.613 18.236 34.644 14.544 29.849C12.262 26.882 10.45 23.436 7.17004 21.667C10.4954 21.6375 13.8045 21.1975 17.022 20.357C17.0405 20.3845 17.0676 20.4049 17.099 20.415C18.3401 20.7828 19.612 21.0368 20.899 21.174C20.4074 21.7405 20.2044 22.502 20.349 23.238C20.3765 23.3809 20.5111 23.4772 20.6552 23.4569C20.7993 23.4366 20.9021 23.3069 20.889 23.162C20.8044 22.4548 21.0496 21.7479 21.554 21.245C23.2034 21.3837 24.8625 21.359 26.507 21.171C26.4942 21.2206 26.4942 21.2725 26.507 21.322C26.95 22.735 28.072 24.08 27.396 25.611C27.3715 25.6727 27.3966 25.7431 27.4547 25.7753C27.5127 25.8075 27.5857 25.7916 27.625 25.738C28.714 24.269 27.418 22.571 26.966 21.124C29.4036 20.8199 31.7665 20.0797 33.942 18.939C33.954 18.9512 33.967 18.9623 33.981 18.972C34.9307 19.4932 35.6923 20.3 36.158 21.278C36.2145 21.3954 36.3535 21.4474 36.4731 21.3959C36.5927 21.3444 36.6505 21.2077 36.604 21.086C36.1419 20.054 35.3232 19.2232 34.298 18.746C35.04 18.3242 35.7428 17.8369 36.398 17.29C36.4851 17.2186 36.5416 17.1167 36.556 17.005C36.756 16.99 36.956 16.97 37.163 16.946C40.3767 16.572 43.4729 15.5136 46.243 13.842V13.842Z" fill="#D16A70"/>
<path d="M46.483 12.6432C44.2218 14.0743 41.7269 15.0975 39.112 15.6662C39.5213 15.2673 39.7749 14.7354 39.827 14.1662C39.858 13.8612 39.368 13.8042 39.359 14.1072C39.3361 14.747 39.0191 15.3404 38.5 15.7152C38.4725 15.736 38.4536 15.7663 38.447 15.8002C37.1135 16.047 35.7602 16.1716 34.404 16.1722C34.3109 16.1392 34.2096 16.1368 34.115 16.1652C34.115 16.1652 34.107 16.1702 34.103 16.1712C33.473 16.1602 32.846 16.1322 32.218 16.0712C32.7374 15.4502 33.0443 14.6792 33.094 13.8712C33.1031 13.7606 33.0238 13.6623 32.9137 13.6478C32.8037 13.6334 32.7017 13.7079 32.682 13.8172C32.5757 14.6056 32.2882 15.3586 31.842 16.0172C29.8401 15.7864 27.8795 15.2817 26.015 14.5172C25.8714 14.4552 25.7052 14.4783 25.584 14.5772C24.773 15.3821 23.8862 16.1068 22.936 16.7412C22.4412 16.7207 21.9916 16.4472 21.746 16.0172C21.622 15.8112 21.273 16.0172 21.385 16.2312C21.6051 16.6398 21.985 16.9386 22.434 17.0562C21.1497 17.855 19.7806 18.5087 18.352 19.0052C17.5166 18.796 16.748 18.3783 16.118 17.7912C15.949 17.6302 15.67 17.9142 15.832 18.0852C16.3302 18.6221 16.9595 19.0201 17.658 19.2402C13.8058 20.3118 9.8416 20.93 5.84599 21.0822C5.76899 21.0542 5.68799 21.0272 5.60699 20.9992C8.58899 19.5922 10.121 16.3072 11.562 13.3572C12.886 10.6432 14.88 7.2842 18.276 7.0492C20.551 6.8942 22.669 8.5982 24.96 7.8772C26.443 7.4112 27.36 6.1052 28.36 5.0142C29.515 3.7682 30.88 2.8632 32.632 3.6382C33.8271 4.29933 34.9014 5.15853 35.809 6.1792C38.8436 9.0988 42.4896 11.3068 46.483 12.6432Z" fill="#D16A70"/>
</svg>
