<svg width="10" height="7" viewBox="0 0 10 7" fill="none" xmlns="http://www.w3.org/2000/svg">
<path fill-rule="evenodd" clip-rule="evenodd" d="M9.03616 2.82034C9.04225 2.79556 9.0446 2.77 9.04311 2.74453V2.74314C9.27416 2.6619 9.42111 2.43477 9.40052 2.19073C9.37993 1.94668 9.197 1.74739 8.9556 1.70602C8.71421 1.66464 8.47536 1.79164 8.37467 2.01491C8.27399 2.23817 8.33692 2.50126 8.52773 2.6548L7.81481 3.36702C7.63559 3.54622 7.3922 3.64638 7.13876 3.64523C6.83765 3.64425 6.55443 3.50213 6.37368 3.2613L5.22259 1.72071C5.42734 1.507 5.42118 1.16808 5.20879 0.961957C4.9964 0.755831 4.65745 0.759819 4.44997 0.970884C4.24248 1.18195 4.2443 1.52092 4.45403 1.72975L3.29389 3.26617C3.1265 3.48749 2.87135 3.62534 2.59449 3.64402C2.31763 3.6627 2.04627 3.56038 1.85067 3.36355L1.14541 2.65272C1.33569 2.49614 1.39536 2.23034 1.29028 2.00745C1.18519 1.78455 0.942168 1.66147 0.700298 1.70864C0.458429 1.75581 0.279468 1.96119 0.265831 2.20724C0.252195 2.45328 0.407367 2.67718 0.642543 2.75079C0.640857 2.77696 0.643203 2.80323 0.649498 2.82869L1.21357 5.09262C1.24199 5.20663 1.34438 5.28665 1.46187 5.28668H4.84491L8.22656 5.26929C8.34354 5.26863 8.44519 5.18874 8.47348 5.07524L9.03616 2.82034ZM8.1613 5.83264C8.30266 5.83264 8.41726 5.94723 8.41726 6.08859L8.41795 6.70344C8.41795 6.8448 8.30336 6.95939 8.162 6.95939H1.53572C1.39436 6.95939 1.27976 6.8448 1.27976 6.70344V6.08859C1.27976 5.94723 1.39436 5.83264 1.53572 5.83264H8.1613Z" fill="white"/>
</svg>
