<svg width="6" height="8" viewBox="0 0 6 8" fill="none" xmlns="http://www.w3.org/2000/svg">
<path fill-rule="evenodd" clip-rule="evenodd" d="M0 2.96208C0.00165325 1.50915 1.17907 0.331731 2.632 0.330078C4.08532 0.33118 5.26335 1.50876 5.265 2.96208C5.265 4.76308 2.909 7.40708 2.809 7.51908C2.76404 7.56925 2.69986 7.59791 2.6325 7.59791C2.56514 7.59791 2.50096 7.56925 2.456 7.51908C2.356 7.40808 0 4.76208 0 2.96208ZM1.309 2.96275C1.30882 3.69371 1.90104 4.28653 2.632 4.28708C3.36355 4.28653 3.95645 3.69363 3.957 2.96208C3.95645 2.23111 3.36363 1.63889 2.63267 1.63908C1.9017 1.63926 1.30918 2.23178 1.309 2.96275Z" fill="white"/>
</svg>
