<svg width="7" height="7" viewBox="0 0 7 7" fill="none" xmlns="http://www.w3.org/2000/svg">
<path d="M5.94411 0.963989C6.11792 0.963989 6.265 1.11131 6.265 1.28542V2.78542C6.265 2.97292 6.11792 3.10685 5.94411 3.10685C5.75692 3.10685 5.62322 2.97292 5.62322 2.78542V2.0622L4.48673 3.2006C5.19536 4.1247 5.12851 5.4372 4.28617 6.28095C3.8182 6.73631 3.2299 6.96399 2.62823 6.96399C2.01319 6.96399 1.41152 6.73631 0.956921 6.28095C0.0343587 5.35685 0.0343587 3.87024 0.956921 2.94613C1.41152 2.49078 2.01319 2.2497 2.62823 2.2497C3.12294 2.2497 3.61765 2.42381 4.03213 2.74524L5.16862 1.60685H4.44661C4.25943 1.60685 4.12572 1.47292 4.12572 1.28542C4.12572 1.11131 4.25943 0.963989 4.44661 0.963989H5.94411ZM3.83157 5.8256C4.5001 5.15595 4.5001 4.07113 3.83157 3.40149C3.51068 3.08006 3.08283 2.89256 2.62823 2.89256C2.16026 2.89256 1.73241 3.08006 1.41152 3.40149C0.742994 4.07113 0.742994 5.15595 1.41152 5.8256C1.73241 6.14703 2.16026 6.32113 2.62823 6.32113C3.08283 6.32113 3.51068 6.14703 3.83157 5.8256Z" fill="white"/>
</svg>
