<svg width="22" height="24" viewBox="0 0 22 24" fill="none" xmlns="http://www.w3.org/2000/svg">
<path d="M19.2512 0.00087934H2.80719C1.56366 -0.0926387 0.461993 0.797455 0.292188 2.03288V22.5749C0.286651 22.9071 0.398957 23.2306 0.609188 23.4879C0.865062 23.7797 1.23717 23.9431 1.62519 23.9339C2.04732 23.9205 2.45469 23.7754 2.79019 23.5189L10.1472 18.2439C10.6928 17.8998 11.3876 17.8998 11.9332 18.2439L19.2702 23.5189C19.5956 23.7751 19.9943 23.9208 20.4082 23.9349C20.7644 23.9457 21.1081 23.8029 21.3519 23.5429C21.5956 23.2829 21.7159 22.9307 21.6822 22.5759V2.03288C21.5567 0.808515 20.4784 -0.0928257 19.2512 0.00087934Z" fill="#FFB440"/>
<path d="M16.5161 5.61523C16.31 5.40951 15.9762 5.40951 15.7701 5.61523L9.44713 11.9392L7.01613 9.50823C6.80775 9.31721 6.48589 9.32421 6.286 9.5241C6.08611 9.72399 6.07911 10.0458 6.27013 10.2542L9.07013 13.0542C9.27625 13.26 9.61002 13.26 9.81613 13.0542L16.5161 6.35423C16.7172 6.14895 16.7172 5.82052 16.5161 5.61523Z" fill="white" stroke="white" stroke-width="0.5"/>
</svg>
