<svg width="33" height="33" viewBox="0 0 33 33" fill="none" xmlns="http://www.w3.org/2000/svg">
<path d="M8.41421 1.41421L12.5858 5.58579C13.3668 6.36684 13.3668 7.63316 12.5858 8.41421L11.8284 9.17157C10.2663 10.7337 10.2663 13.2663 11.8284 14.8284L18.1716 21.1716C19.7337 22.7337 22.2663 22.7337 23.8284 21.1716L24.5858 20.4142C25.3668 19.6332 26.6332 19.6332 27.4142 20.4142L31.5858 24.5858C32.3668 25.3668 32.3668 26.6332 31.5858 27.4142L30.0711 28.9289C26.1658 32.8342 19.8342 32.8342 15.9289 28.9289L4.07107 17.0711C0.165825 13.1658 0.16582 6.83418 4.07106 2.92894L5.58579 1.41421C6.36683 0.633165 7.63316 0.633164 8.41421 1.41421Z" stroke="#126881"/>
</svg>
