<svg width="24" height="25" viewBox="0 0 24 25" fill="none" xmlns="http://www.w3.org/2000/svg">
<path d="M6.50001 1.5C6.50001 0.947715 6.94772 0.5 7.50001 0.5H14C14.5523 0.5 15 0.947715 15 1.5C15 2.05228 14.5523 2.5 14 2.5H7.50001C6.94772 2.5 6.50001 2.05228 6.50001 1.5Z" fill="white"/>
<path d="M18.9556 4.05274C19.3573 4.43179 19.3756 5.06469 18.9965 5.46636L17.7624 6.77413C18.7201 7.67241 19.5004 8.75029 20.0556 9.95241C20.2871 10.4538 20.0684 11.048 19.567 11.2795C19.0656 11.5111 18.4714 11.2924 18.2398 10.791C17.5902 9.38433 16.5576 8.18905 15.2602 7.34201C13.9629 6.49496 12.4532 6.03037 10.9041 6.00144C9.35492 5.97251 7.82895 6.3804 6.50086 7.17842C5.17278 7.97643 4.09625 9.13231 3.39455 10.5137C2.69286 11.8951 2.39435 13.4462 2.5332 14.9894C2.67206 16.5325 3.24267 18.0054 4.1797 19.2393C5.11673 20.4733 6.38231 21.4184 7.83152 21.9665C9.28074 22.5146 10.855 22.6436 12.3741 22.3386C12.9156 22.2298 13.4427 22.5807 13.5514 23.1221C13.6601 23.6636 13.3093 24.1907 12.7678 24.2994C10.8805 24.6784 8.92455 24.5182 7.12401 23.8372C5.32347 23.1562 3.75109 21.982 2.5869 20.4489C1.42271 18.9158 0.713769 17.0859 0.54125 15.1686C0.368731 13.2513 0.739608 11.3242 1.61142 9.60794C2.48322 7.89166 3.82072 6.45557 5.47077 5.46409C7.12082 4.47262 9.01672 3.96584 10.9414 4.00179C12.7928 4.03636 14.5989 4.57178 16.1684 5.54922L17.542 4.0937C17.921 3.69203 18.5539 3.67369 18.9556 4.05274Z" fill="white"/>
<path d="M12 10C12 9.44771 11.5523 9 11 9C10.4477 9 10 9.44771 10 10V14.0401L6.84921 16.7407C6.42989 17.1002 6.38133 17.7315 6.74075 18.1508C7.10017 18.5701 7.73147 18.6187 8.1508 18.2593L12 14.9599V10Z" fill="white"/>
<path d="M18.9802 16.1598C18.9026 16.2985 18.868 16.4572 18.8806 16.6157C18.9244 17.1662 18.5137 17.6481 17.9631 17.6919C17.4126 17.7358 16.9308 17.325 16.8869 16.7745C16.8429 16.2217 16.9638 15.6682 17.2343 15.1841C17.5048 14.7 17.9128 14.307 18.4067 14.0548C18.9006 13.8026 19.4581 13.7025 20.0089 13.7672C20.5597 13.8319 21.0789 14.0584 21.5009 14.4182C21.9229 14.7779 22.2288 15.2547 22.3798 15.7883C22.5308 16.3219 22.5202 16.8883 22.3493 17.4159C22.2588 17.6952 22.1256 17.957 21.9556 18.1926C22.3339 18.5245 22.6327 18.94 22.8268 19.4085C23.0761 20.0105 23.1414 20.6729 23.0142 21.312C22.8871 21.9511 22.5733 22.5382 22.1126 22.9989C21.6518 23.4597 21.0648 23.7735 20.4257 23.9006C19.7866 24.0277 19.1241 23.9625 18.5221 23.7131C17.9201 23.4637 17.4056 23.0415 17.0435 22.4997C16.6815 21.9579 16.4883 21.3209 16.4883 20.6693C16.4883 20.117 16.936 19.6693 17.4883 19.6693C18.0406 19.6693 18.4883 20.117 18.4883 20.6693C18.4883 20.9253 18.5642 21.1756 18.7065 21.3885C18.8487 21.6014 19.0509 21.7674 19.2875 21.8653C19.524 21.9633 19.7844 21.989 20.0355 21.939C20.2866 21.8891 20.5173 21.7658 20.6984 21.5847C20.8794 21.4036 21.0027 21.173 21.0527 20.9218C21.1026 20.6707 21.077 20.4104 20.979 20.1738C20.881 19.9373 20.7151 19.7351 20.5022 19.5928C20.2893 19.4506 20.039 19.3746 19.7829 19.3746C19.2306 19.3746 18.7829 18.9269 18.7829 18.3746C18.7829 17.9975 18.9916 17.6692 19.2999 17.4988C19.4306 17.418 19.582 17.3662 19.7457 17.3532C19.9042 17.3406 20.0554 17.2812 20.1801 17.1827C20.3049 17.0842 20.3976 16.9508 20.4466 16.7996C20.4956 16.6483 20.4987 16.486 20.4554 16.333C20.4121 16.18 20.3244 16.0433 20.2034 15.9402C20.0824 15.837 19.9336 15.7721 19.7757 15.7535C19.6178 15.735 19.4579 15.7637 19.3163 15.836C19.1747 15.9083 19.0578 16.021 18.9802 16.1598Z" fill="white"/>
</svg>
