<svg width="14" height="16" viewBox="0 0 14 16" fill="none" xmlns="http://www.w3.org/2000/svg">
<path d="M11.375 2.625C10.5938 1.875 9.375 1.875 8.59375 2.625L2.84375 8.375C1.53125 9.6875 1.53125 11.8438 2.84375 13.1562C4.15625 14.4688 6.3125 14.4688 7.625 13.1562L12.375 8.40625C12.7188 8.0625 13.25 8.0625 13.5938 8.40625C13.9375 8.75 13.9375 9.28125 13.5938 9.625L8.84375 14.375C6.84375 16.375 3.625 16.375 1.625 14.375C-0.375 12.375 -0.375 9.15625 1.625 7.15625L7.375 1.40625C8.8125 -0.0625 11.1562 -0.0625 12.5938 1.40625C14.0625 2.84375 14.0625 5.1875 12.5938 6.625L7.09375 12.125C6.21875 13.0312 4.75 13.0312 3.875 12.125C2.96875 11.25 2.96875 9.78125 3.875 8.90625L8.375 4.40625C8.71875 4.0625 9.25 4.0625 9.59375 4.40625C9.9375 4.75 9.9375 5.28125 9.59375 5.625L5.09375 10.125C4.90625 10.3438 4.90625 10.6875 5.09375 10.9062C5.3125 11.0938 5.65625 11.0938 5.875 10.9062L11.375 5.40625C12.125 4.625 12.125 3.40625 11.375 2.625Z" fill="#777777"/>
</svg>
