<svg width="32" height="31" viewBox="0 0 32 31" fill="none" xmlns="http://www.w3.org/2000/svg">
<ellipse cx="15.5756" cy="15.3826" rx="15.5756" ry="15.3826" fill="#55ACEE"/>
<path d="M25.0338 11.1193C24.3617 11.4136 23.6487 11.6067 22.9186 11.6922C23.6887 11.2373 24.265 10.5214 24.54 9.67785C23.8163 10.1022 23.0244 10.4011 22.1986 10.5617C21.0556 9.36199 19.2398 9.06867 17.7693 9.84615C16.2988 10.6236 15.5392 12.2786 15.9163 13.8833C12.9515 13.7369 10.189 12.354 8.31684 10.0788C7.33835 11.7421 7.83695 13.8701 9.45583 14.9398C8.87047 14.922 8.29797 14.7658 7.7864 14.4843C7.7864 14.4995 7.7864 14.5156 7.7864 14.5301C7.78678 16.2633 9.02357 17.7563 10.7437 18.0999C10.2009 18.2455 9.63161 18.2669 9.07915 18.1626C9.56212 19.6456 10.9459 20.6616 12.5229 20.6911C10.9752 21.8857 9.01207 22.4275 7.06152 22.1985C10.2893 24.2412 14.3886 24.3812 17.7516 22.5636C21.1145 20.7459 23.2048 17.2604 23.2025 13.4743C23.2025 13.3136 23.2025 13.1593 23.192 13.0035C23.9141 12.4887 24.5373 11.8506 25.0322 11.1193H25.0338Z" fill="#F1F2F2"/>
</svg>
