<svg width="16" height="13" viewBox="0 0 16 13" fill="none" xmlns="http://www.w3.org/2000/svg">
<path d="M15.5281 2.1849C14.9676 2.43324 14.373 2.59606 13.7641 2.6679C14.4056 2.28392 14.8854 1.67967 15.1141 0.967897C14.5113 1.32559 13.8518 1.57755 13.1641 1.7129C12.2127 0.699934 10.6998 0.451597 9.47445 1.10724C8.2491 1.76288 7.61628 3.1593 7.93111 4.5129C5.46182 4.38917 3.16123 3.2227 1.60211 1.3039C0.786918 2.70708 1.20287 4.50223 2.55211 5.4039C2.06431 5.38874 1.58728 5.2567 1.16111 5.0189C1.16111 5.0319 1.16111 5.0449 1.16111 5.0579C1.16112 6.51975 2.19127 7.7791 3.62411 8.0689C3.17181 8.19176 2.69746 8.20989 2.23711 8.1219C2.63952 9.37268 3.79241 10.2294 5.10611 10.2539C3.81772 11.2623 2.18295 11.7206 0.558105 11.5289C3.24651 13.2513 6.66056 13.3692 9.46142 11.8365C12.2623 10.3038 14.0034 7.36471 14.0021 4.1719C14.0021 4.0389 14.0021 3.9059 13.9931 3.7719C14.5947 3.33778 15.1138 2.79965 15.5261 2.1829L15.5281 2.1849Z" fill="white"/>
</svg>
