<svg width="21" height="21" viewBox="0 0 21 21" fill="none" xmlns="http://www.w3.org/2000/svg">
<path d="M14.1434 14.3829L6.50776 6.58307L1.33524 19.3091L14.1434 14.3829Z" stroke="white" stroke-width="1.50228" stroke-linecap="round" stroke-linejoin="round"/>
<path d="M14.3897 10.6882C15.1286 9.83979 17.1648 8.34003 19.398 9.12823" stroke="white" stroke-width="1.50228" stroke-linecap="round" stroke-linejoin="round"/>
<path d="M9.78446 6.32894C10.6727 5.63843 12.2836 3.68899 11.6211 1.41533" stroke="white" stroke-width="1.50228" stroke-linecap="round" stroke-linejoin="round"/>
<path d="M9.70983 9.86719C9.65509 11.1535 10.0382 14.0216 12.0087 15.2039" stroke="white" stroke-width="1.50228" stroke-linecap="round" stroke-linejoin="round"/>
<path d="M5.19409 9.94929C5.4303 11.749 6.30017 15.1737 8.50785 16.5055" stroke="white" stroke-width="1.50228" stroke-linecap="round" stroke-linejoin="round"/>
<path d="M3.22361 14.7934C3.22361 15.286 3.63413 17.0102 5.19409 17.8312" stroke="white" stroke-width="1.50228" stroke-linecap="round" stroke-linejoin="round"/>
<path d="M17.4276 12.2482H17.5918" stroke="white" stroke-width="1.50228" stroke-linecap="round" stroke-linejoin="round"/>
<path d="M8.88874 3.62701L8.89789 3.46306" stroke="white" stroke-width="1.50228" stroke-linecap="round" stroke-linejoin="round"/>
<path d="M18.2485 6.74725H18.4127" stroke="white" stroke-width="1.50228" stroke-linecap="round" stroke-linejoin="round"/>
<path d="M14.4718 2.80603L14.481 2.64208" stroke="white" stroke-width="1.50228" stroke-linecap="round" stroke-linejoin="round"/>
<path d="M11.9266 8.30721C12.132 8.21592 12.6342 8.09418 13.2144 8.20861C13.4505 8.25518 13.7197 8.24916 13.745 8.00982C13.7636 7.83268 13.7331 7.56317 13.6 7.16634C13.5798 7.10585 13.5602 7.04445 13.5562 6.98078C13.5324 6.59973 13.8126 6.10695 15.0853 6.48729C15.2776 6.54474 15.5126 6.58543 15.6139 6.41223C15.7343 6.20633 15.7653 5.78969 15.4761 5.02677C15.413 4.86042 15.3848 4.67082 15.5216 4.55717C15.687 4.41985 16.0181 4.30366 16.6396 4.48903C17.0913 4.62378 17.5887 4.52985 17.4941 4.06803C17.4517 3.86096 17.3568 3.60621 17.1812 3.2989C17.0256 2.96178 17.1059 2.42319 18.5675 2.81461C18.7365 2.85986 18.9305 2.90181 19.0656 2.79068C19.1716 2.70345 19.243 2.55177 19.1973 2.30782C19.115 1.86847 18.7187 1.24381 19.1183 1.04366C19.1731 1.01626 19.2384 1 19.3159 1" stroke="white" stroke-width="1.50228" stroke-linecap="round" stroke-linejoin="round"/>
</svg>