<svg width="23" height="20" viewBox="0 0 23 20" fill="none" xmlns="http://www.w3.org/2000/svg">
  <path d="M18.0559 3.99998C20.7225 3.16664 24.7559 2.59998 19.5559 6.99998C14.3559 11.4 7.38919 14.1667 4.55585 15C2.38919 15.5 -0.944146 15.6 3.05585 12" stroke="#808080" stroke-width="1.6" stroke-linecap="round" stroke-linejoin="round"/>
  <path d="M17.7808 3.5C16.1643 1.95145 13.9712 1 11.5559 1C6.58531 1 2.55588 5.02944 2.55588 10C2.55588 10.5685 2.60859 11.1247 2.7094 11.664M20.1223 7.23223C20.4038 8.1042 20.5559 9.03434 20.5559 10C20.5559 14.9706 16.5264 19 11.5559 19C8.65655 19 6.07743 17.629 4.43143 15.5" stroke="#808080" stroke-width="1.6" stroke-linecap="round" stroke-linejoin="round"/>
</svg>
