
<svg width="24" height="20" viewBox="0 0 24 20" fill="none" xmlns="http://www.w3.org/2000/svg">
<path d="M15.8578 7.21103L15.725 7.25303L15.021 7.31503L14.8199 7.63103L14.6751 7.58503L14.1139 7.08503L14.0324 6.82403L13.9248 6.54203L13.5718 6.22803L13.1554 6.14703L13.1453 6.33603L13.5527 6.73603L13.7538 6.96903L13.5295 7.08503L13.3475 7.03203L13.0739 6.91903L13.083 6.70003L12.7239 6.55303L12.6053 7.06803L12.2442 7.14903L12.2804 7.43703L12.7511 7.52703L12.8326 7.06803L13.2218 7.12503L13.4028 7.23003H13.6925L13.8936 7.63003L14.4196 8.16103L14.3814 8.36703L13.957 8.31303L13.2238 8.68103L12.6958 9.31103L12.6274 9.59003H12.4383L12.0853 9.42803L11.7424 9.59003L11.8278 9.95003L11.9767 9.77903L12.2392 9.77103L12.2211 10.094L12.4383 10.157L12.6556 10.399L13.0096 10.299L13.4119 10.363L13.8825 10.489L14.1169 10.516L14.5192 10.965L15.2876 11.414L14.7907 12.358L14.2657 12.6L14.0646 13.139L13.3053 13.639L13.2248 13.93C14.6304 13.5938 15.7815 12.595 16.3068 11.2559C16.8322 9.91672 16.6652 8.40672 15.8598 7.21303L15.8578 7.21103Z" fill="white"/>
<path d="M12.6928 11.956L12.3709 11.362L12.6666 10.749L12.3709 10.661L12.039 10.33L11.3039 10.166L11.0595 9.65802V9.95802H10.9518L10.3182 9.10402V8.40402L9.85359 7.65302L9.11538 7.78402H8.61855L8.36913 7.62002L8.68795 7.36902L8.37014 7.44202C7.56868 8.80069 7.56034 10.4821 8.34826 11.8485C9.13619 13.215 10.5997 14.0573 12.1839 14.056C12.3695 14.0544 12.5549 14.0418 12.739 14.018L12.6928 13.485C12.6928 13.485 12.8939 12.694 12.8939 12.667C12.8939 12.64 12.6928 11.956 12.6928 11.956Z" fill="white"/>
<path fill-rule="evenodd" clip-rule="evenodd" d="M9.40604 6.67803L10.1915 6.56903L10.5536 6.36903L10.9609 6.48603L11.6116 6.45003L11.8359 6.10403L12.1607 6.16003L12.9502 6.08403L13.1685 5.84503L13.4752 5.64503L13.9077 5.70603L14.0676 5.68203C12.2414 4.82324 10.0617 5.30869 8.77846 6.86003L9.40604 6.67803ZM12.3719 5.69703L12.8235 5.45003L13.1132 5.61703L12.6938 5.93403L12.2915 5.97403L12.1125 5.86003L12.3719 5.69703ZM11.2355 5.81603L11.0343 5.73303C11.0273 5.78603 10.7447 5.96703 10.7447 5.96703L11.0323 6.13503L11.6357 5.97803L11.4939 5.73303L11.2355 5.81603Z" fill="white"/>
<path d="M16.8953 5.05023C19.629 7.7839 19.629 12.2161 16.8953 14.9497M6.99581 14.9497C4.26214 12.2161 4.26214 7.7839 6.99581 5.05023" stroke="white" stroke-width="1.6" stroke-linecap="round" stroke-linejoin="round"/>
<path d="M19.7237 2.22186C24.0195 6.51763 24.0195 13.4824 19.7237 17.7782M4.16738 17.7782C-0.128385 13.4824 -0.128386 6.51763 4.16738 2.22186" stroke="white" stroke-width="1.6" stroke-linecap="round" stroke-linejoin="round"/>
</svg>
