<svg width="28" height="26" viewBox="0 0 28 26" fill="none" xmlns="http://www.w3.org/2000/svg">
<rect width="28" height="26" rx="3" fill="url(#paint0_linear_1833_83490)"/>
<path d="M4 20.401C4.10472 20.2462 4.1438 20.0581 4.27822 19.9158C4.59318 19.5827 4.99058 19.4654 5.4384 19.4901C5.90575 19.5155 6.37193 19.5591 6.83889 19.5925C7.13157 19.6134 7.4223 19.61 7.70794 19.528C7.89395 19.4745 8.02095 19.3641 8.10769 19.1957C8.40819 18.6106 8.55785 17.9781 8.72041 17.3513C9.22918 15.3879 9.72623 13.4218 10.2284 11.4572C10.2377 11.4208 10.2585 11.387 10.235 11.3346C9.60549 11.3346 8.96815 11.3271 8.33121 11.3392C8.13817 11.343 8.12528 11.2959 8.17256 11.1305C8.30542 10.6642 8.42343 10.1934 8.5348 9.72139C8.57075 9.56887 8.62975 9.51082 8.80247 9.51461C9.36829 9.52751 9.93529 9.50892 10.5011 9.52524C10.6926 9.53093 10.7559 9.46491 10.7985 9.29949C10.9747 8.60896 11.2049 7.93474 11.5097 7.28747C12.2838 5.64386 13.5725 4.57923 15.3681 4.11484C15.9433 3.96611 16.5353 3.94107 17.1105 4.16492C17.7259 4.40471 18.078 5.01821 17.9217 5.58809C17.7498 6.21563 17.162 6.58025 16.4813 6.50323C16.0163 6.45049 15.5584 6.36095 15.1012 6.27292C14.7667 6.20842 14.5342 6.30631 14.3462 6.56279C14.0258 6.99988 13.8324 7.49273 13.6897 8.00494C13.5663 8.44771 13.4693 8.89769 13.3502 9.34198C13.313 9.48046 13.3279 9.52561 13.4908 9.52106C14.8831 9.48312 16.2754 9.45125 17.6677 9.42128C17.9721 9.41483 18.2761 9.3803 18.5817 9.43645C18.9084 9.4964 19.128 9.67548 19.2831 9.95169C19.4293 10.212 19.5211 10.492 19.618 10.8126C19.7098 10.709 19.7837 10.6267 19.8564 10.544C20.3972 9.92627 21.0197 9.40762 21.7875 9.07222C22.2627 8.86506 22.7527 8.76679 23.2536 8.98723C23.696 9.18187 23.9934 9.65841 23.95 10.078C23.8925 10.6324 23.5416 11.0277 23.0079 11.1457C22.7535 11.2019 22.4948 11.2398 22.2369 11.2455C21.7273 11.2569 21.3557 11.5035 21.0243 11.8446C20.6926 12.1857 20.4093 12.5617 20.1479 12.9547C20.1088 13.0135 20.1068 13.0625 20.1221 13.1296C20.3108 13.9587 20.482 14.7922 20.6852 15.6178C20.804 16.1016 21.0501 16.5326 21.4092 16.8938C21.63 17.1161 21.689 17.1047 21.802 16.8243C21.9438 16.4726 22.1439 16.1748 22.5245 16.0268C23.1372 15.7885 23.816 16.1331 23.9617 16.7591C23.9683 16.7879 23.9586 16.824 24 16.8361V17.329C23.9895 17.335 23.9726 17.3396 23.9699 17.3479C23.73 18.1102 23.1223 18.5165 22.4104 18.7646C21.4815 19.0883 20.2588 18.6998 19.6094 17.9364C19.2733 17.5414 18.9861 17.1146 18.7407 16.6612C18.5579 16.3231 18.4113 15.9691 18.2605 15.5928C18.2085 15.655 18.1714 15.696 18.1382 15.74C17.7818 16.207 17.4164 16.6673 16.9928 17.0797C16.4903 17.5687 15.912 17.9174 15.186 18.0001C14.5701 18.0703 13.9562 17.7858 13.6503 17.2698C13.3474 16.7598 13.5018 16.0834 14.0051 15.713C14.4568 15.3807 15.0527 15.4376 15.4798 15.8701C15.5853 15.9771 15.6514 15.9779 15.7381 15.8709C15.7459 15.861 15.7565 15.8531 15.7659 15.8439C16.5149 15.1307 17.0577 14.2656 17.6443 13.4332C17.6923 13.3649 17.6779 13.3015 17.6618 13.2351C17.5255 12.6717 17.3828 12.1102 17.2547 11.5452C17.2293 11.4329 17.1878 11.4064 17.0776 11.4048C15.724 11.3843 14.3708 11.3612 13.0172 11.3324C12.8855 11.3297 12.8285 11.3597 12.7961 11.4902C12.4592 12.847 12.1111 14.2015 11.7742 15.5586C11.5054 16.6418 11.2201 17.7179 10.682 18.713C9.9982 19.9784 9.04748 20.9831 7.69349 21.5871C6.91118 21.9361 6.08823 22.0879 5.23012 21.9487C4.75456 21.8716 4.37083 21.6398 4.12934 21.216C4.07698 21.1242 4.08714 21.0077 4.00039 20.9318V20.401H4Z" fill="white"/>
<defs>
<linearGradient id="paint0_linear_1833_83490" x1="16.9858" y1="34.6378" x2="16.9858" y2="0" gradientUnits="userSpaceOnUse">
<stop stop-color="#FD3A84"/>
<stop offset="1" stop-color="#FFA68D"/>
</linearGradient>
</defs>
</svg>
