<svg width="29" height="26" viewBox="0 0 29 26" fill="none" xmlns="http://www.w3.org/2000/svg">
<path d="M25.1998 26C26.8198 26 28.1334 24.687 28.1334 23.067C28.1334 21.2864 28.1334 19.2999 28.1334 19V17.74L23.1334 7L14.4981 9.1588C14.8994 8.5356 15.1334 7.79487 15.1334 7C15.1334 4.79393 13.3384 3 11.1334 3C8.92829 3 7.13335 4.79393 7.13335 7C7.13335 8.49653 7.95989 9.8026 9.17962 10.4885L7.13335 11L0.199951 24.02C0.600018 25.1799 1.69995 26 3.00002 26H21.1334C21.1334 26 23.0836 26 25.1998 26Z" fill="url(#paint0_linear_1833_83471)"/>
<path d="M21.9143 9.97507L28.1333 17.74V3C28.1333 1.34313 26.7902 0 25.1333 0H3C1.34313 0 0 1.34313 0 3V23C0 23.36 0.0600667 23.6999 0.199933 24.02L8.3526 13.9777C8.75273 13.4766 9.51433 13.4763 9.91487 13.977L12.7525 17.5239C13.1528 18.0243 13.9139 18.0243 14.3142 17.5239L20.3529 9.97553C20.7531 9.47527 21.5139 9.47507 21.9143 9.97507ZM11.1333 10C9.47327 10 8.13333 8.65993 8.13333 7C8.13333 5.33993 9.47327 4 11.1333 4C12.7934 4 14.1333 5.33993 14.1333 7C14.1333 8.65993 12.7934 10 11.1333 10Z" fill="url(#paint1_linear_1833_83471)"/>
<defs>
<linearGradient id="paint0_linear_1833_83471" x1="15.6664" y1="29" x2="15.6664" y2="3" gradientUnits="userSpaceOnUse">
<stop stop-color="#FFC2CC"/>
<stop offset="1" stop-color="#FFF2F4"/>
</linearGradient>
<linearGradient id="paint1_linear_1833_83471" x1="17.0667" y1="32" x2="17.0667" y2="0" gradientUnits="userSpaceOnUse">
<stop stop-color="#FD3A84"/>
<stop offset="1" stop-color="#FFA68D"/>
</linearGradient>
</defs>
</svg>
