<svg width="32" height="31" viewBox="0 0 32 31" fill="none" xmlns="http://www.w3.org/2000/svg">
<ellipse cx="15.785" cy="15.3826" rx="15.5756" ry="15.3826" fill="#4C75A3"/>
<path d="M15.2145 6.81361C15.2686 6.81361 15.3195 6.80147 15.3719 6.80551C15.5215 6.80872 15.6704 6.82689 15.8162 6.85976C16.2335 6.96266 16.6222 7.15628 16.9541 7.42649C17.282 7.70256 17.7738 7.45968 18.155 7.69042C18.6709 8.02349 19.0238 8.55293 19.1297 9.15258C19.3423 10.0088 19.3591 10.901 19.1789 11.7644C19.145 11.8694 19.1422 11.9817 19.1707 12.0882C19.4655 12.8728 19.2738 13.7551 18.6789 14.3511C18.5151 14.5219 18.3919 14.7266 18.3182 14.9502C18.1666 15.3883 17.9518 15.8025 17.6804 16.18C17.2221 16.8568 17.4189 17.3458 18.2321 17.5167C19.2649 17.7195 20.2513 18.1078 21.1423 18.6623C21.431 18.8454 21.6975 19.0605 21.9366 19.3035C22.3803 19.743 22.6149 20.3474 22.5826 20.9672C22.5547 22.1355 22.5096 22.2351 21.4005 22.6747C20.2009 23.1169 18.9446 23.3911 17.6681 23.4892C16.0475 23.6334 14.417 23.6304 12.797 23.4803C11.8209 23.4384 10.8576 23.2447 9.9426 22.9062C9.05315 22.5427 8.89248 22.2254 8.82116 21.2951C8.72847 20.2029 9.31076 19.163 10.2967 18.6598C11.1749 18.1119 12.1474 17.7277 13.1659 17.5264C13.5495 17.4573 13.858 17.1751 13.957 16.8026C14.0368 16.599 13.9947 16.3684 13.848 16.2051C13.6384 15.953 13.4682 15.6714 13.343 15.3696C13.1686 14.9285 12.9303 14.5148 12.6355 14.1414C12.1187 13.5788 11.9988 12.763 12.3322 12.0785C12.3912 11.9595 12.3109 11.864 12.2847 11.7587C11.9291 10.4428 12.1871 9.03877 12.988 7.93006C13.4247 7.29764 14.1266 6.89318 14.8989 6.82899C14.9497 6.82333 14.926 6.82171 14.9809 6.81685C15.033 6.81222 15.0854 6.81222 15.1375 6.81685L15.2145 6.81361Z" fill="white"/>
</svg>
