<svg width="28" height="28" viewBox="0 0 28 28" fill="none" xmlns="http://www.w3.org/2000/svg">
<path d="M16.3333 16.6273V19.065C15.6035 18.807 14.8182 18.6667 14 18.6667C10.134 18.6667 6.99999 21.8007 6.99999 25.6667H4.66666C4.66666 20.512 8.84533 16.3333 14 16.3333C14.8057 16.3333 15.5876 16.4354 16.3333 16.6273ZM14 15.1667C10.1325 15.1667 6.99999 12.0342 6.99999 8.16666C6.99999 4.29916 10.1325 1.16666 14 1.16666C17.8675 1.16666 21 4.29916 21 8.16666C21 12.0342 17.8675 15.1667 14 15.1667ZM14 12.8333C16.5783 12.8333 18.6667 10.745 18.6667 8.16666C18.6667 5.58832 16.5783 3.49999 14 3.49999C11.4217 3.49999 9.33332 5.58832 9.33332 8.16666C9.33332 10.745 11.4217 12.8333 14 12.8333ZM21 19.8333V16.3333H23.3333V19.8333H26.8333V22.1667H23.3333V25.6667H21V22.1667H17.5V19.8333H21Z" fill="#2D4465"/>
</svg>
