<svg width="39" height="38" viewBox="0 0 39 38" fill="none" xmlns="http://www.w3.org/2000/svg">
<circle cx="19.259" cy="19" r="19" fill="#4C75A3"/>
<path d="M18.563 8.41581C18.629 8.41581 18.691 8.40081 18.755 8.40581C18.9375 8.40976 19.1191 8.43221 19.297 8.47281C19.806 8.59991 20.2802 8.83906 20.685 9.17281C21.085 9.51381 21.685 9.21381 22.15 9.49881C22.7793 9.91021 23.2098 10.5641 23.339 11.3048C23.5983 12.3623 23.6188 13.4644 23.399 14.5308C23.3577 14.6605 23.3542 14.7992 23.389 14.9308C23.7487 15.8999 23.5147 16.9897 22.789 17.7258C22.5893 17.9368 22.439 18.1896 22.349 18.4658C22.1641 19.0069 21.9021 19.5186 21.571 19.9848C21.012 20.8208 21.252 21.4248 22.244 21.6358C23.5039 21.8863 24.7072 22.366 25.794 23.0508C26.1462 23.277 26.4713 23.5427 26.763 23.8428C27.3042 24.3857 27.5905 25.1322 27.551 25.8978C27.517 27.3408 27.462 27.4638 26.109 28.0068C24.6457 28.553 23.1132 28.8917 21.556 29.0128C19.5792 29.191 17.5902 29.1873 15.614 29.0018C14.4233 28.9502 13.2481 28.7109 12.132 28.2928C11.047 27.8438 10.851 27.4518 10.764 26.3028C10.651 24.9537 11.3613 23.6693 12.564 23.0478C13.6352 22.371 14.8215 21.8965 16.064 21.6478C16.532 21.5624 16.9082 21.2139 17.029 20.7538C17.1264 20.5023 17.0751 20.2175 16.896 20.0158C16.6403 19.7045 16.4327 19.3566 16.28 18.9838C16.0673 18.439 15.7766 17.928 15.417 17.4668C14.7866 16.7719 14.6403 15.7643 15.047 14.9188C15.119 14.7718 15.021 14.6538 14.989 14.5238C14.5553 12.8984 14.8699 11.1642 15.847 9.79481C16.3796 9.01366 17.2359 8.51409 18.178 8.43481C18.24 8.42781 18.211 8.42581 18.278 8.41981C18.3415 8.41408 18.4055 8.41408 18.469 8.41981L18.563 8.41581Z" fill="white"/>
</svg>
