<svg width="25" height="25" viewBox="0 0 25 25" fill="none" xmlns="http://www.w3.org/2000/svg">
<path fill-rule="evenodd" clip-rule="evenodd" d="M1.32707 7.4379C3.19296 2.93481 7.58781 -0.000808453 12.4622 1.67009e-07C19.1138 0.00881706 24.5035 5.39939 24.5112 12.051C24.5112 16.9254 21.5748 21.3197 17.0714 23.1849C12.568 25.05 7.38452 24.0186 3.93811 20.5716C0.49171 17.1247 -0.538829 11.941 1.32707 7.4379ZM12.8792 11.229H12.0462V11.23C11.6679 11.23 11.3612 10.9233 11.3612 10.545C11.3612 10.1667 11.6679 9.86 12.0462 9.86H14.3802C14.6805 9.87048 14.9626 9.71624 15.1159 9.45775C15.2691 9.19926 15.2691 8.87774 15.1159 8.61925C14.9626 8.36076 14.6805 8.20652 14.3802 8.217H13.2802V7.395C13.2647 6.95245 12.9015 6.60167 12.4587 6.60167C12.0158 6.60167 11.6526 6.95245 11.6372 7.395V8.258C10.4515 8.4691 9.62332 9.55062 9.72862 10.7503C9.83393 11.95 10.8379 12.8707 12.0422 12.872H12.8752C13.243 12.8861 13.534 13.1884 13.534 13.5565C13.534 13.9246 13.243 14.2269 12.8752 14.241H10.5412C10.2408 14.2305 9.95872 14.3848 9.80545 14.6433C9.65218 14.9017 9.65218 15.2233 9.80545 15.4817C9.95872 15.7402 10.2408 15.8945 10.5412 15.884H11.6412V16.705C11.6307 17.0053 11.7849 17.2874 12.0434 17.4407C12.3019 17.594 12.6234 17.594 12.8819 17.4407C13.1404 17.2874 13.2946 17.0053 13.2842 16.705V15.843C14.4698 15.6319 15.298 14.5504 15.1927 13.3507C15.0874 12.151 14.0835 11.2303 12.8792 11.229Z" fill="#FE6952"/>
</svg>
