<svg width="37" height="37" viewBox="0 0 37 37" fill="none" xmlns="http://www.w3.org/2000/svg">
<rect x="0.5" y="0.5" width="36" height="36" rx="18" fill="url(#paint0_linear_372_161075)"/>
<path d="M7.58148 28.9718L9.12488 23.3673C8.17069 21.7222 7.67012 19.8592 7.67534 17.9547C7.67534 11.9869 12.5558 7.13477 18.5469 7.13477C21.4564 7.13477 24.1887 8.26087 26.2379 10.3055C28.2922 12.3501 29.4237 15.0694 29.4185 17.9599C29.4185 23.9277 24.538 28.7798 18.5417 28.7798H18.5365C16.7167 28.7798 14.9283 28.3231 13.3379 27.4617L7.58148 28.9718ZM13.6143 25.5053L13.9428 25.7025C15.3298 26.5224 16.9201 26.9531 18.5417 26.9583H18.5469C23.5265 26.9583 27.5831 22.9262 27.5831 17.9651C27.5831 15.5624 26.6446 13.305 24.9395 11.6029C23.2345 9.90072 20.9611 8.96663 18.5469 8.96663C13.5674 8.96144 9.51073 12.9936 9.51073 17.9547C9.51073 19.6516 9.98522 21.3071 10.8925 22.7393L11.1063 23.0818L10.1938 26.3979L13.6143 25.5053Z" fill="white"/>
<path d="M7.96213 28.5931L9.45339 23.1805C8.53047 21.5977 8.04555 19.797 8.04555 17.96C8.05077 12.1997 12.7592 7.51367 18.5469 7.51367C21.3574 7.51367 23.9906 8.60345 25.9719 10.5754C27.9533 12.5474 29.0431 15.1732 29.0431 17.9652C29.0431 23.7254 24.3295 28.4114 18.5469 28.4114H18.5417C16.7845 28.4114 15.0586 27.9703 13.5257 27.14L7.96213 28.5931Z" fill="url(#paint1_linear_372_161075)"/>
<path d="M7.58148 28.9718L9.12488 23.3673C8.17069 21.7222 7.67012 19.8592 7.67534 17.9547C7.67534 11.9869 12.5558 7.13477 18.5469 7.13477C21.4564 7.13477 24.1887 8.26087 26.2379 10.3055C28.2922 12.3501 29.4237 15.0694 29.4185 17.9599C29.4185 23.9277 24.538 28.7798 18.5417 28.7798H18.5365C16.7167 28.7798 14.9283 28.3231 13.3379 27.4617L7.58148 28.9718ZM13.6143 25.5053L13.9428 25.7025C15.3298 26.5224 16.9201 26.9531 18.5417 26.9583H18.5469C23.5265 26.9583 27.5831 22.9262 27.5831 17.9651C27.5831 15.5624 26.6446 13.305 24.9395 11.6029C23.2345 9.90072 20.9611 8.96663 18.5469 8.96663C13.5674 8.96144 9.51073 12.9936 9.51073 17.9547C9.51073 19.6516 9.98522 21.3071 10.8925 22.7393L11.1063 23.0818L10.1938 26.3979L13.6143 25.5053Z" fill="url(#paint2_linear_372_161075)"/>
<path fill-rule="evenodd" clip-rule="evenodd" d="M15.8303 13.4293C15.6269 12.9778 15.4131 12.9674 15.2202 12.9622C15.0638 12.957 14.8813 12.957 14.6988 12.957C14.5163 12.957 14.2243 13.0245 13.974 13.2943C13.7237 13.5642 13.025 14.2181 13.025 15.5517C13.025 16.8802 14.0001 18.1672 14.1356 18.3488C14.2712 18.5305 16.018 21.3483 18.7763 22.4329C21.0705 23.3359 21.5398 23.1542 22.0351 23.1075C22.5305 23.0608 23.6411 22.4537 23.8705 21.8205C24.0948 21.1874 24.0948 20.6477 24.027 20.5336C23.9592 20.4194 23.7767 20.3519 23.5055 20.217C23.2344 20.0821 21.8996 19.4282 21.6493 19.3348C21.399 19.2466 21.2165 19.1999 21.0392 19.4697C20.8567 19.7396 20.3353 20.3468 20.1789 20.5284C20.0225 20.71 19.8608 20.7308 19.5897 20.5958C19.3186 20.4609 18.4426 20.1755 17.4049 19.2518C16.5967 18.5357 16.0493 17.6483 15.8928 17.3784C15.7364 17.1086 15.8772 16.9633 16.0128 16.8283C16.1327 16.709 16.2839 16.5118 16.4195 16.3561C16.555 16.2004 16.602 16.0862 16.6906 15.9046C16.7792 15.723 16.7375 15.5673 16.6697 15.4324C16.602 15.3026 16.0701 13.9638 15.8303 13.4293Z" fill="white"/>
<defs>
<linearGradient id="paint0_linear_372_161075" x1="18.4991" y1="36.4982" x2="18.4991" y2="0.49874" gradientUnits="userSpaceOnUse">
<stop stop-color="#20B038"/>
<stop offset="1" stop-color="#60D66A"/>
</linearGradient>
<linearGradient id="paint1_linear_372_161075" x1="18.5021" y1="28.592" x2="18.5021" y2="7.51293" gradientUnits="userSpaceOnUse">
<stop stop-color="#20B038"/>
<stop offset="1" stop-color="#60D66A"/>
</linearGradient>
<linearGradient id="paint2_linear_372_161075" x1="18.5021" y1="28.9698" x2="18.5021" y2="7.13477" gradientUnits="userSpaceOnUse">
<stop stop-color="#F9F9F9"/>
<stop offset="1" stop-color="white"/>
</linearGradient>
</defs>
</svg>
