<svg width="28" height="28" viewBox="0 0 28 28" fill="none" xmlns="http://www.w3.org/2000/svg">
<g clip-path="url(#clip0_2043_136406)">
<path d="M22.6354 4.66667H21.3509C20.8084 2.00783 18.4517 0 15.6354 0H6.30208C3.08558 0 0.46875 2.61683 0.46875 5.83333V20.8297C0.46875 21.756 0.97625 22.603 1.79175 23.0393C2.16275 23.2388 2.56992 23.3368 2.97592 23.3368C3.46125 23.3368 3.94542 23.1957 4.36425 22.9168L7.80592 20.622C8.61208 22.8795 10.7704 24.5 13.3021 24.5H19.9486L24.5732 27.5835C24.9932 27.8635 25.4762 28.0047 25.9616 28.0047C26.3676 28.0047 26.7736 27.9055 27.1457 27.706C27.9624 27.2697 28.4688 26.4227 28.4688 25.4963V10.5C28.4688 7.2835 25.8519 4.66667 22.6354 4.66667ZM3.07042 20.9755C3.04825 20.9895 2.98292 21.0315 2.89308 20.9837C2.80092 20.9347 2.80092 20.8565 2.80092 20.8308V5.83333C2.80092 3.90367 4.37125 2.33333 6.30092 2.33333H15.6342C17.5639 2.33333 19.1342 3.90367 19.1342 5.83333V14C19.1342 15.9297 17.5639 17.5 15.6342 17.5H8.63425C8.25275 17.5 8.00308 17.6855 7.97508 17.7042L3.07042 20.9755ZM26.1354 25.4975C26.1354 25.522 26.1354 25.6013 26.0432 25.6503C25.9511 25.6982 25.8881 25.6562 25.8671 25.6422L20.9496 22.3627C20.7582 22.2355 20.5331 22.1667 20.3021 22.1667H13.3021C11.7807 22.1667 10.4846 21.1913 10.0027 19.8333H15.6354C18.8519 19.8333 21.4688 17.2165 21.4688 14V7H22.6354C24.5651 7 26.1354 8.57033 26.1354 10.5V25.4975Z" fill="white"/>
</g>
<defs>
<clipPath id="clip0_2043_136406">
<rect width="28" height="28" fill="white"/>
</clipPath>
</defs>
</svg>
