<svg width="18" height="20" viewBox="0 0 18 20" fill="none" xmlns="http://www.w3.org/2000/svg">
<path d="M1.93 10.011C2.19226 9.97385 2.45853 10.0423 2.67038 10.2013C2.88223 10.3603 3.02235 10.5968 3.06 10.859C3.18533 11.7278 3.49975 12.5586 3.98108 13.2927C4.46241 14.0268 5.09893 14.6463 5.84576 15.1077C6.59259 15.569 7.43154 15.8609 8.30344 15.9627C9.17534 16.0645 10.059 15.9738 10.892 15.697L11.185 15.59L12.694 17.099C11.9611 17.4813 11.1729 17.7468 10.358 17.886L10 17.939V19.001C9.99972 19.2559 9.90212 19.501 9.72715 19.6863C9.55218 19.8717 9.31305 19.9832 9.0586 19.9981C8.80416 20.0131 8.55362 19.9303 8.35817 19.7667C8.16271 19.6031 8.0371 19.3711 8.007 19.118L8 19.001V17.939C6.26197 17.7193 4.64397 16.9356 3.39417 15.7081C2.14436 14.4805 1.33176 12.8768 1.081 11.143C1.06233 11.013 1.06946 10.8806 1.10198 10.7533C1.1345 10.626 1.19176 10.5064 1.27051 10.4013C1.34926 10.2962 1.44794 10.2076 1.56093 10.1406C1.67391 10.0737 1.79998 10.0296 1.93 10.011ZM9 0.000976562C10.2885 0.001051 11.5272 0.498518 12.4578 1.38964C13.3884 2.28075 13.9391 3.49673 13.995 4.78398L14 5.00098V10.001C14.0013 10.8936 13.7626 11.7702 13.309 12.539L13.172 12.759L13.891 13.478C14.433 12.718 14.801 11.826 14.939 10.859C14.9767 10.5964 15.1171 10.3596 15.3294 10.2005C15.5417 10.0415 15.8084 9.97332 16.071 10.011C16.3336 10.0486 16.5704 10.1891 16.7294 10.4013C16.8885 10.6136 16.9567 10.8804 16.919 11.143C16.7377 12.4105 16.2534 13.6156 15.507 14.656L15.32 14.906L17.485 17.072C17.6643 17.2519 17.7685 17.4934 17.7762 17.7474C17.784 18.0013 17.6948 18.2487 17.5268 18.4393C17.3587 18.6298 17.1244 18.7493 16.8715 18.7734C16.6186 18.7975 16.366 18.7244 16.165 18.569L16.071 18.486L0.514999 2.93098C0.335651 2.75102 0.231526 2.50954 0.223771 2.25559C0.216016 2.00164 0.305214 1.75426 0.473248 1.5637C0.641282 1.37313 0.875551 1.25367 1.12847 1.22958C1.3814 1.20548 1.63401 1.27856 1.835 1.43398L1.929 1.51698L4.159 3.74698C4.43717 2.67465 5.06346 1.725 5.93961 1.04704C6.81575 0.369069 7.89218 0.00114096 9 0.000976562ZM4 8.40498L10.398 14.803C9.65279 15.02 8.86728 15.0605 8.10369 14.9214C7.34009 14.7823 6.61937 14.4673 5.9986 14.0013C5.37783 13.5354 4.87405 12.9314 4.52715 12.237C4.18026 11.5427 3.99978 10.7771 4 10.001V8.40498Z" fill="white"/>
</svg>
