<svg width="19" height="19" viewBox="0 0 19 19" fill="none" xmlns="http://www.w3.org/2000/svg">
<path d="M9.33333 17.6667H2.66667C1.75 17.6667 1 16.9167 1 16V9.33333C1 4.75 4.75 1 9.33333 1C13.9167 1 17.6667 4.75 17.6667 9.33333C17.6667 14 14 17.6667 9.33333 17.6667Z" stroke="white" stroke-width="2" stroke-miterlimit="10" stroke-linecap="round" stroke-linejoin="round"/>
<path d="M5.16202 10.1667C5.62225 10.1667 5.99535 9.79357 5.99535 9.33333C5.99535 8.87309 5.62225 8.5 5.16202 8.5C4.70178 8.5 4.32868 8.87309 4.32868 9.33333C4.32868 9.79357 4.70178 10.1667 5.16202 10.1667Z" fill="white"/>
<path d="M13.5028 10.1667C13.963 10.1667 14.3361 9.79357 14.3361 9.33333C14.3361 8.87309 13.963 8.5 13.5028 8.5C13.0426 8.5 12.6695 8.87309 12.6695 9.33333C12.6695 9.79357 13.0426 10.1667 13.5028 10.1667Z" fill="white"/>
<path d="M9.3324 10.1667C9.79264 10.1667 10.1657 9.79357 10.1657 9.33333C10.1657 8.87309 9.79264 8.5 9.3324 8.5C8.87217 8.5 8.49907 8.87309 8.49907 9.33333C8.49907 9.79357 8.87217 10.1667 9.3324 10.1667Z" fill="white"/>
</svg>
