<svg width="16" height="16" viewBox="0 0 16 16" fill="none" xmlns="http://www.w3.org/2000/svg">
<path d="M13.64 2.32804C12.9066 1.58718 12.0329 0.999779 11.0701 0.600087C10.1073 0.200395 9.07451 -0.00358408 8.03202 4.76556e-05C3.66403 4.76556e-05 0.104039 3.56004 0.104039 7.92802C0.104039 9.32802 0.472038 10.688 1.16004 11.888L0.0400391 16L4.24003 14.896C5.40002 15.528 6.70402 15.864 8.03202 15.864C12.4 15.864 15.96 12.304 15.96 7.93602C15.96 5.81603 15.136 3.82404 13.64 2.32804ZM8.03202 14.52C6.84802 14.52 5.68802 14.2 4.67203 13.6L4.43203 13.456L1.93603 14.112L2.60003 11.68L2.44003 11.432C1.78223 10.3816 1.43295 9.16741 1.43203 7.92802C1.43203 4.29603 4.39203 1.33604 8.02401 1.33604C9.78401 1.33604 11.44 2.02404 12.68 3.27204C13.294 3.88321 13.7806 4.61016 14.1115 5.41077C14.4425 6.21138 14.6112 7.06971 14.608 7.93602C14.624 11.568 11.664 14.52 8.03202 14.52ZM11.648 9.59202C11.448 9.49602 10.472 9.01602 10.296 8.94402C10.112 8.88002 9.98401 8.84802 9.84801 9.04002C9.71201 9.24002 9.33601 9.68802 9.22401 9.81602C9.11201 9.95202 8.99201 9.96802 8.79201 9.86402C8.59201 9.76802 7.95202 9.55202 7.20002 8.88002C6.60802 8.35202 6.21602 7.70402 6.09602 7.50402C5.98402 7.30403 6.08002 7.20003 6.18402 7.09603C6.27202 7.00803 6.38402 6.86403 6.48002 6.75203C6.57602 6.64003 6.61602 6.55203 6.68002 6.42403C6.74402 6.28803 6.71202 6.17603 6.66402 6.08003C6.61602 5.98403 6.21602 5.00803 6.05602 4.60803C5.89602 4.22404 5.72802 4.27204 5.60802 4.26403H5.22402C5.08802 4.26403 4.88002 4.31203 4.69602 4.51203C4.52003 4.71203 4.00803 5.19203 4.00803 6.16803C4.00803 7.14403 4.72003 8.08802 4.81603 8.21602C4.91202 8.35202 6.21602 10.352 8.20002 11.208C8.67201 11.416 9.04001 11.536 9.32801 11.624C9.80001 11.776 10.232 11.752 10.576 11.704C10.96 11.648 11.752 11.224 11.912 10.76C12.08 10.296 12.08 9.90402 12.024 9.81602C11.968 9.72802 11.848 9.68802 11.648 9.59202Z" fill="white"/>
</svg>
