<svg width="90" height="21" viewBox="0 0 90 21" fill="none" xmlns="http://www.w3.org/2000/svg">
<path d="M28.3501 3.69111C28.0261 2.47611 27.0676 1.51761 25.8481 1.18911C23.6431 0.59961 14.7961 0.599609 14.7961 0.599609C14.7961 0.599609 5.95359 0.59961 3.74409 1.18911C2.52909 1.51311 1.57059 2.47161 1.24209 3.69111C0.652588 5.89611 0.652588 10.4996 0.652588 10.4996C0.652588 10.4996 0.652588 15.1031 1.24209 17.3081C1.56609 18.5231 2.52459 19.4816 3.74409 19.8101C5.95359 20.3996 14.7961 20.3996 14.7961 20.3996C14.7961 20.3996 23.6431 20.3996 25.8481 19.8101C27.0631 19.4861 28.0216 18.5276 28.3501 17.3081C28.9396 15.1031 28.9396 10.4996 28.9396 10.4996C28.9396 10.4996 28.9396 5.89611 28.3501 3.69111Z" fill="#FF0000"/>
<path d="M11.97 14.7429L19.3185 10.4994L11.97 6.25586V14.7429Z" fill="white"/>
<path d="M41.7106 18.6125C41.1526 18.2345 40.7521 17.6495 40.5181 16.853C40.2841 16.0565 40.1626 14.999 40.1626 13.676V11.876C40.1626 10.5395 40.2976 9.46853 40.5676 8.65853C40.8376 7.84853 41.2606 7.25903 41.8321 6.89003C42.4036 6.52103 43.1551 6.33203 44.0866 6.33203C45.0046 6.33203 45.7381 6.52103 46.2916 6.89903C46.8451 7.27703 47.2501 7.86653 47.5066 8.66753C47.7631 9.46853 47.8891 10.5395 47.8891 11.8715V13.6715C47.8891 14.9945 47.7631 16.0565 47.5156 16.8575C47.2681 17.6585 46.8631 18.248 46.3006 18.617C45.7426 18.986 44.9821 19.175 44.0236 19.175C43.0426 19.1795 42.2686 18.9905 41.7106 18.6125ZM44.8471 16.6685C45.0001 16.2635 45.0811 15.602 45.0811 14.6885V10.823C45.0811 9.93203 45.0046 9.28403 44.8471 8.87003C44.6941 8.46053 44.4196 8.25353 44.0281 8.25353C43.6501 8.25353 43.3846 8.46053 43.2271 8.87003C43.0741 9.27953 42.9931 9.93203 42.9931 10.823V14.6885C42.9931 15.6065 43.0651 16.268 43.2136 16.6685C43.3621 17.0735 43.6321 17.276 44.0236 17.276C44.4196 17.276 44.6896 17.0735 44.8471 16.6685Z" fill="#0F0F0F"/>
<path d="M84.6719 13.7083V14.3338C84.6719 15.1303 84.6944 15.7243 84.7439 16.1248C84.7889 16.5208 84.8879 16.8133 85.0364 16.9933C85.1849 17.1733 85.4144 17.2678 85.7249 17.2678C86.1434 17.2678 86.4314 17.1058 86.5844 16.7818C86.7374 16.4578 86.8229 15.9178 86.8364 15.1618L89.2439 15.3013C89.2574 15.4093 89.2619 15.5578 89.2619 15.7468C89.2619 16.8943 88.9469 17.7493 88.3214 18.3163C87.6959 18.8833 86.8094 19.1668 85.6619 19.1668C84.2849 19.1668 83.3219 18.7348 82.7684 17.8708C82.2149 17.0068 81.9404 15.6748 81.9404 13.8658V11.7013C81.9404 9.83829 82.2284 8.4838 82.7999 7.6243C83.3714 6.7693 84.3524 6.3418 85.7429 6.3418C86.7014 6.3418 87.4349 6.5173 87.9479 6.8683C88.4609 7.2193 88.8209 7.7638 89.0324 8.5063C89.2394 9.2488 89.3474 10.2748 89.3474 11.5798V13.7038H84.6719V13.7083ZM85.0274 8.4883C84.8879 8.6638 84.7934 8.9518 84.7439 9.3478C84.6944 9.7438 84.6719 10.3513 84.6719 11.1568V12.0478H86.7149V11.1568C86.7149 10.3603 86.6879 9.7573 86.6339 9.3478C86.5799 8.9383 86.4809 8.6458 86.3414 8.4793C86.2019 8.3128 85.9814 8.2273 85.6844 8.2273C85.3874 8.2228 85.1669 8.3128 85.0274 8.4883Z" fill="#0F0F0F"/>
<path d="M34.9155 13.474L31.7385 2.00352H34.5105L35.622 7.20102C35.9055 8.48352 36.1125 9.57252 36.2475 10.477H36.3285C36.423 9.82902 36.63 8.74452 36.954 7.21902L38.106 1.99902H40.878L37.665 13.474V18.9775H34.9155V13.474Z" fill="#0F0F0F"/>
<path d="M56.9025 6.5752V18.9727H54.72L54.477 17.4562H54.4185C53.8245 18.6037 52.9335 19.1752 51.75 19.1752C50.9265 19.1752 50.319 18.9052 49.9275 18.3652C49.536 17.8252 49.3425 16.9837 49.3425 15.8362V6.5752H52.1325V15.6787C52.1325 16.2322 52.191 16.6282 52.3125 16.8622C52.434 17.0962 52.6365 17.2177 52.92 17.2177C53.163 17.2177 53.397 17.1457 53.6175 16.9972C53.838 16.8487 54.0045 16.6597 54.1125 16.4302V6.5752H56.9025Z" fill="#0F0F0F"/>
<path d="M71.2216 6.5752V18.9727H69.0391L68.7961 17.4562H68.7376C68.1436 18.6037 67.2526 19.1752 66.0691 19.1752C65.2456 19.1752 64.6381 18.9052 64.2466 18.3652C63.8551 17.8252 63.6616 16.9837 63.6616 15.8362V6.5752H66.4516V15.6787C66.4516 16.2322 66.5101 16.6282 66.6316 16.8622C66.7531 17.0962 66.9556 17.2177 67.2391 17.2177C67.4821 17.2177 67.7161 17.1457 67.9366 16.9972C68.1571 16.8487 68.3236 16.6597 68.4316 16.4302V6.5752H71.2216Z" fill="#0F0F0F"/>
<path d="M64.4896 4.24941H61.7176V18.9734H58.9861V4.24941H56.2141V2.00391H64.4851V4.24941H64.4896Z" fill="#0F0F0F"/>
<path d="M80.46 8.55993C80.289 7.77693 80.019 7.20993 79.641 6.85893C79.263 6.50793 78.7455 6.33243 78.084 6.33243C77.571 6.33243 77.094 6.47643 76.6485 6.76893C76.203 7.05693 75.861 7.43943 75.618 7.91193H75.5955V1.37793H72.9045V18.9774H75.2085L75.492 17.8029H75.5505C75.7665 18.2214 76.0905 18.5499 76.5225 18.7929C76.9545 19.0359 77.4315 19.1574 77.958 19.1574C78.903 19.1574 79.596 18.7209 80.0415 17.8524C80.487 16.9839 80.7075 15.6249 80.7075 13.7754V11.8134C80.712 10.4274 80.6265 9.34293 80.46 8.55993ZM77.8995 13.6179C77.8995 14.5224 77.8635 15.2289 77.787 15.7419C77.715 16.2549 77.589 16.6194 77.4135 16.8354C77.238 17.0514 77.004 17.1594 76.707 17.1594C76.4775 17.1594 76.266 17.1054 76.068 16.9974C75.8745 16.8894 75.7125 16.7274 75.591 16.5114V9.46893C75.6855 9.13143 75.8475 8.85693 76.077 8.64093C76.3065 8.42493 76.554 8.31693 76.824 8.31693C77.1075 8.31693 77.328 8.42943 77.481 8.64993C77.634 8.87043 77.742 9.24843 77.805 9.77043C77.8635 10.2969 77.895 11.0439 77.895 12.0159V13.6179H77.8995Z" fill="#0F0F0F"/>
</svg>
